<svg xmlns="http://www.w3.org/2000/svg" viewBox="0 0 620 414"><defs/><filter id="a"><feGaussianBlur stdDeviation="30"/></filter><rect width="100%" height="100%" fill="#715538"/><g filter="url(#a)"><path fill="#bad7ef" fill-opacity=".6" d="M212.4 145.6L16.2 381-37.5-37.5l695 75.5z"/><path fill="#90827a" fill-opacity=".9" d="M547.8 416l-321.4-81.3-3.8-70 435-271.2z"/><path fill="#817d74" d="M62 440.3l-6-218 111 23.8 23.7 203.2z"/><path fill="#1c0201" fill-opacity=".8" d="M247 137l40 44.2L179.7 339 194 158z"/><path fill="#aeb5b8" fill-opacity=".9" d="M321.1 97.8L422.4-24.7l-280-12.8 182.1 264.7z"/><path fill="#221400" fill-opacity=".5" d="M339 116l131.6 117-41.4-270.5L393 89z"/><path fill="#c1bbc0" fill-opacity=".8" d="M246 243l-18 21.4 2.2 107.3 49.4 77.5z"/><path fill="#2a1c19" fill-opacity=".7" d="M103.7 270.5l225.2-47.2-184.6 11.6-173.1 7.8z"/><path fill="#a5acb3" fill-opacity=".8" d="M63.7 215.8L51.8-18.4l139-19.1-2.1 274.4z"/><path fill="#abb5ca" fill-opacity=".6" d="M499.1 449.3l-51.5-225L579.3 309l-64.9 16.7z"/><path fill="#3f0100" fill-opacity=".4" d="M448 363.5l73.4 85.8-182.6-15 103-163.8z"/><path fill="#e2e8fb" fill-opacity=".5" d="M305.6 310l32-33.4 28.8 42.6 3 68.5z"/><path fill="#662204" fill-opacity=".4" d="M465.5 58.9l-212 240.7L409.9 239 372 268z"/><path fill="#8b8568" fill-opacity=".6" d="M615.6 301.5l25.7-277L392.6 9.7l5.6 93.5z"/><path fill="#2f1007" d="M223.5 315.3l-8.4-141.9-34.7 63.7 9.2 156.5z"/></g></svg>