<svg xmlns="http://www.w3.org/2000/svg" viewBox="0 0 620 414"><defs/><filter id="prefix__a"><feGaussianBlur stdDeviation="30"/></filter><rect width="100%" height="100%" fill="#38241e"/><g filter="url(#prefix__a)"><path fill="#c0c6e8" fill-opacity=".7" d="M532.8-37.5L100 4.4l186.3 344.1 17-158.9z"/><path fill="#870a0e" fill-opacity=".9" d="M514.2 58.9L357.7 84.8l-41 176.5 340.8 43.9z"/><path fill="#000008" fill-opacity=".6" d="M321.4 220.4l-109.5 57.4L25 449.3-37.5 74z"/><path fill="#fff0f0" fill-opacity=".5" d="M506.7 63.5l-299.9-101L243.4 169 364 77.7z"/><path fill="#3c669b" fill-opacity=".7" d="M380.7 342L137.1 157.2 79.4 63.9l47-101.4z"/><path fill="#000302" fill-opacity=".7" d="M-4.8 449.3L-3-16.2l40.2-21.3 231 446.6z"/><path fill="#9f7d84" fill-opacity=".5" d="M430.1 297.2l-45-31.3-162.3.7 10 94.7z"/><path fill="#640305" d="M595.5 259.9l-71-98.8-100.2 125 23.3 163.2z"/><path fill="#513930" fill-opacity=".9" d="M439.6-19.6l157.9-14.5 45.3 182.8-179.3-81.4z"/><path fill="#896959" fill-opacity=".7" d="M628.7 172.4l28.8 143.4-160.8 2 89.2 40.4z"/><path fill="#537bb9" fill-opacity=".7" d="M195 222.6L167.6 153l180.2-13.4-19 49.7z"/><path fill="#dcd1cf" fill-opacity=".9" d="M455.3 72.9l-103.9 5.6-68.8-116L445 3.9z"/><path fill="#a81314" fill-opacity=".3" d="M451 401.5L344 104 229-37.5l225 197.8z"/><path fill="#4e6998" d="M427.2 310.7l-108-20.3 6-18.7 68.4-6z"/><path fill="#dfdbf6" fill-opacity=".6" d="M247.3 163.7l-42-100.5L317 48l13.6 71z"/></g></svg>