<svg xmlns="http://www.w3.org/2000/svg" viewBox="0 0 620 414"><defs/><filter id="a"><feGaussianBlur stdDeviation="30"/></filter><rect width="100%" height="100%" fill="#523e2d"/><g filter="url(#a)"><path fill="#e9e9f5" fill-opacity=".6" d="M-37.5 223l482-3-43.7-257.5L216 30.8z"/><path fill="#fdd5c0" fill-opacity=".3" d="M344.6-6L437 392.7l220.6 43.6-48.9-474z"/><path fill="#553722" fill-opacity=".9" d="M160.3 227.7l30.3 31.2-10.4-296.4-47.7 6.3z"/><path fill="#eefafe" fill-opacity=".6" d="M395 65.9l-195.7 91-7-84L370.1-37.5z"/><path fill="#e6ead0" fill-opacity=".7" d="M525.8 414.4l7-47-101.7-59.3-17.2 34.6z"/><path fill="#704758" fill-opacity=".8" d="M281.2 120.1L161.3 353.4 652.7 124l-338.8 62.7z"/><path fill="#766a60" d="M-37.5 281.4V104.6L102.7 123l7.5 107z"/><path fill="#562b1b" fill-opacity=".9" d="M549.5 292.3l-41 62.5L539 36.1l63-73.6z"/><path fill="#00185a" fill-opacity=".7" d="M417.3 442.7l-74.6-107.3 36-215L413 281.9z"/><path fill="#b0ada3" fill-opacity=".6" d="M513.7 373.2l79.9-120.8 37.5-234.2L657.5 386z"/><path fill="#cbe4ff" fill-opacity=".8" d="M141.2 125.2L99.8 98.6 113 199l35.6 51.3z"/><path fill="#d7eafe" fill-opacity=".6" d="M196.4 244.4l7.3-193.8 22-61.3L251.4 193z"/><path fill="#d2a599" d="M371.5 449.3l2.7-57-19.4-35-14.3 92z"/><path fill="#cbad7f" d="M616.9-16l-22.6 41-40.7 266 25.7-78.2z"/><path fill="#74442a" fill-opacity=".7" d="M474.2 356.7l18.2-17.6 18.9-315.4-95-61.2z"/></g></svg>