<svg xmlns="http://www.w3.org/2000/svg" viewBox="0 0 620 414"><defs/><filter id="prefix__a"><feGaussianBlur stdDeviation="30"/></filter><rect width="100%" height="100%" fill="#49362c"/><g filter="url(#prefix__a)"><path fill="#fdf3ec" fill-opacity=".5" d="M409.8 277.5l31.7 171.8-253.6-79L74.6-37.5z"/><path fill="#e2d9e0" fill-opacity=".5" d="M563.8 449.3h41.4l.8-483.4L542-9z"/><path fill="#e0e1e6" d="M170.7 449.3l13.1-277.1 21.3 129.6 2 106.8z"/><path fill="#fff8f4" fill-opacity=".6" d="M298.9 273l73.1-49 51.8 225.3-117.2-36.9z"/><path fill="#bcab96" d="M105.8 30.5l-73.6-68L339.5 35l158.7-72.6z"/><path fill="#6b5540" fill-opacity=".9" d="M422.6 208.5l-185 78.7L194-37.5l266.9 323z"/><path fill="#000b12" fill-opacity=".5" d="M164.7 205.1L205 22.3l-242.6 427 215.8-49.7z"/><path fill="#070d13" fill-opacity=".8" d="M201 229.1l11.6 154.5 97.6-31.2-48.9 96.9z"/><path fill="#cabbb5" fill-opacity=".9" d="M258.4 212l56.2 126.3-89.9 34.2 34-115.3z"/><path fill="#f3cfb5" fill-opacity=".3" d="M174.4 137.6l77.5-44.1-62.5 151.1-141-173.4z"/><path fill="#9da38f" fill-opacity=".3" d="M571.3 278.5l81.2-92 5-129.6-241.2 1.7z"/><path fill="#d5d6da" fill-opacity=".8" d="M237.3 422.1l-21-253.5 36.3 280.7 161-69.5z"/><path fill="#453428" d="M274.6 296.7l13.4-74.9 45.7 2.2-52.3 70z"/><path fill="#131415" fill-opacity=".8" d="M278.3 421.6l30.5-25.6-11-44.3-61.2 14.2z"/><path fill="#222822" fill-opacity=".7" d="M408.3 389.2l146 60 1.5-202.9-157.6 117.5z"/></g></svg>