<svg xmlns="http://www.w3.org/2000/svg" viewBox="0 0 620 414"><defs/><filter id="prefix__a"><feGaussianBlur stdDeviation="30"/></filter><rect width="100%" height="100%" fill="#4b4b4b"/><g filter="url(#prefix__a)"><path fill="#9e9e9e" fill-opacity=".7" d="M47 317.8L-37.5 45.4l549 283.9-122.8 101.5z"/><path fill="#c1c1c1" fill-opacity=".7" d="M190.4-37.3L84.3 30.5l322 196.7-161.2-42.4z"/><path fill="#e2e2e2" fill-opacity=".6" d="M543 250.7l40.2 198.6 14.3-282.7-30.8-26.9z"/><path fill-opacity=".7" d="M387.7 105.8L628.5 126l-10-163.4L169 17.2z"/><path fill="#323232" fill-opacity=".9" d="M139 132.5l151.4 61.7-42.9 255L227 82z"/><path fill="#fff" fill-opacity=".4" d="M489.2 187.5L521 299l-274-17.1 148.5 80.2z"/><path fill="#010101" fill-opacity=".7" d="M-8.2 52.3l-2.7-79L48-37.4l144.5 193z"/><path fill="#aaa" d="M108 423.3L138.8 312l-6.6-152.8 108.5 83.3z"/><path fill="#141414" fill-opacity=".8" d="M135.4 430.1L171 318.2l41-.2-13.4 131.3z"/><path fill="#bbb" fill-opacity=".5" d="M370 133l6.8 101-86.2 215.3-19.1-223.1z"/><path fill="#f9f9f9" fill-opacity=".5" d="M229.4 96.4l-14.1-70.7L116 20l36.3 78.7z"/><path fill-opacity=".5" d="M377 174.9l-2.3 105.3 74 10.4 2-112.8z"/><path fill="#f5f5f5" fill-opacity=".5" d="M83.3 183.8l-21.8 44.3-65.1-77.7 129-9.7z"/><path fill="#e9e9e9" fill-opacity=".4" d="M423.8 100.3l41.7 15.2L483.2 70l-30.6 115.5z"/><path fill="#f5f5f5" fill-opacity=".5" d="M112.6 286.8l-43.8 36.5-50.4-23.7 42.4-28.8z"/></g></svg>