<svg xmlns="http://www.w3.org/2000/svg" viewBox="0 0 620 414"><defs/><filter id="prefix__a"><feGaussianBlur stdDeviation="30"/></filter><rect width="100%" height="100%" fill="#3d4145"/><g filter="url(#prefix__a)"><path fill="#e1e1de" fill-opacity=".7" d="M408.6 17.4L525 407.6l-562.6 41.7V-35.4z"/><path fill="#667174" fill-opacity=".7" d="M418 449.3l239.5-58-206.3-212.6-244.9 68.8z"/><path fill="#f1f0ea" fill-opacity=".6" d="M-37.5 39.7l210-77.2 11 459.6-221-13z"/><path fill="#bbbcbb" fill-opacity=".7" d="M440.5 54.7l-478 224.5 443.2-61 74.3-68z"/><path fill="#050101" fill-opacity=".5" d="M465.5 193.5l8.2-146.8 103 176.6-318 48.4z"/><path fill="#733a20" fill-opacity=".5" d="M251.6 139.5l19.6-6.3L154-37.5l48.5 108z"/><path fill="#ecf0ec" fill-opacity=".7" d="M329.6 364L248 422.1l-4.8-107.3 70.7 15z"/><path fill="#05070d" fill-opacity=".8" d="M483.4 38.5l37.8 140.2-150-216.2 79 63.2z"/><path fill="#7d6148" fill-opacity=".8" d="M210.5 273.7l124.7 54.5-81.4-73.9-13-40.4z"/><path fill="#7e939e" fill-opacity=".7" d="M140.7 406.9l427.5 42.4-73.9-208.8-211.4 166.9z"/><path fill="#fff4cc" fill-opacity=".3" d="M457.7-25.7l-29.5-11.8 86.4 141.4 18.7-1.5z"/><path fill="#372913" fill-opacity=".6" d="M-37.5 39l53.2-20.4L48.4 4.8 10.7-37.5z"/><path fill="#8b8b8f" fill-opacity=".7" d="M279.2 36.3l6.1-72.9L452.6 68.5l-65.1-25z"/><path fill="#fef6e9" fill-opacity=".5" d="M225.7 190.1l-.7 69-101-60.7L93 77z"/><path fill="#637d88" fill-opacity=".4" d="M252.8 427.7l-73.1-13 6.3-71.5 56.4-3z"/></g></svg>