<svg xmlns="http://www.w3.org/2000/svg" viewBox="0 0 620 414"><defs/><filter id="prefix__a"><feGaussianBlur stdDeviation="30"/></filter><rect width="100%" height="100%" fill="#5b4b3b"/><g filter="url(#prefix__a)"><path fill="#edf6ed" fill-opacity=".6" d="M47 178.5L9 449.3-37.5-37.5l256.4 45z"/><path fill="#f4e4df" fill-opacity=".5" d="M290.9 433.8l318.7 15.5L389 .5l1.9 165.6z"/><path fill="#b0c0ca" d="M-37.5 401.3l301-14-133 62-15.2-214.1z"/><path fill="#27180a" d="M388.2 122.3L303 396 202-37.5 383.4 7.3z"/><path fill="#f6cead" fill-opacity=".4" d="M182.4 266l-42.9-157.3L255 171.5l14.6 89z"/><path fill="#201500" fill-opacity=".8" d="M510.3-10.9l22.3 169.8-100.3 24.4-7-220.8z"/><path fill="#756959" fill-opacity=".9" d="M432.8 312.2L404 377.6l248-44.4-24.5-370.7z"/><path fill="#eff4fe" fill-opacity=".7" d="M520 402.8l-132 23 31.5-55.7 164-7.8z"/><path fill="#040503" fill-opacity=".8" d="M237.8 275.1l109.5 7.8L279 449.3l-44.6-73.7z"/><path fill="#200a00" fill-opacity=".7" d="M189.1 98l51.6 185.8L231-25.9 126.7 133.7z"/><path fill="#e6dbca" fill-opacity=".9" d="M373.5 220.9l-68.1 182.8 60.8-69.5-29.6-93.7z"/><path fill="#24230e" fill-opacity=".6" d="M131.5 112.1L118 257l-75.8 24-14.7-109z"/><path fill="#fafaf8" fill-opacity=".8" d="M34.4-37.5l-14 166.3-19 293.6-39-372.5z"/><path fill="#aab6af" fill-opacity=".9" d="M657.5 371.3V22.5l-71.6-60 27.8 214z"/><path fill="#ebfffd" fill-opacity=".5" d="M430.1 147L400 186 379.8-37.5 407-20z"/></g></svg>