<svg xmlns="http://www.w3.org/2000/svg" viewBox="0 0 620 414"><defs/><filter id="prefix__a"><feGaussianBlur stdDeviation="30"/></filter><rect width="100%" height="100%" fill="#49273c"/><g filter="url(#prefix__a)"><path fill="#9a91c6" fill-opacity=".9" d="M64.2 139.7L-21.1-11.6l678.6-26v161.1z"/><path fill="#f5e0fd" fill-opacity=".6" d="M572.3 8L187.9-37.5l45.6 106.3 271.2 26.9z"/><path fill="#6b4f8c" fill-opacity=".9" d="M297.9 86.2l119.4-.7L329 248.2-21-37.5z"/><path fill="#160e45" fill-opacity=".6" d="M657.5 418.3L547 243.4l-84.3-160L136 403.1z"/><path fill="#6f69d5" fill-opacity=".6" d="M565 212.4l.5-250 92 312.2-148.4-2.4z"/><path fill="#1b3d8b" fill-opacity=".5" d="M219.4 49l-257 180.8L.8-37.5h124z"/><path fill="#caafb1" fill-opacity=".7" d="M224.3 0L291 164.4l-143.4-62.7 258-26.1z"/><path fill="#2c2138" d="M278.3 346l-31-210.4L41.9 185l-77.3 247z"/><path fill="#89237e" fill-opacity=".6" d="M379.3 393l-3-304.4-30.2 236.9 78 28.3z"/><path fill="#0a061b" fill-opacity=".6" d="M503.8 157.7l-208-20.9 98-26.1 43.8 320.9z"/><path fill="#9881f1" fill-opacity=".5" d="M225 280l31.7-21.1-49.6-9.2h-72.4z"/><path fill="#ecdff8" fill-opacity=".6" d="M413-37.5l64.8 2.1-44 171-39.8-19.8z"/><path fill="#8652ff" fill-opacity=".4" d="M244.9 183.8l71.2 64 25.9-99.1-72.4-23.7z"/><path fill="#000507" fill-opacity=".7" d="M555 220l-38 42.3.6-137.6 47.2.8z"/><path fill="#0f0b15" fill-opacity=".9" d="M216.5 140L205 239.3l86-56-15 135z"/></g></svg>