<svg xmlns="http://www.w3.org/2000/svg" viewBox="0 0 620 929"><defs/><filter id="a"><feGaussianBlur stdDeviation="30"/></filter><rect width="100%" height="100%" fill="#593731"/><g filter="url(#a)"><path fill="#fbfcf9" fill-opacity=".6" d="M634.3-13l-663-36-27.5 989.6 716.7-13.4z"/><path fill="#371601" fill-opacity=".5" d="M455.8 257.3l-208 153.1 413 14.2L509.1 816z"/><path fill="#624c3e" fill-opacity=".6" d="M151.7 90L315-12l47.5 51.6 16.7 251.8z"/><path fill="#621d0e" fill-opacity=".5" d="M371.2 388.7l-63.5 294.6L120.1 315l-5.4 160.7z"/><path fill="#eeeff2" fill-opacity=".6" d="M402 985.2l-458.2-59.1L26-56.2l103 578.4z"/><path fill="#e6e6e8" fill-opacity=".9" d="M-56.2 52.3L136-56.2l77.6 418.4-270-42.9z"/><path fill="#d3d1d3" fill-opacity=".9" d="M409.3-56.2l-44.2 293.5 201.4 173.1 110.3-221.7z"/><path fill="#1c0b00" fill-opacity=".5" d="M548.3 652.8l25.8-60.2-157.5-161.8-27.6 37z"/><path fill="#f7edeb" fill-opacity=".5" d="M243.5 191.2l38.8-196 5.5 511-138.3-184z"/><path fill="#f1d8c7" fill-opacity=".6" d="M426.4 402.8l-62-25.8 104.8 114 207.6 137.5z"/><path fill="#491900" fill-opacity=".4" d="M102.3 441v-80l70-1.7 51.2 164z"/><path fill="#a78174" fill-opacity=".5" d="M619.8 668.8l-364.7 46.8-311.3 3.6 117.9-70.4z"/><path fill="#020306" fill-opacity=".7" d="M335.3 2.5L286 9.8l39 88.5L369 82z"/><path fill="#e1dde1" fill-opacity=".9" d="M-56.2 985.2L325.5 691l17.8-220.2 57.3 361.8z"/><path fill="#6f4d44" fill-opacity=".8" d="M511.7 985.2l73.3-92.1-45.4-43.6-59.5 135.7z"/></g></svg>