<svg xmlns="http://www.w3.org/2000/svg" viewBox="0 0 620 414"><defs/><filter id="a"><feGaussianBlur stdDeviation="30"/></filter><rect width="100%" height="100%" fill="#643f33"/><g filter="url(#a)"><path fill="#878a7e" fill-opacity=".7" d="M21.6-37.5L404.7-.2l50.4 391.6-492.2 21.8z"/><path fill="#e3fa6d" fill-opacity=".7" d="M632.6 244.6L616 87.2l-164.4 3.4 115.5 163z"/><path fill="#04131a" fill-opacity=".5" d="M287 264.2l-1.2-138.5-106.8-4.8 12.8 328.4z"/><path fill="#ebe0c8" fill-opacity=".7" d="M179.7 97.4l-99.8 87.1 2.4 100.3 93.3-60z"/><path fill="#000a0b" fill-opacity=".8" d="M405 303.2l252.5 127.4L636.7 259l-145.5-5.3z"/><path fill="#8b8f92" d="M423.1 313.9l-118-1.5 97.7 103.7 134.1-32.2z"/><path fill="#d3d4d2" fill-opacity=".5" d="M43.6 344.9l-79.4 42.4L20.8 82.8 48.4 139z"/><path fill="#25282a" fill-opacity=".6" d="M176.8 315l304.4 134.3-392.8-80.4 60.3-134.7z"/><path fill="#fdd6ae" fill-opacity=".3" d="M111.4-37.5l402 49.6-274.1 39.7L127 141.2z"/><path fill="#f2dbc9" fill-opacity=".6" d="M367.9 211.4l17.4 83.3L342 289l-13-78.8z"/><path fill="#8b6a50" fill-opacity=".7" d="M430.4 63l227.1 114.8L649.1 27 386-37.5z"/><path fill="#c2cecd" fill-opacity=".8" d="M62.5 449.3l4.3-354.8 25.5-4.9-17 78.2z"/><path fill="#e2f2fc" fill-opacity=".3" d="M249.7 337.6L155 166.1l140 181.4-55.2 67.1z"/><path fill="#ffd194" fill-opacity=".5" d="M154.8 312L129 375l-88.3 45 140.7 24.7z"/><path fill="#031119" fill-opacity=".5" d="M36.8 391.9L61 117.2 70.7 448l9-109.2z"/></g></svg>