<svg xmlns="http://www.w3.org/2000/svg" viewBox="0 0 620 414"><defs/><filter id="prefix__a"><feGaussianBlur stdDeviation="30"/></filter><rect width="100%" height="100%" fill="#583e34"/><g filter="url(#prefix__a)"><path fill="#dfe8ec" fill-opacity=".7" d="M407.6 277.5L242.4 16l-68 285L309 360.6z"/><path fill="#0b0c16" fill-opacity=".8" d="M657.5 430.4l-167.8-40.7L295.2 85.5 490-37.5z"/><path fill="#321e16" d="M-16 431.6L-28.6 89.4 178 293.3l94.7 130z"/><path fill="#bfad9f" fill-opacity=".5" d="M143.6 297L306 123.2l7.5-66.9L198 44.6z"/><path fill="#e2f2ff" fill-opacity=".4" d="M412.2 248.2L256.7 104l-8.5 15.3-30.5 238z"/><path fill="#0e2c5b" fill-opacity=".6" d="M392.8 219l63.5-194-160.6-42.7 45 210.7z"/><path fill="#38251b" fill-opacity=".7" d="M190.4 150.2L177.8-34.1l-215.3 8.4 87.1 270z"/><path fill="#65706e" fill-opacity=".5" d="M94.7 249.5l223 89.6L422 234.7l-68.3 164.2z"/><path fill="#190f00" fill-opacity=".3" d="M657.5-37.5v486.8L43 389l346.3-46.8z"/><path fill="#747069" fill-opacity=".5" d="M215 368.9l-2.6-196.5L266.9 10 134.4 210.2z"/><path fill="#2b2b26" fill-opacity=".7" d="M140.2-37.5l122.3 88.1 141-25.7-99.6-62.4z"/><path fill="#c7a58e" fill-opacity=".8" d="M228.1 33.7l-19.6 81.1 64.4-6 43.9-41.2z"/><path fill="#ebecf8" fill-opacity=".6" d="M383.9 14.5l139.5-52L383-35l-3.8 54.5z"/><path fill="#849ba3" fill-opacity=".3" d="M172.2 336.2l243 47.4-27.5-186.2-58.3 95.4z"/><path fill="#080200" fill-opacity=".3" d="M463-37.5l-65.6 237.3 23 137.6L592.1-.5z"/></g></svg>