<svg xmlns="http://www.w3.org/2000/svg" viewBox="0 0 620 414"><defs/><filter id="prefix__a"><feGaussianBlur stdDeviation="30"/></filter><rect width="100%" height="100%" fill="#482d52"/><g filter="url(#prefix__a)"><path fill="#a06b97" fill-opacity=".8" d="M467.2-37.5L-37.5 12.8l349.4 402 69.5-83.7z"/><path fill="#070000" fill-opacity=".6" d="M294.3 124l-73.7 308-87.4 17.3-31.5-252.6z"/><path fill="#f794ce" fill-opacity=".6" d="M579.6-33.2l-73.7-4.3-7 245 99.8-36z"/><path fill="#a08bc2" d="M208.5 16.2l29.6 131.5-245.6 32.7L17.9-32.9z"/><path fill="#ea99c9" fill-opacity=".7" d="M384.1 241.5l63.7 138.7-163-118.9L430.4 95z"/><path fill="#df81c1" fill-opacity=".7" d="M340.5 449.3l-25.2-118-63.7 2-33.9 86z"/><path fill="#0e0a22" fill-opacity=".8" d="M463.5 165.4l62.8 283.9-72-33.2-60-220.4z"/><path fill="#753c67" d="M227.2 29.8l12 118.2 187-49.7L519-3.9z"/><path fill="#0c0007" fill-opacity=".6" d="M138.8 129.8l36 .3 33.7 319.2-84.7-165.5z"/><path fill="#230e00" fill-opacity=".5" d="M657.5 449.3L575 146l-53 7 42 296.3z"/><path fill="#f4adf0" fill-opacity=".7" d="M592.4 147.7l10.9 84.8-14.5-4.1-14.3-190.1z"/><path fill="#0e0008" fill-opacity=".6" d="M191.6 449.3L83 366.4 79.9 290-37.5 398.6z"/><path fill="#e17596" fill-opacity=".4" d="M285 310.2L471 28.3 209 241.5l-15.5-279z"/><path fill="#590f00" fill-opacity=".3" d="M327.2 244.6l-7.5-145.5-105.1-16.3 47.2 89.6z"/><path fill="#ced3dd" d="M180.7 155.2l61.7-8-7.7-31.2-63.7-11.4z"/></g></svg>