<svg xmlns="http://www.w3.org/2000/svg" viewBox="0 0 620 414"><defs/><filter id="prefix__a"><feGaussianBlur stdDeviation="30"/></filter><rect width="100%" height="100%" fill="#303c5c"/><g filter="url(#prefix__a)"><path fill="#c8b79f" fill-opacity=".9" d="M-29.5 433.5l363 15.8L335.2-.5-37.5-1.9z"/><path fill="#d2ccc2" fill-opacity=".9" d="M657.5 431.3l-77.2-166.1-91.8 112.4-526 12.3z"/><path fill="#351800" fill-opacity=".7" d="M201 309.5L547.3 112l-59.5 286.5-214.1-52.3z"/><path fill="#c8a983" fill-opacity=".6" d="M537.4 91l66.1 358.3L569-37.5 107.3 34z"/><path fill="#d3cfc5" fill-opacity=".5" d="M177.5 88.9L381 63.5l34.4 179.7 24.2-280.7z"/><path fill="#0b0600" fill-opacity=".8" d="M379 133l17.2-70.5-82.6 10.4-7.7 65.6z"/><path fill="#ebeffe" fill-opacity=".5" d="M25.7 162.3L-3.6 421.9l125-9.7 122-174.6z"/><path fill="#8c5c1f" fill-opacity=".7" d="M278.5 229.1l-126-11.6 36.4-70.3 109.5 2.7z"/><path fill="#7b7a7e" fill-opacity=".9" d="M604 322.6l25.4 45.8 18.2-262.6-178 210.5z"/><path fill="#744201" fill-opacity=".4" d="M406.4 80.4l251.1 122-14.2-221.8-191.1-18.1z"/><path fill="#e1d9e1" fill-opacity=".7" d="M317.8 246.5l-20.4-90.3 12.8-10.9 56.2 72.2z"/><path fill="#daba8d" fill-opacity=".8" d="M368.6 367.4l218 55.5-444 7.5 131-83.1z"/><path fill="#d0e5ff" fill-opacity=".5" d="M657.5 316l-137-10.6-4.9 93 133 50.9z"/><path fill="#ffdfad" fill-opacity=".4" d="M602.6 81.6l1-52.5-95.7 11.1L485 82.6z"/><path fill="#12100e" fill-opacity=".9" d="M468.4 239L476 84l84.6 141-19.2 26.6z"/></g></svg>