<svg xmlns="http://www.w3.org/2000/svg" viewBox="0 0 620 414"><defs/><filter id="prefix__a"><feGaussianBlur stdDeviation="30"/></filter><rect width="100%" height="100%" fill="#58423c"/><g filter="url(#prefix__a)"><path fill="#b6b1ad" fill-opacity=".9" d="M218.7-30.3L646.4-35l11.1 416.5-431-29.5z"/><path fill="#6f5446" fill-opacity=".8" d="M470.8 72.4l90.6 279.3-116 67.3L400 83z"/><path fill="#f9fbff" fill-opacity=".7" d="M657.5 3.4L607 260.8 578.6 170 309.8-37.5z"/><path fill="#d8dfed" fill-opacity=".6" d="M146.3 449.3H-1.5l55-198.4 31 88.2z"/><path fill="#1a0c06" fill-opacity=".9" d="M-37.5 89.6V-13.8l256 24-16 439z"/><path fill="#f3f7ff" fill-opacity=".8" d="M282.6 160.8l-38.5 288.5-25-347.6 59.4-139.2z"/><path fill="#0e0200" fill-opacity=".5" d="M251.4 346.6l39.5-129.1L308 441.3l-30.8 8z"/><path fill="#f3ffff" fill-opacity=".7" d="M298.9 340l-6.6-102 33.4-81.8 14 187.2z"/><path fill="#020e05" fill-opacity=".3" d="M345.1-37.5L330 215.3l66.8 14.3L265.9-7.3z"/><path fill="#dbd8d2" d="M378.5 138l7.3 119.4 53.3-64.9 13.5-9.6z"/><path fill="#ed9d16" fill-opacity=".8" d="M168.8 272.7l37.3-2.9 2.7 32.4-35.9 7.6z"/><path fill="#1c0a02" fill-opacity=".5" d="M376.1 125L243.6 240.5 429.4 55.7l56.4 55.2z"/><path fill="#948b83" d="M605.2 266.4L453 294l83.5-169 20.9 8z"/><path fill="#030000" fill-opacity=".5" d="M382 449.3l-119-65 86.5-18.8-20.4-285z"/><path fill="#120805" fill-opacity=".8" d="M131.8 423.3l103.1 26L217 339.8 74.4 316.5z"/></g></svg>