<svg xmlns="http://www.w3.org/2000/svg" viewBox="0 0 620 929"><defs/><filter id="a"><feGaussianBlur stdDeviation="30"/></filter><rect width="100%" height="100%" fill="#61432f"/><g filter="url(#a)"><path fill="#cedcc8" fill-opacity=".5" d="M54 720.3L-16.6-56.2l626.4 67.4L391.6 682z"/><path fill="#010" fill-opacity=".4" d="M506.6 824.5L348 470.7 68.6 226l416.6-33z"/><path fill="#edcca8" fill-opacity=".7" d="M25.8-56.2l508.7 84.9 37.8 151-601.7 34z"/><path fill="#1a181a" fill-opacity=".8" d="M630.7 344.7l.7 640.5-687.6-135.7L539.6 749z"/><path fill="#dee5f5" fill-opacity=".7" d="M323.7 426.4l-70.8 142.2L140.1 687l267-1.1z"/><path fill="#b0a191" fill-opacity=".9" d="M481.6 139.3l53 139-4.4 389-21 59.6z"/><path fill="#586353" d="M257.7 553.8l-314 341.5L97 609.3-6 300.8z"/><path fill="#2c353d" fill-opacity=".7" d="M348.7 934l-405 51.2 189.8-426L158 731z"/><path fill="#454833" fill-opacity=".6" d="M257 306.6l-33.5 297.2 219.2-410.4-82.7-24z"/><path fill="#4d3c23" d="M676.8 56.6l-86-54-19.6 48.2 11.6 358.9z"/><path fill="#6f8e89" fill-opacity=".6" d="M202.5 502.2l-73.3 128.1-36-400.2 115.1-5.5z"/><path fill="#9bc7ed" fill-opacity=".3" d="M525.1 799.4l-35.6-215.9 187.3-9.4-100.9-103.4z"/><path fill="#d0e6ff" fill-opacity=".5" d="M80.6 622.4L39.2 436.2l4.3 88.9 5.1 221.4z"/><path fill="#1d0b06" fill-opacity=".5" d="M471 668l-318.2 75.2-54 120.8 333.4-132.4z"/><path fill="#bda378" fill-opacity=".5" d="M550.1 352.4l-60.6 101.2L424 345.8l116-122.3z"/></g></svg>