<svg xmlns="http://www.w3.org/2000/svg" viewBox="0 0 620 929"><defs/><filter id="prefix__a"><feGaussianBlur stdDeviation="30"/></filter><rect width="100%" height="100%" fill="#35414e"/><g filter="url(#prefix__a)"><path fill="#c7af9d" fill-opacity=".8" d="M628.9 211.6L8.7-56.2-46 985.2l661.6-112z"/><path fill="#d5e3e6" fill-opacity=".7" d="M-56.2 573L54.4 112.1l352.8 130.7L432.6 606z"/><path fill="#2f3232" fill-opacity=".6" d="M676.8 757.4L420.6 607l-476.8 55.5 640.8 165.9z"/><path fill="#c5d3d4" fill-opacity=".5" d="M345.8-56.2h331L647 200.7 217.4-50.1z"/><path fill="#ff7d38" fill-opacity=".5" d="M676.8 249.3l-733-305.5L422 278.7l32 525.8z"/><path fill="#697778" fill-opacity=".7" d="M673.2 930.8l-527.7 15.6-159.7-179.2-7.2-213.8z"/><path fill="#d7eef6" fill-opacity=".7" d="M577.4 282.3l9.8 211.2L552 742.1 532.4 306z"/><path fill="#354a3d" fill-opacity=".3" d="M-56.2 598.8l241.6-174.2L156 382l313.6 71.5z"/><path fill="#252d30" fill-opacity=".7" d="M358.5 204.7L482 268.9 1.1 78.7l49.3-4z"/><path fill="#d97945" fill-opacity=".7" d="M614.4 288.9L184.7-19.6l-241 26.5 152.8 95.4z"/><path fill="#e5eaec" fill-opacity=".6" d="M323.3 768.6l-109.2-34.8 57.3-73.7-60.6 179.3z"/><path fill="#f1f9ff" fill-opacity=".5" d="M38.8 114.3l7.3 247.5L411.5 430l14.2-165.8z"/><path fill="#ba3b01" fill-opacity=".6" d="M601 785.3l-16-307 76.5-188.4 15.3 350.2z"/><path fill="#f4f9f7" fill-opacity=".9" d="M173.5 980.9l-135-51.5 8-93.3 42 48.3z"/><path fill="#32302c" fill-opacity=".6" d="M-41.7 885.8L17 564.7l26 162.5 1.5 106z"/></g></svg>