<svg xmlns="http://www.w3.org/2000/svg" viewBox="0 0 620 414"><defs/><filter id="a"><feGaussianBlur stdDeviation="30"/></filter><rect width="100%" height="100%" fill="#7a573c"/><g filter="url(#a)"><path fill="#bababd" fill-opacity=".7" d="M-37.5 449.3l695-17-53.2-258.9L-5.3-12.8z"/><path fill="#505554" fill-opacity=".7" d="M226.7-11.1l-69 239 347.5 15-12.3-280.4z"/><path fill="#fffdf8" fill-opacity=".8" d="M509.3 327.2l5.8-257 142.4 333.3L544 449.3z"/><path fill="#ebe8e7" fill-opacity=".8" d="M1.2 449.3l-38.7-310.5 161-75.3-3.4 148z"/><path fill="#3c230b" fill-opacity=".7" d="M361.1 449.3l69.3-138.8 98 76-9.9 26.4z"/><path fill="#bcc7ca" fill-opacity=".7" d="M364 111.9l22.3 81.4-139-61.6-4.1-81z"/><path fill="#c6ad8d" fill-opacity=".6" d="M518 209.5l107.6 42.1-87.7-289.1-71 72.4z"/><path fill="#001a1b" fill-opacity=".7" d="M222.3 139.5l-29 17.4 105 60.3L309 140z"/><path fill="#513d2e" fill-opacity=".7" d="M503.8 146.5l-9.3 40L506 311.7 378.5 119.4z"/><path fill="#d6e6ef" fill-opacity=".4" d="M369.3 204.2L309.8 75l5.3 122.5-133.5 105.6z"/><path fill="#d12a00" fill-opacity=".2" d="M16.7 288.2L272-37.5 183.8 239 50.4 402z"/><path fill="#807b7c" d="M230.6 449.3l111.1-110.5-11.4-139-10.9 49.7z"/><path fill="#d3dbe6" fill-opacity=".6" d="M298.4 449.3H339L433 262l-72.2 29z"/><path fill="#461604" fill-opacity=".7" d="M227.9 123.3l11.4-6 2-141.5-44 35.6z"/><path fill="#1b242d" fill-opacity=".5" d="M406.4 15l-82.6 78.5-41-12.4 1.5-118.6z"/></g></svg>