<svg xmlns="http://www.w3.org/2000/svg" viewBox="0 0 620 414"><defs/><filter id="prefix__a"><feGaussianBlur stdDeviation="30"/></filter><rect width="100%" height="100%" fill="#514225"/><g filter="url(#prefix__a)"><path fill="#c0d2d6" fill-opacity=".7" d="M-2 52.6l92.3-90.1L657.5 7.3l-48.2 290.1z"/><path fill="#c8d7c7" fill-opacity=".5" d="M216.5 197.6l26.4 243-150.4 8.7L-3.6 4.6z"/><path fill="#1a2c1a" fill-opacity=".5" d="M135.1 75.3l-14.5 70 305.6 304 59.6-273.5z"/><path fill="#c3cbd4" d="M514.6 310.5l-45.2-57.2 23-290.8L657.5 217z"/><path fill="#c1cccf" fill-opacity=".6" d="M150.2 384.8l23.4-39L77.5-37.5l-29.3 129z"/><path fill="#0b3e14" fill-opacity=".6" d="M224-37.5l-7.5 130-124.7 67.6 164.7-8.5z"/><path fill="#a99779" fill-opacity=".7" d="M132.7 249.2L443.4 133 307.1 58.9 189.4 301.3z"/><path fill="#192f35" fill-opacity=".8" d="M571.3 274.2l-303 153.3h347.8l41.4-117.7z"/><path fill="#cfbdbb" fill-opacity=".7" d="M444.2 196.4L409.5 250 365 201.7 523.9 233z"/><path fill="#040402" d="M59.6 449.3L8.5 230.6-14.3 153 1.5 449.3z"/><path fill="#597c55" fill-opacity=".9" d="M131.3-37.5L261 53l-135 6 23.6 43.8z"/><path fill="#c7d2d9" fill-opacity=".6" d="M129 116.3l7.4-105.6-11.7-48.2-151.8 167z"/><path fill="#151603" fill-opacity=".7" d="M292.6 173.6L235.4 389l118 60.3L371.8 177z"/><path fill="#786a47" fill-opacity=".7" d="M-6.5 137L93 179l60.3 270.3-93.7-39.5z"/><path fill="#f5ffff" fill-opacity=".5" d="M251.4-14.3l-12.8 120.9 45.2-24.7.5-72.2z"/></g></svg>