<svg xmlns="http://www.w3.org/2000/svg" viewBox="0 0 620 414"><defs/><filter id="prefix__a"><feGaussianBlur stdDeviation="30"/></filter><rect width="100%" height="100%" fill="#404040"/><g filter="url(#prefix__a)"><path fill="#c1c1c1" fill-opacity=".5" d="M355.3 440.8L504.5-37.5-37.5 6 162 409.3z"/><path fill="#fbfbfb" fill-opacity=".5" d="M520.7 198.1l48.4-143.6-75.8-92 7 159.8z"/><path fill="#0a0a0a" fill-opacity=".7" d="M354.8 257.7l10.7 54.5 292 28.6V110.4z"/><path fill="#fff" fill-opacity=".2" d="M270.5 449.3l387-94-340-68.3-89.4-4.6z"/><path fill="#555" fill-opacity=".9" d="M65.6 449.3l223.6-201 39-54.8-59.4-48z"/><path fill="#eee" fill-opacity=".3" d="M112.9 274.4l127.3-89.6-32.4-174.4-100 13.3z"/><path fill-opacity=".5" d="M499 51.1l77.4 51.3-135.6-20.8 42.1 367.7z"/><path fill="#f2f2f2" fill-opacity=".8" d="M376.4 10.9L420 23.2 431.3 64l40.2-101.4z"/><path fill-opacity=".3" d="M448 31l-229 79.7-5-32.5 64.8-90z"/><path fill="#898989" fill-opacity=".9" d="M442 337.1l33.9-47.4L198.6 50.4 439 162.8z"/><path fill="#606060" fill-opacity=".8" d="M139 347.5L-37.5 449.3-27.1 98l106-10z"/><path fill="#cfcfcf" fill-opacity=".7" d="M338.8 137l-139.7 25.3 110.4-61 50.6 348z"/><path fill="#fdfdfd" fill-opacity=".6" d="M556.5 79.2l-12 16-51.9 8 30.3 95.6z"/><path fill="#d2d2d2" fill-opacity=".7" d="M605.7 103.7l-22 35.6-14.6-13.6-6-20.8z"/><path fill="#1a1a1a" fill-opacity=".9" d="M609.8 30l47.7 419.3-112-95.7 44.7-2.4z"/></g></svg>