<svg xmlns="http://www.w3.org/2000/svg" viewBox="0 0 620 414"><defs/><filter id="prefix__a"><feGaussianBlur stdDeviation="30"/></filter><rect width="100%" height="100%" fill="#54342f"/><g filter="url(#prefix__a)"><path fill="#b0b7b1" fill-opacity=".6" d="M657.5 412.4L.2 424.8l4.2-428 587.5-34.3z"/><path fill="#fefbfb" fill-opacity=".5" d="M22 297.6L331 103l-356.7 27.2L126 27.4z"/><path fill="#02111a" fill-opacity=".7" d="M297.2 21.3L-11.6-37.5l122.3 96.8 29.8 83.8z"/><path fill="#321" fill-opacity=".4" d="M549.3 351.7L131 449.3 58.1 311.9 496 246z"/><path fill="#f4f2fe" fill-opacity=".7" d="M619 258.2l-55.2 16-55.2-13.8 39.7-249.5z"/><path fill="#513400" fill-opacity=".6" d="M121 228.4l84.6-47.5 113.8 11.6-65.3 68z"/><path fill="#ffeccf" fill-opacity=".5" d="M259.4 91.3L176.8 117l308.3 55.4L272.7 27z"/><path fill="#f1f4f7" fill-opacity=".7" d="M124.7 136.1l-17.4-99.5-73.4 36.3 25.2 83.8z"/><path fill="#e1d1da" fill-opacity=".6" d="M426 53l188 143.7-55.3-172-277.5.2z"/><path fill="#ecf7fd" fill-opacity=".5" d="M389.2 401.3l268.3 4.6L534 367.4l-100.5 7.5z"/><path fill="#413229" d="M273.4 327.4l-122 79-77.3-42 3.4-70.4z"/><path fill="#cdccd9" fill-opacity=".7" d="M132.2 270l-99.5 57.4-14-114.8L135 125.2z"/><path fill="#131c1d" fill-opacity=".7" d="M567.2 22l-57.4 5.4 55.2-65 92.5 168.9z"/><path fill="#001224" fill-opacity=".4" d="M-37.5 327.7l71.4-234-49.2 11.2 63.7 61z"/><path fill="#1e1f23" fill-opacity=".8" d="M108.7.2l158 75.4-108 43.6 1.1 44.3z"/></g></svg>