<svg xmlns="http://www.w3.org/2000/svg" viewBox="0 0 620 414"><defs/><filter id="prefix__a"><feGaussianBlur stdDeviation="30"/></filter><rect width="100%" height="100%" fill="#7a4938"/><g filter="url(#prefix__a)"><path fill="#b1acad" fill-opacity=".8" d="M443.2-29.3l214.3 195.2-695-76.8 4.3-78z"/><path fill="#999ea6" fill-opacity=".8" d="M609.1 410.3L628.7 73 346.1 249 202.7 435z"/><path fill="#eff9ff" fill-opacity=".4" d="M371.5 75.8L-23 388.2l141.2-223.8 221.1-202z"/><path fill="#00092a" fill-opacity=".7" d="M83.6 449.3l89.8-211.7 96.9-111.2-39.5 305.2z"/><path fill="#020000" fill-opacity=".8" d="M103.4 128.1L47.2 84.5l-71.7 99.8 101 52.3z"/><path fill="#fffaff" fill-opacity=".5" d="M190.1.7l156.2 24.5-79.2 225 102-3.7z"/><path fill="#5b3f3f" fill-opacity=".7" d="M240 183l4.1-132.6L144 52.8l1.7 70.7z"/><path fill="#836d6b" fill-opacity=".8" d="M464.3 256l-298 25.2-203.8-99.6 17 210z"/><path fill="#c3d6ce" fill-opacity=".6" d="M134.7 295.2L88.2 66.6l67 89.6 74.6 11z"/><path fill="#451611" fill-opacity=".6" d="M514.6 104.1l42.4 17.5L657.5 16.7 486.3-37.5z"/><path fill="#e2f2ff" fill-opacity=".5" d="M477.4 205.6l170 243.7-96-79.7-124.4-173z"/><path fill="#4d2b1c" fill-opacity=".7" d="M475.4 182.6l-105.8 43.1 2.2-94.7 99.7-13.3z"/><path fill="#00000a" fill-opacity=".5" d="M285 326.2l-104.3 123L82.8 334l61-19.2z"/><path fill="#896e66" d="M439.6 255.3l-19 86.4-132 107.6 4.2-189.4z"/><path fill="#2f3a39" fill-opacity=".9" d="M128.1 238.3l-17 57.4-28-24.4 23.5-42.7z"/></g></svg>