<svg xmlns="http://www.w3.org/2000/svg" viewBox="0 0 620 414"><defs/><filter id="a"><feGaussianBlur stdDeviation="30"/></filter><rect width="100%" height="100%" fill="#453635"/><g filter="url(#a)"><path fill="#b7a395" fill-opacity=".6" d="M434.5 120.4l-93 53.2.5 179.8 102.9 3.6z"/><path fill="#bcd4fe" fill-opacity=".6" d="M483 188.4l-8.8-65.4 71-74.3-69.8 208z"/><path fill="#0e1116" fill-opacity=".9" d="M657.5 422.4l-56-460L436 366.8l-7.7 49.4z"/><path fill="#0c1114" fill-opacity=".7" d="M438.4 118.4l-23-116.2-250.5-39.7L261.6 158z"/><path fill="#111722" fill-opacity=".7" d="M151.6 169.5L-37.5 405.7l400 43.6L321.2 272z"/><path fill="#f3cccf" fill-opacity=".5" d="M230.6 122.3l-32.5-7.5-29.8-60 5.1-70.8z"/><path fill="#e5cabe" fill-opacity=".6" d="M232.7 148l-40.6 73 38.7-17.9 16.7-44z"/><path fill="#000907" fill-opacity=".5" d="M199 191.6L-24.6 68l-12.8-79.5L164.5 0z"/><path fill="#93a8c2" fill-opacity=".5" d="M101.2 180.7L54 312.7l-24.5-4L54.3 219z"/><path fill="#725844" d="M330.3 98.8l-27 20.8L286 87l117 179.3z"/><path fill="#020205" fill-opacity=".6" d="M293.3 449.3l-2.7-304.5 41.2-8 10.4 73z"/><path fill="#c58d83" fill-opacity=".3" d="M449 158.1l6.3-1.2 43.4-194.4h-87z"/><path fill="#c8d4fa" fill-opacity=".4" d="M415.6 252.8l4.1 64.5 5.6 107.5-46-179.7z"/><path fill="#dea679" fill-opacity=".6" d="M183.6 310.5l-26.2 43.8-22-9 45-40.4z"/><path fill="#1e1d1d" d="M-37.5 241.5L75.3 202 50 158 71.7 17.4z"/></g></svg>