<svg xmlns="http://www.w3.org/2000/svg" viewBox="0 0 620 414"><defs/><filter id="prefix__a"><feGaussianBlur stdDeviation="30"/></filter><rect width="100%" height="100%" fill="#5a3b30"/><g filter="url(#prefix__a)"><path fill="#a6aca9" fill-opacity=".8" d="M657.5 4.1L557.8 128l-591 233 38-398.6z"/><path fill="#c3d9d8" fill-opacity=".5" d="M654 282.9L412 449.3l-311.7-50.4L561 230z"/><path fill="#605b53" d="M177.3 144.8L43.8 371.3 289 315l-39.2-185.5z"/><path fill="#001325" fill-opacity=".6" d="M381.7 174.9l-86.5-14.6L333.5 329l99 2.9z"/><path fill="#cdd3cf" fill-opacity=".8" d="M-37.5 43.6l276.8 28.8L452.2 1l-85.5-5z"/><path fill="#1e1c16" fill-opacity=".9" d="M164 172.7l94.2 115-75.3 95.2-7-16.2z"/><path fill="#f7dfbe" fill-opacity=".4" d="M265.7 341.2l5.8 78.5L596.3 430l-48-61z"/><path fill="#0d0206" fill-opacity=".5" d="M521.4 307l-13.3-86.6-51.6 113 178 82.4z"/><path fill="#ecf5ff" fill-opacity=".4" d="M21 115.5l102.3 16.2 40 116.5-132.8-34.8z"/><path fill="#cbf8ff" fill-opacity=".3" d="M385.6 243.9l272-158.7-252.9 107.1 117.2 257z"/><path fill="#c4c8cc" d="M80.4 361.8l-27.8 4.4-18.2-101L75 298.9z"/><path fill="#d6dfe0" fill-opacity=".4" d="M221.4 253.8l34.8-56 26.4-235.3 24.7 298.3z"/><path fill="#d2cfbf" d="M327.7 307.8l7.2-3.6-33.1.7 14.5 144.4z"/><path fill="#5f5c51" fill-opacity=".8" d="M657.5 62.7l-217.7 52.1 97.9 217.5-180.2-209z"/><path fill="#e2e7e5" fill-opacity=".7" d="M657.5 262.8l-108 82.3.7-59.6 107.3 66.6z"/></g></svg>