<svg xmlns="http://www.w3.org/2000/svg" viewBox="0 0 620 414"><defs/><filter id="prefix__a"><feGaussianBlur stdDeviation="30"/></filter><rect width="100%" height="100%" fill="#543b34"/><g filter="url(#prefix__a)"><path fill="#d7dcdc" fill-opacity=".7" d="M361.1 189.4L258.7 393l398.8 56.2-135.1-181.7z"/><path fill="#1a0c02" fill-opacity=".6" d="M116.7 433.5L110-4l156.2 304 8.4 130.3z"/><path fill="#1c1612" fill-opacity=".9" d="M37.3-37.5L-37.5 63.9l33.9 328.4 86.2-216.5z"/><path fill="#845e41" fill-opacity=".9" d="M323 140.5l13.4 127.1L454.1-5 97.8-26.6z"/><path fill="#170d07" fill-opacity=".9" d="M654.1 189.1l-141.1 74 63.9 61 80.6 42.3z"/><path fill="#b4b6b9" d="M586.3 404.5L320.4 255.7 291.1 309 328 449.3z"/><path fill="#a5e4f9" fill-opacity=".3" d="M107.8 303.7l1.2 134-32.7 11.6-22.5-157.5z"/><path fill="#ebcd8b" fill-opacity=".5" d="M76-18l18.2 246.4L68.1 83 49-37.5z"/><path fill="#1d1804" fill-opacity=".7" d="M430.4 250.2l-10.2-70.3 48.2 7 67.8 38.6z"/><path fill="#0b0e10" fill-opacity=".7" d="M354 248l-59.5-72.9-5.3 149.2-184.6 9.2z"/><path fill="#a38f80" fill-opacity=".7" d="M637.4 449.3l-3.4-80.4-31.7-29.1-283.8-156.2z"/><path fill="#ab9e97" fill-opacity=".9" d="M335.7 232.5l-11.9-67.6 204.9 284.4-115-250z"/><path fill="#4e2703" fill-opacity=".4" d="M649 216l-57.8 27.4L387.5 9.9l215.8-47.4z"/><path fill="#34515e" fill-opacity=".4" d="M68.3 446.8l27.1-251.6-132 96.2 31.5 144z"/><path fill="#b8b4b3" fill-opacity=".9" d="M521.2 449.3L470.6 272l2.4-33.2 24 8.2z"/></g></svg>