<svg xmlns="http://www.w3.org/2000/svg" viewBox="0 0 620 414"><defs/><filter id="a"><feGaussianBlur stdDeviation="30"/></filter><rect width="100%" height="100%" fill="#5c4137"/><g filter="url(#a)"><path fill="#e8eae5" fill-opacity=".7" d="M-6.8 437.9l662.6.2-34.6-475.6H-17.4z"/><path fill="#3b2b21" d="M262 28.3l44.1 222.1-88.4 118.7L135 239.3z"/><path fill="#503220" fill-opacity=".9" d="M454.1 60l203.4-11.8-208.7 150.2-13.6-73.4z"/><path fill="#fff" fill-opacity=".7" d="M-37.5-37.5l212.1 40L142.2 420l-125-26.4z"/><path fill="#fff" fill-opacity=".5" d="M398.2 424.3L253 106.8 595.3 233l36 134.4z"/><path fill="#2f1c11" fill-opacity=".4" d="M179.5-37.5L342.7-30 232.5 449.3 159.4 427z"/><path fill="#fff" fill-opacity=".4" d="M404 253.8l43.3-212.4L192.8 151l20.6-129z"/><path fill="#541800" fill-opacity=".5" d="M383.4 292.6l61.5-23-127.6 179.7h-37.6z"/><path fill="#491d00" fill-opacity=".4" d="M88 115.3l54.2 47.2 190.6 286.8-229.9-248.8z"/><path fill="#95725a" fill-opacity=".8" d="M602.3 7.3l32 32L499.6 197 442 211z"/><path fill="#fafcf2" fill-opacity=".6" d="M243.4 308.5l184.5-69.2 35.4-29-144.8 163z"/><path fill="#e2e2e0" d="M382.2 266L319 71 652.7 7.3l-187.2-40z"/><path fill="#160500" fill-opacity=".7" d="M497.2 184.3l41.2-124.2-81 9.4-.4 64z"/><path fill="#f1f5f1" fill-opacity=".6" d="M328.2 449.3l324-206.4-82.6-156.2-16.7 75z"/><path fill="#010000" fill-opacity=".4" d="M198.6 307.6l122.3-36.8L182.6 61.3 165 263.7z"/></g></svg>