<svg xmlns="http://www.w3.org/2000/svg" viewBox="0 0 620 414"><defs/><filter id="a"><feGaussianBlur stdDeviation="30"/></filter><rect width="100%" height="100%" fill="#624a3c"/><g filter="url(#a)"><path fill="#cbd4d8" fill-opacity=".9" d="M136.8-37.5L436.4 207 299.1 360.6 156.5 227z"/><path fill="#e0f8fe" fill-opacity=".8" d="M-37.5 264.7V-30.5L54-9.2l20.8 238z"/><path fill="#b8b5ac" fill-opacity=".9" d="M159.6 382.7l58.9-88.4 24 155-280-53.8z"/><path fill="#130700" fill-opacity=".6" d="M657.5 18L514-37.6 406.1 254.8l251.4-22z"/><path fill="#edffff" fill-opacity=".7" d="M276 38l-24.4-75.5H136.8l12.6 197.1z"/><path fill="#daf0e8" fill-opacity=".6" d="M73.6 286.5L55.7 449.3h-93.2V375z"/><path fill="#150100" fill-opacity=".6" d="M376.6-37.5L267.4 75.3l33.2 68 121-20.5z"/><path fill="#abc7e7" fill-opacity=".5" d="M320 441.3l103-289.4-38.5-44.6-130 183z"/><path fill="#e9ffeb" fill-opacity=".4" d="M380.5-37.5l87.4 277.8L425-33.4l-58.8-4.1z"/><path fill="#010200" fill-opacity=".4" d="M332.5 298.1l85.5-23.5L657.5 404 417 449.3z"/><path fill="#302b22" fill-opacity=".8" d="M185.3 289.4L60.8-37.6l66.8 368.4 150-22.5z"/><path fill="#cc7f4b" fill-opacity=".4" d="M250.2-37.5l111.1 184.8-96.8 123.5 23-104.7z"/><path fill="#e4f1f5" fill-opacity=".8" d="M197.1 287.7l55-7.2 35.4-89.2L182 221.8z"/><path fill="#718e95" fill-opacity=".8" d="M74.6 279.2L41.2-37.5h25.6L89.1 236z"/><path fill="#091501" fill-opacity=".6" d="M30.8 306.9L83 230.8l-120.6 34.6L74.5 382z"/></g></svg>