<svg xmlns="http://www.w3.org/2000/svg" viewBox="0 0 620 414"><defs/><filter id="prefix__a"><feGaussianBlur stdDeviation="30"/></filter><rect width="100%" height="100%" fill="#444"/><g filter="url(#prefix__a)"><path fill="#dbdbdb" fill-opacity=".4" d="M657.5 96.6L195.7 441.3l-57-219.5L579.2 4.6z"/><path fill-opacity=".5" d="M356.5 233.7l301-5v192l-374.4 28.6z"/><path fill-opacity=".6" d="M167.6 337.9l25 111.4-203.7-.8L57.6 42.6z"/><path fill="#bebebe" fill-opacity=".7" d="M275.1 101l28.6 303.7-114.6-13.3 33.7-224.5z"/><path fill="#e5e5e5" fill-opacity=".5" d="M55 28.3l5.3-13 103 184.3L47 25.9z"/><path fill="#f9f9f9" fill-opacity=".3" d="M440.5 343.4l117-222L271 157.8l185.5 24.5z"/><path fill="#4c4c4c" d="M324.5-37.5l165.2 75.3L362.3 154l-90.8-2.9z"/><path fill-opacity=".5" d="M657.5 303V157.4l-94.7 29-115.5-4.8z"/><path fill="#fff" fill-opacity=".1" d="M44.6 106.6l-14-74.9-68.1 109.5 188.1 103.4z"/><path fill="#595959" fill-opacity=".6" d="M310.7 332L283 167.8l79-9 44 167z"/><path fill="#575757" fill-opacity=".9" d="M520.5 105.6l40.9 4.6L531-1.2l-60.5 95.4z"/><path fill="#1a1a1a" fill-opacity=".7" d="M237.8 160.8L124 122.3 60.5-37.5l198 180z"/><path fill="#f9f9f9" fill-opacity=".6" d="M457.7 183.3l113.6-15-91-3.9-102.7 2.2z"/><path fill="#2f2f2f" fill-opacity=".9" d="M385.3 318.7l56 19.6 10.6-127.8L410 208z"/><path fill="#e2e2e2" fill-opacity=".6" d="M215 158.1l-6-7.7-78 2-26.1 6z"/></g></svg>