<svg xmlns="http://www.w3.org/2000/svg" viewBox="0 0 620 929"><defs/><filter id="prefix__a"><feGaussianBlur stdDeviation="30"/></filter><rect width="100%" height="100%" fill="#54423a"/><g filter="url(#prefix__a)"><path fill="#d4d2d2" fill-opacity=".9" d="M310 933.4l31-986.7L13.8-12 79 695z"/><path fill="#674c41" d="M326.6 389L124.8 871.3l323-484.5-136-161z"/><path fill="#160103" fill-opacity=".9" d="M85.6 766.8L3-44.2-56.2 925 242 985.2z"/><path fill="#230804" fill-opacity=".9" d="M348.4 1L419-56.1 494.5 298l-123.4 47.2z"/><path fill="#a19ebe" fill-opacity=".4" d="M504.8 804.5l-58.4-201.7L171.3 832l73 153.1z"/><path fill="#fbfdf9" fill-opacity=".4" d="M408.6 410.4l-117.2 25.8L79.8 782.8l-38-635.1z"/><path fill="#0e0806" fill-opacity=".9" d="M676.8 769.7l-75.1 215.5-61-207.2L565 640.5z"/><path fill="#140505" fill-opacity=".7" d="M220.3 719.2L-56.2 855.3l178.1 130L230.4 675z"/><path fill="#371b13" fill-opacity=".6" d="M270.7 496l139-82.7L394.5 691l-5.5 77.3z"/><path fill="#f7fdff" fill-opacity=".4" d="M167.7-53.7L264.5 30 262 610.7 143.7 707z"/><path fill="#b89f96" fill-opacity=".8" d="M348 196l-50.8 117.2 44.6-369.4 4.8 121.5z"/><path fill="#e1e3f5" fill-opacity=".4" d="M336.8 837.6l-5.1-225L206 733l17 173.1z"/><path fill="#af9386" fill-opacity=".5" d="M433.7 330.6L247.9 532.7l58.4-217L457.6 458z"/><path fill="#756d5a" fill-opacity=".5" d="M610.7-56.2l-78.7 246 19.2 364.7 125.6 8.3z"/><path fill="#696d86" fill-opacity=".5" d="M425 957.7l-142.3-148-96.5 175.5-36.3-91z"/></g></svg>