<svg xmlns="http://www.w3.org/2000/svg" viewBox="0 0 620 414"><defs/><filter id="prefix__a"><feGaussianBlur stdDeviation="30"/></filter><rect width="100%" height="100%" fill="#503732"/><g filter="url(#prefix__a)"><path fill="#99a7b8" fill-opacity=".6" d="M323.8 7.8L573-37.5l84.5 205.3-325.7 11.9z"/><path fill="#d7b19c" fill-opacity=".7" d="M128.4 103.9l56.1.2 22.8 192.1-76.5 31.2z"/><path fill="#030910" fill-opacity=".8" d="M653.4 415.8l-3.9-284.5L318 311.7l177.8 137.6z"/><path fill="#676a7b" d="M513.2 205.9L327.4 33.7 18.2-6.8 491.9-29z"/><path fill="#2e2523" d="M141 256.7L11.9-37.5l-49.4 460.8L96 393.1z"/><path fill="#a9a596" fill-opacity=".8" d="M556.5 176.3l101-57.4L507.1 2.7l-4.3 194.7z"/><path fill="#23262e" fill-opacity=".7" d="M182.6 193.8l348 163.4-551 57 234.3-116z"/><path fill="#ba9e8e" d="M131.5 346.6l-26.4-36.8 120.1-23.5-84.7-85.5z"/><path fill="#141924" fill-opacity=".9" d="M371 169.3l-.2 48.2L528.9 237l-39.4-51.6z"/><path fill="#27262e" d="M169 386.5l50.4-14.7-38-85.5-14.3-8.3z"/><path fill="#8792b4" fill-opacity=".5" d="M562.1 175.8l-234.9-75 3.9 178 43-106.4z"/><path fill="#221808" fill-opacity=".5" d="M73.6 139.5L-37.5 15 198.4.7l56.9 48.5z"/><path fill="#d7f6ff" fill-opacity=".4" d="M470.3 236.9L429 251l-11.6-29.5 46.2 12.1z"/><path fill="#d7cec0" fill-opacity=".7" d="M220.6 417.8L441 439.3l-86.2-41.1-58.1 51z"/><path fill="#dcd8d0" fill-opacity=".6" d="M186 257l9.4 66.6 26.4-62-8.2 24.4z"/></g></svg>