<svg xmlns="http://www.w3.org/2000/svg" viewBox="0 0 620 414"><defs/><filter id="a"><feGaussianBlur stdDeviation="30"/></filter><rect width="100%" height="100%" fill="#49352e"/><g filter="url(#a)"><path fill="#dfcbc6" fill-opacity=".9" d="M280.7 407.8l-49-386.2-269.2 301.7 60 125.7z"/><path fill="#dae6ef" fill-opacity=".9" d="M479.3 186.7l65.9 177 27.6-98.7-17-70z"/><path fill="#bd9486" fill-opacity=".6" d="M447 129l28.2 47 162.5-49.3L471.3-37.5z"/><path fill="#d8f3ff" fill-opacity=".5" d="M313.6 449.3l-278.5-260L71.7 11.7l-109.2 241z"/><path fill="#1e0000" fill-opacity=".3" d="M261.6 209L22 210 75.8 49.2l372-11.7z"/><path fill="#001636" fill-opacity=".8" d="M564.5 417.5l-295.7 24L274 376 407.4 17.2z"/><path fill="#eaf0e8" fill-opacity=".7" d="M601.8 220.6l55.7 73.4-68.3-36.6-5-50.8z"/><path fill="#ec9f82" fill-opacity=".4" d="M198.6 20.1L76.3 220.6l265-100-5.6 135.4z"/><path fill="#deebf4" fill-opacity=".7" d="M264.2 398.6l8.7-121-207.8 58 1.3 81.7z"/><path fill="#7c7264" d="M164.2 132l33.2-89.1L445 17.4l-196-55z"/><path fill="#060000" fill-opacity=".4" d="M538.6-3L129.8 244.7l62.7-41.9L309.3 31z"/><path fill="#031124" fill-opacity=".9" d="M657.5 425.8L527 449.3l66.8-273.7-64.6-53z"/><path fill="#e0f3fb" fill-opacity=".7" d="M447.6 114.6l70 56.4 26.1-23-76.8 21z"/><path fill="#e1def6" fill-opacity=".6" d="M137.3-37.5l-15 75 16.2 14.6 14.8-20.9z"/><path fill="#0c0500" fill-opacity=".8" d="M238.8 92.3l207 86.4 11.7-160-212.6 23z"/></g></svg>