<svg xmlns="http://www.w3.org/2000/svg" viewBox="0 0 620 414"><defs/><filter id="prefix__a"><feGaussianBlur stdDeviation="30"/></filter><rect width="100%" height="100%" fill="#84563c"/><g filter="url(#prefix__a)"><path fill="#ecfbff" fill-opacity=".7" d="M641.8 449.3H-37.5L9 17.4l613.7-55z"/><path fill="#85735f" fill-opacity=".8" d="M497.2 206.6l-76 144.8L123 226l-21-126z"/><path fill="#7b5f4b" fill-opacity=".8" d="M409.5 86l-79.2 226.4 21.4 136.9L485 72.2z"/><path fill="#fdffff" fill-opacity=".9" d="M-37.5 10l162.7 210.6 294.5 228.7L9.4 405.2z"/><path fill="#d4dbde" fill-opacity=".9" d="M324 337.1l67.6-248.7 266-70.2L271-17.2z"/><path fill="#621b00" fill-opacity=".6" d="M2.2 76L92 8.5 102.4 76-3-37.5z"/><path fill="#edf3f7" fill-opacity=".7" d="M657.5 369.3l-166.6 80-20.3-465.8 138.3-21z"/><path fill="#552300" fill-opacity=".5" d="M211.2 99.5L179 80.2l-34.9 155-44.6-109z"/><path fill="#a8aaa7" d="M363.3 296.2l40.4-15.7 60.6 73.8-87.5 54.5z"/><path fill="#64889a" fill-opacity=".4" d="M294.7 131.3L230.3 24.5l-69.5 88.4 189.6 272.4z"/><path fill="#f5fdff" fill-opacity=".7" d="M115.5-34l221.6-3.5-140 98.3L152 129z"/><path fill="#fafdfc" fill-opacity=".9" d="M46.3 83.6l-83.6-26.7 94.5 255.8 69.5-140z"/><path fill="#764213" fill-opacity=".4" d="M314.1 287.2l134.4-1.2 23.3-204.9 26.1 41z"/><path fill="#fcfdfd" fill-opacity=".9" d="M314.8 331.3l45 115.8-397.3-273.7 314.8 116z"/><path fill="#c1c0be" fill-opacity=".8" d="M444.7 96.6L486 330.3l32.7-93.7-5.4-85z"/></g></svg>