<svg xmlns="http://www.w3.org/2000/svg" viewBox="0 0 620 414"><defs/><filter id="a"><feGaussianBlur stdDeviation="30"/></filter><rect width="100%" height="100%" fill="#5e483a"/><g filter="url(#a)"><path fill="#d2ccb8" fill-opacity=".6" d="M425.8 85.7l15-88.8-478.3-24.5L136 85.4z"/><path fill="#d4eafc" fill-opacity=".7" d="M-37.5 322.1l118.6-41-7-149.8-96.4-45.8z"/><path fill="#b9cfe1" fill-opacity=".8" d="M338 354.3l-149-5 71.4-62.8 42.3-87.4z"/><path fill="#111214" fill-opacity=".8" d="M623.1 449.3L611.8 174 434 303l-1 139z"/><path fill="#a0a99d" fill-opacity=".5" d="M360.1 349.2L314.6 194 148.5 342.7l-10.7-333z"/><path fill="#a79689" d="M393 96l19.7-133.5 7.7 404.9-20.5-8.7z"/><path fill="#fddfac" fill-opacity=".6" d="M525.5 166.4l8-37.8-48.6 3.1 7.5 51.4z"/><path fill="#090b04" fill-opacity=".5" d="M132.7 392.3l182.1 57 70.8-252.9L401.8 350z"/><path fill="#07120e" fill-opacity=".5" d="M536.4-37.5l45.8 131-143.8 46.7L440.5 3z"/><path fill="#004155" fill-opacity=".3" d="M162.5 212.9l-47-250.4-134 20.5-8.9 118.5z"/><path fill="#0d0f1f" fill-opacity=".6" d="M-37.5 410.3l69.2-111.7 112.4-25.9-1.7 59.3z"/><path fill="#c0defe" fill-opacity=".5" d="M148.2 357.5l-9-169 14.1 49.3 13.6 83.8z"/><path fill="#699df6" fill-opacity=".4" d="M60.5 422.9l95.2-68.6-87.9 11.4-101.2 73.6z"/><path fill="#3b3a32" fill-opacity=".9" d="M520.2 185.8L573.7 43l-33.4 300L414 219.8z"/><path fill="#334536" fill-opacity=".7" d="M232.5 127.9L320.2 73l77.5 17-75.3 122.3z"/></g></svg>