<svg xmlns="http://www.w3.org/2000/svg" viewBox="0 0 620 414"><defs/><filter id="prefix__a"><feGaussianBlur stdDeviation="30"/></filter><rect width="100%" height="100%" fill="#382e24"/><g filter="url(#prefix__a)"><path fill="#d2cfcc" fill-opacity=".8" d="M-37.5 410.5l.7-431.3L618-37.5l31 454.3z"/><path fill="#857a71" d="M-30.8 287.7l28.9 161.6 475.9-163 1.7-163.3z"/><path fill="#fafcfa" fill-opacity=".6" d="M478.3 2.7l-356 232.5-159.8 20V-1z"/><path fill="#6d5848" fill-opacity=".6" d="M483 367.2L205.5 285l-6-218.3L301 210z"/><path fill="#e3e6e7" fill-opacity=".8" d="M389.7 399.1l-98.3-91.8-40.7 21.6 22.2 120.4z"/><path fill="#fdfcfc" fill-opacity=".5" d="M335 217l-99.4 1.7 24.8 74.3 32.4-211.4z"/><path fill="#230c01" fill-opacity=".9" d="M434.7 125.5l23.5-4.9 29.3 73-57.1-34.7z"/><path fill="#fdefeb" fill-opacity=".4" d="M398.6 57.6l60.1 168.6-64 33-30.7-192z"/><path fill="#060600" fill-opacity=".4" d="M444 294.5l-76.8-72.2-80 51.4L303 307z"/><path fill="#a49081" d="M125 130l27.3 68.6L231 60.3l13.1 122.6z"/><path fill="#e9f0ff" fill-opacity=".3" d="M657.5 182.4V403l-185.2-38.8L493.6 43z"/><path fill="#371203" fill-opacity=".6" d="M359 94.5l-33.3-6.6 29.1 77.5 5.8-49.4z"/><path fill="#1a0f04" fill-opacity=".4" d="M22.5 270.5l230.6-37-280 79.2-10.6-82.4z"/><path fill="#5f5748" fill-opacity=".5" d="M269.3 290.9l-39.5 118.6-254.5 39.8 157-82.1z"/><path fill="#c7f1ff" fill-opacity=".2" d="M-10.9 304.2L193.8 253l-78.5 116.2-123.5 80z"/></g></svg>