<svg xmlns="http://www.w3.org/2000/svg" viewBox="0 0 620 414"><defs/><filter id="a"><feGaussianBlur stdDeviation="30"/></filter><rect width="100%" height="100%" fill="#422426"/><g filter="url(#a)"><path fill="#dee2cf" fill-opacity=".6" d="M5.8-37.5l86.5 480.2 546.1-145.5 19.1-307.6z"/><path fill="#000913" fill-opacity=".7" d="M398.2 79.7l35 199.5 224.3 118.2L251 382.7z"/><path fill="#f3f4f7" fill-opacity=".8" d="M99-35.8L131 284l-58.8 32.4-62-341z"/><path fill="#550110" fill-opacity=".6" d="M115.5-37.5L175.1 104l-38.3 311-17.4-263.5z"/><path fill="#e1f3fb" fill-opacity=".7" d="M148.2 400.8l113.4 48.5-70.3-221.4-18.9-121.6z"/><path fill="#080004" fill-opacity=".6" d="M1-10.9L0 449.3l165.7-53.8-102-91z"/><path fill="#dac4a2" fill-opacity=".8" d="M551.2-34.6l-80.4 300.8-71.2-170.3-28-133.4z"/><path fill="#d5dbd3" fill-opacity=".7" d="M174.6 7.8l55.5 114.5 96.9.5 41.4-160.3z"/><path fill="#0a0e0f" fill-opacity=".8" d="M479 235.4l39-1.7 6 43.1-40.4 63z"/><path fill="#060609" fill-opacity=".6" d="M394 33.4l-25 415.9 63-291-91.7-118.6z"/><path fill="#7f7469" d="M208.8 105.4l99.3 39.4L349 302.2 194 264z"/><path fill="#dbc6a8" fill-opacity=".6" d="M657.5 233.5L352.6-11.6l167.6 257.2 22 96.9z"/><path fill="#693e00" fill-opacity=".4" d="M496.5 80.2l1.4 57.8 137.8-8.2L657.5 78z"/><path fill="#93978e" fill-opacity=".5" d="M352.9 230.6l-88.4 16 64.1 172.1H187.5z"/><path fill="#382a28" fill-opacity=".7" d="M310.5 160l-5.3 53.4L427 233.7 217 242z"/></g></svg>