<svg xmlns="http://www.w3.org/2000/svg" viewBox="0 0 620 929"><defs/><filter id="prefix__a"><feGaussianBlur stdDeviation="30"/></filter><rect width="100%" height="100%" fill="#473221"/><g filter="url(#prefix__a)"><path fill="#d4d8d8" fill-opacity=".8" d="M247.1 248.6l32 309.2 247.5 397.7-540-.4z"/><path fill="#eafbff" fill-opacity=".6" d="M12-52.3L44.3 985.2l232.2-419.8L-56.2 934z"/><path fill="#856248" fill-opacity=".6" d="M308.5 363.6L33.7 762.8 13.1 120.1 446 985.2z"/><path fill="#deedf2" fill-opacity=".7" d="M9.4 946l97-300.4 140.7-155v494.6z"/><path fill="#1e1d16" fill-opacity=".7" d="M258 237.7l368.7-66.4 50 718.9-97.2 95z"/><path fill="#83766b" fill-opacity=".5" d="M391.2 661.2l178.2 267-294.7 21.5.4-386.1z"/><path fill="#c8beb6" fill-opacity=".9" d="M182.2 417.3l-52 95.5 23 16L308 367.5z"/><path fill="#614938" d="M182.5 537.4L-36.3 875l174.6-377.4-49.4 7.3z"/><path fill="#9f785c" fill-opacity=".7" d="M210.5 266.7l33-19.2 37 129.5-78 58.1z"/><path fill="#311f0e" fill-opacity=".9" d="M406.4-56.2H103.1l46 523.6 60.3-379.2z"/><path fill="#eafcff" fill-opacity=".5" d="M-26.5 959.5L-56.2 795l193.7 15.2L208 498z"/><path fill="#050700" fill-opacity=".7" d="M676.8 661.2l-67.1 323.7L516 829.6l5.8-90.8z"/><path fill="#3b332a" fill-opacity=".8" d="M480.8 722.5L291.8 547 368 354.5l99.8 42.1z"/><path fill="#c4cace" fill-opacity=".8" d="M247.1 538.9l27.6 79.5L237 985.2l-121.2-54.7z"/><path fill="#61544c" fill-opacity=".9" d="M61 746.5l-16 59.1-53-14.1 146.3-197z"/></g></svg>