<svg xmlns="http://www.w3.org/2000/svg" viewBox="0 0 620 414"><defs/><filter id="a"><feGaussianBlur stdDeviation="30"/></filter><rect width="100%" height="100%" fill="#80603c"/><g filter="url(#a)"><path fill="#dae3e1" fill-opacity=".5" d="M657.5-37.5l-695 32.9 449 453.9h212.4z"/><path fill="#7d6c52" fill-opacity=".9" d="M-37.5 90.6l296.2-8.7 169.7-22.6-395 390z"/><path fill="#765c37" fill-opacity=".7" d="M535.2 240.3L446 54.4l55 287.5 156.6 24.7z"/><path fill="#cdd0c9" fill-opacity=".8" d="M354 76L458.3-30.8-37.5-2.4l36.3 93.7z"/><path fill="#f1e5de" fill-opacity=".4" d="M258.2 396.2l40.2-66.3 48-225.8 291.5 345.2z"/><path fill="#ced4d2" fill-opacity=".8" d="M449.5-37.5L429.4 52l189.1 178 39-228.6z"/><path fill="#401000" fill-opacity=".5" d="M309.8 105.4l68.7-45.1 97 32.7 20.3 62.7z"/><path fill="#301c05" fill-opacity=".3" d="M292 346.8l37-190.1-78.7 82.1-287.7 104.4z"/><path fill="#e5fbfd" fill-opacity=".4" d="M-37.5 409.5L10.2 66.1l16 267.1 26.8 23z"/><path fill="#af987e" fill-opacity=".8" d="M437.9 88.4L401 449.3l-93.5-44.1-11.2 44z"/><path fill="#5c4d34" fill-opacity=".8" d="M576.6 359.4l45.3-141-66 88-84.4-3.4z"/><path fill="#f2f6f3" fill-opacity=".6" d="M461.4 135.9l-49 195.9 69.3-3.6-.5-119.4z"/><path fill="#ecf7fe" fill-opacity=".5" d="M386 101l8.8 164.4-71.7 14.8L311 194z"/><path fill="#dbe5e9" fill-opacity=".8" d="M429.9 360.4l141.9 88.9 85.7-57.4-53.7-31.3z"/><path fill="#aeb4af" fill-opacity=".6" d="M502 257.2l-22.2 63.5L629.4 156 495.5 89z"/></g></svg>