<svg xmlns="http://www.w3.org/2000/svg" viewBox="0 0 620 414"><defs/><filter id="prefix__a"><feGaussianBlur stdDeviation="30"/></filter><rect width="100%" height="100%" fill="#624332"/><g filter="url(#prefix__a)"><path fill="#c7bfb2" fill-opacity=".6" d="M424-37.5l55.3 486.8L331.6 154-37.5 6.3z"/><path fill="#8f969a" d="M549.3 304.2l-146.8 132-144.3 13-34.4-169.5z"/><path fill="#d4e2e5" fill-opacity=".6" d="M235.9 137l215.5-54.7-253.5-17L266.4 400z"/><path fill="#030915" fill-opacity=".9" d="M30 326.5L205.1 234l50 208-219.5-14.8z"/><path fill="#fffde6" fill-opacity=".4" d="M-37.5 101.7L143.9 271l-181.4 32.5 83.3-341z"/><path fill="#01090f" fill-opacity=".7" d="M259.1 283.1l83.4 18.4L354 182l-108.5-63.7z"/><path fill="#b3e9dd" fill-opacity=".5" d="M641.6-37.5l-22.8 263.2-11.9-123.3-136.6-140z"/><path fill="#999eac" d="M75.3 155l20.8 8.5 64.7-64.7 83.3-136.3z"/><path fill="#04120b" fill-opacity=".5" d="M591 95.4L471.4 51l-25.3 107 179 291.2z"/><path fill="#b9aa9c" fill-opacity=".9" d="M16.5 354.8l21 94.5-75-79.7 88.4-196.2z"/><path fill="#482110" fill-opacity=".5" d="M37.8 251.9l227-261.3 185 69-217.5 5.3z"/><path fill="#dcedff" fill-opacity=".6" d="M286.8 449.3L275 273.2l97.4 176L499 308.6z"/><path fill="#0b1d31" fill-opacity=".4" d="M467.7 312.4L353.6 422l-33-83.6 269.9-86.2z"/><path fill="#ecf1ef" fill-opacity=".9" d="M-22.8 68.3l75.6-34.6-13.6-71.2h-76.7z"/><path fill="#d3fbfb" fill-opacity=".5" d="M231.5 158l34.7 188.8L199.8 196l39.7-164.7z"/></g></svg>