<svg xmlns="http://www.w3.org/2000/svg" viewBox="0 0 620 414"><defs/><filter id="prefix__a"><feGaussianBlur stdDeviation="30"/></filter><rect width="100%" height="100%" fill="#664138"/><g filter="url(#prefix__a)"><path fill="#cec2c2" fill-opacity=".7" d="M657.5 200.3L593 129.6 443.2 449.3l80.9-15.5z"/><path fill="#000a10" fill-opacity=".7" d="M-37.5 382.2l501 67 32-467.1-515.8-19.6z"/><path fill="#b18067" fill-opacity=".8" d="M436 137l172.8 115 48.6-101.3-166.1-76.2z"/><path fill="#874d44" d="M101.5 352.1l36.5 57.2 49.2-46-42.9-67.1z"/><path fill="#fdd4b6" fill-opacity=".4" d="M273.2 148.2l-79.4 50.6-12.4-54.7 42.1-35.1z"/><path fill="#272a3d" fill-opacity=".9" d="M404 449.3l124.7-165.7 14.5-2.9-66.3-179z"/><path fill="#000a06" fill-opacity=".5" d="M409.8-26.2l-18 66.4 228 69 37.7-123z"/><path fill="#b9c7dc" fill-opacity=".5" d="M494 327.4l163.5-113-154.7 234.9L454 425z"/><path fill="#fcd199" fill-opacity=".3" d="M273.2 85l-125.5 5.8 107.8-20.3 109.2-3.9z"/><path fill="#0f1d3c" fill-opacity=".7" d="M562.8 359.2l-33.1 90 127.8-148.6-12-59.4z"/><path fill="#837369" fill-opacity=".6" d="M232.5 299.8l29-30.2 8-29.1-49.1-.2z"/><path fill="#875846" fill-opacity=".5" d="M623.4 330.8L442.7 115.5l-24.4-72.1 46.2 16.2z"/><path fill-opacity=".5" d="M93.7 373.2l-93-14.5-4.3-396.2L229.6-23z"/><path fill="#e6a37c" fill-opacity=".3" d="M490 160l120 125.3-61.4-265.2 58.8 18.2z"/><path fill="#d7b487" fill-opacity=".5" d="M402.5 14.3l-45.8-5.8 6.6-46L337 34.6z"/></g></svg>