<svg xmlns="http://www.w3.org/2000/svg" viewBox="0 0 620 414"><defs/><filter id="prefix__a"><feGaussianBlur stdDeviation="30"/></filter><rect width="100%" height="100%" fill="#5e3c2f"/><g filter="url(#prefix__a)"><path fill="#d6f1e1" fill-opacity=".6" d="M140.7 201.5L491.7-1-37.6-3l182.3 452.4z"/><path fill="#d4bc9f" fill-opacity=".8" d="M657.5 413.9l-352.8 35.4 3.6-158.2L616.1 268z"/><path fill="#b1c1b9" fill-opacity=".8" d="M349-37.5l-5.3 366-13.4-131.8-139.5-21.4z"/><path fill="#dee6cb" fill-opacity=".5" d="M439.8-37.5l94 90.8 73.1 219.2 50.6-262.3z"/><path fill="#07111d" fill-opacity=".7" d="M166.9 170.5l-34.7 35.4L190.4 434l164-166.6z"/><path fill="#353022" fill-opacity=".7" d="M437.4-9.4l154.3 147L485 306 327.4 113z"/><path fill="#7d6f67" fill-opacity=".8" d="M175.6 101.2l-29 24.3 122.7 128 9-128.5z"/><path fill="#091b20" fill-opacity=".8" d="M57.9 449.3l-63.7-124L57.9 244l63.4 205.2z"/><path fill="#878b75" fill-opacity=".9" d="M165.9 429.4l-21 9-72-113.6 87.2-26.4z"/><path fill="#acb9a6" fill-opacity=".4" d="M419.2 86.2l46.3-8L540 97l-135.2 54.5z"/><path fill="#c0c5b4" fill-opacity=".7" d="M211.2-22L-3.1 94.7l-34.4 79.4 251.6-85z"/><path fill="#dcd7cd" fill-opacity=".6" d="M315.6 301.8l83.3 115 36.6-180.7-27.9 44.1z"/><path fill="#9d6f5a" fill-opacity=".6" d="M657.5 272l-97.8-142-.2 92.3-137.9 89.2z"/><path fill="#c7d2cd" fill-opacity=".8" d="M363.8 85.3l-31 6.7-80-72.9 158.4-29.8z"/><path fill="#0d1526" d="M250.7 373.2l79.6-167.8-42.6-16.3 15.8 260.2z"/></g></svg>