<svg xmlns="http://www.w3.org/2000/svg" viewBox="0 0 620 929"><defs/><filter id="prefix__a"><feGaussianBlur stdDeviation="30"/></filter><rect width="100%" height="100%" fill="#4b4430"/><g filter="url(#prefix__a)"><path fill="#ad8b67" d="M623-4.7l53.8 239.5-315.4 100.5 3.3-372z"/><path fill="#c8c39e" fill-opacity=".6" d="M62 672l220.3-280.4-338.5-3 48.6 266z"/><path fill="#050f20" fill-opacity=".7" d="M645.2 985.2l-148-672L299 372-56.2 928.3z"/><path fill="#8e4b1d" fill-opacity=".8" d="M653.6 293.6L676.8 427 83 46.4l46.8-102.6z"/><path fill="#b1c9b7" fill-opacity=".6" d="M618.7 794l58-291-158.5-141.6L609 562.1z"/><path fill="#ebdce8" fill-opacity=".6" d="M374.9 204l8.7 260.9 39.2-212.3 5-6.2z"/><path fill="#eef6e4" fill-opacity=".4" d="M490.6 136.4L543-7.3 642.3 25l-35.5 193.1z"/><path fill="#4e5846" fill-opacity=".9" d="M584.6 374.1l-52.6 225-118.3 117.2 167-14.8z"/><path fill="#0a0f10" d="M676.8 806.3l-606.4 179-126.6-242.1 144.4 11.6z"/><path fill="#121e3e" fill-opacity=".8" d="M424.2 272.5l42.8 12.7 112.5 194.2L336 722.9z"/><path fill="#220e00" fill-opacity=".6" d="M67.1 154.2l101-29L-40.7-56.2 21 399.5z"/><path fill="#535b51" fill-opacity=".6" d="M180.7 775.5l-45-112.9 198.5-178.9-390.4 220z"/><path fill="#a8621e" fill-opacity=".7" d="M567.2 53.3l3.3 46.5 40.6 91.8 65.7 112.1z"/><path fill="#965b2b" fill-opacity=".8" d="M658.3 244.2l-286.7-139-13-161.4-193.1 16z"/><path fill="#e4f5dc" fill-opacity=".4" d="M676.8 505.1l-141.5 19.3 78.3-78 23.3-23z"/></g></svg>