<svg xmlns="http://www.w3.org/2000/svg" viewBox="0 0 620 414"><defs/><filter id="prefix__a"><feGaussianBlur stdDeviation="30"/></filter><rect width="100%" height="100%" fill="#2c4359"/><g filter="url(#prefix__a)"><path fill="#9ec2cd" fill-opacity=".7" d="M657.5 105.4l-80.1 268.5-440.6-52-9.7-92.5z"/><path fill="#100c0a" d="M-37.5-20.1l676.1-17.4 19 135.6L2.3 258z"/><path fill="#e1f4fc" fill-opacity=".6" d="M231.3 207L482 148l175.5 91.3-266.4-10.7z"/><path fill="#81939c" fill-opacity=".7" d="M500.1 449.3H174l-60.6-99.8 123.3 2.6z"/><path fill="#65808b" fill-opacity=".8" d="M227.7 239.3l429.8 23.2-81 150.4-452.3-123z"/><path fill="#180f03" fill-opacity=".8" d="M593.4 449.3L164.2 333.5l156.5 10.9 241.4 70z"/><path fill="#101b20" fill-opacity=".6" d="M49.2 449.3L-37.5 396l4.8-161 176 40.9z"/><path fill="#0d1717" fill-opacity=".7" d="M412 254.3l132.4 14.8 113.1 8-111.1-19z"/><path fill="#1c1812" fill-opacity=".7" d="M508.4 449.3L223.8 323.6l267.4 76L485 244z"/><path fill="#5199bc" fill-opacity=".5" d="M476.1 307.6l-332.2 28-27-100.2 102.3-.5z"/><path fill-opacity=".4" d="M635.5 55L312.9 176.8 567.7 125l89.8 71.2z"/><path fill="#324448" d="M245.3 254.5l94.2-8.7 252 17.2-193.3-7.5z"/><path fill="#ff7d25" fill-opacity=".1" d="M626 281.7l-318.2 49.6 349 118 .7-131.3z"/><path fill="#f9fdfc" fill-opacity=".6" d="M366 212.6l-15-34.1 81.5-18.2 3 69.5z"/><path fill="#4e4f4c" fill-opacity=".5" d="M592 308l-59.4 65.2 22.7 75.3 102.2-123.2z"/></g></svg>