<svg xmlns="http://www.w3.org/2000/svg" viewBox="0 0 620 414"><defs/><filter id="prefix__a"><feGaussianBlur stdDeviation="30"/></filter><rect width="100%" height="100%" fill="#2a6253"/><g filter="url(#prefix__a)"><path fill="#1b1c22" d="M-37.5 449.3V-37.5l675 26.1 20 460.7z"/><path fill="#74767b" fill-opacity=".9" d="M204 237.6l59 122.8 33.4-81.4-48.6-150z"/><path fill="#fef1ee" fill-opacity=".6" d="M312.2 199l22.5 18.5 26.4-63-33-3.9z"/><path fill="#767883" fill-opacity=".5" d="M487 163.5l-74.6 285.8 9.2-232.8L357 57z"/><path fill="#000002" fill-opacity=".7" d="M-31.2-15.7l-6.3 465 255-18.4-88.7-444.2z"/><path fill-opacity=".7" d="M404 265.7l12.6 183.6-153.8-230.6 16.7-51.8z"/><path fill="#4b4a51" fill-opacity=".6" d="M426.7 25L224.3 96.8l-44.1 197.6L279 141.2z"/><path fill="#eff1f6" fill-opacity=".3" d="M265 311.7l6.2-195.4L234 250.4l63.4 17.2z"/><path fill="#040506" fill-opacity=".9" d="M420.7 290.4l-35.1-156.2-115.8 209.5 29 92.5z"/><path fill="#393d46" fill-opacity=".5" d="M130 184.8l128.7 212.1 16.4-49.4-74.8-170.2z"/><path fill="#7d7f86" fill-opacity=".5" d="M419.7 182.6l-45-59.6 78.4 47.3-29 118.9z"/><path fill="#fffcfe" fill-opacity=".4" d="M342 149.2l-18.2 71.4 26.4-43.3-49-71.5z"/><path fill="#2a2f3b" fill-opacity=".6" d="M537.7 382.9L486.8 60.3l-78 365.2-23.2-.7z"/><path fill="#040506" d="M603 449.3l-37-103.5 8.7-33.1 82.8-2.5z"/><path fill="#fefafa" fill-opacity=".4" d="M317 168l27.9-12.3-5.6 62.3-24.7-37.8z"/></g></svg>