<svg xmlns="http://www.w3.org/2000/svg" viewBox="0 0 620 414"><defs/><filter id="prefix__a"><feGaussianBlur stdDeviation="30"/></filter><rect width="100%" height="100%" fill="#493d57"/><g filter="url(#prefix__a)"><path fill="#f0efdb" fill-opacity=".6" d="M341.5 99.3l-350.2 350L4.8-37.5l345.4 21.3z"/><path fill="#160400" fill-opacity=".9" d="M327.7 16.2l98 295.5 218.5-96.9-22.7-252.3z"/><path fill="#cd9377" fill-opacity=".6" d="M657.5 347.3L620 248 243.4 379.5l104.4 54.3z"/><path fill="#161b1c" fill-opacity=".7" d="M73.1 285.3l184.3 164-190-69.5-75.1-124.5z"/><path fill="#8f765e" fill-opacity=".6" d="M213.4-7.8l-40.5 259-83.5 122.5L443 228.4z"/><path fill="#effaff" fill-opacity=".5" d="M246.5 274.4l-118.9 2.7L26 251.6 77-37.5z"/><path fill="#d7e6ed" fill-opacity=".6" d="M-37.5 316.5L12 416.1l131 33.2-34.6-46.3z"/><path fill="#090202" fill-opacity=".4" d="M247.3 217.7l386-180.2-379.5 124.3-101.2-99.3z"/><path fill="#391804" fill-opacity=".7" d="M293.5 398.4l16.3 11.1 196.9-190.8-61.6-34.4z"/><path fill="#ab6840" fill-opacity=".8" d="M180 27.4L318.1 96l-149 13.4L358 10.9z"/><path fill="#e9f8ff" fill-opacity=".4" d="M358-37.5l-23.3 167.8-160.3-6 89.8 37z"/><path fill="#a6a7ab" d="M407.6 234l-107.5-21.1-.5-124.5 14.5 89.8z"/><path fill="#c3a8d8" fill-opacity=".5" d="M657.5 224l-46.7 181.2-72.7-142-45 54.5z"/><path fill="#6f6137" fill-opacity=".7" d="M61.8-37.5l-99.3 59.3L85.3 133.4l-103.5-10.1z"/><path fill="#ebf7fd" fill-opacity=".5" d="M254.8 76.3l-282 7.3L40 24 25.2-37.5z"/></g></svg>