<svg xmlns="http://www.w3.org/2000/svg" viewBox="0 0 620 929"><defs/><filter id="a"><feGaussianBlur stdDeviation="30"/></filter><rect width="100%" height="100%" fill="#634034"/><g filter="url(#a)"><path fill="#cee4e9" fill-opacity=".6" d="M-56.2-2.5l566 2.9 131 539.2-689.4 250z"/><path fill="#81756e" d="M676.8 200L405.3 415.5l-102 569.7-20.2-766.4z"/><path fill="#c6cdd1" fill-opacity=".7" d="M-6.2-56.2L9.4 596.2 277 648.8l-67-697z"/><path fill="#000407" fill-opacity=".9" d="M527 638.7l-36.4 180-128.4-67.2L394 605z"/><path fill="#87867d" fill-opacity=".9" d="M487 602l99-542.8L676.9 524l-135 262.4z"/><path fill="#f3ffeb" fill-opacity=".7" d="M647 226l29.8-43.8L336 176l29 38.8z"/><path fill="#8ec0b6" fill-opacity=".3" d="M639.4 860l29-74.3-518.2-5.5-206.4 127z"/><path fill="#40463a" fill-opacity=".8" d="M676.8 5.8L517.5 55.2 454 132.8l128.8 35.6z"/><path fill="#4b2f1c" fill-opacity=".5" d="M505.5 393.4L204 57.7l103.5 179.6 213 62z"/><path fill="#0d2f1f" fill-opacity=".5" d="M-36.7 983.4l265.7-160-.7-222L321.5 827z"/><path fill="#64301f" fill-opacity=".7" d="M322.6 353l-63.1 146 107.4-3.3 24.3-116.1z"/><path fill="#4e2f17" fill-opacity=".2" d="M-56.2 323l226.8 182.5-226.8 388.3 233-565.4z"/><path fill="#22130d" d="M406 306.6L393.5 278l77.3 20.7-11 56.6z"/><path fill="#9ea3a2" fill-opacity=".5" d="M381 593.7L231.2 693.8l305.5 175.3L291 793.6z"/><path fill="#ccdade" fill-opacity=".5" d="M275 453.3L-56.1 113.9l348 89.3 21.4 58.4z"/></g></svg>