<svg xmlns="http://www.w3.org/2000/svg" viewBox="0 0 620 414"><defs/><filter id="prefix__a"><feGaussianBlur stdDeviation="30"/></filter><rect width="100%" height="100%" fill="#684639"/><g filter="url(#prefix__a)"><path fill="#cabdb5" fill-opacity=".9" d="M167.1 415.8l474 33.5-222.4-254.1-68.5 16z"/><path fill="#d8d7d7" fill-opacity=".7" d="M328 165.9l79.1 247L160.6 79.4l72.1 205z"/><path fill="#141f26" fill-opacity=".8" d="M283.4 306.9l-9.5 40-311.4 102.4 160-314.6z"/><path fill="#111304" fill-opacity=".6" d="M657.5 182.9l-209.7-63.7 10.9 208.7 198.8-46.2z"/><path fill="#d1d5d9" fill-opacity=".9" d="M157 387.7l-61.6 61.6L391.1 402l-199.8-22.2z"/><path fill="#fdcfb0" fill-opacity=".4" d="M186.7 173.6L322.6 46l-15 111.7-105.1-126z"/><path fill="#000505" fill-opacity=".5" d="M237.1 132l63.2 177.3 7.3-3.4-38-205z"/><path fill="#eee4da" fill-opacity=".5" d="M463.8 233l-28.6-56-90.6 64.7-94.4 198.8z"/><path fill="#efffff" fill-opacity=".2" d="M643 449.3l12.4-123.6-137.1-39L403 449.4z"/><path fill="#e5f1ff" fill-opacity=".3" d="M258.7 234L347 128.8 231.3 321.4 181.9 95.9z"/><path fill="#000d12" fill-opacity=".4" d="M271 47l-70.5-1.7-79.2 241.4 39.3-324.2z"/><path fill="#757468" fill-opacity=".4" d="M120.1 293.5L-37.5-32.2 156.7-7l-132 355z"/><path fill="#f7d5a3" fill-opacity=".2" d="M374.7 23.5l56 112.1 44.5-173.1L218 9.5z"/><path fill="#05070a" fill-opacity=".4" d="M105.6 299.3l142 54.8 44.2 10.4-147.5-234.2z"/><path fill="#392d1c" fill-opacity=".5" d="M338 73.6l134.8 65-120 87.8L310 106.6z"/></g></svg>