<svg xmlns="http://www.w3.org/2000/svg" viewBox="0 0 620 414"><defs/><filter id="prefix__a"><feGaussianBlur stdDeviation="30"/></filter><rect width="100%" height="100%" fill="#3f3f3f"/><g filter="url(#prefix__a)"><path fill="#bfbfbf" fill-opacity=".8" d="M275.1 449.3l158.7-3L312.4 72l-94.7-12.3z"/><path fill="#e2e2e2" fill-opacity=".6" d="M503.5 294.3L551.7 175 489 204.6l-29 64.2z"/><path fill="#838383" fill-opacity=".9" d="M344.1 242.4L359 65.1 163 47l-3 132.7z"/><path fill="#131313" d="M-6 86.5L-17.5 412l99 37.3 48.7-79.5z"/><path fill="#0d0d0d" fill-opacity=".9" d="M582 449.3l-158.7-30-15.5-106 150.7-23.6z"/><path fill-opacity=".5" d="M625.8-37.5l-291.1 50 38.5 93.3 248.5 86z"/><path fill="#111" fill-opacity=".8" d="M284.3 198.4l-48.7 97 33.2 153.9-130.3-238.4z"/><path fill="#fdfdfd" fill-opacity=".4" d="M281.7 203.4l-20.9 245.9H425l-29.3-145.4z"/><path fill="#101010" fill-opacity=".7" d="M164.4 29.8L156 260.6l-25.5-62-168-233z"/><path fill="#fdfdfd" fill-opacity=".4" d="M587.8 351.4l69 36.1.7-13-94.4 74.8z"/><path fill="#f5f5f5" fill-opacity=".2" d="M107.5 157.7L3.6 38.3l98.1 227.6 49.7 34.9z"/><path fill="#262626" fill-opacity=".6" d="M449 323.8L415.4 56.9l-87.7 142.2-13.6-23.5z"/><path fill="#fefefe" fill-opacity=".2" d="M567.7 220.4l-9.2-145.8 38.3 77.7-145.4 84.8z"/><path fill="#161616" fill-opacity=".7" d="M153.5 293.5l141-92.2-157 214.3-.4-71z"/><path fill="#e3e3e3" fill-opacity=".6" d="M317 227.7l8-60.1-78.5 103.2 1 66.6z"/></g></svg>