<svg xmlns="http://www.w3.org/2000/svg" viewBox="0 0 620 414"><defs/><filter id="prefix__a"><feGaussianBlur stdDeviation="30"/></filter><rect width="100%" height="100%" fill="#564336"/><g filter="url(#prefix__a)"><path fill="#b5d2c3" fill-opacity=".4" d="M456.3 151.4L40.7-37.6l60 444.2 303.5 42.7z"/><path fill="#f6dfc7" fill-opacity=".6" d="M547.3 449.3h43.4L576.4-37.5h-58.1z"/><path fill="#f1f2ff" fill-opacity=".6" d="M299.1 355l36.6-150.4L463 449.3l-238-48.5z"/><path fill="#b79a79" fill-opacity=".9" d="M616.4-37.5L69.3 5l351.4 8 158.1 82.8z"/><path fill="#0c0a00" fill-opacity=".7" d="M533.8 254.8L383 281.7l56.7 109 104.4 47.9z"/><path fill="#1f3f31" fill-opacity=".6" d="M-20.3 17.4L89.4 41l114.5 94.5 11.6 113z"/><path fill="#e9eef4" fill-opacity=".6" d="M149.4 354l6.6 95.3 35.3-26L165.2 194z"/><path fill="#fbdfb2" fill-opacity=".7" d="M583 126.2l53.2-5.3 21.3 17.4-67.3 40.7z"/><path fill="#5d5845" fill-opacity=".8" d="M297.9 348l-137.6 80.7L483.4 33.4l-271.7-71z"/><path fill="#f9d5af" fill-opacity=".3" d="M151.1 127L360.4-37.6l255.5 68L124.2-20z"/><path fill="#1b0700" fill-opacity=".6" d="M153.8 449.3l-6.3-95.2-173.7 95.2 61.6-167.6z"/><path fill="#005841" fill-opacity=".4" d="M154.3 268.1l-17.5 181.2-41.4-244.4 100.3-59.6z"/><path fill="#9b9989" fill-opacity=".7" d="M458 163.2l11.1 67.4-52 11.8-61-106.8z"/><path fill="#85fcfb" fill-opacity=".2" d="M44.3 110.4L171 52.8 108.3 311l-39.5-52.1z"/><path fill="#925e34" fill-opacity=".8" d="M199 226.2l-10.3-6.5 3.1 229.6h56.7z"/></g></svg>