<svg xmlns="http://www.w3.org/2000/svg" viewBox="0 0 620 414"><defs/><filter id="prefix__a"><feGaussianBlur stdDeviation="30"/></filter><rect width="100%" height="100%" fill="#603832"/><g filter="url(#prefix__a)"><path fill="#0b3a2f" fill-opacity=".9" d="M620.2 46.7l3.4 402.6H-37.5V123.5z"/><path fill="#28ffd0" fill-opacity=".4" d="M431.6 92l-58.4 216L146 154.9l94.5-102z"/><path fill="#e94227" fill-opacity=".6" d="M387.3 281l31.7-91.4 8 120.2-16.7 80.1z"/><path fill="#f37d58" fill-opacity=".5" d="M215 91.8l52.6-31.3L398 43.8l-85 66.6z"/><path fill="#101714" fill-opacity=".9" d="M467.7 415.8l151 30.8 38.8-471.8-93.2 52.6z"/><path fill="#010000" fill-opacity=".6" d="M-1 141l407.4 232.2.7 76-444.6-33.1z"/><path fill="#00ffbe" fill-opacity=".3" d="M328.6 318l65.7-128.1-194-153.3 25.9 95z"/><path fill="#fe593e" fill-opacity=".4" d="M119.2 20.8L18.2 47l176 40.2-14-58.1z"/><path fill="#eae1ff" fill-opacity=".3" d="M157.2 143.4l182.1-16-28.8 20.3-183.6 18.4z"/><path fill="#084545" d="M363 165.7l196.2-140-32.7 131.2-202.7-67.8z"/><path fill="#00533a" fill-opacity=".7" d="M320.9 275.6L231 157.2 189-37.5l1.8 236.3z"/><path fill="#b7493a" fill-opacity=".7" d="M644.2-10.4l-45 10.2-304.5 94.4L565-37.5z"/><path fill="#008967" fill-opacity=".9" d="M449.7 284.8l3.7 73 40-54.3-31-45.3z"/><path fill="#0b3a4b" fill-opacity=".5" d="M206.3 145.8l-243.8-31.5L-11 80.2l200.8-2z"/><path fill="#008f67" fill-opacity=".6" d="M394 307.6L279.2 306l154.3-189.9-42.6 141z"/></g></svg>