<svg xmlns="http://www.w3.org/2000/svg" viewBox="0 0 620 929"><defs/><filter id="prefix__a"><feGaussianBlur stdDeviation="30"/></filter><rect width="100%" height="100%" fill="#2e3848"/><g filter="url(#prefix__a)"><path fill="#f8e1bd" fill-opacity=".6" d="M259.1-56.2l-315.3 153L12 985.3l418.4-242.4z"/><path fill="#150702" fill-opacity=".6" d="M221.7 699.7l70.8 285.5L295 84.6 186.5 172z"/><path fill="#e1d6bd" fill-opacity=".8" d="M-38.1 280.5L156 187l97 746.5-149.6 51.8z"/><path fill="#0a0e13" fill-opacity=".9" d="M434.7 985.2l242-457.6V-56.2H435.9z"/><path fill="#f5f9fe" fill-opacity=".5" d="M397 796.5l-124.8-84.1 43.5-105 73.3-356z"/><path fill="#070100" fill-opacity=".9" d="M386.5 955.9l-105.6 29.3-40.7-254.7L388.7 810z"/><path fill="#c7b79a" d="M246.8 525.5L131 900l-187.2 32.6 221-427z"/><path fill="#716459" fill-opacity=".9" d="M276.9-4.4l204-10.5L434-45 271.8 532.7z"/><path fill="#ebf9ff" fill-opacity=".4" d="M167.7 251.5l217 427.1-49-291.8-392 66.8z"/><path fill="#080f18" fill-opacity=".6" d="M180.4 491.7l43.1-191.2 41 434 65.7-168z"/><path fill="#746657" d="M-28 159.7L10.3-25l111-31.2-34.5 258z"/><path fill="#1e2632" fill-opacity=".6" d="M617 985.2L386 543l14.2 250.4 276.5-525.8z"/><path fill="#1b0f00" fill-opacity=".4" d="M-56.2 849.9l43.1-495.4 23.6 195.6 43.6 202.5z"/><path fill="#5a4f47" fill-opacity=".9" d="M425.7 387.2L405 53.7 262.4 96.2l59.8 254.7z"/><path fill="#a69a82" d="M220 708.7l-11-58L-1.5 931.2l65.7 41.3z"/></g></svg>