<svg xmlns="http://www.w3.org/2000/svg" viewBox="0 0 620 414"><defs/><filter id="a"><feGaussianBlur stdDeviation="30"/></filter><rect width="100%" height="100%" fill="#5f372b"/><g filter="url(#a)"><path fill="#bdf2fb" fill-opacity=".5" d="M289 235L128-37.6h285.6l.4 384.3z"/><path fill="#e9f4f3" fill-opacity=".9" d="M491.2 135.9l-16.5-72 51.8-43.6 16.2 107.3z"/><path fill="#031217" fill-opacity=".8" d="M-19.4 449.3l310.5-40L136.6-37.5l-174.1 50z"/><path fill="#f5f6f5" fill-opacity=".9" d="M252.6 170.7l-35.6-77L408.3 90l1 33.4z"/><path fill="#374d5a" fill-opacity=".5" d="M377.6 86.5L585.9-9.7 163.7 14.8l-8.7 87z"/><path fill="#a8ffff" fill-opacity=".3" d="M582-37.5l6.5 187-23.2 173L504 55.8z"/><path fill="#01191f" fill-opacity=".6" d="M657.5 406l-257.2 38.2 55.5-481.7 33.4 179.7z"/><path fill="#000e13" fill-opacity=".7" d="M619.5 416.6l-28-173.4-7.1-280.7h73.1z"/><path fill="#70a0b3" fill-opacity=".4" d="M297.9 340.8l111.6-18.2L398.6 446l-121-37.8z"/><path fill="#181c1d" fill-opacity=".9" d="M382.9 403.2l-17.2-97L-26.6 1.6 339.3 345z"/><path fill="#d1eefb" fill-opacity=".5" d="M291.6 297.4l-15 41.4-20.9-22.7 9.7-34.7z"/><path fill="#8f9d8e" fill-opacity=".7" d="M381.7 269.6l-12.8-147.8L223 197.4l257-.7z"/><path fill="#f8fdfe" fill-opacity=".4" d="M460.9 18l-39.5 25.4-8-12.4-286 7.5z"/><path fill="#020b0d" fill-opacity=".7" d="M480.7 53l45.8-35.3-100.7-54.8 40.4 218.7z"/><path fill="#526770" fill-opacity=".3" d="M49.6 112.4l35-150 24.6 175.4-8.5 179.2z"/></g></svg>