<svg xmlns="http://www.w3.org/2000/svg" viewBox="0 0 620 414"><defs/><filter id="a"><feGaussianBlur stdDeviation="30"/></filter><rect width="100%" height="100%" fill="#3c3c3c"/><g filter="url(#a)"><path fill="#f0f0f0" fill-opacity=".7" d="M34.4-10.4l84 282.6L314 328.4 307-8.5z"/><path fill-opacity=".8" d="M311.7 411.5l10-403 322-46-24.4 486.8z"/><path fill="#707070" d="M201.7 359.4l5.6-157.4 57.7-61 3.1 218.6z"/><path fill="#010101" fill-opacity=".9" d="M14.3-37.5L68.5 321l518.3 128.2-624.3-36.9z"/><path fill="#fefefe" fill-opacity=".3" d="M200.3 208.5L48.9 184.8 38.3-12.6l270 52.3z"/><path fill="#2b2b2b" d="M418.3 3.1l-119 113 2.2 74.3 101-106.8z"/><path fill-opacity=".5" d="M127.9 259.1l-13.1-150.8-38 341L67 140z"/><path fill="#4a4a4a" fill-opacity=".4" d="M173 104.9l317.2-29.3-300-1.5-92.1 1z"/><path fill="#d0d0d0" fill-opacity=".5" d="M46 82.8l13 9.7 12.7 168.6-15.3 16z"/><path fill="#fff" fill-opacity=".6" d="M123.5 105.1l1.2 104.4 56.7 4.8 99.3-84.7z"/><path fill="#9a9a9a" fill-opacity=".7" d="M317 344.4l-48.9 7.7-7.3-127.3 38.5-42.2z"/><path fill="#010101" fill-opacity=".3" d="M261.3 191.6l-27.8 234.7-2-304.7 36.4 35.8z"/><path fill-opacity=".3" d="M-37.5 23l97.8-60.5-6.5 114 50.6 85.3z"/><path fill="#f6f6f6" fill-opacity=".3" d="M414.1 34l-10.9 49.6-42.1 11.6-3.9-40z"/><path fill="#fff" fill-opacity=".2" d="M108.5 249.5l53.3 88.6-77.5-7 122.5-89.2z"/></g></svg>