<svg xmlns="http://www.w3.org/2000/svg" viewBox="0 0 620 414"><defs/><filter id="prefix__a"><feGaussianBlur stdDeviation="30"/></filter><rect width="100%" height="100%" fill="#513d3c"/><g filter="url(#prefix__a)"><path fill="#d2c2ba" fill-opacity=".6" d="M277 100L-4 449.3-37.5-37.5l695 41.9z"/><path fill="#000008" fill-opacity=".5" d="M245.8 59.8l-72.4 6.8 13.3 362.3 224.5 20.4z"/><path fill="#96847f" d="M210 112.6l176.5 97.9L426 329.6V133.4z"/><path fill="#0b0f20" fill-opacity=".7" d="M51.8 330.1l352.7-12.4 159.3-185.2-2.2 313.6z"/><path fill="#bfaea6" fill-opacity=".8" d="M21.6-37.5l-59.1 451 124-95 81.3 3.4z"/><path fill="#66534c" fill-opacity=".9" d="M289 54.5l-182.7 48 486 67.3-168.5-83.3z"/><path fill="#c2c0c3" fill-opacity=".7" d="M337.4 284.3l13.8 19.2 41.1 5.3-19.6-74.8z"/><path fill="#b75b59" d="M110.4 449.3l-31.7-96.7-47.7 1.5-68.5 95.2z"/><path fill="#81776f" fill-opacity=".9" d="M547.6 57.9l26.1 197.4 39.8-292.8L296 13.3z"/><path fill="#e4f2fe" fill-opacity=".4" d="M336.9-11.6L185.3 46-37.5 80V-37.6z"/><path fill="#18141b" d="M117.2 449.3l347.3-102.5L89 317.3l-13.1 15.2z"/><path fill="#b19589" fill-opacity=".8" d="M40.2 54.3l161.3 132-28.6 76-124.2 87.9z"/><path fill="#720b09" fill-opacity=".7" d="M145.8 158.4l15.3 164.2 22.7 20.1-19.6-118.2z"/><path fill="#d9d0cd" fill-opacity=".5" d="M414.9 326.7l4.6-124.5L446 164l-70.5-13.6z"/><path fill="#937065" fill-opacity=".8" d="M371 93.7l9.7 147.5L260.8 76l-22.2 92.6z"/></g></svg>