<svg xmlns="http://www.w3.org/2000/svg" viewBox="0 0 620 414"><defs/><filter id="prefix__a"><feGaussianBlur stdDeviation="30"/></filter><rect width="100%" height="100%" fill="#434344"/><g filter="url(#prefix__a)"><path fill="#c3c3c3" fill-opacity=".6" d="M267.4 449.3H86.2L-37.5-7.7l253.8 112.6z"/><path fill="#040404" fill-opacity=".9" d="M657.5 7L469.4-36l-43.9 477.5 232 7.8z"/><path fill-opacity=".5" d="M-10.4 442L200 108.3l-17-44.6-204 206.6z"/><path fill="#707070" fill-opacity=".7" d="M399.9 327L454 117l88.9 82-254.8-72.6z"/><path fill="#b5b5b5" fill-opacity=".7" d="M218.7 237.1l-131.8-9.4 128.2 219.1 71.7-113z"/><path fill="#d8d8d8" fill-opacity=".6" d="M157 80.9l-65.7 86.7-84.8-92 47-44.6z"/><path fill="#010101" fill-opacity=".7" d="M321.9 432l230.5 17.3L225 268.8l-1.5-81.6z"/><path fill="#1b1b1b" d="M165.9 80L-37.5-8.6-18 238.8 17.4-8.5z"/><path fill="#0a0a0a" fill-opacity=".9" d="M396.2 387.5l12.4-119.4L541 152.3l116.5-63.7z"/><path fill="#9f9f9f" fill-opacity=".7" d="M76.3 250L24.5 449.2l117.2-55.5L-3.1 217.2z"/><path fill="#313131" d="M223 218.7l80.5-80.9 214-175.3L214.9 92z"/><path fill="#f9f9f9" fill-opacity=".4" d="M415.4 119.6l51 42.4 48 6-29 31.3z"/><path fill="#707070" fill-opacity=".7" d="M221.6 87.4L94 23.7l39-61.2 156.2 93.2z"/><path fill="#f7f7f7" fill-opacity=".3" d="M207.8 232.5L217 100 87.4 266l45.3-126.3z"/><path fill-opacity=".7" d="M130.8 112.9l48.9-28.4 16 20.1-60.8 40.5z"/></g></svg>