<svg xmlns="http://www.w3.org/2000/svg" viewBox="0 0 620 414"><defs/><filter id="prefix__a"><feGaussianBlur stdDeviation="30"/></filter><rect width="100%" height="100%" fill="#4b5639"/><g filter="url(#prefix__a)"><path fill="#f8c0b2" fill-opacity=".6" d="M172.4 16.7l84.8 432.6 112.4-45-52-384.7z"/><path fill="#270000" fill-opacity=".4" d="M288.2 253.8L12.2-37.5-37.6 424l231.5 7.5z"/><path fill="#89b2aa" fill-opacity=".6" d="M434.7 94.2L405 278.5l85.8 69-13.1-178.7z"/><path fill="#3e1212" fill-opacity=".9" d="M657.5 396.5l-279.7 52.8L358-37.5l55.7 356.2z"/><path fill="#ffe3d7" fill-opacity=".3" d="M286.3 254l35-123.7-176 10.9 15.5 72z"/><path fill="#1c0e00" fill-opacity=".6" d="M28 225.5l210.6-263h-258L-29.5 386z"/><path fill="#e2c9b4" fill-opacity=".6" d="M377.3 290.4l-49.1-4.6-136.4 153L370.1 372z"/><path fill="#242014" d="M400.6 303.5l-107-341L392.7 29 410 148z"/><path fill="#1e0606" fill-opacity=".5" d="M638-37.5L424.7-.5l143.4 111.7 54 173.1z"/><path fill="#da590b" fill-opacity=".3" d="M502.5 29.5l23.8 305.7 73.1 90.6L572.3 32z"/><path fill="#060000" fill-opacity=".3" d="M341.2 280.2L-9 449.2 373 208l39.7 113.4z"/><path fill="#5f6547" fill-opacity=".5" d="M88.9 391.4l194.2-158-194-62.2-65.9 89.2z"/><path fill="#0c0500" fill-opacity=".6" d="M249.2 98.3L238.6 134l55.9-9.4 6.8-10z"/><path fill="#1c0403" fill-opacity=".8" d="M-3.9 413.9l128.1-37.3 88.4-86.2L172 449.3z"/><path fill="#dbbba8" fill-opacity=".5" d="M156.7 35.8l164.2 170-131.5 243.5 118.9-166.4z"/></g></svg>