<svg xmlns="http://www.w3.org/2000/svg" viewBox="0 0 620 414"><defs/><filter id="prefix__a"><feGaussianBlur stdDeviation="30"/></filter><rect width="100%" height="100%" fill="#4e3f37"/><g filter="url(#prefix__a)"><path fill="#c4cabf" fill-opacity=".6" d="M552.2 406.4l-514 42.9L-37.4 9 495-37.5z"/><path fill="#081115" fill-opacity=".7" d="M293.5 449.3L154 444.9l71-277.3 28 14.8z"/><path fill="#f3e3c9" fill-opacity=".8" d="M53.8-37.5l79.4 108.7L501.8 61l-.7-98.5z"/><path fill="#f6f8fd" fill-opacity=".8" d="M266.9 449.3h238L400.7 313.9l-33.7-84z"/><path fill="#7d725e" fill-opacity=".9" d="M616.1 66.4l41.4 244.8-180-.7L485 71.7z"/><path fill="#321900" fill-opacity=".3" d="M351.7 126.7l83.3 97 23.5 174.7L170.5 38z"/><path fill="#ecd3b0" fill-opacity=".8" d="M657.5 119v16.9l-64.1 71-8-108.8z"/><path fill="#5f6465" fill-opacity=".9" d="M-37.5 36.8l136-74.3-86.1 486.8 13-315.6z"/><path fill="#e8f2fb" fill-opacity=".7" d="M134 330.3l-2.2 118.5L99 391.4l24.2-171z"/><path fill="#e7d2bd" fill-opacity=".7" d="M466.5 449.3l16.7-474.5L435-37.5l17.9 421.4z"/><path fill="#1e2128" fill-opacity=".9" d="M187 281.2l73.1 168L339.3 278l-54 62.5z"/><path fill="#41423e" d="M511.3 366.4l-10.7-66.8-4.1 129.3 161-15z"/><path fill="#ceced2" d="M272.2 185l-5.8 122-7.3 17.8 23.3 9.4z"/><path fill="#fde6c9" fill-opacity=".6" d="M102.7 151.6L91 38.3l88.1-75.8-37.8 193.7z"/><path fill="#716652" fill-opacity=".7" d="M283.1 328.6l149-247-55.5-40.2-98.3 186.3z"/></g></svg>