<svg xmlns="http://www.w3.org/2000/svg" viewBox="0 0 620 414"><defs/><filter id="a"><feGaussianBlur stdDeviation="30"/></filter><rect width="100%" height="100%" fill="#4f372c"/><g filter="url(#a)"><path fill="#c5a799" d="M275.4 406.1l117.4-153.5 6.6-186.5 258.1 383.2z"/><path fill="#a37451" fill-opacity=".5" d="M71.2 20.6l311.2-58.1 190.6 314-327.2 57.2z"/><path fill="#ece9e7" fill-opacity=".7" d="M308 363.3l21.4 86h297.4l-295-133z"/><path fill="#664530" fill-opacity=".9" d="M393.8 318.5l32.7-62-73.6-91.8L134.7 206z"/><path fill="#ebbcae" fill-opacity=".5" d="M376.6 130.3l111.9 319L492 145l-104.6-43.6z"/><path fill="#060b04" fill-opacity=".3" d="M513.2-37.5l144.3 177-238.8 113.1L535 276.3z"/><path fill="#d1ab9f" fill-opacity=".9" d="M549.8 225.2l29.5 224-39.7-195.6-31.2-65.2z"/><path fill="#b08a64" fill-opacity=".6" d="M225.7 195.7l-65.4-119L224 33.3 327.4 82z"/><path fill="#917a6f" fill-opacity=".9" d="M554.6 438.4L534.8 325 657 413l-69-118.3z"/><path fill="#63422d" fill-opacity=".7" d="M139.3 449.3H321l-11-90.4L69.5 0z"/><path fill="#674833" d="M511 82.3L313 120 498.6-37.5 450.2 154z"/><path fill="#84898f" fill-opacity=".5" d="M58.9 369l57.6 80.3h-154l68.7-93z"/><path fill="#dec1b3" d="M545.6 355.3l-85.4-84.8-35.4 97.6 114.3 78.7z"/><path fill="#000d09" fill-opacity=".4" d="M112.1 19.6L-12-37.5-37.5 128l75 5.1z"/><path fill="#ddc4be" fill-opacity=".7" d="M595 446.1L544.3 326l-6.8-61.3 72 147.5z"/></g></svg>