<svg xmlns="http://www.w3.org/2000/svg" viewBox="0 0 620 929"><defs/><filter id="a"><feGaussianBlur stdDeviation="30"/></filter><rect width="100%" height="100%" fill="#42342b"/><g filter="url(#a)"><path fill="#c0c7d1" fill-opacity=".8" d="M78 677.5l22.2-274 308-114 81 488.9z"/><path fill="#d0dcf2" fill-opacity=".7" d="M144.8 711.3l69-423.2-130 206.2 236.3 370.1z"/><path fill="#031439" fill-opacity=".8" d="M200 671.7l61-28.3 242 225.7-50.5 116.1z"/><path fill="#15190d" fill-opacity=".9" d="M189.8 258.4L676.8 24 1-56.2l-12 766.4z"/><path fill="#e4f4f3" fill-opacity=".5" d="M557.8 985.2L290.3 196.3l2.6 464.9 177.8 163.7z"/><path fill="#5d4843" d="M294 168.7l-80 28.7L290.7 805 270 376z"/><path fill="#16160d" fill-opacity=".8" d="M179.3 108.5l248.2 219.6L597 985.2 676.8-54z"/><path fill="#011027" fill-opacity=".7" d="M346.2 948.2L204.3 761.7-56.2 573.4v287z"/><path fill="#bf967a" fill-opacity=".5" d="M423.1 298l36 218.4-296.9-298L143 371z"/><path fill="#2b1b09" fill-opacity=".5" d="M561.4 982.7L676.8 592l-311.4-76.2 31.6-90z"/><path fill="#858985" fill-opacity=".9" d="M557 985.2h-75.4l5.8-108.5L405 427.1z"/><path fill="#cbdeff" fill-opacity=".4" d="M317.2 833.6l-151.4-90.4L73 481.6l98.4 145.8z"/><path fill="#3a1f25" fill-opacity=".8" d="M242.8 376l39.5 62.4-31.2 170.2 73 376.6z"/><path fill="#906e5d" d="M373.8 305.2L244.6 172.7l-5.8 48L303 331.2z"/><path fill="#121605" fill-opacity=".8" d="M-56.2 824.9L72.2 984.2 81.7 484 20-8.7z"/></g></svg>