<svg xmlns="http://www.w3.org/2000/svg" viewBox="0 0 620 414"><defs/><filter id="prefix__a"><feGaussianBlur stdDeviation="30"/></filter><rect width="100%" height="100%" fill="#5f4437"/><g filter="url(#prefix__a)"><path fill="#bbbfb2" fill-opacity=".7" d="M601.8-37.5H-31.7l-5.8 411 695 74.5z"/><path fill="#e7f2f9" fill-opacity=".7" d="M125.2 99.8L9.2-37.5l-46.7 297.9 191.3-24z"/><path fill="#6b5c50" fill-opacity=".7" d="M307.6 449.3l-54-109.3-27.2-274.6-216 365.2z"/><path fill="#575550" d="M117 26.2l-47.2 6.7L272 236.1l-4.4-51z"/><path fill="#f8fffe" fill-opacity=".4" d="M381-4.4l-35.4 453.7-29.3-368.7L-32-1.4z"/><path fill="#694509" fill-opacity=".3" d="M378.5 231.8l53.3 217.5 49-429.2L392-37.5z"/><path fill="#d3d5d0" fill-opacity=".7" d="M456.8 449.3l54.5-3.4 11.3-427-39.4-56.4z"/><path fill="#a69583" fill-opacity=".9" d="M35.4 420l-73 24.7v-37.3l379-240.8z"/><path fill="#020506" fill-opacity=".9" d="M116 100.3L136.6 65l-15-23.4-33.7-9.5z"/><path fill="#6c7474" d="M145.8 54l80 1.5 1.9 74-83.1 74.2z"/><path fill="#777565" fill-opacity=".6" d="M568.2 441.8l-37.3-308.6 32.4-72 94.2 319.5z"/><path fill="#240c00" fill-opacity=".5" d="M196.2 343.7l36.3-5.4 23-88.4L124 351.4z"/><path fill="#e5e6db" fill-opacity=".4" d="M154.5 199l137.6-42.8-48.7-193.7-17 319z"/><path fill="#857248" fill-opacity=".5" d="M283.8 43.4l24 388.7 8.5-191.4-4.4-278.2z"/><path fill="#361e00" fill-opacity=".4" d="M27.1 363.3l128.4-71.7 30.3-48.2-31-5.8z"/></g></svg>