<svg xmlns="http://www.w3.org/2000/svg" viewBox="0 0 620 414"><defs/><filter id="prefix__a"><feGaussianBlur stdDeviation="30"/></filter><rect width="100%" height="100%" fill="#63453b"/><g filter="url(#prefix__a)"><path fill="#dce3de" fill-opacity=".5" d="M-16.2 336l617 113.3-75.5-480.5-562.8-6.3z"/><path fill="#201100" fill-opacity=".5" d="M124.2 293.3L654-5.8 169.3 210.5l-206.8-40.7z"/><path fill="#def" fill-opacity=".5" d="M608.4 379.8l-108.8-162-137.3.4L424.6 363z"/><path fill="#b3b0af" fill-opacity=".8" d="M-37.5 3.6l695-14.5L574 29.3 156.2 212.4z"/><path fill="#371b0a" fill-opacity=".5" d="M493.3 134L544 248.6 369 119.4 657.6-3.1z"/><path fill="#8b6f63" d="M438.6 437.4l-36.8-96 2.2-80L37.3 449.2z"/><path fill="#b6aea3" fill-opacity=".9" d="M635.3 72.7l-8.8 33.4-119.4 39-33.1-12.9z"/><path fill="#c9bfb1" fill-opacity=".8" d="M227.2 235.6L471.5 144l-283.3 85 22.3 144.1z"/><path fill="#c8cac8" d="M-37.5 278.3l102 1.2 3.6-44-5.4-18.5z"/><path fill="#beb3a5" d="M31.2 182.6L-24 70.5 150-4.6l-12 203.2z"/><path fill="#3d240c" fill-opacity=".5" d="M246.3 96.4l8.5-2.4 34.6-28.4-20 67.6z"/><path fill="#756153" d="M228.1 357l-159-.3L77 236 20.5 437z"/><path fill="#6b5148" d="M491.6 445.9l166-58L558 265.5 594.3 371z"/><path fill="#5e4639" d="M311.2 188L484 126.1l173.6-63.7-332.7 76z"/><path fill="#6b6258" d="M118.2 195L91 351.9l41.6-74.4 72.7 8.5z"/></g></svg>