<svg xmlns="http://www.w3.org/2000/svg" viewBox="0 0 620 929"><defs/><filter id="prefix__a"><feGaussianBlur stdDeviation="30"/></filter><rect width="100%" height="100%" fill="#3c474f"/><g filter="url(#prefix__a)"><path fill="#110601" fill-opacity=".9" d="M595.1 791.8l-108.8-132-203.6-716 394 66.7z"/><path fill="#e7e5e0" fill-opacity=".7" d="M431.8 890.9l-43.1-93.6L586.4 811l34.9 54.4z"/><path fill="#30180b" d="M-17 857.5L31.5 617l316.8 57 43.9 287z"/><path fill="#d0e3d9" fill-opacity=".5" d="M-56.2 96.2L359.6 270-55.5 150.6 351.6 307z"/><path fill="#f3ffe7" fill-opacity=".3" d="M545 654.7L-20 550l-36.2 53.7L234 652.5z"/><path fill="#0b0401" fill-opacity=".8" d="M676.8-36.3V315L184.3 68.6 129.6-44.6z"/><path fill="#2b271b" fill-opacity=".6" d="M266 345.5l-322.2 95v99.8L671.3 682z"/><path fill="#f3ffeb" fill-opacity=".2" d="M-2.5 370.9L-56.2-56.2l266.7 147-19.6-40.4z"/><path fill="#cde1df" fill-opacity=".5" d="M292.1 552.3l-305.2-81 450 99.5 47.2 25.8z"/><path fill="#eddeac" fill-opacity=".7" d="M122 774.8l-27.3-78 41.4-1.5-57.4 82z"/><path fill="#3e2517" fill-opacity=".9" d="M339.3 626.7l-23.6 228.6 361-384.6-21.3 373.7z"/><path fill="#dbe5e0" fill-opacity=".6" d="M27.2 323l-83.4-22.2 59.8 27.3 435.5 127.7z"/><path fill="#7e8ea8" fill-opacity=".9" d="M352.7 798.4l13.5 45.3 93.2 8 4-74.8z"/><path fill="#f8d8a1" fill-opacity=".6" d="M109.6 883.3l-25 102H43.9L67.5 885z"/><path fill="#d2dedb" fill-opacity=".5" d="M274 474.3L179 446 59.8 402.8l447.4 126z"/></g></svg>