<svg xmlns="http://www.w3.org/2000/svg" viewBox="0 0 620 929"><defs/><filter id="prefix__a"><feGaussianBlur stdDeviation="30"/></filter><rect width="100%" height="100%" fill="#563732"/><g filter="url(#prefix__a)"><path fill="#dadfdd" fill-opacity=".6" d="M8.3 985.2L81-56.2 565.7 65.3l111 783.5z"/><path fill="#d6d1d4" d="M-7.6 985.2l118-467L88.1-56.2 303 849.5z"/><path fill="#777070" fill-opacity=".7" d="M600.6-56.2L676.8 877 323 985.2l-66-154.5z"/><path fill="#351a0a" fill-opacity=".6" d="M304.5 140.4l-146-47.1-.6 97.2L293.2 265z"/><path fill="#867672" fill-opacity=".9" d="M140 477.2L-23.5 900.3-42 0l166.6 331z"/><path fill="#f4f0de" fill-opacity=".8" d="M163 274.7l-15.7-331-81.6 4L79.8 241z"/><path fill="#2e301f" fill-opacity=".6" d="M77.7 429.7l-59.2.3L7.6 94.4l85.7 163.3z"/><path fill="#726854" d="M676.8 168l-220-224.2L310.4 95.4l-103-151.6z"/><path fill="#f0e1d8" fill-opacity=".4" d="M302 451.8l21.7-241 128.5-110.3-83.9 434z"/><path fill="#020800" fill-opacity=".5" d="M213.4 192.3l87.4-31.5-156.4-78 31.6-139z"/><path fill="#ffefef" fill-opacity=".2" d="M-6.2-9.4L6.2 753.7l176.3-633.2L30.8 487.7z"/><path fill="#feffdd" fill-opacity=".6" d="M257.7 107l10.8-78.7L204-56.2l-11.2 177.4z"/><path fill="#aba7a6" fill-opacity=".5" d="M240.2 478.3l153.5 112.5-32.6 358.5-158.6-10.9z"/><path fill="#917264" fill-opacity=".9" d="M336.4 313.9L276.5 434l-1.4-259.8-78 118z"/><path fill="#9c9382" d="M630 279.8l-32 41-266.3-377 185 168z"/></g></svg>