<svg xmlns="http://www.w3.org/2000/svg" viewBox="0 0 620 414"><defs/><filter id="prefix__a"><feGaussianBlur stdDeviation="30"/></filter><rect width="100%" height="100%" fill="#5f382f"/><g filter="url(#prefix__a)"><path fill="#c1c0bf" fill-opacity=".9" d="M9.4-37.5l648.1 58.8-416 197.2-279-135.2z"/><path fill="#858d94" fill-opacity=".5" d="M376.4 125l42.1 299.3-415.1 25-29.8-360.7z"/><path fill="#00040e" fill-opacity=".5" d="M287.7 299.6L356.5 108l301 67.8L606 449.3z"/><path fill="#ffecee" fill-opacity=".3" d="M200 311.2l366-181.1 91.5-104.2-440.7 196.4z"/><path fill="#00050f" fill-opacity=".7" d="M73.9 278L199 295l20.6-103-135 39.8z"/><path fill="#e9e0e3" fill-opacity=".7" d="M246.5 319.7L283-37.5 43.6 33.9l164 136.4z"/><path fill="#8cd9e8" fill-opacity=".6" d="M414.6 442L358 427.5l-14.8-113.6 18.6-88.7z"/><path fill="#9a988f" d="M512 144.1l46.2 1.5L657.5-3.1 470.5 7z"/><path fill="#0e0808" d="M657.5 220l-237.3 17.6-6.8 170.7 244.1 41z"/><path fill="#d4efe5" fill-opacity=".4" d="M-37.5 280.7l241.7 54.2-169.3-73.1-24.5-128.1z"/><path fill="#ebf0fd" fill-opacity=".6" d="M407.8 94.7L290 49.9l145.8-87.4 16 220.8z"/><path fill="#3d262a" fill-opacity=".7" d="M183.6 292.6l-9.7 151.8 177-93.7-17.7 83.5z"/><path fill="#3a4251" d="M403.5 110.2L296.9 244.9l109.5-.8 10.2-124.5z"/><path fill="#908365" fill-opacity=".7" d="M16.7 243l131-48.3L185 90.8-6.3 94.5z"/><path fill="#ff5c75" fill-opacity=".6" d="M342.5 326.2l-141.7-60 73.6 85.5-5 91z"/></g></svg>