<svg xmlns="http://www.w3.org/2000/svg" viewBox="0 0 620 929"><defs/><filter id="prefix__a"><feGaussianBlur stdDeviation="30"/></filter><rect width="100%" height="100%" fill="#6b533f"/><g filter="url(#prefix__a)"><path fill="#d2dad4" fill-opacity=".6" d="M-56.2 119l21.7-149 711.3-19.6-26.9 376.3z"/><path fill="#e9effb" fill-opacity=".8" d="M357.8 429l-65.3-39.6L241.3 865l147 3z"/><path fill="#000904" fill-opacity=".6" d="M554.9 985.2l121.9-446.7L395.2 69.7l-7 28z"/><path fill="#cfcac3" fill-opacity=".7" d="M61.7 985.2L124 494.6l-180.3 79.9 49 392.6z"/><path fill="#2d0000" fill-opacity=".5" d="M66.4 985.2l591.5-210-400.6 210-26.9-520z"/><path fill="#feabcf" fill-opacity=".4" d="M453.6 449.3l-131-115 102.7 347.2 74-47.9z"/><path fill="#cbc5ba" fill-opacity=".7" d="M462 302.3l32.3-358.5h182.5l-36 370.8z"/><path fill="#21545a" fill-opacity=".3" d="M-35.6 587.9l5.1-298 165.9-189.4L493.2 191z"/><path fill="#111912" fill-opacity=".7" d="M445.3 754.8l62.4 230.4 169-689.4-119.3 30.4z"/><path fill="#51180e" fill-opacity=".6" d="M249.7 383.2l107.7-201.4-69.3 298.7-288.5 484z"/><path fill="#e6ebec" fill-opacity=".6" d="M354.5 145.5l-101.6-4-18.8-161.1 141.5-36.6z"/><path fill="#af8571" d="M172 451l-51.2 82 110 116.6-61.7-115z"/><path fill="#080703" fill-opacity=".8" d="M304.1 286.3l233 98L518.6 671l-67.9-249z"/><path fill="#2a352d" fill-opacity=".8" d="M234 291.4L128.6 299-56.2 578.4l198.8-98z"/><path fill="#77847f" fill-opacity=".6" d="M398.8 144.8L89.3 297.2l-145.5 327L-21 139.3z"/></g></svg>