<svg xmlns="http://www.w3.org/2000/svg" viewBox="0 0 620 414"><defs/><filter id="a"><feGaussianBlur stdDeviation="30"/></filter><rect width="100%" height="100%" fill="#50282d"/><g filter="url(#a)"><path fill="#b4d1bb" fill-opacity=".4" d="M-37.5 435.5l622.6-47-135.6-426L27.9 262.8z"/><path fill="#bab4a3" d="M51.1-10l11.1 440-33.1-69L18.4 2.9z"/><path fill="#fbfff5" fill-opacity=".7" d="M348.8 23.7L317.3 89l225.4 6.5L417 0z"/><path fill="#262423" fill-opacity=".8" d="M384.1 150l59.8 40.8-135.8 159.9-85.3-54z"/><path fill="#e7e5d3" fill-opacity=".6" d="M329.1 318.7l-13.8 7.8L355.8 433 471 359.2z"/><path fill="#01201c" fill-opacity=".5" d="M157 5.8L183.7 327 58.1 276.3l-2.4-284z"/><path fill="#d5d9d4" fill-opacity=".7" d="M181.2 372.5V163l38.2 112.9 37.8-74.2z"/><path fill="#68484e" fill-opacity=".8" d="M89.4 79.2l380.7 30L537-8l44 327.2z"/><path fill="#bebcad" d="M18.4 362l-56-48.4 202 62.5-202 46.5z"/><path fill="#051416" fill-opacity=".7" d="M314.4 96.1L68.3 60.5l63.4-98h229.6z"/><path fill="#d8dbbb" fill-opacity=".6" d="M561.6 321.4l16 127.9-29.5-63.3-88.4-30z"/><path fill="#000c06" fill-opacity=".6" d="M62.5 307.8l-21.6 52.6-33-309-45.4 216.2z"/><path fill="#d0d8c1" fill-opacity=".5" d="M262.8 87.7l117.4 4.6-98.5 9.9L93.2 90.6z"/><path fill="#1a1603" fill-opacity=".5" d="M528 328.9L332.3 449.3 558.5 402l-273-129.5z"/><path fill="#172428" fill-opacity=".9" d="M657.5-29L352.4 6.7l-24-44.3 309 149z"/></g></svg>