<svg xmlns="http://www.w3.org/2000/svg" viewBox="0 0 620 414"><defs/><filter id="a"><feGaussianBlur stdDeviation="30"/></filter><rect width="100%" height="100%" fill="#745338"/><g filter="url(#a)"><path fill="#b2a69d" fill-opacity=".8" d="M611.8 449.3L1.2 431.8-37.5 200 639 4.8z"/><path fill="#e9dfda" fill-opacity=".8" d="M424.8 449.3h-53.5L489 76.8l18.9 246.8z"/><path fill="#f4f4ff" fill-opacity=".4" d="M41.2-21.6l.5 294.3L5 312.2-32-12.1z"/><path fill="#482912" fill-opacity=".4" d="M47.7 263.3l229.8 70.2-263 115.8L346.1-37.5z"/><path fill="#040105" fill-opacity=".5" d="M18.6 144.3l218.5 2.2-102.2-63.2 1.5-120.8z"/><path fill="#fffbe9" fill-opacity=".5" d="M155.2 291.4L322 228.6l-52.3 213.2L235 231.5z"/><path fill="#86806b" d="M581.5 254l76-93.7L653-37.5H411.5z"/><path fill="#bdb0aa" fill-opacity=".9" d="M242.7 76.5l250.2 142L369.3 231 234 156.7z"/><path fill="#fed2d5" fill-opacity=".4" d="M200.5 72.7l-33 38.7-31.6-149h54z"/><path fill="#9b715b" d="M362.6 208.8l94.7-101.3L307-37.5h8z"/><path fill="#5d422f" d="M79 248.5l51.5 26.6-6 174.2 58.4-43z"/><path fill="#dacecc" fill-opacity=".8" d="M352.1 366.2l-47.2 83 15.8-123.7 185-42.4z"/><path fill="#5d5645" fill-opacity=".6" d="M500.1 255.8l-2.6-48 43.3-195.7 32.5 236.1z"/><path fill="#86634b" fill-opacity=".8" d="M341.5 207.3L285 244l-137.9-17.2-69.2-91z"/><path fill="#4b1601" fill-opacity=".4" d="M583.4 399.1L543 217.5l-4.1 172.2 17.9 42.6z"/></g></svg>