<svg xmlns="http://www.w3.org/2000/svg" viewBox="0 0 620 414"><defs/><filter id="a"><feGaussianBlur stdDeviation="30"/></filter><rect width="100%" height="100%" fill="#6b493c"/><g filter="url(#a)"><path fill="#050b0d" fill-opacity=".7" d="M515.1-37.5L657.5-3.6l-7 423-382.5 30z"/><path fill="#040a12" fill-opacity=".7" d="M-13.8 449.3L6.1-37.5l59.8 176 160.5 166.9z"/><path fill="#c3a195" fill-opacity=".7" d="M145.8 435.5l227.4-113.1-34.9-43.6-115.5-54.5z"/><path fill="#8b9280" fill-opacity=".8" d="M74.8 125.7l54.5-65.6L274 119l-49 157.7z"/><path fill="#faf8e5" fill-opacity=".5" d="M453.9-21l-10 107.7-114-49.9-24.5 74.1z"/><path fill="#262521" d="M259.4 178.5l252.1-2.2L380 40.4l67.8-78z"/><path fill="#1f1c15" d="M173.4-37.5L267.6 99l37 118.6 10.7-255.2z"/><path fill="#da9668" fill-opacity=".5" d="M456 158.6l179.5-25.4-65.6 75.8-36.8-41.6z"/><path fill="#211b18" d="M-34.6 25.4l117.7 99-2.7-19.5L175.4-1z"/><path fill="#ffb89d" fill-opacity=".5" d="M584.2 367.6l13.8-46-55 1 4.8 45.5z"/><path fill="#f9e6cc" fill-opacity=".4" d="M426 84.8L370 27l135.8 90-55 17.7z"/><path fill="#f2fcdd" fill-opacity=".8" d="M310 64l8 47 44.8-67.4-41.4 2z"/><path fill="#001f1b" fill-opacity=".3" d="M396.5 218.2l44 11.4-158.4 36.8-304.4-75.3z"/><path fill="#0c0e10" fill-opacity=".9" d="M451 445.9l206.5-274.7-381.9 204.4 12.6 73.7z"/><path fill="#250f00" fill-opacity=".4" d="M198.4 116.3l-27 26.6-19.3-59.6L471-37.5z"/></g></svg>