<svg xmlns="http://www.w3.org/2000/svg" viewBox="0 0 620 414"><defs/><filter id="a"><feGaussianBlur stdDeviation="30"/></filter><rect width="100%" height="100%" fill="#314b64"/><g filter="url(#a)"><path fill="#e5c090" fill-opacity=".5" d="M253.6-37.5l97.6 397L626.8 17.8l-147-55.4z"/><path fill="#00000a" fill-opacity=".8" d="M657.5 404.2l-651.4 45L-37.5-19l401.8 361.6z"/><path fill="#422a08" fill-opacity=".5" d="M445.9 430.1L385 114.6l272.4-18-27.8 339.8z"/><path fill="#001f48" fill-opacity=".9" d="M287.7 289L-37.5 22.2l280.2-59.8 56.2 164z"/><path fill="#633b21" fill-opacity=".6" d="M370.3 141l-126 11.6 103 296.7-12.1-149.7z"/><path fill="#020202" d="M464.3 331L535 449.4l122.5-76-178.5-79z"/><path fill="#cdc0ad" fill-opacity=".6" d="M371.8 42.9l254.5-16.3-397-57.6 113 178.7z"/><path fill="#7598a5" fill-opacity=".9" d="M447.8 196l-64.7 155-48.4-8.8 26-150.6z"/><path fill="#090000" fill-opacity=".9" d="M298.6 121.8l-45-117.2-11-10.4-6.5 455z"/><path fill="#6f6353" fill-opacity=".6" d="M419.5 291.8l36-159 168-123.7-23.7 258.4z"/><path fill="#ffe3c4" fill-opacity=".4" d="M470 103.7l24-141.2L541.9 76l115.7 39.8z"/><path fill="#3b1911" fill-opacity=".7" d="M416.6 128.4l7.7-108.5L451 162l-127.2 5.8z"/><path fill="#003c85" fill-opacity=".4" d="M242.2-28.3L224.8 276-32-31l200.8 20.1z"/><path fill="#fd6d4e" fill-opacity=".4" d="M264.7 209.5l14.8-46L389 22.5l-64.5 174.2z"/><path fill="#0c0a08" fill-opacity=".8" d="M612 154l45.5-12L407 101.6 622.4 116z"/></g></svg>