<svg xmlns="http://www.w3.org/2000/svg" viewBox="0 0 620 414"><defs/><filter id="prefix__a"><feGaussianBlur stdDeviation="30"/></filter><rect width="100%" height="100%" fill="#67493d"/><g filter="url(#prefix__a)"><path fill="#d6d8dc" fill-opacity=".6" d="M417.3 153.8l-178.7 9 43.3 286.5 130.8-216.8z"/><path fill="#102240" fill-opacity=".9" d="M246 91.3l-19.8 291.8L2.9 449.3-10.7-37.5z"/><path fill="#000a1e" fill-opacity=".8" d="M313.9 449.3l343.6-44.8-194.4-301.3-71.7 176z"/><path fill="#1b84e6" fill-opacity=".3" d="M657.5 236.9L577.4 298 311.7-37.5l342 51z"/><path fill="#459eff" fill-opacity=".4" d="M149.4-37.5l-161 85.2-26 169L157.8 59.4z"/><path fill="#030f19" fill-opacity=".6" d="M298.6 18.6l153.8 28.1L-4 330.8l-8-119.1z"/><path fill="#f7fef4" fill-opacity=".4" d="M390.6 167.4L271 156.2l-58.8 38.5-28.1 57.7z"/><path fill="#b4b8b2" fill-opacity=".6" d="M631.4 16.2L552.7-5.3l-87 22.7 146.6 84z"/><path fill="#7d8286" d="M159.1 449.3l131-144.9 40.7 9.2 20.9 135.7z"/><path fill="#011748" fill-opacity=".6" d="M572.3 449.3l85.2-223.1L382.7-29.3l257 154.8z"/><path fill="#0c0a10" fill-opacity=".6" d="M-37.5 364.5l254 84.8L87.2 192.8l243.9 137z"/><path fill="#1a1208" fill-opacity=".6" d="M385 211l147.3-8.3-48.2-88.6-22.2-6z"/><path fill="#4a6dac" fill-opacity=".5" d="M656.8 186.5l-14.5 76.3-202.7-28.6-28.6-19.9z"/><path fill="#a29690" fill-opacity=".6" d="M125.7 49.6l23-87.1 77.5 118 26.6-58.7z"/><path fill="#090a08" fill-opacity=".9" d="M362.6 107.3l-63 4.8 15.5 15.5 78 27z"/></g></svg>