<svg xmlns="http://www.w3.org/2000/svg" viewBox="0 0 620 414"><defs/><filter id="prefix__a"><feGaussianBlur stdDeviation="30"/></filter><rect width="100%" height="100%" fill="#444443"/><g filter="url(#prefix__a)"><path fill="#dcdcdc" fill-opacity=".7" d="M326 284l7.3-144.5 217.4-35.8-3.8 195.2z"/><path fill="#222223" fill-opacity=".7" d="M-37.5 392.1L402 308.3 415 115l61.5 320.2z"/><path fill="#bfbfbf" fill-opacity=".7" d="M344.4 343.7l-14.3 17 178.5 9.8 20.1-12z"/><path fill="#919192" fill-opacity=".5" d="M176.8 293.3L89.1 134.2 13.8 250.7 179.5 357z"/><path fill="#151515" d="M402 378.3l255.5-6.5-67.8 77.5-627.2-80.4z"/><path fill="#f5f5f5" fill-opacity=".4" d="M433 293.5l124-119.9 14.8 86.5-47 39z"/><path fill="#1d1d1e" fill-opacity=".6" d="M603 187.2l-71.2-6.8-10.1-27.8-305.2-189z"/><path fill="#fff" fill-opacity=".2" d="M277.5 302.7L207.3 264l-8.7-168.8 227.9 196.4z"/><path fill="#000001" fill-opacity=".3" d="M657.5 63.5l-544.4 100 21.6-201 521.1 26.8z"/><path fill="#212121" fill-opacity=".6" d="M486 350.7L482.5 236l163.8 120-173-140z"/><path fill="#1f1f1f" fill-opacity=".8" d="M331 168.6L223.4 387.3 114.6 170.7 240.3 306z"/><path fill="#202020" d="M-37 244.6l-.5 198.4L84 449.3 38.5 267.9z"/><path fill="#f9f9f9" fill-opacity=".3" d="M545.4 95.2l-32.2-1.7L377.6 232l115-13.3z"/><path fill="#3b3b3b" d="M367.9 56.7L379 330l57.4 62.2-65.1-87.4z"/><path fill="#fff" fill-opacity=".4" d="M367.4 148.2l2 156.5-38-63.7.4-117.5z"/></g></svg>