<svg xmlns="http://www.w3.org/2000/svg" viewBox="0 0 620 414"><defs/><filter id="a"><feGaussianBlur stdDeviation="30"/></filter><rect width="100%" height="100%" fill="#57352f"/><g filter="url(#a)"><path fill="#fafbf5" fill-opacity=".7" d="M-37.5 424.8l23-462.3H345l188 486.8z"/><path fill="#5e3b32" fill-opacity=".9" d="M181.6 408.8l71.5-295.5L296.9 257l-91 192.3z"/><path fill="#b59b8f" fill-opacity=".8" d="M281.2 449.3l376.3-44.4-218.4-184.8-65.2-257.6z"/><path fill="#000200" fill-opacity=".5" d="M504.5-37.5H642l4.2 253.5-292.8-17.2z"/><path fill="#edf2f1" fill-opacity=".8" d="M122.5 448l107-155.2L27-37.5l-64.4 458.4z"/><path fill="#704029" fill-opacity=".6" d="M276.6 215L208 114.9l-56.9 84 131 84.3z"/><path fill="#eff5f6" fill-opacity=".6" d="M336.2 76.3L411-.5 57.4-33.2l-33.7 220z"/><path fill="#f3f9f1" fill-opacity=".6" d="M388.2 319.2l69.3-18.2-36.3-99.5-72-1z"/><path fill="#b8b4b2" fill-opacity=".7" d="M572.3 449.3l84.3-107.8-69-89.4 70-50.4z"/><path fill="#6f483c" fill-opacity=".6" d="M487 341.7L393 123l-6.2-160.5 145 327.6z"/><path fill="#441f15" fill-opacity=".6" d="M223 449.3l-69-53 199 34.2-9.7-66.8z"/><path fill="#fafaf5" fill-opacity=".7" d="M227.7 413.9l75.8-34.1 48-48-69.4-39.7z"/><path fill="#0d0500" fill-opacity=".6" d="M318.5 195.7l27.1 42.1 14.8-14.5-29.3-28.6z"/><path fill="#e8f0ef" fill-opacity=".6" d="M263.3 52.3l27.3 225L331.3 148l-8-140.7z"/><path fill="#000908" fill-opacity=".4" d="M477.4 325.7l130.5-97.6L657.5 24l-124-61.5z"/></g></svg>