<svg xmlns="http://www.w3.org/2000/svg" viewBox="0 0 620 414"><defs/><filter id="a"><feGaussianBlur stdDeviation="30"/></filter><rect width="100%" height="100%" fill="#494843"/><g filter="url(#a)"><path fill="#d5c5af" fill-opacity=".9" d="M657.5.7l-23.2 411L-14 449.3-28-37.5z"/><path fill="#aa8a59" fill-opacity=".9" d="M176.8 235l-19.6 214.3L657.5 300V87.4z"/><path fill="#e9eefb" fill-opacity=".6" d="M148.7 218.7L657.5 7.5l-695-45L9.2 449.3z"/><path fill="#f2f9fa" fill-opacity=".7" d="M405.4 360.1L570 352l20.8 82.6-187.2 14.8z"/><path fill="#356170" fill-opacity=".8" d="M364.3 366.4l-64.2 2-6 80.9 75-24.3z"/><path fill="#ffa51e" fill-opacity=".4" d="M657.5 373L530.1 162.3l24 147.5-181.9 29.7z"/><path fill="#ddded2" fill-opacity=".7" d="M-32.7 449.3L27.6 220l202 229.2 19.9-85.8z"/><path fill="#99672a" fill-opacity=".6" d="M319.7 303.2l-166.6-14 255-94-11 248.2z"/><path fill="#aaafb1" fill-opacity=".4" d="M386 48.4L656.6 116l-256.3 88.6L27.1 278z"/><path fill="#e5e8fb" fill-opacity=".5" d="M436.4 214.8L416.1 227l6.8 74.6 19-1.4z"/><path fill="#c9c1a8" fill-opacity=".7" d="M304.7 313.4L291 449.3 264.5 403 295 286.7z"/><path fill="#c89140" fill-opacity=".9" d="M517 317.8l-188 48.1-158.4 4.4 1.5-16z"/><path fill="#916634" fill-opacity=".6" d="M175.1 293l162.5-115.5-135.4 149L162 449.3z"/><path fill="#86705f" d="M449 159.8l-16-16-24.4 12.2 24 19.3z"/><path fill="#e6e4e7" fill-opacity=".8" d="M-37.5 235.4l181.4-36.8L248.7-37.5-37.5 68.3z"/></g></svg>