<svg xmlns="http://www.w3.org/2000/svg" viewBox="0 0 620 414"><defs/><filter id="prefix__a"><feGaussianBlur stdDeviation="30"/></filter><rect width="100%" height="100%" fill="#60453a"/><g filter="url(#prefix__a)"><path fill="#a6a39a" fill-opacity=".9" d="M138-.5L657.5-4v453.4l-695-13.4z"/><path fill="#6a492a" fill-opacity=".8" d="M15 291.6l329.4 6.8-75.8-220.9-284.3 35.6z"/><path fill="#b0b4b4" fill-opacity=".8" d="M-37.5-37.5L-4.1 85l346.8-7.7 133.2-52.4z"/><path fill="#b5b3b0" d="M566.5 291.4l91 111.8-566.4 46-128.6-144.5z"/><path fill="#9d9887" d="M116 170.3L14.8 214.6l-.3 34.1 174.9-11.4z"/><path fill="#dadcd8" fill-opacity=".6" d="M308.5 104.6L287.7 143l7 116.2L432.3 70z"/><path fill="#5b1d00" fill-opacity=".5" d="M50.9 200.5L-32.7 67.1l180.2 41.2L482 46.7z"/><path fill="#071627" fill-opacity=".6" d="M174.4 285l-205.6 22L79 251.4l-19.4-52.6z"/><path fill="#0a170e" fill-opacity=".6" d="M617 277l-24.1-2.4-7-53.7 12.8-43.4z"/><path fill="#723a0b" fill-opacity=".8" d="M307.6 105.1L236.9 71 71.4 135 187 222.6z"/><path fill="#afa89a" d="M239 187.2l9.5 259-28.1-262.4 27.6 12.9z"/><path fill="#bebebd" d="M657.5 287.2l-63-12.8-183.5 3.1-312.7 65.2z"/><path fill="#cedadb" fill-opacity=".5" d="M607 130l-100.8-23.4L571 14.8l86.4 69.5z"/><path fill="#cdcdd1" fill-opacity=".6" d="M159.6 284.3l35.1-23.5-1.2 81.2-231-25.2z"/><path fill="#160300" fill-opacity=".7" d="M128.4 133.4L115 91.1l-142 4.6-1.2 25.2z"/></g></svg>