<svg xmlns="http://www.w3.org/2000/svg" viewBox="0 0 620 929"><defs/><filter id="prefix__a"><feGaussianBlur stdDeviation="30"/></filter><rect width="100%" height="100%" fill="#4f413b"/><g filter="url(#prefix__a)"><path fill="#c4c0ba" fill-opacity=".9" d="M624.2 4L-56.2-24l4.3 949.4 728.7 47.1z"/><path fill="#865425" fill-opacity=".4" d="M335.3 499L469 483l-76.3-358.9-140.4 86.7z"/><path fill="#837c6a" fill-opacity=".6" d="M36 279.4l51.8 14.2 21.8 388.6-74-49z"/><path fill="#f7faf9" fill-opacity=".3" d="M430.4 985.2L676.8 675 335.7 145.5l146.6 190.9z"/><path fill="#f1ecff" fill-opacity=".3" d="M78.7 344.7l332.5 467.4-128.9-487.7-99.8-92.9z"/><path fill="#302305" fill-opacity=".2" d="M199.6 570.8l-255.8 19.6 301.9 127L274 480.8z"/><path fill="#b6a28e" fill-opacity=".7" d="M631.8 275.4l-87.5 42.1L162.6 138l208-51.5z"/><path fill="#c5c4b9" fill-opacity=".6" d="M246.4 732.7l-227.9-187 22.1-112 30.9 109.2z"/><path fill="#fff6db" fill-opacity=".4" d="M509.9 497.5L394 326.2l21.4 118.3 109.2-87z"/><path fill="#302514" fill-opacity=".2" d="M69.7 425.7l103.4 5-126 170.6 52 81z"/><path fill="#d9d4d3" d="M258.4 710.9l137.5-11.2L373.4 557 352 515.3z"/><path fill="#d4e0f9" fill-opacity=".3" d="M676.8 45.7v168.4L399.5 96.5 294.3-13z"/><path fill="#51554b" fill-opacity=".5" d="M237.3 505.9l-16.3 66 7.6 78 30.9 61.7z"/><path fill="#c2c4c3" fill-opacity=".7" d="M-56.2 849.2V726.5l407.1-1.8 163.3 260.5z"/><path fill="#75756f" fill-opacity=".4" d="M287 141.5L327.3 540l78.8-126.7-190.2-157.5z"/></g></svg>