<svg xmlns="http://www.w3.org/2000/svg" viewBox="0 0 620 414"><defs/><filter id="prefix__a"><feGaussianBlur stdDeviation="30"/></filter><rect width="100%" height="100%" fill="#5b2c2b"/><g filter="url(#prefix__a)"><path fill="#b09892" fill-opacity=".6" d="M96.1-37.5L505-27 135.6 449.3l-173.1-93.5z"/><path fill="#2a160e" fill-opacity=".7" d="M119.4 213.4l16-142 121.6-28-82.4 174.8z"/><path fill="#fffbe1" fill-opacity=".3" d="M-3.6 161.3L86 107.5 228.4 352l-119.9 97.4z"/><path fill="#724a42" d="M179.7 232L554.1 95l-131 167.3-188.4 139.2z"/><path fill="#653039" d="M494.8 73.6L408.3 7.8 292.8 31.1l-4.4 65.4z"/><path fill="#000002" fill-opacity=".6" d="M294.7 297.9l-12 151.4 374.8-69.5-252.8-22.6z"/><path fill="#e0f8ed" fill-opacity=".3" d="M405.4 405l27.4-36.9 21.5-87.4-65.8 31.5z"/><path fill="#ebf5fc" fill-opacity=".4" d="M285.5 21.3L202 177l10.9 29.3 58.8-44.5z"/><path fill="#fdd7c4" fill-opacity=".4" d="M462 70.5l74.2 79.2-11.9 42.4-92.2-137.4z"/><path fill="#2f2521" d="M93.2 69.8l-10.1-71-85.8 1 .8 105.8z"/><path fill="#b5d5d4" fill-opacity=".3" d="M328.4 208.5l109.7-2.2 3.6-52.3-133.9-71.9z"/><path fill="#ffe1c9" fill-opacity=".4" d="M585.4 52.6l-55-90.1 1.4 49.6 37.3 68.5z"/><path fill="#271411" fill-opacity=".8" d="M522.2 443l91.5-315.4L445.4-37.5 553.6 145z"/><path fill="#8f6251" d="M38.8 434l41.4-134-117.7-131.2 9.2 280.5z"/><path fill="#bf9d95" fill-opacity=".9" d="M132 150.4L79.2-13.1l69.5 9.2L-37.5 279z"/></g></svg>