<svg xmlns="http://www.w3.org/2000/svg" viewBox="0 0 620 414"><defs/><filter id="prefix__a"><feGaussianBlur stdDeviation="30"/></filter><rect width="100%" height="100%" fill="#5f372e"/><g filter="url(#prefix__a)"><path fill="#b29986" fill-opacity=".6" d="M-37.5 287.5L572.8 252 310.5-37.5 23.7 11z"/><path fill="#c8b9a7" fill-opacity=".6" d="M375 386.8L18 371l368 78.3 58.9-48.5z"/><path fill="#090a15" fill-opacity=".9" d="M603.8 92.3l40.9 123-60.5 162.3L470.8 356z"/><path fill="#fefdf5" fill-opacity=".4" d="M507.4 176l95-176.7-30.1 107.3L512 288z"/><path fill="#d6c3b4" fill-opacity=".4" d="M21.3 59.8l22.5 209L224.3-37.5 26.4 24.9z"/><path fill="#02040b" fill-opacity=".7" d="M458.5 237.1L484 359.6l-98.3-19.8-108 58.4z"/><path fill="#ffe1c3" fill-opacity=".4" d="M443 141.7L400.8 5.8l-8.7 68.8 38 206.3z"/><path fill="#71574b" fill-opacity=".7" d="M137.3 170.3l234.5 24.2L306 386.8l-343.6 43.6z"/><path fill="#3e2e27" d="M460.9 176.8l88.4-48.7L437.3 19l7.4 266.9z"/><path fill="#eddace" fill-opacity=".4" d="M159.4 152.3L272.9 177l43 163.5 6.2-192.3z"/><path fill="#fccfb2" fill-opacity=".4" d="M560.4 123.5l30.8-38.2-14-50.7L511.6 59z"/><path fill="#f2fff4" fill-opacity=".4" d="M352.6 372.2L496 442.7l122-46-286.7 31z"/><path fill="#390a00" fill-opacity=".3" d="M273.7-37.5L172 164.5l214.3-89-38.8 270.1z"/><path fill="#bda1a0" fill-opacity=".8" d="M372.7 146l41 60.3-24.3 66.9-40.9-118.4z"/><path fill="#200006" fill-opacity=".4" d="M-34.1 118l37 210.2L6.5 240l51.9-64z"/></g></svg>