<svg xmlns="http://www.w3.org/2000/svg" viewBox="0 0 620 414"><defs/><filter id="prefix__a"><feGaussianBlur stdDeviation="30"/></filter><rect width="100%" height="100%" fill="#2f4353"/><g filter="url(#prefix__a)"><path fill="#f8c09a" fill-opacity=".7" d="M560.7 187l-59.1-13.1L569.9-10l60.8 154z"/><path fill="#220b00" fill-opacity=".7" d="M47 1.5L27.4 422l630.1-3.6-225.7-456z"/><path fill="#dfac7d" fill-opacity=".7" d="M283.6 41.9l-11.9 94.7-40.7 62.2-21-236.3z"/><path fill="#e9a976" fill-opacity=".6" d="M350 89.9L345.4 237l86-74.6-52.4-76z"/><path fill="#acccda" fill-opacity=".8" d="M25.7 449.3l-53.3-8.3L13 133.2l2.6 147z"/><path fill="#eba966" fill-opacity=".6" d="M312.7 253.3l-12.9 31.3-87-71.2-13.2-22.3z"/><path fill="#180e08" fill-opacity=".7" d="M565.8 119L498.6-37.6H374.2L263 18.6z"/><path fill="#c7b2a3" fill-opacity=".6" d="M483 173.9l68.7 6.8 44.6 39.7-73-115.5z"/><path fill="#000002" fill-opacity=".6" d="M618.8 449.3L657.5 21l-63 165.9L46 347z"/><path fill="#51868d" fill-opacity=".7" d="M48.7 206.3l-86.2 5.1 30.2-110.2 43.6-13.5z"/><path fill="#14100c" fill-opacity=".7" d="M-37.5 83.3V-37.5L120.6-18l118.7 140z"/><path fill="#f4c19d" fill-opacity=".4" d="M277 39l-6 73.1-66.4 116.5 42.4-152z"/><path fill="#190f08" fill-opacity=".9" d="M567.2-23.3l51.3 128.4-5 30.8 44-117.7z"/><path fill="#facea7" fill-opacity=".4" d="M537.9 52l86.5 118.5-58.9-189.9-60.3 81z"/><path fill="#1c130f" d="M24 384.8l-8-174.1 144.8-34.6 220 244.6z"/></g></svg>