<svg xmlns="http://www.w3.org/2000/svg" viewBox="0 0 620 929"><defs/><filter id="a"><feGaussianBlur stdDeviation="30"/></filter><rect width="100%" height="100%" fill="#313848"/><g filter="url(#a)"><path fill="#9da9b7" fill-opacity=".8" d="M676.8 13.8l-670-70-63 996.8L662.6 929z"/><path fill="#212022" d="M172 660.1l272.2 89.6-93.3-590.4-167.6 201.4z"/><path fill="#e5eeff" fill-opacity=".7" d="M4.4 544L377 800.9l42.5 184.3H-21z"/><path fill="#dfedfb" fill-opacity=".7" d="M676.8 714.2l-93-193.5h-149l21.4 292.5z"/><path fill="#2f3945" d="M417 254.4L271.4 383.9l179 272.6L409 437.6z"/><path fill="#000207" fill-opacity=".8" d="M416.2 628.5L210.8 294.7 397.4 746l76.5 119z"/><path fill="#a4b3ce" fill-opacity=".8" d="M369 668.4l38.5 126.7 125.6 190.1-276.2-258z"/><path fill="#9dbbd6" fill-opacity=".7" d="M332.8-56.2l234.8 462-249-236.3-374.8 279.4z"/><path fill="#d8e3f0" fill-opacity=".8" d="M176 572l-14.9 76-217.3-74.4L189 549.4z"/><path fill="#030000" fill-opacity=".4" d="M460.9 645.6L132.5 370l56.2 333 156.4-13.4z"/><path fill="#abb9c8" fill-opacity=".4" d="M207.2 477.6l9-94.4-23.9-439.4-248.5 381z"/><path fill="#674038" d="M350.2 267.5l-129.6 4.3 58.5-78 32.3-21.4z"/><path fill="#dadee9" fill-opacity=".8" d="M222 601.7l-2.5 213-275.7-96.2 254-3.6z"/><path fill="#f6fcff" fill-opacity=".2" d="M422.8 238.8l.3 327-109.6-131.4 363.3-146.6z"/><path fill="#000203" fill-opacity=".5" d="M172.7 338.2l151 81 84.2-26.6 24-110z"/></g></svg>