<svg xmlns="http://www.w3.org/2000/svg" viewBox="0 0 620 414"><defs/><filter id="a"><feGaussianBlur stdDeviation="30"/></filter><rect width="100%" height="100%" fill="#434444"/><g filter="url(#a)"><path fill="#fff" fill-opacity=".7" d="M28.8 411L-1.7-11.4l659.2-26.1v486.8z"/><path fill-opacity=".4" d="M222.3 152.8L86-37.5 130.5 278l213.6-74.3z"/><path fill="#eee" fill-opacity=".7" d="M657.5 289L193.3 131.2l18.1-56.5 438.1-47z"/><path fill-opacity=".4" d="M268.8 449.3l-16-219-54.2-44.5 96.4-8.5z"/><path fill="#070707" fill-opacity=".6" d="M440.8 35.6l187.2-21-12.4 15.7L92.8 79z"/><path fill="#8e8e8e" fill-opacity=".9" d="M11.9 201.5l-49.4 202.7L58 439.6 5.3 48.6z"/><path fill="#383838" fill-opacity=".7" d="M414.6 305.4l243 48-144-38-251.8-50z"/><path fill="#878787" fill-opacity=".8" d="M167.8 449.3l49.4-210L174-37.5h-70.7z"/><path fill="#fdfdfd" fill-opacity=".7" d="M176-37.5l21 94.2 72-2.2L641.7 9z"/><path fill="#f1f1f1" fill-opacity=".5" d="M-21-22l99 385.8 67.8 5.5L86.9.3z"/><path fill="#fff" fill-opacity=".5" d="M657.5 345.1L198.8 211l-6-20 23.2 62z"/><path fill="#1b1b1b" fill-opacity=".3" d="M255 149.4l86 25.7-46.3 58.6L178.2 216z"/><path fill="#e4e4e4" fill-opacity=".7" d="M391.6 449.3l190.9-107.8-226-51.4-62 13.1z"/><path fill="#030303" fill-opacity=".4" d="M113.3 157.7l-21-195.2L153 256l-9.5 70z"/><path fill="#f1f1f1" fill-opacity=".7" d="M249 67.3l355.5 10.4-409 43 7.5 87.8z"/></g></svg>