<svg xmlns="http://www.w3.org/2000/svg" viewBox="0 0 620 414"><defs/><filter id="prefix__a"><feGaussianBlur stdDeviation="30"/></filter><rect width="100%" height="100%" fill="#735838"/><g filter="url(#prefix__a)"><path fill="#bec3d0" fill-opacity=".5" d="M578.6 374.2L22 295.5-20.8-17.7l525 200.6z"/><path fill="#c2ebff" fill-opacity=".3" d="M129.6-9.7L375 75.6l-48.6 373.7 331-420.5z"/><path fill="#2b0300" fill-opacity=".5" d="M377.8 122.5l-266.4 103L185.8 89l166.8-45.3z"/><path fill="#8b7f70" d="M232.3 449.3h-128L-1 278.8l190.6-67.4z"/><path fill="#f2f6ff" fill-opacity=".6" d="M396.2 331.8l19-164-45.6-25.2-93 116z"/><path fill="#01030a" fill-opacity=".9" d="M589.7 446.4l3.9-205.7 64-53.2v261.8z"/><path fill="#d3f0e9" fill-opacity=".6" d="M424.6 449.3l-113.4-72.7-38.5 32.5-254-16z"/><path fill="#a77461" d="M315.8 130.8L225.5 114l2.4 89.6 118.4 22.7z"/><path fill="#424d38" fill-opacity=".7" d="M509.8 449.3l-42.6-200.8L389 449.3l-86.5-160.9z"/><path fill="#aed0d3" fill-opacity=".4" d="M325.3 52L98.6 54.8 135 364.5 25.4-37.5z"/><path fill="#75726b" d="M492.4 197.9l124.2 18.9L411.7 24.7 612-37.5z"/><path fill="#0f0000" fill-opacity=".5" d="M390.2 150.4l-74.6-188 16 116.6-157.2 6.7z"/><path fill="#e0e4eb" fill-opacity=".7" d="M54.5 349.2L71 332.8l55.2 116.5-35.6-6.6z"/><path fill="#7b7e7f" fill-opacity=".9" d="M576.9 277.8l-80.2 45-18.4 40.2L586 449.3z"/><path fill="#d3e9fc" fill-opacity=".5" d="M657.5 98.3L566 59l62.7 100.7-40-129z"/></g></svg>