<svg xmlns="http://www.w3.org/2000/svg" viewBox="0 0 620 414"><defs/><filter id="prefix__a"><feGaussianBlur stdDeviation="30"/></filter><rect width="100%" height="100%" fill="#4b4236"/><g filter="url(#prefix__a)"><path fill="#cbc4bd" fill-opacity=".7" d="M204.4 147.7l177.8 147L7.2 418l-19-194.7z"/><path fill="#100500" fill-opacity=".9" d="M638-37.5H522.3L348.5 442.7l307.6-24z"/><path fill="#d0d9cb" fill-opacity=".6" d="M145.8-37.5h-171l8.7 79.4 132.3-10.7z"/><path fill="#251d10" fill-opacity=".8" d="M300.8 244.6l-75.6-137.8L455.3-30.5l28.8 168z"/><path fill="#f3fbff" fill-opacity=".3" d="M150.6 449.3L244 315l-68-154.3-97.7 94z"/><path fill="#291c14" fill-opacity=".3" d="M158.6 248.5l-185.2 140 341.2-78.7-284 109z"/><path fill="#fcfff2" fill-opacity=".2" d="M351.4 245.6l161.6-124-157.7 221.3-104-76.3z"/><path fill="#1e190e" fill-opacity=".8" d="M124.5 43.8l-162 82.9 192.7 28.8 26.2-40z"/><path fill="#120300" fill-opacity=".5" d="M250 369.6l26.8-67.8 380.7 123-435.9 24.5z"/><path fill="#747366" fill-opacity=".7" d="M120.9 204l66.6-54.3-225 28.3v95.4z"/><path fill="#261706" fill-opacity=".7" d="M260.1 294l-29.5-34.6 427-265.2L263 253.8z"/><path fill="#696052" fill-opacity=".9" d="M245 176.8L144.7 58.1 271.5 42 179 187.2z"/><path fill="#fff" fill-opacity=".5" d="M117 217.2L22 333.7l142.2-100.2-2.2-36.1z"/><path fill="#4e2311" fill-opacity=".4" d="M68.3 345.4L17 387.5l-33.7-14.8 171.5-86z"/><path fill="#818380" fill-opacity=".6" d="M227.4 429.9l-148 12.3 35.4-96.4 58.6-19.6z"/></g></svg>