<svg xmlns="http://www.w3.org/2000/svg" viewBox="0 0 620 414"><defs/><filter id="prefix__a"><feGaussianBlur stdDeviation="30"/></filter><rect width="100%" height="100%" fill="#584f37"/><g filter="url(#prefix__a)"><path fill="#f4fbfa" fill-opacity=".9" d="M619.3 416l-137.6-71.9L331.8-33.2l325.7-4.3z"/><path fill="#dfdccf" fill-opacity=".8" d="M194.2 393.3L221.6 48l144.3-85.5-59.3 311.9z"/><path fill="#1e130c" fill-opacity=".9" d="M358.7 449.3L426.3 167 393 90.3l-90.4 39.5z"/><path fill="#ecece6" d="M218.7 335.7l97.8-57.4 20.6-49.2-77.7-84.3z"/><path fill="#0e0b0a" d="M386 256.2l197.4 190.2-347.8-24.5 9-96.6z"/><path fill="#eaefee" fill-opacity=".9" d="M476.6 357.5L621-37.5 403.7 259.6 554 350.4z"/><path fill="#e8e9e1" fill-opacity=".9" d="M205.6 449.3L324-37.5l76.8 134.1-78.7 2.5z"/><path fill="#271200" fill-opacity=".4" d="M16.5-37.5l202.2 307L232.5 158 158.1-37.5z"/><path fill="#402308" d="M29.5 449.3l7.8-333 75 333-149.8-113.4z"/><path fill="#aea99d" fill-opacity=".6" d="M237.8 408.6l-8.2-240-51.4 79.2L200 449.3z"/><path fill="#dcac7a" fill-opacity=".3" d="M110.2 419.2l-38.5-149 13-184L149 310.5z"/><path fill="#1c0901" fill-opacity=".6" d="M228.9 151.6l-3.7-8.7-34.8-18.9L63 390.4z"/><path fill="#bdb088" fill-opacity=".6" d="M318-37.5L211.4 34.6l-9.2 95.5 57.2 16z"/><path fill="#210b02" fill-opacity=".6" d="M429.4 241l-.7-97.1-105.9-35.6-15.2 86z"/><path fill="#1d1b1d" fill-opacity=".9" d="M499.1 405l-37.5-113.2-99.3-34.6-61 24z"/></g></svg>