<svg xmlns="http://www.w3.org/2000/svg" viewBox="0 0 620 414"><defs/><filter id="prefix__a"><feGaussianBlur stdDeviation="30"/></filter><rect width="100%" height="100%" fill="#58322f"/><g filter="url(#prefix__a)"><path fill="#9bada6" fill-opacity=".6" d="M-37.5 6l571.8-43.5 3.6 222-563 75.1z"/><path fill="#ebedea" fill-opacity=".6" d="M494.8 14.5l8.7 87-282.1 11.1-19.7-50.4z"/><path fill="#58595a" d="M520.5 415.6L477.8 97.8l-255.5 31 204.4 320.5z"/><path fill="#d1dddb" fill-opacity=".7" d="M243 235.6l-23.3 9.3 6.5 202.7 23.5 1.7z"/><path fill="#070e12" fill-opacity=".9" d="M628 436.2l29.5-316.6L523 220.4l-2.7 228.9z"/><path fill="#001118" fill-opacity=".7" d="M95.7 275.9L51.3 449.3 198.6 434l-16.2-247.3z"/><path fill="#2a2727" fill-opacity=".9" d="M232.7 131.3l208.6-21.8-234.5 111.4 64.2 43.8z"/><path fill="#acaaac" fill-opacity=".5" d="M400 449.3L393.4 208l-204-32.7 256.3-29.7z"/><path fill="#463c25" fill-opacity=".5" d="M213.6 49.2L203 326.7 99.3 39.5l469.4-63z"/><path fill="#b0b7b3" fill-opacity=".4" d="M19.9 339.5l122.5-136.3-39.2-128.8-140.7 24z"/><path fill="#20292f" fill-opacity=".7" d="M376.6 384.4l13.6-144-146.3 6.9 10.2 202z"/><path fill="#030000" fill-opacity=".3" d="M479.5 155.5l-2.4-43.1L361 72.2l-122.1 76.5z"/><path fill="#8f9996" fill-opacity=".8" d="M522.2 262.8l-4.4 57.9-135.4 3.3 36.8 74.4z"/><path fill="#e3e2e3" fill-opacity=".6" d="M210.2 57.4l11.4 154 19.1-79 65.4-62.9z"/><path fill="#171612" fill-opacity=".7" d="M467 331.6l-50.2-22 146.8-62.3-101.5-50z"/></g></svg>