<svg xmlns="http://www.w3.org/2000/svg" viewBox="0 0 620 414"><defs/><filter id="prefix__a"><feGaussianBlur stdDeviation="30"/></filter><rect width="100%" height="100%" fill="#3e2f26"/><g filter="url(#prefix__a)"><path fill="#bec5c4" fill-opacity=".8" d="M657.5-37.5v320.4l-663.8 74-9-368z"/><path fill="#322c22" fill-opacity=".9" d="M265.7 360.1l186.2 64.7L482.7-.5 260.8 205z"/><path fill="#ecffff" fill-opacity=".6" d="M488.5-37.5l4.4 390.6L625.3 421l32.2-434z"/><path fill="#f3fbfe" fill-opacity=".9" d="M142.4 202L276-30-37.5 7.7l44 322.4z"/><path fill="#9cabaf" fill-opacity=".9" d="M6.8 301l95.2 6 14.7 105.2-143.3 37z"/><path fill="#fcfffd" fill-opacity=".6" d="M328.6 260.8L187 17.4l113.8-55 34.1 256z"/><path fill="#241502" fill-opacity=".7" d="M381.7 72.4l-17.2-25.7-50.6-13.5 43.8 194.5z"/><path fill-opacity=".4" d="M223.8 85.3l180 364-225-339.3 4-22.3z"/><path fill="#000006" fill-opacity=".3" d="M216.8 449.3l-136-153.1 58.5-91.6L324 295.2z"/><path fill="#bcc2bf" d="M381.7 129l-1-59L415 49.6l8.2 67.6z"/><path fill="#625e4e" fill-opacity=".7" d="M635 359.4l-137.5-32.7-256.3 56.4 215.6-136.3z"/><path fill="#000005" fill-opacity=".8" d="M303.2 333l9.2-157.4-52.3 5 15 178.3z"/><path fill="#f6fcfd" fill-opacity=".6" d="M263.7 188.2L-37.5 46.5l240.7 171 136.6-255z"/><path fill="#020404" d="M460 122.8l-77.1 5.3 6.8 76.3 65.6 13z"/><path fill="#000006" fill-opacity=".8" d="M257.2 362l35.8 87.3H122.8l-5.1-130.8z"/></g></svg>