<svg xmlns="http://www.w3.org/2000/svg" viewBox="0 0 620 414"><defs/><filter id="prefix__a"><feGaussianBlur stdDeviation="30"/></filter><rect width="100%" height="100%" fill="#54442c"/><g filter="url(#prefix__a)"><path fill="#889299" fill-opacity=".8" d="M657.5-10.4l-82.8 459.7-209.2-241.7L-37.5 3z"/><path fill="#868e93" fill-opacity=".9" d="M294 393.6l32.7-162.3L105 292.8 61.5 422.4z"/><path fill="#8aafd5" fill-opacity=".4" d="M8.2 359L-37.5 63.4l170-101L254.3 61z"/><path fill="#3b311e" fill-opacity=".7" d="M528 125.5L386.8 447.3 287 130.5l70.7 55.7z"/><path fill="#aab3bd" fill-opacity=".9" d="M505.2 449.3l-68.3-139 37.5-33.5 76.8 166z"/><path fill="#c4deee" fill-opacity=".8" d="M60 182.9L10.8 162l-48.2 70.7 90-11.8z"/><path fill="#000a37" fill-opacity=".9" d="M127.6 208L-37.5 419.7v19.1l104.8-31.7z"/><path fill="#353a3a" fill-opacity=".4" d="M230 413.4l-37.7 8.5-60.3-336 165.4 20z"/><path fill="#ebf5fd" fill-opacity=".5" d="M295 320.2l-35.1 90-24.7-13.5L278 229.1z"/><path fill="#b3ac9e" d="M617.3 295.5l40.2 33.1V113.8l-86.2 37z"/><path fill="#060909" fill-opacity=".8" d="M279.2 410.8L419 344l-9-87.4 57.4 154.5z"/><path fill="#012c77" fill-opacity=".5" d="M509.6 376.4l148 6.7-101.3-92.5-6.8-100.5z"/><path fill="#d4d6d5" fill-opacity=".5" d="M400.8 169.3L635 83l-2.4-31.5L423 134.2z"/><path fill="#a0acb6" fill-opacity=".7" d="M521.2-19.9L370.3 89l-142.2-5.6L361.6-37.5z"/><path fill="#090800" fill-opacity=".5" d="M260.6-22.8l20.6 58.2-50.6 8.4-42-81.3z"/></g></svg>