<svg xmlns="http://www.w3.org/2000/svg" viewBox="0 0 620 929"><defs/><filter id="prefix__a"><feGaussianBlur stdDeviation="30"/></filter><rect width="100%" height="100%" fill="#2f4055"/><g filter="url(#prefix__a)"><path fill="#c3bcb6" fill-opacity=".8" d="M120.5 542.9l101.2 423.8 455-33.3L609-56.2z"/><path fill="#7d7a7b" d="M551.6-56.2L132.5 608.6 61.7-56.2l348 639.4z"/><path fill="#cbdee4" d="M568.6 310L476.8-21l200 50-101.3 601z"/><path fill="#474432" fill-opacity=".8" d="M277.2 584.6L85 985.2l231.2-255-372.3-176z"/><path fill="#380c00" fill-opacity=".5" d="M327.7-56.2L207.9 192.7l342.2 106.7-17-191.6z"/><path fill="#6c94b2" fill-opacity=".8" d="M227.2 127.4l52.2-183.6L74.8 87.5 130.3 528z"/><path fill="#f7f8ff" fill-opacity=".6" d="M343 843.7l288.4-125.2 12.4 266.7-254-20.3z"/><path fill="#4a1901" fill-opacity=".6" d="M417.3 489.5L294.7 388.7 418.4 352l75.5-45z"/><path fill="#ffc099" fill-opacity=".6" d="M423.5 353l-140.8-82 131-52.9 84.5 39.2z"/><path fill="#bbcde2" fill-opacity=".9" d="M524 730.5L507.3 495 445 455.8l-82 213z"/><path fill="#030401" fill-opacity=".7" d="M63.5 70.8L1.1-56.2l77.6 647.7 25-156.4z"/><path fill="#633309" fill-opacity=".4" d="M181.4 863L158 939.2l-214.1 23.5L-27.6 8.3z"/><path fill="#2d1200" fill-opacity=".5" d="M256.2 423.1l29-13.4 194.9-466-257.6 122z"/><path fill="#143650" fill-opacity=".7" d="M159 429.3l7.6-485.5L199.2 331 114.3-55.5z"/><path fill="#d2bbc5" fill-opacity=".4" d="M243.5 985.2L74 784.2l277-148.8-219 169.1z"/></g></svg>