<svg xmlns="http://www.w3.org/2000/svg" viewBox="0 0 620 414"><defs/><filter id="prefix__a"><feGaussianBlur stdDeviation="30"/></filter><rect width="100%" height="100%" fill="#593e33"/><g filter="url(#prefix__a)"><path fill="#b7b8b0" fill-opacity=".8" d="M5.3-37.5L-25.2 270l635.3-3.8L657.5 9.7z"/><path fill="#0a0400" fill-opacity=".6" d="M167.6 449.3L291 245l-171.7-46.5-95 173z"/><path fill="#dddfcf" fill-opacity=".4" d="M381.7 56.2l169 282.6-196.1-15.5L245 106.6z"/><path fill="#dce0de" fill-opacity=".5" d="M44.3 347.8L175-37.5 32.7-4.4-6.1 286.7z"/><path fill="#121110" fill-opacity=".9" d="M256 350.2l211.2 36.3 136.6 62.8L657.5 332z"/><path fill="#0a0402" fill-opacity=".8" d="M7 193.5l-44.5-14 17-36.6 76.7 17z"/><path fill="#676a63" fill-opacity=".6" d="M485.1 12.4l38.3 290.8-153.1-103.6 287.2-80z"/><path fill="#a2a286" fill-opacity=".5" d="M303.2 449.3l-211.9-256 203.4 174.6 333 65.1z"/><path fill="#0c1019" fill-opacity=".6" d="M207 168.6l51 16.7-17-115-10.7 86.9z"/><path fill="#86602b" fill-opacity=".5" d="M75.3 219.7l123.3 124.7L344 294.5l-17.4-99z"/><path fill="#83614d" fill-opacity=".7" d="M122.5 242.2l82.1-177.5 142-4-248.8 74z"/><path fill="#e9e4dc" fill-opacity=".7" d="M339.5 205.1l104.7-32.7-77.8-72.4-140.7 89.4z"/><path fill-opacity=".3" d="M25 260.4l-1-29.8L184.8 290 221 449.3z"/><path fill="#b0c8d5" fill-opacity=".8" d="M519.7 241.5l137.8-6.8-43.3-104.4L505 169z"/><path fill="#acd3ff" fill-opacity=".4" d="M540.3 289.9l-66.3-7.8 4.8 57.2 11.6 40.5z"/></g></svg>