<svg xmlns="http://www.w3.org/2000/svg" viewBox="0 0 620 414"><defs/><filter id="prefix__a"><feGaussianBlur stdDeviation="30"/></filter><rect width="100%" height="100%" fill="#523829"/><g filter="url(#prefix__a)"><path fill="#d3f1fb" fill-opacity=".5" d="M444-37.5L7.6 61l-45.2 357.5L532 449.3z"/><path fill="#3c3432" fill-opacity=".7" d="M647.6 181.2L317.3 301 319 49.2l-47.7 397.4z"/><path fill="#6c6f53" fill-opacity=".6" d="M653.2-33l-.5 305.5L247.5 190 436.7 28.3z"/><path fill="#afc7cd" fill-opacity=".6" d="M176-37.5L27.7 200l232 97.4 42.2-222z"/><path fill="#ffd7c2" fill-opacity=".4" d="M649.3 391.4l-241.5-50.2L363 213.4l28.6 218.4z"/><path fill="#f0ddd7" fill-opacity=".7" d="M307 244.1l29.4 81.4 34.4 123.8L353 282.6z"/><path fill="#0e050b" fill-opacity=".7" d="M275.4 167.6L397.9 148l-66.8-31.3 10.6 119.4z"/><path fill="#331c0b" fill-opacity=".7" d="M600.6 373.2l-61-235.6-130.3 215.8-18.2-98.6z"/><path fill="#ffc096" fill-opacity=".4" d="M436.7 283.4l-16 126.4 124-36.8L353.4 38z"/><path fill="#14161f" fill-opacity=".8" d="M313 257.2l26.8 84.5 1.7 107.6-49.4-6.6z"/><path fill="#b3c3b2" fill-opacity=".4" d="M521.4 122l-27.8 23.8-330.9-43.4L510.5 49z"/><path fill="#0b081b" fill-opacity=".4" d="M136.1 60L-37.5 89.2 7.5-20l113.1-17.4z"/><path fill="#023912" fill-opacity=".5" d="M290.9 43.8l30.7-81.3-21.3 244.3 36.6-53.3z"/><path fill="#bec1dd" fill-opacity=".4" d="M291.1 214L120 309.6l-89 51.7 79.7 63z"/><path fill="#af7c67" d="M335.7 154.3l25 133 68.7-54-34.2-68.6z"/></g></svg>