<svg xmlns="http://www.w3.org/2000/svg" viewBox="0 0 620 929"><defs/><filter id="prefix__a"><feGaussianBlur stdDeviation="30"/></filter><rect width="100%" height="100%" fill="#3f3f3f"/><g filter="url(#prefix__a)"><path fill="#d6d6d6" fill-opacity=".8" d="M533.4 526.2l-4.7-561.4-344 53.3-10.5 382.2z"/><path fill="#3e3e3e" fill-opacity=".9" d="M363.6 699l-57.3-489 48.2-106.3 111.8 310.6z"/><path fill="#0c0c0c" fill-opacity=".9" d="M94.7-35.2L.4-56.2-9.4 978.4l232.6 6.8z"/><path fill="#fff" fill-opacity=".3" d="M489.2-56.2l-110 356.7 289.6 667L606 640.9z"/><path fill="#fff" fill-opacity=".8" d="M340.8 3.3l-45 276.1-125.2 22.9 20.3-279.8z"/><path fill="#0f0f0f" fill-opacity=".5" d="M-44.3 306l598.8-23 43.2-339.2L671 331.7z"/><path fill="#f2f2f2" d="M366.2 158.6L529.5 295l-7.7-351.2L363.6 9.4z"/><path fill="#5f5f5f" fill-opacity=".6" d="M85 479.4l225 470L339.2 372l-44.6 27.2z"/><path fill="#f3f3f3" fill-opacity=".9" d="M172.7 325.1l35.6 112.5 122-56.6-27.6-61.7z"/><path fill="#0d0d0d" fill-opacity=".9" d="M342.2 146.6l-28.3 107 99.4-9.7 7-29z"/><path fill="#2c2c2c" d="M86 168l42.5 602.4 61.7-369.8-24.7-133.5z"/><path fill="#676767" fill-opacity=".9" d="M546.9-49.4l-27.6 481.2 70.4 199.6-34.8-687.6z"/><path fill="#2a2a2a" fill-opacity=".7" d="M341.1 316.4L339.7 8l-25.8-60.3 55.9 26.9z"/><path fill="#060606" d="M-19.2 489.2L247 838.6l14.5 70.4-310.2 58.8z"/><path fill="#fdfdfd" fill-opacity=".2" d="M353 296.1l-191.5-12.3L125.9 132l12.7-147z"/></g></svg>