<svg xmlns="http://www.w3.org/2000/svg" viewBox="0 0 620 414"><defs/><filter id="prefix__a"><feGaussianBlur stdDeviation="30"/></filter><rect width="100%" height="100%" fill="#3c2d23"/><g filter="url(#prefix__a)"><path fill="#c6b9b4" fill-opacity=".9" d="M623.9-37.5l-661.4.2 40 486.6 617.7-5.9z"/><path fill="#563220" fill-opacity=".7" d="M406.9 289.4L322 69.5l149 30.8 27.6 69.2z"/><path fill="#66361a" fill-opacity=".5" d="M239.8 92L300 302.5 157.7 449.3l16.7-338.9z"/><path fill="#e7e6e6" fill-opacity=".8" d="M122.5 399.1l92-436.6H-15.2l7 486.8z"/><path fill="#715c48" fill-opacity=".6" d="M531.6 332l-26.2 60.8 152.1 10L612 285z"/><path fill="#fef0ff" fill-opacity=".4" d="M420.4 103.9l5.9 100.7 40 244.7 66.5-120.7z"/><path fill="#3d2114" fill-opacity=".7" d="M436.4 357.7L353.8 73.4l53.8 44.5 18.9 87.5z"/><path fill="#113025" fill-opacity=".5" d="M309.3 449.3l44.8-87.5 10-5.3 39.6 1z"/><path fill="#dad9d8" fill-opacity=".8" d="M243.6 263L267 121.8 110.4 3.4 363.5-1z"/><path fill="#cecdcd" fill-opacity=".9" d="M646.9-37.5L396.2 110 364 56.7 198.8 16.2z"/><path fill="#cbc7c7" fill-opacity=".8" d="M532.3 319l125.2-67.1L543.7-37.5 589 377z"/><path fill="#2e1301" fill-opacity=".4" d="M202.7 449.3l-18.9-208.8-41.2 86.5 96.2-27.4z"/><path fill="#916251" fill-opacity=".7" d="M313 88.4l7 22.8 111.8 233-7-118.7z"/><path fill="#e7eafc" fill-opacity=".7" d="M473.2 338.3l86.5-180.9-50.6 53.8-82.8 84.5z"/><path fill="#522300" fill-opacity=".4" d="M586.8 285.5L552.2 193l-9 42.6 114.3 187.7z"/></g></svg>