<svg xmlns="http://www.w3.org/2000/svg" viewBox="0 0 620 414"><defs/><filter id="prefix__a"><feGaussianBlur stdDeviation="30"/></filter><rect width="100%" height="100%" fill="#2e3948"/><g filter="url(#prefix__a)"><path fill="#f3f2ec" fill-opacity=".6" d="M632.8-37.5l24.7 417.3-695-378.6 261-38.7z"/><path fill="#f2f3f6" fill-opacity=".8" d="M149.2 359.2l23 78.2 197.6-74.8-69-99.3z"/><path fill="#38454f" d="M-37.5 125.5l646.4-4.4 48.6 108.5-195.9-52.3z"/><path fill="azure" fill-opacity=".6" d="M-14.8 70.2L-37.5-37.5 505.9 6.3 112.1 116z"/><path fill="#0f0b07" fill-opacity=".8" d="M232.7 293L225 161.3l26.9-62.2 162.7 136.8z"/><path fill="#fafefb" fill-opacity=".7" d="M657.5 228.1L483.6 186l-122.3-41.2 234 206.4z"/><path fill="#717578" fill-opacity=".8" d="M86.7 318.2L-37.5 336 133.9 77l67.4 26.7z"/><path fill="#ede8e5" fill-opacity=".7" d="M393 196.4l-63.4-234L657.6 73l-244.7 60.8z"/><path fill="#cccfd5" fill-opacity=".8" d="M273.7 347.8l66 101.5 12.7-130.6-82.8-60.8z"/><path fill="#100" fill-opacity=".3" d="M236.4 308.3l-7.5-204.9 45.7-47.7L420 104.9z"/><path fill="#1c1914" fill-opacity=".9" d="M455.6 276.8L394 294.5l143.7 154.8 119.8-72.5z"/><path fill="#454645" d="M409.8 224.3l-6.8 139-47.5 22.5-27.8-214.6z"/><path fill="#dadeda" fill-opacity=".7" d="M372 59.6l-20.3 41.6 241.9 243.4-180-92.5z"/><path fill="#6a6b6d" fill-opacity=".6" d="M-37.5 69.3l7.2-32.5 252.4 124.7 9.2 145.8z"/><path fill="#212527" fill-opacity=".9" d="M53.5 106.6L-8 213.4l39.5 33.4 21 89.6z"/></g></svg>