<svg xmlns="http://www.w3.org/2000/svg" viewBox="0 0 620 414"><defs/><filter id="prefix__a"><feGaussianBlur stdDeviation="30"/></filter><rect width="100%" height="100%" fill="#4d322b"/><g filter="url(#prefix__a)"><path fill="#d6cfc5" fill-opacity=".5" d="M657.5 442.5L41.2 344-1.2 10.7l374.9-48.2z"/><path fill="#f3f7ef" fill-opacity=".6" d="M406.9 223l-3.7-256.2-144.5-4.3L221.8 94z"/><path fill="#f6ffff" fill-opacity=".4" d="M-37 316.5l62.2 132.8 182.4-204-110-87z"/><path fill="#85685d" d="M45.5 349.5l612-172.5-62-198 53.3 470.3z"/><path fill="#1e1f16" fill-opacity=".4" d="M186.7 229.6l-24-198.8 241.8-68.3H-4.1z"/><path fill="#504e53" d="M636.7 39.7L493 189l-66 2.7-11.3-143.9z"/><path fill="#d7d8d4" fill-opacity=".8" d="M102 50.1l-4.2 115.3L-37.5 56.7l87.1 42.1z"/><path fill="#271106" fill-opacity=".6" d="M161.8 138.8l-96.9 20.8-23.7 92-78.7-106.8z"/><path fill="#dfe3e8" fill-opacity=".7" d="M289 338.3l-34.5-141.2 71.5 74.2-5.3 33.6z"/><path fill="#523529" fill-opacity=".8" d="M373.2 241.7l.3 177.3-60.8-199.8 344.8 23.7z"/><path fill="#d5d5cd" fill-opacity=".8" d="M377.6 222.6l-52.8-11.9 296.2 1.7 36.5 20.6z"/><path fill="#5f4438" fill-opacity=".7" d="M121.6 377.3L99.6 97l18.8 55.2 6.6 121.6z"/><path fill="#391f08" fill-opacity=".6" d="M340.5 214L289 126.5l-40.7 86.2-13.3-58.3z"/><path fill="#5d4033" fill-opacity=".9" d="M340.5 292L365 449.4 204.9 252.6 201 449.3z"/><path fill="#e1dedb" fill-opacity=".7" d="M116.7 289.4l-5 2-7.6-139-101 166z"/></g></svg>