<svg xmlns="http://www.w3.org/2000/svg" viewBox="0 0 620 414"><defs/><filter id="prefix__a"><feGaussianBlur stdDeviation="30"/></filter><rect width="100%" height="100%" fill="#5e3533"/><g filter="url(#prefix__a)"><path fill="#acc1c6" fill-opacity=".5" d="M-37.5 413.2L-20-26.6l618.1 2.9L657.5 412z"/><path fill="#330201" fill-opacity=".4" d="M525.8 296.7l12.1 139.7-314.4-23.7 151.6-266z"/><path fill="#aaaab5" d="M537 427.5l-12.4-283.9 102.7-6.5 1.9 290.4z"/><path fill="#b2d0e6" fill-opacity=".4" d="M92.3 174.6L-37.5 14.8 288-37.5 115.5 369.3z"/><path fill="#e5e4f0" fill-opacity=".6" d="M405.4 331l42.6-6.5-6.2 54.3L334 331.6z"/><path fill="#0e253e" fill-opacity=".6" d="M173.6 266.9l112.2 75-34 107.4-21.7-296.7z"/><path fill="#f1fdfb" fill-opacity=".4" d="M317.3 378l-27.9 1.3 65.6-96.4-55.7-91z"/><path fill="#460900" fill-opacity=".4" d="M599.2 265l-191.4-42.2-77 65.2 277.8 7.2z"/><path fill="#4d251d" fill-opacity=".6" d="M5.6 378.5l8.4-63.9 76.3-61 13.4 51.8z"/><path fill="#d3d9df" fill-opacity=".8" d="M654.4-19.9l-208.5 49-273.5-18.7 142.7 23z"/><path fill="#0075c6" fill-opacity=".5" d="M198.1 251.9l46-83.1-90.3-14-3.9 64.4z"/><path fill="#c7a071" fill-opacity=".7" d="M247.8 449.3L245.6 314l-87.7-23 3.2 158.2z"/><path fill="#92171a" fill-opacity=".8" d="M397.2 225.5l117 77.2-73 146.6 13.4-165.7z"/><path fill="#1a1d17" fill-opacity=".5" d="M338.8 333.5L406.6 144l-88.6 3 128.6 143.5z"/><path fill="#311d10" fill-opacity=".5" d="M108 449.3l15-79.7 32.7-72.4 3.2 149.2z"/></g></svg>