<svg xmlns="http://www.w3.org/2000/svg" viewBox="0 0 620 414"><defs/><filter id="prefix__a"><feGaussianBlur stdDeviation="30"/></filter><rect width="100%" height="100%" fill="#55342b"/><g filter="url(#prefix__a)"><path fill="#c8d4d7" fill-opacity=".6" d="M657.5 404.2l-475.4 20.4 43.1-226.7 389.2-58z"/><path fill="#b6dadd" fill-opacity=".7" d="M236.1 33.7L466.2-4.8-12.4-37.5l143.7 145z"/><path fill="#c5daeb" fill-opacity=".5" d="M569.6 292.6L474 321.4 257.2 198l161.5-19.9z"/><path fill="#090a0e" fill-opacity=".9" d="M-37.5 309.3l164.9-34.9-6.3-159.1L0-20z"/><path fill="#5b3d2d" fill-opacity=".7" d="M318.5 220l-34.9 10.6 117.7 143.3 134.9 75.4z"/><path fill="#080d10" fill-opacity=".9" d="M373.7 103.4l234-15.5 49.8-77.2-248.2-48.2z"/><path fill="#e3ebe1" fill-opacity=".2" d="M252.6 276.3L93 75.3l71.2 49.7 493.3-40.2z"/><path fill="#a5dcff" fill-opacity=".6" d="M375.9 42.4l1.4 20.6-82-1 112.3-99.5z"/><path fill="#d1bbb1" fill-opacity=".6" d="M145.6 449.3L175.8 342l-85 25.6L57.2 426z"/><path fill="#fbffff" fill-opacity=".5" d="M189.1 97.1l61.3-13.5L79-3.4l178.4-34.1z"/><path fill="#dbd9e3" fill-opacity=".5" d="M-37.5 327.7l76.3-31.3 125-34.8-201.3 91.8z"/><path fill="#002330" fill-opacity=".4" d="M320 118.7L254-37.5 193.4 131 39-9.7z"/><path fill="#7e5f4d" fill-opacity=".9" d="M650.5 90.8l-491.9 37.3 336 65L656 174z"/><path fill="#d7e3f9" fill-opacity=".4" d="M258.9 202.7l38.3-13.8-23.3 176.3-81.6-50.4z"/><path fill="#f5ebf0" fill-opacity=".3" d="M355.8 111.9l-197.9 16.7-22 101.7 60.5-93.2z"/></g></svg>