<svg xmlns="http://www.w3.org/2000/svg" viewBox="0 0 620 414"><defs/><filter id="a"><feGaussianBlur stdDeviation="30"/></filter><rect width="100%" height="100%" fill="#49282a"/><g filter="url(#a)"><path fill="#e3f1fc" fill-opacity=".7" d="M630.7 300.3l-624-67.6L126-37.5h470z"/><path fill="#2d2623" fill-opacity=".9" d="M546.4 111.6l-43.4 9.5L467-3.1l64-34.4z"/><path fill="#1d120e" fill-opacity=".7" d="M-29.5-37.5L29 105.8l132.2 57 11.4-29.4z"/><path fill="#f7ffff" fill-opacity=".3" d="M357.7 449.3l155-477.4L84.5 1.2l238 428.7z"/><path fill="#c9cdd1" fill-opacity=".9" d="M161.8 170.3l-74.1-46.5-67.1.4-15.8 46z"/><path fill="#826d79" fill-opacity=".8" d="M609.1 318.2l32.7-85.7L136.6 247l-7 49z"/><path fill="#000910" fill-opacity=".5" d="M105.1 449.3h-111l95.8-280 32.4-.7z"/><path fill="#bbc8db" fill-opacity=".9" d="M600.9 59.6L633-25.2l-96-8.2 25.7 265z"/><path fill="#331d20" fill-opacity=".6" d="M303.7 227l-20.6-5.4L173 369.1l113.8 80.2z"/><path fill="#202225" d="M379.8 449.3l-8-121.1 285.7 36.3v84.8z"/><path fill="#dde4ef" fill-opacity=".6" d="M455.6-37.5l36.8 201.2-368.9-54-37.3-108z"/><path fill="#182431" fill-opacity=".9" d="M593.4 73.1l64.1 172.7-48.9-283.3L636.7-20z"/><path fill="#261b18" fill-opacity=".7" d="M104.6 40.7L11.4-37.5l33.2 162.7 71.2 3.6z"/><path fill="#293949" fill-opacity=".6" d="M151.4 449.3L61.3 230.8-37.5 217l304 92.8z"/><path fill="#280514" fill-opacity=".3" d="M146.5 160.6l13.6-39L316.3 174l-206.8-36.5z"/></g></svg>