<svg xmlns="http://www.w3.org/2000/svg" viewBox="0 0 620 414"><defs/><filter id="prefix__a"><feGaussianBlur stdDeviation="30"/></filter><rect width="100%" height="100%" fill="#503b34"/><g filter="url(#prefix__a)"><path fill="#eaebe1" fill-opacity=".7" d="M11.9-37.5L-37.5 249 619 226.2l2.7-263.7z"/><path fill="#7b8a75" fill-opacity=".6" d="M657.5-37.5L538 171.7 330.1 349l221.1 100.3z"/><path fill="#887e70" fill-opacity=".7" d="M30.3 130.5l436.9 112.7-180 40.6-324.7 16.8z"/><path fill="#fbffff" fill-opacity=".3" d="M97.4 173.2L99-37.5l282.3 24.2 204.5 198z"/><path fill="#00170c" fill-opacity=".5" d="M187.7 449.3h-203L-37.5 350l249.4-95.7z"/><path fill="#eaf5dd" fill-opacity=".7" d="M546.1 360.9l-94.4-39.3-60.6-23 50.9-3.4z"/><path fill="#605d56" fill-opacity=".6" d="M61 186.7L63.7 18l-86.2-5.3 29.3 98.8z"/><path fill="#112316" fill-opacity=".5" d="M657.5 415.8l-29.3-134.6L485 259.6l-13.6 46.5z"/><path fill="#968f85" fill-opacity=".9" d="M608.6 10.9l-34.9-48.4-33.4 306.3 117.2 13.3z"/><path fill="#492721" fill-opacity=".7" d="M421.6 293.3l40-8.7-165.2-50.2v-48.2z"/><path fill="#e3ffd9" fill-opacity=".4" d="M498.2 361.6l-57.9-26 78 66.7 103 47z"/><path fill="#b6a89b" fill-opacity=".7" d="M146.3 214.6l-78.5-75.8 225.2 7.5 2 74z"/><path fill="#deefd6" fill-opacity=".5" d="M289.9 260.1l-65 12.6 34.2 6.8 25.7 19.6z"/><path fill="#434402" fill-opacity=".3" d="M498.7 97.6l12-60.3-30 51.1 11.2 118z"/><path fill="#d8feca" fill-opacity=".3" d="M359.2 317.8l-13.8 52 39.7 34.7 4.3-91.8z"/></g></svg>