<svg xmlns="http://www.w3.org/2000/svg" viewBox="0 0 620 414"><defs/><filter id="a"><feGaussianBlur stdDeviation="30"/></filter><rect width="100%" height="100%" fill="#533d37"/><g filter="url(#a)"><path fill="#e5d7d0" fill-opacity=".6" d="M263.7 104.9l195.5 131-114.3 213.4L47.5 206.8z"/><path fill-opacity=".7" d="M657.5-37.5L605.2 151l-642.7-43V-13.7z"/><path fill="#f3fffd" fill-opacity=".6" d="M233.7 323L73.1 236.5 72 191.8l134.2-46.2z"/><path fill="#655858" fill-opacity=".7" d="M657.5 449.3L236.6 301.5l-22.5-107 430.8 50.8z"/><path fill="#9598a1" d="M596.3 175.8l-10 112.2 44.8-18.2 26.4-216.5z"/><path fill="#d5ad86" fill-opacity=".5" d="M233 231l-42-103 85-61.4 64 110.7z"/><path fill="#100700" fill-opacity=".7" d="M27.4-37.5L78 288.9l188 160.4-303.5-40.7z"/><path fill="#20150d" fill-opacity=".6" d="M172 19.6l434.4 125.5-100 199.8L414 192z"/><path fill="#050100" fill-opacity=".5" d="M-37.5 221.8l1.7-247.5 311.7-11.8L191 148.2z"/><path fill="#969fad" fill-opacity=".8" d="M616.4 353.6l-4.9 74.8 46-123-112.8 15.5z"/><path fill="#b8bfcf" fill-opacity=".4" d="M222.3 388.5L359 323.3l71.7 56.7-182.4 48.4z"/><path fill="#260007" fill-opacity=".4" d="M366.2 202.5l-83.8-11.9L324 330.1l.5-75.8z"/><path fill="#230509" fill-opacity=".6" d="M387.7 326l33.5-58.1L400 237l-24.2 23.7z"/><path fill="#ebcbdd" fill-opacity=".4" d="M393 183.3l-48.9 54-17.4 49 105.1-76.6z"/><path fill="#a26750" fill-opacity=".6" d="M241.7 228.4l-33.2 220.9 39.7-16 55.3-233.7z"/></g></svg>