<svg xmlns="http://www.w3.org/2000/svg" viewBox="0 0 620 414"><defs/><filter id="prefix__a"><feGaussianBlur stdDeviation="30"/></filter><rect width="100%" height="100%" fill="#4d2629"/><g filter="url(#prefix__a)"><path fill="#c3cabb" fill-opacity=".5" d="M465.5 362l-37.3-185.2-321.6.2 11.6 272.3z"/><path fill="#201111" d="M-21.3-37.5L-2.2 68.3l629 176.6 30.7-282.4z"/><path fill="#ac9f9d" fill-opacity=".6" d="M242.4 233.7l-2.6-152.3 213.6 164.9-103 69.3z"/><path fill="#562227" d="M301 195.2l17 29.8.2 224.3-34.6-93.8z"/><path fill="#1d0d0e" fill-opacity=".9" d="M636.7-37.5l-9.4 455-191.4 31.8 65.7-359.7z"/><path fill="#251215" d="M-37.5 397.2l215 52-54.2-89-122-296z"/><path fill="#bdaa98" fill-opacity=".7" d="M115.5 358.7h98.6l21.3-69-140-33.2z"/><path fill="#0b0a08" fill-opacity=".6" d="M96.6 180.2l2.5 117L179.2 7-37.5 31.2z"/><path fill="#b8cdda" fill-opacity=".5" d="M322.6 396l-2.2-84.8 11.4-95.9 105.3-6.3z"/><path fill="#0f2027" fill-opacity=".7" d="M436.4 449.3L272.2 387l126.4-.2 14-128.6z"/><path fill="#7c5940" fill-opacity=".5" d="M294.7 301.8l-148-225.3 45.6 372.8L123 280.7z"/><path fill="#7c8084" fill-opacity=".9" d="M410.5 383.6l55-101.2-38-88.6 9.2 194.4z"/><path fill="#fbe0c6" fill-opacity=".3" d="M96.9 282.9l27.6 71.7 30-166.7-1.7-34.8z"/><path fill="#e9fff0" fill-opacity=".4" d="M221.6 270.8l-42.1 56.9 26.1 28 37.3-50z"/><path fill="#805840" fill-opacity=".5" d="M390.9 182.6L270 92.3l39 131.5 43.9-45z"/></g></svg>