<svg xmlns="http://www.w3.org/2000/svg" viewBox="0 0 620 414"><defs/><filter id="prefix__a"><feGaussianBlur stdDeviation="30"/></filter><rect width="100%" height="100%" fill="#4d3f3b"/><g filter="url(#prefix__a)"><path fill="#cbd3d3" fill-opacity=".7" d="M289.2 94.7l61.7 354.6 86-1L374.7 153z"/><path fill="#e1fdb9" fill-opacity=".5" d="M57.6 111.9l45.8 55.2 25.7 73.4-39.7 89.4z"/><path fill="#000102" fill-opacity=".8" d="M200 273.2L3.1 352.4l-40.6 61 278.7 35.9z"/><path fill="#ccf2d8" fill-opacity=".7" d="M111.6 51.6l52.8 19.1-3.3 45.3-50.2-8.7z"/><path fill="#18191c" fill-opacity=".7" d="M465.2 449.3l-84.7-197L611.8-37.4l45.7 449.2z"/><path fill="#111010" fill-opacity=".7" d="M434 156.7L326.5 95.4l60-101.2 271 9z"/><path fill="#7d8083" fill-opacity=".6" d="M523.9 124l-249 215.3-79.5-66.6 36.6-47.2z"/><path fill="#121311" fill-opacity=".7" d="M189.4 287.2L299.6 26l-180 141.7 1 249.2z"/><path fill="#e6eeeb" fill-opacity=".7" d="M345.4 220.9l-5.4 41.4L392 409l52 40.2z"/><path fill="#ffdaa1" fill-opacity=".2" d="M266 181.2l184.2 39.4-33.6-77.7-99.3-44.3z"/><path fill="#e1fbbf" fill-opacity=".5" d="M42.9 241l-10.4-1.5 16.2 95.2 6.8-30.8z"/><path fill="#47548c" fill-opacity=".8" d="M505 354l-75.8 3.2 14 23.3 75.6 13.8z"/><path fill="#131617" fill-opacity=".6" d="M65.4 124.5l39.2-25-122.3-137 93.5 407.3z"/><path fill="#55596a" fill-opacity=".5" d="M327.4 283.8l.5-121.5-144.8-3.7 176 290.7z"/><path fill="#b1d0c0" fill-opacity=".6" d="M547.3 252.1l-17.2-29-3.3 23.2 8.2 16.2z"/></g></svg>