<svg xmlns="http://www.w3.org/2000/svg" viewBox="0 0 620 414"><defs/><filter id="prefix__a"><feGaussianBlur stdDeviation="30"/></filter><rect width="100%" height="100%" fill="#7a4a36"/><g filter="url(#prefix__a)"><path fill="#9b9894" fill-opacity=".7" d="M574 413.4L19.9 417-3-37.5l660.4 290.8z"/><path fill="#b1b1aa" fill-opacity=".9" d="M250.7-37.5H113l-12.1 310 185.3 21.3z"/><path fill="#290500" fill-opacity=".6" d="M485.8 90.3L260.1-4.6 420 292.1l60.7-90.1z"/><path fill="#9ddcff" fill-opacity=".3" d="M620.7 369.3l-201.2 17-23-3.4 192-420.4z"/><path fill="#191b19" d="M95.2 176.3l16 33-79.7 9.6L16 187z"/><path fill="#89807a" d="M534.8 29.3L370.4 62l-15.7 34.9-26.9-132z"/><path fill="#84412c" fill-opacity=".7" d="M542 136.1L365.2 248.2l-46 201-41-265.9z"/><path fill="#331e08" fill-opacity=".5" d="M107.3 309l144.6 71-112.4-11.6-105.1 19.8z"/><path fill="#bacdd2" fill-opacity=".6" d="M562.1 76.3L428.1 53l-28.5-78 99.8 143z"/><path fill="#f2f3fe" fill-opacity=".6" d="M228.6 292l81.6 1.8-25.6 29.8L252.4 120z"/><path fill="#692d0e" fill-opacity=".5" d="M428.4 430.9l-152-27.9 74-37.5 2.5-80z"/><path fill="#0e0f00" fill-opacity=".2" d="M229.4 69.3l5.8 269.5 67.5-21-125.2-12.9z"/><path fill="#010000" fill-opacity=".7" d="M371.3 51.3l53.3 116.5 55.4-60.3-20.3-40.2z"/><path fill="#eae8f2" fill-opacity=".6" d="M494.8 322.8l-58.4 126.5 20.4-137.1L469 300z"/><path fill="#030712" fill-opacity=".7" d="M459.4 315.3l6.6-33-21.8 1.3-34-6.5z"/></g></svg>