<svg xmlns="http://www.w3.org/2000/svg" viewBox="0 0 620 414"><defs/><filter id="prefix__a"><feGaussianBlur stdDeviation="30"/></filter><rect width="100%" height="100%" fill="#553831"/><g filter="url(#prefix__a)"><path fill="#b8ac9b" fill-opacity=".5" d="M308.3-37.5l-141 296.4 30.3 73.6L657.6 84z"/><path fill="#f6f2dd" fill-opacity=".5" d="M41.9 26.2l11.4-63.7L189 69.5 104 131z"/><path fill="#060706" fill-opacity=".8" d="M657.5 429.9l-538.8 19.4L400.6 264l175.3-35.1z"/><path fill="#e4c8b3" fill-opacity=".5" d="M569.1 66.1l-28.5 127.4-84.8-58.1 77-173z"/><path fill="#35312f" fill-opacity=".6" d="M107.3 449.3l-72.4-359 595.8 232.5L195.2-16.7z"/><path fill="#f5f3e3" fill-opacity=".6" d="M309 68l-36.5-40.6 113.8-64.5L370 45.8z"/><path fill="#998377" fill-opacity=".6" d="M260.6 335.4l85.5 2.2-23.7-181.9-160.1 9.7z"/><path fill="#000001" fill-opacity=".5" d="M574.2-7.8l50-29.7-26.5 180.1L528 369.8z"/><path fill="#0a0f16" fill-opacity=".8" d="M69.3 305.4l22 131.7 54.3-16.2 41.6-148.7z"/><path fill="#cdc3c7" fill-opacity=".6" d="M60.3 95.4l-7.7-2.9-71.7-68.3-18.4 103.4z"/><path fill="#74889b" fill-opacity=".8" d="M66.4 253.8l60.3-21.3L99.5 271l-46 36z"/><path fill="#6f4a35" fill-opacity=".9" d="M518.3 53.8l65.4 57.1L456.3-37.5 450 78z"/><path fill="#040404" fill-opacity=".5" d="M415.6 220.6l45 4-47.2 224.7L357 180.2z"/><path fill="#fff1e9" fill-opacity=".2" d="M255 214.3l-33.6 94-28.1 5.6-49.7-91z"/><path fill="#d1c8bd" fill-opacity=".3" d="M536 82.3l-56.7 180.2-.7-122L375.4 109z"/></g></svg>