<svg xmlns="http://www.w3.org/2000/svg" viewBox="0 0 620 414"><defs/><filter id="a"><feGaussianBlur stdDeviation="30"/></filter><rect width="100%" height="100%" fill="#494138"/><g filter="url(#a)"><path fill="#cfd7d8" fill-opacity=".7" d="M184.3 61L-35.4-26.6 7.8 449.3l298.8-90.1z"/><path fill="#fffdf3" fill-opacity=".7" d="M-11.1 187.7l222-15.5-8-93.7L-37.4-36.1z"/><path fill="#757f83" fill-opacity=".6" d="M72.2 449.3l373.2-138.8-77.5-124.3-405.4-8.2z"/><path fill="#1b1206" fill-opacity=".7" d="M-37.5 225l389-41.7L219.8 39l-13.3 135.4z"/><path fill="#000101" fill-opacity=".7" d="M436.2 220.1l-15-139.5L455-14.3 580.8 71z"/><path fill="#7b7e7c" fill-opacity=".9" d="M414.1 148l21.4-185.5-190.9 486.8L324 62z"/><path fill="#c3cad1" fill-opacity=".6" d="M326 187.2L28.6 286.8l-3.9 69.7 134.7-33.2z"/><path fill="#a9b8b9" fill-opacity=".4" d="M229.4 58.1L129 2l162.3-39.4 26.7 87z"/><path fill="#4c4232" fill-opacity=".9" d="M231.3 176.3l-119.9 34-149 21.5V192z"/><path fill="#001524" fill-opacity=".7" d="M464 168.8L410 365l-107.7-29.6L497.4 436z"/><path fill="#6f7578" fill-opacity=".8" d="M-26.2 444l-6-78.8 295.2-4.1 188 55.2z"/><path fill="#261801" fill-opacity=".7" d="M1.2 261L-1 276.9 95.2 249l231.3-62.8z"/><path fill="#d8e5ee" fill-opacity=".6" d="M198.1 213.1l31-18.4-266.6 40.5 1.9 32.9z"/><path fill="#db9267" fill-opacity=".5" d="M328-37.5l74 206.3 45-202-52.5 99.6z"/><path fill="#23201b" fill-opacity=".8" d="M289.2 294.3l21.5 88.8 22.3-16-13.6-66.5z"/></g></svg>