<svg xmlns="http://www.w3.org/2000/svg" viewBox="0 0 620 414"><defs/><filter id="a"><feGaussianBlur stdDeviation="30"/></filter><rect width="100%" height="100%" fill="#383d42"/><g filter="url(#a)"><path fill="#888788" fill-opacity=".8" d="M576.9 426L253.3-13.6l-290.8-24v486.9z"/><path fill="#cac6cb" d="M531.8 27.9l-23.2-65.4-165 234 20.6 29.7z"/><path fill="#050002" fill-opacity=".8" d="M657.5 98l-200 226.3 22.3-224.8 110-137z"/><path fill="#141016" fill-opacity=".5" d="M413.4-37.5l-83 265.4 327.1-36.6-455.8 147z"/><path fill="#f0e9dd" fill-opacity=".4" d="M285.5 279l220.2 57.2 151.8-84.3-39 197.4z"/><path fill="#f9f3ec" fill-opacity=".4" d="M389.4 449.3H187L-37.5 233l9.4-45.3z"/><path fill="#ead3cd" fill-opacity=".7" d="M251.1 220.1L283-37.5h16.7l-15 275.3z"/><path fill="#000a11" fill-opacity=".3" d="M235.2 261l42.3-223.7-102.2-26.4-78 174.1z"/><path fill="#221c23" fill-opacity=".9" d="M409.5 111.2l-117.7 109L303-26.5l190.8-11.1z"/><path fill="#1f2023" fill-opacity=".7" d="M553.9 334.2l-75.6-5.6-84.5-121 49.9-86.5z"/><path fill="#a1b2c1" fill-opacity=".5" d="M-3.9 134.7l149-11.2L124-34-15.7-23z"/><path fill="#f6cdb9" fill-opacity=".5" d="M393 213.1l-37.2 27.6-42.4-30.7 142-147.8z"/><path fill="#d0d8e7" fill-opacity=".6" d="M371.5 179.2l60.8-101 60-115.7 21.4 101.7z"/><path fill="#525556" fill-opacity=".8" d="M-37.5 150.2l103.1 19 246.6 152-119-199.9z"/><path fill="#010000" fill-opacity=".4" d="M278.3 119l93.5 176 23.2-58.6-88.4 2z"/></g></svg>