<svg xmlns="http://www.w3.org/2000/svg" viewBox="0 0 620 929"><defs/><filter id="prefix__a"><feGaussianBlur stdDeviation="30"/></filter><rect width="100%" height="100%" fill="#3f3f3f"/><g filter="url(#prefix__a)"><path fill="#fff" fill-opacity=".5" d="M676.8 9.4l-560.3-25 15.2 709.4 545-490.2z"/><path fill="#e6e6e6" fill-opacity=".9" d="M676.8 575.5L633.6 63.1l-115-6.5 33 536z"/><path fill-opacity=".7" d="M609 985.2l-240.3-88.9 25-789.6 86.8 12.3z"/><path fill="#fff" fill-opacity=".4" d="M144.8 985.2l-6.5-251.8-13.8-469.2 237.3 576.3z"/><path fill="#555" d="M351.3 783.5l-102.7-651-79.1 19.2 35.9 338.6z"/><path fill="#fff" fill-opacity=".6" d="M126.6 65l344.8 215.9L190.5 365 431.8 37z"/><path fill="#0b0b0b" fill-opacity=".9" d="M-4 985.2L-30.5-56.2 99.1-22.5l19.6 934.8z"/><path fill="#070707" fill-opacity=".7" d="M273.6 149.9l13 106.3-138.5 2.2 30.8-106.7z"/><path fill="#090909" fill-opacity=".6" d="M290.3 364.3l247.1 119.8 14.2-144.4-217-25.4z"/><path fill="#fbfbfb" fill-opacity=".6" d="M153.9 196.3L178.2 724 117.9 48.3l150.6 1.4z"/><path fill="#e0e0e0" d="M489.9 22.1l168 431.5L476.1 240l18.9-55z"/><path fill="#ececec" fill-opacity=".8" d="M411.2 332.4L331 27.6l84.5 89.3-137.9 63z"/><path fill="#030303" fill-opacity=".7" d="M347 400.6l167.6 327.7L544 358.2l-294.7 132z"/><path fill="#fafafa" fill-opacity=".5" d="M149.9 285.2l53.7-33.4-89.3 300.9L232 759.2z"/><path fill="#060606" fill-opacity=".4" d="M216.3 483.4l26.1-178.2-41.7 48.6 422 489.6z"/></g></svg>