<svg xmlns="http://www.w3.org/2000/svg" viewBox="0 0 620 414"><defs/><filter id="prefix__a"><feGaussianBlur stdDeviation="30"/></filter><rect width="100%" height="100%" fill="#394366"/><g filter="url(#prefix__a)"><path fill="#dcd1b3" fill-opacity=".7" d="M-20.1 3.9l572.5-41.4 2.7 292.8-521 194z"/><path fill="#261d00" fill-opacity=".5" d="M221.6 195l265.2-76.8 78.7 331 90.8-198.5z"/><path fill="#e8ecee" fill-opacity=".4" d="M48 51.6l165.6 397.7 128.9-414L193-21.5z"/><path fill="#202000" fill-opacity=".8" d="M340.5 449.3L294.7 357l362.8-122.6-27 199.6z"/><path fill="#cba64c" fill-opacity=".4" d="M527 282.1L657.5 220V-28.3L267.1-17.7z"/><path fill="#817e89" fill-opacity=".9" d="M173 299.3L12.5 202.5l-30.3 246.8h188.2z"/><path fill="#6f5b4f" d="M296.2 449.3l-93.5-87.5 144.1-14.7-23-123.8z"/><path fill="#1c1e29" fill-opacity=".7" d="M473.5 132.7L405.9 185l-7.7 74.9 90.3-110.2z"/><path fill="#2d1900" fill-opacity=".6" d="M-37.5 258.9l63.7 20.8 15.7-84.3-4.4-10.4z"/><path fill="#cfcdc2" fill-opacity=".7" d="M375.9 83.3l21.3-21-6.6 268.5-44.5 9.2z"/><path fill="#222108" d="M430.4 282.4l173.4-6.8-120 114.8-55.4-100z"/><path fill="#20161b" fill-opacity=".7" d="M363.8 175.6L303.9 141l16.8 69 89.6-39.7z"/><path fill="#95948c" fill-opacity=".8" d="M445.4 188.2L628 175 523.9 283l-69.8-34.6z"/><path fill="#aebac0" fill-opacity=".8" d="M98.8 8l83 254.8-65.8 41.6-73.6-62z"/><path fill="#fbfefe" fill-opacity=".6" d="M238.6 8L143 179.2l70.3 60.8L151-37.5z"/></g></svg>