<svg xmlns="http://www.w3.org/2000/svg" viewBox="0 0 620 414"><defs/><filter id="prefix__a"><feGaussianBlur stdDeviation="30"/></filter><rect width="100%" height="100%" fill="#563b2b"/><g filter="url(#prefix__a)"><path fill="#f4e9e1" fill-opacity=".7" d="M484.4 164.4l-223-46L286 449.3 657.5 407z"/><path fill="#eae9ee" fill-opacity=".6" d="M177.5 292.3l86 157L153.8 81.9 3 147z"/><path fill="#956d52" fill-opacity=".7" d="M131.3 34.6L284.6 249l96.4 9L547 13z"/><path fill="#0f1923" fill-opacity=".8" d="M-37.5 390.6l287 58.7-140.3-305 25.5 108.3z"/><path fill="#181e22" fill-opacity=".9" d="M251.6 321.6L296 255l-85.3-121.6-49.4 47.3z"/><path fill="#dcd5d1" d="M296.7 449.3l334.7-153.8v153.8L445 145z"/><path fill="#c89476" fill-opacity=".8" d="M207.8 41.7l6 83-106 79L160.6 19z"/><path fill="#fed3c1" fill-opacity=".5" d="M237.1 82.1l8.5 105.1L334 249l-9.2-125.5z"/><path fill="#d2e2eb" fill-opacity=".8" d="M82.1 216.8l71.4 71.9-49.8-105.1-88-40.5z"/><path fill="#11181e" fill-opacity=".8" d="M13.3-37.5l15.3 483.9-66.1-269.6L155.2 21.3z"/><path fill="#d9ecff" fill-opacity=".6" d="M199.3 242.4L267 447.1 138.5 221l7.5-46.5z"/><path fill="#3a1d02" fill-opacity=".4" d="M340 229.6l55 42.9L416.6 120l-84.3-8.5z"/><path fill="#2f1c13" fill-opacity=".5" d="M289 55l-122.6 67.5 90.3-105 254.6-55z"/><path fill="#172029" fill-opacity=".8" d="M-14.5 116.7L101 235.4l168.8 212.4-307.3 1.5z"/><path fill="#7a6f30" fill-opacity=".7" d="M534.5 232l123 11.4L577 334l-4.6-11z"/></g></svg>