<svg xmlns="http://www.w3.org/2000/svg" viewBox="0 0 620 414"><defs/><filter id="prefix__a"><feGaussianBlur stdDeviation="30"/></filter><rect width="100%" height="100%" fill="#434343"/><g filter="url(#prefix__a)"><path fill="#c4c4c4" fill-opacity=".6" d="M623.1.5l-506.6-38 239 486.8h188z"/><path fill-opacity=".8" d="M36.8 449.3l263.3-207.1L34.4 87.7l-49.7 2.9z"/><path fill="#313131" fill-opacity=".7" d="M443.2 67l-58.4 48.5L444.2 313l88.6 9.5z"/><path fill="#bbb" fill-opacity=".7" d="M125.5 52.8l20.8-77L-8.2-13.8l-29.3 117.5z"/><path fill="#fefefe" fill-opacity=".3" d="M645.7 34.4L141.2 156.2l-58.1-4.1L220.9-37.5z"/><path fill-opacity=".8" d="M-37.5 385L224 352.7l85.3-91.5-10 188.2z"/><path fill="#5d5d5d" fill-opacity=".9" d="M657.5 8.7l-32.2 440.6L510 100.7l147.5-78.2z"/><path fill="gray" d="M196.4 233.7l-9.4 68 13.8 72.2 22-112.1z"/><path fill="#b5b5b5" fill-opacity=".8" d="M306.4 346l5 103.3 264.8-3.4-37.6-143.6z"/><path fill="#050505" fill-opacity=".8" d="M206.6 127.4L183 110.7-26.6 362.8l197.1 86.5z"/><path fill="#373737" fill-opacity=".5" d="M394.3 449.3l-4.9-219.5-327.2-22.5L451 188.7z"/><path fill="#b7b7b7" fill-opacity=".8" d="M526 116.3l6.3 99.5-223.5 55.7 3.1 139.5z"/><path fill="#fff" fill-opacity=".3" d="M322.1 82.8l119 62.3-74.7 48.2L169.3 71.4z"/><path fill="#2d2d2d" fill-opacity=".8" d="M192.3 249l-43.6-41.7 113.8 16.2-8.4-108z"/><path fill="#191919" fill-opacity=".4" d="M521 190.4l15 127.1-198.1-9 130-13.8z"/></g></svg>