<svg xmlns="http://www.w3.org/2000/svg" viewBox="0 0 620 414"><defs/><filter id="prefix__a"><feGaussianBlur stdDeviation="30"/></filter><rect width="100%" height="100%" fill="#86643e"/><g filter="url(#prefix__a)"><path fill="#bbc2bd" fill-opacity=".7" d="M622.4 449.3h-636l-.2-486.8L657.5-18z"/><path fill="#754f26" fill-opacity=".8" d="M-16.5 298.6L194 112.1l46.7 19.7-126.1 221.6z"/><path fill="#b9c0bc" fill-opacity=".9" d="M606.4 393L358.2-37.4l299.3 6.7-29.5 480z"/><path fill="#efd5bc" fill-opacity=".6" d="M148 431.8L472.3 395l-214.9-53.3L151.6 152z"/><path fill="#5f3100" fill-opacity=".4" d="M235.2 112.1L163 125l-3.2 59.8L266.6 287z"/><path fill="#795831" fill-opacity=".7" d="M4.8 170l146.8 48-4.1 131.5-185-63.7z"/><path fill="#422f06" fill-opacity=".3" d="M355.8 382.7l175-89 35.4 66.2-62.7-6.3z"/><path fill="#59361f" fill-opacity=".7" d="M309.8 155.2l6.5 50.2 31.7-51.9-23.5-16z"/><path fill="#eadfca" fill-opacity=".7" d="M12.8 315.3L183.6 381l-69.5-3-151.6-60.7z"/><path fill="#bafbff" fill-opacity=".1" d="M-36 21.3l223 27.9-126.7 252-97.8 15.3z"/><path fill="#e4dfd5" fill-opacity=".7" d="M213.1 239.3l16-29.3-65.4 16 105.4 223.3z"/><path fill="#c3c0b7" fill-opacity=".8" d="M381.7 193.3l-115 67 80.4 33 18.6 156z"/><path fill="#6c1700" fill-opacity=".2" d="M178.7 273l-145 176.3 50.6-246.8 137 246.8z"/><path fill="#717861" fill-opacity=".4" d="M238.8 102.7l-79-47L377.3 5.3l4.6 43.4z"/><path fill="#a9ada5" d="M540.6 215L509.3 58l-115 228.4 171.2 12z"/></g></svg>