<svg xmlns="http://www.w3.org/2000/svg" viewBox="0 0 620 414"><defs/><filter id="prefix__a"><feGaussianBlur stdDeviation="30"/></filter><rect width="100%" height="100%" fill="#46314e"/><g filter="url(#prefix__a)"><path fill="#382d0a" d="M303 425.5l-340.5 23.8V5l323-42.6z"/><path fill="#ffe5a8" fill-opacity=".4" d="M163 295l230.3-144.4-54.2 161.1-211.7-196z"/><path fill="#0a0507" fill-opacity=".9" d="M471.5-.2L645.7-2 631 449.3l-285-15z"/><path fill="#0d0a05" d="M284.8 415.8l13.6-234.2-75.3 8 11.6 258.7z"/><path fill="#ddc333" fill-opacity=".4" d="M231 303.5L58.6 192 309.8 63.5l-92.6 112.8z"/><path fill="#efc9ff" fill-opacity=".4" d="M444.7 233.7l-154 61.8 18-153 43.7 70.6z"/><path fill="#0d0400" fill-opacity=".5" d="M-37.5 449.3l31-195.7 614.4 67.8 49.6 94.2z"/><path fill="#231820" fill-opacity=".9" d="M412.4 147.7L181.6-37l428 61.3-195 272z"/><path fill="#695160" fill-opacity=".5" d="M237.1 90.3l216 88.7.5 39.2-56 62.3z"/><path fill="#5d4f0d" fill-opacity=".5" d="M345.1 103.4L51.3 233.7l29.1-121.3 203-109z"/><path fill="#ffe95e" fill-opacity=".3" d="M212 121.3l-39.8 90.9L189.9 338l42.4-1z"/><path fill="#f9e7a8" fill-opacity=".8" d="M587.8 41.4L581 24.7l18.7-3.4 2.1 16.7z"/><path fill="#f7daff" fill-opacity=".5" d="M309.5 203l31.5 52.7-39.2 43-11.9-28z"/><path fill="#020000" fill-opacity=".6" d="M3.4 449.3l121.3-142.4-38.2-59.4-124-104.4z"/><path fill="#050504" d="M283.8 321.9l-24.4-190.4 17.9-9.7 22 92z"/></g></svg>