<svg xmlns="http://www.w3.org/2000/svg" viewBox="0 0 620 929"><defs/><filter id="prefix__a"><feGaussianBlur stdDeviation="30"/></filter><rect width="100%" height="100%" fill="#474a38"/><g filter="url(#prefix__a)"><path fill="#cbbeb5" fill-opacity=".7" d="M96.9 577l375.6 145.2 59.5-25.8L661.5-56.2z"/><path fill="#ffdaaf" fill-opacity=".5" d="M241.3-56.2L224.6 156l452.2 224.3L622-5.4z"/><path fill="#241c11" fill-opacity=".7" d="M486 364.3l132 56.3 50.4 263.8L-29.4-56.2z"/><path fill="#dae5ee" fill-opacity=".5" d="M511 700.7L111.7 483l344-25.4 118.7 129.2z"/><path fill="#001518" fill-opacity=".7" d="M163 985.2l-18.6-315.7L670 745.7l6.9 239.5z"/><path fill="#8f2d00" fill-opacity=".3" d="M178.5 514.2l358.6-345.5-593.3-225L33 985.3z"/><path fill="#f3faf8" fill-opacity=".8" d="M676.8 432.6l-176-272.2L524-56.2h93.3z"/><path fill="#e6ffeb" fill-opacity=".4" d="M194.5 349.5L242 699.3 125.6 512.4l-12.7-155.7z"/><path fill="#916139" fill-opacity=".9" d="M495.7 345.5l81-73.3L409.6 82l267 369.4z"/><path fill="#080500" fill-opacity=".5" d="M213.4 454l112.1-.4L25.8 28.3l316.4 218.8z"/><path fill="#5b290b" fill-opacity=".3" d="M485.5-56.2L333.1 451.4 202.5 519l245.7-91z"/><path fill="#dbbf8d" fill-opacity=".5" d="M371.2 266L338.6-38.8l81.6 278.3L254 173.8z"/><path fill="#a77f53" fill-opacity=".9" d="M516 209.8L465 286l-151.7 33.3 221.3 18.2z"/><path fill="#5d3112" fill-opacity=".9" d="M167 985.2H-56.3V315.4l183.6 205z"/><path fill="#182e2a" fill-opacity=".9" d="M676.8 985.2L488.5 721.4l79-68.2 42.5-222z"/></g></svg>