<svg xmlns="http://www.w3.org/2000/svg" viewBox="0 0 620 929"><defs/><filter id="prefix__a"><feGaussianBlur stdDeviation="30"/></filter><rect width="100%" height="100%" fill="#413738"/><g filter="url(#prefix__a)"><path fill="#c6b8b0" d="M111.4 859.3L239.5 6.2l437.3-44L651.4 911z"/><path fill="#7b6c65" d="M102.3 453.3L321.2 72.6l89.2 83.8-346.9 545z"/><path fill="#180c06" fill-opacity=".9" d="M533.4 653.6l122 119.7 6.9-161.1-125.6 23.2z"/><path fill="#efe9ea" fill-opacity=".5" d="M100.5 702.6l7.3-175.7 569-443.4-249 709.8z"/><path fill="#f8b883" fill-opacity=".7" d="M-56.2 165.5L150.6-21.8-50.8-56.2l89.6 373.7z"/><path fill-opacity=".4" d="M4 277.6l23.6 418.8 237.3 141.2L-1.8 985.2z"/><path fill="#dfe5f1" fill-opacity=".7" d="M369 861.9L146 985.2l119.7-8L196 423.6z"/><path fill="#6f5c4e" fill-opacity=".4" d="M234-37.7L62.5 476.8 269 453.6l142.3-148z"/><path fill="#f4e9d7" fill-opacity=".6" d="M236.2-42.1l427.2 72.2-268.6 629.6 13.5-511.6z"/><path fill="#867074" fill-opacity=".4" d="M299 985.2L85 812.5 33 445l162.6 172.7z"/><path fill="#ffe4e9" fill-opacity=".5" d="M279.4 148.8l-65-50L259.9 274l-89.2-40.3z"/><path fill="#7c717b" fill-opacity=".6" d="M329.9 872.8l88.5-71.5 234 106-364.6-.4z"/><path fill="#edf6ff" fill-opacity=".7" d="M450.3 861.9l104.2-92.6L676.8 814 635 848.8z"/><path fill="#54473f" d="M210.1 262.7l112.1 13.1-144 157.5L111-51.2z"/><path fill="#993a06" fill-opacity=".2" d="M433.7 623.8l218.8 100.5-253.7 140.8 278-357.4z"/></g></svg>