<svg xmlns="http://www.w3.org/2000/svg" viewBox="0 0 620 414"><defs/><filter id="a"><feGaussianBlur stdDeviation="30"/></filter><rect width="100%" height="100%" fill="#324755"/><g filter="url(#a)"><path fill="#c4b893" fill-opacity=".8" d="M238.6 208.5l419-106.8V-25.9L178.1-11z"/><path fill="#090e0d" fill-opacity=".7" d="M172.2-37.5l12.1 301.2L77.5 251 80.2-5z"/><path fill="#f3f0de" fill-opacity=".5" d="M274.2-37.5H486l85.7 123.7-240.5-2.9z"/><path fill="#fff8d2" fill-opacity=".5" d="M107.3-26.6l-144.8 4.3L68 91.1l-49.2 5.8z"/><path fill="#7a6444" fill-opacity=".6" d="M209.3 449.3l-40-360.7 488.2-1.9-22.2 298.4z"/><path fill="#7f5016" fill-opacity=".3" d="M190.8 273.4l-202-112.3-26.3 274.6 268.8 13.6z"/><path fill="#0a0d0f" fill-opacity=".5" d="M95.2 198.8L122 266l71.4-5.5 260.8-45.1z"/><path fill="#718c88" d="M317.8 222.6l8-175.9L262.4-19l-13 152.8z"/><path fill="#fbe3a9" fill-opacity=".5" d="M171 93.5l111.9-5.1-93.5-19.6L193.3.5z"/><path fill="#b99464" fill-opacity=".3" d="M504.5 183.6l-203 131 282-21.6 74-171.2z"/><path fill="#85764a" d="M65.4 78.2L-4 95.4l23-60.3 51.4.5z"/><path fill="#f5e5c7" fill-opacity=".6" d="M150.6 268.3l-57.1-11.6 29 22 49.2-7.7z"/><path fill="#00192c" fill-opacity=".4" d="M308 27.6l20 234 188-74.9-167.6 26.4z"/><path fill="#000308" fill-opacity=".8" d="M135.1 35.6l14.6 226L184 23.5l9-61z"/><path fill="#946e22" fill-opacity=".5" d="M349 58.1l-39.7 19 118.4-4 16.2-7.7z"/></g></svg>