<svg xmlns="http://www.w3.org/2000/svg" viewBox="0 0 620 414"><defs/><filter id="prefix__a"><feGaussianBlur stdDeviation="30"/></filter><rect width="100%" height="100%" fill="#45332c"/><g filter="url(#prefix__a)"><path fill="#e3e1db" fill-opacity=".7" d="M170.5 449.3h487V-37.5l-472.7 90z"/><path fill="#8a7b73" d="M348 49.9L173-24.2l-9 104.8L303 164z"/><path fill="#0c0000" fill-opacity=".6" d="M73.4 449.3l-111-94.3 432.9-47.2-107.8-51z"/><path fill="#080400" fill-opacity=".9" d="M-7.8-37.5l-29.7 443 174.8 43.8L157.2 13z"/><path fill="#70463a" fill-opacity=".5" d="M241.5 275.6l113.3-31.2 46 133.7L242 397.7z"/><path fill="#ebece9" fill-opacity=".7" d="M650.8 413.7L468.6 259 482-22.5l61.2-15z"/><path fill="#dcddda" fill-opacity=".8" d="M522 437.4l-64.5-84.5-83.8-390.4 22.5 472z"/><path fill="#290900" fill-opacity=".4" d="M394.3 28.3L243.4-37.5l49.2 182L323.3 49z"/><path fill="#8b8f8f" fill-opacity=".5" d="M152 16.5L167.5 433 214 125l66.8-162.5z"/><path fill="#d6d7dc" fill-opacity=".6" d="M204.4-37.5h31l-2 137.5-36.3 349.3z"/><path fill="#aaa9a1" d="M373.7 33.4L369.3-29l111.2 12L465 242z"/><path fill="#f3f3f6" fill-opacity=".6" d="M246 424.8l-109.9 19.4 80.2-137.3-31 35.8z"/><path fill="#e7b5c2" fill-opacity=".6" d="M320.2 366.7L287.5 388l2-79.5 78.4 14.8z"/><path fill="#041303" fill-opacity=".5" d="M246.3 274.6l24.7-1.2.7 109.3-17-3.2z"/><path fill="#3f2e1a" fill-opacity=".5" d="M352.1 372.7l-46.7 33.7 19.1-37.3 75.1-71.7z"/></g></svg>