<svg xmlns="http://www.w3.org/2000/svg" viewBox="0 0 620 414"><defs/><filter id="prefix__a"><feGaussianBlur stdDeviation="30"/></filter><rect width="100%" height="100%" fill="#4d2929"/><g filter="url(#prefix__a)"><path fill="#e5e6ed" fill-opacity=".4" d="M612.5 407.4l45-384.4L27.1 95.4l74.4 353.9z"/><path fill="#fafff7" fill-opacity=".3" d="M47.5 76.8l149.4 145.5 257.4-80.9L171.7-30z"/><path fill="#423a34" d="M397.7 76.5L171 34.4l386-72-72.4 245z"/><path fill="#574748" fill-opacity=".8" d="M325.7 304.4l-42.3-60.3 266.4 4.4-39 166.9z"/><path fill="#effef5" fill-opacity=".4" d="M224.3 379l-52.1-213.3 76-92.6 37.1 280.5z"/><path fill="#7b5648" d="M18.2 187.5l94-43 139.2 304.8L84.5 344.6z"/><path fill="#dcdcc1" fill-opacity=".7" d="M43.8 42.4L7 124.4l-20.3-80.8 56.2 7z"/><path fill="#dd99d3" fill-opacity=".5" d="M633.6-37.5l24 140.2-127 104.4L538 35.8z"/><path fill="#a8a9a3" d="M180.7 449.3H38.5h1.7l62.7-121.1z"/><path fill="#dcf5ff" fill-opacity=".4" d="M386 72l-125.9-2.2-54.5 48.6 255.8 65.2z"/><path fill="#5b6551" d="M177.8 24.5L172 73.9l30 57.4L304-25.4z"/><path fill="#a38da1" fill-opacity=".8" d="M449 47l32 26.6-39.5 121.1 15.8-94z"/><path fill="#3d2006" fill-opacity=".4" d="M235 449.3l100-140-82-123L429 285z"/><path fill="#0f1420" d="M100 330.6L-37.5 176.8 13.8 115l37 277.8z"/><path fill="#a6b2af" fill-opacity=".4" d="M484.4 224.5l-37.6 195.7-180.6 29 130.5-156.4z"/></g></svg>