<svg xmlns="http://www.w3.org/2000/svg" viewBox="0 0 620 414"><defs/><filter id="prefix__a"><feGaussianBlur stdDeviation="30"/></filter><rect width="100%" height="100%" fill="#60463b"/><g filter="url(#prefix__a)"><path fill="#bab5a3" fill-opacity=".6" d="M589.5 176.8L28.3 134.9l6.3 276.8 521 8z"/><path fill="#feede9" fill-opacity=".5" d="M622.2 439.6l-193-227.4-34.4 48.6 16 188.5z"/><path fill="#54503a" fill-opacity=".9" d="M400.6 449.3h-84l20.5-418 52.1-68.8z"/><path fill="#343526" fill-opacity=".9" d="M469.1 158.4l-123-182.1L657.5 2.7 507.1 239.5z"/><path fill="#70f2dc" fill-opacity=".2" d="M363.3 24.7L114.6-37.5l-152.1 400 269.8-108.2z"/><path fill="#a27f5d" fill-opacity=".5" d="M553.9 368.6l-114.6 10.7L553 134.4l104.6 81.9z"/><path fill="#0c2e23" fill-opacity=".3" d="M158.9 154.5L.5-25.9l-2 216.7 93.3 17.7z"/><path fill="#8a6b45" fill-opacity=".5" d="M255 129.6l349.3 12.6-153.6 76.3-158.9 81z"/><path fill="#b8a595" fill-opacity=".4" d="M297.6 95l-1.4 13.3-206.3 38.5L230 449.3z"/><path fill="#fae5e0" fill-opacity=".4" d="M491.4 266.4l-.2-62-102.7 65.2L410 377z"/><path fill="#6c6664" fill-opacity=".8" d="M2 151.6l5.5 297.7 118.2-104-71.7-32z"/><path fill="#26281f" d="M614.2-37.5l43.3 311-55.2-115.8-115.7-93.3z"/><path fill="#f1f5f8" fill-opacity=".6" d="M541.3 15.3l9.4 3.1-30.5-6.8L548.8-19z"/><path fill="#373828" d="M354.8 251.1L371 441.5l49-55-89.4-6.3z"/><path fill="#fbc8c3" fill-opacity=".5" d="M426.7 133.4l4.4 70.8L465 176l6.8-14.3z"/></g></svg>