<svg xmlns="http://www.w3.org/2000/svg" viewBox="0 0 620 414"><defs/><filter id="a"><feGaussianBlur stdDeviation="30"/></filter><rect width="100%" height="100%" fill="#444"/><g filter="url(#a)"><path fill="#c4c4c4" fill-opacity=".8" d="M202.5 81.4l323-48.5-8 163-293.7-18.6z"/><path fill="#cdcdcd" fill-opacity=".6" d="M5.8-28.3l208.8 477.6-252.1-43L153.8-37.4z"/><path fill="#0c0c0c" fill-opacity=".9" d="M626.5 416.8L650.3 4.6 549.8 34.9l-52.3 188.4z"/><path fill="#c3c3c3" d="M-37.5 202.2v78l202.4 3-6.8-23.6z"/><path fill-opacity=".5" d="M119 75.6L201 54l-76.8 206.4L39 160.6z"/><path fill="#f3f3f3" fill-opacity=".6" d="M507.1 327l41 27.8 46-7-84.8-39.7z"/><path fill="#fff" fill-opacity=".2" d="M177.5 155.5l46.8-125.2 6 411.7L54.5 218.7z"/><path fill="#212121" d="M55 60.8l10.6-14.5-94-83.8 56.5 272.2z"/><path fill="#ececec" fill-opacity=".9" d="M210.7 449.3L118.9 370l-74.3-20.4 67 99.6z"/><path fill="#777" d="M-37.5 449.3L27.9 247l283.8 202.3L52.1 328.6z"/><path fill="#f6f6f6" fill-opacity=".3" d="M93.5 108.7L26.9-7l187.7 83.8-34-114.3z"/><path fill="#838383" fill-opacity=".7" d="M463 200.5L547.4-31 397.7 59.8l71.2 61.8z"/><path fill="#cdcdcd" fill-opacity=".5" d="M295 15.3L190 45.8 334 36l31.5 150z"/><path fill="#fff" fill-opacity=".4" d="M366.2 189.9L324.5 74.6l-84.7 119.1-49.2-122.5z"/><path fill="#d6d6d6" fill-opacity=".5" d="M434.7 95.2L391-37.5 406 45l25-42.8z"/></g></svg>