<svg xmlns="http://www.w3.org/2000/svg" viewBox="0 0 620 408"><defs/><filter id="prefix__a"><feGaussianBlur stdDeviation="30"/></filter><rect width="100%" height="100%" fill="#673b33"/><g filter="url(#prefix__a)"><path fill="#cbc2b2" fill-opacity=".6" d="M652.7 31.7L617.3 404l-473 40.4-181.8-482z"/><path fill="#c1bfcc" d="M3.1 260.8L29.8 73.1 29 23.7l-45 6.8z"/><path fill="#3c2713" fill-opacity=".4" d="M331.3 196.2l-172-2.7-123.2 251-4.4-389.8z"/><path fill="#e3c59b" fill-opacity=".5" d="M657.5 121l-249.7 12.2-204.1 113.6 303.7 197.6z"/><path fill="#795e5b" fill-opacity=".9" d="M635.5 33.7l-225 27.6-118.4 156 55.2-254.8z"/><path fill="#e9dcf4" fill-opacity=".5" d="M193.8 437.1l-.8-178.7-67-23.5-13.1 180.2z"/><path fill="#aaadb6" fill-opacity=".9" d="M367.9-10.2L177.8-28l72.9 112 20.3 74.6z"/><path fill="#6f2b04" fill-opacity=".5" d="M239.5 444.4L205 97.1l-8 341 252.6-72.6z"/><path fill="#003883" fill-opacity=".3" d="M419.7 268.8l66.1 15.5 80 160.1-45.1-190.6z"/><path fill="#a3c0f1" fill-opacity=".4" d="M431.8 397l-22.7-121h79l73.8 168.4z"/><path fill="#5f3d43" fill-opacity=".7" d="M486.3 9.4l171.2-9-209.2 115.8L493.6 76z"/><path fill="#99b4cf" fill-opacity=".7" d="M452.6 51.3l27 29.1L400 136l-14.5-81.4z"/><path fill="#8c504b" fill-opacity=".8" d="M262.5 324l57.4-14.2-2 89 196 45.6z"/><path fill="#714647" fill-opacity=".6" d="M481.7 98.6l-81.8 25L325.7 40l-24 147.5z"/><path fill="#441a05" fill-opacity=".5" d="M201.5 167.4l5.8 74.8 24.5-13 5-114.4z"/></g></svg>