<svg xmlns="http://www.w3.org/2000/svg" viewBox="0 0 620 414"><defs/><filter id="prefix__a"><feGaussianBlur stdDeviation="30"/></filter><rect width="100%" height="100%" fill="#5a4328"/><g filter="url(#prefix__a)"><path fill="#bcbcbf" fill-opacity=".6" d="M2.2 337.1L193 363.8 581 76.3-28.8-13.8z"/><path fill="#191715" d="M369.3 219l-33.9 4.8 41 225.5 281.1-46z"/><path fill="#ced5e4" fill-opacity=".7" d="M493.8 235.9l7.8 84.3 46.5 3.1-31.5-103z"/><path fill="#766d64" fill-opacity=".8" d="M97.1-37.5l560.4 47-111.1 166.3L444.7 204z"/><path fill="#edefff" fill-opacity=".4" d="M391.9 45.8l-322-16.5 133.8 420L178.2 101z"/><path fill="#38180b" fill-opacity=".8" d="M183.3 98.3l2.7 35.9 39.2 15.7 29.6-22.8z"/><path fill="#04060e" fill-opacity=".7" d="M518 437.9l139.5-65.7-65.4-89-13.8-160z"/><path fill="#7c7455" d="M-37.5 26.6l125.9 5.1v128.4l-126 91.5z"/><path fill="#daafbb" fill-opacity=".5" d="M132 170.3L353.6 275l-110.2 62.5-94.2 29z"/><path fill="#f4f8cf" fill-opacity=".6" d="M253.8 38l35.6-7.5 227 75.3-10 7.3z"/><path fill="#4b4238" d="M281.4 43.8L279 96.6l185 15-450.7-137z"/><path fill="#eff" fill-opacity=".2" d="M41-37.5l291.8 176 88.8 45-81 42z"/><path fill="#404336" d="M142.2 316.3l-23 23.5-156.7 42.4 205.6 67z"/><path fill="#e5e6bf" fill-opacity=".7" d="M464.8 116.5l144.5-55.7 48.2-11.9-32.2 19.4z"/><path fill="#232627" fill-opacity=".8" d="M539.8 322.4l-256 126.9-20.3-129.4 97.1-14z"/></g></svg>