<svg xmlns="http://www.w3.org/2000/svg" viewBox="0 0 620 414"><defs/><filter id="prefix__a"><feGaussianBlur stdDeviation="30"/></filter><rect width="100%" height="100%" fill="#4d2d27"/><g filter="url(#prefix__a)"><path fill="#e2e0dc" fill-opacity=".9" d="M-18 449.3l5-468.4L657.4-1.7l-40.9 451z"/><path fill="#491d12" fill-opacity=".7" d="M239 435.7l-38.7 8.2L129 56.2l119-31.3z"/><path fill="#ebedeb" fill-opacity=".8" d="M657.5 20.3l-70.4 429H252l54.5-486.8z"/><path fill="#1e0f04" fill-opacity=".6" d="M154.8 38l56.9-7.2-62.3 165.4L124 171z"/><path fill="#b08374" fill-opacity=".8" d="M209 106.6L270.3 44l-24 216.5 2 188.7z"/><path fill="#a9a3a6" fill-opacity=".8" d="M213.9 267.1L151 243.4-32.7 384.8l102.5 64.5z"/><path fill="#dee0d9" fill-opacity=".8" d="M431.3 33.4L3.6-37.6l-5.5 458.8L155 36.8z"/><path fill="#47030a" fill-opacity=".7" d="M207 449.3l-8.6-164.7 16.4-7.3 40.2 139z"/><path fill="#000604" fill-opacity=".6" d="M135.4 95.7l63-70.5 73 74.3-18.6-51.3z"/><path fill="#5a3b2f" d="M243 149l14.2-40.3L133 192.1l27.6-112.4z"/><path fill="#8c8583" fill-opacity=".8" d="M152.6 280.7L95.9 286l80.4-49.4 25 212.7z"/><path fill="#e0dbe1" fill-opacity=".8" d="M230.8 325.7L288 158.4l99.7 263.5-113.3 27.4z"/><path fill="#e2e2dd" fill-opacity=".9" d="M-37.5 335.7l192.7-83.3-42.8-130.1-150 101z"/><path fill="#dcdad4" d="M301.3-5.3l-10 186-31-133.7-143.6-36.6z"/><path fill="#d2aa91" fill-opacity=".8" d="M221.8 278.3l56.2-182-75.8-23.9 99.3 78.2z"/></g></svg>