<svg xmlns="http://www.w3.org/2000/svg" viewBox="0 0 620 414"><defs/><filter id="a"><feGaussianBlur stdDeviation="30"/></filter><rect width="100%" height="100%" fill="#6e5135"/><g filter="url(#a)"><path fill="#e8e4dd" fill-opacity=".6" d="M649.5 449.3l-687-46L232.7 231 293 100z"/><path fill="#8c8876" fill-opacity=".8" d="M594.3 449.3L622.2-17 390.9 4.8l-97.6 107.3z"/><path fill="#f6f5fa" fill-opacity=".4" d="M214.3 43.8l106.8 342.7 83.6-202L192.3 205z"/><path fill="#5f3209" fill-opacity=".3" d="M367.4 426.7l95.9-320.6 105.8 85.5-75.3 257.7z"/><path fill="#fff" fill-opacity=".4" d="M35.8 385.3l92.3 64 125.2-109.8-188.4-74z"/><path fill="#0b0500" fill-opacity=".6" d="M313-17.2l49 128.6-63.9-69.3-162 51.4z"/><path fill="#9b9f95" fill-opacity=".9" d="M648.3 10.4l-321.6-48 271.5 215.8 3-210.9z"/><path fill="#63380f" fill-opacity=".6" d="M152.6 19.6l79.7 305.2L260 228-5.6 240.7z"/><path fill="#d5dce0" fill-opacity=".8" d="M432 319.7l-15.4 30L310.2 133l80 67z"/><path fill="#b2beaf" fill-opacity=".3" d="M80.6-37.5l-118.1 66 143.8 2.7 242 63z"/><path fill="#1f1c0f" fill-opacity=".5" d="M473.5 132.7L353.8 88.4l153.3 104.4 64.2-14.3z"/><path fill="#b07c49" fill-opacity=".5" d="M346.6 58.6l-384.1 348L131 307.3l36.6-.7z"/><path fill="#6d5342" fill-opacity=".8" d="M426.3 375.4L358.6 286l-2.7 15 49.3 121z"/><path fill="#faf1e0" fill-opacity=".6" d="M541.5 380.5l12.4 68.8 7.7-114.6 17.7-189.9z"/><path fill="#c2a690" fill-opacity=".9" d="M316.3 52l-79 14.1 93.8 26.4-74.9 298.6z"/></g></svg>