<svg xmlns="http://www.w3.org/2000/svg" viewBox="0 0 620 414"><defs/><filter id="prefix__a"><feGaussianBlur stdDeviation="30"/></filter><rect width="100%" height="100%" fill="#422a20"/><g filter="url(#prefix__a)"><path fill="#ead6c2" fill-opacity=".6" d="M401.3 167.8l-11.9 99.6 74.9 96.6-11.9-153.5z"/><path fill="#b8beb8" fill-opacity=".7" d="M535.7 386l121.8 23.8-30-109-51.3 17z"/><path fill="#e8d1b5" fill-opacity=".5" d="M243.9 90l29.5 124.8 23.3-81.4-83.3 1.7z"/><path fill="#77a2bd" fill-opacity=".6" d="M181.6 162l-40.2 123.3 56-57.6L136 192z"/><path fill="#000912" fill-opacity=".6" d="M495.8 418.5l-153.3-178-322 30.3-58 146z"/><path fill="#050605" fill-opacity=".7" d="M557.3 170l16.2 147.7-106.6 131.6 2-146.3z"/><path fill="#171008" fill-opacity=".8" d="M306.4-6.3l-54.5 119 140.4 68.2L465 20.1z"/><path fill="#f4fbff" fill-opacity=".4" d="M348 236.1l15.3-64.1 61.3 130.3 23.7-86.3z"/><path fill="#654b3e" fill-opacity=".9" d="M491.6 162.8l-48.4-65.2-31 101L525.8 280z"/><path fill="#7c6b4d" fill-opacity=".6" d="M229.6 85.7L324-37.5l-95.4 68.7L-37.5-32z"/><path fill="#070a06" fill-opacity=".6" d="M551 22.8L615.4 315l42.1-352.6-252.8 91z"/><path fill="#211810" fill-opacity=".9" d="M-37.5-25v175.6L209.3 177l4.3-83.5z"/><path fill="#fcdcd5" fill-opacity=".2" d="M587.3 175.1L569.1 117 504 100l69 137.3z"/><path fill="#b7a488" fill-opacity=".5" d="M63.7 248.7L39.5 198l-77 52.8L-1 236z"/><path fill="#e1d2b5" fill-opacity=".8" d="M205.9-37.5l-50.9 62-5-31.8-86.5-30.2z"/></g></svg>