<svg xmlns="http://www.w3.org/2000/svg" viewBox="0 0 620 414"><defs/><filter id="a"><feGaussianBlur stdDeviation="30"/></filter><rect width="100%" height="100%" fill="#574f30"/><g filter="url(#a)"><path fill="#b09571" fill-opacity=".9" d="M251 337.6l98.7-375.1-387.2 48 276 135.3z"/><path fill="#000a0b" fill-opacity=".8" d="M657.5 373.2l-416.8-89.1L211 144l-92.2 235.2z"/><path fill="#b2c0be" fill-opacity=".7" d="M579.8 132.2L604-14 439.3 105l6.3-142.6z"/><path fill="#003b4d" fill-opacity=".6" d="M654.9 411.5l-291.6-81.2L553.2 65.6l104.3 6z"/><path fill="#e1f2ff" fill-opacity=".4" d="M302.7 181.2L275.4 76l-50.6 210.3L471.4 155z"/><path fill="#6e2c00" fill-opacity=".6" d="M227.4 7.5L51.8 449.3-37.5 267 157.2 5z"/><path fill="#d0caca" fill-opacity=".6" d="M238 391.6l199-5.6 76 23-154.8-1.9z"/><path fill="#ffcc84" fill-opacity=".5" d="M258.2 72.9l64.2 13.8L247-16 112.4 315.8z"/><path fill="#002937" fill-opacity=".6" d="M315.3 37v130l221.4-15.3L414.9 27.4z"/><path fill="#929384" d="M459.4 159.1l21.1 131.3-45.5-91.8-43.9-37.3z"/><path fill="#010000" fill-opacity=".6" d="M219.4 145.6l16.5-41.7 19.1 87.4-137.3 110.2z"/><path fill="#fffaf2" fill-opacity=".3" d="M349.5-37.5L532 6.8l-81.1 14-119.7 11.9z"/><path fill="#0f1a18" fill-opacity=".9" d="M484.6 393.8l-237.8-18.7 196.2-132 46.5 48.3z"/><path fill="#ffebd3" fill-opacity=".3" d="M92 37l-97.3 68.4 26.1 17.4 106.6-44.3z"/><path fill="#3be9e9" fill-opacity=".3" d="M546.4 124.2l55-70 56.1 47.8-110.9 122.3z"/></g></svg>