<svg xmlns="http://www.w3.org/2000/svg" viewBox="0 0 620 929"><defs/><filter id="prefix__a"><feGaussianBlur stdDeviation="30"/></filter><rect width="100%" height="100%" fill="#2b1b15"/><g filter="url(#prefix__a)"><path fill="#d0ccc7" fill-opacity=".8" d="M-56.2 955.9l716.7 29.3L676.8-50l-694.6-6.1z"/><path fill="#7f6550" fill-opacity=".8" d="M183.6 599.9L25 383.6l87.5-174.2L558.9 169z"/><path fill="#240b00" fill-opacity=".6" d="M485.5 237L475 440.5 367 177.1l84.2-4.4z"/><path fill="#ddf1ff" fill-opacity=".4" d="M349.1 859.3l217-884.7 92.2-6.2-53.4 953z"/><path fill="#f8eae3" fill-opacity=".7" d="M33 410.4L-.4 985.2l247.9-41.7-132.8-148.4z"/><path fill="#e0edf9" fill-opacity=".4" d="M378.9 216.6l-53 42.5L140.8-56.2l273.6 963.8z"/><path fill="#4b1a00" fill-opacity=".3" d="M672.8 984.9l-35.2.3-570.5-323 137.6 235.2z"/><path fill="#3a1403" fill-opacity=".7" d="M215.2 474l28-148.1-25.1-96.6-55.2 249z"/><path fill="#74300e" fill-opacity=".4" d="M473.6 458.7l37.3-223.2-231.1 254.8L267 385.8z"/><path fill="#b8bfc0" d="M455 177.8l89.7 169.8 59.5-403.8-660.4 79.4z"/><path fill="#090602" fill-opacity=".8" d="M346.6 187.6l73.6-14.9 62 46.8-179.5 15z"/><path fill="#e1e2e6" fill-opacity=".6" d="M279.4 548.3l159 228.3 173-272.5 53.8-86.4z"/><path fill="#fdfffd" fill-opacity=".7" d="M77.3 468.9l-62.8 33-8 135.7 68.6-14.2z"/><path fill="#434e48" fill-opacity=".6" d="M25.4 738.1l19.2-27.6-71-160-29.8 231.2z"/><path fill="#af7a3e" fill-opacity=".5" d="M200.3 412.6L92.2 213.7-4 441.3l-35.6 67.5z"/></g></svg>