<svg xmlns="http://www.w3.org/2000/svg" viewBox="0 0 620 414"><defs/><filter id="a"><feGaussianBlur stdDeviation="30"/></filter><rect width="100%" height="100%" fill="#39635e"/><g filter="url(#a)"><path fill="#b5a08b" fill-opacity=".7" d="M38.3 449.3l146.2-263L551.7-37.6-37.5 6z"/><path fill="#c6c0b6" fill-opacity=".8" d="M657.5 52L584-37.4l-76.3 328.1 103.4 57z"/><path fill="#fac3d4" fill-opacity=".5" d="M243.2 381.4l261 67.9-98.5-211L249.9 258z"/><path fill="#504534" d="M151.4 136.6l410.7-72L495.5 342 186 63.5z"/><path fill="#7b776b" d="M166.1 137.6l13.6 254-85.2 24.5-54-357.2z"/><path fill="#f0f8ff" fill-opacity=".5" d="M45.5 174.9L108 198-37.5 321 6.8-37.5z"/><path fill="#d1c09f" fill-opacity=".5" d="M63 43.4L443.7 153l10.9-103.5-370.3-87z"/><path fill="#0b1112" fill-opacity=".8" d="M461.9-14.5l-22 241.4L456 359.6l71.5-385.3z"/><path fill="#8a4a1f" fill-opacity=".9" d="M657.5 428.7l-39.2-120.2-31.2 19.4-154 121.4z"/><path fill="#1f1a19" fill-opacity=".7" d="M289.7 213.6L63.7 231l286-93.7L322 327.4z"/><path fill="#151a19" fill-opacity=".8" d="M564.3 349L404 424l69.5-48.6L379.8 143z"/><path fill="#1b221f" fill-opacity=".9" d="M183.8 449.3h72.4L237.6 293l-53.8-17.9z"/><path fill="#9f6023" fill-opacity=".7" d="M525-30l67.4 24.7-54 150.9-64.4 133z"/><path fill="#c6b5aa" fill-opacity=".5" d="M351.9 183l56 22.1 11.8 244.2H319.2z"/><path fill="#b3b8aa" fill-opacity=".6" d="M30.5 379.3l161.8 10.4L49.2 153l127.6 145.8z"/></g></svg>