<svg xmlns="http://www.w3.org/2000/svg" viewBox="0 0 620 929"><defs/><filter id="prefix__a"><feGaussianBlur stdDeviation="30"/></filter><rect width="100%" height="100%" fill="#5a3e36"/><g filter="url(#prefix__a)"><path fill="#eeeee7" fill-opacity=".9" d="M131.7 159.7L17.1 281.2-56.2 6.5l591.5-62.7z"/><path fill="#abb3a5" fill-opacity=".7" d="M676.8 933.4V617.6L141.2 328.4l54 601.3z"/><path fill="#a18a79" fill-opacity=".9" d="M418.8 496.8L12.3 217 573-56.2 188.3 170.2z"/><path fill="#f2f5f3" fill-opacity=".8" d="M466 703.3l63.8-107.8 147-49V819z"/><path fill="#83857e" fill-opacity=".9" d="M422.8-1l254-7.7V222l-224-12.7z"/><path fill="#000d13" fill-opacity=".6" d="M676.8 253l-27.6 275.4-222 25.4-135-273.3z"/><path fill="#616054" fill-opacity=".7" d="M367.6 551.2l-376.3-99-47.5 512.7 353.8-17.8z"/><path fill="#62584e" d="M516.4 413l83.5-285.6-350.6 276.9L447.4 27.9z"/><path fill="#f0e9df" fill-opacity=".7" d="M223.9 418.8l45.4 92.5-92.6-10.1-38-67.2z"/><path fill="#f6f2e6" fill-opacity=".7" d="M222 338.6l6.3-69.3 38.8-5.1 42 58z"/><path fill="#604629" fill-opacity=".5" d="M144.4 413.3l129.2 26.2-22.8-89.7-307-165.5z"/><path fill="#121411" fill-opacity=".6" d="M391.2 507l-85-223.2-133.8-65.3L300 155z"/><path fill="#fcf2e5" fill-opacity=".5" d="M270.7 373.4L273 462l41.4 30.8L344 384.3z"/><path fill="#e7f3f6" fill-opacity=".3" d="M676.8 985.2L540 864l-78.4-50.4-91 111.8z"/><path fill="#ffdbb5" fill-opacity=".5" d="M543.6 104.1l-4.7 51.2-44.6 126-11.3-135z"/></g></svg>