<svg xmlns="http://www.w3.org/2000/svg" viewBox="0 0 620 414"><defs/><filter id="prefix__a"><feGaussianBlur stdDeviation="30"/></filter><rect width="100%" height="100%" fill="#424242"/><g filter="url(#prefix__a)"><path fill="#bababa" fill-opacity=".7" d="M255-37.5h323.6l79 294-390.7-139.3z"/><path fill="#222" fill-opacity=".9" d="M374.7 218L433 449.3l60.3-311.7-66.8-95.7z"/><path fill="#dedede" fill-opacity=".8" d="M207.6 400.8l28.3-48.7-28.1-60.3-22.5 47z"/><path fill="#f1f1f1" fill-opacity=".5" d="M460.4 313.4l26.9-41.4 135.6-110.7L564.5-14z"/><path fill="#dedede" fill-opacity=".8" d="M-37.5 99.5l40 49.2-40-145.6 139.2-12z"/><path fill="#e8e8e8" fill-opacity=".6" d="M354.6-37.5l40.9 118.4-22.8 217.5-23.5-86.5z"/><path fill="#c1c1c1" fill-opacity=".6" d="M113.3 15l5.1 147.8 63.5-43-30.3-95.3z"/><path fill="#161616" fill-opacity=".9" d="M553.2 418.5l-397 30.8 244.1-187L553.6 319z"/><path fill="#d4d4d4" fill-opacity=".7" d="M657.5 314.1l-125-41.4 67.2 82.1 57.8-94z"/><path fill="#1e1e1e" d="M171.5 313.6L47.7 70.2-37.5 390l268.3 59.4z"/><path fill="#cdcdcd" fill-opacity=".7" d="M150.6 277.8l-13-33.7L214 237l2.9 28z"/><path fill="#5f5f5f" fill-opacity=".8" d="M404.7 132l18.4-31.7 75-39.8-130-98z"/><path fill="#010101" fill-opacity=".8" d="M657.5 264l-130.3-44.8-13.8 57.6 144.1 16.5z"/><path fill-opacity=".6" d="M348.8 234.4l24.4 19.7-127.1 87.6-5.6-95.2z"/><path fill="#0f0f0f" fill-opacity=".6" d="M294.5 10.7l19.1-31.3-40.9 48.7 17 81.9z"/></g></svg>