<svg xmlns="http://www.w3.org/2000/svg" viewBox="0 0 620 414"><defs/><filter id="prefix__a"><feGaussianBlur stdDeviation="30"/></filter><rect width="100%" height="100%" fill="#633c40"/><g filter="url(#prefix__a)"><path fill="#d5bfbb" fill-opacity=".7" d="M-13.8 449.3L610.3 331 453.6 5.6 191.8 31.5z"/><path fill="#fbf5c1" fill-opacity=".8" d="M544.2 91.3l77.3 21.8-30.6-142.4-36.8-4.6z"/><path fill="#000300" fill-opacity=".5" d="M72.9 298.1l105.6 16.5L57.4 15.3l-95 375.1z"/><path fill="#f1e2b8" fill-opacity=".6" d="M127.4 64.7l8.5 65.6 312.9.5L485 6z"/><path fill="#111505" fill-opacity=".6" d="M607.9 108.5l-138.3-4.8-66.1 60 254 64.4z"/><path fill="#816680" fill-opacity=".9" d="M190.6 418.7l467-31.4-42-133.5-224.7.3z"/><path fill="#d0ebff" fill-opacity=".7" d="M177 446.8L74.1 296-37.5 398l166.3 51.3z"/><path fill="#ede8b8" fill-opacity=".7" d="M19.1 149.7l18-97.6-74.6 9.2v239z"/><path fill="#a46643" fill-opacity=".8" d="M86 319.2l37.8-148.5 112 58.9-91 113.6z"/><path fill="#fbf8ea" fill-opacity=".4" d="M405.4 12.6L197 189l212 42.2L209 32.5z"/><path fill="#212b29" fill-opacity=".7" d="M-9.2 51.8L-37.5-32 214.8 78.7l-.5-43.1z"/><path fill="#bc9cbd" fill-opacity=".9" d="M293.3 190.4l79-26L527.4 197l130 101.2z"/><path fill="#15000f" fill-opacity=".3" d="M382 406l8-193.4 114.2 159.9-66 5z"/><path fill="#e9ddfa" fill-opacity=".4" d="M657.5 324.3l-138-27.4L180.9 325l322.9-4.6z"/><path fill="#563623" fill-opacity=".8" d="M217.5 145.8l-16.7 33.9-46.5-26.2 48.2-22z"/></g></svg>