<svg xmlns="http://www.w3.org/2000/svg" viewBox="0 0 620 414"><defs/><filter id="a"><feGaussianBlur stdDeviation="30"/></filter><rect width="100%" height="100%" fill="#46242d"/><g filter="url(#a)"><path fill="#b6b7ab" fill-opacity=".6" d="M-37.5 399.6l461 26.2L390-5.3-37.5-21.8z"/><path fill="#e4e4ea" fill-opacity=".6" d="M-23.5 54l-14-57.9 695 .5-58 51.4z"/><path fill="#160815" fill-opacity=".5" d="M134.7 333.3l153.7-318-140.2 429.6-122-85.5z"/><path fill="#fff8f9" fill-opacity=".5" d="M445.6 418.3L320.4 162.8l20.4 176.5-127.4 12.8z"/><path fill="#32201b" fill-opacity=".5" d="M238 53.8l-56 82.8 111 216.8L316.5 54z"/><path fill="#f2ebf5" fill-opacity=".7" d="M403.2 164.2l-10.9-53.5-62.7-35.9-58.8 19z"/><path fill="#5c434d" fill-opacity=".9" d="M642.8 248.7l14.7-110.4-346.8 10.4 85 129z"/><path fill="#1c1820" d="M426.5 146l107.3-8.7 59-85.2H332.6z"/><path fill="#d8dadc" fill-opacity=".7" d="M599 213.4l6.5-17.5 11.8-100.5 25.5 236.4z"/><path fill="#1c1618" fill-opacity=".5" d="M371 340.3l286.5-48-501.5 157h215.5z"/><path fill="#f6c4bc" fill-opacity=".4" d="M280.7 216l83.3-64-141.4 15.7 55.7-75z"/><path fill="#0d0b02" fill-opacity=".4" d="M117 110.2L34 40-.8 288.7-37.5 32.9z"/><path fill="#ffeeb7" fill-opacity=".5" d="M203 101.2l-103.7 3 15.5-53.8-21-88z"/><path fill="#c0aba3" d="M208.8 240l-55.5 209.3L248 241.9l17.4 207.4z"/><path fill="#eee7eb" fill-opacity=".8" d="M330.8 386.8l34.7 2.6 12.8-129-20.3-52.8z"/></g></svg>