<svg xmlns="http://www.w3.org/2000/svg" viewBox="0 0 620 414"><defs/><filter id="prefix__a"><feGaussianBlur stdDeviation="30"/></filter><rect width="100%" height="100%" fill="#4b4b4b"/><g filter="url(#prefix__a)"><path fill="#c7c7c7" fill-opacity=".6" d="M47.2 95.4l345.9 11.2 20.8 137.8-301.5-44.1z"/><path fill-opacity=".7" d="M657.5 412.2L621-37.5l-99.6 294.7-247.7 192z"/><path fill="#040404" fill-opacity=".7" d="M249.5 220.1l-47.8-77.7-6.5 201.3L392.3 254z"/><path fill="#fcfcfc" fill-opacity=".5" d="M249.2 308.5l16.2 72 76.6-7-16.5-50.4z"/><path fill="#fff" fill-opacity=".4" d="M518 99.5l113.6 12.9-139-70-47.5 156z"/><path fill="#fff" fill-opacity=".3" d="M95 126.7l37.5-5.8 110.4 320.9-83.8 7.5z"/><path fill="#bfbfbf" fill-opacity=".5" d="M352.4 400.8l-3.9-118.2 80.7 73.2-23-142.7z"/><path fill="#181818" fill-opacity=".7" d="M-37.5 292l8.2 157.3 97.6-35.9L73.6 136z"/><path fill="#111" fill-opacity=".5" d="M321.9-37.5L657.5-4.4l-352.1 118 49.4 335.7z"/><path fill="#010101" fill-opacity=".9" d="M283.1 449.3L178.5 306.6l22.3-6.8 12-93.2z"/><path fill="#0b0b0b" d="M438.8 173.4l28.6 266.9L411 240.7l12.6-56.2z"/><path fill="#0a0a0a" fill-opacity=".7" d="M83.8 195.2l6-49.2-111.4 28.4 10-192.3z"/><path fill="#0b0b0b" fill-opacity=".7" d="M153.5 122l2.7 10.5 56.7 6-17.7-27z"/><path fill="#c3c3c3" fill-opacity=".5" d="M230.8 258.4l8.7-43.3-38.7-100.5L342 95.9z"/><path fill="#f8f8f8" fill-opacity=".5" d="M61.3 120.6l-4.4 30.5 108.3-60.3-34 101.3z"/></g></svg>