<svg xmlns="http://www.w3.org/2000/svg" viewBox="0 0 620 929"><defs/><filter id="prefix__a"><feGaussianBlur stdDeviation="30"/></filter><rect width="100%" height="100%" fill="#35474e"/><g filter="url(#prefix__a)"><path fill="#bec3be" fill-opacity=".7" d="M-52.6 250.8l30.8-292.9L671-56.2 628.5 442z"/><path fill="#cda583" d="M-56.2 321.2L46 761.3l553 181.9-442.7-266.8z"/><path fill="#251a0f" fill-opacity=".8" d="M543.2 796.5L303.4 151l120 36.3 116.2 321.5z"/><path fill="#dc9f72" fill-opacity=".8" d="M491.4 621.6l-76.3-2.1-67.5 365.7 176-117.2z"/><path fill="#0c0700" fill-opacity=".7" d="M91.4 93.3l212-28L182.5-33 95.8 47.2z"/><path fill-opacity=".6" d="M74.4 281.6l127.4 483.7 286-183.2-276.6-286z"/><path fill="#ce986e" fill-opacity=".9" d="M363.3 443L83.5 114.8l143.3-69 174.6 336z"/><path fill="#f0c7a4" fill-opacity=".8" d="M135.4 508.8L103 821.6-56.2 485.9l144.4 9.8z"/><path fill="#a6e0ff" fill-opacity=".7" d="M676 378.9L628.3-56.2 228.2-44l105 189.8z"/><path fill="#a1cce2" fill-opacity=".9" d="M17.8 341.8l103.8-110-56-288-121.8 196z"/><path fill="#dacfb9" fill-opacity=".3" d="M447.8 211.2l102.7 380.3 56.6 147.3 69.7-643.7z"/><path fill="#dfa372" fill-opacity=".9" d="M71.1 793.3l1.8-78L522.2 786l-229.3 32.7z"/><path fill="#0a0e0f" fill-opacity=".8" d="M265.6 752.6l-162.9-114 280.1 5.2 52.7 98z"/><path fill="#0e1b1d" fill-opacity=".8" d="M320 931.2l5.1-90.4-381.3-64.6 268.5 209z"/><path fill="#1b292b" fill-opacity=".8" d="M149.9 484.8l14.9-163-54.8-51-166.2 228.5z"/></g></svg>