<svg xmlns="http://www.w3.org/2000/svg" viewBox="0 0 620 414"><defs/><filter id="prefix__a"><feGaussianBlur stdDeviation="30"/></filter><rect width="100%" height="100%" fill="#5d4e36"/><g filter="url(#prefix__a)"><path fill="#b9bab5" fill-opacity=".7" d="M426.5 119.9L342 6.8-11.4 50l194 256.8z"/><path fill-opacity=".7" d="M-37.5 428l27-153.4L622 240.5l28.6 196.2z"/><path fill="#d2e1e7" fill-opacity=".6" d="M529.4 26l-1 87.6 97-16.5 8.4-74.8z"/><path fill="#807d72" fill-opacity=".8" d="M254.5 376.1L39.7 198.6l418.5-54-237.8 161.8z"/><path fill="#010101" fill-opacity=".9" d="M657.5 162.8l-67.3-38-9 48.8 28.6 275.7z"/><path fill="#bcbcb7" fill-opacity=".8" d="M403.2 182.4L-37.5 64.2l444.9-6.6 4.3 89.9z"/><path fill="#464436" fill-opacity=".8" d="M266.6 316.3l-126.4-94 370 137.1-152-198.3z"/><path fill="#231b00" fill-opacity=".6" d="M87 119l-32.8-10.3-91.7 200 118-137.2z"/><path fill="#eaeddf" fill-opacity=".3" d="M164.2 236.4l-16.7-274-69 213.4L42.6 235z"/><path fill="#050301" d="M173.4 425l-38.3-169.5-172.6 22 4.6 136.6z"/><path fill="#a19e8c" fill-opacity=".7" d="M-37.5 165V27l84.2 10-15.2 117.4z"/><path fill="#7e7a76" fill-opacity=".7" d="M377.3 40.2L74.8 52.6l141.5-90.1h143.1z"/><path fill="#7c6337" fill-opacity=".4" d="M135.4 315.8l31.5-114 141.9 138-118.4 49.4z"/><path fill="#4b3b1c" fill-opacity=".7" d="M411 355l-2.2-339.7 115.3-52.8 8 354z"/><path fill="#c6def1" fill-opacity=".5" d="M559.2 210.5l-1.7-74.6L585 207l-44.1 3.6z"/></g></svg>