<svg xmlns="http://www.w3.org/2000/svg" viewBox="0 0 620 414"><defs/><filter id="prefix__a"><feGaussianBlur stdDeviation="30"/></filter><rect width="100%" height="100%" fill="#28162e"/><g filter="url(#prefix__a)"><path fill="#fd6a38" fill-opacity=".7" d="M496.5 218.7L474.2 25.2l-314.6 36 248 217.3z"/><path fill="#ffb419" fill-opacity=".9" d="M393.3 52.6L345.6 27l69.3 270.3 12-141.7z"/><path fill="#6d2149" d="M342.2 312l22.5-172.7-32.9-75.1L295 179.7z"/><path fill="#ffb71e" fill-opacity=".8" d="M186.2 127l58.2-65 46.2 12.6-3.4 60.3z"/><path fill="#811146" fill-opacity=".6" d="M446.4 141l32.4-178.5 38.8 341-124.8 25.9z"/><path fill="#413cae" fill-opacity=".6" d="M192.3 194l-120.1 4.4 46.7 156.2-1-112.2z"/><path fill="#e863fe" fill-opacity=".6" d="M341.5 282.1l-9.7-49.1 56.7-39-31.8-49.9z"/><path fill="#d81121" fill-opacity=".4" d="M146.8 99.3l269.5-69.5-220.9-11.4L278 183.8z"/><path fill="#170200" fill-opacity=".7" d="M296.2 449.3v-98.6l361.3-110.2-27 208.8z"/><path fill="#250e21" fill-opacity=".7" d="M-31-37.5l235.2 7.2 7 91.8L-6.3 337z"/><path fill="#0b0100" fill-opacity=".6" d="M616.9-31.2L485 78.8l88.6 151.5L651 124.7z"/><path fill="#fe699e" fill-opacity=".4" d="M486.6 139.7l-38.8 7.3L511 311.5l2.2-13.6z"/><path fill="#ff3f35" fill-opacity=".7" d="M336.2 42.4l71.6 280.2-15.5-126.7 3.7-48.6z"/><path fill="#120c11" fill-opacity=".7" d="M43.8 265.7L13.1-37.5l-50.6 445.1 285.3 41.7z"/><path fill="#fffe29" fill-opacity=".8" d="M287 93.7l-31.3 42-33.1-50 42.1-16.2z"/></g></svg>