<svg xmlns="http://www.w3.org/2000/svg" viewBox="0 0 620 414"><defs/><filter id="a"><feGaussianBlur stdDeviation="30"/></filter><rect width="100%" height="100%" fill="#693c3b"/><g filter="url(#a)"><path fill="#d5d0c9" fill-opacity=".7" d="M-21.6-35.1L165 449.3l125.5-301.6 367-133.4z"/><path fill="#8c8483" fill-opacity=".6" d="M114.3 449.3l-55.2-333 572.5-63.7-13 340z"/><path fill="#fffff9" fill-opacity=".6" d="M290.6 135.1L-37.5 46.3l6-83.8 381.5 1z"/><path fill="#00040f" fill-opacity=".5" d="M102.4 99l-140 103.2 48.5 247 101-85z"/><path fill="#145467" d="M498.4 270.8L600.6 341 504 449.3h-95.4z"/><path fill="#f6e0f7" fill-opacity=".4" d="M451.7 371l-115.3 78.3-190.6-250.5-63.5 250.5z"/><path fill="#080a14" fill-opacity=".7" d="M383.1 321.4l-34.6-172.7-40.7 123 26.7 47z"/><path fill="#1e1a1a" fill-opacity=".8" d="M268.3 235l6.1 76.7-55.2-3 12.6-90z"/><path fill="#352626" d="M409.8 174.4l-29 27.3-8.6-125 35.4 16.8z"/><path fill="#ffdbc2" fill-opacity=".3" d="M483.6 202.7l174 82.1-261.9 38.3-33.1-88z"/><path fill="#17090a" fill-opacity=".7" d="M521.2 212.2L510.8 79l37.2 33 7 113.1z"/><path fill="#cac7cb" fill-opacity=".8" d="M399.1 23.7l142.7-61.2 15 117.2-151.6 19.1z"/><path fill="#f6b7a6" fill-opacity=".4" d="M234 356l109.2-164.4-151.4-122L375.1 420z"/><path fill="#957b55" fill-opacity=".7" d="M248 142.2l-70.5 48.4-135.4-33.4-79.6-114.8z"/><path fill="#9d665d" d="M557 210.2L657.5 299V-7L545.2-22.2z"/></g></svg>