<svg xmlns="http://www.w3.org/2000/svg" viewBox="0 0 620 414"><defs/><filter id="prefix__a"><feGaussianBlur stdDeviation="30"/></filter><rect width="100%" height="100%" fill="#474648"/><g filter="url(#prefix__a)"><path fill="#b3b1a9" fill-opacity=".9" d="M-16.2-28.6l-21.3 466 695 11.9-30.7-486.8z"/><path fill="#edefed" d="M612 389.4l-230.6 59.9-419-60.3 443-44.1z"/><path fill="#413525" fill-opacity=".6" d="M308 311.2L300.4 139l135.9-39.5.5 192.3z"/><path fill="#281301" fill-opacity=".4" d="M-37.5 437.1l49.9-181.4 191.8-123 54.7 46.3z"/><path fill="#0d0f0e" fill-opacity=".7" d="M549.5 373.7L509.8 82.8l69.3 232.8 1.7 56.2z"/><path fill="#edf6fd" fill-opacity=".6" d="M642.8-37.5l-293.6.4L527 119.2l130.5 302.2z"/><path fill="#e9e3dc" d="M186 210.2l-27.1 10.2-55 193 48.4 27.4z"/><path fill="#915100" fill-opacity=".5" d="M514.2 352.4l-77-8-13.6-65.4 59-69.5z"/><path fill="#313230" d="M372.2 127.6l105.9-29.8 72.1 66.4-47.7-54.5z"/><path fill="#3c4044" fill-opacity=".5" d="M106 355.8l-103.3 32L133.9 186l-5 155.2z"/><path fill="#555a4a" fill-opacity=".8" d="M311.5 348.5L269 329.1l51.8-23.7 59.6 40.4z"/><path fill="#a9b3b6" fill-opacity=".6" d="M95.4 178L14.8 291.1 91 310.7l-34.4 84z"/><path fill="#e1f1ff" fill-opacity=".4" d="M543.2 274.6L485 107.3 332.5 156h92.8z"/><path fill="#602b00" fill-opacity=".6" d="M218 139.7L164 159l47 93.5 26.8-73.7z"/><path fill="#dad9d4" fill-opacity=".8" d="M264.7 420.7L211 330.8l99.3-44.3-51.8-99.3z"/></g></svg>