<svg xmlns="http://www.w3.org/2000/svg" viewBox="0 0 620 414"><defs/><filter id="a"><feGaussianBlur stdDeviation="30"/></filter><rect width="100%" height="100%" fill="#544133"/><g filter="url(#a)"><path fill="#cdd9de" fill-opacity=".5" d="M-33 113.1L72 419l339.7 30.3L215.3-37.5z"/><path fill="#341e10" d="M178.3 449.3l-7.6-276.1L203.2 46l83.8 57.7z"/><path fill="#000101" fill-opacity=".8" d="M657.5 405.4l-262.7 43.9-39.3-179.5 160.1-81.1z"/><path fill="#cde4f1" fill-opacity=".8" d="M165.4 449.3H41l54.8-188.7L173-37.5z"/><path fill="#fff5f2" fill-opacity=".6" d="M346.3 258.2L244 241.7l-18.7 207.6 163.3-19.4z"/><path fill="#bfc5be" fill-opacity=".7" d="M452 82.3l-383.7-62 159.8-57.8 40.5 134.9z"/><path fill="#987e70" fill-opacity=".7" d="M467.2 182.9L335.9 114l-88.4 62 180 67.3z"/><path fill="#29251d" d="M453.1-24.2l-20 186.2L536 339.3 624.6 4.6z"/><path fill="#9c8587" fill-opacity=".7" d="M593.8 305l-17-18.3-19.5-131 100.2-31z"/><path fill="#32190b" fill-opacity=".7" d="M159.1 449.3L261.8-37.5l-41 396 8.3 90.8z"/><path fill="#080400" fill-opacity=".9" d="M311 87l-68.8 46.4 66.6-9.6 348.7 5.3z"/><path fill="#020907" fill-opacity=".7" d="M402 449.3l-81-306.7 111.4 5.6-81.6 15.5z"/><path fill="#cad8e0" fill-opacity=".7" d="M114 368.6l.6-373.2 75.3 27.9-24 198.5z"/><path fill="#737973" d="M-12.8 34l24.4 47 41.2 236-90.3-38.3z"/><path fill="#000211" fill-opacity=".5" d="M34.6 336L86 391.3l-123.5-38.8 128.3-99z"/></g></svg>