<svg xmlns="http://www.w3.org/2000/svg" viewBox="0 0 620 414"><defs/><filter id="prefix__a"><feGaussianBlur stdDeviation="30"/></filter><rect width="100%" height="100%" fill="#4e3526"/><g filter="url(#prefix__a)"><path fill="#ccc0b8" fill-opacity=".7" d="M469.4 434l159.3 15.3 23-301.6-272.4 88z"/><path fill="#081f00" fill-opacity=".7" d="M183.3 23.3L565 189.6l-83.5 58.2 43.3-285.3z"/><path fill="#fac3a4" fill-opacity=".4" d="M300.6 277.8L453 308l-205.6 43.3-14-41.6z"/><path fill="#171410" fill-opacity=".7" d="M441.3 288l-1.2-24.7 93.4 39.2-33.4 51.8z"/><path fill="#000104" fill-opacity=".5" d="M-37.5 449.3V.7l213.8-38.2 29.8 486.8z"/><path fill="#152005" d="M657.5 13l-380 192.1 27.4 18.7L201.5-37.5z"/><path fill="#c69881" fill-opacity=".6" d="M446.6 109.7l204.2 129.1L520.2 86.2 377.3 341z"/><path fill="#d9edf3" fill-opacity=".6" d="M657.5 305l-29 106.5-163.3 4 86.7-94.1z"/><path fill="#cf996b" fill-opacity=".4" d="M169-37.5l82.6 312.9 21.8-98.6L193-34.4z"/><path fill="#dcc8cb" fill-opacity=".7" d="M373.2 167.1l-46.2 8-18.2 17 88.6-5.9z"/><path fill="#151e07" d="M458.2-37.5h181l18.3 223-82.8-32.4z"/><path fill="#07100a" fill-opacity=".7" d="M391.1 279.2L332.8 309l-8-110.4 53-12.6z"/><path fill="#ac7f63" fill-opacity=".7" d="M338.3 249.5l-94.7 62.2-40 87.2 75.2-34z"/><path fill="#cbc4c1" fill-opacity=".6" d="M621.2 291.6l-57.9-113.1-62 87.4-34.1-53.7z"/><path fill="#101800" fill-opacity=".6" d="M227.9 434.2l223.3-7.7-71.4-73.6-56-27.4z"/></g></svg>