<svg xmlns="http://www.w3.org/2000/svg" viewBox="0 0 620 414"><defs/><filter id="a"><feGaussianBlur stdDeviation="30"/></filter><rect width="100%" height="100%" fill="#56352b"/><g filter="url(#a)"><path fill="#faecde" fill-opacity=".6" d="M340.5 449.3L165-37.5 649.8 239l7.7 190.4z"/><path fill="#835e4b" d="M48.4 449.3L22.3-37.5l370.8 248-90.6 222.3z"/><path fill="#dfeef0" fill-opacity=".5" d="M162.8 445.1l466.9-1L624 49.5l-77 153z"/><path fill="#c7ae9f" fill-opacity=".7" d="M253 197.9l96.7-180.2-5.8-43.4L107.8.5z"/><path fill="#351b15" fill-opacity=".7" d="M402.8-15.5l203.9-22-48.2 272.4-72-37.8z"/><path fill="#720700" fill-opacity=".8" d="M328.6 284.3l-91.3-49.1 10.2 126.6 82.6-7.5z"/><path fill="#4b301e" fill-opacity=".7" d="M13 215.8l195.3 171.7-31.5-150.4-61-112.1z"/><path fill="#971c03" fill-opacity=".5" d="M401.5 245.6L324.3 63l85 75-180.7 60z"/><path fill="#967f70" fill-opacity=".9" d="M4.1 66.8L283.4-37.5l-77.5 142.9L42 161.3z"/><path fill="#ddd6c9" fill-opacity=".8" d="M362 167.6l-30.7-52.3 13.8-152.8-123.7 115z"/><path fill="#d8d7d5" fill-opacity=".8" d="M657.5 449.3L384.4 257.2l69-72.9 204.1 90.3z"/><path fill="#819289" fill-opacity=".5" d="M252.8 449.3l26.4-80-316.7-1.4 21 71.2z"/><path fill="#730400" fill-opacity=".7" d="M199.8 100l106.6 59.1-9.2 69.8L253.3 116z"/><path fill="#877563" fill-opacity=".6" d="M651.2 244.1l-141-30.7L627.9 53.5l-60.4 128.9z"/><path fill="#bcc495" fill-opacity=".4" d="M183.6 215.5l74.6 103-92.3-8 101.7-103.2z"/></g></svg>