<svg xmlns="http://www.w3.org/2000/svg" viewBox="0 0 620 414"><defs/><filter id="prefix__a"><feGaussianBlur stdDeviation="30"/></filter><rect width="100%" height="100%" fill="#4f372b"/><g filter="url(#prefix__a)"><path fill="#f8f8fb" fill-opacity=".7" d="M657.5 449.3v-201L216.5 70l-66.8 347.3z"/><path fill="#090e15" fill-opacity=".9" d="M48 449.3L-37.5 9.2l178.5 114 69.7 155.6z"/><path fill="#2f261b" d="M398 200L336.5-7.8l150.7-29.5L604 180.9z"/><path fill="#c2b0a8" fill-opacity=".7" d="M394.5 64.4L172.7 95.7l-112-68 247.6 336z"/><path fill="#fbb69b" fill-opacity=".4" d="M67.8 77.5l204.4-115 3.2 144.3-135-144.3z"/><path fill="#eef7ff" fill-opacity=".5" d="M169.8 308L139 431l506.7 18.4 11.8-183.6z"/><path fill="#491300" fill-opacity=".2" d="M364.7 20.6l121.9 200-294.3 38.8L382.2 295z"/><path fill="#cecacd" fill-opacity=".8" d="M591.4 208l66.1 67.9-237.3 98.5 111.4-191.3z"/><path fill="#131415" fill-opacity=".9" d="M170.7 115.5L235 63.2 161.1 42l11.8 310.2z"/><path fill="#0b0e15" fill-opacity=".8" d="M139.3 449.3l29-202.5L135 64.7-9.2 332.3z"/><path fill="#cdbbb2" fill-opacity=".9" d="M170.5 128.1L254.1 50l84.2 97.3-142.9 84z"/><path fill="#dbf2ff" fill-opacity=".7" d="M122.8 72.9l-4.6 11.4 10 39-57.7-82.1z"/><path fill="#2a2016" fill-opacity=".8" d="M380-37.5l-124.3 52L358 66.8 412.7 210z"/><path fill="#c0a18f" fill-opacity=".9" d="M348.3 294.5l-25-227.4 35.4 5 47 175z"/><path fill="#0a0c10" fill-opacity=".7" d="M42.4 197.1L53.5 23.5 195.2 218l-4.8 67z"/></g></svg>