<svg xmlns="http://www.w3.org/2000/svg" viewBox="0 0 620 414"><defs/><filter id="prefix__a"><feGaussianBlur stdDeviation="30"/></filter><rect width="100%" height="100%" fill="#53342e"/><g filter="url(#prefix__a)"><path fill="#e7ede4" fill-opacity=".4" d="M66.6-18l591-19.5v486.8L93 420.4z"/><path fill="#573324" fill-opacity=".7" d="M389 415.8l-209.5-353-217 131.7 270 110.7z"/><path fill="#e6faff" fill-opacity=".4" d="M129.8 258.4l155.7 190.9-232.2-59.9-90.8 5.4z"/><path fill="#d1cfc7" fill-opacity=".7" d="M336 7.5l-94.3-45 26.4 266.4 74.6 44.8z"/><path fill="#dbc1b8" fill-opacity=".6" d="M83-33L14 49.7l49.7 29.8L249.5 72z"/><path fill="#d1dddf" fill-opacity=".6" d="M657.5-33.7l-44 483-13.8-163.5-79-279.3z"/><path fill="#2b0800" fill-opacity=".4" d="M559.2 161.3l-308.5 280L331 255l83.8 170z"/><path fill="#d4d5dd" fill-opacity=".5" d="M449 362.6l61.3 56.6 147.2-88.6-177-64.4z"/><path fill="#2f2012" fill-opacity=".5" d="M163.7 353.4l-22.7-171 33.6-90.6 62.5 1z"/><path fill="#1f0400" fill-opacity=".4" d="M520.7 72.9l33.2 240 36.8-95.7-98 57.2z"/><path fill="#c3c2a6" fill-opacity=".7" d="M238 340l-33.8-62.2 71.7 3.6 78.2-50.1z"/><path fill="#fae3e8" fill-opacity=".4" d="M442.7-37.5l-23.2 244.3 90.5 11.4-39.4-92z"/><path fill="#764734" d="M109.2 236.6L88.6 346.8H-37.5V208.3z"/><path fill="#1d2943" fill-opacity=".4" d="M393.8-37.5h-34.9l8.3 198.3 82-22.8z"/><path fill="#aa9c90" d="M592.4 303.2l-194.7 6-47.5 14.1 22.8 22.5z"/></g></svg>