<svg xmlns="http://www.w3.org/2000/svg" viewBox="0 0 620 414"><defs/><filter id="prefix__a"><feGaussianBlur stdDeviation="30"/></filter><rect width="100%" height="100%" fill="#2f354b"/><g filter="url(#prefix__a)"><path fill="#e3e7ed" fill-opacity=".8" d="M-37.5 3.6L8.7 312.4l179.7-73.8 339-276.1z"/><path fill="#8e8883" fill-opacity=".9" d="M172.7 449.3l-210.2-65.4V418l449-455.5z"/><path fill="#271b19" fill-opacity=".7" d="M281.7 395.5l233.7-46.3L501 110 275.4 47.5z"/><path fill="#dfe1de" fill-opacity=".6" d="M514.2 332.5L499.9-26.9l30.2-.7 12.4 380.5z"/><path fill="#f5ffff" fill-opacity=".4" d="M-37.5 12.8l314.3-50.3 19.4 281.4-256-12.9z"/><path fill="#fee3ca" fill-opacity=".6" d="M-13.8 355l-23.7 9.3 146.5-27 97.6 112z"/><path fill="#a1a8b3" fill-opacity=".7" d="M609.1 257l10.2 77.2 38.2-359.6-59.8-11.7z"/><path fill="#e0c255" fill-opacity=".3" d="M657.5 411.5l-695 3.9 257-17.2L467.1 361z"/><path fill="#0d1a00" fill-opacity=".4" d="M-1.2 303.7l658.7 117.7-118.4-417-2 302.2z"/><path fill="#c7cedb" d="M363-37.5L464.3-11l65.1 22.8L290.6 61z"/><path fill="#6e666b" fill-opacity=".7" d="M446.6 240L427.2 51.6 392.3 116l14 151.1z"/><path fill="#575242" fill-opacity=".7" d="M15.7 201l8.5 97.9 132.5 19L3.1 359.5z"/><path fill="#e2e5e8" fill-opacity=".8" d="M24.7 41l233 130.2L12 312.7l49.9-11z"/><path fill="#615a5a" fill-opacity=".7" d="M242.2 373.7l31-126.2L116 234l7.8 43.8z"/><path fill="#5e5e1f" d="M-12.4 361.1l73.2 23.7L40 449.3h-54.3z"/></g></svg>