<svg xmlns="http://www.w3.org/2000/svg" viewBox="0 0 620 414"><defs/><filter id="prefix__a"><feGaussianBlur stdDeviation="30"/></filter><rect width="100%" height="100%" fill="#5b4c3a"/><g filter="url(#prefix__a)"><path fill="#d9f3fd" fill-opacity=".8" d="M135.6-37.5L386.3-34l-3.6 418.7-219.2 64.5z"/><path fill="#c8dce4" fill-opacity=".8" d="M657.5 41.2l-155-77.5 33 320.6 122 12.9z"/><path fill="#05080d" d="M542 297l-65.9-193.8-110.9 346L657.5 403z"/><path fill="#140c06" fill-opacity=".9" d="M87.4 445.1L87-37.5H2.7l-34.2 452.9z"/><path fill="#879591" fill-opacity=".9" d="M374.4 64l97.4 9.9L657.5 6.3 393.3-29.5z"/><path fill="#697980" d="M469.4 158.6l-178.8 288 92.8-13-1-187.5z"/><path fill="#33291e" fill-opacity=".8" d="M512.2 213.1L411 85.5l91-23L521 52z"/><path fill="#b7cad6" fill-opacity=".9" d="M440.3 205.1l-25 6.3-11 27.4 11.8 26.9z"/><path fill="#fff" fill-opacity=".2" d="M113.1-26.9L218.2-3l7.5 452.4-79.7-78.5z"/><path fill="#e9f6fb" fill-opacity=".5" d="M631.9 75.8l-24 150.2-75.8 25.6-19.1-88.8z"/><path fill="#1e2c37" fill-opacity=".7" d="M394 373.2L377.8 36.1l27.4 129 7 165.2z"/><path fill="#030407" fill-opacity=".8" d="M379 358l4.6-29.8 244.4-6.6-8.5 127.7z"/><path fill="#7b776c" d="M460.4 77l-76.8 10.4 52.6 134-35.1-259z"/><path fill="#849595" fill-opacity=".5" d="M612.3 269.3l45.2 4.6-121.3 41.7-2.2-94.7z"/><path fill="#9ab2b4" fill-opacity=".9" d="M328.2-.5L343.7 394l-17.5 23.5-19.6-444.4z"/></g></svg>