<svg xmlns="http://www.w3.org/2000/svg" viewBox="0 0 620 414"><defs/><filter id="prefix__a"><feGaussianBlur stdDeviation="30"/></filter><rect width="100%" height="100%" fill="#2c3956"/><g filter="url(#prefix__a)"><path fill="#100d0d" d="M270.8-37.5L657.5 15 464 81.4 299.3 449.3z"/><path fill="#d2bca5" fill-opacity=".6" d="M285.8 167.1L278 95.4l-82.6-6 24 92.5z"/><path fill="#2c1700" fill-opacity=".5" d="M657.5-37.5V448l-695-51 574-434.5z"/><path fill="#0b090b" d="M-37.5-17.2h695l-45 91.6-637 18.1z"/><path fill="#ebb391" fill-opacity=".3" d="M457 78l200.5 87.7-131 16.7-179.2 188.9z"/><path fill="#604b3b" fill-opacity=".8" d="M-16.2 102.7l14.5 125 262.5 45-69.7-180.2z"/><path fill="#141212" fill-opacity=".9" d="M-37.5 206.1l581.2 200.5-346.3 42.7-235-124.8z"/><path fill="#fdf4f3" fill-opacity=".4" d="M373.2 295.7l72-6-5.1 20.5-85.5 33.7z"/><path fill="#dfcaa8" fill-opacity=".6" d="M26 106.6l56.3-11.2 50.2 11.6L5 133z"/><path fill="#2d211c" d="M173 66.4L27.3 204.9l74.6-16 81 12.6z"/><path fill="#eeefea" fill-opacity=".4" d="M354 107l44.6 27.4L417.8 86 354 139.3z"/><path fill="ivory" fill-opacity=".3" d="M560.4 371.5L535 449.3l-20.4-105 43.4 8.3z"/><path fill="#bce0fe" fill-opacity=".6" d="M596.5 139.7l-2.7 24 5.1 8.3 58.6-14.8z"/><path fill="#fdfcfd" fill-opacity=".4" d="M458.5 351.2l-29.1 5.5-.5 12 14.3 20.5z"/><path fill="#0d0200" fill-opacity=".4" d="M477.1 120.9l148.5 95.4-.3 165.9-184.8-59.6z"/></g></svg>