<svg xmlns="http://www.w3.org/2000/svg" viewBox="0 0 620 414"><defs/><filter id="prefix__a"><feGaussianBlur stdDeviation="30"/></filter><rect width="100%" height="100%" fill="#574632"/><g filter="url(#prefix__a)"><path fill="#efe2e4" fill-opacity=".5" d="M52 222.6L189.7 9l423.1-46.5-141 486.8z"/><path fill="#f8f4e4" fill-opacity=".8" d="M567.4-37.5l-2.1 232-123.8 70-2.7-302z"/><path fill="#34201e" fill-opacity=".5" d="M305 314.8l129.5-268 3.6 220.8L149 115.8z"/><path fill="#857075" fill-opacity=".7" d="M26 325.3l286.4-51.9L551 404l-356.8 45.3z"/><path fill="#fffee8" fill-opacity=".6" d="M389-37.5l-92.3 181.8.5-157.6L393.6 151z"/><path fill="#050004" fill-opacity=".5" d="M342.7 186.2l-14.5-107L265 296.7l-13.4-133z"/><path fill="#7b675a" fill-opacity=".7" d="M197.9 204.9L152 343.2l-189.6-188L178.7-37.5z"/><path fill="#5b4b3a" fill-opacity=".9" d="M429.2 241.7L389 258.4l9.4-296h41.4z"/><path fill="#383026" fill-opacity=".8" d="M569.6-37.5l2.7 134.4 17.4 352.4 67.8-382z"/><path fill="#f4f0ff" fill-opacity=".5" d="M203.4 160.8L191.1 281l24 20.6 26.1-39.5z"/><path fill="#1c1820" fill-opacity=".4" d="M522.4 279l-94 101.2 229.1 54.5L523.6 180z"/><path fill="#bba3a2" fill-opacity=".8" d="M521.7 223.3l-117.5 39.5-135.9 41.9 255 11.6z"/><path fill="#fff4db" fill-opacity=".5" d="M376.4 214l16.2-251.5-49 175.5 6.8 59.1z"/><path fill="#0e0702" fill-opacity=".4" d="M259.9 9l-2.2 192.3 44-185.6-22.2 279.5z"/><path fill="#9f8789" fill-opacity=".6" d="M302 131l-29 30.3 204.4 163.2L271 406.6z"/></g></svg>