<svg xmlns="http://www.w3.org/2000/svg" viewBox="0 0 620 929"><defs/><filter id="prefix__a"><feGaussianBlur stdDeviation="30"/></filter><rect width="100%" height="100%" fill="#75513e"/><g filter="url(#prefix__a)"><path fill="#dceaee" fill-opacity=".8" d="M396 655.4l146.5 296.5L6.2 970 135 669.2z"/><path fill="#051704" fill-opacity=".8" d="M-56.2-56.2l733 73.3-543.6 408.6-114 559.5z"/><path fill="#131a0a" fill-opacity=".9" d="M608.2 984.5l-223.5-811L126.3 16 676.8-2.2z"/><path fill="#fff4e7" fill-opacity=".4" d="M440.5 152.8l-216.6 41 325.5 382.1L90 526.6z"/><path fill="#cebaaa" fill-opacity=".8" d="M480.1 485.2l-23.6-74.4-255.1-49.4L124.1 478z"/><path fill="#24251c" fill-opacity=".8" d="M676.8 768.2l-124.5 217-86.7-246.4-151.7-105.6z"/><path fill="#9d7763" d="M293.6 169.8l74.4-16.7L338.2 401l-71.1-93z"/><path fill="#c1b19e" fill-opacity=".8" d="M369 660.8l161.2-19.6-221-41.7 92.2-215.2z"/><path fill="#0c1003" fill-opacity=".7" d="M676.8 245.7L398.5 137.2 353 372.3l194.9 40z"/><path fill="#12180b" fill-opacity=".8" d="M86 642.7l-59.5-699-71.1 1041.5L153 655.7z"/><path fill="#091301" fill-opacity=".8" d="M-56.2 289.2l337.4 72.2-13.4-110 114-307.6z"/><path fill="#00140d" fill-opacity=".3" d="M438 634.7L413.3 507 157.1 669.2 306 459.4z"/><path fill="#dedbd3" fill-opacity=".3" d="M398.5 521.1L278 985.2 81.3 548l169 114.6z"/><path fill="#cbb7ab" d="M191.2 522.2l256.2-123.7-269.6-26.2-26.1 46.8z"/><path fill="#b99273" fill-opacity=".6" d="M513.5 687.7l-43.2-247.2L426 617l-246.7 58.8z"/></g></svg>