<svg xmlns="http://www.w3.org/2000/svg" viewBox="0 0 620 929"><defs/><filter id="prefix__a"><feGaussianBlur stdDeviation="30"/></filter><rect width="100%" height="100%" fill="#443a2c"/><g filter="url(#prefix__a)"><path fill="#e6c694" fill-opacity=".6" d="M45 155l456.5 145.5L512 486.6l-267.4 327z"/><path fill="#def2d8" fill-opacity=".6" d="M127 482L56 876l-112.1-53.7L17 346.6z"/><path fill="#cfe6f5" fill-opacity=".5" d="M524 301.2L385 282 131.4 851l19.2 134.2z"/><path fill="#dcb05e" d="M227.9 367.6L64.2 344.7l8-118.6L205 32.3z"/><path fill="#1b0800" fill-opacity=".9" d="M230-56.2h407l-88.2 334.9-258.8 7.6z"/><path fill="#290000" fill-opacity=".4" d="M31.6 950l173-248.5 114-313.2-77-244.2z"/><path fill="#6a675a" fill-opacity=".7" d="M180 985.2l83.8-326.6 281.3-242 10.1 202.5z"/><path fill="#060a00" fill-opacity=".6" d="M-56.2 408.3v78l189.4 273.6 23.6-8z"/><path fill="#faffff" fill-opacity=".7" d="M493.9 288.9l8.7 152-124.5 6.5 60.3-179.2z"/><path fill="#250b00" fill-opacity=".7" d="M-56.2 81.3L158.9-56.2 14.2 413l63.1 106z"/><path fill="#f8d48a" fill-opacity=".8" d="M175.3 239.1L254 645 147.7 306.3l18.1-246.8z"/><path fill="#6f3e02" fill-opacity=".6" d="M88.5 334.2l79.9 22.9 91.8 335.7-158.6-169.5z"/><path fill="#260900" fill-opacity=".8" d="M676.8 565.7l-179.6-196 8.3-221.6 92.2 82.3z"/><path fill="#000200" fill-opacity=".9" d="M51.2 985.2l8.3-91L140.1 508l58 162.3z"/><path fill="#f3ffe8" fill-opacity=".6" d="M106.3 646.3l20.3-90L-56.2 420v2.9z"/></g></svg>