<svg xmlns="http://www.w3.org/2000/svg" viewBox="0 0 620 414"><defs/><filter id="prefix__a"><feGaussianBlur stdDeviation="30"/></filter><rect width="100%" height="100%" fill="#482c23"/><g filter="url(#prefix__a)"><path fill="#ffe5c6" fill-opacity=".5" d="M649-37.5H-37.4v426l671.8 60.8z"/><path fill="#211f2e" fill-opacity=".9" d="M341.2 102.4l45 164.5L291 401.5l3.4-291z"/><path fill="#411d0c" fill-opacity=".7" d="M523.6 449.3l40.7-385.4-197.6 111.4 147 32.7z"/><path fill="#e8ebea" fill-opacity=".7" d="M657.5 396.7L551 437.1l37-368 12.4-106.6z"/><path fill="#cdd8e9" fill-opacity=".7" d="M316.8 406.9l168 42.4-4.3-153.3-71.2-67.6z"/><path fill="#63331b" fill-opacity=".9" d="M61.8 213.4L16 39.4l-53.5 245L193.3 169z"/><path fill="#fff4d8" fill-opacity=".4" d="M71.7 217.5L101 83.8l511-94-623.6-27.3z"/><path fill="#c6732a" fill-opacity=".5" d="M309.3 249.5L260.6 76.3 119.4-14.5 192.3 441z"/><path fill="#ded5c3" fill-opacity=".5" d="M16.7 317.8l137.8-101.5 33.7 183.3L8.7 386z"/><path fill="#782f0f" fill-opacity=".5" d="M587.8 46.3l-113.6 298 64.2 105 17.2-63.5z"/><path fill="#5e4a30" fill-opacity=".8" d="M148 85.7l-53-8.2 74 148-104.6 5z"/><path fill="#180b1f" fill-opacity=".3" d="M361.8 292l-69.7 156.5L246 138l127.1 24z"/><path fill="#d0baa1" fill-opacity=".6" d="M524.3 111.4l-7.7-149L380 158l-70.7-72.2z"/><path fill="#fff9ff" fill-opacity=".3" d="M337.4 248.7l169-51.8 9.2 81.4-103.9-104.9z"/><path fill="#131617" fill-opacity=".8" d="M426.7 135.1l26.2 71.2 25.7 5.9.4-95z"/></g></svg>