<svg xmlns="http://www.w3.org/2000/svg" viewBox="0 0 620 929"><defs/><filter id="prefix__a"><feGaussianBlur stdDeviation="30"/></filter><rect width="100%" height="100%" fill="#6d3e38"/><g filter="url(#prefix__a)"><path fill="#d5ede9" fill-opacity=".5" d="M89.3-56.2l587.5 68.5-294.3 973-438.7-103.1z"/><path fill="#031332" fill-opacity=".8" d="M525.5 376.3l151.3 609-266.4-218.1-134.6-1.9z"/><path fill="#e3e6e5" fill-opacity=".9" d="M132.5 196.7l544.3-253-69 558.2-105.6-294.3z"/><path fill="#f6fbfc" fill-opacity=".7" d="M485.2 962l-336.4 1.1 60.2-213 216 41.4z"/><path fill="#866a63" d="M676.8 229l-266-13.4L356 792.2l189-569.7z"/><path fill="#8f8274" fill-opacity=".7" d="M355 376.3L-56.3 766.8l20-598.8L147.2-56.2z"/><path fill="#091632" fill-opacity=".6" d="M258.7 423.1l99.1 60.3 184 168 135-190.5z"/><path fill="#d5d6d5" fill-opacity=".9" d="M335 14.5l-96.6 148.8 130.7 196.3 54.4-153.1z"/><path fill="#0b1937" fill-opacity=".8" d="M487.4 985.2L414.8 735l85.3-375 176.7 567.6z"/><path fill="#eebdaa" fill-opacity=".4" d="M68.2 307.7L440.5 565l-10.1 108.5-131 3z"/><path fill="#716c66" d="M158.2 848.8L-56.2 737.4v233.3l189.7 14.5z"/><path fill="#1c0f07" fill-opacity=".7" d="M267.8 237.3l-66.8 135-11.2-31.2 16-87.8z"/><path fill="#19090f" fill-opacity=".4" d="M302.3 790l-61-221.7-26.1 101.6 239.9 6.5z"/><path fill="#000200" fill-opacity=".7" d="M488.5 204l-55.2 11.2-30.5 35.6 110 1z"/><path fill="#464d42" fill-opacity=".6" d="M-56.2 198.1l143.3-74L313-56.2H-6.1z"/></g></svg>