<svg xmlns="http://www.w3.org/2000/svg" viewBox="0 0 620 414"><defs/><filter id="prefix__a"><feGaussianBlur stdDeviation="30"/></filter><rect width="100%" height="100%" fill="#594034"/><g filter="url(#prefix__a)"><path fill="#e0e6eb" fill-opacity=".8" d="M186 449.3l180.7-84 63.2-168.4L176 158.6z"/><path fill="#1c0b00" fill-opacity=".8" d="M464.3-37.5L267 73.6 551.7 324l105.8-60.3z"/><path fill="#120200" fill-opacity=".8" d="M187 215.5l-29.6 233.8H-24.2l3.9-112.9z"/><path fill="#2a0e02" fill-opacity=".9" d="M608.1 423.3L560.7 303 400 271.5l-20.6 177.8z"/><path fill="#b09b8d" d="M301.3 171L159 229.4l10.7-97 82.8 44.2z"/><path fill="#c2defa" fill-opacity=".4" d="M587.3 371.3l-9-1.2 79.2-183.4-3.1 202.7z"/><path fill="#261a0a" fill-opacity=".4" d="M1.5 449.3l-32-292.4 4.8-194.4 202 181.6z"/><path fill="#d9e6ee" fill-opacity=".5" d="M212.2 208.5l171.7 146.3-101.5 65.6-110.2-46z"/><path fill="#dcd6d3" fill-opacity=".5" d="M430.4 197.9l-11.2 67L214 182.2l143.3-7.2z"/><path fill="#2d280e" fill-opacity=".5" d="M228.6 186l-8.5-4.8 65-218.7 372.4 48.2z"/><path fill="#2a1102" fill-opacity=".6" d="M383.6 367.4L449 154 657.5-37.5 573 136z"/><path fill="#d5c3b7" fill-opacity=".6" d="M205.6 114.3l33.4 19.1-84.5 49.7L203 203z"/><path fill="#4d3725" fill-opacity=".2" d="M389 410.8L480.7 241 224.5 449.3 124 358.4z"/><path fill="#fcd7ae" fill-opacity=".3" d="M463.3 273.2l61.5 27.1 27.4-.2-75-35.9z"/><path fill="#64642d" d="M227 185.8l-5.4-28.9 124.2-28.3-24.2 26.6z"/></g></svg>