<svg xmlns="http://www.w3.org/2000/svg" viewBox="0 0 620 414"><defs/><filter id="prefix__a"><feGaussianBlur stdDeviation="30"/></filter><rect width="100%" height="100%" fill="#553c2f"/><g filter="url(#prefix__a)"><path fill="#adaa9d" fill-opacity=".8" d="M653.7-37.5l-42.9 486.8-210.2-337L-37.5 10z"/><path fill="#f1fffa" fill-opacity=".6" d="M167.6 293l-205.1 20.6 26.1-144 211 21.5z"/><path fill="#d4c5af" fill-opacity=".7" d="M572.8 264.5l-228.2 84 313 8-69.3-394z"/><path fill="#5f766f" d="M250 203L193.2 88.4l303-71.4-144.9 210.2z"/><path fill="#243331" d="M-30 449.3L550.3 276l-1.7-52.6-515.9 93z"/><path fill="#0c0909" fill-opacity=".7" d="M495.8 119.6l44.5 65 32.2-46.6-35.3-82.3z"/><path fill="#bcffff" fill-opacity=".3" d="M172.4 297l-114-161.1L205 115.5l-59.5-91.3z"/><path fill="#8b542b" d="M657.5 378l-180.4 71.3-119.1-96 269.3-2.6z"/><path fill="#fef5d1" fill-opacity=".4" d="M309.5 158.4l-64 66.8-20-186L252.6-22z"/><path fill="#0d4b51" fill-opacity=".7" d="M44.3 93.5L232 121.3l17.5 170.8-84.8-100z"/><path fill="#1a1e1c" fill-opacity=".7" d="M56.4 271.3L178.2 392l-153 57.2L67.3 100z"/><path fill="#cbcecb" fill-opacity=".8" d="M499.6 12.4l158-50-66.4 398.2-5.1-230.8z"/><path fill="#020611" fill-opacity=".8" d="M374.7 38.8L344 24.6l29.1-53.3 65.6-9z"/><path fill="#214446" fill-opacity=".8" d="M199.6 425.5L382.9 98.1l74.8 168.3-87 103.2z"/><path fill="#26322d" d="M149 31.7L-28.4 43 113 112.4l36.8-14.8z"/></g></svg>