<svg xmlns="http://www.w3.org/2000/svg" viewBox="0 0 620 414"><defs/><filter id="a"><feGaussianBlur stdDeviation="30"/></filter><rect width="100%" height="100%" fill="#314a5f"/><g filter="url(#a)"><path fill="#bc9c82" fill-opacity=".9" d="M590.5-37.5l-504 197.1 285.7 289.7 285.3-58.7z"/><path fill="#a4896f" fill-opacity=".9" d="M657.5 445.4L180 120.4 224.5 4l382.2-41.6z"/><path fill="#1c1814" fill-opacity=".9" d="M13.8-14.8L241-3 137.3 150 48 168.3z"/><path fill="#150e0b" fill-opacity=".7" d="M43.8 169l95.5 33 203.2 247.3-380-41z"/><path fill="#ecdce1" fill-opacity=".6" d="M535.2 370.3L303.5 238.8l53 172.4 228.1 35.6z"/><path fill="#ffe4d8" fill-opacity=".5" d="M87.7 195.7L281.9 48l-79.7 222.3L82 152.6z"/><path fill="#431c00" fill-opacity=".5" d="M229.6 335l-10.4-138.8 79.7 37-17.5 136.9z"/><path fill="#fe9e2f" fill-opacity=".4" d="M50.6 174.4L11-.7l-26.6 204.6-21.8 126z"/><path fill="#d4b7a0" fill-opacity=".9" d="M272.7 129.6l220.9 24.2L406 30.5l-64.6 292.3z"/><path fill="#6f4e2a" fill-opacity=".5" d="M502.8 255.8l-151.6-216L383.4 290l132 52.8z"/><path fill="#dae3e5" fill-opacity=".7" d="M57 164.4l78.9 36.9 90.3 102.2-45.8-126.7z"/><path fill="#552901" fill-opacity=".5" d="M378.8 78.7l-53.5-29-56 20-1.7 25.7z"/><path fill="#0b0e18" fill-opacity=".4" d="M453.6 320.7l48 13.3-124.8-49 5.6-80.6z"/><path fill="#d5a58e" fill-opacity=".7" d="M273.4 126L221.6 24.6 193 66.4l9 194z"/><path fill="#3d2c21" fill-opacity=".9" d="M243.9-25l7.7 91.6-46.2-77-60.6 167.3z"/></g></svg>