<svg xmlns="http://www.w3.org/2000/svg" viewBox="0 0 620 414"><defs/><filter id="prefix__a"><feGaussianBlur stdDeviation="30"/></filter><rect width="100%" height="100%" fill="#503a2c"/><g filter="url(#prefix__a)"><path fill="#eef6f4" fill-opacity=".8" d="M394.8 115.3l3.4 69.2-366-2.4 14.8-67z"/><path fill="#000713" fill-opacity=".6" d="M657.5 211.7l-5 237.6-690-38.3 180.4-253.3z"/><path fill="#08080a" d="M428 422.4l190.3 26.9 39.2-486.8h-271z"/><path fill="#ffffed" fill-opacity=".4" d="M36.6 130.8l11.8 112.6 99.3-11.6-36.3-114.1z"/><path fill="#b29f68" fill-opacity=".6" d="M224.8 217L182 165l108.5-22.8 126 63.4z"/><path fill="#0d1014" d="M417.8 113.1L1.2 115.8-20-37.5h423.6z"/><path fill="#171917" d="M301.3 142.4l-39.7 211.7L233 224.5l56.4-88.1z"/><path fill="#10151d" d="M541 387.5l-578.5 61.8L23.3-37.5 41.1 237z"/><path fill="#fefbee" fill-opacity=".7" d="M316.8 115.3l-155.5 3.4 42.1 80.4 40.5-20.9z"/><path fill="#feffff" fill-opacity=".5" d="M329.9 180.4l-47.3-63.7 112.7-2.4 5 82.4z"/><path fill="#090908" fill-opacity=".9" d="M164.2 153.8l17-4.1 8.7 135.8-50.2-109z"/><path fill="#dfe7ee" fill-opacity=".8" d="M151.9 116.5L128 186.2l-87.7 18.4-5-87.9z"/><path fill="#c7ede5" fill-opacity=".4" d="M66.8 91.5L15 61l3.4 11 29 23.4z"/><path fill="#685a2e" fill-opacity=".4" d="M-.2 243.2L439 226.4l-48.7-18.6-329.9-7.3z"/><path fill="#193049" fill-opacity=".4" d="M300 274.6l-318.4 19 388 63.9 134.1-100.8z"/></g></svg>