<svg xmlns="http://www.w3.org/2000/svg" viewBox="0 0 620 414"><defs/><filter id="prefix__a"><feGaussianBlur stdDeviation="30"/></filter><rect width="100%" height="100%" fill="#496c3b"/><g filter="url(#prefix__a)"><path fill="#b7b2b1" fill-opacity=".9" d="M556.3 5.6L-13.8-37.5l-23.7 435.4 509.3 51.4z"/><path fill="#140a0b" fill-opacity=".8" d="M240.3 187.7l-67.4-27.4-25.7 75.6 20.6 106.6z"/><path fill="#80847a" d="M370.3 208.3l13-164 177.8 53 79 289.5z"/><path fill="#efeeef" fill-opacity=".7" d="M386.3-37.5L290 242.2l178.8 207h-356z"/><path fill="#341e26" fill-opacity=".8" d="M657.5 10.2L619.8 308 533.5 12.4l10.7-50z"/><path fill="#190c04" fill-opacity=".8" d="M304.2 112.1L285 131.8 241.2 70l37.3 8.5z"/><path fill="#f6f4f6" fill-opacity=".4" d="M489.5 243.6L420.7 55-37.5 68.8 494.8-37.5z"/><path fill="#1d3f08" fill-opacity=".5" d="M379.3 52.6l9.9 161.7 66.1 29.1L425.5 61z"/><path fill="#a8a6ab" d="M591.2 349.5l-63-233L523-28l88.1 321z"/><path fill="#594d58" fill-opacity=".7" d="M490 449.3l-20-140 74-97.4 79.4 230.3z"/><path fill="#0e0400" fill-opacity=".2" d="M236.1 256.2l-120.6-145-74-58.4-15.6 84z"/><path fill="#eaeefb" fill-opacity=".5" d="M-28 430.9l-9.5-468.4L53.3 4l-48 215.3z"/><path fill="#8f897d" fill-opacity=".9" d="M135.4-26L205-37.4l4.4 108.7-59.8-37.8z"/><path fill="#ccc3be" fill-opacity=".7" d="M370 172L-37.4-37.5l276 195-21.7 107.2z"/><path fill="#817978" d="M198.4 183.8l3.1-62.5 34.1 55.7-28.3 18.7z"/></g></svg>