<svg xmlns="http://www.w3.org/2000/svg" viewBox="0 0 620 414"><defs/><filter id="prefix__a"><feGaussianBlur stdDeviation="30"/></filter><rect width="100%" height="100%" fill="#5a324e"/><g filter="url(#prefix__a)"><path fill="#b8dcb2" fill-opacity=".5" d="M-13.8-37.5l671.3 3.4-419.7 278.7L10 287.5z"/><path fill="#031f12" fill-opacity=".6" d="M297 284l141.4-145 178 248.3-523.6-67.4z"/><path fill="#82d7f7" fill-opacity=".6" d="M551.7 218.7l-41.2-81.6-59.5-6 51.8 90.5z"/><path fill="#051507" fill-opacity=".7" d="M565 247.8l-30.5-99.1 123-182.4V96z"/><path fill="#dcdde5" fill-opacity=".6" d="M-32.7 67l-4.8 75.6L129 171.7l34.6-11.9z"/><path fill="#606358" fill-opacity=".7" d="M258.4 168l-.7 128.7L601.4 68l-17.2-56z"/><path fill="#bbba84" fill-opacity=".6" d="M632.1 402.5l-49.6-236.4 66 48.5-34.8 110.2z"/><path fill="#000b03" fill-opacity=".6" d="M49 265.2l-8.3 180.2-42.6 3.9-35.6-109.8z"/><path fill="#55472c" fill-opacity=".7" d="M449.7 25L250.2 58.3l1.4-20.1L352.4-7z"/><path fill="#acb9ab" fill-opacity=".4" d="M24.5 280.7l77.2 56L156.5 229l32.9-60.3z"/><path fill="#5e8f77" fill-opacity=".5" d="M264.5 347.3l119.9 20.1 212.4 46-441.8 7.3z"/><path fill="#a1a098" d="M568.2-37.5L544.4 6.8l27.9 82.6L592 76z"/><path fill="#303e48" fill-opacity=".8" d="M657.5 423.3l-71.2-197.6-79 9-82 143.6z"/><path fill="#11120f" fill-opacity=".6" d="M344.9 134.4l138.5 34.4-11.6 160-48.2 11.7z"/><path fill="#e7eced" fill-opacity=".3" d="M222.3 249.2l-19.6-62.7 186.5 42.9-115.8 24.9z"/></g></svg>