<svg xmlns="http://www.w3.org/2000/svg" viewBox="0 0 620 414"><defs/><filter id="prefix__a"><feGaussianBlur stdDeviation="30"/></filter><rect width="100%" height="100%" fill="#474747"/><g filter="url(#prefix__a)"><path fill="#f2f2f2" fill-opacity=".4" d="M14.3 179.7L-37.5 53.5l482.9-91-2.7 406.4z"/><path fill="#c6c6c6" fill-opacity=".6" d="M651.5 14.5l6 194.8-141.2-1.7 14-184.1z"/><path fill-opacity=".5" d="M-12.8 397.4l90.3 51.9 318.2-70.5L348.5 197z"/><path fill="#a0a0a0" fill-opacity=".8" d="M318.7 255.5L400 364.7l10.1 70L609 288.4z"/><path fill="#383838" fill-opacity=".8" d="M375.9 114.3l-53-74.8-67.4 24 43.6 154.7z"/><path fill="#010101" fill-opacity=".6" d="M23.7 449.3l110-277.3-27.4-9.7-143.8 146z"/><path fill="#fff" fill-opacity=".4" d="M468.4-.2L497 30.5-37.5 143 244.9 25.2z"/><path fill="#b5b5b5" fill-opacity=".4" d="M66.6 251.4l215-146 7.6 184.7-207.6 63z"/><path fill="#cecece" fill-opacity=".6" d="M84 169.5l146.6-95.1-252.9-44.9 20.1 124.8z"/><path fill-opacity=".3" d="M135.6 266.4l218.7-1.4 90.1 31.4 157.2-114z"/><path fill-opacity=".7" d="M17.7 449.3H278l2.5-150-128.9-1.2z"/><path fill="#f5f5f5" fill-opacity=".5" d="M194.2 52.3l112.4 181.4-91.5 14.8-5.1-101z"/><path fill="#232323" fill-opacity=".6" d="M231.3 78L325 36.3l42.9 82.9-109-9.2z"/><path fill-opacity=".6" d="M633.3 264.2l-8.5 105.4-26.6-67.8-171-80.2z"/><path fill="#e5e5e5" fill-opacity=".8" d="M498.2 35.4l25.7 6.3 67.3 18.8L570.4 23z"/></g></svg>