<svg xmlns="http://www.w3.org/2000/svg" viewBox="0 0 620 414"><defs/><filter id="a"><feGaussianBlur stdDeviation="30"/></filter><rect width="100%" height="100%" fill="#24433d"/><g filter="url(#a)"><path fill="#f1d3b6" fill-opacity=".8" d="M397.4 290.4L285.3 14.3l328.9-51.8L657.5 238z"/><path fill="#fea764" fill-opacity=".5" d="M-8.7 449.3L-2 48.2l263.2-85.7L166 274.4z"/><path fill="#9d7951" fill-opacity=".7" d="M522.2 196.9l135.3 67.3L451 274.6 76.8-37.5z"/><path fill="#f3f8ff" fill-opacity=".7" d="M631.1 2.7L460.6-24.5l12.1 200.8 184.8 19.4z"/><path fill="#3e1200" fill-opacity=".5" d="M286.3 126.2L83.8 82l71 367.2L3.6-37.5z"/><path fill="#0c1246" fill-opacity=".7" d="M364.5 148.2l-24.2 299.1-131.3 2 45-360.9z"/><path fill="#afb2a1" fill-opacity=".7" d="M113.6 123L97 150.2l54.5 209.4L195 164z"/><path fill="#c5d0d7" fill-opacity=".7" d="M-37.5 449.3l13.3-319.7 72 243.9L30 449.3z"/><path fill="#1c211b" fill-opacity=".8" d="M166.1 449.3L90 436.9 68.5 302l67.1-27.6z"/><path fill="#cea46f" fill-opacity=".7" d="M376.6-37.5l140.5 303-224.3-163L280.5 38z"/><path fill="#fbe0bd" fill-opacity=".5" d="M193.5 360.4l27.9 1.2-2.5-98.6-21.8 63.7z"/><path fill="#7f7e72" fill-opacity=".6" d="M364.7 293l-18.4 35 151.4-38.6-152.1-157.6z"/><path fill="#d9a24e" fill-opacity=".8" d="M254.3 86.7l-3 18.7L31.8-21.1l184-16.4z"/><path fill="#273870" fill-opacity=".6" d="M178.7 164l251.4 53.5L297.6 99l-27.8-16z"/><path fill="#b4b298" fill-opacity=".6" d="M-3.1-18.2l53.7 225.5 34.2 119.2 4-80z"/></g></svg>