<svg xmlns="http://www.w3.org/2000/svg" viewBox="0 0 620 929"><defs/><filter id="a"><feGaussianBlur stdDeviation="30"/></filter><rect width="100%" height="100%" fill="#633c31"/><g filter="url(#a)"><path fill="#b6b0a9" fill-opacity=".6" d="M41-56.2l635.8 86v955.4H-41z"/><path fill="#4c3d36" fill-opacity=".8" d="M65.3 724L-56.2 525l285.5 1.5 56.3 341.8z"/><path fill="#432212" fill-opacity=".6" d="M189.4 297.6L415.1 365l-10.8-162.2-169.5-259z"/><path fill="#d7dedf" fill-opacity=".8" d="M457.6 127.4l-149.1-48-31.3-127.7 283.1-8z"/><path fill="#d7e8f0" fill-opacity=".7" d="M411.2 975l165 10.2-14.8-281.6-34.1-7.6z"/><path fill="#d8d8dc" fill-opacity=".6" d="M523.7 573.4L452.9 55.9l-41 323.3-80.6 217z"/><path fill="#281d1f" fill-opacity=".7" d="M566.8 724.7l15.3 212 20.7-251.2-102.4-267.8z"/><path fill="#c6b7b4" fill-opacity=".6" d="M11.6-56.2l201 85.6L130 187.3l16 602z"/><path fill="#ffc8aa" fill-opacity=".4" d="M267.8 152.4l61 20 14.9 312.4-77-7.2z"/><path fill="#4b2d1d" fill-opacity=".8" d="M559.2 102.3L482.6-56.2 643.8 46.4l-75.2 64.3z"/><path fill="#3e3938" fill-opacity=".9" d="M-56.2 355.6l132 11.6L45 256.6 16-56.2z"/><path fill="#bbb1ae" d="M581 139L409.7 267l12 53 255-123.7z"/><path fill="#001a06" fill-opacity=".6" d="M7.6 510.2L115 551.6l-11.6 98.3-141.1-15.6z"/><path fill="#d9f2ff" fill-opacity=".3" d="M186.5 569l-242.7-99L63 373l113.3 297.3z"/><path fill="#4e3f39" d="M76.6 786l236.6-92.9 8.3 38.5L164 807.4z"/></g></svg>