<svg xmlns="http://www.w3.org/2000/svg" viewBox="0 0 620 414"><defs/><filter id="a"><feGaussianBlur stdDeviation="30"/></filter><rect width="100%" height="100%" fill="#403b55"/><g filter="url(#a)"><path fill="#bdb2a8" fill-opacity=".8" d="M-9.7-6.3l349.2 450.7 292.9 4.9L575.7-1z"/><path fill="#e4f4ff" fill-opacity=".6" d="M477.4 164L234 449.3l423.5-49.7-86-212.9z"/><path fill="#6b6f83" d="M167.6 130.8l-189 183.8L98.2 449.3 286.8 115z"/><path fill="#935a33" fill-opacity=".5" d="M265-37.5l248.4 75.3-212.4 265-45-166.4z"/><path fill="#202013" d="M624.1 294.3l33.4-307.9-89.8 132.8 18.4 95.1z"/><path fill="#c6c4c3" fill-opacity=".9" d="M471-37.5L609.2-4.1l6.5 31L585 88.4z"/><path fill="#0c0e00" fill-opacity=".5" d="M288 297l-168.6-57 56.7 209.3 172.2-206.1z"/><path fill="#646169" d="M-18 38l136.3-11 1 29.8L-18.2 361z"/><path fill="#d9cfff" fill-opacity=".4" d="M-37.5 149.7l151 265-128.8-75.9 72-183.6z"/><path fill="#fff3f4" fill-opacity=".4" d="M425.8 7.8l1.7 146 56 77.7L466 43.1z"/><path fill="#152206" fill-opacity=".6" d="M75.6 2.4L74.4 25l-112 99.8 97.7 26.7z"/><path fill="#734b40" fill-opacity=".9" d="M320-12.6l-8.3 92 101.5 42.7-6.3-127.7z"/><path fill="#6c3d2e" fill-opacity=".6" d="M488 154l-9-168.5 11.2-23 32.7 211.9z"/><path fill="#061229" fill-opacity=".6" d="M164.7 70l-18.9-12.6 45.3-51.1 19.6 17.4z"/><path fill="#011100" fill-opacity=".4" d="M184.3 374l63 75.3L190.8 220l79.5-110z"/></g></svg>