<svg xmlns="http://www.w3.org/2000/svg" viewBox="0 0 620 414"><defs/><filter id="prefix__a"><feGaussianBlur stdDeviation="30"/></filter><rect width="100%" height="100%" fill="#30373d"/><g filter="url(#prefix__a)"><path fill="#a89a8c" fill-opacity=".7" d="M-37.5 303L29 449.3 614 74.6 11.7-37.5z"/><path fill="#f1f9f5" fill-opacity=".9" d="M-37.5 297.4l6-212.1L102 133.7l-.3 133.2z"/><path fill="#311200" fill-opacity=".7" d="M354.6 449.3L178.7 442l-36.3-330.8 60-20.6z"/><path fill="#e3e7e5" d="M139.7 7.8l.5 18.6L303.5 22l22.7-45.3z"/><path fill="#bddcf0" fill-opacity=".9" d="M105.6 343.7l9.2-47.5-134.7 40.7-17.6 79z"/><path fill="#baebff" fill-opacity=".4" d="M360.1 302.5l-13.8 146.8-69.5-213.9L414 215.8z"/><path fill="#564e47" d="M444 73.6L295.1 18l290.4 39.3-.2 182.3z"/><path fill="#252420" fill-opacity=".4" d="M657.5 399.9L309.3 94.2-16 96.4 352 185z"/><path fill="#ffa46c" fill-opacity=".5" d="M437.1 42.1l43.6 116-49.8 40.3L299.6 51z"/><path fill="#f1c0a8" fill-opacity=".8" d="M613.2 422.1l-196 27.2 1.8-51.6 18-1z"/><path fill="#9c6648" fill-opacity=".9" d="M224.3 214l63.4 15.6 6-73.1L211 83.3z"/><path fill="#6da6c9" fill-opacity=".5" d="M105.8 115.3l161-36.3L11.5-37.5l-49 58z"/><path fill="#a6bfcd" fill-opacity=".7" d="M110.7 381.4l-6.8-19.6L-36.6 435l171-26.4z"/><path fill="#0c0909" fill-opacity=".6" d="M505 105.1l91.3 180.7-26 125.7-95.9-11z"/><path fill="#220e00" fill-opacity=".7" d="M477.4 112.6l-47.5-81.8-141.2.2 192-68.5z"/></g></svg>