<svg xmlns="http://www.w3.org/2000/svg" viewBox="0 0 620 414"><defs/><filter id="a"><feGaussianBlur stdDeviation="30"/></filter><rect width="100%" height="100%" fill="#554536"/><g filter="url(#a)"><path fill="#cce4e2" fill-opacity=".7" d="M11.9 359.2L-37.5-5.1l123-8.7 41.4 345.6z"/><path fill="#f1e5fc" fill-opacity=".5" d="M170.5 147.5l467.2 140.2-18.4 153-433.3 8.6z"/><path fill="#462d15" d="M351.2 237.3l-225-274.8 527.7 187-37.3 76.2z"/><path fill="#b7d4d5" fill-opacity=".7" d="M619.3-37.5l-281.7 50L423.8 24l233.7 1.4z"/><path fill="#76776d" d="M111.4 116.3l18 262.2L238.5 275l-276-46z"/><path fill="#f0fefe" fill-opacity=".8" d="M-18.9 170.3l6-207.8h91.6L81 119.2z"/><path fill="#8c5e57" d="M349.7 426.3L451.4 226l93.3 10.4-123 212.9z"/><path fill="#afe5ff" fill-opacity=".3" d="M306.6 110.4l-163.2 236L254 427.1l83.3-250z"/><path fill="#fff3d4" fill-opacity=".4" d="M251.1 215.8l-145-25.2 78.7-28.8 9-126.2z"/><path fill="#f4bdd8" fill-opacity=".4" d="M489.5 429.4l168-3.9V261.1L515 240z"/><path fill="#190f08" fill-opacity=".9" d="M207 38.3l45.6 107.5 43.6 26.2-6.3-140.8z"/><path fill="#2a3b26" fill-opacity=".7" d="M183.8 244.9l19-13.4-17.5-42.6L71 226.4z"/><path fill="#919aa4" fill-opacity=".8" d="M-37.5 296.4l32-8.2 147.4-42.1L36.1 393.3z"/><path fill="#2f0600" fill-opacity=".4" d="M229.1 318.5l-9-36.8-46.5-21.8-33.1 40.2z"/><path fill="#1d1a0b" fill-opacity=".7" d="M163.5 126.2L148.7-37.5l-20.3 203 90.3-16z"/></g></svg>