<svg xmlns="http://www.w3.org/2000/svg" viewBox="0 0 620 929"><defs/><filter id="a"><feGaussianBlur stdDeviation="30"/></filter><rect width="100%" height="100%" fill="#59412c"/><g filter="url(#a)"><path fill="#dbf0f5" fill-opacity=".9" d="M657.2 345.1L636.5-56.2 205 16.7l68 362.5z"/><path fill="#1f4c70" d="M243.5-1L-56.2-23.7l48.2 426 156.4 12.4z"/><path fill="#171000" fill-opacity=".6" d="M528 985.2L304.8 628.5 11.2 364l-67.4 577z"/><path fill="#b0d6e7" d="M194.1 220l15.3-88.3 48.6-188 418.8 78.4z"/><path fill="#312619" d="M171.3 398.8L152 250l124 3.3-100.8 552z"/><path fill="#3d260a" fill-opacity=".7" d="M483 350.2l85.6-12 108.2 550.9-162.2 96.1z"/><path fill="#ddab59" fill-opacity=".4" d="M460.1 840.5l52.7-24.7L282.3 495l-53.3 4.7z"/><path fill="#fffdf3" fill-opacity=".5" d="M676.8 198.9l-212 186.9-183.2-103.5L208.3 138z"/><path fill="#ffbd42" fill-opacity=".3" d="M463.4 400.6l167-45-372-59.5L266 396z"/><path fill="#00010a" fill-opacity=".6" d="M110 427.1L83.8-56.2l22.5 42.8L126 202.9z"/><path fill="#6e7f87" d="M184 284.5l49.7-42-30.1-46.5 8.7-98.7z"/><path fill="#1e1100" fill-opacity=".4" d="M676.8 980.5l-40.3-22.8L311 546.9l339.3 168.7z"/><path fill="#33b0ff" fill-opacity=".2" d="M-.7 128.1l-55.5 270.4 77.6 6.1 196-230z"/><path fill="#927042" fill-opacity=".9" d="M247.5 501.9l-56.6 61.3 216.3-11.6L226.4 488z"/><path fill="#6a4016" fill-opacity=".7" d="M571.6 426L528 665.2l-94.7-87.5-222.1-157.5z"/></g></svg>