<svg xmlns="http://www.w3.org/2000/svg" viewBox="0 0 620 414"><defs/><filter id="prefix__a"><feGaussianBlur stdDeviation="30"/></filter><rect width="100%" height="100%" fill="#5f3b32"/><g filter="url(#prefix__a)"><path fill="#c8d6e6" fill-opacity=".9" d="M261.8-.7l8 450-307.3-36.9V-1.2z"/><path fill="#e6f2f8" fill-opacity=".9" d="M657.5 218.5L487.8 49.2 462-8.5l195.4-13z"/><path fill="#e4edf3" d="M327.2 57.2l-364.7 87.4 116-166.2 294.7-10.6z"/><path fill="#211b1f" d="M228.4 106.3L295 329.6l317 119.7 45.5-265.5z"/><path fill="#e79d82" fill-opacity=".5" d="M390.2 196.2L289.7 186 265 139 434 35.4z"/><path fill="#979fb3" d="M301 377.3L274 247 83.2 324.8l62.5 124.5z"/><path fill="#192131" fill-opacity=".4" d="M95 309.8l82.5 42.8-10.9 96.7L80 331z"/><path fill="#0d1523" fill-opacity=".7" d="M410.5 110.7l59.6-69.3L567 118 420.2 449.3z"/><path fill="#162331" fill-opacity=".2" d="M64 129.3L417.2 25.4 47.7 197.1l7.8 10z"/><path fill="#ffeef2" fill-opacity=".2" d="M417 412.4l-35.8 36.9L-37.5 236l408 114.8z"/><path fill="#738497" fill-opacity=".6" d="M657.5 270.3L572.8-37.5 657.5 133l-97.8.4z"/><path fill="#e5f6fd" fill-opacity=".6" d="M358.2 149.7l29.3 14.3 5.8 39.7-31-24.7z"/><path fill="#010100" fill-opacity=".9" d="M295.2 349l36.8-20.1 44.6-127.6-108.3-2.2z"/><path fill="#f4fbff" fill-opacity=".4" d="M117 259.4L107 288 15 449.3l-52.5-417z"/><path fill="#c4cee0" fill-opacity=".7" d="M242.4 128.8L190.8-37.5l5.1 317L248 449.3z"/></g></svg>