<svg xmlns="http://www.w3.org/2000/svg" viewBox="0 0 620 414"><defs/><filter id="prefix__a"><feGaussianBlur stdDeviation="30"/></filter><rect width="100%" height="100%" fill="#543933"/><g filter="url(#prefix__a)"><path fill="#fcfdff" fill-opacity=".5" d="M333-22l301.5 162.7-383.4 308.6L17.2 369z"/><path fill="#c8cace" d="M486 278.5L312.5 250 276-37.5l285.7 222z"/><path fill-opacity=".3" d="M332.8 393.3L279.5 34-23.7-30l2.1 171.5z"/><path fill="#00245b" fill-opacity=".9" d="M657.5 147.3L562.8 194l-182 237.6 276.7-22.8z"/><path fill="#a59d99" d="M-37.5 380.2l14.7-298.1 68 219.4-5.7 96.7z"/><path fill="#080105" fill-opacity=".6" d="M92 323.3l4.4 105.9-134-396.3L151-37.5z"/><path fill="#9c5c4e" fill-opacity=".5" d="M384.1-34.1l42.4 230L629 119 472-17z"/><path fill="#9b8b82" fill-opacity=".7" d="M506.7 256.5L405.2 396l-50.2-4.4L49 232.5z"/><path fill="#74544d" fill-opacity=".9" d="M191.3 399.9l-58.6-221.2L120 433.5 37.8 293.3z"/><path fill="#fff4ce" fill-opacity=".2" d="M178.3 214.3l60-49.6L169.8.5l-35.4 119.9z"/><path fill="#cde6ff" fill-opacity=".7" d="M657.5 131.3V99.5l-177 89.9-6.5 77.2z"/><path fill="#def7ff" fill-opacity=".4" d="M451.4 228.6l-158.6-30.5L409.3-6.5l-188.7 5z"/><path fill="#b9a8a3" d="M249.5 141.7L89.6 247l49.9 202.3-16.2-208.6z"/><path fill="#140100" fill-opacity=".4" d="M173.9 33.2l99-.5 14.8 83.5-25.2 55z"/><path fill="#732826" fill-opacity=".8" d="M397.7-27.6l12.8 114.8h32.7l15.5-42.6z"/></g></svg>