<svg xmlns="http://www.w3.org/2000/svg" viewBox="0 0 620 414"><defs/><filter id="prefix__a"><feGaussianBlur stdDeviation="30"/></filter><rect width="100%" height="100%" fill="#493530"/><g filter="url(#prefix__a)"><path fill="#95908c" fill-opacity=".8" d="M657.5-19.6L-37.5 8l495.7 237.6 87 203.7z"/><path fill="#869299" fill-opacity=".8" d="M187.7 330.1l469.8 65.4L100 449.3 75-37.5z"/><path fill="#5d554c" d="M115 382.2l273.2-191.8 33-113.9-93 6.8z"/><path fill="#fff9ee" fill-opacity=".4" d="M498.2 7.3L346 47.5 513.9 171l107.8-98.8z"/><path fill="#340802" fill-opacity=".6" d="M596.3 121.3l-16.7 185.8-120-162.3-31.9 183.8z"/><path fill="#09181f" fill-opacity=".7" d="M307.8 203.7l177.5 48.9 8.5 87.2-210.7 23z"/><path fill="#ffdfb8" fill-opacity=".4" d="M193.3 187.2l112.3 19.9-20.5 72.9-33 1.4z"/><path fill="#d9effc" fill-opacity=".3" d="M40.4 429.9L480 449.3 283.6 345.8 24 380z"/><path fill="#aeb6c6" fill-opacity=".6" d="M506.4 71.7L105.8 57.9-37.5 34.4l264-25.2z"/><path fill="#555f66" fill-opacity=".8" d="M169 329.4L71.7 443.7 8.2 338.8 117 197.4z"/><path fill="#eefffd" fill-opacity=".4" d="M485.1 167.1L538.4 282l47.2 8.7-88.6 31z"/><path fill="#7d898a" fill-opacity=".7" d="M314.6 387.7L496.2 320l112.2 71-69.8 54z"/><path fill="#6a6762" fill-opacity=".7" d="M257.2 139l85-60.8L96 50 19.4 177z"/><path fill="#5d1c1a" fill-opacity=".9" d="M582.2 101l-16.2 1-34.2 177 68.3-76.5z"/><path fill="#0e0b00" fill-opacity=".4" d="M576 58.1l-291.4 33L422 344.6l-91-224z"/></g></svg>