<svg xmlns="http://www.w3.org/2000/svg" viewBox="0 0 620 414"><defs/><filter id="prefix__a"><feGaussianBlur stdDeviation="30"/></filter><rect width="100%" height="100%" fill="#603f35"/><g filter="url(#prefix__a)"><path fill="#ad9b9b" fill-opacity=".7" d="M262.8-37.5H554l-12.3 486.8L86.2 204.9z"/><path fill="#ebfafb" fill-opacity=".6" d="M226-29.8l20.8 135.6L343.9 71 584.6 1.2z"/><path fill="#000003" fill-opacity=".4" d="M611.8 386.3L509.6 156l-142.4 32L657.5 26.1z"/><path fill="#b97e4b" fill-opacity=".6" d="M259.1 364.7l398.4-26.1-91.3 110.7-474.9-63z"/><path fill="#6b5a55" d="M298.4 220.4l92-54L363 107 92.8 71z"/><path fill="#272333" fill-opacity=".8" d="M218.5 260.1l70.7 126.4 35-31-7-69z"/><path fill="#eaeaf5" fill-opacity=".6" d="M386.5 265.2l-235.4-74.6L203 147l42.3 47.2z"/><path fill="#c48764" fill-opacity=".5" d="M211.2 279l-64-251.4-42 259.4 86.9 85.2z"/><path fill="#aca9a8" d="M255.3-14.5L517 73.4 392.8 91.3l15.3 63z"/><path fill="#3a4653" fill-opacity=".7" d="M133.7 5.8l96.9-8.5 12.3 127.4-53 30.5z"/><path fill="#160e0b" fill-opacity=".9" d="M655.1 362.3l2.4-123.5-58-175.8-44.6 270.7z"/><path fill="#221b0f" fill-opacity=".6" d="M6.8 111.2L12 238.6 107.8 416l-145.3 1.2z"/><path fill="#c2cdf2" fill-opacity=".9" d="M524.3 334.5l-33.1-42.7 25.4-7.5 32.7 24z"/><path fill="#49353d" fill-opacity=".7" d="M282.1 449.3L431 321.9l-88-.8 89.6 118z"/><path fill="#efaf52" fill-opacity=".6" d="M401.3 410L433 271.5l39.5 66.6 103.2 3.4z"/></g></svg>