<svg xmlns="http://www.w3.org/2000/svg" viewBox="0 0 620 414"><defs/><filter id="prefix__a"><feGaussianBlur stdDeviation="30"/></filter><rect width="100%" height="100%" fill="#6e4335"/><g filter="url(#prefix__a)"><path fill="#b4f3ea" fill-opacity=".3" d="M341-37.5L-37.5 448l585.3-32.4L657.5 46.3z"/><path fill="#110b05" fill-opacity=".9" d="M5-37.5l-42.5 380 177-176.6-35.1-203.4z"/><path fill="#3a1600" fill-opacity=".5" d="M207.8 250.7l10.7-270.3 26.4 14 82.5 454.9z"/><path fill="#fed8c9" fill-opacity=".4" d="M117.2 414.1l-117.4-92 196.1-84.3 77 120.4z"/><path fill="#ccf0f4" fill-opacity=".4" d="M230.6 179.7L512 157.4l145.5 56-226.4 11.8z"/><path fill="#480900" fill-opacity=".6" d="M234.2 437.6l61-38.5 75.1-121.3-62-43.4z"/><path fill="#3e5f65" fill-opacity=".6" d="M657.5-37.5L536.7-19l-65.2 212 186-21.9z"/><path fill="#4b5f5b" fill-opacity=".8" d="M643 224l-141.2 2L528 419l129.5 30.3z"/><path fill="#8f9383" fill-opacity=".8" d="M314.6 167.8l-52.3 178 4.3-383.3H635z"/><path fill="#b6876e" fill-opacity=".7" d="M190.6 34L132 87.3l72.9 91.3 21-6.5z"/><path fill="#5d2510" fill-opacity=".4" d="M30.8 223.8l93-128.4 80.6 92.5-88.2 125z"/><path fill="#c7e1d7" fill-opacity=".5" d="M472.5 115.5l-142.4 34 133-8.5 194.4-49.2z"/><path fill="#ebf7fa" fill-opacity=".4" d="M592.6 157l-235.1 45-84.3-21 25-7.4z"/><path fill="#030a09" fill-opacity=".4" d="M652.5-15.3L625.8 20l-144 50-216.6 67.4z"/><path fill="#dbfaf2" fill-opacity=".4" d="M239.5 149.7l166.4-37 237.6-73.2 14-25.2z"/></g></svg>