<svg xmlns="http://www.w3.org/2000/svg" viewBox="0 0 620 414"><defs/><filter id="prefix__a"><feGaussianBlur stdDeviation="30"/></filter><rect width="100%" height="100%" fill="#634e40"/><g filter="url(#prefix__a)"><path fill="#9f989b" fill-opacity=".8" d="M25 209.3l-11-176 480.8-71L523 158.2z"/><path fill="#ddfef7" fill-opacity=".4" d="M420 18.2l23.4 175-100.2 201.3-87.7 54.8z"/><path fill="#030001" fill-opacity=".7" d="M121.8 147l35.1 11.6 86.7 154.8L116 362.8z"/><path fill="#9fa3a7" d="M54.7 315.8l33-68.3 10.9-84.3L-37.5 220z"/><path fill="#0f110d" fill-opacity=".8" d="M657.5 425.5L619 8 502.8 307.6l-134.2 103z"/><path fill="#220c03" fill-opacity=".8" d="M405.7 51.1l-39.8 37.5L294 60.8 402.5-5.1z"/><path fill="#f7dbef" fill-opacity=".4" d="M246.5 175.3L133.7 85.7 239-33.7 333.7 298z"/><path fill="#b0bcc4" fill-opacity=".3" d="M657.5 266.2l-75-170 7-48.5L482 74.6z"/><path fill="#283736" fill-opacity=".9" d="M346.8 230.8l-92.7 175.3 131.7 42.7-311 .5z"/><path fill="#42241f" fill-opacity=".9" d="M365.2 179L350 144l-102 88-51.8-29.4z"/><path fill="#090605" fill-opacity=".9" d="M550 244.4l43.1-168.8-28.3-61.3L657.5-25z"/><path fill="#0a2002" fill-opacity=".6" d="M382 365.2l-26-108 24.5-36.6 23.7 167.6z"/><path fill="#f8fdfd" fill-opacity=".5" d="M404.2 228.4L377.8 71.7l-14 106.8L345 216z"/><path fill="#030707" fill-opacity=".5" d="M96 207.3l-7.1 53 55.2-77-69.3-32.9z"/><path fill="#a09a9a" fill-opacity=".7" d="M218 307.3l54.5-4.3 4-231.6 42.2 173z"/></g></svg>