<svg xmlns="http://www.w3.org/2000/svg" viewBox="0 0 620 414"><defs/><filter id="prefix__a"><feGaussianBlur stdDeviation="30"/></filter><rect width="100%" height="100%" fill="#4b332a"/><g filter="url(#prefix__a)"><path fill="#d5d8dd" fill-opacity=".6" d="M538.9 285l-136.1 16.3-143.4-153 236.1-14.1z"/><path fill="#d4afa0" fill-opacity=".8" d="M313.4 274l-47.7-140.8 48.4 5.6-72.9 149.6z"/><path fill="#080306" fill-opacity=".8" d="M-34 444.4L-37.4 34 95.2-37.5l233.7 486.8z"/><path fill="#050000" fill-opacity=".5" d="M381.4-12.4L335 449.3l-23.2-305-290.9-123z"/><path fill="#f4c26e" fill-opacity=".5" d="M657.5 144.8V85.5l-127.4 13-3.8 59z"/><path fill="#ffe6fa" fill-opacity=".3" d="M121.3 238.3L107.8 213l47.4 1 127.7 116z"/><path fill="#fafaff" fill-opacity=".5" d="M408.8 310.2l75.8-137.5L338 157.2l75.3 67z"/><path fill="#576a79" fill-opacity=".5" d="M488.3 449.3l146-172-150.9-149.2L448.3 337z"/><path fill="#00011a" fill-opacity=".5" d="M487 449.3H203.4L64 295.7l367-1.4z"/><path fill="#1a0a00" fill-opacity=".7" d="M548.3-37.5L524.6 145l-236-127.9 40 160z"/><path fill="#faccb6" fill-opacity=".5" d="M201.5 94.7l-41.2 20.8 42.4 30.3 27.4-11.6z"/><path fill="#150b04" fill-opacity=".7" d="M657.5 47.2l-91.8 1.2L105.6-3.4l518-34.1z"/><path fill="#eaa796" fill-opacity=".3" d="M356.7 362.6L299.1 386l8.7-194.4-71 77.7z"/><path fill="#7f6252" fill-opacity=".9" d="M282 207.6l38.4-69.6-34.6-4 150.6 103z"/><path fill="#f5e9e7" fill-opacity=".2" d="M521 270.3l-192.6 7 142.2-148.5-71-2.6z"/></g></svg>