<svg xmlns="http://www.w3.org/2000/svg" viewBox="0 0 620 414"><defs/><filter id="a"><feGaussianBlur stdDeviation="30"/></filter><rect width="100%" height="100%" fill="#623d32"/><g filter="url(#a)"><path fill="#edf0ee" fill-opacity=".5" d="M584.9 449.3L657.5 175 15.5-37.5l-53 339.3z"/><path fill="#f1f0f4" fill-opacity=".5" d="M457 449.3l-321.9-43L318 378.6l258.9-294z"/><path fill="#cad6da" fill-opacity=".9" d="M-37.3 12.6l297.7-50.1-17.2 214L121.6 48z"/><path fill="#0f1633" fill-opacity=".7" d="M167.1 209L366 247l-85.4 161-35.9-247z"/><path fill="#d6d7d2" d="M657.5 26.6l-99 29.3L510-37.5l103.7 27z"/><path fill="#936f60" d="M306.4-13.8l-185 463 177-278.2 210.2-27z"/><path fill="#86604c" fill-opacity=".8" d="M212.2 229.4L126.7 64.9l-131 167.6 179.9 180z"/><path fill="#000a27" fill-opacity=".8" d="M158.9 449.3H-26.4L63 300.6l57.6 30.2z"/><path fill="#c5cfd3" d="M-37.5 232.3l26.1-221.4 63.7-48.4 14.3 201z"/><path fill="#29190e" fill-opacity=".9" d="M348.5-5.8L474 147.5l87.6-34.4L426.5-13.6z"/><path fill="#f7fafa" fill-opacity=".8" d="M368.6 240.5l36.1-10-53-69.2-64.7 30.5z"/><path fill="#3e462d" d="M596.8 24.5L568.1 172l89.3 100-9-140.7z"/><path fill="#fee7de" fill-opacity=".5" d="M657.5 280.2L523.6 130.3l-38.3 12.6 167.9 261.8z"/><path fill="#b8968f" fill-opacity=".9" d="M269.8 388.2l8-117-73.4 7.3-16.5 146z"/><path fill="#e3bca8" fill-opacity=".4" d="M601.6 297.9l-306.4-234-54.5-101.4h47.5z"/></g></svg>