<svg xmlns="http://www.w3.org/2000/svg" viewBox="0 0 620 929"><defs/><filter id="prefix__a"><feGaussianBlur stdDeviation="30"/></filter><rect width="100%" height="100%" fill="#4c4337"/><g filter="url(#prefix__a)"><path fill="#f0ebf3" fill-opacity=".5" d="M543.2 770.8L379.2 278 138.6 379.6 484.1 926z"/><path fill="#04081e" fill-opacity=".6" d="M270.4 447.8L-56.2 881.5 307 985.2l52.6-321.5z"/><path fill="#c3c7c4" fill-opacity=".6" d="M355.6 344.4l133.6 190.5-52.3 396-91.4 54.3z"/><path fill="#0a0700" fill-opacity=".7" d="M-56.2 28.7l494.6 301.2L591 985.2 676.8-56.2z"/><path fill="#edf9ff" fill-opacity=".4" d="M-56.2 352.7l308.4.8-35.6 202.8L48 260.6z"/><path fill="#6d6859" d="M74 666.3l55.6 36.6 45.7-380L61 507z"/><path fill="#8c6d6b" d="M200.3 249.7l59.9-11.6-15.6-.8 88.9 415.2z"/><path fill="#12110a" fill-opacity=".8" d="M676.8 182.9l-446.4 47.9-74 156.8L141.2-41z"/><path fill="#1d160e" fill-opacity=".7" d="M-56.2 532.4l21-66L88.5 435 11.6 978.7z"/><path fill="#14110a" fill-opacity=".5" d="M101.2 578L598 339.4 488.5-56.2 390 418.4z"/><path fill="#fff2ec" fill-opacity=".3" d="M311 614.7l-44-256.9 112.2-104.5 22.2 43.5z"/><path fill="#e9e6ed" fill-opacity=".7" d="M234 288.9L158 455l45.3 52.6 41-40.3z"/><path fill="#040c28" fill-opacity=".4" d="M114.7 604.2L249.3 686l75.5-235.2-36.3-4z"/><path fill="#8a949c" fill-opacity=".4" d="M495.7 542.9L302 873.9l61.4 111.3L561.8 904z"/><path fill="#4f4f3a" fill-opacity=".6" d="M152 434.7l-9.4-491L4 7.4l96.5 419.5z"/></g></svg>