<svg xmlns="http://www.w3.org/2000/svg" viewBox="0 0 620 414"><defs/><filter id="a"><feGaussianBlur stdDeviation="30"/></filter><rect width="100%" height="100%" fill="#5c4333"/><g filter="url(#a)"><path fill="#b9a79d" fill-opacity=".9" d="M552 449.3l27-125.7L123-37.5l132 486.8z"/><path fill="#746249" fill-opacity=".9" d="M393.3 333.3L657.5-21.4 269.3-35l37 346.1z"/><path fill="#fff6f4" fill-opacity=".7" d="M428 291.6l85.7-46L575.4 438l-269.3-9z"/><path fill="#000b13" fill-opacity=".6" d="M135.6 194.7L26 449.3l209-9.2-32.7-347.8z"/><path fill="#eaeaeb" fill-opacity=".9" d="M239 449.3l-28.8-254.8 38 18.4 23.5 138.5z"/><path fill="#020710" fill-opacity=".8" d="M279.5 449.3h25.7L293 329.6l-33.6-103.2z"/><path fill="#8f9e7f" fill-opacity=".4" d="M406.6 45.3L188-37.5 45.8 92.5l47.2 170z"/><path fill="#f9d8c6" fill-opacity=".7" d="M324.3 406.9l46 42.4 1.2-235.2-29 1.7z"/><path fill="#3c2d24" d="M201.5 121.6l32 10.1L247.8 45l-55.5 53.8z"/><path fill="#000109" fill-opacity=".7" d="M328.6 237.3l-25.9-25.1 12.9 164.2 28.8-108.5z"/><path fill="#e0e4ea" fill-opacity=".7" d="M7.8 308l3.6 87-16.5 28.8L.7 167.4z"/><path fill="#c7b39e" fill-opacity=".9" d="M228.4 48.2l-90.1 99.3-16.5-32.7 83.3-152.3z"/><path fill="#412d1f" fill-opacity=".7" d="M372.5 284.3l153.8-26.9 2.4-133.2-157 237.4z"/><path fill="#f8b198" fill-opacity=".6" d="M292.6 180.4L319 90.6l-74-18-34.5 141z"/><path fill="#f2f6fa" fill-opacity=".7" d="M266.2 195.2l26.6 44.6 16.5 66 3.6 143.5z"/></g></svg>