<svg xmlns="http://www.w3.org/2000/svg" viewBox="0 0 620 414"><defs/><filter id="prefix__a"><feGaussianBlur stdDeviation="30"/></filter><rect width="100%" height="100%" fill="#344146"/><g filter="url(#prefix__a)"><path fill="#e9d8b9" fill-opacity=".4" d="M197.6 417l-152 32.3L-.3-15.3l657.7 38.6z"/><path fill-opacity=".7" d="M299.3 449.3h281L466.3 271l-59.7-146.8z"/><path fill="#321204" fill-opacity=".8" d="M84.5 39.7l57.7 20.1 99.7 132-77.5-229.3z"/><path fill="#b5c5d7" fill-opacity=".8" d="M127.4 332.5l182.1 116.8H4.4l125.2-204.7z"/><path fill="#8c8f79" fill-opacity=".6" d="M552.2 409l-20.6-101L309.3 1.8l303.2 78z"/><path fill="#add1eb" fill-opacity=".7" d="M290.4 117.5l3.1-155H166.1L225 117.9z"/><path fill="#c8a8a3" fill-opacity=".6" d="M112.1 299.8l9.2-203-83 93.3-75.8 87.2z"/><path fill="#2e1b16" fill-opacity=".6" d="M312.4 216.8l114.3-111.4-191.3 47 7-41.7z"/><path fill="#0a1105" fill-opacity=".5" d="M442.7 449.3l-214.6-54.5 92-110L120 177.5z"/><path fill="#28363f" d="M17 285l17.4-1.6 46.5 28.3-53.5 104.9z"/><path fill-opacity=".9" d="M564.8 402.5l-13.1-78 76.8 34.4-23.3 55.2z"/><path fill="#1ff8ff" fill-opacity=".2" d="M394 345.1l-50.3-124-65-6.8L307.2 349z"/><path fill="#f1d7dc" fill-opacity=".5" d="M130 386.5l30.3-65.1 88-30 33.1 7.5z"/><path fill="#d6edff" fill-opacity=".3" d="M560 449.3L533.2 300l124.2-49.2-97.6-9.2z"/><path fill="#81867b" fill-opacity=".8" d="M538.4 80l-45.5 233.4-37.6-279.5-32 234.7z"/></g></svg>