<svg xmlns="http://www.w3.org/2000/svg" viewBox="0 0 620 414"><defs/><filter id="a"><feGaussianBlur stdDeviation="30"/></filter><rect width="100%" height="100%" fill="#474747"/><g filter="url(#a)"><path fill="#f2f2f2" fill-opacity=".9" d="M-2.2 449.3L-6.8 32.5l156 40.2L218 402z"/><path fill="#ececec" fill-opacity=".7" d="M401-37.5l235.2 24L657.5 425l-375.1.3z"/><path fill="#0f0f0f" fill-opacity=".9" d="M138.3 145L376 100.9l45.5 130.7L144 190.5z"/><path fill="#a2a2a2" fill-opacity=".9" d="M657.5 242L308.8 75.7-37.5 9.4l599.4-47z"/><path fill="#fff" fill-opacity=".5" d="M302.5 336.4l-1 112.9 356-87L322 198.6z"/><path fill="#131313" fill-opacity=".8" d="M293.5 405.7l-91.3 41.9 6.6-375.4 98.3 169z"/><path fill="#f7f7f7" fill-opacity=".9" d="M-37.5 240.7l222-44.3 22.8 56-10.2 176.8z"/><path fill="#e9e9e9" d="M642.8 203.2l-192.6-20.6-32.7 65.6 240 41z"/><path fill="#a1a1a1" fill-opacity=".7" d="M215-15.5L-37.4-1.2 75 81l128.8 15.5z"/><path fill="#030303" fill-opacity=".6" d="M414.9 190.6l-7.8-80.2-133.7 195 29.3-266.2z"/><path fill="#6d6d6d" d="M291.6 28.8l-64.4 52.6 18.6 51.8 66.6-41.7z"/><path fill="#ececec" d="M432.8 154l224.7 162.3L549 269.6l-153.8-76.8z"/><path fill="#5c5c5c" fill-opacity=".6" d="M564.5 189L518-37.6l33.5 193.2-202.7-28.3z"/><path fill="#b7b7b7" fill-opacity=".7" d="M379.5 158.6L365.2 56.4 161.8-1.5l262.5-31.2z"/><path fill="#202020" fill-opacity=".7" d="M218 50.4l34.4 8.2L173.9 203l-29.6-3.7z"/></g></svg>