<svg xmlns="http://www.w3.org/2000/svg" viewBox="0 0 620 929"><defs/><filter id="prefix__a"><feGaussianBlur stdDeviation="30"/></filter><rect width="100%" height="100%" fill="#5b382d"/><g filter="url(#prefix__a)"><path fill="#d8f1eb" fill-opacity=".5" d="M-56.2-56.2l676.7 21.4L514 903.6-21.8 573.4z"/><path fill="#dadedf" fill-opacity=".9" d="M351.6 873.5L232.6 337l368 374.2 1.8 79.4z"/><path fill="#1b0d05" fill-opacity=".8" d="M566.8 675.3L392.6 474l8.4-176.7 175-38.8z"/><path fill="#000613" fill-opacity=".7" d="M133.2 275.8L241 927.5l54.8 1.9-71.5-643.8z"/><path fill="#bfb4a7" d="M171 518.2L58.7-56.2l-115 513.8 279.4 196z"/><path fill="#35110c" d="M676.8 711.6l-65 273.6-668-82 561.7-42.8z"/><path fill="#e0c9a3" fill-opacity=".7" d="M351 368.3L639.7-56.2 309.5 243l-324-71.5z"/><path fill="#120205" fill-opacity=".7" d="M364.3 871.7l-399.5 28.6 292.9-291 22 216z"/><path fill="#161b27" fill-opacity=".8" d="M133.2 325.1l182.5 58.1-40.3-76.6-129.9 82.8z"/><path fill="#61554b" fill-opacity=".7" d="M609 507.3l67.8 136.8-257-369 205.5-168.8z"/><path fill="#63432a" fill-opacity=".7" d="M286.7 148.8l66.8 128-85.3-67-143.7-4.4z"/><path fill="#0d0402" fill-opacity=".7" d="M456.5 539.6l27.6-128.8 42.8-.4 149.9 404.7z"/><path fill="#471911" fill-opacity=".7" d="M-56.2 930.8l164 54.4 29-377-149.1 3.3z"/><path fill="#aea9a0" d="M438.4 256.2l-69.7 8.3L634-33.4l22 109.2z"/><path fill="#a8b2b8" fill-opacity=".5" d="M418.8 886.5l-133.6-80.2-11.6-51.1 325.5 42.4z"/></g></svg>