<svg xmlns="http://www.w3.org/2000/svg" viewBox="0 0 620 414"><defs/><filter id="prefix__a"><feGaussianBlur stdDeviation="30"/></filter><rect width="100%" height="100%" fill="#2a515c"/><g filter="url(#prefix__a)"><path fill="#efb698" fill-opacity=".6" d="M533 449.3L318.8 441l60-94 1.8-349.4z"/><path fill="#f2fafb" fill-opacity=".8" d="M99-37.5l-123 6.7L-37.5 56l90 15.5z"/><path fill="#2d1d00" fill-opacity=".6" d="M657.5-15.3v227.7l-580-38.5 5-211.4z"/><path fill="#bf9982" fill-opacity=".6" d="M509.6 245L377.8 20.2l-10.9 251 124.5 41.6z"/><path fill="#0c1000" fill-opacity=".6" d="M92 423.8l235.2 10 70.5-136.6-297.7-102z"/><path fill="#192505" fill-opacity=".7" d="M550.7 405.4L657.5 78.7l-101-116.2-72.9 406.4z"/><path fill="#acc7fb" fill-opacity=".6" d="M595.5 255.3l37.8 20.6 24.2 121.5-76-56.6z"/><path fill="#625a46" d="M413.4 200.3l-159.8-19.9-127-130.8 119.5 242.2z"/><path fill="#0a2000" fill-opacity=".6" d="M415.4 136.6L154.3 221 345.6-37.5 379 235.9z"/><path fill="#fef3ef" fill-opacity=".5" d="M382.9 263.3l3.6 186 54-304.7L359 253.8z"/><path fill="#efe4d8" fill-opacity=".6" d="M175.6 112.9l-26 19 54.6 26.5-.5-45z"/><path fill="#fcb6da" fill-opacity=".6" d="M14.3 187.7l-51.8 44.6 47 17.4 22-17.7z"/><path fill="#fa0b13" fill-opacity=".5" d="M569.4 449.3l25.2-92.3 63 21.5-45.6 70.8z"/><path fill="#624d2f" fill-opacity=".6" d="M657.5 204.4l-211 3.4-21.7 230.3 49.6-177z"/><path fill="#1e1900" fill-opacity=".6" d="M173.4-37.5L-24.2 151.9l139-63.3 395.7-84z"/></g></svg>