<svg xmlns="http://www.w3.org/2000/svg" viewBox="0 0 620 414"><defs/><filter id="prefix__a"><feGaussianBlur stdDeviation="30"/></filter><rect width="100%" height="100%" fill="#644538"/><g filter="url(#prefix__a)"><path fill="#d8eff3" fill-opacity=".7" d="M-37 449.3L-25.5-33l460.1 46.7L309 449.3z"/><path fill="#0d0910" fill-opacity=".8" d="M322.6 253l-87.2-4.5-19.4-143 141 44.2z"/><path fill="#d4f1f0" fill-opacity=".6" d="M657.5 226L619.8-37.5l-124.5 30 80.6 209.7z"/><path fill="#00060d" fill-opacity=".8" d="M393.6 292.6L307 412.4l275.4 9 72.4-219.7z"/><path fill="#f1fbf8" fill-opacity=".7" d="M291.1-37.5L6.5-13.8l-44 356.5L120 298.9z"/><path fill="#958b7b" fill-opacity=".8" d="M354 352.1L304.5-34l294.8 58.3-156 44.1z"/><path fill="#070800" fill-opacity=".5" d="M560 111L449.2 402 443 56.4 543.2 82z"/><path fill="#113924" fill-opacity=".2" d="M164 137.6L87.2 411.2l156.7-54.7-29-181.2z"/><path fill="#eccdb4" fill-opacity=".5" d="M340.8 91.3l108.7 181.6-34.9 6.6-45.7-47.2z"/><path fill="#3d75b4" fill-opacity=".6" d="M382.2 283.8L288 286l-9.2 106.3 30.2 46z"/><path fill="#f9f5fb" fill-opacity=".5" d="M111.4 313.6L427 235.4l-232.8 29.3-138-96.4z"/><path fill="#adb9b8" fill-opacity=".5" d="M579.6-27.9l-50 240.8 21.9 18.6L648 96.1z"/><path fill="#000008" fill-opacity=".4" d="M237.3 242.7L226 122.3l139.7 85 4.1 20.4z"/><path fill="#fdfeff" fill-opacity=".5" d="M376.8 86l-2.6-28.1L342 94.7l16.4 106z"/><path fill="#fef7eb" fill-opacity=".5" d="M281 308L87.6 369.9l4.8 73.9-130-58.4z"/></g></svg>