<svg xmlns="http://www.w3.org/2000/svg" viewBox="0 0 620 414"><defs/><filter id="a"><feGaussianBlur stdDeviation="30"/></filter><rect width="100%" height="100%" fill="#4c4639"/><g filter="url(#a)"><path fill="#ceccc0" fill-opacity=".8" d="M657.5-26.4l-695-11.1 7.2 334.7 648.4 152z"/><path fill="#5a5236" fill-opacity=".8" d="M-37.5 100L200 215.5l45.6 233.8 72.6-303z"/><path fill="#edeae6" d="M212.9 418.7l-56.7 30.6 7-186.5 42.2 10.1z"/><path fill="#f1eee4" fill-opacity=".8" d="M265.2 216.8l-2.2 15.5L-16 222l17.2-72.4z"/><path fill="#795d3d" fill-opacity=".6" d="M455 115.5l-134.8 9.2L564 276.1l-100.6 32z"/><path fill="#f9ffff" fill-opacity=".5" d="M657.5 262L378.1 388l-168.6 53 448 8.3z"/><path fill="#644f39" fill-opacity=".5" d="M367.6 449.3l58.9-156.5-218.7-9.7 7.7 166.2z"/><path fill="#dfe6e3" fill-opacity=".6" d="M657.5.2L-2.2-31.5-37.5 89l649.8 34z"/><path fill="#f0ede7" d="M171 265.4l-208.5-14.7V311l216.2-5.6z"/><path fill="#463525" fill-opacity=".7" d="M0 310.5l-37.5 76.8L157.9 370l3.4-62z"/><path fill="#666740" d="M195.7 159.6l-233.2-14.5L62.7 92.3 112 201.5z"/><path fill="#b7b5a5" fill-opacity=".6" d="M299.3-37.5l46 183.8-1.4 303-52.8-76z"/><path fill="#040f11" fill-opacity=".5" d="M577.1 268.8l23.8 1-4.6-96L620 294.6z"/><path fill="#f3efed" fill-opacity=".4" d="M455 307.6L284.4 209l102-72.2 56 44.1z"/><path fill="#897554" fill-opacity=".7" d="M299.3 138l-153.7-18.4-70.3 81 127 5.3z"/></g></svg>