<svg xmlns="http://www.w3.org/2000/svg" viewBox="0 0 620 414"><defs/><filter id="prefix__a"><feGaussianBlur stdDeviation="30"/></filter><rect width="100%" height="100%" fill="#444"/><g filter="url(#prefix__a)"><path fill="#acacac" fill-opacity=".7" d="M594-37.5l-18.6 243.8-410.2 19.4L138 2z"/><path fill-opacity=".9" d="M154.5 230L133.7-37.4 57.9 2.9l2.9 99.8z"/><path fill="#0b0b0b" fill-opacity=".6" d="M53 449.3l150.4-235-232 22.6 17.2 212.4z"/><path fill="#222" d="M657.5 424l-133.2-11L80 414l577.5-196z"/><path fill="#fafafa" fill-opacity=".5" d="M191.3 330.6L96 379.3l51.8 15.5 99-65.2z"/><path fill="#fdfdfd" fill-opacity=".4" d="M197.6 41.7l37.8 87.1 23-166.3-136.8 51z"/><path fill="#050505" fill-opacity=".2" d="M122.5 200L113.3-.2l260.2 174.8 284-2.9z"/><path fill="#e4e4e4" fill-opacity=".4" d="M106.6 167.8l-45 35.2-4.4-33.7L26.6 40.7z"/><path fill="#ebebeb" fill-opacity=".4" d="M488.3 89.9L616.9-34l-37.3 50.1-345 26.2z"/><path fill-opacity=".4" d="M537.7 185.3l-227.2-2.4 170-8.8 73.4-48.6z"/><path fill="#646464" d="M631.1 34.1l-63.7 181L574 77l-58.1-37.6z"/><path fill="#010101" fill-opacity=".7" d="M48.4 126.4l-27.8-1.7-28.1 91 67.6-41z"/><path fill="#fff" fill-opacity=".4" d="M545.4 189.9l-234.7 17.7 7.8-134.2-4.4 108.2z"/><path fill="#6f6f6f" fill-opacity=".7" d="M-37.5 146l15.7-183.5 83 28.3-8.4 121.6z"/><path fill="#fafafa" fill-opacity=".3" d="M291.4 149.4L174.9 83.1l72.6-1.2-16.5 107z"/></g></svg>