<svg xmlns="http://www.w3.org/2000/svg" viewBox="0 0 620 414"><defs/><filter id="a"><feGaussianBlur stdDeviation="30"/></filter><rect width="100%" height="100%" fill="#2b3549"/><g filter="url(#a)"><path fill="#cdced5" fill-opacity=".8" d="M-20.3-37.5l11.8 385 666-256L620-32.7z"/><path fill="#b2c7da" fill-opacity=".8" d="M490.2 439l167.3-30.2V80L407.4-37.5z"/><path fill="#e4ecf5" fill-opacity=".8" d="M254.8 345.1l20.8 100-312 4.2L-6 347z"/><path fill="#060000" fill-opacity=".7" d="M565.3 187.2L102.9 382.7l266.4-277.3 89.4 80.4z"/><path fill="#010000" fill-opacity=".8" d="M296.7 137.3l9.2-20 183.6 311.1-229.1 20.9z"/><path fill="#d2d2db" fill-opacity=".8" d="M73.4 208.8l69.2 210-180.1-211L3 449.3z"/><path fill="#d6e1ec" fill-opacity=".9" d="M260.1 317.5l.3 63.5 7.7 68.3-161-54.5z"/><path fill="#d7939b" fill-opacity=".6" d="M657.5 168l-297.4-36.7-18.6 69.2L646.2 26.6z"/><path fill="#c1e9f5" fill-opacity=".7" d="M455.8 276.8l-2.2-63.2 204 215.3-161.4-7z"/><path fill="#c2c8d4" d="M404.2 87.7L390.4-37.5H81l41 239.7z"/><path fill="#030100" fill-opacity=".8" d="M330.1 265.2l-107.5 72.9-96.7 30.8-18.6-76.1z"/><path fill="#232935" fill-opacity=".9" d="M559.7 166.4l7 24.7-196.4 59.3 99.5-58.6z"/><path fill="#5bbde1" fill-opacity=".7" d="M548.3 339.8L459.4 224l134.4-27.8 19.9 143.1z"/><path fill="#3a6d8a" d="M64.2 303l58.6 5-28.6-19.3-25 2z"/><path fill="#b3c8d8" fill-opacity=".8" d="M408 168.3l-20.7-88.1h100.5l86.7 83.5z"/></g></svg>