<svg xmlns="http://www.w3.org/2000/svg" viewBox="0 0 620 414"><defs/><filter id="prefix__a"><feGaussianBlur stdDeviation="30"/></filter><rect width="100%" height="100%" fill="#432725"/><g filter="url(#prefix__a)"><path fill="#ab9795" fill-opacity=".8" d="M631.9 449.3l-669.4-39 123.7-396 571.3-49.4z"/><path fill="#160a07" fill-opacity=".7" d="M400.8 191l-438.3-23.6 302.7-84.8H443z"/><path fill="#bfd2e8" fill-opacity=".7" d="M657.5 443.4l-55.2-481L561 235 285.5 388.7z"/><path fill="#cea485" d="M-9 203.2l-28.5 246h415L175.4 182.7z"/><path fill="#5a0400" fill-opacity=".5" d="M53 355.3L499.6 288l-338-104.4 182.8-18z"/><path fill="#03172a" fill-opacity=".7" d="M579.3-27.9L470.8 207.6 454.1 175 530.9 4.8z"/><path fill="#8d6848" fill-opacity=".8" d="M165.9 154L-37.5 95.2 58.4-37.5 376 4z"/><path fill="#d5c6de" fill-opacity=".5" d="M-37.5 267.1l295.2-5.8-109.5-116-122.5 304z"/><path fill="#221513" d="M-37.5 207.8l125.9-26 54.5-32.1-90.1-43.9z"/><path fill="#6d93e3" fill-opacity=".5" d="M564.5 129l93 107.1L456.8 306l-80-87.7z"/><path fill="#de9b4b" fill-opacity=".9" d="M210 384.4l-113.6 3.3L218 258.4l105.8 156.7z"/><path fill="#16131c" fill-opacity=".8" d="M206.6 213.4l166.1-66.6-13.3-184.3-26.2 146.2z"/><path fill="#c5875e" fill-opacity=".8" d="M318.5-37.5l14 129.5-6.3 40.2L231.8-1z"/><path fill="#d9c8cc" d="M293.8 410.8l-159.6-15L-37.5 303 3.6 442.2z"/><path fill="#d7545f" fill-opacity=".7" d="M299.8 255l-40.4-72.6 99.8-4.4 35 22.5z"/></g></svg>