<svg xmlns="http://www.w3.org/2000/svg" viewBox="0 0 620 929"><defs/><filter id="prefix__a"><feGaussianBlur stdDeviation="30"/></filter><rect width="100%" height="100%" fill="#58612d"/><g filter="url(#prefix__a)"><path fill="#f8d7b7" fill-opacity=".6" d="M489.5 665.2l92.6-721.4-476.5 70.4-130.3 711.2z"/><path fill="#020101" d="M676.8 985.2l-733-43.1V749.7l733-111.4z"/><path fill="#ecefe9" fill-opacity=".9" d="M91.4 43.5l546.2 5.1 5.8 73.3-476.8-24.6z"/><path fill="#0e0500" fill-opacity=".7" d="M121.6 159.3l-177.8-4.7 206.8-44.3 312.8 25z"/><path fill="#340200" fill-opacity=".5" d="M676.8 132.8l-322.3-13L486 197l74.8 729.5z"/><path fill="#0f2b0c" fill-opacity=".5" d="M197 262l244.6-9-17.4 100.8-144.8-25.4z"/><path fill="#9e7e41" d="M-56.2 598.8L130.3 540 74 157.5-30.5 196z"/><path fill="#e6d195" fill-opacity=".6" d="M505.9 496L520 652.2l-364.7 64.2-50.8-295.7z"/><path fill="#e7dcb7" fill-opacity=".9" d="M455.4 498.2l44.3 41.4L513.5 330l-72.2-129.2z"/><path fill="#704d17" fill-opacity=".6" d="M-56.2 315L8 492.8l229.7-188 22.1 143.7z"/><path fill="#e9f5ff" fill-opacity=".8" d="M85 320.8l63.4-49.7 62.8 28.6-44.6 71.5z"/><path fill="#d6cba5" fill-opacity=".9" d="M228.6 220.3l-284.8-35.6 405-33.7L376 286z"/><path fill="#e6b26c" fill-opacity=".7" d="M15.6 55.9L271.1 103 72.2 120l-115 22.2z"/><path fill="#03090e" fill-opacity=".5" d="M466.7 199.6l98.7 180L409.7 164l-129.5-20z"/><path fill="#574206" fill-opacity=".6" d="M386.8 439.5l-111 20.6v-71.4l78.7-6.2z"/></g></svg>