<svg xmlns="http://www.w3.org/2000/svg" viewBox="0 0 620 414"><defs/><filter id="prefix__a"><feGaussianBlur stdDeviation="30"/></filter><rect width="100%" height="100%" fill="#67344b"/><g filter="url(#prefix__a)"><path fill="#1f0503" d="M646.4 445.4L657.5-4.4 238.8 256.7l9.7 192.6z"/><path fill="#fdbea4" fill-opacity=".7" d="M-37.5 10.2l252.8 66.3 83.6 105.6L414-37.5z"/><path fill="#8f0200" fill-opacity=".8" d="M28.8 120.4l368.6 33.1L165 433.8l-202.4-19.9z"/><path fill="#4b0e07" fill-opacity=".9" d="M416.8 317.5l232.5-355-405.2 59.8 133-59.8z"/><path fill="#ce0d0c" d="M149.7 133.2l-54.3 209 43.6 107 93-.4z"/><path fill="#fff4fc" fill-opacity=".6" d="M-37.5 7.5l59.8 33.2 72.2 5.8 96.8-68.3z"/><path fill="#0c0705" fill-opacity=".7" d="M406.4 449.3L191.8 269l-15.5-87.7 481.2 222.8z"/><path fill="#762d27" d="M228.1 160.3l14-146.7L225.8 54-37.5 94.7z"/><path fill="#fbc6bf" fill-opacity=".7" d="M1.5 169.8l-39 2.9L13 131.3l62.2-46.8z"/><path fill="#ffb3a2" fill-opacity=".6" d="M236.6 20.8l146.5 93.3-.2-81.9-145 128.4z"/><path fill="#310901" fill-opacity=".6" d="M155.5 11.6l75.5 3-268.5 83v72z"/><path fill="#5c0101" d="M-37.5 219.2L99.3 105.6l-49 328.9L-15 403z"/><path fill="#a41816" fill-opacity=".7" d="M362.6 289l-3.2 48.6L281 198.1l61.8-111.6z"/><path fill="#f58b8f" fill-opacity=".6" d="M514.6 95.7l-22.5-2.5L544.2 26l-3.6 24z"/><path fill="#6f6151" fill-opacity=".6" d="M186.5 353.8l71 28.1-3.4-72.1-61.3-29.6z"/></g></svg>