<svg xmlns="http://www.w3.org/2000/svg" viewBox="0 0 620 414"><defs/><filter id="a"><feGaussianBlur stdDeviation="30"/></filter><rect width="100%" height="100%" fill="#3c3e6b"/><g filter="url(#a)"><path fill="#febacb" fill-opacity=".5" d="M344.9 230.3L185.5-37.5-6.3 59.8l238.6 194.3z"/><path fill="#200600" fill-opacity=".7" d="M254.8-22.8L241 129.8l372 319.5L657.5.5z"/><path fill="#0a0201" fill-opacity=".8" d="M20.1 224.3l-57.6 225 695-45.3-388.4-40.2z"/><path fill="#c0626c" fill-opacity=".7" d="M617 148l-95-59.6-48.5 17.4 30.7 51.1z"/><path fill="#6d3236" fill-opacity=".6" d="M-2.7 110.4l17.2 127.2 247 108.7-86.2-173.1z"/><path fill="#7d424b" d="M378.8 77.5l-19 115.8-115-124.8L225 234z"/><path fill="#100e15" fill-opacity=".8" d="M312.2 252.8l320.6-49.1 24.7 115.7-376.8-11.3z"/><path fill="#a66375" fill-opacity=".8" d="M430.9 404.7l8.7-67.3 40.2-28.6-13.6 140.5z"/><path fill="#e08694" fill-opacity=".5" d="M202.7-37.5l-75 349 105.5-145.8 19.6-184.8z"/><path fill="#bab4f0" fill-opacity=".5" d="M79.7 182.6l89.6-37.8L160 9.7 88-37.5z"/><path fill="#b2ecff" fill-opacity=".5" d="M376.6 212.6L276.8 181l-8 50.4 114.8 2.2z"/><path fill="#05040e" fill-opacity=".9" d="M657.5 315.3l-41.1 134-146-66.4 23.9-85.3z"/><path fill="#c57fdc" fill-opacity=".5" d="M71.4 194.2l-109 22v42.2l116-31z"/><path fill="#290300" fill-opacity=".6" d="M60.3 106l-49.9-1L3 187.7l111.9 20.1z"/><path fill="#070203" fill-opacity=".6" d="M440 318.5l-71 3.5 42.3 111 12.4-22.8z"/></g></svg>