<svg xmlns="http://www.w3.org/2000/svg" viewBox="0 0 620 929"><defs/><filter id="prefix__a"><feGaussianBlur stdDeviation="30"/></filter><rect width="100%" height="100%" fill="#46542c"/><g filter="url(#prefix__a)"><path fill="#e1c0b9" fill-opacity=".8" d="M406-56.2l270.8 946.7L103 985l327.7-412.6z"/><path fill="#8f705d" d="M32 304.8l174.1 605L507-56.2H267.5z"/><path fill="#0c0300" fill-opacity=".9" d="M459 419.5l-23.2 126-107.4 124.8L203 325z"/><path fill="#0d080f" fill-opacity=".9" d="M-36 985.2l244.7-12.7L81.3 418-34.8 272.5z"/><path fill="#f1a081" fill-opacity=".4" d="M351.6 176.4l204-49L676.8 859 346.2 330.2z"/><path fill="#c4b1b0" fill-opacity=".8" d="M81 244.6l8.6-104.2L204 730.1 23 297.6z"/><path fill="#10010c" fill-opacity=".8" d="M181.4 182.9l-225.7-65.3 9.1-173.8L183.3-11z"/><path fill="#d6e2f4" fill-opacity=".4" d="M499.3 955.9L518.6 557 175.3 794l8.3 49.7z"/><path fill="#000203" fill-opacity=".7" d="M231.2 603.5l-58.8-46.8-22.5-128.5 21.7-51.2z"/><path fill="#ebdacd" fill-opacity=".5" d="M249.7 430l-52.3 26.2L303 848l-13.4-246.8z"/><path fill="#733300" fill-opacity=".5" d="M368-42.8l255 .7 2.6 396.6L293 19z"/><path fill="#ebd2d8" fill-opacity=".6" d="M356.4 278L512 499.3l68.6-41.3-181.8-254z"/><path fill="#9c6b42" fill-opacity=".6" d="M592.6 231.9l78.7 667.3L425.7 956l174.9-191z"/><path fill="#ba8a78" fill-opacity=".7" d="M204 91.4l-88 427.2 208.3-502-166.2-72.8z"/><path fill="#c38d6e" fill-opacity=".6" d="M340.8 937.3L157 787.5l-29.7-171.3 87.4-35.2z"/></g></svg>