<svg xmlns="http://www.w3.org/2000/svg" viewBox="0 0 620 414"><defs/><filter id="prefix__a"><feGaussianBlur stdDeviation="30"/></filter><rect width="100%" height="100%" fill="#53322e"/><g filter="url(#prefix__a)"><path fill="#d7d8c7" fill-opacity=".5" d="M-37.5 16.5l274.8 123.2L369.6 280l-26-317.5z"/><path fill="#6b8398" fill-opacity=".6" d="M657.5 419.7l-13-384.6L473.2-27 143.6 449.3z"/><path fill="#001c46" fill-opacity=".7" d="M-37.5 114.6l236.3-40 89.9 110.7-269.3 264z"/><path fill="#1a0c04" fill-opacity=".5" d="M432.3 121L657.5-35.3l-214.3 240-184-194z"/><path fill="#ffce9b" fill-opacity=".4" d="M476.4 435.7l-215 11.9-43-191.1 231.1 116z"/><path fill="#5180af" d="M657.5-37.5l-91 124-42 150.4L609 449.3z"/><path fill="#f4fffe" fill-opacity=".7" d="M18.6-25l86 117 22-129.5 88.5 60.8z"/><path fill="#01204d" fill-opacity=".4" d="M626.3 379.5L365 200l-14.3 75.1 171.2 174.2z"/><path fill="#bc9b8c" d="M387.3 164.7l102.6 80-280.9-139 115.8-22.5z"/><path fill="#e8fcf0" fill-opacity=".5" d="M430.6 5.6l105.6 31.2 6.3 41.7 19.1-97.9z"/><path fill="#945b4d" fill-opacity=".6" d="M67.3 267.6l196-22.5 29.5-109.2 82.3 208.5z"/><path fill="#0c1527" fill-opacity=".9" d="M154.5 444.9L-36 449.3l9.7-283 209.7 176.2z"/><path fill="#f6ffff" fill-opacity=".5" d="M183-37.5l-16.4 151.8-36.3-22.5 76-32.2z"/><path fill="#1f4378" fill-opacity=".8" d="M517.8 449.3l-56.4-19.4L469 329l122-184.8z"/><path fill="#784e30" fill-opacity=".5" d="M615.6 1.7L584 12.8 267.6 449.3l173-129.4z"/></g></svg>