<svg xmlns="http://www.w3.org/2000/svg" viewBox="0 0 620 414"><defs/><filter id="a"><feGaussianBlur stdDeviation="30"/></filter><rect width="100%" height="100%" fill="#453931"/><g filter="url(#a)"><path fill="#edf3f6" fill-opacity=".8" d="M653 409.5l-39.8-447-245.6 57.1L519.2 159z"/><path fill="#dcc9be" fill-opacity=".8" d="M356 298.4l42-68L472-28l-70.7 9.5z"/><path fill="#eda637" fill-opacity=".7" d="M245.8 101.2l38-47-26.4 287-66-57.8z"/><path fill="#010100" fill-opacity=".7" d="M-37.5 406.1l695 43.2L482.5 92 363.7 300z"/><path fill="#231400" fill-opacity=".8" d="M304-37.5L128.5 366.9-19 399.6-36.4-23.7z"/><path fill="#1d0e00" fill-opacity=".8" d="M371.8 139.5L339 243.4l-84.8-116.7L407.3-28z"/><path fill="#c7b1a1" fill-opacity=".9" d="M401.8 241.5l5.6-50.4-90.9 89.1 37.3 6.3z"/><path fill="#f2ca8f" fill-opacity=".7" d="M297 249.7l16-41.7-108.6 43.4 12.4-35.1z"/><path fill="#dc983d" fill-opacity=".5" d="M253.8 345.6L146.5 166.1l111 134.5 60-15.5z"/><path fill="#9b9996" d="M523.4-37.5l-71 90.8 173.7-90.8 31.4 138.3z"/><path fill="#fff" fill-opacity=".2" d="M604 228.4L379.7 93l11.4-73.9 266.4 42z"/><path fill="#83410a" fill-opacity=".4" d="M230.8 216.3l-61.5 93.2-49.9-211.9 130.3-38.7z"/><path fill="#f1bc4b" fill-opacity=".7" d="M242.7 94.5l-8 85.2 51 2.7-20.5-50.4z"/><path fill="#190e00" fill-opacity=".8" d="M157.4-26.9l251.9 11.6-12.6 47-216.8 10.4z"/><path fill="#372c1d" fill-opacity=".5" d="M403.2 178.7l236.4 200.6L486.3 94.5 430 119.2z"/></g></svg>