<svg xmlns="http://www.w3.org/2000/svg" viewBox="0 0 620 414"><defs/><filter id="prefix__a"><feGaussianBlur stdDeviation="30"/></filter><rect width="100%" height="100%" fill="#19312e"/><g filter="url(#prefix__a)"><path fill="#264ac1" fill-opacity=".6" d="M507.6 225.7L29.1 245.1-11.6-21.1l551.2-16.4z"/><path fill="#b1dff3" fill-opacity=".2" d="M280.7 235.6l-45.3-27.8L113.6 56.2l544 149.4z"/><path fill="#0d0044" fill-opacity=".7" d="M-37.5 246.5l674.2-25.1 20.8 199.8-677.1 28z"/><path fill="#737fb9" fill-opacity=".8" d="M617.3 46.7l4.2 121.4-13.6 23.2-6.5-118.2z"/><path fill="#202160" d="M322.8 359l-334-93.8 283.7-10.7 94.7-124.4z"/><path fill="#006cd2" fill-opacity=".8" d="M-10.9 33l-26.6 33.6 307.8 67 42.1-37z"/><path fill="#00145a" fill-opacity=".7" d="M123 238l70.3-26.3L-37.5 33.4l19.8 134.2z"/><path fill="#031969" fill-opacity=".9" d="M272.7 82.3L198.6-37.5H56.4l-94 56.1z"/><path fill="#a3b2c8" fill-opacity=".7" d="M267.9 237.8l-43.1-52.3 89.8-24.4-32.2 68.5z"/><path fill="#1f1e65" fill-opacity=".7" d="M615 45.5l-76.1-66.8L297.6-27l219.7 196.2z"/><path fill="#82419a" fill-opacity=".4" d="M599 277l-159.4-7.2 25.9 63.4 123.7-25.1z"/><path fill="#fddb8a" fill-opacity=".5" d="M568.2 233l25.2-32.7-28.6-26.4-13.8 52.3z"/><path fill="#8bf9d8" fill-opacity=".4" d="M393.8 231.3l28.8-72.4 56.2-4.9 54.7-.7z"/><path fill="#2f2641" fill-opacity=".7" d="M391.4 126.7l21.3 79.9-126.2-3.2 24 163.5z"/><path fill="#040026" fill-opacity=".9" d="M-37.5 401.8l695 47.5v-233L559 353.6z"/></g></svg>