<svg xmlns="http://www.w3.org/2000/svg" viewBox="0 0 620 414"><defs/><filter id="prefix__a"><feGaussianBlur stdDeviation="30"/></filter><rect width="100%" height="100%" fill="#40212c"/><g filter="url(#prefix__a)"><path fill="#dec8c2" fill-opacity=".7" d="M465-37.5l.7 180-226.2 136 83.3-316z"/><path fill="#dddbbb" fill-opacity=".7" d="M114 146.5L1.6 158.4l-39-196 242 33z"/><path fill="#7fd4fa" fill-opacity=".9" d="M617 410.3l-130 39 33.7-64.7 136.8-130.3z"/><path fill="#c1b1c1" fill-opacity=".9" d="M272.2 223.8l-97.6-15.3 126.7 89.6 78-335.6z"/><path fill="#e9ffe4" fill-opacity=".2" d="M564.8 273.4l-225.3-311L645 79.3l-42.8 108z"/><path fill="#ded3f2" fill-opacity=".6" d="M32.5 233l22.7-57 89.1 1.3L142 222z"/><path fill="#8f5e55" d="M360.1 58.9l-5.3 130 96 66.8 4-178.4z"/><path fill="#060130" fill-opacity=".8" d="M340.8 176.3l59-11.9-91.3 284.9h-87.9z"/><path fill="#000013" fill-opacity=".9" d="M163.7 215.5l383.9 233.8L76.8 438-37.5 261.3z"/><path fill="#fffff5" fill-opacity=".7" d="M460 31l6-68.5H306.4l9.9 117.7z"/><path fill="#3b312d" d="M4.6-35.4l43.6 353.9L31.2 68 24 9.9z"/><path fill="#ff8674" fill-opacity=".5" d="M451.2 276.8l-105.8 31-6.8 27.6L479 312.7z"/><path fill="#68495c" fill-opacity=".8" d="M243 158.4l14.7 43.8 63.2-26.4L302.7-23z"/><path fill="#c9bea9" d="M39 49.2l53.8 99.5L207-32.5l17.9 58z"/><path fill="#040415" fill-opacity=".7" d="M257 8l-28.4 199.3-86-11.6 3.2-135.2z"/></g></svg>