<svg xmlns="http://www.w3.org/2000/svg" viewBox="0 0 620 414"><defs/><filter id="prefix__a"><feGaussianBlur stdDeviation="30"/></filter><rect width="100%" height="100%" fill="#393e4a"/><g filter="url(#prefix__a)"><path fill="#f8f3ed" fill-opacity=".6" d="M188.2 156.7l421.6 48L657.5 1.1l-481-6z"/><path fill="#7c7474" fill-opacity=".8" d="M475.9 414.9l121.6-55 18.4-257L277 63.5z"/><path fill="#231d1a" fill-opacity=".9" d="M10 449.3l397.1-193-9.4-83.9H-37.5z"/><path fill="#e8edf2" fill-opacity=".9" d="M475-37.5l.4 486.3 21-374.4 161.1-12.2z"/><path fill="#fdffff" fill-opacity=".9" d="M175.6-37.5L186.2 76 400 47.5l-2.5-85z"/><path fill="#1f1717" fill-opacity=".8" d="M-37.5 6.8L-12 449.3l195.2-28.6L177-37.5z"/><path fill="#242929" fill-opacity=".6" d="M488.7 100.8l19.4 332.5 23-211.5-14.8-153.7z"/><path fill="#f4f7fa" fill-opacity=".9" d="M522.2 90.6l94 9L657.4-3.7l-177.2-16z"/><path fill="#8e8b89" fill-opacity=".6" d="M486.3 30.3l-14 123.2-285.8 43.6-3.2-111.4z"/><path fill="#d3d8e4" fill-opacity=".9" d="M491.2 421.4l-17.7 27.9 16.7-269.1-1.5 117z"/><path fill="#635f59" fill-opacity=".9" d="M282.6 375.9l-61.5 73.4 3.7-144.6 47-34.7z"/><path fill="#c3a88e" fill-opacity=".6" d="M384.6 271.3l-6.5 75 36.8-.5-20.9-99.3z"/><path fill="#1c1b18" fill-opacity=".7" d="M285.8 390.6l115 58.7-39.2-297-50.1 35.9z"/><path fill="#ead79e" fill-opacity=".3" d="M511.7 266.4l11.7 87.4 88.6-29.5-16-76.8z"/><path fill="#000103" fill-opacity=".4" d="M657.5 322.6l-35-110.4-101.3 47.4L532 189z"/></g></svg>