<svg xmlns="http://www.w3.org/2000/svg" viewBox="0 0 620 414"><defs/><filter id="prefix__a"><feGaussianBlur stdDeviation="30"/></filter><rect width="100%" height="100%" fill="#44433e"/><g filter="url(#prefix__a)"><path fill="#dddbd1" fill-opacity=".8" d="M239.5 449.3L170.7 21.8l128.9-59.3 260.8 428.1z"/><path fill="#92948b" fill-opacity=".6" d="M309-2.7l348.5 250.2-109.2 201.8-92.5-34z"/><path fill="#fdfefb" fill-opacity=".7" d="M484.4 153.3l-46 156.5-221.6-46.3 286.5 112.9z"/><path fill="#7f8375" fill-opacity=".8" d="M657.5 445.1L209.7 274.4 173 15.7l-7 297.7z"/><path fill="#fcfefa" fill-opacity=".5" d="M316.8 215.8L192.5 259l-3.4-277.7 89.7 5.3z"/><path fill="#161715" d="M143.9 227.9l48-265.4-93.3 202.7L-9 219.9z"/><path fill="#4d4139" fill-opacity=".9" d="M457 132.5l-28.6 192-27.1-70 65.6-5z"/><path fill="#f2f3f0" fill-opacity=".9" d="M239.8 333.7l280.9 94.5-281.2 15-1.2-66.6z"/><path fill="#596461" fill-opacity=".6" d="M610.3 445.6l47.2-334.2-167 266-108 2.8z"/><path fill="#5d6053" fill-opacity=".8" d="M235.9 317.3l-.5 92-64.7 40-9.2-249.5z"/><path fill="#612800" fill-opacity=".3" d="M337.6 158.9l150.6-.5-133.9 35.4-22 105.3z"/><path fill="#010911" fill-opacity=".5" d="M560.2 119l57.6-141.5 18 204.9-62-16z"/><path fill="#f6f3ec" fill-opacity=".8" d="M308 307.8l74.2-109.4 11.1 77.5 69.5 76z"/><path fill="#53392f" fill-opacity=".7" d="M438.8 257.4l-34.1 37.8-6.5-104.1 42.6 129z"/><path fill="#e0e1dc" d="M481.2 163.2l-22.5 28.4L496 315.3l-16.7-115.7z"/></g></svg>