<svg xmlns="http://www.w3.org/2000/svg" viewBox="0 0 620 414"><defs/><filter id="prefix__a"><feGaussianBlur stdDeviation="30"/></filter><rect width="100%" height="100%" fill="#404040"/><g filter="url(#prefix__a)"><path fill="#e9e9e9" fill-opacity=".7" d="M592 29.8L443.3 195 373 106l81-143.4z"/><path fill="#bebebe" fill-opacity=".5" d="M-5.8-20.1L5.3 449.3l191.4-38L116.5 1.8z"/><path fill-opacity=".7" d="M119.4-37.5l137 44 99.9 213.6-190 57.4z"/><path fill="#696969" d="M485.6 319.4l-81.9 129.9-441.2-87L102.2 236z"/><path fill="#141414" d="M590.2 0L480.7 241.2l176.8-76.8V-3.4z"/><path fill-opacity=".5" d="M445.6 62.7l-12.3 33.4-84 2.5-56.5-136.1z"/><path fill="#d8d8d8" fill-opacity=".4" d="M351.2 102l141.4-34L359 199 269.1-37.4z"/><path fill="#fefefe" fill-opacity=".2" d="M-22.3-37.5l66.6 82.8 78 63.7-159.8 260.3z"/><path fill="#d8d8d8" fill-opacity=".9" d="M575.4-37.5L562.6 64.7l-14.8 32.9-110.2-81.4z"/><path fill="#090909" fill-opacity=".6" d="M638.9 433.8l-241 15.5 59.8-74.4 199.8-141.4z"/><path fill="#fff" fill-opacity=".2" d="M506.2 335.4l6.5-94 88.9-54.7 3.1 90.6z"/><path fill="#bbb" fill-opacity=".9" d="M296.2 20.1l-19.4-57.6 36.8 44.8 10 95.1z"/><path fill="#111" fill-opacity=".9" d="M489.7 413.4l-3.1-174.8-47.8-31.5 82.4-74.6z"/><path fill="#141414" fill-opacity=".4" d="M1.5 322.4L-1 301.8l246.3-101.5 85.5 51.6z"/><path fill="#ededed" fill-opacity=".5" d="M98.6-13.3l33.6 44.8L119.6 75 21.8-37.5z"/></g></svg>