<svg xmlns="http://www.w3.org/2000/svg" viewBox="0 0 620 414"><defs/><filter id="prefix__a"><feGaussianBlur stdDeviation="30"/></filter><rect width="100%" height="100%" fill="#592c2d"/><g filter="url(#prefix__a)"><path fill="#ced2c5" fill-opacity=".6" d="M41.9-37.5h347.3l26 413.9-260.4 72.9z"/><path fill="#c8ba9d" d="M466.7-37.5L9.4-31.7l-18.1 55L256 113.8z"/><path fill="#47251f" fill-opacity=".5" d="M348.5 208.5l21.6-71.7-144.4-6L320 449.3z"/><path fill="#321f1c" fill-opacity=".7" d="M-9.2 375l123.3-140.3L214.6 76l-252.1 91.1z"/><path fill="#282328" d="M633.3-37.5l24.2 484-273.5-225 45.7-259z"/><path fill="#a6978d" fill-opacity=".8" d="M561.4 178.7l10.9-93.4-51.1 23.2 48.4 340.8z"/><path fill="#aeaab2" d="M124.2 415.6l198.6 30.8-109.2-267.2-57.9 99.6z"/><path fill="#c4c6dd" fill-opacity=".5" d="M360.4 449.3l-23-203.5 38.5-89.3 44.5 168.8z"/><path fill="#73625d" fill-opacity=".9" d="M582.7 421.9l-94.2 27.4 6.8-134.2 68.5-75.3z"/><path fill="#1a1217" d="M395 446.6L458.2 45l40.2 161.6-9.2 232.7z"/><path fill="#471b11" fill-opacity=".4" d="M285.3 78.5l9-37.8 111.1-6 7.8 46.7z"/><path fill="#6a4f46" d="M-37.5 369.8l140.4-39 52.8-112.3L123 449.3z"/><path fill="#11323b" fill-opacity=".5" d="M239.8 359.4l-67.6-22.3 22.8-25.9 79.9 25.2z"/><path fill="#946f64" fill-opacity=".9" d="M171.2 125L140 45.8l174.1 128-1.7 137.2z"/><path fill="#e4e2be" fill-opacity=".5" d="M99 159.4l-54-197L237 38l-77 13.8z"/></g></svg>