<svg xmlns="http://www.w3.org/2000/svg" viewBox="0 0 620 414"><defs/><filter id="prefix__a"><feGaussianBlur stdDeviation="30"/></filter><rect width="100%" height="100%" fill="#2f3865"/><g filter="url(#prefix__a)"><path fill="#f9f1e2" fill-opacity=".8" d="M58.1 449.3l256.5-173.4L208 37.3l-245.5-54z"/><path fill="#ff9f55" fill-opacity=".4" d="M657.5-37.5L276.3-30 131 421.6l526.5 27.7z"/><path fill="#fdf8f9" fill-opacity=".9" d="M655.4 264.5l-139.3 15 26 169.8 115.2-50z"/><path fill="#614537" fill-opacity=".9" d="M38.3 104.9L85 1.5 292-12 133.5 60.3z"/><path fill="#e1e1e2" d="M224.5 449.3H-11.4l297.7-158.7L-37.5 44.1z"/><path fill="#59151a" fill-opacity=".8" d="M436.4 206.6l62.5 27.6L195.7 442l20-102.2z"/><path fill="#1d1d03" fill-opacity=".9" d="M595.5 232.3l-65.6-56 55.5-115.5L626.8 84z"/><path fill="#a69a8f" fill-opacity=".9" d="M148.7 373.5L-37.5 356V150.4l91.8 73.1z"/><path fill="#dfe2e3" fill-opacity=".8" d="M475.9 288.4l-24-25.1-84.7 62L396 347z"/><path fill="#952e39" fill-opacity=".8" d="M217 447.8L479.5 417l86.7-55.2-72.6-71.2z"/><path fill="#d4a689" fill-opacity=".7" d="M443.7 38l91.5 95.7L587.8 7.3l-89.9-39z"/><path fill="#613412" fill-opacity=".6" d="M323.8.5l14.5 201.7 134-111.1-81-124.8z"/><path fill="#f1f9f7" fill-opacity=".4" d="M327.4-37.5L167 371.3-37.5 112.9l262-48.7z"/><path fill="#79282e" d="M229.1 444l-51-84.1 135.5-63.5 226.5 152.9z"/><path fill="#044265" fill-opacity=".2" d="M210.2 207.8l-78 72.7 204 45.2-5.6-248.4z"/></g></svg>