<svg xmlns="http://www.w3.org/2000/svg" viewBox="0 0 620 929"><defs/><filter id="prefix__a"><feGaussianBlur stdDeviation="30"/></filter><rect width="100%" height="100%" fill="#705038"/><g filter="url(#prefix__a)"><path fill="#dde9e7" fill-opacity=".5" d="M-26.9 968.2l695 17 8.7-529.8L341.5-56.2z"/><path fill="#0f0c08" d="M623-56.2L674.7 406 559.2 280.9 411.5 14.2z"/><path fill="#7c624b" d="M341.8 566.1l-398 136v-603l396.6 297.2z"/><path fill="#9ab2d2" fill-opacity=".5" d="M422.4 9.4L463 231.5 10.5 94.4 61-56.2z"/><path fill="#908777" fill-opacity=".9" d="M-56.2 42.1l96.5 87L98 985.3l-154.2-17.4z"/><path fill="#664a34" d="M107 621.3l224.3-210.9-67.5 6.6L80.6 44z"/><path fill="#a27f6c" d="M218.8 310.6l-43.2-174.9 147.7 11 62.8 97.5z"/><path fill="#c3c5b9" fill-opacity=".5" d="M414.4 655L654 985.2l22.9-597.6-325.5-247.2z"/><path fill="#5a4034" fill-opacity=".9" d="M278 92.2L54.4 125.6 19 136.4l78.7-77.6z"/><path fill="#ac8451" fill-opacity=".5" d="M530.2 38.8l146.6 13-82.4 29.5-88.9 5.8z"/><path fill="#a4b8ce" fill-opacity=".6" d="M207.2 77.7L417.3 74 357.8-9.4 98.3-56.2z"/><path fill="#9e7b65" d="M220.3 493.5l55.1-6.1 93.7 19.6-2.2 141.1z"/><path fill="#bec9e3" fill-opacity=".3" d="M12 222.5l118.6-63.6 275.5-31.2-283.4-10.1z"/><path fill="#4b1602" fill-opacity=".3" d="M293.2 70.8l-13.8 209-.7-.7-41.4-102.7z"/><path fill="#c4c5b7" fill-opacity=".3" d="M541 879.6L143 760.3l45.7 81.2 39.6-238.4z"/></g></svg>