<svg xmlns="http://www.w3.org/2000/svg" viewBox="0 0 620 414"><defs/><filter id="a"><feGaussianBlur stdDeviation="30"/></filter><rect width="100%" height="100%" fill="#5b3b35"/><g filter="url(#a)"><path fill="#d1a28c" fill-opacity=".9" d="M145.6 88.6l105.3-9.4-1.2 200.3L16 424.8z"/><path fill="#ad9a6c" fill-opacity=".7" d="M388 342.7L516.8-19.1l97.9 231.7L565 425.8z"/><path fill="#020100" fill-opacity=".9" d="M114 202.2l-87 43.1-64.4 154.3 193.7-187.4z"/><path fill="#ca987f" d="M-16 231.3L-37.5 177l298.8-77 12.1 29z"/><path fill="#000004" fill-opacity=".6" d="M19.9 429.9l383.3 4.1 24-471.5L219 321.4z"/><path fill="#01070a" fill-opacity=".7" d="M607.9-37.5l49.6 183-362 68.6 288.9-88z"/><path fill="#0e0705" fill-opacity=".6" d="M438.8 7.3L173.4 82-6 158.6 2.4-37.5z"/><path fill="#fff4e1" fill-opacity=".5" d="M93.2 264.5L-37.5 443.2l194.4-135.4L232 195.4z"/><path fill="#4d99d9" fill-opacity=".3" d="M451.2 148.7l126 1.5 24-184.1-183 26z"/><path fill="#3b2627" d="M439 449.3L221.2 161.5l-29.8 37.3L365 103.7z"/><path fill="#0a0708" d="M409 364.3l-285.5-.3-109 85.3h599.2z"/><path fill="#c49d5e" fill-opacity=".5" d="M537.9 409.3L398.2 333l9.4-115.8 151.4-60z"/><path fill="#dba593" fill-opacity=".9" d="M-36.8 160l108 5 65.9-73 81.1 116z"/><path fill="#070800" fill-opacity=".7" d="M550 78L529-27.6l18.8-10 42.9 155.8z"/><path fill="#000100" fill-opacity=".6" d="M451.2 207.3L410.7-.2l-98.3-37.3 98.1 247.2z"/></g></svg>