<svg xmlns="http://www.w3.org/2000/svg" viewBox="0 0 620 414"><defs/><filter id="prefix__a"><feGaussianBlur stdDeviation="30"/></filter><rect width="100%" height="100%" fill="#34294a"/><g filter="url(#prefix__a)"><path fill="#958497" fill-opacity=".7" d="M358.2 368.1L311-37.5l278 11.1-163 395z"/><path fill="#030001" fill-opacity=".7" d="M-37.5-37.5L192.3 5.8 380 431.1l-393.3 18.2z"/><path fill="#cfceff" fill-opacity=".6" d="M436.7 147l-8.5 218.5-87.2-8.8 44.6-167.6z"/><path fill="#654a4a" fill-opacity=".8" d="M347.3 152.6l137.8 8.5 5.8-198.6-346.8 15.7z"/><path fill="#d1282e" fill-opacity=".5" d="M488 213.4l3 204.1 65.8 27L536 286.6z"/><path fill="#020d25" fill-opacity=".9" d="M542.3 325.7l81.6-242.9 33.6 366.5-88.8-10.5z"/><path fill="#b6a8d5" fill-opacity=".5" d="M538.6 175.6l44.6-36.6-62-127.6-44.3 65.4z"/><path fill="#040144" fill-opacity=".4" d="M416.8 231.5L489.2 87l-19.6 102.7-10.9 224.8z"/><path fill="#15162b" fill-opacity=".9" d="M351.9 303.2l18.6-76.3-346.8-49.6 309.3 272z"/><path fill="#f9ddb2" fill-opacity=".3" d="M266.2 145.8l-13.6-31.5 123.3 7.8 28-159.6z"/><path fill="#30478a" fill-opacity=".9" d="M529.2 119L567-9.5l68.5-1.7 22 42.1z"/><path fill="#003a6d" fill-opacity=".6" d="M625.6 273.7L592 128l-52.7 44.6 13.3 114.8z"/><path fill="#51241a" fill-opacity=".6" d="M258.4 300.3l-1.4-7.7 79.2-134.2-132-160.6z"/><path fill="#bfc3ca" fill-opacity=".4" d="M185.5 209.7l-9.4 44.1-16.5 5.8 14-83.8z"/><path fill="#2b0010" fill-opacity=".7" d="M543.5 201.5L546 264l-51.3 55.7L515 148.5z"/></g></svg>