<svg xmlns="http://www.w3.org/2000/svg" viewBox="0 0 620 408"><defs/><filter id="prefix__a"><feGaussianBlur stdDeviation="30"/></filter><rect width="100%" height="100%" fill="#364450"/><g filter="url(#prefix__a)"><path fill="#cfcdc8" fill-opacity=".9" d="M657.5 1.7L-37.5 0v228.9l684.4-42.4z"/><path fill="#1c2128" d="M203 444.4L171.5 120l-29-10.4-180 278.2z"/><path fill="#dddbd3" d="M509.8 63.7l-245.6 156-83.5 12.6 54.5-165.7z"/><path fill="#151715" fill-opacity=".5" d="M79.7 407.8l577.6 36.6.2-196L321.1 179z"/><path fill="#e9e4dc" fill-opacity=".6" d="M256-37.5L8.2 65.4-37.5 267l94.9-34.6z"/><path fill="#0e0e10" fill-opacity=".8" d="M87.2 185.5l31.2 123.3 87.7-163.2-88.6-2z"/><path fill="#e2d1bc" fill-opacity=".8" d="M366.2 83.8l109.7 114-119 15.6 7.8-2z"/><path fill="#aa8d70" fill-opacity=".5" d="M69.5 213.9l-107-2 97.8 64.7 50.9 7.7z"/><path fill="#0a0907" fill-opacity=".2" d="M375 444.4l282.5-20.6V132.5l-177.7 58.8z"/><path fill="#4e4f49" fill-opacity=".7" d="M342.5 173.6l-37.3 20.6-121.6 83.1 254.5-9z"/><path fill="#06589b" fill-opacity=".2" d="M591.4 68.3L423.8-37.3l206.6-.2 27.1 87z"/><path fill="#263033" fill-opacity=".9" d="M657.5 169v124.5l-273.6 16 110.4-95.2z"/><path fill="#c9d2d9" fill-opacity=".7" d="M52.3 20.8L490 166.4l64.7-91.6L246.8-37.5z"/><path fill="#ffd87d" fill-opacity=".3" d="M211.4 231.3l.3 69.5-52.1-128.1 146.5 44z"/><path fill="#050a11" fill-opacity=".9" d="M94.7 169.8l47.5-47 32.7 190.8-41.2 72.2z"/></g></svg>