<svg xmlns="http://www.w3.org/2000/svg" viewBox="0 0 620 414"><defs/><filter id="prefix__a"><feGaussianBlur stdDeviation="30"/></filter><rect width="100%" height="100%" fill="#563426"/><g filter="url(#prefix__a)"><path fill="#cae8ee" fill-opacity=".5" d="M456.8 352.1l-278.3 82.6 5-101.7 204.7-66.6z"/><path fill="#f5e9c5" fill-opacity=".5" d="M556.5 71.7L454.3-37.5l-124.7 83 143.6 88z"/><path fill="#998a72" fill-opacity=".6" d="M245 277.5l82.7-69.7-17-94L70.5 66.4z"/><path fill="#00090c" fill-opacity=".6" d="M451.2 249l-29.8 200.3 236.1-42.7-42.8-444.1z"/><path fill="#0d0400" fill-opacity=".6" d="M385.6 449.3l-16.3-160.9-70 2 101.3 35.3z"/><path fill="#211d1b" fill-opacity=".6" d="M371.8-37.5L331 240.7 480.7 310 398.2 95.2z"/><path fill="#674630" d="M189.1 114.6l100-152.1 60.4 105.8-386.6 220.4z"/><path fill="#979b9a" fill-opacity=".6" d="M126.2 309.3l-17.7 140-18.6-138.6 19.6-24.7z"/><path fill="#f8f4cd" fill-opacity=".5" d="M504.7 139.7L415.1 154l40 16.7 33.6-1z"/><path fill="#f7f3e1" fill-opacity=".4" d="M332.3 180.7l-127.4-28.1L339.5 109l-66.8-2z"/><path fill="#1f1710" fill-opacity=".8" d="M193.5 25.7L-12.8-37.5l-24.7 225L131.3 32.2z"/><path fill="#aeb0b2" d="M371 393.3l-1-78.2-193 74.8 90.9-7z"/><path fill="#82522e" d="M215.5 248.2l31-83.8-284 60.3 76.5-104z"/><path fill="#a29075" fill-opacity=".9" d="M177.3 108.3l10.6-31-115 1.4 6 28.3z"/><path fill="#d1e8fd" fill-opacity=".5" d="M246.8 237.6L301 193l24.5 31.3-116-17.5z"/></g></svg>