<svg xmlns="http://www.w3.org/2000/svg" viewBox="0 0 620 929"><defs/><filter id="a"><feGaussianBlur stdDeviation="30"/></filter><rect width="100%" height="100%" fill="#293044"/><g filter="url(#a)"><path fill="#9e9483" d="M676.8 8.3l-733-27.5 33.3 278L676.8 949z"/><path fill="#ffe5bc" fill-opacity=".6" d="M44.6 615.1L265 985.2l-321.1-70.7L41.4-56.2z"/><path fill="#8f8671" fill-opacity=".9" d="M272.5 985.2l-8.7-199.5 413-506-59.9 705.5z"/><path fill="#2b2628" d="M95.8 345.8L78 757.4l211.6-48L333.5 368z"/><path fill="#d2d0c8" fill-opacity=".9" d="M-56.2 26.1L145.2-18l40.6 325L23.2 408z"/><path fill="#080c0d" fill-opacity=".8" d="M535.3 372.7L428.6 368l45.7 109.6 54.4 23.6z"/><path fill="#d7d3c9" fill-opacity=".8" d="M360 178.2l-91.1 181.4-39.2-415.8L90.4-9.8z"/><path fill="#502210" fill-opacity=".7" d="M676.8 216l-60.2-52.7-192 1.5-40 50.4z"/><path fill="#380c02" fill-opacity=".4" d="M222.5 70.8l26 226.4-28.2 33-67.5-241z"/><path fill="#353030" fill-opacity=".7" d="M169.1 328.4l76.6 269-130.3 7.9-171.6-166.2z"/><path fill="#e8f2f9" fill-opacity=".2" d="M513.9 603.8L376.7 794l-46.1-323 95-108.1z"/><path fill="#4a220f" fill-opacity=".6" d="M353.5 38.8l9 47.6-22.1 78.4-43.2-137.2z"/><path fill="#332710" fill-opacity=".3" d="M293.2 879.6l383.6-226.4-85.3 148L41.4 826z"/><path fill="#4c403b" d="M70 631l135.8-161-91.5 228.2-33 161.1z"/><path fill="#c3bc9f" fill-opacity=".6" d="M412.6 229l264.2-12-81.3 152.8h-188z"/></g></svg>