<svg xmlns="http://www.w3.org/2000/svg" viewBox="0 0 620 414"><defs/><filter id="prefix__a"><feGaussianBlur stdDeviation="30"/></filter><rect width="100%" height="100%" fill="#3b4556"/><g filter="url(#prefix__a)"><path fill="#fbfbf4" fill-opacity=".5" d="M-7 449.3l-4-471.8 668.2-15-33 443.4z"/><path fill="#06111a" fill-opacity=".5" d="M657.5 90.6l-29.3 193.7-280.7 3.7-42.1-119.4z"/><path fill="#e2f1ff" fill-opacity=".8" d="M13.6 127.9l597-20.1 47-110.2-695.1 3.9z"/><path fill="#4d5353" fill-opacity=".7" d="M-37.5 292V109.3l344.1 32.2-91.8 147z"/><path fill="#251e1d" fill-opacity=".7" d="M340.8 363l18.1 47.7-155.7-28 53-35.9z"/><path fill="#1a202e" fill-opacity=".9" d="M413.9 164l17 209.5 33.4-253.9 42.6 283.9z"/><path fill="#fffeff" fill-opacity=".4" d="M267.6 188l150.9 171.6-456-35.8 266.4-42.1z"/><path fill="#817e79" d="M360.4 212.6l-382-79.9 493.1-4.3-33.9-42z"/><path fill="#5a5b6e" fill-opacity=".9" d="M460.2 395.7l29.5-28.8 167.8 56.2L379 389.4z"/><path fill="#fadbce" fill-opacity=".4" d="M657.5 410.3v-125l-172.4-.5 37 97.4z"/><path fill="#e2d4cb" fill-opacity=".5" d="M124.2 449.3l-161.7-141 67.8-15 258.9-4.6z"/><path fill="#d9e7f4" d="M424.8 123.5l-14.5-161L151 129.3l227.4-3.6z"/><path fill="#101826" fill-opacity=".9" d="M424.3 269.8l46-118 15.3-24.7 17.2 90.9z"/><path fill="#160900" fill-opacity=".5" d="M.2 199.3l-37.7 15 248 4.2 98.3-5.1z"/><path fill="#1a1f2a" fill-opacity=".8" d="M431 196.4l-5.7-68 7.5 247 14-6z"/></g></svg>