<svg xmlns="http://www.w3.org/2000/svg" viewBox="0 0 620 414"><defs/><filter id="a"><feGaussianBlur stdDeviation="30"/></filter><rect width="100%" height="100%" fill="#273a54"/><g filter="url(#a)"><path fill="#cff1fa" fill-opacity=".7" d="M256.7-32.7L37.5-28.8l-75 205.8 411.7-55.2z"/><path fill="#4296b4" fill-opacity=".7" d="M613-37.5L657.5 213l-330.8-79.4L560 34.4z"/><path fill="#e5ab97" fill-opacity=".6" d="M81.6 331.3L-37.5 278l24.4 171.3h289.2z"/><path fill="#201f1a" fill-opacity=".4" d="M65.9 157.4L252 99.1l405.4 224L275 417.3z"/><path fill="#656f7c" fill-opacity=".6" d="M266.6 449.3L105 218 306 83-37.4 184z"/><path fill="#7e3313" fill-opacity=".5" d="M353.4 225.7l4-116.2-95.8-89.9 215.8-57.1z"/><path fill="#06aee3" fill-opacity=".7" d="M657.5 59.8L416.1 75.3l78.4 72.2 163-68.5z"/><path fill="#171e27" fill-opacity=".6" d="M440.8 290.4L74 307.8l583.4 119-112.3-300.9z"/><path fill="#b6dfee" fill-opacity=".7" d="M104.6 154.5l151-103.9-79.5-83L25.4 3.3z"/><path fill="#ee8ff4" fill-opacity=".6" d="M319.2 240l-19.4 11.6-47.4-23.2 15.2-6.6z"/><path fill="#eddedb" fill-opacity=".7" d="M352.4 142.2l8.2-30.8L303.7 62l-34.4 53.5z"/><path fill="#8b878f" fill-opacity=".9" d="M581.3 49.4l76.2 2.7-67.3-89.6-49.9 53.7z"/><path fill="#3d241f" fill-opacity=".9" d="M501.8 56.2l71.7-3.9-80.2-89.8-23.7 6.3z"/><path fill="#c05f2e" fill-opacity=".2" d="M180 449.3l399-59.9-275.3-31.7-341.2-144.3z"/><path fill="#2483b0" fill-opacity=".7" d="M432.5 214L482-37.4h-79l97.1 136.3z"/></g></svg>