<svg xmlns="http://www.w3.org/2000/svg" viewBox="0 0 620 414"><defs/><filter id="prefix__a"><feGaussianBlur stdDeviation="30"/></filter><rect width="100%" height="100%" fill="#32353d"/><g filter="url(#prefix__a)"><path fill="#fdefe3" fill-opacity=".7" d="M657.5 402.3L231.8-37.5 82.3 321.9l293.8 127.4z"/><path fill="#e4e1e0" fill-opacity=".9" d="M381.2 110L315.8-37.5 181.4 19l78.5 196.7z"/><path fill="#f2eae8" fill-opacity=".7" d="M65.1 449.3h-84.7l14.8-142.4 42.8-5.6z"/><path fill="#a39d95" d="M635.5 138.3l-63 167.3L306.4 57l339.8 344z"/><path fill="#0a0a09" fill-opacity=".9" d="M443.2 206.8l-100.3-180 101-64.3 79.2 294z"/><path fill="#8e8882" d="M81.9 347.8l-19-54.8h183.6l13.9 92.3z"/><path fill-opacity=".6" d="M128.1 238.8l-165.6 94L-11.6-2l192-35.6z"/><path fill="#702e04" fill-opacity=".4" d="M353.1 118.2l18.4 202.2 32-91L399 108z"/><path fill="#260f02" fill-opacity=".6" d="M249.7 135.6l-39.5-19.1-20.3 27.4 9.2 28z"/><path fill="#f2f3f6" fill-opacity=".5" d="M192 274.4L49.3 293.3l73.8 59.6 63.5-327.2z"/><path fill="#56524c" fill-opacity=".9" d="M217 348l98.3 101.3H83.8l37.3-107.8z"/><path fill="#80848e" fill-opacity=".6" d="M94 305.9l21.8-5.6L222.3-37.5l-37.8 52.3z"/><path fill="#fffcfe" fill-opacity=".3" d="M219.7 170.5l29.8 162.7 193-133.2 215 161.6z"/><path fill="#cfcbc9" fill-opacity=".7" d="M70.2 340.5l88-129.6-7 120.2-63.8 27.1z"/><path fill="#0e0e0c" fill-opacity=".7" d="M378.5 109l107.3-3 101.7 195.8L454 213z"/></g></svg>