<svg xmlns="http://www.w3.org/2000/svg" viewBox="0 0 620 414"><defs/><filter id="prefix__a"><feGaussianBlur stdDeviation="30"/></filter><rect width="100%" height="100%" fill="#6d5635"/><g filter="url(#prefix__a)"><path fill="#9c9186" d="M5.3 449.3l652.2-59.4V138.3l-695-157.4z"/><path fill="#d0e6fb" fill-opacity=".4" d="M657.5 44.6l-141.4-30-169 304.8 138 11.7z"/><path fill="#77634e" fill-opacity=".8" d="M551-30.5L386.5 246.3l-195.4-53.5L123.5-7.5z"/><path fill="#ebf0ff" fill-opacity=".7" d="M211 449.3l71.4-220.4-7.8 141.9 233.8 44.8z"/><path fill="#f7f2de" fill-opacity=".9" d="M6.5-37.5l-44 364.7 67 7.5-1.2-55.7z"/><path fill="#110100" fill-opacity=".8" d="M433.5 19.9l-51 46.2 88.8 60.3 5.3-74.6z"/><path fill="#2f1303" fill-opacity=".8" d="M27.9 246l39.7-7L91 278.8 52.3 327z"/><path fill="#cccebd" fill-opacity=".5" d="M343.7-17l227.1 93.5-146.7-114-46.5 148.2z"/><path fill="#5a4537" fill-opacity=".6" d="M234.7 321.4l53-65L123 247 78.7 131.3z"/><path fill="#cdc7b5" d="M657.5 68.5l-56.4-106 16 239.2-3.6 119.4z"/><path fill="#000118" fill-opacity=".5" d="M476.6 449.3l68.8-46.8-11.6-65.6L657.5 445z"/><path fill="#a5a7b5" fill-opacity=".9" d="M524.6 361.1l59.6 23.7L338.3 436l3.2-52z"/><path fill="#e2ebff" fill-opacity=".4" d="M380.2 328.9l138.6-160.1-45.3-62.7-107.6 184z"/><path fill="#3a140b" fill-opacity=".7" d="M337.6 88.4l-33 49.2 9.8 58 43.8-101.1z"/><path fill="#7a6f5e" fill-opacity=".7" d="M609.3 280.2l17-29.3-119.9-124.2 28.6 87.2z"/></g></svg>