<svg xmlns="http://www.w3.org/2000/svg" viewBox="0 0 620 929"><defs/><filter id="a"><feGaussianBlur stdDeviation="30"/></filter><rect width="100%" height="100%" fill="#3a3131"/><g filter="url(#a)"><path fill="#b9b1af" fill-opacity=".9" d="M631-56.2L618.5 985.2l-650-91L11.6-56.2z"/><path fill="#edf4fb" fill-opacity=".6" d="M451 963.5l-84.8-632.2-78-33.4-132.5 687.3z"/><path fill="#5e453a" fill-opacity=".6" d="M144.4 99l108.2 221.4 141.9-38.8-242-337.8z"/><path fill="#0f0000" fill-opacity=".2" d="M-50 364l23 465.2 247 62.4L178 719z"/><path fill="#4d4846" fill-opacity=".6" d="M588.2 649.2l-24 336 112.6-232.6V393z"/><path fill="#07090f" fill-opacity=".7" d="M12.7 652.1l-4 177.1 17.8 12 17.8-65z"/><path fill="#786a65" fill-opacity=".8" d="M41.4 120.5L77.7-56.2l-134 11.6L65.4 368.7z"/><path fill="#a19692" fill-opacity=".9" d="M676.8 23.6L219.9-56.2l21.8 222-97.3 99.8z"/><path fill="#c1b6b3" d="M414.4 476.5l167 21.4-49-176.7L460-56.2z"/><path fill="#bab0ad" fill-opacity=".4" d="M51.5 348.4l66.8 636.8L-56.2 903l88.9-62.4z"/><path fill="#6b6563" fill-opacity=".7" d="M370.9 441.3l14.9-76.2 101.6 364-90.8-258z"/><path fill="#200c00" fill-opacity=".4" d="M375.2 318.3l-79-101.3-2.6-25.4 98 35.2z"/><path fill="#d9dadd" fill-opacity=".7" d="M451 644.9L314.7 308.5 200 609.3l-14.2 210.1z"/><path fill="#6e605b" fill-opacity=".8" d="M139.3 269.3l15.3-207.6-13-118h131.3z"/><path fill="#1d0800" fill-opacity=".3" d="M64.2 397.4l-96.9 125.9L82.7 688 19 504.8z"/></g></svg>