<svg xmlns="http://www.w3.org/2000/svg" viewBox="0 0 620 414"><defs/><filter id="prefix__a"><feGaussianBlur stdDeviation="30"/></filter><rect width="100%" height="100%" fill="#4c444c"/><g filter="url(#prefix__a)"><path fill="#dde1dd" fill-opacity=".7" d="M135.9 424.8L310.7 48.4 89.1 44.8l5.1 386.3z"/><path fill="#f3f5f3" fill-opacity=".8" d="M-37.5 6L16 19.7 421.6 23l20-60.5z"/><path fill="#f7f9f7" fill-opacity=".6" d="M121 39.5l-7.2 409.8L398 421.6l-241.4-64.4z"/><path fill="#010401" fill-opacity=".7" d="M478.8-37.5l178.7 193.2-65.4 293.6L362.3 98.6z"/><path fill="#bababa" d="M382.7 46l-284.4-.2 256.5 47.7 18.7 63z"/><path fill="#000200" fill-opacity=".8" d="M6 22l11.2 427.3 75-9.2-6.7-421.7z"/><path fill="#000100" fill-opacity=".4" d="M273.7 86.2L476.4 179l-315.8 11.4 6.8-86.3z"/><path fill="#d1d5d1" fill-opacity=".7" d="M290.1 262.8l188 17.2-53.3 80.9-60.6-163.5z"/><path fill="#aeaeae" fill-opacity=".9" d="M405.7 226.7L381.4 419l-116 30.3 186-130.8z"/><path fill="#040a04" fill-opacity=".5" d="M171 315l202.5 31-72.7-113.7 40.7-159z"/><path fill="#0a0b0a" fill-opacity=".8" d="M463.5 366.7l194-30.3v112.9h-255z"/><path fill="#e8ece8" fill-opacity=".5" d="M208 335l59.4-49.2-10.2 46 20.1 25.7z"/><path fill="#eff6ef" fill-opacity=".6" d="M569.1 28.8l-15.7-44.5 86 .2L657.5 38z"/><path fill="#151715" fill-opacity=".7" d="M285.8 402.5l95.9-140.2 8.5-157.2 14.5 201z"/><path fill="#707070" fill-opacity=".8" d="M597.7 209l-32 12.4 5.6 65.4 31.3-6.1z"/></g></svg>