<svg xmlns="http://www.w3.org/2000/svg" viewBox="0 0 620 414"><defs/><filter id="prefix__a"><feGaussianBlur stdDeviation="30"/></filter><rect width="100%" height="100%" fill="#435c2f"/><g filter="url(#prefix__a)"><path fill="#e9e0e2" fill-opacity=".8" d="M-31.2-12.1l675.4-15 4.1 128.8L159.6 193z"/><path fill="#90818e" fill-opacity=".7" d="M550.7 172.4l12.6 276.9-436.2-100.6L-23.2 31z"/><path fill="#27271b" fill-opacity=".8" d="M373 169L235.2 331.8l-54.3 4.6 120.4 112.9z"/><path fill="#f9fdff" fill-opacity=".5" d="M209.3 198.6L124.7-37.5l29.8 380.2 88.9-27.6z"/><path fill="#b5b0b3" fill-opacity=".9" d="M389 214.3l-96 235h206l-64.8-236.9z"/><path fill="#2a2929" fill-opacity=".8" d="M336.9 184.3L323.8-33.2l18 72.2 18.8 275.8z"/><path fill="#4b3d35" fill-opacity=".9" d="M196.2 90.3l-16 40 86.4 139.5-25.9-161z"/><path fill="#654f52" fill-opacity=".8" d="M126.7 48.2l-139-1.5L-9 449.3l152.1-277.1z"/><path fill="#f8faf7" fill-opacity=".6" d="M328.6-32.5l-1.9 214.6-95-77.7L-37.4 2.9z"/><path fill="#16141d" fill-opacity=".6" d="M545.6 175.3l58.2 274 52.8-115-83.1-277.9z"/><path fill="#241a08" fill-opacity=".5" d="M204.9 192.3l182.8-49.2 117.7 41.4-62.7 12z"/><path fill="#fffff7" fill-opacity=".5" d="M630 9.4L444.6 158.1l-100-70.7-2.5-125z"/><path fill="#a8a1ac" fill-opacity=".9" d="M220 420.7l-81.5-80.4L158 361l-20.8-140.2z"/><path fill="#4e504e" fill-opacity=".7" d="M285.3 55.2l45.3-5-5.1 22-54.7-6.6z"/><path fill="#8a7368" d="M346 318l-30.4-87.7-34.9 48 179.7-41.4z"/></g></svg>