<svg xmlns="http://www.w3.org/2000/svg" viewBox="0 0 620 414"><defs/><filter id="prefix__a"><feGaussianBlur stdDeviation="30"/></filter><rect width="100%" height="100%" fill="#395429"/><g filter="url(#prefix__a)"><path fill="#eceff6" fill-opacity=".9" d="M286.5-37.5l-324 48.4L17 266.4l193 .5z"/><path fill="#e4cde3" fill-opacity=".6" d="M644.7 447.3L538.4 143.1l-60 6.8L396 444.2z"/><path fill="#876c5a" fill-opacity=".5" d="M198.1 289.9L112 256.2l491.9-5L234-37.6z"/><path fill="#0c1102" fill-opacity=".8" d="M516.6 234l65.6-2.5-4.6-269 80 370.3z"/><path fill="#172011" fill-opacity=".5" d="M205.1 108l-9.4 44L573-37.4l84.5 175.3z"/><path fill="#e5e9ec" fill-opacity=".6" d="M251.9 168.6L113.9 296l-151.4-93.8L46.3.7z"/><path fill="#fba7b0" fill-opacity=".4" d="M312.2 239l78.2-7 40-126.6 78 61.5z"/><path fill="#30012f" fill-opacity=".4" d="M480.7 225.2l-135.6 224L125.5 391l347.2-215z"/><path fill="#f7f4ff" fill-opacity=".3" d="M542.3 246.5l-176.4 48 49.5 23 69.2 131.8z"/><path fill="#ba9c90" fill-opacity=".7" d="M592 218.7L476.8 239 508 135.1l20.6-2.9z"/><path fill="#d3d9e0" fill-opacity=".6" d="M510.3 22.5L544.9 43l18.2-19.6-36.6-8z"/><path fill="#20100c" fill-opacity=".7" d="M360.9 188.4l-25.7-98.3 55 127.1-108-8.2z"/><path fill="#0a0312" fill-opacity=".6" d="M300.6 376.4l-33-148.5 81 38.7-56.3 182.7z"/><path fill="#ee9f7c" fill-opacity=".5" d="M300.3 375.6l-18.2 16.7-13-60.7 16 .4z"/><path fill="#e5e7e7" d="M-10.9 228.1l264-153.7L-37.5-36.1l298.3 51.6z"/></g></svg>