<svg xmlns="http://www.w3.org/2000/svg" viewBox="0 0 620 414"><defs/><filter id="a"><feGaussianBlur stdDeviation="30"/></filter><rect width="100%" height="100%" fill="#645484"/><g filter="url(#a)"><path fill="#d0d2c4" fill-opacity=".9" d="M-5.6 428.7l663.1 20.6V1.5L-3.9-6.3z"/><path fill="#704e29" fill-opacity=".8" d="M118.7 258l37.5-125.5 196.2 221.3-81.6 95.5z"/><path fill="#f6f9f9" fill-opacity=".9" d="M375.4 355l-65.6-218L520.5-37.4l137 257.2z"/><path fill="#a5876e" d="M189.9 223.5l150.4 16.8 17.7-21.4-6.3 149z"/><path fill="#abafa4" fill-opacity=".9" d="M452.4-11.1L285.1 155.5l9.2 185-166-275.4z"/><path fill="#f4f9f9" fill-opacity=".9" d="M354.6 449.3l303-45.8-35-54.3-114 33z"/><path fill="#07271a" fill-opacity=".2" d="M305.2 449.3l224.5-135 127.8-6.2L479 387.5z"/><path fill="#604023" d="M174.4 278l14-126-40.7-4.5L129.1 268z"/><path fill="#6b3b1b" fill-opacity=".6" d="M312.7 193.3L341.5 344 203.9 449.3 309.8 306z"/><path fill="#d3dee3" fill-opacity=".7" d="M248.5 448.3l-286-41.7L68 276l147.2 92.5z"/><path fill="#ebf1f2" fill-opacity=".9" d="M291.8 243L482.4-24.6 278 170.7l23 56.7z"/><path fill="#898a71" fill-opacity=".6" d="M195.7-37.5l-86 115.2-147.2-58.3L87.9 55z"/><path fill="#6c300e" fill-opacity=".5" d="M276.6 286.8l1.4-34-72.1 62.5-6.1 49.2z"/><path fill="#94866b" d="M243.4 373.2l-7.5 20.8-81.1-69-23.3-56.7z"/><path fill="#e6e3d2" fill-opacity=".4" d="M321.1 317.5L203 125.5l2 98.5 72.4 36.4z"/></g></svg>