<svg xmlns="http://www.w3.org/2000/svg" viewBox="0 0 620 414"><defs/><filter id="prefix__a"><feGaussianBlur stdDeviation="30"/></filter><rect width="100%" height="100%" fill="#444"/><g filter="url(#prefix__a)"><path fill="#c9c9c9" fill-opacity=".9" d="M487 306.9l-98.8-166.4L181.4 364l341.2 85.3z"/><path fill="#8c8c8c" d="M61.3 280.5l36.5 96.3L387.3 394 229.8 280.7z"/><path fill="#fff" fill-opacity=".4" d="M452.4 73.1l98 230.1-270.2-65.6L493 449.3z"/><path fill-opacity=".6" d="M105.6 155.5l113.8-186L-37.6 9l50 440.3z"/><path fill="#070707" fill-opacity=".9" d="M621.5 211.2l-130.3-34.6 7.2-214.1 159.1 25.1z"/><path fill="#030303" fill-opacity=".7" d="M163.7-37.5l222.8 168.8 72 118.2-36.9-227z"/><path fill="#fff" fill-opacity=".4" d="M189.9 410.5l161.8-13.3 28.5-140.5 175.1 192.6z"/><path fill="#101010" fill-opacity=".9" d="M299.1 449.3l-29.5-110-15.5 51.8 54.4 58.2z"/><path fill="#737373" fill-opacity=".6" d="M247.8 345.8L335.2 73 140 9.9l216.7 194z"/><path fill-opacity=".7" d="M-.5 449.3L-30 185l137.3 209.8 192.5-6.8z"/><path fill-opacity=".8" d="M220.9 212.6l34.6-1 30.8 33.7L260.8 95z"/><path fill="#7c7c7c" fill-opacity=".6" d="M449.5 288.2l119 115.8-77.3-232.3L657.5 286z"/><path fill="#202020" d="M129.6 279.5L-6.8 228 69 186.5l124.5 80.9z"/><path fill-opacity=".7" d="M356.3 51.6l14.2 114-75.5 22.1 47.7-53z"/><path fill="#f1f1f1" fill-opacity=".5" d="M489.7 279.2l30.8-98.5-56 12.6-9.4-42.2z"/></g></svg>