<svg xmlns="http://www.w3.org/2000/svg" viewBox="0 0 620 414"><defs/><filter id="prefix__a"><feGaussianBlur stdDeviation="30"/></filter><rect width="100%" height="100%" fill="#563430"/><g filter="url(#prefix__a)"><path fill="#c1c3be" fill-opacity=".6" d="M633.6 419.2l24-408-536.3 58.6L94 449.3z"/><path fill="#bec8d0" fill-opacity=".6" d="M657.5 413.2l-74-35.4-414.2-40.7-206.8 75.3z"/><path fill="#675b54" d="M-5 326.2l306 20.4-111.4-27.9L13.1 55.5z"/><path fill="#05080c" fill-opacity=".5" d="M227.7 95l79.9-8.8-1 96-71 16.2z"/><path fill="#d8ddda" fill-opacity=".6" d="M229.1 210l-91-2.4 20.8-135.4 61.7-11.4z"/><path fill="#724a3f" fill-opacity=".5" d="M657.5 382.7L367.4 101l-67.6 248.2 324.8 22z"/><path fill="#fffffb" fill-opacity=".2" d="M652.5-37.5h-60.6L142.6 32.7l328.7 142.2z"/><path fill="#00010f" fill-opacity=".3" d="M584 271.3l42.5 132.4L613.7 59l-50.6 5.8z"/><path fill="#c1e5e8" fill-opacity=".5" d="M222.6 1.2L76.8 25.4l25.4-10.9L-37.5-6.8z"/><path fill="#e2d8de" fill-opacity=".4" d="M12.8 59.8l23 14 4.4 51-17.7 198.8z"/><path fill="#e2e2d7" fill-opacity=".5" d="M326 77.3L307 199l129.7 39.2-37.8 54.3z"/><path fill="#f0fcfd" fill-opacity=".4" d="M389.7 223.8l197.1-29.6-15 79.5-101-109.7z"/><path fill="#19452f" fill-opacity=".4" d="M134.9 169.3l-27.4-148L23.7 4.8 44.3 396z"/><path fill="#431201" fill-opacity=".4" d="M380.7 76L403 191.6l-51.8-10-.5-108.2z"/><path fill="#001229" fill-opacity=".3" d="M578.8 223.5l42.9-95.1L486.6 213l19.8-115.7z"/></g></svg>