<svg xmlns="http://www.w3.org/2000/svg" viewBox="0 0 620 414"><defs/><filter id="prefix__a"><feGaussianBlur stdDeviation="30"/></filter><rect width="100%" height="100%" fill="#674636"/><g filter="url(#prefix__a)"><path fill="#c3ae93" d="M604.7-37.5l52.8 486.8-695-40.2L409 277.8z"/><path fill="#cfb2a4" fill-opacity=".8" d="M89.4 103.9L-13.1 449.3l196.2-52.1-7-434.7z"/><path fill="#c8c6ba" fill-opacity=".8" d="M478.8 64.4l82.1 384.9 96.6-486.8-375.1 48z"/><path fill="#4a2912" fill-opacity=".8" d="M504.7 285l-340.5-82-193 91.7 305.1-188.6z"/><path fill="#7e4b1f" fill-opacity=".6" d="M348 449.3l8-149L573.7 174l-415 96.4z"/><path fill="#ffe8a8" fill-opacity=".3" d="M61-37.5L456.8 53l-170 18.2L-37.6-.2z"/><path fill="#b68f59" fill-opacity=".7" d="M460.4 286.3L430.9 2.4l100.7 125-24.5 152.3z"/><path fill="#221404" fill-opacity=".7" d="M57.9 160.6l49.4-126.7-136.1-3.4-8.7 197.6z"/><path fill="#3f260f" fill-opacity=".9" d="M429 85.3l10 219.4L375.7-19l-.2-18.6z"/><path fill="#caa290" fill-opacity=".7" d="M293.8 374L148.7 220.3 2.7 316l-40.2 68z"/><path fill="#ffe8ba" fill-opacity=".6" d="M436.2 442l88.4-246.3 46.7 85.5 14.8 168z"/><path fill="#fff0d9" fill-opacity=".5" d="M107.5 216.3l-32.4-79L147 30l7 158.4z"/><path fill="#fada90" fill-opacity=".4" d="M346.3 127l9.7 55.9 62.3 23-25.5-102.5z"/><path fill="#654020" fill-opacity=".6" d="M390.4 107.5L136.8 186 295-28l73.9 152z"/><path fill="#80695a" fill-opacity=".8" d="M175.6 234.7l-35.4 214.6-27.8-94.7 131.2-111.2z"/></g></svg>