<svg xmlns="http://www.w3.org/2000/svg" viewBox="0 0 620 929"><defs/><filter id="prefix__a"><feGaussianBlur stdDeviation="30"/></filter><rect width="100%" height="100%" fill="#4b3128"/><g filter="url(#prefix__a)"><path fill="#ece9e0" fill-opacity=".8" d="M446.7 341.1l97 4.7 100 625.7-539.6-10.2z"/><path fill="#795b4d" fill-opacity=".9" d="M348.4 148.4l10.5 548-125.2 11.2L51.9 289.2z"/><path fill="#030000" fill-opacity=".8" d="M206.1 787.5L193.4 528-56.2 319.7l71.4 665.5z"/><path fill="#060906" fill-opacity=".7" d="M372.3 247.5L235.2 65.3l378-121.5 63.6 448.8z"/><path fill="#7f624e" fill-opacity=".9" d="M525.1 734.5L630.7 749l-79.8-467.8 7.2 333.2z"/><path fill="#010000" fill-opacity=".8" d="M-43.5-56.2l215.9 4.7 24 240.2L-52 428.2z"/><path fill="#eefcff" fill-opacity=".5" d="M322.6 679.7l354.2 107L74 985.2l128.1-194.8z"/><path fill="#fceacb" fill-opacity=".2" d="M340.4 682.2l-39.2-372.7L126.6-56.2l381.8 488.8z"/><path fill="#e6c3ca" fill-opacity=".6" d="M59.5 364.3l19.6 34.5 76.6-96.5-13.4-65.3z"/><path fill="#41261a" fill-opacity=".8" d="M296.1 479.4L169.5 346.9l-7.3 207.2 145.9 148z"/><path fill="#a3a98b" fill-opacity=".4" d="M186.5-56.2l15.3 309.5 53-204L488-56.1z"/><path fill="#c29071" fill-opacity=".4" d="M549 833.6l-85.2-372-82.4-126.3 199.2-.4z"/><path fill="#8e644d" d="M159.3 488.5l-43.5-8.8-24-170.5 102.7 93.6z"/><path fill="#634635" fill-opacity=".8" d="M380 621l-43.2-83.2-144.1 286.7L274 550z"/><path fill="#ffc79a" fill-opacity=".5" d="M252.6 686.6l-68.6-136 17.8 88 30.4 96.6z"/></g></svg>