<svg xmlns="http://www.w3.org/2000/svg" viewBox="0 0 620 414"><defs/><filter id="a"><feGaussianBlur stdDeviation="30"/></filter><rect width="100%" height="100%" fill="#33512f"/><g filter="url(#a)"><path fill="#ece3f2" fill-opacity=".6" d="M238.6 449.3l73.8-111.7 84.8-37.8 42.4 149.5z"/><path fill="#eff3f7" fill-opacity=".7" d="M250.7-37.5L134.4 25.9 194 72.2l43.6-32z"/><path fill="#ffc5b0" fill-opacity=".5" d="M229.4 231.8l164-31.3 18 33.7-95.6 44.6z"/><path fill="#0a0200" fill-opacity=".5" d="M346.3-36L-37.5 225.4l695-41.7L622-21.8z"/><path fill="#141c29" d="M501.8 81.1l38 368.2-213.3-193.6 77.7 69.8z"/><path fill="#ffa0b1" fill-opacity=".3" d="M332.5 261.8l21.6-131.7 86.4.2 31.3 67.8z"/><path fill="#f6be75" fill-opacity=".4" d="M521.2 301.8l42.4-63.7 75 31.7-7 31.7z"/><path fill="#262919" fill-opacity=".7" d="M257 431l-294.5-67L3.4-37.5 308 321.9z"/><path fill="#13121e" fill-opacity=".7" d="M362 187.5l59-14.3 10.3 276 226.2-73.6z"/><path fill="#765c47" fill-opacity=".6" d="M402.5 229.4L312.2 342l-81-155.8 211.3 116.5z"/><path fill="#192311" fill-opacity=".9" d="M651.2 171.2L617 253.8l-88.2-25L258.4-31.4z"/><path fill="#deccf1" fill-opacity=".4" d="M461.1 182.9l2-5.1-20.6-6-19.2 87.6z"/><path fill="#dab295" fill-opacity=".6" d="M359 120.9l32.6 30.7-10.6 27.9-23-33.7z"/><path fill="#fbfdfd" fill-opacity=".6" d="M248.2-37.5L188.7 21 108-37.5l97 93.7z"/><path fill="#275430" fill-opacity=".6" d="M189.1 47l17.2 46L59.8 196.7 181.6 28.6z"/></g></svg>