<svg xmlns="http://www.w3.org/2000/svg" viewBox="0 0 620 414"><defs/><filter id="prefix__a"><feGaussianBlur stdDeviation="30"/></filter><rect width="100%" height="100%" fill="#3f3f3f"/><g filter="url(#prefix__a)"><path fill="#fefefe" fill-opacity=".8" d="M9.4 449.3h337.4L274.8-1-37.4-4.4z"/><path fill="#c5c5c5" d="M365.7 55.5L-37.5 12l547.3-49.6-114 143.3z"/><path fill-opacity=".7" d="M529.4-37.5l128.1 54.2-34.4 432.6-302.4-63zM280.2 170l3.2-89.8L350 37.3l47.7 101.5z"/><path fill="#fff" fill-opacity=".6" d="M365.7 163.7l31.7-22.3 46 26.2-61 26.1z"/><path fill="#ededed" fill-opacity=".6" d="M156.2 159.6l-137 289.7 315.5-103.5-2.2-170.2z"/><path fill="#8e8e8e" fill-opacity=".7" d="M-37.5 23.5V138l76.3-49.4L161.3-37.5z"/><path fill="#c5c5c5" fill-opacity=".5" d="M487.8 145.8l28-46.5 7.8 70-18.9 3.1z"/><path fill="#101010" fill-opacity=".9" d="M414.4 148.5l32.7 24.4 46.2-137.5-67.8 13z"/><path fill="#d9d9d9" fill-opacity=".5" d="M491.2-37.5l18.1 85-87.9-11-205.4 33z"/><path fill="#0c0c0c" fill-opacity=".8" d="M283.1 87.7l55.5 102.7 9.2 258.9 231-21.4z"/><path fill="#606060" d="M-21.6 389l70.3 60.3h70.7L9.2 392.8z"/><path fill="#a9a9a9" d="M370.5 449.3H402l-284-21.8 212.1-47z"/><path fill="#fcfcfc" fill-opacity=".4" d="M403.7 155l18.7-170.3-42 214.1 49.7-32z"/><path fill="#141414" fill-opacity=".7" d="M285 163.7l77.8 30.5 41-94.2 100.7-26.6z"/></g></svg>