<svg xmlns="http://www.w3.org/2000/svg" viewBox="0 0 620 414"><defs/><filter id="a"><feGaussianBlur stdDeviation="30"/></filter><rect width="100%" height="100%" fill="#344652"/><g filter="url(#a)"><path fill="#d4d9e2" fill-opacity=".7" d="M657.5-37.5L607 449.3 386.3 173.9-37.5 8.9z"/><path fill="#ecedf4" fill-opacity=".9" d="M77 329.9L-37.5 105l44 344.2L282.4 395z"/><path fill="#858c93" d="M91 289.2l-93.7-270 660.2 105.5-377 44.8z"/><path fill="#eff6ff" fill-opacity=".7" d="M537.4 202.5L400.6 449.3h217.2l39.7-284.1z"/><path fill-opacity=".7" d="M364.5 113.3l125.2 253.1-262.3 82.9 119-360.4z"/><path fill="#e9f3fd" fill-opacity=".9" d="M247.3 449.3L19.6 376l174.6-48 52.8-44.8z"/><path fill="#000101" fill-opacity=".8" d="M91 359l260.4-113.2-52.5-79.7-205.7 151z"/><path fill="#d2e2f3" fill-opacity=".8" d="M412.4 354l66.2 24.8L650 405.9l-208 43.4z"/><path fill="#e4f2ff" fill-opacity=".7" d="M565.8 330.1l-120-43.6 3-96.9 208.7-2.6z"/><path fill="#bbc0c5" d="M309.8 150L280 137 179 264l10.4-62.5z"/><path fill="#55666f" d="M100 244.9l-19.6-78-82.6-111-35.3 148z"/><path fill-opacity=".7" d="M254.8 449.3l243.9-131.6L468 294 249.5 160.6z"/><path fill="#b0887c" fill-opacity=".9" d="M296.7 179.2l89.1-48.4 6.3 47.7L287.5 66.8z"/><path fill="#030506" fill-opacity=".8" d="M437.6 231.3l-31 218-191-178.8L404 183.1z"/><path fill="#a88f93" fill-opacity=".6" d="M-20.6 345.8l111-17-128-268 88.2 230.8z"/></g></svg>