<svg xmlns="http://www.w3.org/2000/svg" viewBox="0 0 620 414"><defs/><filter id="prefix__a"><feGaussianBlur stdDeviation="30"/></filter><rect width="100%" height="100%" fill="#343a54"/><g filter="url(#prefix__a)"><path fill="#d8c396" fill-opacity=".7" d="M581.7 2.4l75.8 324.8-621.2 58.6 96.9-423.3z"/><path fill="#926332" fill-opacity=".8" d="M504.5 330.6L129.3-35.6-30-32.2 34.9 85.2z"/><path fill="#e0fffe" fill-opacity=".6" d="M338.6 209l-34.9 184.6 218 55.7-138.8-81.7z"/><path fill="#e3f4f1" fill-opacity=".5" d="M115.3-34.9L500-37.5 601.6 200l-195.7-51.3z"/><path fill="#8e7866" fill-opacity=".9" d="M470 423.8l69.1-126.2 94.2 32.3-77 115.2z"/><path fill="#817941" fill-opacity=".5" d="M-31 372.7l91 76.6 62.8-299.4L-37.5-8.2z"/><path fill="#775b41" fill-opacity=".9" d="M445.1 272.2l-8.7-118.4-166.1 106.8 44.3-147.7z"/><path fill="#defae7" fill-opacity=".4" d="M220.6 313.6l17.2-119.9-116-55.7L103 310.2z"/><path fill="#607a7e" d="M27.9 408.6l199.8-99.8 43.6 81.6 24.7-38.7z"/><path fill="#081c03" fill-opacity=".4" d="M657.5 354.6l-165.9-1-104.3-25.7-22.3 59.8z"/><path fill="#d3b9c5" d="M466.2 268.6L506 346l38.5.7-39.7-67.3z"/><path fill="#7b7248" fill-opacity=".7" d="M657.5 267.4l-31-269.6L564.8-14l1.7 92.2z"/><path fill="#713a00" fill-opacity=".5" d="M310.2 310.7l-13.8-122-53 76-24.7-124.5z"/><path fill="#595a51" fill-opacity=".7" d="M343 279.2l138.7 170-128.6-194.4 209 61.3z"/><path fill="#7d2c00" fill-opacity=".4" d="M101.5 49.4l19.4 105.4-24.8 69L-.7 449.3z"/></g></svg>