<svg xmlns="http://www.w3.org/2000/svg" viewBox="0 0 620 414"><defs/><filter id="a"><feGaussianBlur stdDeviation="30"/></filter><rect width="100%" height="100%" fill="#4f312f"/><g filter="url(#a)"><path fill="#5d7caa" fill-opacity=".9" d="M657.5 172.4l-27-204.1L-37.6-1 7 449.3z"/><path fill="#2f6fc8" d="M-15.5-16.7l7 466h270.8l-29.8-343.5z"/><path fill="#a2a0a0" d="M657.5 303.5l-90-160.1L6 11.9l620.4-49.4z"/><path fill="#351901" fill-opacity=".3" d="M609.1 338.6l3-199.1-391.2-99-5.6 314.5z"/><path fill="#b8e6ff" fill-opacity=".6" d="M52-1.2L112.2 98l63.2-18.4 80.4-117.2z"/><path fill="#776d63" fill-opacity=".9" d="M371.5 232.7l68.6-270.2L496.5 156l161 101.4z"/><path fill="#060f0e" fill-opacity=".4" d="M279.2 230.6l20.1 86.4 107.8 120.4 77-281.2z"/><path fill="#99aa97" fill-opacity=".8" d="M270.5 428l-23.2-30 106.5-13.4 17.7 17z"/><path fill="#837b72" fill-opacity=".8" d="M439.8 165.2l-168.6 35-22-105.7L340-10.7z"/><path fill="#d5dde7" fill-opacity=".5" d="M511 208.5l32.7 27L403 249.1l-37.8.3z"/><path fill="#051318" fill-opacity=".7" d="M657.5 241l-205.3 29 116.5 179.3H619z"/><path fill="#d9dee9" fill-opacity=".6" d="M657.5-27.1l-129.8 43 12.9 88.5 117 4.3z"/><path fill="#bdfbde" fill-opacity=".3" d="M514.6 449.3l-95.1-66.6L431 358l75.6-25.5z"/><path fill="#2140a6" fill-opacity=".6" d="M175.6 136.1l78 5.8 55 208.5-93.5-6z"/><path fill="#f9ffe5" fill-opacity=".4" d="M427.7-18.9l-75.6-18.6L418.7 168l-37.3 19z"/></g></svg>