<svg xmlns="http://www.w3.org/2000/svg" viewBox="0 0 620 414"><defs/><filter id="a"><feGaussianBlur stdDeviation="30"/></filter><rect width="100%" height="100%" fill="#625037"/><g filter="url(#a)"><path fill="#eaf1f7" fill-opacity=".5" d="M329.6 348l-281 11.2-86-355.6L313-37.5z"/><path fill="#c9ced7" fill-opacity=".8" d="M322.8-37.5l219.7 315.3 115-82.1L493.5 6z"/><path fill="#00020f" fill-opacity=".6" d="M300 238.8l123.8 145.6 87.5-192.6L389 89.8z"/><path fill="#d3d3d0" d="M424.8 18.6L5.8 43.8l-43.3-65.6 335-10z"/><path fill="#fffffe" fill-opacity=".5" d="M318.5 362.3l58.1-67.6-307.8 69L223.3 294z"/><path fill="#bababd" fill-opacity=".8" d="M440 202.7l-6-98.6-75-32.4 175-42z"/><path fill="#717066" fill-opacity=".8" d="M25 449.3L-37.6 198 166 172.4l-40.4 38.8z"/><path fill="#fff7ee" fill-opacity=".6" d="M268.6 112.9l75.8 9.2-44.6 53.5-77.2-3.9z"/><path fill="#c6ddfa" fill-opacity=".3" d="M581-28.6l-83.3 306.1-65.2 61.8 128.9-1.2z"/><path fill="#080f12" fill-opacity=".6" d="M570.4 359l87.1-97-39.2 149.2-392.6 12.6z"/><path fill="#43311f" fill-opacity=".5" d="M-29 112.1l-8.5-36.5 159-15.8 49.7 22.8z"/><path fill="#3b392f" fill-opacity=".9" d="M522.6 83.8L516 67.6 657.5 16l-15.7 58z"/><path fill="#070000" fill-opacity=".5" d="M306.9 126.2l-5.1-78.7 128.3 132 2.7-78.3z"/><path fill="#4f5150" fill-opacity=".7" d="M-37.5 404.2l171.4-47.7 130.3-28.3 202.3 121z"/><path fill="#c7c5c6" fill-opacity=".8" d="M514.6 283.8l54.5-70.2 61-101.7-144.3 8.5z"/></g></svg>