<svg xmlns="http://www.w3.org/2000/svg" viewBox="0 0 620 414"><defs/><filter id="prefix__a"><feGaussianBlur stdDeviation="30"/></filter><rect width="100%" height="100%" fill="#572f28"/><g filter="url(#prefix__a)"><path fill="#cbbaa1" fill-opacity=".7" d="M298.4-37.5l173.4 106 71.7 380.8L-33-13.3z"/><path fill="#e8d3d0" fill-opacity=".7" d="M458 284.3l-30.8 139 59.4-8.2 68.7-99.8z"/><path fill="#2a2f23" fill-opacity=".6" d="M448.3 313.4l-13 59.8-472.8-64 236-154.2z"/><path fill="#0b0d0a" fill-opacity=".7" d="M338 47l294.4-84.5 3.1 486.8L442.2-37.5z"/><path fill="#dbc485" fill-opacity=".4" d="M59 384.1l35.7 65.2L253.1 392l-26-62.2z"/><path fill="#7f634a" fill-opacity=".7" d="M246.5 94.7L391-7.5 247.5 234.7l-285-86z"/><path fill="#d1b2a7" fill-opacity=".9" d="M448 173l-121.8-20.4 48.5 138.8 53.2-11z"/><path fill="#0b0b0b" d="M-37.5 449.3l31-183.6 16.7-1.5L80.9 436z"/><path fill="#b4c8ac" fill-opacity=".5" d="M219.7 166.9l39.7-108 218-96.4h-491z"/><path fill="#561017" fill-opacity=".7" d="M657.5 220.1l-143 152.1-46.6 77h189.6z"/><path fill="#000b13" fill-opacity=".5" d="M294 287.2L139.5 206 11.4 263l173.4 80z"/><path fill="#8b5b47" fill-opacity=".7" d="M531.8 254.8l13.6-98.1-105.1 41.7 132 181.6z"/><path fill="#946b4e" fill-opacity=".8" d="M118.4 159.4l109.3-43.6L118.4 89l-139-86z"/><path fill="#6b131b" fill-opacity=".8" d="M377.6 449.3l58.8-63 7.5-104.9-66.6 21z"/><path fill="#fcceb6" fill-opacity=".4" d="M351.9 105.6l19.4-57 79.2 33.7 19.3 67.1z"/></g></svg>