<svg xmlns="http://www.w3.org/2000/svg" viewBox="0 0 620 414"><defs/><filter id="prefix__a"><feGaussianBlur stdDeviation="30"/></filter><rect width="100%" height="100%" fill="#444"/><g filter="url(#prefix__a)"><path fill="#ececec" fill-opacity=".6" d="M657.5 415.8L647.1-14.8 377.3-37.5l-1 240.2z"/><path fill-opacity=".5" d="M586.6 277.8L528 98.6-37.5 398.9l555 50.4z"/><path fill="#dadada" fill-opacity=".6" d="M394.5 52L365 191.9l75.5 98.6 93.5-24.2z"/><path fill-opacity=".7" d="M341.7 449.3l-379.2-5.6 16.4-481.2L131 5.8z"/><path fill="#fff" fill-opacity=".4" d="M323.3-37.5l334.2 139.2-454-139.2L325 224.8z"/><path fill="#d8d8d8" d="M374.4-.5L652-6l-8.3 99.3-251.4 8.5z"/><path fill="#1b1b1b" fill-opacity=".9" d="M573 309.3L437.1 105.8l-9.9 68.3 107-42.1z"/><path fill-opacity=".7" d="M389.7 261l-427.2 76.1 425.2 112.2 247-38.8z"/><path fill-opacity=".8" d="M370.8 35.6l-38-41.7-11.9 197 51.6 2.9z"/><path fill="#fcfcfc" fill-opacity=".5" d="M585.4 240.5l-46.5 183.3 114.8-185-62.3-73.1z"/><path fill="#747474" d="M657.5 100.8l-106.3 17.1-107 48.7L471.3 94z"/><path fill="#7d7d7d" fill-opacity=".7" d="M293.5 231L203 62.5l88.4.2-95.7 158.9z"/><path fill="#c1c1c1" fill-opacity=".9" d="M452 117.5l98.7 28 45.6 20L637 112z"/><path fill="#ececec" fill-opacity=".6" d="M404 174.9l79.2 124.7v-26.2l1.7-95z"/><path fill-opacity=".5" d="M-37.5 155.5l311 12.8 14-46.2-70-31.5z"/></g></svg>