<svg xmlns="http://www.w3.org/2000/svg" viewBox="0 0 620 414"><defs/><filter id="prefix__a"><feGaussianBlur stdDeviation="30"/></filter><rect width="100%" height="100%" fill="#4f402f"/><g filter="url(#prefix__a)"><path fill="#eef8f8" fill-opacity=".6" d="M168.8 404.7l411.7-198.4 6.6-243.8H119.4z"/><path fill="#635c4c" fill-opacity=".8" d="M476.9 240l-335.5-47.7 237.4 246.3L636 449.3z"/><path fill="#d5dddf" fill-opacity=".7" d="M558.7 5L351.2-37.4l.2 271 228.2 15z"/><path fill="#c4c0aa" fill-opacity=".4" d="M-34.6 405.4l-3-348.2 90.4-94.7 38.3 403.7z"/><path fill="#c9cbca" fill-opacity=".9" d="M175.6 285.3l74.3-37.5 7.8 129.3-55.5 22.5z"/><path fill="#fafffb" fill-opacity=".5" d="M215.5-37.5L252.8 9l-9.2 193.5-104.8-6.8z"/><path fill="#c5ddf6" fill-opacity=".5" d="M412 449.3l12.6-80.2 125 20.1 40.1 36.8z"/><path fill="#472308" fill-opacity=".6" d="M298.1 155.7l3.4-51.8 44.6-7.8 6.5 31z"/><path fill="#292412" fill-opacity=".4" d="M657.5 271.5L500.4 375.6l-235.7-22.2 143.9-129.6z"/><path fill="#5f4a34" fill-opacity=".6" d="M89.1 285.5l154-69.5 7.3-121.8 57 150.9z"/><path fill="#14291c" fill-opacity=".6" d="M181 299.8l11.8 105.9L64.9-5.6l38.8 441.8z"/><path fill="#fcdde0" fill-opacity=".3" d="M335.4 303l166.9 10.6 6.5 14.8-274.8 1z"/><path fill="#f9fdfe" fill-opacity=".5" d="M277-37.5L257.3 64.7l174.4-23.8 4.6-38.5z"/><path fill="#051b0d" fill-opacity=".3" d="M566.7 95.4l5.6 218.2 85.2 73-78.7-365.8z"/><path fill="#fdf5ef" fill-opacity=".3" d="M313.1 277.3l39.3 21.6-52.6-59.1-116 39.7z"/></g></svg>