<svg xmlns="http://www.w3.org/2000/svg" viewBox="0 0 620 414"><defs/><filter id="a"><feGaussianBlur stdDeviation="30"/></filter><rect width="100%" height="100%" fill="#56443e"/><g filter="url(#a)"><path fill="#9a9fab" fill-opacity=".5" d="M652.2 216l-39-253.5H394.8l-116.3 241z"/><path fill="#110b08" d="M392.1 397.4l62-85-219.4-113.6 17.2 183.4z"/><path fill="#c2996e" fill-opacity=".6" d="M132.2 337.1L46.5 449.3 115 192.8l-152.5-35.1z"/><path fill="#f0f6ed" fill-opacity=".6" d="M272 34.4l.5-6.3-83.1.5-227 34.9z"/><path fill="#dfd8cd" fill-opacity=".5" d="M383.6 31l-56 131.5 115 76.5-49 20.9z"/><path fill="#68605e" d="M530.9 103.9l20.3 262-165.6-219.4L657.6 3z"/><path fill="#450000" fill-opacity=".6" d="M93.7 253.8l-65.6-46-65.6 241.5 124-94.5z"/><path fill="#141115" fill-opacity=".5" d="M553.6 360.9l-96.6 14 187.2 74.4-96.6-267z"/><path fill="#d69577" fill-opacity=".7" d="M372 172.2l-56.7 63.4-35.8-37-34-30z"/><path fill="#2c241c" fill-opacity=".9" d="M183.6 380l-57-250.7-6.2 136.9 7 183z"/><path fill="#eba98b" fill-opacity=".6" d="M-29.5 449.3l147.2-113.4 9.2 18.2-46.7 46.7z"/><path fill="#957b70" fill-opacity=".6" d="M250 323.3l-104.4-85.2 86.2-70.7-56 235.4z"/><path fill="#f9fecc" fill-opacity=".6" d="M-37.5 208L83 186.5l-9.5-7.8-111.1 9.7z"/><path fill="#b3b2b6" d="M329.9 57.6l10.6 49.2 115.8-48.2L426 90z"/><path fill="#fba885" fill-opacity=".4" d="M460.4 362.8l-164 86.5-4-68.1 109.9 47.2z"/></g></svg>