<svg xmlns="http://www.w3.org/2000/svg" viewBox="0 0 620 414"><defs/><filter id="prefix__a"><feGaussianBlur stdDeviation="30"/></filter><rect width="100%" height="100%" fill="#293a50"/><g filter="url(#prefix__a)"><path fill="#f5f4f0" fill-opacity=".6" d="M657.5 1.7L229.4-37.5l180.1 472 200.3-25z"/><path fill="#83b2d0" fill-opacity=".7" d="M57.6 449.3l104-10.7-24.8-476.1-174.3 90z"/><path fill="#88888b" d="M342.2 442.5l265-24.2 37-158.2-254.8-6.8z"/><path fill="#f0feff" fill-opacity=".4" d="M522.4 260.4l75.8-298L216.8.5 291 160.7z"/><path fill="#131417" d="M371 449.3L198.8-10.4 135 212.2l56.7 232z"/><path fill="#8aafc9" d="M99.5-37.5L119-18.2l53.5 121.9-68 139.5z"/><path fill="#6b2c02" fill-opacity=".4" d="M128.8 11.9l237.4 261-47.7-146L211.9-37.5z"/><path fill="#383a39" fill-opacity=".9" d="M657.5 257.7l-366.4 5L657.5 289v67.6z"/><path fill="#593f30" fill-opacity=".5" d="M583-29.5l-32.3 322 23-163.4 83.8 5.3z"/><path fill="#c2cad5" fill-opacity=".7" d="M491 354.6l-64.3-7-85-83.9 155.8 20.4z"/><path fill="#163044" fill-opacity=".4" d="M398.4 126.2l-28.8 5 2.9-72.8 25.9 6.5z"/><path fill="#111817" fill-opacity=".5" d="M500.1 449.3l-14-97.4-24.2 88 51-183.7z"/><path fill="#566f85" fill-opacity=".6" d="M76 338.3L-37.5 115.5l68.7 317.8 151-78.3z"/><path fill="#eef7ff" fill-opacity=".5" d="M531.8-37.5H340.5L248.7 88.2l324.8-51.6z"/><path fill="#fbf4ff" fill-opacity=".3" d="M485.6 370l-11 79.3-139-66 60.4-28.7z"/></g></svg>