<svg xmlns="http://www.w3.org/2000/svg" viewBox="0 0 620 414"><defs/><filter id="prefix__a"><feGaussianBlur stdDeviation="30"/></filter><rect width="100%" height="100%" fill="#472a29"/><g filter="url(#prefix__a)"><path fill="#ebf6fc" fill-opacity=".8" d="M657.5 82.6V-37.5L30-3.1l45.6 212.3z"/><path fill="#8b6f68" fill-opacity=".9" d="M581.5 387.5l-560-204.9L284.9 166 394 100.5z"/><path fill="#06141a" fill-opacity=".8" d="M639.9 190.6l-198.6 13-41-84.2 251-19.9z"/><path fill="#ccd3d9" fill-opacity=".8" d="M324.3 218.2l2.2-40.7 120.3-15.7L157.7 78z"/><path fill="#c19485" fill-opacity=".7" d="M500.4 201l157.1-5.8-240.2 89.4 78 164.7z"/><path fill="#3a4d54" fill-opacity=".8" d="M336.6 257.4l-132.4-62.2 17 202.7 79.6 31z"/><path fill="#8e919e" fill-opacity=".3" d="M173.6-37.5L6.3 338.3l-43.8-118.6L19.4-27z"/><path fill="#080807" fill-opacity=".5" d="M457.7 177.5L345.1 449.3 467 431.8l-94-176.5z"/><path fill="#f0f7f6" fill-opacity=".4" d="M653.2 107l-450.7 5.4-38.8-147.8L578-37.5z"/><path fill="#97729a" fill-opacity=".8" d="M81.4 412.4l79.9-78.2-8.5 53.3h-40z"/><path fill="#723d3a" fill-opacity=".7" d="M451.2 334l150-45 36.7 154.2-194.5 6z"/><path fill="#000605" fill-opacity=".5" d="M657.5 449.3l-36.8-210.7-205.6-.8 193.5 67.8z"/><path fill="#171408" fill-opacity=".7" d="M24.5 230.3l164.4-4.6-18.9 73.9-143.6-31.3z"/><path fill="#00040c" fill-opacity=".6" d="M393 403.7l-60.2 45.6-48-167.2 96.9 85.5z"/><path fill="#989281" fill-opacity=".8" d="M580.3 238.6l-114.8-6.3 128.1-39 64-9z"/></g></svg>