<svg xmlns="http://www.w3.org/2000/svg" viewBox="0 0 620 414"><defs/><filter id="prefix__a"><feGaussianBlur stdDeviation="30"/></filter><rect width="100%" height="100%" fill="#444"/><g filter="url(#prefix__a)"><path fill="#c6c6c6" fill-opacity=".5" d="M-37.5 418.7l695-6.5-440.3-263.7 136 42.6z"/><path fill="#fefefe" fill-opacity=".5" d="M248.7 92.5l-124.2 31.3L123-37.5h130z"/><path fill="#d5d5d5" fill-opacity=".6" d="M171.2 202.7L66.4 121.3l-104 22.6 29.1 112.6z"/><path fill="#272727" fill-opacity=".8" d="M458.7 240L657.5-24.7 237.8 21.1l229.6 428.2z"/><path fill="#f4f4f4" fill-opacity=".6" d="M471.5 162.3l82.4 287 66.8-120.4-159-10.2z"/><path fill="#fff" fill-opacity=".5" d="M399.4 302.5l-117-72.7-56.7 15.8L435 441.3z"/><path fill-opacity=".4" d="M232.7 337.9L15 298.9l105.6-94.3L345.1 348z"/><path fill-opacity=".7" d="M-37.5-37.5v172.9l154-25-3-135.1z"/><path fill="#7a7a7a" d="M321.6 169.5l13.1-187.4-25.2-4.6-10.6 214z"/><path fill="#b9b9b9" fill-opacity=".7" d="M-7.5 393.8l259.9-3.9-59.1-71L37 350.3z"/><path fill="#1f1f1f" fill-opacity=".6" d="M621-37.5H280.7L629 377.8 657.5 218z"/><path fill="#8f8f8f" fill-opacity=".4" d="M112.1 188.2l135.2 136.3 39.2-227.9L173 200z"/><path fill="#363636" fill-opacity=".8" d="M303.5 197.9l101.2 127.6L505 446.4l-13.4-69.6z"/><path fill="#c7c7c7" fill-opacity=".8" d="M382.2 449.3l18.6-157-51.3 6.3-27 99.3z"/><path fill="#4a4a4a" fill-opacity=".8" d="M211.2 449.3L72.9 383.9l218.2 61.5 34-138.3z"/></g></svg>