<svg xmlns="http://www.w3.org/2000/svg" viewBox="0 0 620 414"><defs/><filter id="prefix__a"><feGaussianBlur stdDeviation="30"/></filter><rect width="100%" height="100%" fill="#3b3b26"/><g filter="url(#prefix__a)"><path fill="#dcc6b0" fill-opacity=".7" d="M-37.5 408.8l659.4 40.5 35.6-415.4L78.2-37.5z"/><path fill="#7f713e" fill-opacity=".9" d="M-37.5 287.7L128.4 86.5l17.4-124L20.1 18.6z"/><path fill="#765144" fill-opacity=".7" d="M307 248.2l23.6-74.3L487.8 291l-142 95z"/><path fill="#dce7ff" fill-opacity=".5" d="M476.9 231.5l118.4 217.8L657.5-17 537 116.3z"/><path fill="#956d56" d="M381.7-37.5l183.6 63.4 60.3-63.4-151.4 258.9z"/><path fill="#302116" fill-opacity=".9" d="M572.5 58.1l-40 24.2-17.4-73.6L593-37.5z"/><path fill="#c2c1b9" fill-opacity=".9" d="M387.3 185.3L268 183 150.4 37.5l261-69.7z"/><path fill="#b8a469" fill-opacity=".7" d="M270.5 186L84 101.7l-121.5 49 29.8 177z"/><path fill="#f7a0ca" fill-opacity=".8" d="M354.3 237.8l33.2 8.3 9.7 45.7-41-7.5z"/><path fill="#cebe9a" fill-opacity=".7" d="M255.5 449.3L15.3 405.9 262 162.3l64.5 117.2z"/><path fill="#001d0f" fill-opacity=".4" d="M315 203l65.5-30.8-68 139.7 83.2 27.9z"/><path fill="#e0b2ad" fill-opacity=".5" d="M359.4 176.3L511.3-1.9l-72.5-35.6-20.3 298.8z"/><path fill="#99654c" fill-opacity=".9" d="M321.6 381.7l-9.9-35.6 60 66.6L221 449.3z"/><path fill="#a98162" d="M417.5 195.4l80 116.8-87.2 38.7 53.2-231.7z"/><path fill="#60562c" fill-opacity=".8" d="M-37.5-23.5L124-37.3l7.3 117.7-168.8 64.4z"/></g></svg>