<svg xmlns="http://www.w3.org/2000/svg" viewBox="0 0 620 414"><defs/><filter id="a"><feGaussianBlur stdDeviation="30"/></filter><rect width="100%" height="100%" fill="#4b3328"/><g filter="url(#a)"><path fill="#c3bdb9" fill-opacity=".9" d="M657.5 377.8L632 449.3l-399.4-20.6 7.5-281.4z"/><path fill="#8b6f57" fill-opacity=".6" d="M211.4-37.5l-189.1 8-59.8 201.2 550 146.8z"/><path fill="#000e1c" fill-opacity=".6" d="M188.4 85.3l-152.6 364 233.3-67.6-170.8-258z"/><path fill="#c4b7b3" fill-opacity=".8" d="M363.5 202l79.2 247.3H290l-94-213.4z"/><path fill="#322f1c" fill-opacity=".9" d="M629.4 284l-183.3-42.8-64.7-14.8 15 73.7z"/><path fill="#c0c2c9" fill-opacity=".8" d="M657.5 407.4l-361 41.9 174.8-155.5 82.3 10.1z"/><path fill="#fddbd0" fill-opacity=".5" d="M179.5 240.7l32.9-110.9-9-5.6-56.4 70z"/><path fill="#ffdb93" fill-opacity=".2" d="M497.5 145l73 148.5L548.9 12 460-37.4z"/><path fill="#000409" fill-opacity=".5" d="M269 189l-28-7.6-36.8 7.5 10.1 74.4z"/><path fill="#e4bca6" fill-opacity=".6" d="M247.5 119l50 38-.3 108.2-54-113.8z"/><path fill="#bc9673" fill-opacity=".5" d="M185.8 62l-54-90.6-54.5 108 37.3 34.7z"/><path fill="#624636" fill-opacity=".9" d="M-25.7 48l111 107.7L86.9 443-36.3 277.5z"/><path fill="#1b1f26" fill-opacity=".9" d="M81.4 290.4l-10.7-45.8 79.7-83.3-40.2 191z"/><path fill="#674732" fill-opacity=".7" d="M259.4 91.3l295.2 13.8-219.7 92-13.3 43.6z"/><path fill="#231b18" d="M492.6 280.7l53.5 21.8 111.4 89.8-7-112.8z"/></g></svg>