<svg xmlns="http://www.w3.org/2000/svg" viewBox="0 0 620 414"><defs/><filter id="a"><feGaussianBlur stdDeviation="30"/></filter><rect width="100%" height="100%" fill="#552e2c"/><g filter="url(#a)"><path fill="#8b7f78" fill-opacity=".9" d="M657.5 444l-491.1-76.4-204-334 328 172z"/><path fill="#7b545f" d="M552.2-37.5L195.7 105 29.5 422.4l-39-434.8z"/><path fill="#d6dccf" fill-opacity=".6" d="M73.9 239.5l-18-202.7-30.5 17.7 33.7 364z"/><path fill="#ada6a0" fill-opacity=".7" d="M657.5 371.8l-299.8-14.6L313 145.6l-34.6 303.7z"/><path fill="#ecf2ff" fill-opacity=".5" d="M138.5 325.3l-12-87.7 43.5-36.8 59.8 144.8z"/><path fill="#00121b" fill-opacity=".6" d="M149.2 337.9L83.8 165.4 66.4 449.3l224-76.6z"/><path fill="#dcf2ec" fill-opacity=".5" d="M422.1 55l24.7 246.5-1.2-204.1-20.6-135z"/><path fill="#051315" fill-opacity=".7" d="M545.4 256.5L473.7 216 469 25.7l58.6-63.2z"/><path fill="#8cdffe" fill-opacity=".3" d="M533.5 40.4l-6.3-78 130.3 54.8L606.2 93z"/><path fill="#473b38" d="M153.3 215.8L85.5 269l-18-79 133-147z"/><path fill="#b7386e" fill-opacity=".8" d="M234 74.8L297.9 93-37.5 8.7l565.2-46.2z"/><path fill="#534e4a" fill-opacity=".7" d="M433.5 56.4l-246-2.6 18.1 273 92.4-200z"/><path fill="#afaca9" fill-opacity=".7" d="M539.6 362.6l1 86.7 117-43.4-57-44.6z"/><path fill="#c6fde3" fill-opacity=".4" d="M534.5 311.5l123-6.6-101.4-30-6.3-120.1z"/><path fill="#313223" fill-opacity=".4" d="M381.4 346.3L368 370.1l198.3-35.6-295-308.1z"/></g></svg>