<svg xmlns="http://www.w3.org/2000/svg" viewBox="0 0 620 414"><defs/><filter id="a"><feGaussianBlur stdDeviation="30"/></filter><rect width="100%" height="100%" fill="#453826"/><g filter="url(#a)"><path fill="#f5f6ea" fill-opacity=".6" d="M620.5 421.9l3.1-459.4L-17.9 12l532.5 437.2z"/><path fill="#877152" fill-opacity=".9" d="M222 421.2l-236.5 28-23-486.7L442 280.7z"/><path fill="#d4d9e3" fill-opacity=".7" d="M409 105.8L525.6-37.5l27.2 436.1-94.5 50.7z"/><path fill="#181328" fill-opacity=".5" d="M449.3 328.4l-61.8 111.9-179.7-142.7 215.3-40.9z"/><path fill="#b7d2b0" fill-opacity=".5" d="M270 335.2l27.2 113.3-314 .8-20.7-122.1z"/><path fill="#6f4928" d="M114.3 260.8l231 83.8-358-281.9L93 339.5z"/><path fill="#8b706c" d="M343 187.7l39.2 1.2 24 145.6-29.4 10.6z"/><path fill="#ffdaa6" fill-opacity=".3" d="M311.2 322.6l57-185-295 5.5L257 237.3z"/><path fill="#878f76" d="M10 140.5l-40.5-16.7 28 314 75.4-62z"/><path fill="#06142b" fill-opacity=".8" d="M321.6 362.8l-4.3-84 44-27.7-.4 76.3z"/><path fill="#7c3c00" fill-opacity=".2" d="M82.1 198.8l-95.9-75L-35.1-2.4l259.6-7.8z"/><path fill="#995625" fill-opacity=".8" d="M-37.5 92.8l328.9 165.6L358 449.3l-43.9-95z"/><path fill="#eef0f0" fill-opacity=".6" d="M479.5 275.6L479-7.8l-62.2 192.1-4.8 74.4z"/><path fill="#061531" fill-opacity=".8" d="M444.4 449.3L338 369l112.8-37-44-78.5z"/><path fill="#303423" fill-opacity=".6" d="M116 258l-13.6 72-87.1-190.7 313.6 227.4z"/></g></svg>