<svg xmlns="http://www.w3.org/2000/svg" viewBox="0 0 620 929"><defs/><filter id="a"><feGaussianBlur stdDeviation="30"/></filter><rect width="100%" height="100%" fill="#4e3829"/><g filter="url(#a)"><path fill="#aeb3b4" fill-opacity=".7" d="M224.6 634.3l414 325.2 3.4-298L222 336z"/><path fill="#cdcfd5" fill-opacity=".9" d="M563.6 718.5L495.7 827l-48.3-485.2 43.2-106.3z"/><path fill="#0f0707" fill-opacity=".9" d="M363.3 365.4L320.8 507l141.9 91.8-30.5-250.4z"/><path fill="#3c3e43" fill-opacity=".9" d="M-56.2 887.6l517.8-237.3-4.7 91.8 174.5 243.1z"/><path fill="#edeeee" d="M651.8 711.6l-152.5 72.6-25-44.3 100.9-113.2z"/><path fill="#140e05" fill-opacity=".9" d="M-16 9l-40.2 822.7L161.5 772 267.8-56.2z"/><path fill="#f6d7c7" fill-opacity=".4" d="M357.8 215.2L225 249.7l50.8 66 96.9 17.4z"/><path fill="#c8c6c9" fill-opacity=".9" d="M529.5 332.8L475.7 422l30.9-178 28.7 15.2z"/><path fill="#fdffff" fill-opacity=".8" d="M676.8 985.2V704.7L576.6 829.2 570.8 952z"/><path fill="#d8dbd0" fill-opacity=".4" d="M184 431.1l119.4-38.8L337 640.9 267.8 754z"/><path fill="#1a1414" fill-opacity=".7" d="M676.8 177V-24L263-40l-80.2 278.8z"/><path fill="#04040a" fill-opacity=".6" d="M676.8 661.5l-123.4-39.1L519.3 463l43.2-365z"/><path fill="#25262a" fill-opacity=".5" d="M34.5 985.2l494.2-311.7-32.6-27.6-552.3 184.4z"/><path fill="#968f84" d="M228.6 589.3l-54.8 108.2 5.1 25.4 132.8-198.5z"/><path fill="#606264" fill-opacity=".6" d="M573.4 985.2L344.4 843l324.4-117-90 81.3z"/></g></svg>