<svg xmlns="http://www.w3.org/2000/svg" viewBox="0 0 620 414"><defs/><filter id="a"><feGaussianBlur stdDeviation="30"/></filter><rect width="100%" height="100%" fill="#524634"/><g filter="url(#a)"><path fill="#adb6b5" fill-opacity=".9" d="M315.6 320.2L601 295.5 657.5 3.6 438.1-9.7z"/><path fill="#0b1434" fill-opacity=".9" d="M184.3 132.5l80-166.4 98.5-3.6-136.6 349.7z"/><path fill="#644f31" fill-opacity=".6" d="M512-37.5l7.5 85.7-61 120.4L619.8-6.3z"/><path fill="#7b848c" fill-opacity=".8" d="M334.2 331l166-28.7 110.6 54 26.4-152.6z"/><path fill="#eafeff" fill-opacity=".4" d="M484.4-35.8l-25 283.3-103.1 83L373 135z"/><path fill="#655a54" fill-opacity=".8" d="M88.9 255.8L339 293l-20.4 156.3-356.2-49.4z"/><path fill="#040912" fill-opacity=".5" d="M59 210.7l47.6-214 95.6 114-16-100.3z"/><path fill="#464753" fill-opacity=".7" d="M404.2 79.4L223.8 449l117-486.5L456-2.7z"/><path fill="#cecffd" fill-opacity=".4" d="M246.3 92.5l-58.1-130 39.7 50.3-4.6 83.6z"/><path fill="#bbc7d3" fill-opacity=".7" d="M582.5 349L605 20l-43 42.5-.5 247z"/><path fill="#fad9e0" fill-opacity=".6" d="M82.3 60l2 21.1-26-19.3 2.5-32.5z"/><path fill="#131c35" fill-opacity=".9" d="M198.1 203l42.4 124.7 20.8-166.4 91.6 93z"/><path fill="#5e5854" d="M244.1 260.8l99 35.6-72.6-64.9-36.3-58.8z"/><path fill="#3b332f" fill-opacity=".9" d="M395.5 333l80.4 98.6 94.2-65.4-97.6-75.8z"/><path fill="#070e00" fill-opacity=".4" d="M-13 23.7l57.3-39 64 301-132-323.2z"/></g></svg>