<svg xmlns="http://www.w3.org/2000/svg" viewBox="0 0 620 929"><defs/><filter id="a"><feGaussianBlur stdDeviation="30"/></filter><rect width="100%" height="100%" fill="#45342a"/><g filter="url(#a)"><path fill="#d9dcdc" fill-opacity=".8" d="M643.4 950.8l-262.4-49 98-389 185.8 14.5z"/><path fill="#b3844c" fill-opacity=".9" d="M318.6 868.8l-87-269.7-287.8 329.5 733 20.4z"/><path fill="#b39482" fill-opacity=".8" d="M385.8 429.7l174.9 126.2-20-165-101.6-158z"/><path fill="#eddbcd" fill-opacity=".5" d="M227.2 229l-93.7-14.2L119.8 61l144.4 66.7z"/><path fill="#060001" fill-opacity=".7" d="M162.6 516.8L25.4-56.2l-81.6 824.4 276.5-74.4z"/><path fill="#9fb692" fill-opacity=".4" d="M583.2 268.5l-106-3.6.4-283 141.1 66z"/><path fill="#021f57" fill-opacity=".5" d="M381 332.4L97.6 156l14.5 249.7L416.6 916z"/><path fill="#f3e0f4" fill-opacity=".4" d="M235.9 659l9-172-98.3-30.1L208 654.3z"/><path fill="#000806" fill-opacity=".4" d="M205.8-56.2l100.5 456.5 51.5 70.4L504.1 17z"/><path fill="#150a0a" d="M-56.2 767.5l185-558.5-12.3-265.2H-56.2z"/><path fill="#ffd5bb" fill-opacity=".4" d="M197.4 105.6l-9.8 90 109.6 186.5-13.4-85.3z"/><path fill="#c3904f" fill-opacity=".7" d="M323.7 829.6L289.9 979-56.2 841 61.3 735.7z"/><path fill="#0f1209" fill-opacity=".5" d="M633.2 306.6l-5.4 277-153.9-380.4 2.2 163z"/><path fill="#0d090b" fill-opacity=".5" d="M261 541.4L333.4 900l48.7-109 105.3-276.5z"/><path fill="#e2f1e6" fill-opacity=".3" d="M525.5 182.2l108.8 69.6L565 266l17.4-163.3z"/></g></svg>