<svg xmlns="http://www.w3.org/2000/svg" viewBox="0 0 620 414"><defs/><filter id="prefix__a"><feGaussianBlur stdDeviation="30"/></filter><rect width="100%" height="100%" fill="#3c4444"/><g filter="url(#prefix__a)"><path fill="#eeeaea" fill-opacity=".7" d="M148.7 162.3l-38.3-86.7 77.8 7.2-32.5 149z"/><path fill="#010000" fill-opacity=".7" d="M-35.6 384.1L396.7-37.5l200 47 59.1 420.9z"/><path fill-opacity=".8" d="M-21.3-37.5H125l-4.1 450-125 15z"/><path fill="#f9f8f8" fill-opacity=".9" d="M657.5 275.1L616.1 84.3 582.5-37.5h37.7z"/><path fill="#d5d1d1" fill-opacity=".6" d="M208.3 94.5l-20.8 27 11.3 99.1 14.3 2.5z"/><path fill="#f6f5f5" fill-opacity=".5" d="M514.2-37.5l13 207.3-12 219.4-3.5-92.5z"/><path fill="#070606" fill-opacity=".8" d="M17.4-1.7l469-20.1 24.4 105.6-289.2 21.8z"/><path fill="#dbd8d8" fill-opacity=".5" d="M147.3 387.5l25.4-54.3 17 116-67.2-66.8z"/><path fill="#f8f8f8" fill-opacity=".6" d="M302.7 98.6l.5 11.8 59.4-2.6 20.3-7.3z"/><path fill="#dbdbdb" fill-opacity=".8" d="M157 91l8-2.6 8 117.7-21 13.3z"/><path fill="#8a8888" fill-opacity=".4" d="M398.4 300.8l63-104.1-67.1-3-7.8 17.7z"/><path fill="#cbcaca" fill-opacity=".6" d="M178.7 105.6l-53 52.8 1.4-82.1-27 32.4z"/><path fill="#070606" fill-opacity=".8" d="M136.8 273.4l16.5-143.8-190.8 246.3 210-41.4z"/><path fill="#686767" fill-opacity=".6" d="M215 336.6l-84.2-58.3 51.6-1.5 22.5 172.5z"/><path fill="#fdf9f9" fill-opacity=".2" d="M211 212L200 43l-77.2 96.2 53.5-16.5z"/></g></svg>