<svg xmlns="http://www.w3.org/2000/svg" viewBox="0 0 620 414"><defs/><filter id="a"><feGaussianBlur stdDeviation="30"/></filter><rect width="100%" height="100%" fill="#5b463e"/><g filter="url(#a)"><path fill="#e6eceb" fill-opacity=".7" d="M-17.4 327.7l-20.1-334 695 9.7v263.5z"/><path fill="#71726d" d="M77 351.2l67.8 1L125.7-4.2 58.1-24.7z"/><path fill="#797672" d="M517.6 383.1l-64.2-219.4L403 283.4 100 391.9z"/><path fill="#fcfefd" fill-opacity=".7" d="M142.6 87.7l103.5 52L447 49 130 29.1z"/><path fill="#f6f9fb" fill-opacity=".8" d="M60 26.6L-4 26l7 260.4 67.3-21.8z"/><path fill="#431403" fill-opacity=".4" d="M342.2 204.6l-4.1-126.4 29.5 21.6 5.1 137.8z"/><path fill="#fcffff" fill-opacity=".5" d="M208.3 185.8l-71-16 7.8 279.5 13.5-120.4z"/><path fill="#eff0ef" fill-opacity=".7" d="M513.2 43.4L361.6 69.8 384 280.6l47.7-62.7z"/><path fill="#767272" fill-opacity=".4" d="M626.8-37.5l-6 132.2-144.4 77 27.8-72.4z"/><path fill="#e7f3ef" fill-opacity=".3" d="M221.4 175.1L245 407.6l-65.9-71 258.2-56.1z"/><path fill="#faf7f6" fill-opacity=".6" d="M471.3 276.6l-.2-55.7 59.3-88 50.9 127z"/><path fill="#5d2109" fill-opacity=".4" d="M179.7 103L147 146.7l74.4 73.3-3.4 83z"/><path fill="#00030a" fill-opacity=".6" d="M83.8 396.2l-117-79.9-4.3 133L383 410.7z"/><path fill="#453e38" d="M373.7 449.3l2.2-147.5L540 273.4l-192.3 46z"/><path fill="#001619" fill-opacity=".4" d="M554.6 449.3l103-48.2-16.8-68-333 93.6z"/></g></svg>