<svg xmlns="http://www.w3.org/2000/svg" viewBox="0 0 620 414"><defs/><filter id="prefix__a"><feGaussianBlur stdDeviation="30"/></filter><rect width="100%" height="100%" fill="#493e36"/><g filter="url(#prefix__a)"><path fill="#d5d2cc" fill-opacity=".8" d="M-37.5-23.5L-.7 140l614.6 309.3L657.5 2.4z"/><path fill="#775c4f" d="M371 368.4L342 27.9l-215 83.3-83 140.4z"/><path fill="#d1d3cf" fill-opacity=".9" d="M627 449.3l30.5-478.6-313.4-8.2 103 469.6z"/><path fill="#ecf6f0" fill-opacity=".7" d="M291.1-37.5l4.9 328.4-46.3-183.1-287.2-87z"/><path fill="#311b14" fill-opacity=".9" d="M339.5-13.8L293-37.5 313.4 244l46 121.8z"/><path fill="#3b0000" fill-opacity=".6" d="M197.1 86.7l20.4 362.6-215-34.7L147.6 97z"/><path fill="#653212" fill-opacity=".5" d="M470 264l23-104.4-11.8-53.8-33.6-13z"/><path fill="#fdfffd" fill-opacity=".7" d="M146-37.5L63.2 154.8l-92-112-8.7-80.3z"/><path fill="#e0aa8b" fill-opacity=".4" d="M262.3 115l-89.4 46 11 134.7 119.3-13.3z"/><path fill="#fff5de" fill-opacity=".5" d="M119 277.3l-77.6-22 26.7-31.5 23.2-11.4z"/><path fill="#b20000" fill-opacity=".2" d="M119 449.3l33.3-156 352.9-16.7-84.8 172.7z"/><path fill="#240001" fill-opacity=".9" d="M-37.5 409.3L8 142.6l40.2 111.7 157 191.8z"/><path fill="#0e0a04" fill-opacity=".7" d="M240 116.7l-40.4-27-68.8 34-8.5 84.3z"/><path fill="#f1fbfe" fill-opacity=".5" d="M444.4-25.4l-38 84.3L593 177.5l64.4-169z"/><path fill="#5a0000" fill-opacity=".6" d="M417 412.4l-312.4 18 55.2-160.8 126 79.4z"/></g></svg>