<svg xmlns="http://www.w3.org/2000/svg" viewBox="0 0 620 414"><defs/><filter id="a"><feGaussianBlur stdDeviation="30"/></filter><rect width="100%" height="100%" fill="#424242"/><g filter="url(#a)"><path fill="#bdbdbd" fill-opacity=".4" d="M440.3-7.3L451.4 425l-182-143.6L210.1-1.7z"/><path fill="#a6a6a6" d="M548.6 54.7l28 169.8-74-61.5-173.2-47.2z"/><path fill-opacity=".5" d="M498.2 184.8l20.6 115.5-122.3-82.6-434-246.3z"/><path fill="#f9f9f9" fill-opacity=".4" d="M648.6 413.2l-78.2-103-68.8-172.4L562 415.6z"/><path fill="#0d0d0d" d="M-37.5 352.4l64.9 96.9 96.1-415.9-159.1-71z"/><path fill="#fefefe" fill-opacity=".4" d="M301.5 141.4L474 449.3l34.6-150.4-285.3-105.6z"/><path fill="#080808" fill-opacity=".9" d="M540.8-37.5l116.7 141.9L587.3 334l-21.5-206.4z"/><path fill="#fefefe" fill-opacity=".4" d="M298.4 58.9l19.3-73.4 252.2.2L347.8 76z"/><path fill="#101010" fill-opacity=".8" d="M310.2 334l7.8 115.3-185.3-10.7 74.9-179z"/><path fill="#212121" fill-opacity=".6" d="M-37.5 34l379.7 46.6L657.5-32.9 183.3 194.2z"/><path fill="#828282" d="M360.9 107l9.6 312-32.6 30.3-13.4-180.7z"/><path fill="#f8f8f8" fill-opacity=".3" d="M245.6-11.4L101.5 1.2l103 54L267.8 18z"/><path fill="#c3c3c3" fill-opacity=".8" d="M327 245.6l63.6-38.8 52.1 170.8-47.7-89.4z"/><path fill="#010101" fill-opacity=".7" d="M578.1 313.1L636 258l-95.4-50-12.1 9.7z"/><path fill="#0c0c0c" fill-opacity=".6" d="M163 298.1l249.7 117.5L90.8 236.9l39.7 166.6z"/></g></svg>