<svg xmlns="http://www.w3.org/2000/svg" viewBox="0 0 620 414"><defs/><filter id="a"><feGaussianBlur stdDeviation="30"/></filter><rect width="100%" height="100%" fill="#5f402e"/><g filter="url(#a)"><path fill="#f4f5f8" fill-opacity=".7" d="M492.4 449.3L383 263l158.2-17.4L603 449.3z"/><path fill="#f2dfc1" fill-opacity=".6" d="M282.9 13.8l-154 122.6 117.4 304.9 124-213.9z"/><path fill="#887359" fill-opacity=".9" d="M398.9-37.5L657.5 8.2 448.3 344l37-300.8z"/><path fill="#80664e" fill-opacity=".9" d="M81.1 141.4l-5.8 259.2 164.2 15.2 6.8-118.4z"/><path fill="#dacaba" fill-opacity=".7" d="M333.7 281L239 448.2l33.2-189.4-17.7-296.4z"/><path fill="#f4ffff" fill-opacity=".5" d="M567 227.7l90.5-2.5-194.2 60.6 80.9 163.5z"/><path fill="#303120" fill-opacity=".3" d="M520.2 95L388.5 412.3l-50.2 3.4-24-305.1z"/><path fill="#4f5d8c" fill-opacity=".5" d="M608.6 449.3l-91-221.2 71.4-6.5 68.5-259.1z"/><path fill="#e2bfb0" fill-opacity=".4" d="M366.7 304l-86 89.6-73.1 6.7 93.2 49z"/><path fill="#8d7253" fill-opacity=".6" d="M310.2 18.4l-76.7-29.8-118.2 98.6.5 109.5z"/><path fill="#010f12" fill-opacity=".7" d="M307.3 448l99.6 1.3-18.2-157.5-35.3 34.4z"/><path fill="#b29788" fill-opacity=".3" d="M262.3 162l321.9 63.5L450 267.6l50 181.7z"/><path fill="#c5d2c1" fill-opacity=".3" d="M625 366.7L657.6 54 413.7-37.5 602.3 85.7z"/><path fill="#f7feff" fill-opacity=".5" d="M464 440.3l141.2-8.7-78.4-167.4-9.2-84.7z"/><path fill="#392c2a" d="M587 118l-38 11.8 24.5 99 50.6-29.7z"/></g></svg>