<svg xmlns="http://www.w3.org/2000/svg" viewBox="0 0 620 414"><defs/><filter id="prefix__a"><feGaussianBlur stdDeviation="30"/></filter><rect width="100%" height="100%" fill="#50382c"/><g filter="url(#prefix__a)"><path fill="#aca194" d="M-37.5 429.4l695-22L239.8 151 101-37.5z"/><path fill="#d1c7ab" d="M9.2 444.2L64.9 116l67.3-153.5 99.3 43.3z"/><path fill="#836b5e" d="M524.6 233.2L111.2 95l144.3 153.6L236 395.7z"/><path fill="#deddd3" fill-opacity=".6" d="M360.6 288L413 449.3l103.4-158.7-48-86.2z"/><path fill="#010603" fill-opacity=".6" d="M284.8-37.5l372.7 187.4-56.4-187.4-440.3 254z"/><path fill="#d1d9ea" fill-opacity=".7" d="M88.2 280.5l117-80 45.7 55-125.2 193.8z"/><path fill="#040703" fill-opacity=".6" d="M346.8-37.5L411 220.4l236.9-258-173.7 82.9z"/><path fill="#6d534b" d="M267.9 135.6l-26.2 293.6 127.4-286.8L342 92.5z"/><path fill="#c69226" fill-opacity=".5" d="M135.1 101l-26.6 178 93-119.9L218 45.5z"/><path fill="#817a6d" fill-opacity=".8" d="M642.5 376.6l14.6 31.7-130.1 41-70.7-153.1z"/><path fill="#c7faee" fill-opacity=".2" d="M158.4 165L.2 119l-16-139 270.1-17.6z"/><path fill="#8a746c" d="M328.4 449.3l30.8-16.5 23.7-97.9-113.6-92z"/><path fill="#b89078" fill-opacity=".7" d="M340.8 204.9L330 102.7l25.2 12.3 26.9 69.5z"/><path fill="#c8d2ed" fill-opacity=".6" d="M74.4 390.6l139.7 12 114.5-19-46.5 65.7z"/><path fill="#edfbff" fill-opacity=".4" d="M407.8 449.3l-48-71 81.5-37.3 66 33.2z"/></g></svg>