<svg xmlns="http://www.w3.org/2000/svg" viewBox="0 0 620 414"><defs/><filter id="prefix__a"><feGaussianBlur stdDeviation="30"/></filter><rect width="100%" height="100%" fill="#6c3a3a"/><g filter="url(#prefix__a)"><path fill="#b6c1c4" fill-opacity=".7" d="M386.3 449.3L651.7-37.5 331.8-13.1l-63 411.5z"/><path fill="#7a686b" fill-opacity=".9" d="M543.5 100L139 336-16 74.3l542.5 28.8z"/><path fill="#252e1e" d="M415.8 280.2L461.6 407l168.8 42.4-9.7-192.3z"/><path fill="#c0c2cb" fill-opacity=".9" d="M258.7 317.3l51.5 132h168.1l-84.7-203.7z"/><path fill="#001526" fill-opacity=".8" d="M-28.3 440.3l-9.2-306.9L70.2 218 42.4 443.2z"/><path fill="#f0f4f2" fill-opacity=".9" d="M342.2-37.5L452 27.9l123.5 21.3 82.1-41.7z"/><path fill="#16121c" fill-opacity=".8" d="M424.8 316.5L445.6 143l4.6 131.7L543 449.3z"/><path fill="#182628" fill-opacity=".6" d="M328.2 449.3L152.6 251.6 187 400.8-37.5 398z"/><path fill="#dfd5d5" fill-opacity=".5" d="M426.7 157.7l-36.3 29-96.9-25L381 319.3z"/><path fill="#3e464f" fill-opacity=".9" d="M231 106l117 37.4-56.2-181-96.1 3.2z"/><path fill="#c2c7c6" fill-opacity=".9" d="M403.7 76.5L400.8-28l-75.5 7.5 5.3 132z"/><path fill="#926a5e" fill-opacity=".5" d="M177.3 155.7L26.2 379.3l291.3-98.6 63.2-49z"/><path fill="#afbdec" fill-opacity=".5" d="M43.6 161.8l77.5 116-13.8-111.4 28.3-10.4z"/><path fill="#daffff" fill-opacity=".3" d="M516.1 238.3l-26.9-2.9 98.1-7.5-167.6-127.2z"/><path fill="#514c55" d="M-37.5 239.5L-32-22.3l244.6 55.7-122.3 15z"/></g></svg>