<svg xmlns="http://www.w3.org/2000/svg" viewBox="0 0 620 414"><defs/><filter id="a"><feGaussianBlur stdDeviation="30"/></filter><rect width="100%" height="100%" fill="#704e41"/><g filter="url(#a)"><path fill="#f4d7a3" fill-opacity=".8" d="M336.2-29.8l312.4-7.7 9 159.8L329 107.8z"/><path fill="#d1e0e5" fill-opacity=".8" d="M236.6 297.4l4.6-166.9-112.1 13.6 1.2 141.2z"/><path fill="#c5f1ff" fill-opacity=".3" d="M415.1 45l-131.5-8.7L326.5 419l144.3 30.3z"/><path fill="#d7e1ed" fill-opacity=".6" d="M90 162.5l-9 183.1-118.4-60.8L19 189z"/><path fill="#030106" fill-opacity=".7" d="M316.5 449.3L253.1 50.9l-21.3 305.8-268.4 81.9z"/><path fill="#767478" fill-opacity=".9" d="M-37.5 97.6V17.2l302.7-54.7 80 147.7z"/><path fill="#1f0007" fill-opacity=".8" d="M100.3 100.8L87.4 240.2l2.5 189 38.7-293.3z"/><path fill="#cf8e5a" fill-opacity=".8" d="M539.6 145.3L657.6 42 496.1 88.6l15 312.5z"/><path fill="#19191a" fill-opacity=".8" d="M372.5 113.1l25.7.7-4.6 158.7-9.2-26.7z"/><path fill="#b5af9d" d="M376.1 152l-91.3 44-11.9 21.2L379 243.4z"/><path fill="#00171d" fill-opacity=".4" d="M609.8 316.5l47.7-159.8-85.7-49.2-41.9 64z"/><path fill="#def6f2" fill-opacity=".5" d="M565 37.3l-80.9-17-63 88L542.8 90z"/><path fill="#916b5a" fill-opacity=".8" d="M546.6 231.3l-151.8 77.5 44.5 140.5 140.5-134z"/><path fill="#bbc8d2" fill-opacity=".8" d="M127.1 323.3l32.7-14.8-16-20.8-13.5-80.4z"/><path fill="#0e0d00" fill-opacity=".4" d="M-37.5 445.9l162.2-85.5 138.6-31.8-169.8-12.8z"/></g></svg>