<svg xmlns="http://www.w3.org/2000/svg" viewBox="0 0 620 414"><defs/><filter id="prefix__a"><feGaussianBlur stdDeviation="30"/></filter><rect width="100%" height="100%" fill="#42302a"/><g filter="url(#prefix__a)"><path fill="#e1e5e0" fill-opacity=".6" d="M123 109.2L177.3 419l480.2 15.2L617-37.5z"/><path fill="#000306" fill-opacity=".7" d="M197.9-37.5L375.4 78l-51.6 123.7-91.3-81z"/><path fill="#120f0c" fill-opacity=".7" d="M495 310l3-142.4 81.6-53 17.1 140z"/><path fill="#f5f6ff" fill-opacity=".3" d="M529 449.3L192.4 43l-76.7-13.3L17 218.9z"/><path fill="#eaaf8b" fill-opacity=".7" d="M10.7 265.2l105-10-79.9 192.6-45.7-18z"/><path fill="#cbcfd4" d="M400.3 424.8l-47 24.5L388 94.5l55.7 39.4z"/><path fill="#ffffea" fill-opacity=".5" d="M516.3 54.3l-9.9 116L657.5-23l-466-14.5z"/><path fill="#5e4226" fill-opacity=".8" d="M436.2 217.2l15.5-137L471 238.6l-60.6 104.6z"/><path fill="#fff8f8" fill-opacity=".5" d="M485.3 228.6l15.5 220.7-377.3-51.1 288.2-12.4z"/><path fill="#1f1c1d" d="M51.1 449.3l5.3-78.8L162 274.6l9.7 80.4z"/><path fill="#84766e" fill-opacity=".6" d="M325.3 198.6L463.5 61.3l8.5-98.8-162.2 12.3z"/><path fill="#caa28b" fill-opacity=".6" d="M25.2 165l198.6-90.6-17-35.6-76.5 3.3z"/><path fill="#001949" fill-opacity=".4" d="M156.7 84.8l3.4 299-73.4-162.2 2-88.6z"/><path fill="#0e0802" fill-opacity=".4" d="M657.5 302.5L585.1 282l-145-157.4 217.4 113.1z"/><path fill="#150a01" fill-opacity=".5" d="M-8.7 249.2l110-243.6L-17.5-11 88.9 280.9z"/></g></svg>