<svg xmlns="http://www.w3.org/2000/svg" viewBox="0 0 620 414"><defs/><filter id="prefix__a"><feGaussianBlur stdDeviation="30"/></filter><rect width="100%" height="100%" fill="#6b4735"/><g filter="url(#prefix__a)"><path fill="#cbd8da" fill-opacity=".7" d="M6.8-25l650.7-12.5-3.1 381-692 62.2z"/><path fill="#635546" d="M293.8 432.3l11.6-110.7L216 260 80 449.3z"/><path fill="#9e8a7d" d="M534.5 449.3H258l80.4-91.1 151-79.4z"/><path fill="#542d1d" fill-opacity=".7" d="M397 211.7l27.8-39.5-37.5-59.3-62.8 31.2z"/><path fill="#643410" fill-opacity=".7" d="M109.7 40.4l5.1 68.6-73.1-8 30.2-70.5z"/><path fill="#edf2f6" fill-opacity=".7" d="M468.4 295.5l-10.2-84.8-175 37 73.8 72.5z"/><path fill="#d3dfe4" fill-opacity=".5" d="M251.4-17.7l20.8 166L611.8 53l45.7-52z"/><path fill="#eaf6fc" fill-opacity=".5" d="M129.6 108l-58-145.5 132.6 12-16.5 192.1z"/><path fill="#766e60" fill-opacity=".5" d="M198.8 266.9L34.6 449.3l253.1-181-79.2-288z"/><path fill="#dbdcd8" fill-opacity=".6" d="M30.3 446.1l-6-465.7 59 405-24.7 63.9z"/><path fill="#501a00" fill-opacity=".3" d="M90 363.3l-16.4-20.1 39.7-332.5-12 344.1z"/><path fill="#452310" fill-opacity=".5" d="M352.4 449.3l62-99.3 81.8 6.5-1-58.6z"/><path fill="#ebf8ff" fill-opacity=".4" d="M202.5 212.4l-73.7-63.5-28.3 47 39.7 163.5z"/><path fill="#cdbcbb" fill-opacity=".7" d="M369.8 315.6l-83.5 29 59 75.4 65.7-63z"/><path fill="#d6dbdc" d="M80.9 29.8L27.4 56.9 36-37.5l133.2 113z"/></g></svg>