<svg xmlns="http://www.w3.org/2000/svg" viewBox="0 0 620 414"><defs/><filter id="prefix__a"><feGaussianBlur stdDeviation="30"/></filter><rect width="100%" height="100%" fill="#684c32"/><g filter="url(#prefix__a)"><path fill="#c6cfd5" fill-opacity=".9" d="M186 147.7L-37.5 438 7.3-37.5 199-24z"/><path fill="#e5c6b7" fill-opacity=".6" d="M371.8 121.3l25.1-158.8-217 362.8 302.5-12.4z"/><path fill="#2b2c28" fill-opacity=".9" d="M177.3 345.8L223 166.6 91 227.4 77.3 415.8z"/><path fill="#b4c5ac" fill-opacity=".4" d="M631.1 372.2l-64.6-61-43.1-348.7 100.2 168.8z"/><path fill="#cccfd3" fill-opacity=".9" d="M331.6 336.4L63.2-37.6 105.8 209 249 158.1z"/><path fill="#010510" fill-opacity=".6" d="M228.9 148.2l66 16-2.1-201.7L178.5 81.4z"/><path fill="#97715d" fill-opacity=".8" d="M327-1.2l-58 251.4 128.4-73.9L446.1-5.8z"/><path fill="#f7e3cf" fill-opacity=".5" d="M196.2 261.6l-2.4 33.4 206 18 28.6-132z"/><path fill="#d2ceb9" fill-opacity=".8" d="M224-37.5l151.1 84 71.7-84-366 78z"/><path fill="#281c0f" d="M352.6 67.3l-78.4 1.5-36.4-83L356 33.1z"/><path fill="#0e0c19" fill-opacity=".7" d="M229.4 248.7l32 47.7-39.6-112.1-139.5 72.4z"/><path fill="#31371b" fill-opacity=".5" d="M657.5 398.2l-506.4-26.7 306.4-75L587 342z"/><path fill="#282329" fill-opacity=".8" d="M289.2 238.8l-15.3-19.4 99.8-25.6-2-36.6z"/><path fill="#a69f7f" fill-opacity=".7" d="M8.2 449.3L-37.5 361l121.8-76-25 76.5z"/><path fill="#b59b7d" fill-opacity=".6" d="M357 389l-158.6 45.5 428.1 8.2L497 396.5z"/></g></svg>