<svg xmlns="http://www.w3.org/2000/svg" viewBox="0 0 620 414"><defs/><filter id="prefix__a"><feGaussianBlur stdDeviation="30"/></filter><rect width="100%" height="100%" fill="#473623"/><g filter="url(#prefix__a)"><path fill="#bdbaa8" fill-opacity=".6" d="M-37.5 440.3l3.1-448.5 692-22-391.4 479.5z"/><path fill="#3d3324" fill-opacity=".8" d="M307.3 380.7l43.9-177.5L657.5 76.8 268.1 94z"/><path fill="#fff1df" fill-opacity=".6" d="M124 449.3l65-194.8 100.9-76.3-53 271z"/><path fill="#debb8d" fill-opacity=".4" d="M499.1 323.6l-45.5 125.7-491.1-50.4 408-113.8z"/><path fill="#463824" d="M479.5 199.3L632.1 60.8l-278 49.2 69.5 113.8z"/><path fill="#2e3939" fill-opacity=".6" d="M45.8 322.8l-83.3 16.7L-19.1 56l56.9 36.9z"/><path fill="#c1cdcd" fill-opacity=".5" d="M134.9-37.5L-37.5.5 79.5 37l1.4 412.2z"/><path fill="#bcb7ae" fill-opacity=".6" d="M349.2 159.8l59.1 63.7 102.7 5.6L336.2 259z"/><path fill="#8c8e82" fill-opacity=".9" d="M578.6-32.5l-204 .5-8 127.2 291-32.2z"/><path fill="#806a49" fill-opacity=".8" d="M163 222.8l71 18.2L357.2 48l-80.4-24z"/><path fill="#f0f9fd" fill-opacity=".6" d="M277.3 306.9l-52.8-63-42.4 106.3 40.7 35.8z"/><path fill="#070000" fill-opacity=".5" d="M371.5 375.9l44.3-18.4-107.3-72.2L322.4 141z"/><path fill="#b49f7d" d="M215 258.4l-41.8 57.7-210.7 17.4L143 449.3z"/><path fill="#a09688" fill-opacity=".9" d="M479 239.8l-9-10.4-1.1 145.3L479 384z"/><path fill="#a69070" d="M301.3 449.3l116-87.5 8.5-142.1 10.4 211.6z"/></g></svg>