<svg xmlns="http://www.w3.org/2000/svg" viewBox="0 0 620 414"><defs/><filter id="prefix__a"><feGaussianBlur stdDeviation="30"/></filter><rect width="100%" height="100%" fill="#5f4234"/><g filter="url(#prefix__a)"><path fill="#e5eae7" fill-opacity=".6" d="M246.8 194L65.4 447 352 423 282.4-37.5z"/><path fill="#0e3322" fill-opacity=".7" d="M626.3 426.5l-201.7 8-51.9-472 284.8 159.3z"/><path fill="#9b9983" fill-opacity=".7" d="M361.6 449.3L240.5 262.8l19.4-300.3 97 2.4z"/><path fill="#160903" fill-opacity=".6" d="M-6.5-17.7l36 155L120.1 407 .2 449.3z"/><path fill="#70533b" d="M262.8 145.3L248-37.5 7 41.5l260.4 235z"/><path fill="#a6cec9" fill-opacity=".5" d="M598.2-6l-60.8 166.6 28.3 11.4 87.5-209.5z"/><path fill="#d0ced1" fill-opacity=".9" d="M300 299.8l-37.5 149.5h-169L153 297.6z"/><path fill="#32744a" fill-opacity=".5" d="M336.6 407.4l96.2 34.1-7.3-479-119.4 255z"/><path fill="#cdbfb9" fill-opacity=".7" d="M268.1 258.4l13.6 173.7 38.7-469.6-68.8.2z"/><path fill="#0f1e17" fill-opacity=".9" d="M504 136.8l27.4-75.3 121.3-99L436.2-4.4z"/><path fill="#2b292a" d="M52.6 449.3l98.8-226 41.9 59.3-35.2 16.7z"/><path fill="#070200" fill-opacity=".5" d="M630.2 142l-73.9-49.7 101.2 341.5L500 300.6z"/><path fill="#c8bbb4" d="M191.3 258.9l9.5-25.2 49.4 6.8-57.9 148.7z"/><path fill="#9bb7ac" fill-opacity=".7" d="M575.4 74.4l41.5-112 15.7 45.4-94.2 44.8z"/><path fill="#8ffabe" fill-opacity=".1" d="M500.6 441l26-278.7-76.4 204.6-163.7 12.6z"/></g></svg>