<svg xmlns="http://www.w3.org/2000/svg" viewBox="0 0 620 414"><defs/><filter id="prefix__a"><feGaussianBlur stdDeviation="30"/></filter><rect width="100%" height="100%" fill="#543b33"/><g filter="url(#prefix__a)"><path fill="#c9cacb" fill-opacity=".7" d="M-21.6 112.4l634.8-32-158.6 368.9-467.2-49.4z"/><path fill="#604433" fill-opacity=".7" d="M201.7 318.2l242 131-99-97.8-139-304.2z"/><path fill="#c0bebd" fill-opacity=".8" d="M365.5 87.4l-27-125-106 284.6 377-73.6z"/><path fill="#d8e6f1" fill-opacity=".7" d="M199 33.4l56-71H33.2l-70.7 58.4z"/><path fill="#f6f7f1" fill-opacity=".6" d="M85 395l118-139.3-7.8-150.6L79 112z"/><path fill="#676976" fill-opacity=".6" d="M657.5 17L611 295 485.3 425.5 361 307.8z"/><path fill="#634334" fill-opacity=".8" d="M75.6 15.7l6.3 433.6-37.1-27.4 4.4-145z"/><path fill="#e5e8e6" fill-opacity=".7" d="M-37.5 413.7l76-13.1 17-294.8-90.4 3z"/><path fill="#451905" fill-opacity=".4" d="M180.4 254.8l-218-3L242 235.3l-68.3 127.4z"/><path fill="#6b5b56" d="M-37.5 82.8l296-6.5 31.9 39-117.2-5.6z"/><path fill="#402a1f" fill-opacity=".7" d="M315.6 427.7l18.6-124.2-135.6-99 211.7 220.3z"/><path fill="#342218" fill-opacity=".4" d="M657.5 442.2L386 264.5 355.3 45l15.2 298.4z"/><path fill="#d0cdc6" fill-opacity=".9" d="M375.1 386.3l-2.1-65-36.1-358.8-43.6 221z"/><path fill="#cbdbf5" fill-opacity=".4" d="M530.9 202.5L457.7 5l-6.5 85.7-98 72.4z"/><path fill="#b9a9a5" fill-opacity=".6" d="M313.1 376.8l-64.6 72.5-182.1-84.6 228.8-71.2z"/></g></svg>