<svg xmlns="http://www.w3.org/2000/svg" viewBox="0 0 620 414"><defs/><filter id="a"><feGaussianBlur stdDeviation="30"/></filter><rect width="100%" height="100%" fill="#74423c"/><g filter="url(#a)"><path fill="#c1c4ba" fill-opacity=".5" d="M127.6-37.5L-37.5 16.7 87.7 449.3l569.8-48.7z"/><path fill="#93b4b2" fill-opacity=".7" d="M360.9 198.1L325.5-2.7l332-32-24 232.6z"/><path fill="#091000" fill-opacity=".6" d="M211.4 16.2L657.5 78v28.6l-426.7-.8z"/><path fill="#502a2a" fill-opacity=".5" d="M269.8 158.6l64.2 126-51.6 164.7H75.8z"/><path fill="#c6d4d1" fill-opacity=".6" d="M646.6 284l-45.5 165.3-301.8-30.8 264-156z"/><path fill="#041d03" fill-opacity=".7" d="M74.6 28.6L-37.5 140.7 63 140l40.2-50.4z"/><path fill="#fffffc" fill-opacity=".7" d="M522.6 40.2L305.4 7.7l280.5-45.2L657.5 21z"/><path fill="#cdc8c2" d="M222 193l-62.3-41-197.2-5 21.8 71.5z"/><path fill="#f3fff9" fill-opacity=".6" d="M21.3-37.5l122.6 69L227.4-22l-74.3 157.9z"/><path fill="#303235" d="M-37.5 205.9l49.1 240.7L74.4 350l3.1-69.3z"/><path fill="#c9ac9e" d="M301.8 240.7l-2.2-95.6 80-48 103.6 196.4z"/><path fill="#003153" fill-opacity=".5" d="M582.7 262l-124.2 29.1L442.2 127l215.3 107z"/><path fill="#f0eff7" fill-opacity=".5" d="M644 104.1L438.4 125l50.6 25.9 161 49.9z"/><path fill="#eaeceb" fill-opacity=".9" d="M-37.5 58.6l90-18.2 127.2-78L-37.5 4.7z"/><path fill="#f6c3d4" fill-opacity=".5" d="M273 218.7l-128.2 66.6-95.4 152.8L97 241.7z"/></g></svg>