<svg xmlns="http://www.w3.org/2000/svg" viewBox="0 0 620 414"><defs/><filter id="a"><feGaussianBlur stdDeviation="30"/></filter><rect width="100%" height="100%" fill="#305062"/><g filter="url(#a)"><path fill="#e2b595" fill-opacity=".5" d="M46 331.3l155 9.2 20.6-194.7L101.7-37.5z"/><path fill="#fff3e4" fill-opacity=".8" d="M280.5-8.5l43.3 104-66.8 1.4-42.2-94z"/><path fill="#5a361e" d="M138.3 432.5l519.2 16.8-39.7-486.8L247.3 179z"/><path fill="#cdd1d3" fill-opacity=".9" d="M-37.5 370.3l189.1 12.4-95 66.6-93.7-62.5z"/><path fill="#350b00" fill-opacity=".7" d="M134.7 157l-41.5-28.2L3-37.5l-8.7 406.1z"/><path fill="#7fcccc" fill-opacity=".5" d="M253.3 90.3L384.6 166 216.3 350l91.5-159z"/><path fill="#521a00" fill-opacity=".6" d="M300.6 196.7l-113.9 18.1-31.2-252.3 55.7 35.3z"/><path fill="#d67a3a" fill-opacity=".3" d="M407.4-37.5L247.5 112.4l119.9-2.2 217-119z"/><path fill="#381600" fill-opacity=".8" d="M85-37.5L53 324.3l188.2 51.6-278.7-.8z"/><path fill="#b9b7ac" fill-opacity=".9" d="M73.9 102l38.7-139.5 76.8 145-41.7 53.3z"/><path fill="#c5b1a0" fill-opacity=".5" d="M406.6 158.1l28.6-91 16.5 119.4 79-109z"/><path fill="#f0fffd" fill-opacity=".5" d="M69.8 214.6l49.4 97.8-1.7 7.8L51 307.8z"/><path fill="#fff4e6" fill-opacity=".4" d="M141 320l26.1-59 65.9-43.3-60.6 130.8z"/><path fill="#4e2c16" d="M444.7-37.5h54L433.5 87.2l-85.2 50.6z"/><path fill="#525358" d="M111.2 150.4L55 225.7l54.2 23.8 83.1-40z"/></g></svg>