<svg xmlns="http://www.w3.org/2000/svg" viewBox="0 0 620 414"><defs/><filter id="prefix__a"><feGaussianBlur stdDeviation="30"/></filter><rect width="100%" height="100%" fill="#413234"/><g filter="url(#prefix__a)"><path fill="#faeade" fill-opacity=".5" d="M617 148.5L254.6 449.3 65.4-37.5 631.4-3z"/><path fill="#070001" fill-opacity=".4" d="M199 135.1l-22.2-92.5L436.2 142 572 398z"/><path fill="#998e8c" d="M41.9 183.6l17 44L162.9-3-37.4 154.3z"/><path fill="#d4c9c8" fill-opacity=".6" d="M647.6-22.3L-16-37.5l462.8 163 102.5 101.7z"/><path fill="#ada4a0" fill-opacity=".9" d="M34.6 68.5l60.8 250.2 167.9-54.5-192.6 29.3z"/><path fill="#75615f" d="M399.9 75l36.8 20.4 7 196.7L468-37.5z"/><path fill="#b59c8c" fill-opacity=".5" d="M350.2 211.2l46 146.8-60 79.4-234.7-222.8z"/><path fill="#afa5a8" d="M408.6 224.5l4-21.3 195.5-40.4L488.7 236z"/><path fill="#02060c" fill-opacity=".5" d="M93.7 109.5l102.5-43.9-70.7 143.7 14.2 65.1z"/><path fill="#c4c5c1" fill-opacity=".7" d="M53 221.8l75.1 126.5 30 93.2.5-62.5z"/><path fill="#1a0b12" fill-opacity=".5" d="M242.4 221.6l26.7-95 82-49.8 28.9 35.8z"/><path fill="#14151c" fill-opacity=".8" d="M611 201.5L428.7 255l-30.8 78.5 6.3 115.8z"/><path fill="#221f21" d="M123.5 344l64.2-44.4 38 11.6-13.5 96.2z"/><path fill="#cfc0b0" fill-opacity=".7" d="M282.9 113.1l-24.7 6.3-15.8-157 197.9 33z"/><path fill="#1b0700" fill-opacity=".5" d="M174.4 78.2l54.2 21.3 21.1-28.3-6-51.3z"/></g></svg>