<svg xmlns="http://www.w3.org/2000/svg" viewBox="0 0 620 414"><defs/><filter id="a"><feGaussianBlur stdDeviation="30"/></filter><rect width="100%" height="100%" fill="#2e3c4a"/><g filter="url(#a)"><path fill="#fef5ec" fill-opacity=".6" d="M230 449.3l285.4-24.7-140.7-287.3-103 175.6z"/><path fill="#d6e9ef" fill-opacity=".7" d="M103 314.8l122.7-45.7 42.6-73-173.1-5z"/><path fill="#657d8f" fill-opacity=".7" d="M65.6-22.5l48 154.7 161-37 123-74.6z"/><path fill="#9eaaae" fill-opacity=".4" d="M543.5 214.8l-84 14-19-133.6L623.6-37.5z"/><path fill="#111208" fill-opacity=".7" d="M282.6 251.1l-8-159.8 51.4 9L343.2 261z"/><path fill="#070300" fill-opacity=".5" d="M285.3 377l-31.2-170.2L216 319l167.3 37z"/><path fill="#070b0a" fill-opacity=".6" d="M35.4-36.6l68.3 206.9L-1 352.9 21.3-37.5z"/><path fill="#94a29f" fill-opacity=".6" d="M214 330.3L91 295.7l14 64.3 96.6-255z"/><path fill="#152128" fill-opacity=".9" d="M451 64.7L-37.5-10.2l200 49.7 294.3 43z"/><path fill="#2b1708" fill-opacity=".5" d="M623 449.3l-4-312-54.2 3.7L489 367.6z"/><path fill="#9fc3e1" fill-opacity=".5" d="M91.8 8L361 46.7l14.3-24.2-326-60z"/><path fill="#8a9895" fill-opacity=".6" d="M315.3 294.7l1.2-69.2L101.2 161l162.8.2z"/><path fill="#cacdd1" fill-opacity=".8" d="M496.7 423.8l-86.4-20-49-101.3 25.5-154.3z"/><path fill="#829bb1" fill-opacity=".8" d="M59.3 204.6l-10.6-30.5L43 282.4l15-20.1z"/><path fill="#aebcc7" fill-opacity=".6" d="M492.4 8.7L536.7 203l14.5-1.5 3.4-79z"/></g></svg>