<svg xmlns="http://www.w3.org/2000/svg" viewBox="0 0 620 414"><defs/><filter id="prefix__a"><feGaussianBlur stdDeviation="30"/></filter><rect width="100%" height="100%" fill="#563c31"/><g filter="url(#prefix__a)"><path fill="#b1b2ad" fill-opacity=".9" d="M154.5 415.4l-192 21 39.7-474L657.5 8.8z"/><path fill="#ecf0f0" d="M-37.5 262.8L218.9 190l11.2-227.6-259.2 9.4z"/><path fill="#777369" fill-opacity=".8" d="M523.6-30.3l-513.4 358 647.3-5.1L643-19.1z"/><path fill="#000702" fill-opacity=".3" d="M588.5 449.3l-32.2-229.9-348.5 8-96 82.4z"/><path fill="#c6d1d6" fill-opacity=".6" d="M231.3 327.2l-268.8 17.4L91.3 449.3l153-5.4z"/><path fill="#9b9b94" fill-opacity=".8" d="M585.4 223.5l72.1-261L220 21.8l317.8 132.7z"/><path fill="#fef6eb" fill-opacity=".7" d="M342 129.8l-7.5 79-19.9 16-8.7-85.5z"/><path fill="#070700" fill-opacity=".2" d="M226.4 338.3L232.3 14 412 108.7l-125 19.9z"/><path fill="#221f18" fill-opacity=".9" d="M657.5 441.3V345L247 356.7l-13.3 92.6z"/><path fill="#cabbab" fill-opacity=".2" d="M512.5 124.7L275.9 326l79.1 22.3 144.6-162.5z"/><path fill="#050b00" fill-opacity=".4" d="M518 162.8L468.4 294l91.5-42.1-9.6-94z"/><path fill="#deeff8" fill-opacity=".3" d="M553.9 267.6l65.1 9.7 21.3 45.5-138.2-26.1z"/><path fill="#c7cdd2" fill-opacity=".6" d="M213.4 219.2l-219 55.4-16.4-53.5 252.6-41z"/><path fill="#e7e6e6" fill-opacity=".4" d="M333.3 99.5l48.1 39.5L413 83.3l-11.4 91.8z"/><path fill="#3a2c11" fill-opacity=".4" d="M311.7 117.7L298.1 209l1-235 14.8 7.6z"/></g></svg>