<svg xmlns="http://www.w3.org/2000/svg" viewBox="0 0 620 414"><defs/><filter id="a"><feGaussianBlur stdDeviation="30"/></filter><rect width="100%" height="100%" fill="#36414e"/><g filter="url(#a)"><path fill="#baa79c" fill-opacity=".6" d="M204 51.8l279.6 392.6-14.5-308.3L657.5 50z"/><path fill="#050503" d="M-37.5 302.5L262 200.8l177.6 217.5L1 449.3z"/><path fill="#11100f" d="M469.1 439.3l173.7-13-19.9-310-129.3 10.4z"/><path fill="#ffe1f9" fill-opacity=".5" d="M385.3 96.4L411 296.2l75 60-3.6-118.4z"/><path fill="#838a83" d="M297.9 77.5L40.2 48.7l96.4 134.6-6-73.6z"/><path fill="#081108" fill-opacity=".6" d="M251.9 218L290 355.8l106.8-169-56.9-60.9z"/><path fill="#545156" d="M344.4 255.8l126.2 152.8 3.1-38-161-54.5z"/><path fill="#5c5c57" d="M300.3 27.4l92.8 106.8 23.5-45.8 241-72.9z"/><path fill="#8a9691" fill-opacity=".7" d="M225.7-37.5l57.4 33.1L293.3 147l-29.8 58.6z"/><path fill="#1b1b19" d="M634 203.4l7.3 148.3-186.2-154.3L482 124z"/><path fill="#c6c2c2" d="M341.7 132.5L335 60l117.3 197.6-5.8-122z"/><path fill="#6b7c88" fill-opacity=".8" d="M512.5 122l-27.6-94 172.6-46-33.9 128.8z"/><path fill="#8f9585" d="M101.7 110l27.9-79-167.1 55.2 106-22z"/><path fill="#ffce53" fill-opacity=".2" d="M80.9 180.2l-40 1L213.6 67.8l26.9 95.7z"/><path fill-opacity=".5" d="M314.8 395.5l342.7-93.3-34.6 147-368.8-60.5z"/></g></svg>