<svg xmlns="http://www.w3.org/2000/svg" viewBox="0 0 620 929"><defs/><filter id="a"><feGaussianBlur stdDeviation="30"/></filter><rect width="100%" height="100%" fill="#403429"/><g filter="url(#a)"><path fill="#f0f2ec" fill-opacity=".7" d="M-4.7 985.2L-6.2-56.2l683 57-89.3 910.4z"/><path fill="#6b5f53" d="M676.8 968.2l-351-711.6 235-181.1L436.9 904z"/><path fill="#f0f1ed" fill-opacity=".8" d="M-26.9 970.4L469 959.8l-54.5-379.5-271 31.5z"/><path fill="#202900" fill-opacity=".5" d="M108.9 644.5L-56.2 899.2l83.4-307 245.3-55.8z"/><path fill="#776f61" fill-opacity=".9" d="M381.8 519l20-99.5 275 355.3-145.9 128.8z"/><path fill="#170c01" fill-opacity=".8" d="M426 223.9l129.6 37.4 3.3-118.7-137.6 10.2z"/><path fill="#fff" fill-opacity=".3" d="M378.1 505.5l12.4-414.4L86-56.2-56.2 591.5z"/><path fill="#938f7f" fill-opacity=".9" d="M58.4 500.8l16 392.3L120 456.5l27.2-132.4z"/><path fill="#8a908c" d="M554.9 183.6l67 285.3 1.5-525.1-225.3.3z"/><path fill="#d0d2d2" fill-opacity=".8" d="M656.1 656.8l20.3-93.2-169.8-306 3.6 323.8z"/><path fill="#795944" d="M267 356.4L304.2 251l156 101.6-37-182.5z"/><path fill="#2e3403" fill-opacity=".5" d="M184.7 550.1L23.6 637.2 170.9 601l196.3-21z"/><path fill="#757874" fill-opacity=".4" d="M361.8 728l221.7-23.3-340-8.7-299.7 41.4z"/><path fill="#ebeae7" fill-opacity=".9" d="M109.2 573.4l231.6-123-158.6-94L385.4 88.9z"/><path fill="#dde0dd" fill-opacity=".7" d="M463 347.6l3.7 43.6L460 421l-36.6-21.5z"/></g></svg>