<svg xmlns="http://www.w3.org/2000/svg" viewBox="0 0 620 414"><defs/><filter id="prefix__a"><feGaussianBlur stdDeviation="30"/></filter><rect width="100%" height="100%" fill="#4a3d38"/><g filter="url(#prefix__a)"><path fill="#d6cbbf" fill-opacity=".8" d="M252.4 295.5L90.8 449.3l.5-481.8 103.9 43z"/><path fill="#cbc1be" fill-opacity=".7" d="M657.5 128.1v321.2l-361.8-4.6 58.6-246.3z"/><path fill="#322b22" fill-opacity=".7" d="M560.4 279.2l-49.6 128.4-122-283.8L538-31.5z"/><path fill="#f9e0d2" fill-opacity=".6" d="M569.1 441L548.3-9l67.1-28.5 42.1 433.7z"/><path fill="#f9edf2" fill-opacity=".6" d="M378.3 109.5l50.9 274.1L602 449.3H302.7z"/><path fill="#d5cfbf" fill-opacity=".4" d="M15.3 449.3l-52.8-89.4 300.3-259.1-78 319.4z"/><path fill="#cfa99b" fill-opacity=".6" d="M329.4 87.2l-32.7 55 83.8 193 8.5-197.9z"/><path fill="#080d11" fill-opacity=".7" d="M217.7 337.9l142-56.2-27.7-60.8-46.2-91.8z"/><path fill="#b0a59c" d="M27.6-1.2l152.1-12.1 57 140L96 66.8z"/><path fill="#8a7771" d="M437.9 308.8l-28.4-26.4 69.3-79V260z"/><path fill="#131619" fill-opacity=".8" d="M337.4 239.5l-64.2-51.8-66.9 261.6 87.5-.8z"/><path fill="#fffef7" fill-opacity=".5" d="M540 400l71.5-65 46 111.4-147.7-133.7z"/><path fill="#eef7ff" fill-opacity=".4" d="M476.1 367.6l-28.8-65.8L309 341.2l37.6 60.6z"/><path fill="#18100a" fill-opacity=".3" d="M575.4 264.7l8.8-84.8L493.3 1.2l-21.8 328.2z"/><path fill="#495250" fill-opacity=".6" d="M-37.5 382.9L79 319.7l28.3-56.4-84-285.8z"/></g></svg>