<svg xmlns="http://www.w3.org/2000/svg" viewBox="0 0 620 414"><defs/><filter id="prefix__a"><feGaussianBlur stdDeviation="30"/></filter><rect width="100%" height="100%" fill="#4c3658"/><g filter="url(#prefix__a)"><path fill="#a19ec6" fill-opacity=".6" d="M98.6-20.8l51.3 467.4L657.5 32.9 589-37.5z"/><path fill="#a9bdff" fill-opacity=".7" d="M158.4 231.8l-48 31L156 377.3l195.2 72z"/><path fill="#1b409b" fill-opacity=".7" d="M304.2 213.6l345.3 64.2L311 449.3 205.9 280.5z"/><path fill="#260400" fill-opacity=".5" d="M171.5 153l195 24.8-404 81.3V7.5z"/><path fill="#e2d5ff" fill-opacity=".3" d="M543.7 325.5l95 123.8 13.5-371.6L429 338z"/><path fill="#ffe6f1" fill-opacity=".4" d="M82.3 139.5l575.2-127-158.6-50-23 152z"/><path fill="#5b2700" fill-opacity=".5" d="M175.6 189.4L300 202.2 351 375l-.7-269.8z"/><path fill="#000a25" fill-opacity=".6" d="M-19.1-37.5l113 245.8 54 227.9-161.5 13z"/><path fill="#000a2b" fill-opacity=".8" d="M450 365.5l164 13.8-209.5 70 9-265.5z"/><path fill="#bea5c8" fill-opacity=".8" d="M345.8 113.1l9 150.4 68.3-107L387.3 30z"/><path fill="#dbd2ac" fill-opacity=".9" d="M328.2 203.4l-59.4 15.8-71.4-3.4-.3-20.1z"/><path fill="#4d4163" fill-opacity=".7" d="M154.8 106.8l-46 227.9-26-267.6L483.4-37.5z"/><path fill="#ffd163" fill-opacity=".3" d="M155 108.5L139 147l148.2 28.6 57.2-106.3z"/><path fill="#001d65" fill-opacity=".5" d="M409 408.3l-145-77 144.8-136.8 55-4.9z"/><path fill="#1b71ff" fill-opacity=".4" d="M182.9 266l93-37.9 9.9 3.4 42.6 214.6z"/></g></svg>