<svg xmlns="http://www.w3.org/2000/svg" viewBox="0 0 620 929"><defs/><filter id="a"><feGaussianBlur stdDeviation="30"/></filter><rect width="100%" height="100%" fill="#553a33"/><g filter="url(#a)"><path fill="#e8e9e5" fill-opacity=".8" d="M676.8 29L6.2-56.2-56.2 913l235.8 72.2z"/><path fill="#a8a39f" d="M152.8 281.6L624.5-56.2l-1 988.1-87.1-493.5z"/><path fill="#584d46" fill-opacity=".8" d="M251.5 803.4l425.3 56.3-199.6-413-182.9 79.9z"/><path fill="#290c00" fill-opacity=".6" d="M254 192.3l78.4-10.1 91.8 73.6L406.8 430z"/><path fill="#dbd8d4" d="M215.2-56.2H-32.3L-50.4 985.2l309.1-16z"/><path fill="#f7fcfd" fill-opacity=".7" d="M552 431.8l124.8 140.5-22.5 284.5-86.7-261.3z"/><path fill="#f3f4f5" fill-opacity=".7" d="M164-56.2l-46 587.8 128.4-372.3 222 75.9z"/><path fill-opacity=".3" d="M481.2 590L263.5 747.7l-154 47.1L457 985.2z"/><path fill="#9e6e5c" fill-opacity=".7" d="M411.2 328.8L226.4 195.6l69 194.5 134.3 28.3z"/><path fill="#796c62" fill-opacity=".7" d="M363.6 455.4l178.2-46.8 87 576.6L450 601.3z"/><path fill="#e5d6c8" fill-opacity=".8" d="M431.5 456.9l-21-153.5L466 267l61 134z"/><path fill="#010807" fill-opacity=".6" d="M435.8 276.2l-84.9-78-108.9 16-9 38z"/><path fill="#8b7862" fill-opacity=".8" d="M166.6 505.9l-20.7-7.7 33-52.2 84.2-3z"/><path fill="#acaca9" fill-opacity=".5" d="M20.3 728.7l337.5-32.3 31.2-64.6-81-64.6z"/><path fill="#f3dcc9" fill-opacity=".7" d="M324 535.6L279.9 367l89.3-79.5-201.4 86z"/></g></svg>