<svg xmlns="http://www.w3.org/2000/svg" viewBox="0 0 620 414"><defs/><filter id="prefix__a"><feGaussianBlur stdDeviation="30"/></filter><rect width="100%" height="100%" fill="#38404f"/><g filter="url(#prefix__a)"><path fill="#e0b9a0" fill-opacity=".7" d="M657.5 406.9L606 34 29-37.5 398.5 448z"/><path fill="#010002" fill-opacity=".6" d="M264.2 101.7l170.5 345.6-39.2-162 37-88.2z"/><path fill="#16171a" fill-opacity=".8" d="M387 449.3L45-19l163.8-18.6-246.3 435.4z"/><path fill="#fffcfe" fill-opacity=".6" d="M414.4 449.3h243.1l-21.3-261.1-185.7 70.2z"/><path fill="#6a3c18" fill-opacity=".7" d="M523.9 193.8l-116-224.6 239-6.7-69.5 289.1z"/><path fill="#d9effa" fill-opacity=".8" d="M134.9 111l-17.7-39.8L287.5 187l-31.3 62.5z"/><path fill="#db9d64" fill-opacity=".6" d="M84.5 3.4l-11.1 118-111 135.6 17-281.2z"/><path fill="#131b21" fill-opacity=".8" d="M295 178l-19.4 53.8 80.9 217.5-37.3-171z"/><path fill="#c0e4ff" fill-opacity=".7" d="M378 319.7l-73.8-120.1 46.5 218 46.7 31.7z"/><path fill="#ffae8a" fill-opacity=".4" d="M144.8 92.3l116 81.3L485.6-1.2l-258-36.3z"/><path fill="#fec8b2" fill-opacity=".5" d="M376.4 153.8l60.5-82.4 34 2 72 241.2z"/><path fill="#5c3b26" d="M405.2 57l-25 64.8L558-37.5l99.5 144z"/><path fill="#ffdcb7" fill-opacity=".5" d="M573.5 238.8l64.4-147.3L495.3 121l162.2 35.3z"/><path fill="#1e2127" d="M111 52.8L-37.6 312.9 269 269.6 121.6 94.9z"/><path fill="#22262b" d="M283.6 103.9l111.2 259.9L388 441l58.6 8.3z"/></g></svg>