<svg xmlns="http://www.w3.org/2000/svg" viewBox="0 0 620 414"><defs/><filter id="prefix__a"><feGaussianBlur stdDeviation="30"/></filter><rect width="100%" height="100%" fill="#443a31"/><g filter="url(#prefix__a)"><path fill="#e5e9e5" fill-opacity=".6" d="M615.2 405.4L-37.5 167.8 33.2-10.7 657.5 237z"/><path fill="#18130d" fill-opacity=".8" d="M657.5 107.5l-344.8 73.7-15.8-88.7 317.8-111z"/><path fill="#c1c6b2" fill-opacity=".5" d="M310.7 72.9L139 244.6-37.5 16 550-37.5z"/><path fill="#babfc3" fill-opacity=".8" d="M439.8 257.7l137.6-112.1 80.1 179.9L469 376.8z"/><path fill="#181410" fill-opacity=".8" d="M657.5 172.2L604-37.5 500.4 213.6 426.3 134z"/><path fill="#0d0909" fill-opacity=".7" d="M-37.5 258.9l117.2-78.7 31.7 195.2-114.3 73.9z"/><path fill="#918476" d="M426 303.2l-14-31.5-213.2-36.5 87.5 79.6z"/><path fill="#5f5e4f" fill-opacity=".9" d="M-37.5 94.7L11-37.5l132.3 8.2L29.5 38.3z"/><path fill="#342d22" fill-opacity=".9" d="M390.4 44.8l128.6-18-162.3 165.3-56.9-33.7z"/><path fill="#c3ced6" fill-opacity=".7" d="M365.7 197.1l127.6 57.7-52.5-106.6-18.4-1.7z"/><path fill="#d4dee9" fill-opacity=".5" d="M73.4 112.1l150.4 131L-37.5 94.3 92 4.4z"/><path fill="#020306" fill-opacity=".7" d="M118 449.3l14.2-59.1 153.3-8.8 7.8 65.2z"/><path fill="#86826a" d="M238.6 103.9l-16.8-5.8L115.5-17.7l371.3-19.8z"/><path fill="#eef4fb" fill-opacity=".3" d="M285 78l50.2 244.8-105.8-221.6-46.5 102z"/><path fill="#a69b81" fill-opacity=".9" d="M39.2 214.6L84 169.8l-26.8-38.3-83.4 47.7z"/></g></svg>