<svg xmlns="http://www.w3.org/2000/svg" viewBox="0 0 620 414"><defs/><filter id="prefix__a"><feGaussianBlur stdDeviation="30"/></filter><rect width="100%" height="100%" fill="#5b4c2d"/><g filter="url(#prefix__a)"><path fill="#93887e" fill-opacity=".9" d="M2.4-37.5L657.5 104 336.4 449.3H-22.8z"/><path fill="#16120d" fill-opacity=".8" d="M25-37.5L149.1-11-37.5 357.2 92.8 201z"/><path fill="#d4dded" fill-opacity=".8" d="M-37.5 293.3L73.4 154 23.7-36.6l-58.3 97.4z"/><path fill="#fffbf3" fill-opacity=".7" d="M266.2 145.3L97.6 67.1l33.7 381.2-52.8-297.7z"/><path fill="#392000" fill-opacity=".6" d="M197.1 278.3l63.3 7.2 29-125.9-20-197.1z"/><path fill="#fffad0" fill-opacity=".6" d="M657.5 206.3l-42.1-129-95.7 75.5 10.2 57.4z"/><path fill="#d3dce9" fill-opacity=".7" d="M279.2 75.3l35.4 139.3 112.6 41.1-31.7-92.2z"/><path fill="#1e2f00" fill-opacity=".5" d="M494 166.9l69.3 79.2-58.8 67.3-151 40z"/><path fill="#fff4f9" fill-opacity=".4" d="M37.3 363l386.5 86.3-236.3-111.4-97-108.8z"/><path fill="#d3726d" fill-opacity=".7" d="M471.5 429.4l127-277.8L556 319l99.5 5.5z"/><path fill="#846a63" d="M255.8-5.6l216.5-29L492 128.8l-133.4 23.8z"/><path fill="#7a665b" d="M153.3 284.8l298.1 164.5h-4.8l20.6-113.1z"/><path fill="#070000" fill-opacity=".6" d="M589.2 97.6l68.3-90-115.7-45.1-22 138z"/><path fill="#0b0000" fill-opacity=".5" d="M-9.7 269.8l81.4 44.3 25.7-241L66.8 163z"/><path fill="#dfd9c6" fill-opacity=".6" d="M86.7 141.2l183.1-29.3-39.2 54.7L163.7-2.2z"/></g></svg>