<svg xmlns="http://www.w3.org/2000/svg" viewBox="0 0 620 414"><defs/><filter id="prefix__a"><feGaussianBlur stdDeviation="30"/></filter><rect width="100%" height="100%" fill="#563a31"/><g filter="url(#prefix__a)"><path fill="#e0cfaf" fill-opacity=".6" d="M-33-37.5l671.2 55.7-254 296.9-398.7-181.7z"/><path fill="#adaaa8" fill-opacity=".9" d="M456.3 434.2L299.6 425l69-66.6 36.8-201z"/><path fill="#000c13" fill-opacity=".7" d="M336 449.3L53 348 240 74.6 124.7 114z"/><path fill="#101b1f" fill-opacity=".6" d="M316.5 100.3l-8.2 160.5 275.4-141 22.5 329.5z"/><path fill="#fffff9" fill-opacity=".3" d="M-28.6-30.8L5.6 392.6l157-290 185-92.2z"/><path fill="#b3a59c" fill-opacity=".6" d="M657.5 449.3V-37.5L331.3 157.7l239.5-9.2z"/><path fill="#c2a991" fill-opacity=".9" d="M323 296l-65.6 42.6L221 162.7l-6-197z"/><path fill="#576d6d" fill-opacity=".7" d="M-37.5 173.6L79 151.4l13.8 264.2-104-25.2z"/><path fill="#1c2126" d="M504.2 449.3l-57.4-257.5 121.4-38.5 89.3 290.6z"/><path fill="#83613e" fill-opacity=".6" d="M657.5 59.3v-96.8l-387.7 226L451.7-34z"/><path fill="#0f1619" fill-opacity=".7" d="M318.5 449.3l35-172-247 172-10-272.3z"/><path fill="#e6d9be" fill-opacity=".9" d="M320.4-37.5l-358 150.1 178.8 66.9 2.7-85.3z"/><path fill="#24211f" fill-opacity=".8" d="M156.2 87.4l-10.9 26 9 115.7L202 79.7z"/><path fill="#784f32" fill-opacity=".5" d="M273.2 100.5l-1.5 186L403.5 225l-26.7-85.3z"/><path fill="#e4ca98" fill-opacity=".7" d="M231.8 86.5L-37.5 31l393.8-68.5-58.7 165.9z"/></g></svg>