<svg xmlns="http://www.w3.org/2000/svg" viewBox="0 0 620 414"><defs/><filter id="prefix__a"><feGaussianBlur stdDeviation="30"/></filter><rect width="100%" height="100%" fill="#2d4157"/><g filter="url(#prefix__a)"><path fill="#e8e8d3" fill-opacity=".6" d="M427.7-28.3l-47.2 265 26.1 176-344.1 20.8z"/><path fill="#bdc3b3" fill-opacity=".7" d="M197.4 135.9l53.5-51.6 62.7-118-195.2-3.8z"/><path fill="#050402" fill-opacity=".9" d="M-37.5 421.2V-37.5H147L85 404.7z"/><path fill="#070706" fill-opacity=".8" d="M657.5-36.3l-13 485.6L423.8 411l62.3-448.5z"/><path fill="#726d64" d="M105.1 158.6L101 385.3l161.5-18.1-6.5-153.3z"/><path fill="#eeeede" fill-opacity=".7" d="M265.7 191l83.5-129.7-8.2 327.4-68.8-58.4z"/><path fill="#080603" fill-opacity=".8" d="M412.2-37.5l-289 267-.2-267 102.7 278.2z"/><path fill="#fbfdf6" fill-opacity=".9" d="M400.6.5l-169-18 .7 117.5L308-18.2z"/><path fill="#c4d4c7" fill-opacity=".5" d="M142.4 249.7l-41-114.8 4.7 139-11.9 175.4z"/><path fill="#767f79" d="M409.3 449.3l-17.2-124-48.4-6.8 32.2-299.6z"/><path fill="#f7fef9" fill-opacity=".8" d="M397.4 104.1l-8-125.2 13.4-16.4L414 65.4z"/><path fill="#a9c7db" fill-opacity=".9" d="M352.6 334.2l-372.2 115L388 372l11.9-50.1z"/><path fill="#363d3d" fill-opacity=".7" d="M219-37.5l-20.2 3.1 14.6 283.6 3.6-98.8z"/><path fill="#111106" fill-opacity=".4" d="M313.4 365.5l-60.8-30.8-27.9-1.5-126.6 40.3z"/><path fill="#19232b" fill-opacity=".5" d="M409.8 424L575.4 30.4l-92.7-67.8L399.9 114z"/></g></svg>