<svg xmlns="http://www.w3.org/2000/svg" viewBox="0 0 620 414"><defs/><filter id="a"><feGaussianBlur stdDeviation="30"/></filter><rect width="100%" height="100%" fill="#544530"/><g filter="url(#a)"><path fill="#eef8ff" fill-opacity=".5" d="M612.7 449.3l44.8-384.9-695-89.6 9.2 230.6z"/><path fill="#000a10" fill-opacity=".7" d="M-3.4 442.5l358.7-3.9L251 257l-288.4 13z"/><path fill="#706d4f" fill-opacity=".8" d="M280.7 205.1l-13 162.8L217-12l231.8 51.4z"/><path fill="#c5c2c3" fill-opacity=".6" d="M588.5 31L440.8 55.5 256.5 328.9 549 449.3z"/><path fill="#edf3fe" fill-opacity=".6" d="M231.8 281l12-111.2-51.5-207.3-24.2 40.2z"/><path fill="#9fa8b7" fill-opacity=".8" d="M127.4 300l57.9-118.6-222.8 94L110.9 48.7z"/><path fill="#2d230f" fill-opacity=".7" d="M339 41.2l70.8 13.5L657.5 4 332.3-37.5z"/><path fill="#00100f" fill-opacity=".7" d="M474 430.4L95.4 264l-15.2-64.7-117.7 216.3z"/><path fill="#7e524b" fill-opacity=".5" d="M157.7 271l73.3 12-62.7-229.2-45.5-12.4z"/><path fill="#334300" fill-opacity=".3" d="M-37.5-28.6L76 184.3 44.8-31.5l28.8 5.8z"/><path fill="#9a99ab" fill-opacity=".7" d="M162.3 278l-71.7-2.6 91.3-185.5L166 269.8z"/><path fill="#583600" fill-opacity=".3" d="M640.8 177.3l8.5 122-65.1 25.5-33.5-77.8z"/><path fill="#b3bac6" d="M649.8 382.4l-124.5 63.2-3.1-125.7 135.3 50z"/><path fill="#d7d2d1" fill-opacity=".4" d="M236.1 207.8l148.5 81.1 273-168.8-77-84.5z"/><path fill="#8a8c8d" fill-opacity=".6" d="M291.1 261l-36.6 57.2 141.2 83.3 150.2-8.4z"/></g></svg>