<svg xmlns="http://www.w3.org/2000/svg" viewBox="0 0 620 414"><defs/><filter id="a"><feGaussianBlur stdDeviation="30"/></filter><rect width="100%" height="100%" fill="#614d35"/><g filter="url(#a)"><path fill="#d0beb6" fill-opacity=".7" d="M-37.5-14.8l600.8-15.5 94.2 442.5-695 6.3z"/><path fill="#613102" fill-opacity=".6" d="M201.7 404l-99-264.3L304.2-37.5l10.2 403.7z"/><path fill="#e4f6fe" fill-opacity=".6" d="M.7 449.3L3.4-37.5h64L172 396.7z"/><path fill="#e0eefb" fill-opacity=".5" d="M313.4 334.7l268.8-117 6 226.5-335.4 5z"/><path fill="#431800" fill-opacity=".5" d="M503.3 101.7L351.4 140l-118 309.3 97.7-187.7z"/><path fill="#bdc3c3" d="M125.5 92l-163 271.8L5.3-37.5 229.6 3.9z"/><path fill="#402206" fill-opacity=".6" d="M90.8 206.1l20.6 3 151.4-33.3L178 91.1z"/><path fill="#cda094" fill-opacity=".7" d="M293 248.2L378 105l-65.3-63.2-49 125.9z"/><path fill="#9c7361" fill-opacity=".8" d="M489.2 250.2l-78.5-107.3L552-36.6l105.6 217z"/><path fill="#7a5b42" fill-opacity=".9" d="M403.5-3.6L222 2.2l95 140.4-94.8-19.8z"/><path fill="#fff" fill-opacity=".4" d="M40.7 202.7l-27.9 80-2.1 111.8 210.4-17z"/><path fill="#cbdbe5" fill-opacity=".6" d="M485.8 449.3l-60.5-250.5 10.6-63.9-36.8 72.2z"/><path fill="#d0b1a1" fill-opacity=".7" d="M350.7 232l-21 31-59.9 186.3 150-142.2z"/><path fill="#381600" fill-opacity=".5" d="M313.4 220.9l-47.7 196.9L310.5 301l43.8-103z"/><path fill="#310000" fill-opacity=".2" d="M385.8 167.6l-33.9 98.6 79.7-87.2L326.2-37.5z"/></g></svg>