<svg xmlns="http://www.w3.org/2000/svg" viewBox="0 0 620 414"><defs/><filter id="a"><feGaussianBlur stdDeviation="30"/></filter><rect width="100%" height="100%" fill="#352e27"/><g filter="url(#a)"><path fill="#d6c5b1" fill-opacity=".6" d="M657.5 5L-4.6-37.4l-15.7 448.3 568.1 38.5z"/><path fill="#6d5943" fill-opacity=".9" d="M437.6 220.6l139.5 228.7-36.3-486.8L50.1 81.9z"/><path fill="#dccec0" fill-opacity=".7" d="M375.4 329.6l20.3-179.4 150.7 299-584-48.1z"/><path fill="#dff4ff" fill-opacity=".4" d="M28.6 449.3L-37.5-18.2l241.4 29.8-91 33.7z"/><path fill="#000b15" fill-opacity=".7" d="M103.7 80.4L143 43.1l5.4 290.9-28.6-6.6z"/><path fill="#cec8c5" fill-opacity=".9" d="M244.9 195.4l-25.7-44-72.7 48.2 60.8 202z"/><path fill="#4d4942" fill-opacity=".7" d="M204.9 88.9l164.4 158.9L353-5.1l-149.7-7.5z"/><path fill="#8d7d63" fill-opacity=".8" d="M386.8-37.5l199.3 298 71.4 9.5L552.7-37.5z"/><path fill="#210d00" fill-opacity=".6" d="M504 316.3l22.5 127.9 28.4-80.7 43-27.8z"/><path fill="#e8d7bb" fill-opacity=".6" d="M62 264l-99.5 49.6 32.9 79L100 449.3z"/><path fill="#999e9e" d="M140 115.5l35.3 55.7 23-153.3-29.7 65z"/><path fill="#bcbbc0" fill-opacity=".7" d="M360.9 287.2l-51.6-114.8-32.7 8.3L329.4 307z"/><path fill="#383c3e" fill-opacity=".8" d="M118.2 340l79.7-22-13.1-3.6-69-145.6z"/><path fill="#744b1e" fill-opacity=".3" d="M445.4 405.2L283 442l146-83L594.1-37.6z"/><path fill="#120802" fill-opacity=".8" d="M276 97.6l-92.2 26.2 4.4-25.2 19.1-18.4z"/></g></svg>