<svg xmlns="http://www.w3.org/2000/svg" viewBox="0 0 620 414"><defs/><filter id="prefix__a"><feGaussianBlur stdDeviation="30"/></filter><rect width="100%" height="100%" fill="#544a40"/><g filter="url(#prefix__a)"><path fill="#a49e97" fill-opacity=".9" d="M609.6 357L355-18.4 43.1-37.5 135 449.3z"/><path fill="#361900" fill-opacity=".6" d="M179.7 173.2L-37.5-2l44 451.2 150.7-148.7z"/><path fill="#f9ffff" fill-opacity=".5" d="M524.8 118.2l-29 157.4L311 202.2l-44.8-116z"/><path fill="#d8d6d0" d="M102.7 363.3l173-127L155 429.7l-99.5 19.7z"/><path fill="#e3f1ee" fill-opacity=".7" d="M53.5 39.5L187.7 152 156-37.5-37.5 11z"/><path fill="#776e6c" d="M134 449.3l146-157.5 377.5-53.7-351.1 211.2z"/><path fill="#f6fcfd" fill-opacity=".7" d="M482.4 359l87.2-2.5-115.5 50.6-62.7-104.6z"/><path fill="#3e3721" fill-opacity=".7" d="M147.3-37.5l63.2 148.7 17.4 6.5L289.7-8.7z"/><path fill="#05070b" fill-opacity=".9" d="M634.5 326.7l12.4 96.9-276.4-19.1 138.3-12.2z"/><path fill="#43211a" fill-opacity=".6" d="M386 31.5l227-64 44.5 97.2L406 130z"/><path fill="#fcd6b4" fill-opacity=".7" d="M366 270.3l-102 29.3-110.7-54.3 39.5-52z"/><path fill="#160301" fill-opacity=".4" d="M396.5 125.7l-54.8 188.9 59.1-75.6-96.9 10z"/><path fill="#f8feff" fill-opacity=".4" d="M560.7 278.3l-104-122.6L467.3 50l-92.9 186z"/><path fill="#e1e5e4" fill-opacity=".9" d="M559.2 336.4l-53-34-12.6 41.5-13.6 53z"/><path fill="#5b3329" d="M488.7 352.6l-79.4-60.8 55-33.6 39.7 47.4z"/></g></svg>