<svg xmlns="http://www.w3.org/2000/svg" viewBox="0 0 620 414"><defs/><filter id="prefix__a"><feGaussianBlur stdDeviation="30"/></filter><rect width="100%" height="100%" fill="#424242"/><g filter="url(#prefix__a)"><path fill="#f1f1f1" fill-opacity=".5" d="M466.2 17.7L170.7 51.6-34.3 0l504.9-5z"/><path fill="#030303" fill-opacity=".7" d="M40.4 203.7l-78 164 586.4 81.6 108.7-274.7z"/><path fill="#bbb" fill-opacity=".7" d="M189.9-37.5l34.6 224 24 35.3 24.2-46.5z"/><path fill="#c5c5c5" fill-opacity=".5" d="M455 449.3h52.4l-45.8-152.4-21.3 20.9z"/><path fill="#f9f9f9" fill-opacity=".6" d="M370.3 150l14.3 64.8 13.3-46 6.3-42.9z"/><path fill="#060606" fill-opacity=".6" d="M496 421l18.2-351.5 96.1-107 47.2 326.4z"/><path fill="#d8d8d8" fill-opacity=".4" d="M437.9-37.5L430 36l82.9 74.1-18.7 85.2z"/><path fill="#0a0a0a" fill-opacity=".5" d="M171.5 449.3l-209-191.6L76-37.5 93.2 153z"/><path fill="#737373" d="M171.5 349l15.5 2.9 17.2 97.4h-52.8z"/><path fill="#fff" fill-opacity=".2" d="M124 226.7L85.2 151l16-188.6 37 221.3z"/><path fill="#222" fill-opacity=".4" d="M98.8 147L251 18l243.4 58.8L249.9 140z"/><path fill="#787878" fill-opacity=".8" d="M310.7 235.4l20.1-66.8 2.7-38.3-46.5-7.8z"/><path fill="#0a0a0a" fill-opacity=".7" d="M238.8 212l-180 237.3 68.6-225L172 68.5z"/><path fill="#1c1c1c" fill-opacity=".7" d="M391.6 33l93.7 127.8-101 135.4L431-37.5z"/><path fill="#fff" fill-opacity=".3" d="M251.4-36.3l-39.5 143.6 52.6-14.8-253.1-130z"/></g></svg>