<svg xmlns="http://www.w3.org/2000/svg" viewBox="0 0 620 414"><defs/><filter id="a"><feGaussianBlur stdDeviation="30"/></filter><rect width="100%" height="100%" fill="#2a3f54"/><g filter="url(#a)"><path fill="#9bc3df" fill-opacity=".7" d="M303-35.6l50 484.9 304.4-58L607 41.8z"/><path fill="#1e0b00" fill-opacity=".8" d="M-37.5 419l373.4-5.1 9.2-214.1-308-237.3z"/><path fill="#5d87a9" d="M657.5-9.4l-494-28.1 16.2 284 42.1-155.4z"/><path fill="#bfccd3" fill-opacity=".8" d="M349.5 249.7l182.1-86.5-76.8 286-120.1-32.9z"/><path fill="#3d4649" d="M625.6 380l24.4-12.6-459 16.7 305.2 3.9z"/><path fill="#1668a1" fill-opacity=".7" d="M476.1 168.3l-72.9-33.9 193-172 61.3 147.3z"/><path fill="#ffa863" fill-opacity=".2" d="M98 66.6L140.8 224l103-40.2 14-54.2z"/><path fill="#92b0c9" fill-opacity=".8" d="M43.4 29.3L-9-37.5-37.5 122V93.5z"/><path fill="#2e3438" fill-opacity=".8" d="M583.7 410.5l42.1 38.8-48.7-130.8-25.6-13.1z"/><path fill="#010202" fill-opacity=".9" d="M46.5 61l129.8 379.5-213.8 8.8V76z"/><path fill="#0f0800" fill-opacity=".8" d="M296.7 93l-63.2-17 35.3 265.5 79.5-38z"/><path fill="#6d99bd" fill-opacity=".9" d="M503.3 163.5l-161 72.6-36.4-125.4-80.4-88.4z"/><path fill="#f4dab8" fill-opacity=".5" d="M585.4 449.3l-13.1-69-142 7.7-268 61.3z"/><path fill="#8fb0cd" fill-opacity=".6" d="M181.9 74.6L108.5-35.1 246.8 68.3 180.2 154z"/><path fill="#4a2510" fill-opacity=".7" d="M186.5 205.4L74.4 92.5l86.4 220.2 110 95.6z"/></g></svg>