<svg xmlns="http://www.w3.org/2000/svg" viewBox="0 0 620 414"><defs/><filter id="a"><feGaussianBlur stdDeviation="30"/></filter><rect width="100%" height="100%" fill="#643b2e"/><g filter="url(#a)"><path fill="#b1a79e" d="M-2.7-37.5l-4.6 156 658 225.2 6.8-381.2z"/><path fill="#280b08" fill-opacity=".8" d="M318.5 438.4l4.8-299.6-169-51.4-94.2 348z"/><path fill="#fff0c9" fill-opacity=".5" d="M182.9-37.5H7.9l-13.2 391L63.9 282z"/><path fill="#f7fafd" fill-opacity=".6" d="M433.5 63.5l-21.3 256.2 17 17L657-3.4z"/><path fill="#061330" fill-opacity=".7" d="M531.6 249.2l93-7.5-40.2-83.3-58.4 14.8z"/><path fill="#b9ffff" fill-opacity=".5" d="M351.7 449.3h110.9l-68.3-75.6-82.1-212z"/><path fill="#fde0c3" fill-opacity=".5" d="M159.4-37.5l84.5 128.8-19.4 159.4 69.8 61.5z"/><path fill="#446e7d" fill-opacity=".5" d="M285.3 449.3l205.9-183.4L657.5 247l-15.2 190.6z"/><path fill="#e6e6e6" d="M451.4 134.7l122.1 9 79.4 87.1-37-268.3z"/><path fill="#835646" d="M318.7 108.3l42 116.4-140-222.3 40.4 164z"/><path fill="#a27753" d="M166.4 180.7l-198.1-28.4 106 113.9 50.4-176.6z"/><path fill="#efeae6" fill-opacity=".6" d="M-37.5-3l293-34.5-29 82.5-120.2 64.5z"/><path fill="#ccc0bb" fill-opacity=".7" d="M526.5 381.7l60.3-104.2-281.6-70.2L522.9 187z"/><path fill="#f2fbfd" fill-opacity=".6" d="M69.3 262.3l-30.6 43.6L26.3 347-27 260.7z"/><path fill="#a08b76" d="M452.9-37.5L210.5 57.6l232.5 15 14 150.7z"/></g></svg>