<svg xmlns="http://www.w3.org/2000/svg" viewBox="0 0 620 414"><defs/><filter id="a"><feGaussianBlur stdDeviation="30"/></filter><rect width="100%" height="100%" fill="#355266"/><g filter="url(#a)"><path fill="#e9d7b3" fill-opacity=".6" d="M4.6 449.3L-19.9-37.5 249.2-2l.7 451.2z"/><path fill="#d07f48" fill-opacity=".7" d="M318 302.5l-128-75.3 399-72.7 68.5 140.7z"/><path fill="#291000" fill-opacity=".7" d="M238 220l92.1-257.5 327.4 4L609 148z"/><path fill="#c08f6c" d="M259.1 251.4L560 268.8 366.7 138.5 513 171.2z"/><path fill="#d7965d" fill-opacity=".6" d="M253 163.7l167.7 104.4-262.3-50.4L339.5-37.5z"/><path fill="#24536b" fill-opacity=".6" d="M196 129.6l14.5-27.4-248-16.7v47.7z"/><path fill="#1d1b18" fill-opacity=".9" d="M657.5 199L544 213.2 469.4-11.6l37.5 243.4z"/><path fill="#26201a" fill-opacity=".9" d="M239 152l7-55.9 193 100.6-82.5 19.6z"/><path fill="#180400" fill-opacity=".5" d="M532 290.9l106.4-4.4 19.1 162.8-121.3-12.6z"/><path fill="#dcddd3" fill-opacity=".2" d="M-37.5 180l170.7-24.5 174.9 160-48.5 133.8z"/><path fill="#ff9300" fill-opacity=".2" d="M297 84.3L9.1-37.5l-46.7 81 417.3-81z"/><path fill="#efe7ca" fill-opacity=".6" d="M9.2 58.9l227.7 16 29-103.7-43.6 69.7z"/><path fill="#141110" fill-opacity=".9" d="M351.4 115.3L604-37.5 657.5 76 513 178z"/><path fill="#673a22" d="M581.3 207.6l32-110.7 35-11.9-27 120.9z"/><path fill="#ffdab1" fill-opacity=".6" d="M235 56l-59.7 131.5 13.8 22 53.3-39.2z"/></g></svg>