<svg xmlns="http://www.w3.org/2000/svg" viewBox="0 0 620 414"><defs/><filter id="prefix__a"><feGaussianBlur stdDeviation="30"/></filter><rect width="100%" height="100%" fill="#6c4c3f"/><g filter="url(#prefix__a)"><path fill="#0b090b" d="M644.5 449.3l-203.7-31.5-1-455.3 217.7 21.3z"/><path fill="#dceae3" fill-opacity=".5" d="M440 140.7l-111.8 65.6L215.8-10.4l218-18.9z"/><path fill="#181617" fill-opacity=".9" d="M21 294.7L-11.3 208l548.8 241.3-575-37.1z"/><path fill="#dfd1b4" fill-opacity=".8" d="M206.1 142.4l-163 26.4-13-33.9L206.7 100z"/><path fill="#100f11" fill-opacity=".8" d="M198.6-23.3l67.6 114.6-279.5-3.6 6.8-95.2z"/><path fill="#2c231d" fill-opacity=".8" d="M303 150.4l-94-93-14 230.8 29.7 22.3z"/><path fill="#b6ad9b" fill-opacity=".6" d="M173.6 169L121 228l-152.4-71.2L10 211.2z"/><path fill="#fbe8ba" fill-opacity=".6" d="M145.8 33l-32.7 34 3.1-15.2 53.6-71.2z"/><path fill="#030a0a" fill-opacity=".5" d="M408.6 317.8l-137.3-62.3 18.4 9.7 19-83z"/><path fill="#d6e7e6" fill-opacity=".5" d="M139 274.9l36.1-57.4 15-3 12.9 33z"/><path fill="#8a6b4f" d="M424.3 222.6L324 226l37.8-84.6 80.2-3.6z"/><path fill="#e6f1d1" fill-opacity=".3" d="M265.4 325.7L263 179l40.7 102.4 87 48.5z"/><path fill="#0f0b0b" fill-opacity=".7" d="M148 101.7L-2 136.4l61-174-96.5 130.2z"/><path fill="#3d322a" fill-opacity=".8" d="M134.7 258.4l153-185L133 216.3l-170.5 4.6z"/><path fill="#e2e5e9" fill-opacity=".4" d="M317 58.4L338.6 287l2-104 25.1-82z"/></g></svg>