<svg xmlns="http://www.w3.org/2000/svg" viewBox="0 0 620 929"><defs/><filter id="prefix__a"><feGaussianBlur stdDeviation="30"/></filter><rect width="100%" height="100%" fill="#4f392a"/><g filter="url(#prefix__a)"><path fill="#eff6ee" fill-opacity=".6" d="M-56.2-3.3l733-9.4-17 721.4-674.7-8z"/><path fill="#15191f" fill-opacity=".6" d="M399.5 836.5l-265.2-12.7L156 304.5l227.2 5z"/><path fill="#dfe3ee" fill-opacity=".9" d="M346.2 700.7l-54.4-141.1L264.5 700l-3.6 8.4z"/><path fill="#fffff3" fill-opacity=".4" d="M352.4 308.5l180.3 552 144-688.9-733 36.7z"/><path fill="#fffef2" fill-opacity=".3" d="M90.4 759.9L-37.7 745l-18.5-584.2 255 41.3z"/><path fill="#e2e3e2" fill-opacity=".7" d="M611.5 71.5l52.6 63.1L69.7 130l-126-48z"/><path fill="#8d6b34" fill-opacity=".7" d="M493.5 155.3l-31.9 29.8-375.6.7-51.2-31.6z"/><path fill="#212023" fill-opacity=".5" d="M141.2 360.4l-4.8 266L241 856l61.3-423.9z"/><path fill="#dadad8" fill-opacity=".9" d="M308.8 31.2L-12.3 29l239.1-85.2 450 86.7z"/><path fill="#625e51" fill-opacity=".8" d="M433.3 705.8l243.5-5.8-108.5 153.2-229.7 27.5z"/><path fill="#7d6348" fill-opacity=".9" d="M68.6 898.2l-124.8-56.7 185.8-10.8L451 855z"/><path fill="#d3cec1" d="M398.8 684.4l12.7-389.7 253.7-150-54 555.3z"/><path fill="#473e30" fill-opacity=".6" d="M394.1 500l8-124.4-74.8-80.6-106.3-4.7z"/><path fill="#6f6a62" fill-opacity=".7" d="M-56.2 708.7l623.8-11.6-419.9 30.5 26.5 145.2z"/><path fill="#835b15" fill-opacity=".4" d="M-18.1 71.1l470.6-2.5-508.7-36.7 348-.7z"/></g></svg>