<svg xmlns="http://www.w3.org/2000/svg" viewBox="0 0 620 414"><defs/><filter id="prefix__a"><feGaussianBlur stdDeviation="30"/></filter><rect width="100%" height="100%" fill="#65543d"/><g filter="url(#prefix__a)"><path fill="#a6a49b" fill-opacity=".9" d="M547.6-1L-37.5-19l66.8 228 401.6 63.7z"/><path fill="#121314" d="M123 444.2l47.7-188.7L588 293.8l69.5 120.6z"/><path fill="#857c62" fill-opacity=".8" d="M341.2 327.7L655.4 137 532.8 17.9 366 62.7z"/><path fill="#202b36" fill-opacity=".6" d="M-5.6 327.7l253.8-40.5 2.2-153.8-288 157z"/><path fill="#fffcf4" fill-opacity=".4" d="M172.2 52.8l-103 242.7-60-274.2L68.5-13z"/><path fill="#dfebfe" fill-opacity=".6" d="M233.7 227.7l146 46.5-44.3-133.5-64.9-34.1z"/><path fill="#ece4d4" fill-opacity=".5" d="M554.6 414.9l11 34.4-47-70-12.2-95.2z"/><path fill="#2b1a00" fill-opacity=".4" d="M657.5 36.3L603.3 8 255.8 84l73.6 21.6z"/><path fill="#b7e9fd" fill-opacity=".3" d="M-37.5 339.8l190-30.3-10 71.7L24 406.9z"/><path fill="#fcfede" fill-opacity=".7" d="M657-37.5L312 64.2 410 46 618.3-1.5z"/><path fill="#7f7765" fill-opacity=".6" d="M-37.5 147.3l144 8.4L134 301.5 252 89.4z"/><path fill="#060300" fill-opacity=".7" d="M-3.6 228.1l-34 90.6L338 288 66.4 276.8z"/><path fill="#1a0400" fill-opacity=".6" d="M564.8 220.1l92.7-22.7-26.1 107.3-73.9-24z"/><path fill="#040504" fill-opacity=".9" d="M378.8 217l10.9 122.5-277.3-49.1 350 153z"/><path fill="#cdd9ef" fill-opacity=".5" d="M239.3 48.4l207.5 238.8-46-100.5-154.3-55.2z"/></g></svg>