<svg xmlns="http://www.w3.org/2000/svg" viewBox="0 0 620 414"><defs/><filter id="a"><feGaussianBlur stdDeviation="30"/></filter><rect width="100%" height="100%" fill="#50362c"/><g filter="url(#a)"><path fill="#a59b86" fill-opacity=".9" d="M-24.7 285.3l414.1 100L570.8-34.9-24.2 10z"/><path fill="#e5eaf0" fill-opacity=".8" d="M150.4 270.5l-10-129L-5 92.4l7.3 217z"/><path fill="#7a674b" fill-opacity=".8" d="M506.7 354L286 216.6l82.6-185.3 289 80.7z"/><path fill="#676963" d="M322.8 239.5l-138-87.9L53.3 449.3l222.6-66.6z"/><path fill="#e8efff" fill-opacity=".7" d="M392.1 373.2l-51.3-184.5-34.4 123-45 49.9z"/><path fill="#fce0bb" fill-opacity=".7" d="M172-37.5l360.6 48L333 53.7 187.2 63.9z"/><path fill="#382f01" fill-opacity=".5" d="M197.6 77.3L182 377l-32.7-232.5-186.8-182z"/><path fill="#beada4" fill-opacity=".8" d="M493.3 442.5L511 330 497.2-35l-20 134z"/><path fill="#4a403f" d="M-37.5 436V317l234-46.5-10 60z"/><path fill="#c9dafe" fill-opacity=".6" d="M-6.8 449.3l143.6-92.6-1.4 43.4L82 449.3z"/><path fill="#2e2a20" fill-opacity=".9" d="M483.9 203l-1.5 189.8-95.9-108 66.9 16.2z"/><path fill="#b29f96" fill-opacity=".7" d="M226 283.6l85-103.2-118.2 14 9.4 156.5z"/><path fill="#000d1a" fill-opacity=".7" d="M323.6 218.7l1.7 27.8-34 73 5.9-134.5z"/><path fill="#1a3a32" fill-opacity=".5" d="M504.7 409l54-272.6 31-97.9 46.8 410.8z"/><path fill="#7b6233" fill-opacity=".9" d="M483.6 57l-70.2 155.9-64.9-9.7-36-130z"/></g></svg>