<svg xmlns="http://www.w3.org/2000/svg" viewBox="0 0 620 414"><defs/><filter id="a"><feGaussianBlur stdDeviation="30"/></filter><rect width="100%" height="100%" fill="#2e3146"/><g filter="url(#a)"><path fill="#c5c5c5" fill-opacity=".8" d="M622-37.5l-659.5 54 539.6 199L631 431z"/><path fill="#9a9ca4" fill-opacity=".8" d="M219.2 195.7l-256.7 1.2 24.7 111.2 327 141.2z"/><path fill="#d0e4f2" fill-opacity=".6" d="M-32-37.5h501.6l-278 166.3-207.6-5.5z"/><path fill="#1f1c27" fill-opacity=".7" d="M429.9 94.5L423 449.3l112-237.6-24.7-116z"/><path fill="#131317" fill-opacity=".9" d="M-37.5 412.7L88.2 298.9l75.5-4.2-19.1 122.6z"/><path fill="#a6a4ad" fill-opacity=".9" d="M144.3 440l124 9.3L225 180.9l-30.8-72.2z"/><path fill="#101216" fill-opacity=".9" d="M145 299.6L132.6 231l92.2-104.3L41 140z"/><path fill="#b1b9cd" fill-opacity=".7" d="M-37.5 164.4L-.2 376.6 110 273.9l-25.2-72.4z"/><path fill="#8b6962" fill-opacity=".8" d="M373 151.4l-137-48.7L456.3 267 392.6-37.5z"/><path fill="#dcf1ff" fill-opacity=".5" d="M383.4 114.3l84.5-130.5 189.6-21.3L559 101z"/><path fill="#4b5400" fill-opacity=".5" d="M641.6 38l-71.7 37-24.3 87.3 112-9.5z"/><path fill="#3c4d5a" d="M146.5 99.5L133 90.8 118.2-37.5H133z"/><path fill="#e1ecf6" fill-opacity=".5" d="M366.2 213.6l14.3 47.2-38-262.7L239 1.5z"/><path fill="#161100" fill-opacity=".4" d="M308.8 305.6l-116-75.5 91.5-124.3 52.6 17.5z"/><path fill="#696f75" fill-opacity=".6" d="M653.2 364.7l-54 84.6H451.4l84.6-170z"/></g></svg>