<svg xmlns="http://www.w3.org/2000/svg" viewBox="0 0 620 414"><defs/><filter id="prefix__a"><feGaussianBlur stdDeviation="30"/></filter><rect width="100%" height="100%" fill="#3b3b3b"/><g filter="url(#prefix__a)"><path fill="#c2c2c2" fill-opacity=".7" d="M225.7 105.4l233.7-1L486.1 275 259.4 449.3z"/><path fill="#ededed" fill-opacity=".7" d="M352.4 339l-92.5-17.4-18 127.7L356 429.6z"/><path fill="#e9e9e9" fill-opacity=".8" d="M54 103l24.5 16.6-77.3-3.8-38.7-35.2z"/><path fill-opacity=".6" d="M322.8 237.8L9 449.3-37.5 81l356.2 251.7z"/><path fill="#0c0c0c" fill-opacity=".8" d="M499 420l46.4-401.1 29-23 70.3 453.4z"/><path fill="#6b6b6b" d="M307 195.4L472.6 88.6 130.3 62.7l196-11.1z"/><path fill-opacity=".6" d="M137 21.3L58.2-37.5l-95.6 51.8 210 207.5z"/><path fill="#fff" fill-opacity=".3" d="M186.2 141.7l129.6 23.2L421 307.1 177.3 185.8z"/><path fill="#dedede" fill-opacity=".8" d="M657.5 134.4V94l-68.7 12.6-6.8 13.3z"/><path fill="#121212" fill-opacity=".9" d="M-37.5 20.3l627.7-57.8L485.8 65 360.4 35.4z"/><path fill="#bababa" fill-opacity=".9" d="M233.7 359.4l-22.3-31.2-8.7 121h-62.5z"/><path fill="#4b4b4b" d="M422.1 326l-66.6-3.6 1.2 54.7 61.8 54.7z"/><path fill="#111" fill-opacity=".7" d="M186.7 108.5L331.8 132l-344.4 10.9 154.8 306.4z"/><path fill="#e3e3e3" fill-opacity=".6" d="M504.2 196.4l24.7 5.3-3.4-40.2-22.7 10z"/><path fill="#fefefe" fill-opacity=".3" d="M115.8 1.7l21.5-14.5 53.5 86.4L177 80z"/></g></svg>