<svg xmlns="http://www.w3.org/2000/svg" viewBox="0 0 620 929"><defs/><filter id="a"><feGaussianBlur stdDeviation="30"/></filter><rect width="100%" height="100%" fill="#5f3f2e"/><g filter="url(#a)"><path fill="#d8d4d2" d="M676.8 690.6v253.6l-733-16.7 30.4-341.8z"/><path fill="#c09d8b" fill-opacity=".9" d="M313.2 633.2L221 111.4l160-11.2 238 721z"/><path fill="#84592f" fill-opacity=".7" d="M534.5 353.8l142.3 326.3-118.3 50.4-138.6-192.3z"/><path fill="#272625" d="M298.7 25.8L-56.3-25l27 220.6 207.8 9z"/><path fill="#9ae1fa" fill-opacity=".4" d="M472.8 4.4l204-2.2-69.3 314.6-16.7-171z"/><path fill="#452d18" fill-opacity=".5" d="M30.5 229.3l295.4 239.2-53.7 171.3-192.4-7.3z"/><path fill="#daf6ff" fill-opacity=".2" d="M-56.2 235.5L669.9 146 36.7 281l28.6 397.3z"/><path fill="#fecabf" fill-opacity=".4" d="M183.6 319.7l45.4 152 254.4-51.1-5.5-111.8z"/><path fill="#ceb0ac" fill-opacity=".7" d="M485.2 737l-144.4 39.2-145.6-163 245.3-26.8z"/><path fill="#1a0002" fill-opacity=".4" d="M338.2 247.5l22.2 75.5 86-35.6-66.8-47.9z"/><path fill="#e6ecf0" fill-opacity=".6" d="M47.9 570.1l328.4 345.5-272.2 69.6-151-384.6z"/><path fill="#fdd3c8" fill-opacity=".3" d="M439.1 225.7l-221.4 29.4-15.2-93.6 102-98.4z"/><path fill="#2d1707" fill-opacity=".9" d="M187.6 369l3.3-253.6L121.6 385l172 196.7z"/><path fill="#82594b" d="M266.7 521.1L286 296.8l-9.1-15.6-28.7-30.4z"/><path fill="#020000" fill-opacity=".6" d="M50.4 450.7L46.8 262l48.6 11.6-.3 152.8z"/></g></svg>