<svg xmlns="http://www.w3.org/2000/svg" viewBox="0 0 620 414"><defs/><filter id="a"><feGaussianBlur stdDeviation="30"/></filter><rect width="100%" height="100%" fill="#493d31"/><g filter="url(#a)"><path fill="#9f9591" fill-opacity=".8" d="M460 260.8L657.4-7.8 27-1.5l129.3 191.9z"/><path fill="#dbdeef" fill-opacity=".7" d="M187.5 315.8l125.9 133.5-336-66 51 58z"/><path fill="#f3f2ed" fill-opacity=".9" d="M335.7-37.5L360.4 93 377 66.6l251.4-51.1z"/><path fill="#5d594f" fill-opacity=".7" d="M346.8 98l-44.5-46.9-89.4 384.1L657.5 18z"/><path fill="#a27877" fill-opacity=".8" d="M47.5 209l62.7 240.3-75.8-53L-10.2 145z"/><path fill="#b2adbf" fill-opacity=".6" d="M410 300.3l50-145 69-4.4 1 47.7z"/><path fill="#e7eef8" fill-opacity=".5" d="M530.9 337.1L493 295l32-31.3 27 35.4z"/><path fill="#c8a390" fill-opacity=".9" d="M92.3 292.3l77.5-8.5-88.7-14-118.6-23.5z"/><path fill="#000c2b" fill-opacity=".7" d="M557.5 262.3l-78.7-64.4 174.6 19.6-34.6 231.8z"/><path fill="#b9a6aa" fill-opacity=".4" d="M52 241.7L93.3-37.5h283l-253.4 145z"/><path fill="#011906" fill-opacity=".4" d="M192 64.2l130 15.5-11.2 31.5-105.8-4z"/><path fill="#615f65" d="M117.5 141.2L18.6-20.3l-56.1 58.8L89.4 11.4z"/><path fill="#616d98" fill-opacity=".5" d="M320.7 347.8l48.9 19.8 75 81.7-233.4-77.8z"/><path fill="#fad5e7" fill-opacity=".3" d="M460.4 158.9l.2-35.9-341.4 17.5 188.6 23.7z"/><path fill="#303740" fill-opacity=".9" d="M516.8 137l50-50.3 80 128.1-99.5-8z"/></g></svg>