<svg xmlns="http://www.w3.org/2000/svg" viewBox="0 0 620 414"><defs/><filter id="prefix__a"><feGaussianBlur stdDeviation="30"/></filter><rect width="100%" height="100%" fill="#5d2b34"/><g filter="url(#prefix__a)"><path fill="#aec2b4" fill-opacity=".7" d="M590.7-3.1L395-37.5l32.2 251.8 180.2 83.3z"/><path fill="#cdcdca" d="M283.4 255.3L237.8-5.3l76.3-17.5 18 118.7z"/><path fill="#050d0a" fill-opacity=".8" d="M236.6-37.5l24 481.7L2.9 431.8-37.5-15z"/><path fill="#b8ffe1" fill-opacity=".3" d="M245.6 323.3l33.2 65L474 228.5 10.7 261.8z"/><path fill="#5b584e" d="M657.5 303L411 403.7l59-441.2 33.3 285z"/><path fill="#000a08" fill-opacity=".6" d="M438.4 275.1l-39.5-270-82.1-42.6 16.5 139z"/><path fill="#fefcf7" fill-opacity=".4" d="M550-37.5l-69.7 1.9 24 341.7 54.2-160z"/><path fill="#031e19" fill-opacity=".6" d="M657.5 347l-51.3 85.5-289.4 16.8-111.4-75.8z"/><path fill="#d1f1e9" fill-opacity=".5" d="M312 230.8l-65.7 134.4 78.5-3.1-70-244z"/><path fill="#b9c9cf" fill-opacity=".7" d="M448 290.6l-17.9 116.8-11.6-27.9 6-78.7z"/><path fill="#f0f9ff" fill-opacity=".6" d="M407.1 61.5l33.7 214.1L431 35.8 404.9 17z"/><path fill="#1f1a13" fill-opacity=".6" d="M470 321.9l-46.4 92.5 87.4 4.8-60.5-456.7z"/><path fill="#0f0909" fill-opacity=".9" d="M275.1 219.2l1.7 22.3-314.3-22.3L226.7-37.5z"/><path fill="#101517" fill-opacity=".8" d="M322.1 332.5l98.6-14.8-8.5 103L308.3 345z"/><path fill="#002313" fill-opacity=".3" d="M570.8 430.9l-9-306.4 70 321.6-13.5-483.6z"/></g></svg>