<svg xmlns="http://www.w3.org/2000/svg" viewBox="0 0 620 414"><defs/><filter id="prefix__a"><feGaussianBlur stdDeviation="30"/></filter><rect width="100%" height="100%" fill="#5e443e"/><g filter="url(#prefix__a)"><path fill="#ebfcf1" fill-opacity=".4" d="M520.7 185l13.8 154.8L32.2 449.3l236.4-287.5z"/><path fill="#aba29a" d="M72.9 293.3L7.7 347.8l203.7 72.6-81.3-113.3z"/><path fill="#0e1414" fill-opacity=".6" d="M657.5 154.3l-141 40.2-263-232 404 28.3z"/><path fill="#2b2427" d="M-37.5 274V101.6l242.1 48-35.8 160.5z"/><path fill="#020c0b" fill-opacity=".7" d="M657.5 420.4l-182-9.6 108.9-179 66.1 15.2z"/><path fill="#f3e6e5" fill-opacity=".2" d="M362.3 184L178 221.7l299.8 67.8-83.5-273.9z"/><path fill="#7e6351" d="M432.8 403.5l-34.2-82.1-83.8-26.4L333 419.2z"/><path fill="#977354" fill-opacity=".9" d="M267.9 449.3l-48.2-204.4 144.6 26.4L125.4 337z"/><path fill="#91645b" d="M298.4 189.1L276 77.3 337.9 92l13.3 103.4z"/><path fill="#89a5ab" fill-opacity=".8" d="M540.3 319l-49.6-146.3-110.5 131.5 77 76.8z"/><path fill="#24201e" fill-opacity=".7" d="M94.2 280.7L-37.5-37.5 179 13-37.5 158.9z"/><path fill="#c7c0c2" fill-opacity=".8" d="M224.5 203.2l-17.4 54.5L347.5 209 255 171.5z"/><path fill="#9b7765" d="M411.5 255.3l-15.8-89-35-101L471 190z"/><path fill="#e3c697" fill-opacity=".4" d="M537.2 215l24.4-32.4L644 237l-69.3-6.1z"/><path fill="#38302f" fill-opacity=".9" d="M206.8 315l53-46-6 35.2-42.1 15.2z"/></g></svg>