<svg xmlns="http://www.w3.org/2000/svg" viewBox="0 0 620 414"><defs/><filter id="prefix__a"><feGaussianBlur stdDeviation="30"/></filter><rect width="100%" height="100%" fill="#51462d"/><g filter="url(#prefix__a)"><path fill="#f1eaec" fill-opacity=".7" d="M657.5 296L149 213.9l-21 181.8 479.3 53.6z"/><path fill="#7f714b" d="M162.5 179.5l11.1-91.3 484 127.3-321 74.9z"/><path fill="#140c05" fill-opacity=".6" d="M455.8 11.9L305.2 208.8l352.3-71.2-2.1-175.1z"/><path fill="#dabaa9" fill-opacity=".7" d="M283.1 99.3l50.9 300-169.3-189.6 207.8-67.5z"/><path fill="#2a241b" fill-opacity=".9" d="M217.7 338l-24.4-39.9 5.3-27.3-21 72.6z"/><path fill="#362b23" fill-opacity=".9" d="M-37.5 449.3l254.7-68.1-12.6 68-242.1-211.4z"/><path fill="#46411b" fill-opacity=".8" d="M326.2 309.5l78-157-127.4 41 30.3 27.4z"/><path fill="#d6d5d7" fill-opacity=".9" d="M540.8 269.6L216 401.8l-21 47.5 462.5-48.5z"/><path fill="#c0967f" d="M222.8 132.2L239.3 242l-53.5-7.7-17.2-146.8z"/><path fill="#4a2e1e" fill-opacity=".9" d="M11.1-37.5l-48.6 318.4 185-28.8 33.4-81.8z"/><path fill="#d2b8a7" fill-opacity=".9" d="M339.5 118l12.9 36.3-77 46.7-11.9-34.4z"/><path fill="#3c130c" fill-opacity=".5" d="M283.1 141.7L231.5 202l-1.4-139-81.4 17.4z"/><path fill="#232415" fill-opacity=".8" d="M369.3 265.2l145.1.7 143.1 27.6v-55.4z"/><path fill="#627524" fill-opacity=".4" d="M451.4 145.6L657.5 175l-96.1 77.5L303 287.7z"/><path fill="#ad7357" fill-opacity=".6" d="M344 366l-20.4 1.4-76.3-45.5 75.5 2.4z"/></g></svg>