<svg xmlns="http://www.w3.org/2000/svg" viewBox="0 0 620 414"><defs/><filter id="prefix__a"><feGaussianBlur stdDeviation="30"/></filter><rect width="100%" height="100%" fill="#6a433c"/><g filter="url(#prefix__a)"><path fill="#d5bfa0" fill-opacity=".7" d="M328.6 435.5L616 449.3l-43.4-176.4-532-310.4z"/><path fill="#bc9c7d" d="M-37.5 281.2L110.2-33.7l266-3.8L426.6 214z"/><path fill="#efefed" fill-opacity=".6" d="M593.8 408.3L541 270.5l-160.8 11.6-57.8 167.2z"/><path fill="#140500" fill-opacity=".6" d="M470.8 9.7l99 66.1-34.6 184.8L410 246.8z"/><path fill="#3f2b00" fill-opacity=".4" d="M324.5 430.4l-362-16.7 316.7-291 88.4 143.5z"/><path fill="#ffc977" fill-opacity=".5" d="M611.5 312L564.1 65.8 358.7-37.5 657.5 8.2z"/><path fill="#c3a686" fill-opacity=".6" d="M129.6 304.7L-37.5 275V122.8l497-160.3z"/><path fill="#311000" fill-opacity=".6" d="M9-37.5l70 11.8L91.3 83.8l-128.8 27.8z"/><path fill="#211a0a" fill-opacity=".5" d="M-8.5 393.8l345.9-84.3.7 14.5-66.6 125.3z"/><path fill="#a3856b" fill-opacity=".7" d="M579.8 305.6l-26-1-11-138.5 114.7-13.8z"/><path fill="#bc8f72" fill-opacity=".4" d="M455.3 141L377.8 27.6 117.7 370.1l342.5-197.7z"/><path fill="#0c0600" fill-opacity=".5" d="M596 159.8L353.1 39.2l83.6-24 74 15z"/><path fill="#480900" fill-opacity=".4" d="M354 123.8l-117.4 31.7-27.1-9.2 12.8 37.8z"/><path fill="#874b28" fill-opacity=".4" d="M241.7 449.3l197.4-300.6 150.6 131.5-358.9-46.7z"/><path fill="#c8ae90" fill-opacity=".9" d="M287.7-37.5L127.4 221.4l-165-3.7 14.8-73.1z"/></g></svg>