<svg xmlns="http://www.w3.org/2000/svg" viewBox="0 0 620 408"><defs/><filter id="prefix__a"><feGaussianBlur stdDeviation="30"/></filter><rect width="100%" height="100%" fill="#392e20"/><g filter="url(#prefix__a)"><path fill="#e0edf4" fill-opacity=".6" d="M534 333.5l-571.5-43.6v-178L488 53.8z"/><path fill="#e4ffff" fill-opacity=".3" d="M394.5 444.4l-57.1-335.9L641.8 2.9 628 387.5z"/><path fill="#5c6462" fill-opacity=".7" d="M196.9 413.4l-118 31-116.4-482h251.1z"/><path fill="#e0e3e3" fill-opacity=".9" d="M196.9 323.3l14-219.4 111-11.6 6.3 90.8z"/><path fill="#4c4d48" fill-opacity=".9" d="M312.4 328l-350 68 436.7 48.4-71-360.4z"/><path fill="#fefafa" fill-opacity=".5" d="M335.2 182.9l-2.7-89.2 119.7-4.6L487 352.6z"/><path fill="#505959" fill-opacity=".6" d="M619.3-37.5L-37.5 100l527.4-7.7L526.3 363z"/><path fill="#585c5d" d="M391.1 91l27.2 353.4-7.8-220.4-3.1-8z"/><path fill="#303435" fill-opacity=".8" d="M269.8 81.9l-9 148.7-.2 90.5 9.2 50.9z"/><path fill="#494b47" d="M453.9 339.3l6.5-21.6-336 11.2L570 430.4z"/><path fill="#42413a" fill-opacity=".9" d="M304.4 439.6l34-194.3-173-3.6 202.7-14z"/><path fill="#f9fcf6" fill-opacity=".4" d="M181 365.7l13.2-157 18.2-155.4-56.2 266.4z"/><path fill="#46494b" fill-opacity=".8" d="M192 162.3l205.4-10 70.3 3.2-260.6 12z"/><path fill="#abb6be" fill-opacity=".6" d="M603 341.5H501l52.6 103 20.4-86.8z"/><path fill="#fcfefb" fill-opacity=".6" d="M300.8 313l-82.1-73-13.3 87 114-89z"/></g></svg>