<svg xmlns="http://www.w3.org/2000/svg" viewBox="0 0 620 414"><defs/><filter id="a"><feGaussianBlur stdDeviation="30"/></filter><rect width="100%" height="100%" fill="#4f332e"/><g filter="url(#a)"><path fill="#aaa59d" fill-opacity=".8" d="M28.6-24l431.3 36-8 414.8L-37.5 411z"/><path fill="#290903" fill-opacity=".5" d="M105.4-37.5l9.9 486.3 75.5-.5-70-485.8z"/><path fill="#eef7ff" fill-opacity=".6" d="M185 222l-6.8 158.5 32.3 55L279 281.7z"/><path fill="#f4e5e7" fill-opacity=".6" d="M89.4 445.4L45 412.9 34.4-25.4l41.4-12.1z"/><path fill="#e5fdf8" fill-opacity=".4" d="M225 98.3l13.6-72.1 218 50 9.1 115.6z"/><path fill="#574d3a" fill-opacity=".7" d="M168.8 225l19.9-77.3 288.2 51.6 180.6 60.3z"/><path fill="#002c11" fill-opacity=".5" d="M305.4-35.4l346.8-2.1 5.3 139.7-278-46.7z"/><path fill="#440f07" fill-opacity=".4" d="M263.3 346l93.2-16.6-.5 119.9H252.4z"/><path fill="#55664d" fill-opacity=".7" d="M539.1 55.2l-22.8 369.1 124.8 25-10.2-167z"/><path fill="#fcf4f1" fill-opacity=".2" d="M258.7 256.7l44.8-38.7 70.2 197.4 145.8-114.8z"/><path fill="#594137" d="M16.5 449.3l11.6-8.5L16.2 42.4l-13 24.2z"/><path fill="#c8cac5" fill-opacity=".8" d="M334.7 226.4l8.5-39.7 51.6-85.7-82.1-138.5z"/><path fill="#b5bbb6" fill-opacity=".7" d="M268.3 162L296 69.5 216.8 20l31 236.6z"/><path fill="#1b381a" fill-opacity=".4" d="M423.3 272.5l22.8 43.6 198.1-148.7-196 2.4z"/><path fill="#44806a" fill-opacity=".6" d="M255-37.5l-.2 88.8L445-37.5l19.4 128z"/></g></svg>