<svg xmlns="http://www.w3.org/2000/svg" viewBox="0 0 620 414"><defs/><filter id="prefix__a"><feGaussianBlur stdDeviation="30"/></filter><rect width="100%" height="100%" fill="#734f40"/><g filter="url(#prefix__a)"><path fill="#d7d7d1" fill-opacity=".7" d="M580.5-33.2L547 437l-563.1-25.7.2-448.7z"/><path fill="#8f7969" d="M357.2 28.6l286.5 133.7 13.8 180L310.2 205z"/><path fill="#301201" fill-opacity=".6" d="M273 240.5L191.5 292 86.9 176l4 273.2z"/><path fill="#f2f1ef" fill-opacity=".8" d="M276.6 146l109-148.4L155.5-15l21 320.4z"/><path fill="#f4fcfb" fill-opacity=".6" d="M380.2 248.2l-87-54.7-163.1 255.8 312.4-.3z"/><path fill="#fbfdfe" fill-opacity=".8" d="M-37.5-37.5l90.8 21 36.6 189.7-111.7 111.1z"/><path fill="#ecefed" fill-opacity=".7" d="M384.4-22.5l229.5 11.1-169 116.8 1.5 146.7z"/><path fill="#331b0f" fill-opacity=".5" d="M148.7 449.3l-79-408.6 18.5-29 27 10.3z"/><path fill="#dad3c8" fill-opacity=".8" d="M657.5 94.5v239.7l-70.4-73.6-30.3-92z"/><path fill="#2e1001" fill-opacity=".8" d="M365.7 129.8l47.5 3-11.9-94-36.3-15z"/><path fill="#998375" fill-opacity=".9" d="M122 105.8l51.6 35.2 119.2-52.4L30 286.6z"/><path fill="#56412c" fill-opacity=".7" d="M440.5 98.3l55.5-16 52 50.4 40.3 206.8z"/><path fill="#190000" fill-opacity=".3" d="M174.1 255.3l-24.7 56.6-93.7 105.9-9-205.4z"/><path fill="#775642" fill-opacity=".9" d="M235.6 292.6L286.3 139l-35.9 44.8L178 348z"/><path fill="#926f5b" fill-opacity=".8" d="M429.6 373.2l-45.5-121.8-63.4-73.2 171 35.7z"/></g></svg>