<svg xmlns="http://www.w3.org/2000/svg" viewBox="0 0 620 414"><defs/><filter id="prefix__a"><feGaussianBlur stdDeviation="30"/></filter><rect width="100%" height="100%" fill="#4b294b"/><g filter="url(#prefix__a)"><path fill="#5f78cc" fill-opacity=".8" d="M76.3 47L253 249.5l55.7 199.8 165.6-333z"/><path fill="#061031" fill-opacity=".7" d="M208 449.3l-226.4-24.7-19.1-351.2 349.2 163.2z"/><path fill="#05a5ff" fill-opacity=".6" d="M243.9 385l56.4 64.3 62.7-67.9-37.3-172.9z"/><path fill="#120612" fill-opacity=".8" d="M657.5-37.5l-10.1 469-242.2 17.8L569.2-34z"/><path fill="#7192ff" fill-opacity=".5" d="M245.8 146.3L136.1 271.5l-32.7-161.8L174 25z"/><path fill="#0b070b" fill-opacity=".7" d="M19.4 449.3l-57-486.8 188.7 114-53.3 2.7z"/><path fill="#4e4690" fill-opacity=".8" d="M519.5 227.4L325.7-33.4 396.5 255 340 351z"/><path fill="#f0e1ff" fill-opacity=".3" d="M298.9 335.4l2.6-292.3-106.5 96 190 7.7z"/><path fill="#0b1021" fill-opacity=".7" d="M172 34.9l71.9 90 17-145-271-.2z"/><path fill="#393e2d" fill-opacity=".6" d="M614-37.5H226.6l126 195.2 19.5-85.3z"/><path fill="#8478be" d="M419 149.2l-66.6-67.8 26.1-14.6 42.2 8.5z"/><path fill="#a9a3f5" fill-opacity=".9" d="M184.3 151.1l65.9-17.4L178 46.3 156.7 60z"/><path fill="#41203a" fill-opacity=".7" d="M268.1 181l-3.4-48.8-302.2 159.9L195 145.8z"/><path fill="#fafcff" fill-opacity=".5" d="M96.1 12.1l3 26.4-26.7 6L85 4.7z"/><path fill="#69145c" fill-opacity=".5" d="M493.6 94.7l-10.2 221.1h57l40.9-17.7z"/></g></svg>