<svg xmlns="http://www.w3.org/2000/svg" viewBox="0 0 620 929"><defs/><filter id="prefix__a"><feGaussianBlur stdDeviation="30"/></filter><rect width="100%" height="100%" fill="#434344"/><g filter="url(#prefix__a)"><path fill="#b8b8b8" fill-opacity=".9" d="M1.5 861.1L-56.2.7l682.5-21 50.5 978.7z"/><path fill="#222" fill-opacity=".8" d="M160.4 985.2L83.8 500.1 308.5 26 500 74.4z"/><path fill="#fff" fill-opacity=".8" d="M643.4 872l-192 107.4L280.2 372l396.6-242z"/><path fill="#fff" fill-opacity=".7" d="M-3.6-56.2L53-4.4l66.4 976.6-134-103.8z"/><path fill="#292929" fill-opacity=".7" d="M373.8 898.9L196.7 291.4 78 429.7l75.5 555.5z"/><path fill="#fafafa" fill-opacity=".9" d="M315.7-56.2L668.4 292 592.2-51.2l-648.4 229z"/><path fill="#010101" fill-opacity=".8" d="M493.9 147l-82.4 179.2-237-193L373.2 38z"/><path fill="#d8d8d8" fill-opacity=".9" d="M59.5-45.4L45 456.2l183.3-202.5-91.1-310z"/><path fill="#e3e3e3" fill-opacity=".7" d="M364 793.3L628.5 54.4 254.7 471.8l39.6-188z"/><path fill="#0d0d0d" fill-opacity=".6" d="M259.5 327.3L421 313.5l-6.6-285.2L180 147z"/><path fill="#4f4f4f" fill-opacity=".7" d="M179.6 849.5l91.5-492-119.8-29 209.4 177z"/><path fill="#f8f8f8" fill-opacity=".9" d="M495.7-24L466 875l153.8 23.5-41.4-913.7z"/><path fill="#fdfdfd" fill-opacity=".9" d="M303.4 75.8l-85 13.5-64.9 93.6-7.3-239.1z"/><path fill="#070707" fill-opacity=".6" d="M494.3 176.7L462 238.4 207.2 96.5l233-48.6z"/><path fill="#828282" fill-opacity=".5" d="M290.3 384.3l55.9 421 210.8 180H311z"/></g></svg>