<svg xmlns="http://www.w3.org/2000/svg" viewBox="0 0 620 414"><defs/><filter id="prefix__a"><feGaussianBlur stdDeviation="30"/></filter><rect width="100%" height="100%" fill="#564329"/><g filter="url(#prefix__a)"><path fill="#e0dcdd" fill-opacity=".7" d="M159.1 105.4l59.4 336.1 217.2 7.8L380 39z"/><path fill="#a9a59a" fill-opacity=".5" d="M90 267.1l425.4 1.5-1.5-305.2-397.4 6.3z"/><path fill="#030003" fill-opacity=".8" d="M657.5 413.4l-159.8 35.9 28.8-358 131-128.8z"/><path fill="#e0dfe2" fill-opacity=".8" d="M188 317.8L215 182l175.4 4.4 28.1 162.7z"/><path fill="#0b0704" fill-opacity=".6" d="M-37.5 411.7l43-441.5L26.3 251 192 416.1z"/><path fill="#827969" fill-opacity=".9" d="M333.7 191L436.4-37.4 66.6 227.9 284.1-37.5z"/><path fill="#8d836f" d="M157 132.5l83.3-88.2-76.1 405 39.2-96z"/><path fill="#736e61" fill-opacity=".7" d="M360.9 106.3L415 263.5l97.6 52.3L519-37.5z"/><path fill="#302a22" d="M657.5-34.9l-32.9 166.2-108.5-12.1.5-84.3z"/><path fill="#0f0303" fill-opacity=".7" d="M432.5 395.3l214.9-158L657.5 437l-217.7 8.2z"/><path fill="#a45e40" fill-opacity=".4" d="M292 344.6l-80.8 53.6-17.2-48 28.8-45.3z"/><path fill="#d9e0e5" d="M220.1 414.4l171 11.9-26.6-40-98 4.8z"/><path fill="#c9b4ae" fill-opacity=".9" d="M230.6 166.6L264 56.2l84.8 148.2-42 30.5z"/><path fill="#91979c" d="M441.5 432.5l-40.7 7.3-30.3-53 46.8-40.2z"/><path fill="#6b5840" fill-opacity=".5" d="M103.4 3.6L15.3 209.3 41.2 353l169-390.6z"/></g></svg>