<svg xmlns="http://www.w3.org/2000/svg" viewBox="0 0 620 414"><defs/><filter id="a"><feGaussianBlur stdDeviation="30"/></filter><rect width="100%" height="100%" fill="#564135"/><g filter="url(#a)"><path fill="#939896" fill-opacity=".9" d="M646 258.4L355.7 13.8l-254.6 210L379.8 414z"/><path fill="#fafce8" fill-opacity=".5" d="M366.4-37.5L290.1 151 366 449.3l29.6-145.4z"/><path fill="#000e16" fill-opacity=".6" d="M8.7 228.9l-46.2 91 194.2 129.4 188.9-90.1z"/><path fill="#2b1801" fill-opacity=".4" d="M511 362l64.7-339.7L373 100l117.7 140.7z"/><path fill="#3a3430" d="M400.3 313.1l-16 25.2 11.4 52.3 88 27z"/><path fill="#f6f1fa" fill-opacity=".5" d="M405.7 282.4l58.8 76.5L505 226.4 436.7 204z"/><path fill="#576a78" fill-opacity=".6" d="M8.7 156l270.8-66.4 27.8 198.1 58.4 161.6z"/><path fill="#9b8677" fill-opacity=".7" d="M626-28.3L265 51.8l222.8-89.3L611 91z"/><path fill="#aba7ac" fill-opacity=".5" d="M558.7 144.1L515 262.3l120.8 83 21.8-81.6z"/><path fill="#a29449" fill-opacity=".4" d="M452-18l39.4 141.5-186-56.9-43.1-88.9z"/><path fill="#421704" fill-opacity=".6" d="M424 72l7-109.6L451.4 117 430 217.2z"/><path fill="#363f33" fill-opacity=".6" d="M-37.5 9.4l264.2 137.1L307 77.3 273.9-37.5z"/><path fill="#081822" fill-opacity=".6" d="M548.3 341.5L657.5 403 556.1 288l-20.4 21.8z"/><path fill="#8d9b9d" fill-opacity=".9" d="M-37.5 321.4l12.8-66.6 56.4 171.5-.5 23z"/><path fill="#d5e3f1" fill-opacity=".6" d="M365.2 321.4L426 449.3h-26l-71.6-95.5z"/></g></svg>