<svg xmlns="http://www.w3.org/2000/svg" viewBox="0 0 620 929"><defs/><filter id="prefix__a"><feGaussianBlur stdDeviation="30"/></filter><rect width="100%" height="100%" fill="#53443a"/><g filter="url(#prefix__a)"><path fill="#a4938a" fill-opacity=".9" d="M44.3 385.8l28.3 599.4h245l303-708.3z"/><path fill="#030010" fill-opacity=".5" d="M504.4 203.6l-51.9 397.7 224.3 332.8-466.3-237.7z"/><path fill="#ddeef2" fill-opacity=".7" d="M403.2 965.7L17.4 985.2l116.9-185.8 247.5-49.7z"/><path fill="#fedfc9" fill-opacity=".4" d="M397.7 531.6L216.3 597 34.5 478.7 360.7 327z"/><path fill="#e6f3ff" fill-opacity=".6" d="M446.4 677.9l47.9-311 86-73.3 24.6 10.1z"/><path fill="#041538" fill-opacity=".8" d="M614.4 304.1l62.4 646.3-279.8 9.8 20-217z"/><path fill="#4f1e02" fill-opacity=".4" d="M120.5 564.7l336.7 108.5-10.1-95.1L45.4 889z"/><path fill="#031209" fill-opacity=".6" d="M97.3 450.3L-25-56.2 676.8 85.3l-453.6 32.6z"/><path fill="#94654f" fill-opacity=".9" d="M204.3 149.9l89.3-61.4 1.4 358.6-136-78.8z"/><path fill="#d9fefc" fill-opacity=".7" d="M617-56.2l59.8 181.4v102L575.9 10.9z"/><path fill="#825842" d="M474.7 374.9l80.9-97L348.7 93.7l29.8 278z"/><path fill="#111a16" fill-opacity=".7" d="M627 123.7L578.5 248 174.2-56.2l334.2 21z"/><path fill="#251c1a" fill-opacity=".5" d="M478.3 780.6L265.3 524l56.6-21 176 185.4z"/><path fill="#251321" fill-opacity=".7" d="M389.7 441.3l-2.9-103 120.5 68.9-102 95z"/><path fill="#6f824c" d="M32 315l60.9 73.7L53.3 513l-70-116.8z"/></g></svg>