<svg xmlns="http://www.w3.org/2000/svg" viewBox="0 0 620 414"><defs/><filter id="prefix__a"><feGaussianBlur stdDeviation="30"/></filter><rect width="100%" height="100%" fill="#534b3b"/><g filter="url(#prefix__a)"><path fill="#d7e5db" fill-opacity=".5" d="M631.6 449.3L558.5-.2 140.2-15.5-37.5 408.8z"/><path fill="#d1eafd" fill-opacity=".7" d="M64.7 287l592.8-29.8-19.3 83.6 19.3-13.8z"/><path fill="#1c1d12" fill-opacity=".5" d="M273.7 241.5L269.3-5.8 180.4 0l10.4 270.5z"/><path fill="#282516" fill-opacity=".6" d="M459.7 263.7l44.5 2L520.7 39l-66.8-76.5z"/><path fill="#3f3c2d" fill-opacity=".7" d="M401.3 261l-72.4 9.3-3.2-264.5L395-37.5z"/><path fill="#6a6957" d="M123.3 174.9l-18.7 87.6-142.1 16.7L4.6-37.5z"/><path fill="#b3c4ca" fill-opacity=".9" d="M-37.5 260.8l497.2 53.6-468.4 16.4 42.1-241z"/><path fill="#cccab1" fill-opacity=".8" d="M558 356l10-328 89.5-29-149.4 2.2z"/><path fill="#d8d8be" fill-opacity=".8" d="M177.5-37.5l-58.1 5 2 322.6 62.2-81.8z"/><path fill="#f7feef" fill-opacity=".5" d="M250.2 312l302-4.4-218.5-48-27.3-297.1z"/><path fill="#fffedc" fill-opacity=".5" d="M402.3 75.8L420-37.5h44.3L431 319z"/><path fill="#cfc2a2" fill-opacity=".9" d="M433.5 141.2l196.4-4.4-400.5-25.6-267 .7z"/><path fill="#1f272b" fill-opacity=".8" d="M158.6 229.8L140 350l22.5-41.2 32.5 81.4z"/><path fill="#26261d" fill-opacity=".8" d="M568.2 207.3l13.8 58.9 25-3.7-38.8-233z"/><path fill="#090e0c" fill-opacity=".4" d="M14 121.6L78.7 265l37.3-18 6-125.2z"/></g></svg>