<svg xmlns="http://www.w3.org/2000/svg" viewBox="0 0 620 414"><defs/><filter id="a"><feGaussianBlur stdDeviation="30"/></filter><rect width="100%" height="100%" fill="#444c4b"/><g filter="url(#a)"><path fill="#ececec" fill-opacity=".9" d="M488.5-32.7l80 313-435.5 15 35.3-298z"/><path fill="#f5f5f5" fill-opacity=".8" d="M322.8 161.8l-5.3 287.5L178.7 434l26.7-471.5z"/><path fill="#070606" fill-opacity=".8" d="M390.2 211l-65.4 13.8.2 224.5 137-174.7z"/><path fill="#fdfeff" fill-opacity=".6" d="M489 119.6l50 278.8-85 50.9-13.3-410.8z"/><path fill="#080808" d="M-37.5-4.6l206.5-33-55.9 486.9H3.4z"/><path fill="#010101" fill-opacity=".9" d="M497.2-12.4l160.3-25.1v398.4l-51.3 88.4z"/><path fill="#080808" d="M550 437.4l-26.9-148.2 77.8-11.9 1.9 172z"/><path fill="#080808" fill-opacity=".9" d="M90.3 420.7l-46-154.5L182 302.5 175.6 439z"/><path fill="#121212" fill-opacity=".9" d="M439 227.9l12 221.4-23.3-57.7-103.2-9z"/><path fill="#0c0e0e" fill-opacity=".6" d="M560.2 38.5l86 26.4-184.3 17.4-.5-17z"/><path fill="#303436" fill-opacity=".5" d="M207.6 337.4l2.6 11.3 44.6 8.5 163.2-9.4z"/><path fill="#f2f3f3" fill-opacity=".8" d="M157.2 87.4l-19.9 160.8 132 92L458.7 20.9z"/><path fill="#f4f4f4" fill-opacity=".8" d="M441 68.5l-67.3 210-14.5-27.1L492.9 174z"/><path fill="#121515" fill-opacity=".6" d="M202.7 83l.7-15.4 11.9-7.5-242.7-9z"/><path fill="#e6e7e7" d="M470 266.6l5.2 159.6L441.8 309l31.7-38.2z"/></g></svg>