<svg xmlns="http://www.w3.org/2000/svg" viewBox="0 0 620 414"><defs/><filter id="prefix__a"><feGaussianBlur stdDeviation="30"/></filter><rect width="100%" height="100%" fill="#49312f"/><g filter="url(#prefix__a)"><path fill="#958d8d" fill-opacity=".8" d="M360.4 236.1l-320.2-5.8-77.7-226 680.3-33.6z"/><path fill="#9a9db2" fill-opacity=".7" d="M612.7 425.8l-335.2 23.5-157.9-129.9 282.2 1.3z"/><path fill="#1e1a1a" fill-opacity=".5" d="M481.7 29.5L134.2 84.3 387 169l83 250.7z"/><path fill="#ebeaf0" fill-opacity=".5" d="M103.2 77.3l-7.3 160.3L7.3-10.2l567.4 14z"/><path fill="#ffddd6" fill-opacity=".4" d="M408 263.7L347 46l-21.5 34.2-31.7 131.7z"/><path fill="#5b4440" fill-opacity=".9" d="M153.3 119.6L237.8 69l11.9 250.2 153 61.3z"/><path fill="#ecece9" fill-opacity=".6" d="M382.7 313.1l12.5-9.2 54.3 145.4-74.4-54.3z"/><path fill="#473537" d="M45.3 101.2L26.6 70.5l-9.2 30 56.7 313.2z"/><path fill="#826951" fill-opacity=".7" d="M523.6 234.4l-39.7 204 6.8-285.6 166.1 22.8z"/><path fill="#121618" fill-opacity=".6" d="M439.8 181.9l217.7-119-250.9 31.8-67.5 60.5z"/><path fill="#003eff" fill-opacity=".3" d="M234.4 365.2l15.3-62.2-157.2 18.9-37.5 76z"/><path fill="#2d2024" fill-opacity=".8" d="M185.8 193.3l24.2 90.5-139.3 61 19-78z"/><path fill="#e5e6e9" fill-opacity=".6" d="M17.7 71.2L4.4 141-19 27.9l249 14.2z"/><path fill="#88969a" fill-opacity=".9" d="M441.3 84.3l107.3-72 109-27.6L542 69.3z"/><path fill="#d5b599" fill-opacity=".4" d="M48.4 254l259.4-120-134.4 31.2L162.8-6.5z"/></g></svg>