<svg xmlns="http://www.w3.org/2000/svg" viewBox="0 0 620 414"><defs/><filter id="prefix__a"><feGaussianBlur stdDeviation="30"/></filter><rect width="100%" height="100%" fill="#65472d"/><g filter="url(#prefix__a)"><path fill="#eef6ed" fill-opacity=".5" d="M-31.7 449.3l-5.8-486.8h409.3L330 449.3z"/><path fill="#f1f1e5" fill-opacity=".7" d="M254.3-37.5L575.9 183l81.6-105V-31.2z"/><path fill="#0c0908" fill-opacity=".6" d="M163.7 273.2l109.2-14 60.8-183.4-3.6-47z"/><path fill="#010103" fill-opacity=".9" d="M481 358.2l-93.5-327-25.7 376 237.9 42z"/><path fill="#362d14" fill-opacity=".8" d="M40.7 183L13 114.7-37.5 248l189.4-58.1z"/><path fill="#938a81" fill-opacity=".9" d="M657.5 269.6L638.6 372l-59.3 67.8-129.6-114.3z"/><path fill="#fffcf5" fill-opacity=".6" d="M149.4 392.6l174.9-75.8-14.3-72.4-218.2 59.8z"/><path fill="#fef9ec" fill-opacity=".6" d="M234-37.5L-37.5 13.3l183 36.1 23.3 202.7z"/><path fill="#00020a" fill-opacity=".8" d="M386.3 39.5L347 197.9l132.4-16.3L316.1 45.3z"/><path fill="#faf6ec" fill-opacity=".8" d="M64.7 136.1L29.3-37.5-30-26.6l-7.5 158.1z"/><path fill="#978c7e" fill-opacity=".7" d="M406.1 61.5l116.3 197.9L590 1.2l67.5 189.4z"/><path fill="#fff5e5" fill-opacity=".6" d="M4.8 263.3l-15.5-86.7L-8 449.3l104.6-13.6z"/><path fill="#f3fdfc" fill-opacity=".4" d="M581 211.7l64-49.7-69.8 117.5 40 165.6z"/><path fill="#050403" d="M348 337.6l-2.9-84.5 119.4-83-27.1 279.2z"/><path fill="#917e6b" fill-opacity=".9" d="M340.8 313.4l55 135.9L72.1 408l177.3-16.7z"/></g></svg>