<svg xmlns="http://www.w3.org/2000/svg" viewBox="0 0 620 414"><defs/><filter id="prefix__a"><feGaussianBlur stdDeviation="30"/></filter><rect width="100%" height="100%" fill="#534433"/><g filter="url(#prefix__a)"><path fill="#b1998d" fill-opacity=".7" d="M620 449.3l-435.7-59.4L84.5-37.5l535.7 5.8z"/><path fill="#f7eae2" fill-opacity=".6" d="M416.3 366l153.3-15.3 39.7-78.7L573 116.5z"/><path fill="#e4e5e6" fill-opacity=".7" d="M505 153l-207.8 44.4 110 129-9.3-85.4z"/><path fill="#2d1500" fill-opacity=".5" d="M544.2 21l43.6 110.8-156.7-.5-.2-105.4z"/><path fill="#7e5145" d="M267.1 254.5l-129-63-82.4 44.6L337.4 421z"/><path fill="#311907" fill-opacity=".5" d="M285.3 154.8l82.8-192.3 25 177.2-33.5 59.9z"/><path fill="#effefa" fill-opacity=".6" d="M380.5 5.8l231.8-7.3-180.5 32.7-35.1 167z"/><path fill="#584c39" d="M-37.5 119.4l224.5 31-6-100.3L222 65z"/><path fill="#5b0e00" fill-opacity=".4" d="M554.9 257.4l-151.4-24.9-4.6 79.2L578 250.2z"/><path fill="#fae4ee" fill-opacity=".3" d="M104.9 314.8l118.6 105.6 32-68-20.3-38z"/><path fill="#5b402d" fill-opacity=".7" d="M639.9 349l-27.6-123.8-18.7 224-133.2-83z"/><path fill="#d4c0b7" fill-opacity=".9" d="M483 192l-68.4 154 63.7 103.3-62.2-311.7z"/><path fill="#3e291b" fill-opacity=".7" d="M262 220.1l-60.7-178-23.5 20.6 64.6 28.8z"/><path fill="#fddccf" fill-opacity=".3" d="M122 197.1L283.5 245l53-26.4-178.7-87.2z"/><path fill="#40403f" fill-opacity=".9" d="M214.6 449.3l132.5-97-46.5 97-22.8-149z"/></g></svg>