<svg xmlns="http://www.w3.org/2000/svg" viewBox="0 0 620 414"><defs/><filter id="prefix__a"><feGaussianBlur stdDeviation="30"/></filter><rect width="100%" height="100%" fill="#543e29"/><g filter="url(#prefix__a)"><path fill="#cbd7e8" fill-opacity=".8" d="M430.1 397.4l-216.2 23-65-55.2L275.4 165z"/><path fill="#b6bbc5" fill-opacity=".8" d="M7.5 449.3l-25-470.4 55.3 286.5 41.9 96.4z"/><path fill="#1b0a00" fill-opacity=".7" d="M425.5 249.7l-8.7 178.2 177.8 21.4L650.8 70z"/><path fill="#231614" fill-opacity=".8" d="M196.9 281.7l-100.3 162-32-201.5 214.2-18z"/><path fill="#cdd6e6" fill-opacity=".5" d="M355.5 243.4l-112.8 2L165.9 408l270-49.2z"/><path fill="#89694f" fill-opacity=".4" d="M373.7 146l-215 131-57.5-314.5L306.6-9z"/><path fill="#352010" fill-opacity=".9" d="M24.7 327.7L144.3 239 16.7-37.5 50 279z"/><path fill="#bdc4cf" fill-opacity=".9" d="M49.4 449.3l24.7-146-30.5 8.9L9.4 424.8z"/><path fill="#a7b6cb" fill-opacity=".7" d="M616.6 310.7l-18.4 138.6h59.3L638 129.6z"/><path fill="#4a392d" d="M17.4 375.6L-13 449.3l20.4-79.5 64.9-141.4z"/><path fill="#bca7a1" fill-opacity=".8" d="M302.5 392.8l-46-200.5-29-56.7 82 72.2z"/><path fill="#270c04" fill-opacity=".7" d="M42.4 191.6L199 449.3H50l27-142.4z"/><path fill="#48311c" fill-opacity=".7" d="M251.1 146.5l310 76.8 95.5-248.7-368 227.4z"/><path fill="#090200" fill-opacity=".4" d="M401.8 340.5l156 5.3 99.7-144.3L378.8 264z"/><path fill="#c2e3ff" fill-opacity=".4" d="M267.1 442l-94-122.8 51.2-68.5 51 32.9z"/></g></svg>