<svg xmlns="http://www.w3.org/2000/svg" viewBox="0 0 620 414"><defs/><filter id="prefix__a"><feGaussianBlur stdDeviation="30"/></filter><rect width="100%" height="100%" fill="#6f563e"/><g filter="url(#prefix__a)"><path fill="#b7b8b5" fill-opacity=".7" d="M13 370.3L-37.4 2.9l616.3-39.7L657.5 100z"/><path fill="#eaf5fd" fill-opacity=".6" d="M551.7 53.5l36.8 356.8.7-261.1 68.3-119z"/><path fill="#1e232e" fill-opacity=".6" d="M178.5 435.7l300.5-7.5-117-216.5-105.3 3.8z"/><path fill="#bfc7d1" fill-opacity=".6" d="M80.4 337.6l-118 76 167.7 35.7-20.6-486.8z"/><path fill="#7b786d" d="M442.5 69.8l175.3 379.5-82-366.2L641-19.4z"/><path fill="#fffff7" fill-opacity=".3" d="M203.7 180L-37.5 18.5l261.5-56-12.6 126.1z"/><path fill="#4f1800" fill-opacity=".4" d="M45 127.1L9.2 62l-46.7 113.6L174 179z"/><path fill="#010b19" fill-opacity=".8" d="M578.1 271.5l79.4-66.1L613 449.3 601.6 354z"/><path fill="#d5ded3" fill-opacity=".4" d="M352.6 443.4L307 313.1l-28.6 22.6V434z"/><path fill="#3c0001" fill-opacity=".5" d="M155.7 296.4l98.6 48.2 36 104.7L119 415z"/><path fill="#938274" d="M239 323.8L245.8.2l-43.6 286.3-17.4 30.8z"/><path fill="#001229" fill-opacity=".5" d="M397 399.1l153.7 50.2-12.8-209-84 110.4z"/><path fill="#3e2e00" fill-opacity=".4" d="M228.1 79.4l59.6 23.3 30.3-64-99.5 5.6z"/><path fill="#7a6c6b" d="M452.4 365.7L340.8 198.8l16.4-28.8 117.2 124.5z"/><path fill="#e8ecec" fill-opacity=".7" d="M593.6 449.3l-12.8-106.4.7-38 35.8 144.4z"/></g></svg>