<svg xmlns="http://www.w3.org/2000/svg" viewBox="0 0 620 414"><defs/><filter id="prefix__a"><feGaussianBlur stdDeviation="30"/></filter><rect width="100%" height="100%" fill="#654132"/><g filter="url(#prefix__a)"><path fill="#c6c1c1" fill-opacity=".8" d="M541 449.3l17.7-486.8 90.4 16.2 8.4 441z"/><path fill="#e5d2c3" d="M282 449.3l41-247.8 57.2 95.7-38.5 152z"/><path fill="#ead4ba" fill-opacity=".5" d="M251.4 449.3l.2-347.3-28-59.9-67.1-1.9z"/><path fill="#1d1400" fill-opacity=".6" d="M266 288.4L-6.6 449.3l-11-476.7 95-5.5z"/><path fill="#534e58" fill-opacity=".9" d="M378 334.5l131 114.3L591.3 226l-6-133.5z"/><path fill="#ffb994" fill-opacity=".4" d="M434.7 85.7l117.7 122.1-80.4 19.1-71.2-110z"/><path fill="#dbfefa" fill-opacity=".5" d="M196.4 328.9l63.2-1.5-4 39.8-35 41.9z"/><path fill="#041313" fill-opacity=".4" d="M389.2 365.5l169.3-51.6L165.7-37.5l195 296.9z"/><path fill="#fff8ff" fill-opacity=".5" d="M436.2 432.5L657.5 413 608.1-37.5l-13.8 389.2z"/><path fill="#1c1d0d" fill-opacity=".6" d="M593.1-37.5L-.5-9l-12 35.6 494.7 23.5z"/><path fill="#ffd4b5" fill-opacity=".4" d="M363 235.4L190.4 198l40.4-149.7L262.3 239z"/><path fill="#9390a6" fill-opacity=".7" d="M578.6 251.4l50.8 42.1-120.3 155.3 13.3-112.6z"/><path fill="#ffffd1" fill-opacity=".4" d="M657.5 168l-12-205.5-93 27.8L533 59.6z"/><path fill="#43341f" fill-opacity=".7" d="M358.7 236.6l82.8-223L221.6-32l38.8 220z"/><path fill="#feefe0" fill-opacity=".4" d="M362.8 232.7l-13.3 216.6L291 315.8l21.6-87.4z"/></g></svg>