<svg xmlns="http://www.w3.org/2000/svg" viewBox="0 0 620 414"><defs/><filter id="a"><feGaussianBlur stdDeviation="30"/></filter><rect width="100%" height="100%" fill="#392320"/><g filter="url(#a)"><path fill="#d4c7ba" fill-opacity=".9" d="M5.8 449.3l-43.3-448 662.5-14-98.8 382.2z"/><path fill="#92715f" fill-opacity=".9" d="M227.4 54l119.7-6.5 151 356.7-389.6 45z"/><path fill="#fffffc" fill-opacity=".7" d="M650.8-4.4L551.9 113l28.4 211.9L274.6-10z"/><path fill="#e4e5e0" fill-opacity=".9" d="M10 378L-36.9-37.4h280l-77 257z"/><path fill="#030303" fill-opacity=".5" d="M189.6 243l17.7-161.4 91-42.1-61.2 219z"/><path fill="#f4f5f1" fill-opacity=".7" d="M382.4 367.2l51.6 69.7-68.5-215 28-259.4z"/><path fill="#e8e1d4" fill-opacity=".7" d="M543.5 324.8l65.8-37.3-150.1-104 1.7 168.2z"/><path fill="#573533" fill-opacity=".9" d="M413.7 419.5l69.7-65.7 91.3-51 62.7 120.8z"/><path fill="#552c07" fill-opacity=".5" d="M597.2 46l60.3 106-112.3 128.5 5.3-80.7z"/><path fill="#cfccc4" d="M-36.8 263l211.2-46.2L218 272 9.2 415z"/><path fill="#905e43" fill-opacity=".6" d="M456.8 190.1l58.6 27.4-114.1-80v191z"/><path fill="#fcfeff" fill-opacity=".6" d="M376.4 36.3L19 87.2-37.5-37.5l695 75.8z"/><path fill="#f0f3f0" fill-opacity=".9" d="M382.9 263.3L370.3 223l-33.4 10.6 4.1 28.6z"/><path fill="#e1e8ce" fill-opacity=".6" d="M657.5 380v69.3H483l101.7-55.7z"/><path fill="#bd997d" fill-opacity=".7" d="M250.2 449.3l141.2-113.1-23.3-41H167.4z"/></g></svg>