<svg xmlns="http://www.w3.org/2000/svg" viewBox="0 0 620 414"><defs/><filter id="a"><feGaussianBlur stdDeviation="30"/></filter><rect width="100%" height="100%" fill="#4a3729"/><g filter="url(#a)"><path fill="#f3ffff" fill-opacity=".5" d="M-37.5-25.7l684.1-11.8 11 175.8-674.8 22.3z"/><path fill="#d4e7ed" fill-opacity=".8" d="M-37.5 276.3l60 109L144 372.7l-14-131.2z"/><path fill="#d7e2e6" fill-opacity=".8" d="M369.3 290.9l-77.7-69.3-1 161.5 82.6-11.1z"/><path fill="#2b2013" fill-opacity=".7" d="M206.1 340.5L202.5 6.1l99.3 3.8-34.4 276.6z"/><path fill="#f6fbfb" fill-opacity=".9" d="M151.6-1l-24.2 129-165-30.5L31-13.8z"/><path fill="#2f2114" fill-opacity=".8" d="M433.3-37.5h-43.1L377.3 434l26.2-1.5z"/><path fill="#f7feff" fill-opacity=".7" d="M395.3-14.3l-88-23.2L295 168.3l82.3-56.2z"/><path fill="#c3eefa" fill-opacity=".3" d="M657.5 319.7l-65.4-59.1-191 47.5L509.3 349z"/><path fill="#747671" fill-opacity=".8" d="M182.6 304.2l23-5.6-8.7-153.3-234.4-37.8z"/><path fill="#e8eff6" fill-opacity=".8" d="M657.5 79.7l-94.2 32.7-38.5-96.9 115-53z"/><path fill="#707f82" fill-opacity=".6" d="M-37.5 422.1l124-69.5 115.2-129.8-11.3 169.3z"/><path fill="#8f8777" fill-opacity=".6" d="M424.6-37.5l137.3 151.8 95.6 45-136 66.9z"/><path fill="#221f1a" fill-opacity=".6" d="M173.9 52.6l-3-46-43.3 58.3 170 41z"/><path fill="#0b0606" fill-opacity=".7" d="M133 411.2l257.4-33.9L644.2 322l-17.7 127.4z"/><path fill="#e9f1f4" fill-opacity=".7" d="M19.4 264.7l1 124L61.2 375l74.3-130.8z"/></g></svg>