<svg xmlns="http://www.w3.org/2000/svg" viewBox="0 0 620 414"><defs/><filter id="prefix__a"><feGaussianBlur stdDeviation="30"/></filter><rect width="100%" height="100%" fill="#445436"/><g filter="url(#prefix__a)"><path fill="#e4bbd7" fill-opacity=".5" d="M459.2-37.5l78 327.6-535.7-74 9.2-253.6z"/><path fill="#966457" d="M116 449.3l82.8-17L157-22.5-37.5 85z"/><path fill="#dff5ff" fill-opacity=".6" d="M345.6 36.3l-99.3 152.4 25.2 45L389 181.2z"/><path fill="#d7af98" fill-opacity=".7" d="M-37.5 69.3l257.6 380L92.5 137 63 91.5z"/><path fill="#13101c" fill-opacity=".8" d="M546.1 121.3l-24.7 212.4 96 115.6 40.1-368z"/><path fill="#380311" fill-opacity=".5" d="M59.3 7.3l124 347.5 105.9-121.3-114.6-52.6z"/><path fill="#b2d3f4" fill-opacity=".7" d="M207.3 20.8l-34.1 140.7 89.3 15.5-13.3-99.5z"/><path fill="#102402" fill-opacity=".4" d="M374.7 52.3l-28.1-89.8 80.6 21-42.1 275.2z"/><path fill="#f4f7e9" fill-opacity=".3" d="M310 101.5l204.9 216.7 19.6-109.7-33-10.9z"/><path fill="#812f2d" d="M125.5-29.5L97.8 148.2 161.3 304l14.8-225.2z"/><path fill="#28001b" fill-opacity=".7" d="M-.2 437.4l217.7-18.7-120.1 12.6-96-236.8z"/><path fill="#b1cdf8" fill-opacity=".5" d="M473.7 110.4L396.2 167 426 15.5l51.6-53z"/><path fill="#dad7cc" d="M26 33.4l30-5 72.1-66H-37.5z"/><path fill="#33231b" fill-opacity=".8" d="M73.1 96.9L-37.5 48.7-17.2 0l81.9 72.2z"/><path fill="#312123" fill-opacity=".5" d="M310.5 103.9L252.4 124l13-69 24.7-30.5z"/></g></svg>