<svg xmlns="http://www.w3.org/2000/svg" viewBox="0 0 620 414"><defs/><filter id="prefix__a"><feGaussianBlur stdDeviation="30"/></filter><rect width="100%" height="100%" fill="#364f3b"/><g filter="url(#prefix__a)"><path fill="#d9ded2" fill-opacity=".9" d="M657.5 3l-695-8 160 397.3 94-334z"/><path fill="#a8a4a1" fill-opacity=".8" d="M437.1-37.5H608l41.4 486.8-104.6-159.9z"/><path fill="#a8ae97" fill-opacity=".5" d="M-37.5 124.5L374.9 20.3 128 383l-91 10.1z"/><path fill="#08000c" fill-opacity=".7" d="M415.6 18.4l158.6 430.9-595.3-9.7 417.8-186z"/><path fill="#fafdff" fill-opacity=".6" d="M-37.5-18.6l299 40.2-72.6 87.6-226.4 103.4z"/><path fill="#3a8341" fill-opacity=".5" d="M57.6 365.7L108 279 53.5 94.5-22 420.9z"/><path fill="#31261f" fill-opacity=".9" d="M174.4 293l128.3-115.5 28.1-114.8 146.8 91.8z"/><path fill="#d2d4cf" fill-opacity=".5" d="M537.9 150.2l-46.7-65.7 112.3-122L585 136.8z"/><path fill="#100000" fill-opacity=".3" d="M194.2 206.3l19.7-141 179-77-82.7-25.8z"/><path fill="#60474c" fill-opacity=".4" d="M610.6 380L346 49.6l101.2-35.3 20.8 13z"/><path fill="#6a3b3a" fill-opacity=".4" d="M455.6 165.4l-272 211.4-91.3 3 32-82.9z"/><path fill="#919289" fill-opacity=".6" d="M231.5 213.1l35.6-225.5 89.4-17.9-75.3 237.9z"/><path fill="#ffd" fill-opacity=".3" d="M378.3 106.3l11.4-40.7 44-103.1L330 32z"/><path fill="#b7beb0" fill-opacity=".7" d="M32.2 81.9l165.7 128-40 109.3 11.4 7.8z"/><path fill="#7aa478" fill-opacity=".6" d="M394 239.5l-14.7-58.1-49.2 74.1 57.2-1z"/></g></svg>