<svg xmlns="http://www.w3.org/2000/svg" viewBox="0 0 620 414"><defs/><filter id="prefix__a"><feGaussianBlur stdDeviation="30"/></filter><rect width="100%" height="100%" fill="#4c2b25"/><g filter="url(#prefix__a)"><path fill="#808b8d" fill-opacity=".6" d="M532.3-37.5L636.7 388 405 434.2 355-37.5z"/><path fill="#cfd9dd" fill-opacity=".9" d="M96.1-6l199.4 149.6-25.7-14L-13.6-37.5z"/><path fill="#000c0c" fill-opacity=".6" d="M598.4-37.5l-79.6 227.9L257.7 61.3l-8.2 388z"/><path fill="#ced0d2" d="M566-37.5L415.6 144l108.3-97 66.3-57.4z"/><path fill="#98b7bb" fill-opacity=".4" d="M201 162.3l-19.6 287-77.3-329.4L25 319.4z"/><path fill="#dad0ca" fill-opacity=".4" d="M526.5 109l6.3 88.6L354.6 170l303 153.6z"/><path fill="#cfd4d8" fill-opacity=".8" d="M366.4 155.7l28.4-110.9 5-35.6-31.4-46.7z"/><path fill="#dbe7e7" fill-opacity=".8" d="M-37.5 49.4l179.4 68.3L26.4 86.5l-60.8-18.2z"/><path fill="#c5ebfb" fill-opacity=".5" d="M249 36.3l91.3 90.4L246-14.5l-24.7-16.7z"/><path fill="#100f10" d="M386.8 422.4L353-37.6 219 402l130.6 33.7z"/><path fill="#060c14" fill-opacity=".6" d="M437.9 109.7l96.6-147.2H430.6l-50.1 214z"/><path fill="#031a20" fill-opacity=".5" d="M533 75.6l98.1 257L624-37.6 491.2 79.9z"/><path fill="#d1cdd1" fill-opacity=".4" d="M407.8 190.8l74.2 29.8-86.3 133.2 112.9 78z"/><path fill="#21160f" fill-opacity=".6" d="M511.3 320.2l-325-125.7 358.1 112.8-4.8 142z"/><path fill="#00070c" fill-opacity=".8" d="M19.1 127.4l-56.6-39v355.5l90 5.4z"/></g></svg>