<svg xmlns="http://www.w3.org/2000/svg" viewBox="0 0 620 414"><defs/><filter id="prefix__a"><feGaussianBlur stdDeviation="30"/></filter><rect width="100%" height="100%" fill="#6b5237"/><g filter="url(#prefix__a)"><path fill="#b5aa8f" fill-opacity=".7" d="M275.4-9.7l344.1-22 1.5 481-658.5-41.5z"/><path fill="#000200" fill-opacity=".4" d="M256 94.2L251 228l-273.3-39-15.2-216.3z"/><path fill="#565244" fill-opacity=".8" d="M657.5 203.4l-330.8-26.1L542.3 1.5 505 79.9z"/><path fill="#f5f6f0" fill-opacity=".9" d="M279.7 83.8L238.1-37.5l85.7 33.1 26.9 71.7z"/><path fill="#d1bd98" fill-opacity=".8" d="M-34.4 449.3l22-190.6 125.7 45.5 466 132z"/><path fill="#d0d3ce" fill-opacity=".8" d="M78.7-37.5L172-21.8l27.6 54.7-80.7-6.7z"/><path fill="#e0c59b" fill-opacity=".5" d="M588.3 398.4L156.9 276.8l175.6-34.4 322.9 28.4z"/><path fill="#7f6039" fill-opacity=".7" d="M33.7 251l373.2 100.7 30.2 34.1L43.6 280.9z"/><path fill="#3d372a" d="M235.9 8.5l20.8 114.8-67.8 45.5 41-88z"/><path fill="#96acb5" fill-opacity=".5" d="M575.4 101.7L487 82.3 473.7-37.5 264.5 111.9z"/><path fill="#592602" fill-opacity=".4" d="M279 307.6L261.6 63.9 346 205.1l-53-49.6z"/><path fill="#6b6d62" fill-opacity=".9" d="M657.5 186.2v-117l-328.9 88.5L423 93.5z"/><path fill="#ffefc5" fill-opacity=".3" d="M189 162.8l36.2-106.4 1 27-82.6-25z"/><path fill="#be9f6e" fill-opacity=".5" d="M93 210.2l-130.5-29.8 78.4 80.2 494.6 13.3z"/><path fill="#ceb9a1" d="M359.2 205.6l10.1 10L226.4-24l93.8 187.7z"/></g></svg>