<svg xmlns="http://www.w3.org/2000/svg" viewBox="0 0 620 414"><defs/><filter id="prefix__a"><feGaussianBlur stdDeviation="30"/></filter><rect width="100%" height="100%" fill="#5c5c34"/><g filter="url(#prefix__a)"><path fill="#c9cbd1" fill-opacity=".8" d="M340.3 148l207-144.1-392.8-9.7 3.6 168z"/><path fill="#d7dcec" fill-opacity=".7" d="M177.3 360.9L117 342.7l57.9-129 177.2 8.9z"/><path fill="#181217" fill-opacity=".8" d="M589.7 117.5L366 164.9 244.4 449.3l413.1-40.7z"/><path fill="#222124" fill-opacity=".8" d="M294.7 283.6l-332.2-.5L66.8 133.7 241.7 354z"/><path fill="#0e0909" fill-opacity=".8" d="M210.2 188.2L282.6 98l11.4 13.8-17.4 117.5z"/><path fill="#0c0b0a" d="M-7.3 449.3L468 435 30.8 329 5.3 26z"/><path fill="#fff" fill-opacity=".5" d="M18.2-34.6L341.5 148 305.9-37.5 29.3 89.9z"/><path fill="#0b0c0e" fill-opacity=".9" d="M113.6 106L79.9 85.6 106.8 50l128.4 49.4z"/><path fill="#7f7f7f" fill-opacity=".7" d="M340-6l3 142.4L484.8 154 580-37.5z"/><path fill="#dde3ff" fill-opacity=".4" d="M339.5 188l-48.9 179.9-40 8.5L288 217z"/><path fill="#808585" d="M57.4-37.5L76.8 82.3l59.3 65L16.5 145z"/><path fill="#f7faff" fill-opacity=".5" d="M171.7 277.3l177.5-11.4L204.4 201l-39.7-9.2z"/><path fill-opacity=".7" d="M657.5 381.2l-427.2-82.6 82.4-23.5-15.8 174.2z"/><path fill="#cbd1d7" fill-opacity=".6" d="M114.6 346.3L233.5 372l-4.4-43.8-47.5-61.3z"/><path fill="#3d3631" fill-opacity=".7" d="M657.5-25.7L542.7 54.7l-244 237.4 352 53.7z"/></g></svg>