<svg xmlns="http://www.w3.org/2000/svg" viewBox="0 0 620 929"><defs/><filter id="prefix__a"><feGaussianBlur stdDeviation="30"/></filter><rect width="100%" height="100%" fill="#6a493b"/><g filter="url(#prefix__a)"><path fill="#ceccca" fill-opacity=".8" d="M6.2 985.2l-53.7-701.4L222-56.2l454.7 975.8z"/><path fill="#1e1504" fill-opacity=".4" d="M628.5 492l-324.4 31.7-12.3-230.1L623-56.2z"/><path fill="#bfc4c4" fill-opacity=".8" d="M349.5 101.6L71.5-51.5l-89 21.7 295.1 342.6z"/><path fill="#f8fcff" fill-opacity=".5" d="M344 627.4L-20.3 985.2l-36-42.4V139.3z"/><path fill="#a4a09f" d="M572.3 610.4l-462 305.5L625 982.7l51.9-363.6z"/><path fill="#351400" fill-opacity=".6" d="M215.6 250.4L266 271l-29.8 83.8-74.4-43.2z"/><path fill="#9d7157" fill-opacity=".7" d="M503.7 639l90.7-23.2-269.6-455.4L344 381z"/><path fill="#8a8176" d="M284.5-42.8L249-53.3l3.7 211.2 55.5-70z"/><path fill="#655a55" fill-opacity=".6" d="M454 932.3L511.3 779l-75.5 12.4L333.5 970z"/><path fill="#6c390f" fill-opacity=".3" d="M234.4 444.9l24-77.3L80.2 540.3 270.4 515z"/><path fill="#d1c4bc" fill-opacity=".7" d="M319.7 572.6L411.2 445l133.1 312.8-279.8 64.6z"/><path fill="#312a22" fill-opacity=".6" d="M625.6 611.8l32-617.2-248.6 9-69.3 98.7z"/><path fill="#454b3f" fill-opacity=".7" d="M91.8 147.7l40.7 14.9-106-163 5.4 181.1z"/><path fill="#d8dbdb" fill-opacity=".7" d="M296.5 284.9l75.5-7L282.3 156 34.8 179.6z"/><path fill="#645c57" fill-opacity=".5" d="M192.3 819l18.9 128.5 91 37.7-59.4-242.4z"/></g></svg>