<svg xmlns="http://www.w3.org/2000/svg" viewBox="0 0 620 414"><defs/><filter id="prefix__a"><feGaussianBlur stdDeviation="30"/></filter><rect width="100%" height="100%" fill="#644e38"/><g filter="url(#prefix__a)"><path fill="#dedcdd" fill-opacity=".7" d="M72.9 449.3h274.6L180.7 67l-52.8 50.4z"/><path fill="#cdaa83" fill-opacity=".6" d="M616.9 449.3L622.4 0 469.8-22.3l9 466.2z"/><path fill="#e5def5" fill-opacity=".8" d="M346.3 224.5l61.8-82.6 48.7 34.2-52.3 66.6z"/><path fill="#051439" fill-opacity=".8" d="M217.2 101.5L252.8 252l103 171.7-1.2-247z"/><path fill="#a67b58" fill-opacity=".7" d="M412-37.5L181.6 4l-41.9 111 234.7-20.6z"/><path fill="#0a0b0e" fill-opacity=".8" d="M-29.8 107.5l-7.7 146.3 103.4-10L59 110z"/><path fill="#1e181d" fill-opacity=".7" d="M311.7 203.7l121.8-71.2 43.6 76.5-14.5-246.5z"/><path fill="#8f784d" fill-opacity=".9" d="M360.6 449.3l297-103.2-13.1-76.8-287.3 35.9z"/><path fill="#8d7d79" fill-opacity=".7" d="M23.5-36.8l225.2 430.4 39.5-93.5-187.7-65z"/><path fill="#f8fcff" fill-opacity=".4" d="M104.1 421.2l46-263.8 70-46.5-2.6 338.4z"/><path fill="#080201" fill-opacity=".5" d="M469.1 153.3L430 218.5l-56.7 66.8 107.3 4.6z"/><path fill="#988f64" fill-opacity=".6" d="M57.6 233.2l129.6 21.6-28.6-71.7-100 243z"/><path fill="#252739" fill-opacity=".8" d="M270.3 113.1l-6.6-26-85.2 4.2 239.3 192z"/><path fill="#ddeefa" fill-opacity=".4" d="M442.5 78.2L427 90l-3 41.8 14.6 23.3z"/><path fill="#32271a" fill-opacity=".7" d="M30.3 137.3l-15-123.7 57.6 122.3L232.5-37.5z"/></g></svg>