<svg xmlns="http://www.w3.org/2000/svg" viewBox="0 0 620 414"><defs/><filter id="prefix__a"><feGaussianBlur stdDeviation="30"/></filter><rect width="100%" height="100%" fill="#654b36"/><g filter="url(#prefix__a)"><path fill="#cbcbbe" fill-opacity=".8" d="M-37.5-.2l50.8 376.6 593.1 72.9 51.1-456z"/><path fill="#4b4736" d="M80.6 284.6l77 74.3-53 90.4L-37.5 380z"/><path fill="#3d2f1f" fill-opacity=".9" d="M255.3 337.1l118.6-6.5-56.6 74.6-60.6-40.5z"/><path fill="#e1dbd1" fill-opacity=".8" d="M89.1 449.3h69.3l147.2-186.8L510-37.5z"/><path fill="#4b4a30" fill-opacity=".6" d="M456.8 283.8l30.7 88.4 57-30 12.8-70.7z"/><path fill="#ebe7dc" fill-opacity=".7" d="M390-37.5l267.5 206.8L284.1-37.5-37.5 345.4z"/><path fill="#fffcf6" fill-opacity=".5" d="M657.5-24.5L398.6 291.1l-85.2 158.2 115-105z"/><path fill="#603510" fill-opacity=".6" d="M245.3 191.8l-3.6 40.2-116-28.6 45.5-32.2z"/><path fill="#f0ece2" fill-opacity=".6" d="M-37.5 18.2l250.9-42.4L84 29.8 349.5 256z"/><path fill="#fffdf8" fill-opacity=".4" d="M465.2 449.3l97.6-141.5-371-345.3 450 340.5z"/><path fill="#5e451b" fill-opacity=".4" d="M243.9 164.7l13.5-86.5 57 4.6-5.9 106.6z"/><path fill="#e3ded6" fill-opacity=".7" d="M-9.7 152.3l355.3 297-56-2.5-327.1-269z"/><path fill="#2f1200" fill-opacity=".2" d="M466.2 449.3l1.5-45.8-144.1-131.8-223.6-5.3z"/><path fill="#756854" fill-opacity=".7" d="M562.6 367.9l-18.4 71.7 113.3-40-62.2-69.7z"/><path fill="#4b5e6d" fill-opacity=".4" d="M525.5 184.5l20.4 78.8 111.6-49.4-83.5-66.4z"/></g></svg>