<svg xmlns="http://www.w3.org/2000/svg" viewBox="0 0 620 414"><defs/><filter id="prefix__a"><feGaussianBlur stdDeviation="30"/></filter><rect width="100%" height="100%" fill="#373d54"/><g filter="url(#prefix__a)"><path fill="#ebe0d0" fill-opacity=".5" d="M589.2-30.5l-141.4 245-467.4 63.3L-18.4 3z"/><path fill="#7fb1e1" fill-opacity=".7" d="M411.5 267.1l-33.7-131 144.8 50.6-32 57.4z"/><path fill="#392712" fill-opacity=".5" d="M217 172.4L578.8 37.8l52.8 258.6-182.8-156z"/><path fill="#b1afab" fill-opacity=".6" d="M189 440.3l186.1-1.5L273 352l-68.5-8.5z"/><path fill="#1c1006" fill-opacity=".6" d="M74.1 301.5l324.5 60L426.2 247l-350.9 4z"/><path fill="#f5f6f7" fill-opacity=".6" d="M139.7 148.5l-152-36.6-20-67.8 210.8 89.3z"/><path fill="#edf0e6" fill-opacity=".7" d="M581.3-37.5l76.2 95.1V-13l-50.3 80.4z"/><path fill="#20171b" d="M334.7 214.8l-36.8 158 109-93.3-13.3-64.4z"/><path fill="#a7a3a7" fill-opacity=".7" d="M14.8 264.2L137 140.7l-91.3 200L90 356.4z"/><path fill="#5f5953" fill-opacity=".6" d="M194.2 71L80.4 449.3h66.4l62-332z"/><path fill="#81bceb" fill-opacity=".4" d="M568.4 275.6l-52.8-36.8-146.3-102.4 221.9 198z"/><path fill="#100905" fill-opacity=".7" d="M375.1 86l.8 26.4-38.3 4.3 8.7-17.9z"/><path fill="#bdc0c5" fill-opacity=".2" d="M565.5 334.5L530.4 84 96.6 88.2 559.7-37.5z"/><path fill="#161b20" fill-opacity=".7" d="M533.3 215.8l-50.1-19.9 96.4 184L441 308z"/><path fill="#1e1911" fill-opacity=".7" d="M564.3 55.7L657.5 357l-27 81.1-62-191.3z"/></g></svg>