<svg xmlns="http://www.w3.org/2000/svg" viewBox="0 0 620 414"><defs/><filter id="prefix__a"><feGaussianBlur stdDeviation="30"/></filter><rect width="100%" height="100%" fill="#5a3e33"/><g filter="url(#prefix__a)"><path fill="#9fa393" fill-opacity=".6" d="M102.7 285.3l-140.2-94.2L448 84l209.5 59.8z"/><path fill="#f1e4c8" fill-opacity=".7" d="M166.6 449.3L529.4 438l72.2-79.2-294.3 26.4z"/><path fill="#412001" fill-opacity=".7" d="M584.2-37.5L87.9 3.9l-3.6 130.8 82 41.9z"/><path fill="#ded1b8" fill-opacity=".5" d="M183.3 117.5l204.2-6.3 47 111.4L278 210.2z"/><path fill="#502500" fill-opacity=".7" d="M-37.5 430.4l261.8-245.6 91.3 73.6 342 80.7z"/><path fill="#c0ccd6" fill-opacity=".9" d="M190.1 223.8L71.2 180.7 90.8 146l107.6 45.3z"/><path fill="#286479" fill-opacity=".8" d="M-37.5 297.2l125-56 136 .7-155-62.2z"/><path fill="#401e00" fill-opacity=".9" d="M657.5 50.9l-13-88.4-464.3 61.7L342 103.7z"/><path fill="#87643f" fill-opacity=".8" d="M657.5 190.6V74.8l-205.3 8-63 150.4z"/><path fill="#4a2302" d="M643.3 355.8l-556.1 8L350.9 280l306.6-45.8z"/><path fill="#e2fcff" fill-opacity=".4" d="M-17 173.4l6.6 48.2 49.6 8 123.8 52z"/><path fill="#806254" fill-opacity=".5" d="M462.3 251.4l-273 46.7-226.8-8 370.3-84.5z"/><path fill="#bae2fe" fill-opacity=".4" d="M218.7 120.6l78 104.4-22.3-.7 64.2-103.7z"/><path fill="#8c551c" fill-opacity=".6" d="M297 213.6l81-168.3-66.3 227.4 75.6-157.4z"/><path fill="#d2e9f6" fill-opacity=".7" d="M465.7 449.3l-193.2-25 38.2-34.9 126-6.7z"/></g></svg>