<svg xmlns="http://www.w3.org/2000/svg" viewBox="0 0 620 414"><defs/><filter id="a"><feGaussianBlur stdDeviation="30"/></filter><rect width="100%" height="100%" fill="#33385d"/><g filter="url(#a)"><path fill="#a78685" fill-opacity=".8" d="M657.5 449.3H120.1L-37.5-37.5l695 136.8z"/><path fill="#40383b" d="M316.8 278.5L242.7 31l265.9-68.5-52.6 271z"/><path fill="#d3ccdf" fill-opacity=".7" d="M104.4 449.3l342.7-92-277.8-80.7-76.3 33z"/><path fill="#ccd5cc" fill-opacity=".6" d="M390.9-8.5l9.2 233.7-54.3-28-10.9-88z"/><path fill="#ffe1ee" fill-opacity=".7" d="M344 389.7l70.9-116.5 162.7-231-117.7 269z"/><path fill="#2a0e08" fill-opacity=".9" d="M475.4 339l23.3-37.2 88.8 66-13 67.4z"/><path fill="#c6cbd6" fill-opacity=".9" d="M134.4 132l73.4 1.2L99.1-37.5l214.8 25z"/><path fill="#3e2c2d" d="M119 173.2l57.6 100.5-214.1 73.6L72.9 395z"/><path fill="#fbc49b" fill-opacity=".3" d="M72.7 138.3L40 424l-77.5-1V-7.5z"/><path fill="#f3d8e5" fill-opacity=".7" d="M481.2 242.2l67.1-101.5L522.4 43l-44.3 60.3z"/><path fill="#000107" fill-opacity=".7" d="M485.1 148.7l-83.6 140.5-1.2-82.9L415 15.7z"/><path fill="#01000b" fill-opacity=".8" d="M332.8 271.7l-61-103.4.2-98.3 68.8-58z"/><path fill="#f1726a" fill-opacity=".5" d="M628.5 356l25.2-338.8-183.9 237.3 13.8 51.4z"/><path fill="#ede8ff" fill-opacity=".5" d="M289 186.5l-79-36.3 135 136.3-70.2 94z"/><path fill="#24140d" d="M59.8 449.3h46.8L78 263.5l-45 45.8z"/></g></svg>