<svg xmlns="http://www.w3.org/2000/svg" viewBox="0 0 620 929"><defs/><filter id="a"><feGaussianBlur stdDeviation="30"/></filter><rect width="100%" height="100%" fill="#644d3b"/><g filter="url(#a)"><path fill="#d1e6f2" fill-opacity=".6" d="M82 658l155.3 101.2 299.8-37.8L322.6-56.2z"/><path fill="#190c06" d="M676.8 909.8l-705.1 75.4L78.4-56.2 81.7 787z"/><path fill="#000414" fill-opacity=".8" d="M-56.2 22.1l94-78.3 200.6 312.8-102.7 201.7z"/><path fill="#968f96" fill-opacity=".7" d="M435.5-56.2l-19.3 358.9-265.6-142 14.9-174.9z"/><path fill="#e3ead7" fill-opacity=".7" d="M283 447l13.5-248.9-190.2 382.5 136.1 218.5z"/><path fill="#311202" d="M565.7 253.7l103.5 31.2 7.6-278-215.6 21z"/><path fill="#090104" fill-opacity=".8" d="M671.7 694.6l-187.6 164 5 106.7 160.8 20z"/><path fill="#626972" fill-opacity=".8" d="M568.3 600.6L405 112.5l34 468.9 113.6 128z"/><path fill="#434c5b" fill-opacity=".5" d="M451.4 875.3L236 835l43.5-240.2L397 670.6z"/><path fill="#fcffe6" fill-opacity=".6" d="M422.8 592.6l115.7 112.9-119 43.5v-85.3z"/><path fill="#facd6f" fill-opacity=".7" d="M32 263.1l8 39.2-96.2-43.2 9.4-239.9z"/><path fill="#7b592d" fill-opacity=".4" d="M37.4 559.6V391.9l-93.6 241.3 295 127z"/><path fill="#9f604a" d="M268.9 108.5l-73.7 12-82-53.7 86-108.9z"/><path fill="#b1b0ba" fill-opacity=".8" d="M280.9 106.7L255-56.3l55 413.8-138.4-233.8z"/><path fill="#323a42" fill-opacity=".5" d="M349.1 845.5l327.7-28.3L548 200.7l9.8 483z"/></g></svg>