<svg xmlns="http://www.w3.org/2000/svg" viewBox="0 0 620 414"><defs/><filter id="prefix__a"><feGaussianBlur stdDeviation="30"/></filter><rect width="100%" height="100%" fill="#433526"/><g filter="url(#prefix__a)"><path fill="#e2ddd9" fill-opacity=".5" d="M55.7 435l576-411.3-511.3-41.9-156.5 139.3z"/><path fill="#1e2018" d="M178.7 296.7l26.4 152.6 452.4-40.7-152-157z"/><path fill="#cfd5de" fill-opacity=".7" d="M523.4 281.2l46.2 12-22.3-103-32 4.3z"/><path fill="#716959" d="M588.8 119l-122.1 40L265.4-9.4l238.1 66.3z"/><path fill="#ffdef6" fill-opacity=".5" d="M79 191.6l80.6 226.7-134.9-58 13-132.2z"/><path fill="#c5defc" fill-opacity=".5" d="M289.9 13l6 116.3-99.5 4.4L110-37.5z"/><path fill="#766549" fill-opacity=".9" d="M-37.5 218.2V-13l215.8 153.8L167.6 48z"/><path fill="#c4bca4" fill-opacity=".5" d="M270.5 201.5L446.8 76.8l-94.7 197.1-63 10.2z"/><path fill="#515a57" fill-opacity=".5" d="M260.4 305l175.3 20.5-212.6 63.7-260.6 41.2z"/><path fill="#0f0f08" d="M577.4 283.6l32-203 48.1 330.1-411 34.4z"/><path fill="#000003" fill-opacity=".4" d="M446.6 196.9l117.5-62-134.7 209-111.9-171.2z"/><path fill="#f6fbd2" fill-opacity=".6" d="M279.7-34.1L571.3 69 293.8-4.6l33.2-2z"/><path fill="#5b543c" fill-opacity=".7" d="M311.7 77.5l-7.8 114L287.7-6 457 51.1z"/><path fill="#59564a" fill-opacity=".8" d="M343.7-21l79.9 36.7 113.8 28.4L630 18.6z"/><path fill="#aeb7c4" fill-opacity=".9" d="M97.4 103.2l44.8-37.8 145.5 5.8L94.2-29.1z"/></g></svg>