<svg xmlns="http://www.w3.org/2000/svg" viewBox="0 0 620 414"><defs/><filter id="prefix__a"><feGaussianBlur stdDeviation="30"/></filter><rect width="100%" height="100%" fill="#5a2a27"/><g filter="url(#prefix__a)"><path fill="#c8e0d2" fill-opacity=".6" d="M-14.8-37.5h648.4l-14.8 357.2-656.3-138.5z"/><path fill="#6a736a" fill-opacity=".5" d="M368.4-37.5l44 486.8h-450L-26.8 271z"/><path fill="#ffe" fill-opacity=".2" d="M490.7 341.5L650 293.3 618 55.7 216 252.8z"/><path fill="#383130" fill-opacity=".9" d="M212.9 350.7L64.7 195.9l176 20.6L1.5 355.8z"/><path fill="#1b2322" fill-opacity=".8" d="M657.5 430.4L489.2 395l10-121.3 23 15.5z"/><path fill="#afccfe" fill-opacity=".3" d="M33.7 246L20 109.3 278.8 206l-156-7.5z"/><path fill="#b19677" fill-opacity=".8" d="M341.5 258.4L308 306l13.8 91.8 27 51.6z"/><path fill="#1b1b1a" fill-opacity=".7" d="M266.9 258.4l-100.3 83.3 142 14L244 276z"/><path fill="#ddd3bd" fill-opacity=".7" d="M325.5 103l-136.4 39.4L-30 126l200 5.1z"/><path fill="#866f5c" d="M430.9 265.2l40.6 9 22.3 48.9-24.2 79z"/><path fill="#240d0a" fill-opacity=".7" d="M423.3 278.8l-36.8 146.7-40.7-68.3 109.5 20.6z"/><path fill="#9e988d" fill-opacity=".7" d="M107 287l-144.5 80.2 63.7-66 91.3 25.3z"/><path fill="#a9e3ff" fill-opacity=".2" d="M157.4 343.4l137.3 43.9-133 62L94 359.2z"/><path fill="#4b1b08" fill-opacity=".3" d="M534 117.7l-399.1 25 23 36.8 228.6-20.9z"/><path fill="#6f5a4f" d="M655.6 289.7l-122.3 36 5-78.4 60.9 133.9z"/></g></svg>