<svg xmlns="http://www.w3.org/2000/svg" viewBox="0 0 620 414"><defs/><filter id="prefix__a"><feGaussianBlur stdDeviation="30"/></filter><rect width="100%" height="100%" fill="#3c2c20"/><g filter="url(#prefix__a)"><path fill="#e8e9e6" fill-opacity=".6" d="M657.5 441.8L-22 410.4l18.6-413 640.8-4z"/><path fill="#432813" fill-opacity=".7" d="M245.8 449.3L228 336.9l-234-.7 319.2-106.4z"/><path fill="#110703" fill-opacity=".9" d="M507.4 146.8l-12.4-47-73.8 8.2 65.4 56.2z"/><path fill="#5e320d" fill-opacity=".7" d="M129.8 48.7l37 28.6-2.6 62.2L90.1 117z"/><path fill="#78472e" fill-opacity=".8" d="M9.7 266.2l-47.2 23.5 191.3 91 26.6-51.3z"/><path fill="#bec5c6" fill-opacity=".8" d="M424.6 109.5l233-97.4L34-37.5 482.4 354z"/><path fill="#494234" fill-opacity=".4" d="M359 301l-62-86.4-55.3-252.1L228.1 376z"/><path fill="#f6faff" fill-opacity=".6" d="M213.6 449.3L217 370-8 449.3l92.3-109.5z"/><path fill="#fffffd" fill-opacity=".3" d="M138 219l13.4 76-112.7-27L89-16.2z"/><path fill="#c3c7c6" fill-opacity=".8" d="M401 294.3l124-179.7L287 36l370.5 20.3z"/><path fill="#82533a" d="M-37.5 449.3L76 313.9l30.3-3.7L4.8 426.7z"/><path fill="#d9ddde" fill-opacity=".7" d="M210.2 383.9L159 427.7l8.5-76 60.5-43z"/><path fill="#5a2901" fill-opacity=".4" d="M402.5 441.8l-16-97 86.7 26.5-29-77.3z"/><path fill="#7a2004" fill-opacity=".4" d="M423.3 135.6l100 26-49.6 28.3-45.8-9.5z"/><path fill="#cdd4d7" fill-opacity=".8" d="M166.4 69l-204-77.2L247-37.5l-25 201.2z"/></g></svg>