<svg xmlns="http://www.w3.org/2000/svg" viewBox="0 0 620 414"><defs/><filter id="a"><feGaussianBlur stdDeviation="30"/></filter><rect width="100%" height="100%" fill="#404040"/><g filter="url(#a)"><path fill="#cecece" fill-opacity=".9" d="M261 402l-8.4-327.4L636.2 16l21.3 213z"/><path fill="#fff" fill-opacity=".3" d="M93.2 44.6L49.6 139 324 438.8l83.8-459.6z"/><path fill="#353535" fill-opacity=".9" d="M566.7 103.2l17.2 346-50.8-306 18.6-174.4z"/><path fill="#505050" d="M423.3 449.3l-30.7-275.7.2-211.1 32 198.6z"/><path fill="#636363" fill-opacity=".9" d="M474.7 280.2L327 309.8l-6.8 103.1 337.3-138.7z"/><path fill="#b3b3b3" fill-opacity=".6" d="M108.5 286.3l3.9 163H189l164.5-48z"/><path fill-opacity=".8" d="M7.3 449.3l-44.8-381L128 228.6l51.6-18.1z"/><path fill="#e7e7e7" d="M657.5 310.5l-80.1-9.7-8-253.6 72.2-9.7z"/><path fill="#010101" fill-opacity=".5" d="M203.2 218.2l83.6 20.4-43.2-141.7-55.9-4.4z"/><path fill="#fff" fill-opacity=".7" d="M181.6 147.3l11.2-57.7-79.5 11.6-8 64.5z"/><path fill="#f3f3f3" d="M428.2 274h114.5l-8-218-109.9 32.2z"/><path fill="#bdbdbd" fill-opacity=".4" d="M1.2-18.4l57 69.5L273.6 109l-17.2-82.6z"/><path fill="#111" fill-opacity=".9" d="M657.5 391.4l-35.3-86.2H512.5l5.5 81z"/><path fill="#f9f9f9" d="M304.7 91.8l-27.9 207.8 117 5-3-195.6z"/><path fill="#010101" fill-opacity=".4" d="M562.8 100.8l1.7-69.8L324 82.6l210.8-23.3z"/></g></svg>