<svg xmlns="http://www.w3.org/2000/svg" viewBox="0 0 620 414"><defs/><filter id="a"><feGaussianBlur stdDeviation="30"/></filter><rect width="100%" height="100%" fill="#554037"/><g filter="url(#a)"><path fill="#c5deed" fill-opacity=".5" d="M50.9 77.5l188.9-66.1L-37.5-6.3 64.9 377.6z"/><path fill="#bd9d82" fill-opacity=".5" d="M171.2 407.6l475.4 32.5-179-223.1-72.8 49.4z"/><path fill="#0d1014" fill-opacity=".8" d="M572.3 29.3l80-39.2-530.5 59.3 475.7 185.3z"/><path fill="#d1dce6" fill-opacity=".9" d="M55.2 66.6l3.4-39-96.1-56.2L10.7 91.8z"/><path fill="#00070f" fill-opacity=".6" d="M82.3 226l96.2 198.3-178.7 5.3 200.7-237.3z"/><path fill="#ddd5c3" fill-opacity=".7" d="M573 449.3l-125-51.1-135.6-11.7-6.3 29.8z"/><path fill="#3a3e49" fill-opacity=".6" d="M-32.5 202L83.3 33.2l-72-62.7L407.7 158z"/><path fill="#281e1c" fill-opacity=".6" d="M417.8 224.8L240.2 216l61.8 58.4 170.5 26.4z"/><path fill="#c0b5b5" fill-opacity=".6" d="M578.1 100.5l23.3 26 3.1-74.7-31.2-1.2z"/><path fill="#f5cea7" fill-opacity=".4" d="M158.1 251.9l131.3 31-54.7-49-96.2 9.7z"/><path fill="#051218" fill-opacity=".5" d="M596.8 315.6l-85.3-1.2 53 64.9 93-32.7z"/><path fill="#b4c095" fill-opacity=".4" d="M60 223.3l31.8 140.5-32.7 8.7L-13.1 133z"/><path fill="#0b0002" fill-opacity=".5" d="M240.3 257.7L164.7 369l22.3 35.8 92.5-105.3z"/><path fill="#ffb998" fill-opacity=".2" d="M460.9 347.3L433 227.9l214 11.4-20.8 30z"/><path fill="#e8eadf" fill-opacity=".5" d="M503.8 449.3l-107.6-70.8-117.4-28.8 109.2 5.6z"/></g></svg>