<svg xmlns="http://www.w3.org/2000/svg" viewBox="0 0 620 414"><defs/><filter id="prefix__a"><feGaussianBlur stdDeviation="30"/></filter><rect width="100%" height="100%" fill="#444344"/><g filter="url(#prefix__a)"><path fill="#ddd" fill-opacity=".7" d="M-37.5-5.8v141.2l695-80.4-1.4-92.5z"/><path fill="#ebeceb" fill-opacity=".6" d="M18.6 174.9L-27 379.5l52.8-8 28.8-76z"/><path fill="#0d0e0d" fill-opacity=".7" d="M606.2 439.6l51.3-327-267.8-31.2 36.3-119z"/><path fill-opacity=".5" d="M28.3 129.8l268.9-48.7-116.5 368.2h-103z"/><path fill="#d1d2d1" fill-opacity=".3" d="M473.5 71.7l61.5 35.1-14.3 80.9-404-82.6z"/><path fill="#8c8c8c" d="M216.3 236.9l15 140.2 20.8 22 43.9-93z"/><path fill="#151515" fill-opacity=".7" d="M270.8 53.5l69 276.6-36.6 119.2L236 52.6z"/><path fill="#fefffe" fill-opacity=".5" d="M-37.5 140l132.2-19L179-37.4-30-11.6z"/><path fill="#dedede" fill-opacity=".7" d="M293.3 147.7L283.8 58l37.6 46.7 5.3 119.4z"/><path fill="#000100" fill-opacity=".4" d="M644.7 438.6L634 246.1l-426-47.5 236.2 207.3z"/><path fill="#959595" d="M576.9 34.1l72.9 49.5-70.7 16.7-100.5-70.5z"/><path fill="#040404" fill-opacity=".6" d="M413.4 119.2L392 80.6l66.8-4.6L418 284.3z"/><path fill="#ededed" fill-opacity=".6" d="M395.7 174.4L359-30.3 326.2 83.3 429 115.8z"/><path fill="#585858" fill-opacity=".8" d="M158.6 265.7l-31 67.8-.2 115.8 53.5-97.6z"/><path fill="#323232" d="M384.6 172L342 188.4l-18-86.7 56-3.1z"/></g></svg>