<svg xmlns="http://www.w3.org/2000/svg" viewBox="0 0 620 414"><defs/><filter id="prefix__a"><feGaussianBlur stdDeviation="30"/></filter><rect width="100%" height="100%" fill="#455c35"/><g filter="url(#prefix__a)"><path fill="#e8eeef" fill-opacity=".9" d="M657.5 1.5l-483.9-39 9.5 154 408-43.6z"/><path fill="#8c9b83" d="M103.7 140l-54.3-9.7-16.2-76.5 190.6-37.3z"/><path fill="#1d260b" fill-opacity=".7" d="M-37.5 91l43 358.3 652-72.7-522.8-108z"/><path fill="#dcb2cf" fill-opacity=".5" d="M490.4 198.6l167.1 9.7-213.3 36 22.5-115.2z"/><path fill="#0b0c18" fill-opacity=".3" d="M168 233L329 55.2l6.3 22 322.3 74z"/><path fill="#8a9c82" fill-opacity=".6" d="M657.5 82.8L108 134.7 511.7 58l5.1 11.7z"/><path fill="#353f1b" d="M174.6 375l197.9-103.8 285-41.6-49.1 219.7z"/><path fill="#fff" fill-opacity=".6" d="M599 113.8l-43-49.1-277.5-3.2 287.7-99z"/><path fill="#fffffe" fill-opacity=".6" d="M104.6 105.1l-51.3 26 74-1L148 70.5z"/><path fill="#163407" fill-opacity=".8" d="M108 101.5l18.4-10.2-5.3-30.3-27.4.3z"/><path fill="#1e3017" fill-opacity=".9" d="M657.5 86.7l-176.3 53.5 5.6 55.5 170.7-1.7z"/><path fill="#2c4818" fill-opacity=".5" d="M225.5 66.4l-61.3-97.6-1 336.8-16.4-295.4z"/><path fill="#dfe5df" fill-opacity=".5" d="M202.2 140.5L166.4 34.9l110.2 53.3-37.3 45.7z"/><path fill="#314921" fill-opacity=".9" d="M196 96.9l-52.1-7 14 180.9 24.7-207.3z"/><path fill="#092100" fill-opacity=".6" d="M-8.2-37.5L98.6 19.4 25.6 79 88 112.9z"/></g></svg>