<svg xmlns="http://www.w3.org/2000/svg" viewBox="0 0 620 414"><defs/><filter id="a"><feGaussianBlur stdDeviation="30"/></filter><rect width="100%" height="100%" fill="#4f312a"/><g filter="url(#a)"><path fill="#e8e8e5" d="M556.3-37.5l-45 158.4L105 200.5 16.2-36.8z"/><path fill="#b5b5b3" fill-opacity=".4" d="M221.1 449.3l272.2-111.7L598.2-26.2l-334 192.6z"/><path fill="#634b46" fill-opacity=".7" d="M315.6 199.6l-272 249.7 3.9-258.5 125.7-23.2z"/><path fill="#dbe8ff" fill-opacity=".3" d="M261.6 449.3l-29.8-34.7 6.3-86.4L413.9 28.6z"/><path fill="#1f251b" fill-opacity=".7" d="M413.7 396.2l31.7 53-109.2-48.1L284 243.4z"/><path fill="#00180c" fill-opacity=".3" d="M657.5 68.3v145.8l-310-8.5 38.8-66.6z"/><path fill="#cd8e76" fill-opacity=".6" d="M349.5 339l229.8-6.7-197.9-48L268.1 40z"/><path fill="#ffdbca" fill-opacity=".3" d="M46.5-37.3l185 435.7L91.8 178l-19.6 70.7z"/><path fill="#feffff" fill-opacity=".4" d="M521.4 62.5L9.2-37.5l72 131.7 170 92.8z"/><path fill="#492519" fill-opacity=".4" d="M286.8 120.6l48.1 35.6-24.2 70-43.8-95z"/><path fill="#a68674" fill-opacity=".8" d="M552.7-11.6L489 316l2.6-72.2 9-181.4z"/><path fill="#002823" fill-opacity=".3" d="M228.4 298.9L164.2 99l-14.8 79.1L183.1 307z"/><path fill="#4e3223" fill-opacity=".7" d="M495.8 310.5l-43-118.7-18 74.8-29.6 20.6z"/><path fill="#270a08" fill-opacity=".6" d="M31.5 341l-69 70.7 27.8-426 64 142.9z"/><path fill="#92adff" fill-opacity=".4" d="M379.5 233.2l8.7-18.6 64.4-13.8-48.9 85.5z"/></g></svg>