<svg xmlns="http://www.w3.org/2000/svg" viewBox="0 0 620 414"><defs/><filter id="prefix__a"><feGaussianBlur stdDeviation="30"/></filter><rect width="100%" height="100%" fill="#3b271f"/><g filter="url(#prefix__a)"><path fill="#b1b3b2" d="M363.5 299.1l-365.4-2-35.6-303 360.8-4.8z"/><path fill="#0a0b0d" d="M229.4 377L213 183l-136 1-8.6 264.6z"/><path fill="#dfecfb" fill-opacity=".4" d="M535-30.8L508.4-13l1 462.4 81.5-36.6z"/><path fill="#feffff" fill-opacity=".8" d="M26.9 308.3l104.8-190.6L283.1 14.3l-320.6.2z"/><path fill="#494641" fill-opacity=".9" d="M285.3 228.6l-4.4-266.1h-22.5l5.6 377.3z"/><path fill="#fff" fill-opacity=".2" d="M248.7 449.3l-76-427L401 152.6l-51.6 257.2z"/><path fill="#020000" fill-opacity=".8" d="M136.6 396.5l52.5 52.8-18.4-329.9-38.2-7.8z"/><path fill="#f8fafa" fill-opacity=".9" d="M250.2 274.2l-87.4-164-83.1-88 180.4 8z"/><path fill="#060000" fill-opacity=".6" d="M484.1 260.1l-244.6-6 143.2 36.3 45.2-328z"/><path fill="#7c8790" fill-opacity=".3" d="M657.5 1.5l-38.2 447.8-154.3-218L498-2.2z"/><path fill-opacity=".7" d="M466.7 161.3L325.5 74.8l-.5-62.4 155-50z"/><path fill="#fffffe" fill-opacity=".6" d="M294.3-7.5l77 254.8-78.5 5.8-8-140.2z"/><path fill="#16222a" fill-opacity=".5" d="M85 121.3L75.6-37.5l-.5 221L95.7 381z"/><path fill="#0a0000" fill-opacity=".8" d="M478.8 388l9.2 61.3-114.8-79L461-37.5z"/><path fill="#d7f4fe" fill-opacity=".4" d="M179 440.8l79-95 31.7-6.7-66.4 110.2z"/></g></svg>