<svg xmlns="http://www.w3.org/2000/svg" viewBox="0 0 620 414"><defs/><filter id="prefix__a"><feGaussianBlur stdDeviation="30"/></filter><rect width="100%" height="100%" fill="#2f3d49"/><g filter="url(#prefix__a)"><path fill="#f2e2d3" fill-opacity=".8" d="M197.1 5.6l-11.8 214.3 472.2-29L632-37.6z"/><path fill="#846e5c" d="M253.8 186l28.8-110.2 375 186.7-60.4 186.8z"/><path fill="#caa18b" fill-opacity=".7" d="M285.8-23.7l-170.3 215L2.5-37.5-14 96z"/><path fill="#fafcf8" fill-opacity=".7" d="M243-37.5l414.5 37-63.2 135.2-132.7 62.2z"/><path fill="#361100" fill-opacity=".5" d="M396.5 100.5L489 388.2l-220 61 60.4-367.1z"/><path fill="#989691" fill-opacity=".7" d="M657.5 449.3H453.6L498 210.9 657.5 68.5z"/><path fill="#fff" fill-opacity=".5" d="M185.3 250.7l66.8-2.5 38.5-285.7h-45.5z"/><path fill="#eff1ee" d="M25.7-37.5l4.6 64.9 5 54.2-72.8-14.8z"/><path fill="#eeb995" fill-opacity=".5" d="M214 291.4l49.5 157.9-34.4-53.3 75.9-82z"/><path fill="#9b735f" fill-opacity=".8" d="M127.9 183.3L33.4 94.5 160.4-18l64.8 121z"/><path fill="#000a1e" fill-opacity=".7" d="M-37.5 97.4l159.3 74.8 96.2-11.6-107.8 92.7z"/><path fill="#f0f2f2" fill-opacity=".9" d="M232.3-33L469 23 196.7 128.4l21 60.5z"/><path fill="#9d7460" fill-opacity=".8" d="M327.7 123.8l-13.1 104.6-68.5 19.4L266.4 107z"/><path fill="#a06430" fill-opacity=".5" d="M366.4 83.8l63.7 268.8 70.5 58.6 43.1-92.2z"/><path fill="#001737" fill-opacity=".6" d="M121 314.8l61.4 134.5h-220V250.2z"/></g></svg>