<svg xmlns="http://www.w3.org/2000/svg" viewBox="0 0 620 414"><defs/><filter id="a"><feGaussianBlur stdDeviation="30"/></filter><rect width="100%" height="100%" fill="#573429"/><g filter="url(#a)"><path fill="#d3c0b3" fill-opacity=".6" d="M632.8 446.4l-13.3-214.1L15-37.5l-31.2 486.8z"/><path fill="#755746" d="M643 179l-427.2 99.8-79-167.2L534.5-7.7z"/><path fill="#ffeddf" fill-opacity=".5" d="M132 449.3l431.6-7.8 94-122.3-87.7-121.8z"/><path fill="#a8836f" fill-opacity=".9" d="M529.2 439.6L351.4-37.5l-28 129.8 95.8 254.5z"/><path fill="#f4fbeb" fill-opacity=".7" d="M22 449.3l76.8-80-136.3-109 33.1 189z"/><path fill="#2f1b0f" fill-opacity=".6" d="M86.5 197.4l27-40.5 3.7-130.5-40.4-43.6z"/><path fill="#381f11" fill-opacity=".6" d="M174.1 208.3l-4-216.8 111.3 320.2L406 163.5z"/><path fill="#883b2b" fill-opacity=".7" d="M237.8 311.2l34.4 99.8-63.7-31.5L42 251z"/><path fill="#f4f7ff" fill-opacity=".4" d="M25.7 195L-.5 272.5l210.2-23.3-79-75.6z"/><path fill="#d2dce9" fill-opacity=".5" d="M374.4 434.5l43.1-131.8-57.4-103.6-102.7 249z"/><path fill="#ffd3c0" fill-opacity=".5" d="M269 147.7l-57.6-2.6V28.3l69.3 93.3z"/><path fill="#b2b6be" fill-opacity=".7" d="M46.5-37.5L-8.2 196.2l-29.3 83L85.7 91.1z"/><path fill="#1f1006" fill-opacity=".6" d="M209.7 138.5l96 109.5 33.1-159.8L232 285.8z"/><path fill="#fbdecc" fill-opacity=".7" d="M491.4 314.1l12.4-117.7 97 56.2-19.3 196.7z"/><path fill="#3e1605" fill-opacity=".3" d="M293 410.8L39.5 425.4 142.9 353l15.7-29.3z"/></g></svg>