<svg xmlns="http://www.w3.org/2000/svg" viewBox="0 0 620 414"><defs/><filter id="prefix__a"><feGaussianBlur stdDeviation="30"/></filter><rect width="100%" height="100%" fill="#453e3a"/><g filter="url(#prefix__a)"><path fill="#c2c7cc" fill-opacity=".6" d="M562.4 57.6L483.9 293l-243.2-5.8L205 69z"/><path fill="#2f2c2c" fill-opacity=".8" d="M350.2 225l-4.8-133.5-203.7 67.6 515.8 24.2z"/><path fill="#fefdfe" fill-opacity=".7" d="M166.9 80.6l240.7 22 79.2 78.8L522.2 71z"/><path fill="#f7f9fb" fill-opacity=".5" d="M497.5 238.6l-39 51.8-240-10.2-.3-49z"/><path fill="#010203" fill-opacity=".6" d="M-25.2 280.2l24.7 169h658L650 305.5z"/><path fill="#4b4544" d="M235.4 108.3l210-12.4-127.7 67.6-131.5 105z"/><path fill="#1b1917" d="M-37.5 195.7L187.9 21.6-37.5-37.5l142.4 486.8z"/><path fill="#e5dae4" fill-opacity=".7" d="M500.8 47l8.3 121-72-141.4 53.3 10z"/><path fill="#fefff5" fill-opacity=".5" d="M211.4 64.2l69-62.5-61 107L433.8 72z"/><path fill="#838483" fill-opacity=".9" d="M519 175.1l110-48.4-87.7-2.2-49.7-104.6z"/><path fill="#131a20" fill-opacity=".8" d="M304.7 67.6l157 3.1-15.1-28.3-114.6-80z"/><path fill="#201b17" fill-opacity=".8" d="M112.6 221.1l31-258.6-114.5 345 403.4 102.3z"/><path fill="#8c6635" fill-opacity=".8" d="M174.4 150.6L140 46.3l-30.5 202.4 19.6-8.4z"/><path fill="#050b0b" fill-opacity=".5" d="M341.7 200.5l90.4 9.5-76.8-114 79.2 11.2z"/><path fill="#ffd5ab" fill-opacity=".3" d="M335.2 147.3l-34.6-67.1-9.7 122 52.3-7z"/></g></svg>