<svg xmlns="http://www.w3.org/2000/svg" viewBox="0 0 620 414"><defs/><filter id="prefix__a"><feGaussianBlur stdDeviation="30"/></filter><rect width="100%" height="100%" fill="#694a37"/><g filter="url(#prefix__a)"><path fill="#c8b9b1" fill-opacity=".7" d="M601.1 449.3l50.6-269.4-630.6 51.4 387.2 218z"/><path fill="#c3d7cd" fill-opacity=".4" d="M628.5 114.3L160 127.1 22.8 2l608.1 13z"/><path fill="#c1b5b0" fill-opacity=".9" d="M143.4 167.1L205 296.7 54.7 269.6l12.6-66.4z"/><path fill="#f7ffff" fill-opacity=".6" d="M400 16.2l4.2 124.3-28 56.2-18-161.8z"/><path fill="#60493a" fill-opacity=".7" d="M173 249.2l85.2 61.8 116.2-94.7L347.3-14z"/><path fill="#e0dedd" fill-opacity=".8" d="M611.5 270.8l-17.9 178.5H389.9l52.3-62z"/><path fill="#521c10" fill-opacity=".6" d="M373.7 301.8l50.1 32.2 114.3-18-111.4 75.6z"/><path fill="#f2f7f4" fill-opacity=".6" d="M350.2 41.4l181 4.4 47.1 76L570 13.1z"/><path fill="#977e73" d="M333.3 439.8l-25.5-188.7-98.3-72.8 40.2 246.5z"/><path fill="#130500" fill-opacity=".7" d="M220.6 232.5l-16 54.5-49.1-117.5 39.7-27.8z"/><path fill="#aa846d" fill-opacity=".8" d="M657.5 130.3l-127.4 19.6L490 57.2l-24.4 208.2z"/><path fill="#eef8fc" fill-opacity=".5" d="M333 268.3L318.2 319l90.4 130.3-39.5-226z"/><path fill="#433123" fill-opacity=".9" d="M407.1 120.1l.3 125.5 55.7-115L483.9 47z"/><path fill="#f9cbcb" fill-opacity=".6" d="M47 375.6l-35 13.1 6.3-51.8 26.9 6.3z"/><path fill="#130c04" fill-opacity=".6" d="M434.5 3l-13 20-101.8 7.5-54.3-19.4z"/></g></svg>