<svg xmlns="http://www.w3.org/2000/svg" viewBox="0 0 620 414"><defs/><filter id="prefix__a"><feGaussianBlur stdDeviation="30"/></filter><rect width="100%" height="100%" fill="#4e4740"/><g filter="url(#prefix__a)"><path fill="#ddddd2" fill-opacity=".8" d="M657.5 277V18.7L168.8-37.5l101 319.4z"/><path fill="#988d79" fill-opacity=".7" d="M398.6 432.8L222.8 262.5l-2.4-150.9 372.5 159.2z"/><path fill="#030e04" fill-opacity=".7" d="M224 449.3L199.8 193l124-30.5-361.3-67.8z"/><path fill="#f8ffff" fill-opacity=".4" d="M515.1-1.2l-469-36.3 52 66 430.8 146.1z"/><path fill="#0c0702" fill-opacity=".7" d="M13 438.1l77.6-139 151.1-9.4 72.4 159.6z"/><path fill="#010000" fill-opacity=".6" d="M487.3 449.3l-96.7-154 102 59L615 288.7z"/><path fill="#ded8c7" fill-opacity=".6" d="M212.4 277.3l8.5-75.3L596 140.2l-76 82.4z"/><path fill="#8a826d" fill-opacity=".9" d="M105.1 283.1L-21.8 449.3l54-181 62-17z"/><path fill="#e9dbc6" fill-opacity=".5" d="M356 449.3l-42.6-207.4 44.3 93 87.4 45.8z"/><path fill="#543600" fill-opacity=".3" d="M396.2 130.8l10-55.2 86.2 232-50.6 37.3z"/><path fill="#fcfeff" fill-opacity=".7" d="M576.6 266.2l52.8 9.4-175.8-149.2-19.8 60z"/><path fill="#1d2c2d" fill-opacity=".6" d="M237.1 118l-38-41.2-75.6-109L167 296z"/><path fill="#001019" fill-opacity=".3" d="M494.8 160.3l104.9 40.2 19-76 38.8 129z"/><path fill="#554030" fill-opacity=".8" d="M246.5 271.5l74 47 30.4 78.2-95.4-23.2z"/><path fill="#b2babb" fill-opacity=".8" d="M34.1 241.7l-5.8-7.5-9.7-32-56.1 11.9z"/></g></svg>