<svg xmlns="http://www.w3.org/2000/svg" viewBox="0 0 620 414"><defs/><filter id="prefix__a"><feGaussianBlur stdDeviation="30"/></filter><rect width="100%" height="100%" fill="#6c3d33"/><g filter="url(#prefix__a)"><path fill="#adb8b8" fill-opacity=".8" d="M398.9 362.6L657.5 16.5l-689.2-54L115 431.8z"/><path fill="#000305" fill-opacity=".9" d="M626.3 409.8l4.8-177.5-164.6-43.4L438 306.1z"/><path fill="#0e1012" fill-opacity=".9" d="M191.6 281l-10 39.7-204.6 40 10.2-91.9z"/><path fill="#cad7df" fill-opacity=".9" d="M501.8 208l155.7-7.7-1.2-56-149 11.7z"/><path fill="#f9fff7" fill-opacity=".4" d="M601.8 396.5l-146.2-56.7L297.9-37.5l-48.2 486.8z"/><path fill="#4c0f00" fill-opacity=".5" d="M208 151.6l298.2-10.9 28.3-74.1-57.9-18.9z"/><path fill="#91919c" d="M80.9 449.3l224-62.5L115.8 318-37.5 428.7z"/><path fill="#67412f" fill-opacity=".8" d="M227.9 83.8l166.9 93.7L200 125 188-37.5z"/><path fill="#bbd2dc" fill-opacity=".7" d="M200.3 257.4l-237.8-128 30.2-131L195 51.1z"/><path fill="#0d0d0e" d="M76.5 350.7l-114 67.8L-16 184.1l49.2-19.9z"/><path fill="#000605" fill-opacity=".7" d="M228.6-2.2L140 16.5l-81 3.8-7.4-46z"/><path fill="#e8f2f9" fill-opacity=".5" d="M413 53.5l-94.5 75.8L239.3-32 407-37.5z"/><path fill="#5a504f" fill-opacity=".7" d="M323.8 449.3l-165.2-92.8 147.5 36 105.1-84.4z"/><path fill="#c1ccd5" fill-opacity=".9" d="M657.5 4.1v57.4L598 108l-67.1-29.5z"/><path fill="#000101" fill-opacity=".9" d="M657.5 205.4l-182 7.5L448.2 356l84.5.7z"/></g></svg>