<svg xmlns="http://www.w3.org/2000/svg" viewBox="0 0 620 414"><defs/><filter id="a"><feGaussianBlur stdDeviation="30"/></filter><rect width="100%" height="100%" fill="#674139"/><g filter="url(#a)"><path fill="#ebe3cb" fill-opacity=".5" d="M-37.5 239l443.9 123.6 251.1-255-647-145.1z"/><path fill="#cab8a9" d="M208.8 224.5L428.9 93l-2.4-130.5-245.3 24.2z"/><path fill="#1f160d" fill-opacity=".7" d="M42.6 42.9L139 22.8 213.1 369l-32-379.5z"/><path fill="#0d0000" fill-opacity=".4" d="M466.7 26.9l-88.4 105.3 15.7 55.3L638.4 76z"/><path fill="#9ad0ff" fill-opacity=".4" d="M559.5 449.3l-65-228L657.1 35.7l-81.9 234.7z"/><path fill="#ddebff" fill-opacity=".5" d="M165.9 178l37.8 83-189.9 21.6 52.6-178z"/><path fill="#000a1a" fill-opacity=".6" d="M539.8 428.4l-40-172-75.7 75L257 406.5z"/><path fill="#edc596" fill-opacity=".6" d="M633.6-37.5h-158l-18.8 48.4 141.6 23.5z"/><path fill="#3b322b" fill-opacity=".8" d="M130 120.9l4 87.4L96 25.4h21z"/><path fill="#141e27" fill-opacity=".7" d="M20.1 306.9L217 327.4l-19.9-106.3-8.7 44.8z"/><path fill="#7f6a5e" fill-opacity=".8" d="M266.9 343.4l53 105.9-310-41-47.4-106z"/><path fill="#b3876f" fill-opacity=".8" d="M578.1 117.5l-366.2 207 216 40.2 49.5-274.1z"/><path fill="#011a28" fill-opacity=".6" d="M636.7 299.6l20.8 123.3-74.8 21-26.4-225z"/><path fill="#f7d7a8" fill-opacity=".7" d="M44 36.8l61.4-25-143-49.3L28.9 170z"/><path fill="#2e2218" d="M160.8 175.6l39 45.5-11.9-105.8-42.8-152.8z"/></g></svg>