<svg xmlns="http://www.w3.org/2000/svg" viewBox="0 0 620 414"><defs/><filter id="prefix__a"><feGaussianBlur stdDeviation="30"/></filter><rect width="100%" height="100%" fill="#4e453e"/><g filter="url(#prefix__a)"><path fill="#d3d2cd" fill-opacity=".9" d="M629.4 268.8L636-37.5H214.6l229.8 256.4z"/><path fill="#f7eddc" fill-opacity=".9" d="M200 142.2L55.7 246.8l-93.2 55.7L-26 172.2z"/><path fill="#89827e" fill-opacity=".7" d="M239 449.3h365.5l43.6-168.1-359.4-166.6z"/><path fill="#261917" fill-opacity=".7" d="M417.8 439.6L384 383l133.5-161.7 18.8 118.9z"/><path fill="#37352e" fill-opacity=".7" d="M398.6 75.3l56.7-12-11.9 153.2.3-236.6z"/><path fill="#191818" d="M232.7 294l21.6-189.9-291.8 211.5L-32 348z"/><path fill="#0a100b" fill-opacity=".3" d="M657.5 157.7l-115.7 3.1L530 73l127.4-19.6z"/><path fill="#141d1c" fill-opacity=".9" d="M97.8-28.8l193.6 130.3-329 45.8 14.8-173.7z"/><path fill="#fff" fill-opacity=".7" d="M657.5 27.1L539 72.4 481.5 227 460.9-37.5z"/><path fill="#d1d9da" fill-opacity=".8" d="M346-37.5l127.7 342.7-48.2-212.7L368.1 271z"/><path fill="#a7a7a0" fill-opacity=".7" d="M274.4 129.6l64.7-14.8 7 112.6-54 160.1z"/><path fill="#fffaee" fill-opacity=".6" d="M401.3 248.2l53.5 52.4 47.3-176.4 77.7 61z"/><path fill="#070102" fill-opacity=".5" d="M395.5 390l-17.7-104.5 21-95.1 29.1-8.8z"/><path fill="#ffdecb" fill-opacity=".4" d="M543.5 263.3l-23 103.6 91.8 21.8-5.6-72.6z"/><path fill="#000e14" fill-opacity=".5" d="M68.8 449.3l228.8-105.9-25.6-45.3L-18.4 357z"/></g></svg>