<svg xmlns="http://www.w3.org/2000/svg" viewBox="0 0 620 414"><defs/><filter id="a"><feGaussianBlur stdDeviation="30"/></filter><rect width="100%" height="100%" fill="#382b1d"/><g filter="url(#a)"><path fill="#eae1bc" fill-opacity=".5" d="M657.5 105.4v255.2L59 306.6 68-37z"/><path fill="#f1f6ff" fill-opacity=".6" d="M386 263.7l53 134.7 59.4-308.5-57.6-26z"/><path fill="#876844" d="M40 259.6l394 148-150.2-232L63.5 427.9z"/><path fill="#ecfee0" fill-opacity=".5" d="M657.5 31L608 354.3l-52-58.1-12.6-195.5z"/><path fill="#172705" fill-opacity=".5" d="M550 338.3l-42.4 111-30-162 44.8-312z"/><path fill="#031411" fill-opacity=".6" d="M255.5 140.7l-64.2 59.1-91 .2 23-59.5z"/><path fill="#101914" fill-opacity=".9" d="M247.5 448.8l-19.1-172.2L133 285l17.9 142.6z"/><path fill="#010a06" fill-opacity=".6" d="M303.7 379.5l32-96.4L319 177.5l-32.2 5.8z"/><path fill="#c7c9c7" fill-opacity=".8" d="M433.5 394.8l-2.2-198.9 58.2 143.4-134 44.8z"/><path fill="#caafa3" fill-opacity=".8" d="M273.7 373l63 13.3 53.5-286.8-76.3 261.6z"/><path fill="#fbb658" fill-opacity=".5" d="M287.2 234l-63.7 8.7 14.8 124.2 50.6-6.8z"/><path fill="#80ddf1" fill-opacity=".4" d="M-37.5 74.6l72.4 67.6 11.4 90L13 251z"/><path fill="#d2d5c5" fill-opacity=".5" d="M109.7 48.4L263 56.7l26.2 85.7-184.6-12.1z"/><path fill="#815a35" fill-opacity=".7" d="M336.4 258.9L312.2 62.2l156.2-2.6-225.2-88.9z"/><path fill="#986735" fill-opacity=".9" d="M44.6 29.8l43.6-60.3L103.9 199l-38 11.8z"/></g></svg>