<svg xmlns="http://www.w3.org/2000/svg" viewBox="0 0 620 414"><defs/><filter id="a"><feGaussianBlur stdDeviation="30"/></filter><rect width="100%" height="100%" fill="#4c3629"/><g filter="url(#a)"><path fill="#e9f7fb" fill-opacity=".6" d="M572 365.7l-320.9 83.6 119.7-348.6 135.6 110.5z"/><path fill="#abaec2" fill-opacity=".7" d="M183.8 190.8l104.4 6.8 73.4-71.9L282.4 86z"/><path fill="#050602" fill-opacity=".8" d="M250 8.2L-37.6-10.9l226 460.2-226-191.9z"/><path fill="#e9fae1" fill-opacity=".4" d="M50.6 167.6l82.6 56.2 39.2-74.4-73.6-10.6z"/><path fill="#0a0903" fill-opacity=".6" d="M411.7 106l224.8 228.5-16-372-341.7 48.4z"/><path fill="#f7f9fe" fill-opacity=".5" d="M424.6 107.3l-151 243.4 106.2 98.6 5-344z"/><path fill="#20170c" fill-opacity=".8" d="M262 142.9l-31.7 306.4-267.8-72.7L200.8 217z"/><path fill="#778687" fill-opacity=".5" d="M526.3 429l-125.5 11.3 93-262.8 115.5 186z"/><path fill="#fffded" fill-opacity=".4" d="M204.4 235.9l-57.9-9.7L334 82.1l-97.4 40z"/><path fill="#120d08" fill-opacity=".9" d="M294 74.4l-203.4 71-128.1 93.9L20-37.5z"/><path fill="#523729" fill-opacity=".5" d="M458.7 47.2l-83.8 237.4 63.2-102.2 182.4-47.5z"/><path fill="#ab722d" fill-opacity=".5" d="M297.4 328.6l-79-5.8L275 449.3h38z"/><path fill="#0e182c" fill-opacity=".8" d="M281 310.5l-36.1-122.3 80.6 34.9 1 40.2z"/><path fill="#0d0e0a" fill-opacity=".5" d="M657.5 14.3L297.2-23.2l9.9 233.7 15.7-140.8z"/><path fill="#f0ebd5" fill-opacity=".5" d="M133 166.1l-49.2 44.4 59.3-5.9 4.1-13.8z"/></g></svg>