<svg xmlns="http://www.w3.org/2000/svg" viewBox="0 0 620 414"><defs/><filter id="prefix__a"><feGaussianBlur stdDeviation="30"/></filter><rect width="100%" height="100%" fill="#375130"/><g filter="url(#prefix__a)"><path fill="#aaa399" fill-opacity=".9" d="M145.3-37.5L657.5 5l-42.3 416.3L21.8 442z"/><path fill="#502d18" fill-opacity=".6" d="M553.9 177l5.8-72.9-206.3-132-135.7 208.6z"/><path fill="#def1fe" fill-opacity=".4" d="M266.2-37.5L46.7 25.7l70.8 91.3 21.8 332.3z"/><path fill="#000a43" fill-opacity=".6" d="M209.5 191.6l41 172 62.6-32.3-12-34.1z"/><path fill="#daedf8" fill-opacity=".8" d="M389-14.5l130.3 70.7 22 27.8 116-101.4z"/><path fill="#d1d3d4" fill-opacity=".7" d="M454.6 449.3l-108-203.7L306 359.9l-343.6 47z"/><path fill="#231510" fill-opacity=".7" d="M415.1-3.6l66.9 123-74.9-2-82.6-78.9z"/><path fill="#966a53" fill-opacity=".9" d="M476.4 189.9L293.5 12.6l-69 155 16.7 22z"/><path fill="#d8d7d1" fill-opacity=".5" d="M148.5 443l71.9-149.7-42.6-95.7-205.2 230.6z"/><path fill="#031b00" fill-opacity=".3" d="M136.1 88.6l-173.6 24.7L4 340l53.3 21.6z"/><path fill="#f9fbfe" fill-opacity=".5" d="M555.8 206.3l101.7 28.4v-65.4L465 186.5z"/><path fill="#91030e" fill-opacity=".6" d="M257.7 225l21.8-4.6 13.8 18 24.2 87.6z"/><path fill="#d0d09f" fill-opacity=".3" d="M656 268.1L276.9 167.8 417 386.5l152.6 2.2z"/><path fill="#004f39" fill-opacity=".4" d="M492.4 185l92-24.7-88.6-127.1L485.6 17z"/><path fill="#edf9fc" fill-opacity=".4" d="M456-7.5l32.2 95.4L438.8 38l-8.7-47.4z"/></g></svg>