<svg xmlns="http://www.w3.org/2000/svg" viewBox="0 0 620 929"><defs/><filter id="prefix__a"><feGaussianBlur stdDeviation="30"/></filter><rect width="100%" height="100%" fill="#583b35"/><g filter="url(#prefix__a)"><path fill="#bfc3c2" fill-opacity=".7" d="M557.4 648.1L82-56.2-56.2 921l640.8 55.2z"/><path fill="#dce6f6" fill-opacity=".5" d="M438.7-56.2h226.8l-45.3 564.6L361 158z"/><path fill="#54423f" fill-opacity=".8" d="M164 186.2l205.4 228.2-123.7 302 358.9-446z"/><path fill="#9f9c9c" d="M192-56.2L-56.2 13.4l215.1 238 94-71z"/><path fill="#e2ecf5" fill-opacity=".4" d="M577 985.2H348l114-549 78 132z"/><path fill="#2a0c00" fill-opacity=".5" d="M74.8 175l-131-159L3.6 310.6 183.3 503z"/><path fill="#00091c" fill-opacity=".8" d="M676.8 477.2l-183.6 40 47.9 13 55.9 451z"/><path fill="#d0d2db" fill-opacity=".6" d="M676.8 53.3l-42.8 490-118.7-421.4-168-178.1z"/><path fill="#6d5145" fill-opacity=".8" d="M316.4 478.3l290.7-126-274.7 270.8L102 421z"/><path fill="#6a5d61" fill-opacity=".8" d="M595.5 536L486.3 119.4l-72.6-41L391.9 357z"/><path fill="#acadb2" fill-opacity=".9" d="M210.8 515l-120 357.4-118 19.6-29-566.9z"/><path fill="#1a0e0c" fill-opacity=".4" d="M102.3 276.9l241.4-128.1 100.1 328.4-143.7-160.4z"/><path fill="#fffcf5" fill-opacity=".4" d="M232.2 423.1l12.4-173.4L332.4 364l10.9 108.8z"/><path fill="#95939e" fill-opacity=".7" d="M584.3 357l31.5 25.8-8.7 112.5-122-12z"/><path fill="#85847c" fill-opacity=".8" d="M321.9 582l101.6-36.2L61 985.2 220 490z"/></g></svg>