<svg xmlns="http://www.w3.org/2000/svg" viewBox="0 0 620 414"><defs/><filter id="a"><feGaussianBlur stdDeviation="30"/></filter><rect width="100%" height="100%" fill="#32374b"/><g filter="url(#a)"><path fill="#ccb2a2" fill-opacity=".8" d="M619.3-37.5l7.5 486.8L262.3 402 207 109.5z"/><path fill="#1e0500" fill-opacity=".9" d="M-3.4 445.9l-13-313.7L214.2 30 205 421.6z"/><path fill="#7f6655" fill-opacity=".8" d="M-37.5-32.5L639.9 57l-295 262.5 7.2-159.6z"/><path fill="#e3f1fe" fill-opacity=".4" d="M340.3 441.5L610.6 414l25.6-178.5-101-117.5z"/><path fill="#e69974" fill-opacity=".4" d="M197.6 175.1l-13 117.7 109.7 95.7 3.8-426z"/><path fill="#beb597" fill-opacity=".5" d="M32.2-37.5h234.4l-74.5 72.4-229.6 96.4z"/><path fill="#240c00" fill-opacity=".7" d="M303.5 157L288 97.3 330-4.4l18.9 14z"/><path fill="#391200" fill-opacity=".5" d="M233 231.5l24.2-269-36.6 60-106.5 58.1z"/><path fill="#160100" fill-opacity=".7" d="M-37.5 66.8l84.7 382.5 251.9-50.9-70.5-54.7z"/><path fill="#b7ada2" fill-opacity=".5" d="M435.5 46.7l-38 98.6L657.4 18 281.2-37.5z"/><path fill="#ffe2e1" fill-opacity=".4" d="M356.5 170.3l-102.2-66.4 59.8 313.9-43-117.5z"/><path fill="#817a7e" fill-opacity=".6" d="M458 254.8l36 192 24.3-18.6-17-167.6z"/><path fill="#5a1605" fill-opacity=".5" d="M227.7 311.7l29 137.6 1-209 28.6 132.4z"/><path fill="#6b4331" fill-opacity=".6" d="M349.7 245.8l67.1 50.4-109.2-210 185 96.2z"/><path fill="#382410" fill-opacity=".4" d="M568.4 77.3l89.1-48.5-58 83.8-1.8 98.1z"/></g></svg>