<svg xmlns="http://www.w3.org/2000/svg" viewBox="0 0 620 414"><defs/><filter id="a"><feGaussianBlur stdDeviation="30"/></filter><rect width="100%" height="100%" fill="#89623e"/><g filter="url(#a)"><path fill="#c6bcb0" d="M657.5-1l-695 3.4 351.4 103 60.3 343.9z"/><path fill="#b9bfc0" d="M52.3 226L-35.8-37.5l439.5 67.8L116 85.5z"/><path fill="#beb5ab" fill-opacity=".7" d="M187 421l376.3 28.3L657.5 97 205.1 345.8z"/><path fill="#0f0b07" fill-opacity=".8" d="M319 307.8l.7-242.4-34 1.4 21 239.8z"/><path fill="#310500" fill-opacity=".5" d="M172.2 83.6L95.7 81l17.6 216 64.2 133.5z"/><path fill="#e4f8fd" fill-opacity=".5" d="M31.7 91.3l9.7 358-79-94.7 149.7-287z"/><path fill="#4c4030" d="M657.5 134.7L572 118.9l-2-36.8 41.1-7.3z"/><path fill="#acbfc9" fill-opacity=".4" d="M222.8 296L255-37.5l-71.2 457.2 310-13z"/><path fill="#e5d1b6" fill-opacity=".8" d="M496.7 224L647.1-37.5l-107 41.9L356.3 224z"/><path fill="#5b777e" fill-opacity=".6" d="M-37.5 262l200.3-17-134-61.6L12.6-37.5z"/><path fill="#82775c" fill-opacity=".9" d="M289.9 69l4.4 108.5-113.1 26.2-13.6-129.3z"/><path fill="#a17c55" fill-opacity=".8" d="M311.5 78.5L326 321.4l15-88.7-10-177z"/><path fill="#9e8364" fill-opacity=".8" d="M637 398.2l20.5-167.6-141.9 52.8L459 449.3z"/><path fill="#e1f1f8" fill-opacity=".4" d="M98.8 187l-2 55.7L18 136l-.5-52.8z"/><path fill="#020008" fill-opacity=".4" d="M293 324.3l39.8-41-112.2-60 67.6-19.6z"/></g></svg>