<svg xmlns="http://www.w3.org/2000/svg" viewBox="0 0 620 929"><defs/><filter id="prefix__a"><feGaussianBlur stdDeviation="30"/></filter><rect width="100%" height="100%" fill="#8a6643"/><g filter="url(#prefix__a)"><path fill="#d5cec3" fill-opacity=".7" d="M-36.3 929.7L-47.5 19.6 80.9-56.2 676.8 985.2z"/><path fill="#54402b" fill-opacity=".6" d="M676.8 594L325-4.3 50.8 298l94.4 134.7z"/><path fill="#f6f2eb" fill-opacity=".8" d="M96.5 333.1L-39.5 974l320 11.2L118 687z"/><path fill="#c0cbca" fill-opacity=".8" d="M-47.2 22.9l254-49.4 19 107.4-282 314.3z"/><path fill="#6c695a" fill-opacity=".9" d="M516 823L364.3 587.5l-68.2 151.3L676.8 602z"/><path fill="#bc9174" d="M319.3 168.4L287.4 386 224 319l5-129.2z"/><path fill="#e2c6b1" fill-opacity=".7" d="M300.1 426.4l179.3 348-1.1-187.6-167.7-213.4z"/><path fill="#7bd6f2" fill-opacity=".2" d="M98.7 4.4l578-7.7-6.4 393-388-276.1z"/><path fill="#d6ccbd" fill-opacity=".9" d="M492.8 985.2l-391.6-95 575.6-122.7-12.3 217.7z"/><path fill="#1c1200" fill-opacity=".4" d="M510.6 628.9l166.2-83.1L336 314.6l-31.5 29.8z"/><path fill="#772f00" fill-opacity=".5" d="M159 281.2l-37.4 74.4L259 490.3 327 364z"/><path fill="#495b57" fill-opacity=".9" d="M474.3 805.6l149.5-39.5 53-99.5-159.3-21.4z"/><path fill="#ddd0c2" fill-opacity=".8" d="M272.2 734.5l-142-335.7 69 470 333.2-159.3z"/><path fill="#f1fff3" fill-opacity=".4" d="M556.7 594L512 644.2l153.9 11-41.7-42.5z"/><path fill="#efeae3" d="M21.8 963.1l106.7-564.3-81.3 7-7 35.5z"/></g></svg>