<svg xmlns="http://www.w3.org/2000/svg" viewBox="0 0 620 414"><defs/><filter id="a"><feGaussianBlur stdDeviation="30"/></filter><rect width="100%" height="100%" fill="#694538"/><g filter="url(#a)"><path fill="#cde9f0" fill-opacity=".6" d="M88-13.6L67.2 449.3H321l48-486.8z"/><path fill="#131c1f" fill-opacity=".8" d="M432-37.5L324.4 293.8 616 449.3 657.5 8z"/><path fill="#def1ff" fill-opacity=".5" d="M419.7 449.3l6.8-180.2-171.7 168.5L215 104z"/><path fill="#0c1012" fill-opacity=".9" d="M359.9 67l-27.1 341.8 41.4-6 22-301.6z"/><path fill="#000819" fill-opacity=".4" d="M153.3 71.2l-2.9 205.9L-.5 449.3l-37-486.8z"/><path fill="#302a2a" fill-opacity=".8" d="M283.6 208.5L269.3 69l-2.7 258.2 11.2-61.3z"/><path fill="#c1baae" fill-opacity=".7" d="M413.2 70.5l-4.4-108L164.2 200 133.9-37.5z"/><path fill="#7c7a75" d="M219.2 166.6l17.4 282.7-62.7-57.7 38.7-319.2z"/><path fill="#e7ebef" fill-opacity=".7" d="M282.4 409.8l2.9-267.9 34.9-1.4 19.6 229.3z"/><path fill="#cfeafc" fill-opacity=".4" d="M374.2 406.1l22 23.8L421 229.6l-35.1 16.2z"/><path fill="#2c2b2c" fill-opacity=".9" d="M-37.5 122.3l477 13.6 218-80.2-325.2 86.7z"/><path fill="#fcfeff" fill-opacity=".6" d="M196.7 146.3l1.9 95.9-46.3 57.6 3-161z"/><path fill="#5a5556" fill-opacity=".9" d="M27.1 226.4l297.4-2.4 6.6-143.8 7.5 156.4z"/><path fill="#7e8283" fill-opacity=".9" d="M65.9 449.3l68.8-60.3 7-374.5-57.9 15z"/><path fill="#1f1e1e" fill-opacity=".8" d="M432 306.6L347.9 50.4l309.7 354.3L423.3 449z"/></g></svg>