<svg xmlns="http://www.w3.org/2000/svg" viewBox="0 0 620 414"><defs/><filter id="prefix__a"><feGaussianBlur stdDeviation="30"/></filter><rect width="100%" height="100%" fill="#323f4d"/><g filter="url(#prefix__a)"><path fill="#dccab7" fill-opacity=".6" d="M657.5-4.6L630 391.9l-644.4 57.4-23-486.8z"/><path fill="#080a0a" d="M555 449.3l-23.9-149.5-22.3-15-33.9 122z"/><path fill="#d6e3f2" fill-opacity=".7" d="M273.7 267.9l-19.4 181.4 236.4-168.6-23.5-57z"/><path fill="#501802" fill-opacity=".6" d="M361.1 269.8l-49.9-108.5-1.2-94.7 108.5 8.7z"/><path fill="#784932" fill-opacity=".7" d="M240 421.6l-5.8-366.9-216-64.1 263.2 266.8z"/><path fill="#edecef" fill-opacity=".6" d="M104.1 296.2L98.8 43.8l83.6 137.4L66.6 444.4z"/><path fill="#2e312a" fill-opacity=".5" d="M609.3 449.3L503 159l-90.6-54 50.2 122.6z"/><path fill="#c3cad0" fill-opacity=".7" d="M657.5 21l-15 112.2L567.7 239l-4.1-270z"/><path fill="#dcdbc3" fill-opacity=".5" d="M230 48.2L291.2 263l19.1-242.2-347.7-58.3z"/><path fill="#080807" fill-opacity=".9" d="M612 176.6l45.5-50-12.3 74.7-49.7 9z"/><path fill="#a0a6ae" fill-opacity=".9" d="M238.6 449.3l321.1-245.9-85-21.3 60.8 73.9z"/><path fill="#6b452e" fill-opacity=".9" d="M179 48.4l57.9 156.7 7.5-103.4L226 34z"/><path fill="#230900" fill-opacity=".5" d="M308.8 77.5l-28.6 51.8 92-81.3 48.2 122z"/><path fill="#69462e" fill-opacity=".7" d="M236.4 370.5l48.2-109.4L135 411.5l-22.7-19.6z"/><path fill="#9ba8af" fill-opacity=".9" d="M657.5 339.8l-62.2 109.5 18.2-129.6L531 449.3z"/></g></svg>