<svg xmlns="http://www.w3.org/2000/svg" viewBox="0 0 620 414"><defs/><filter id="a"><feGaussianBlur stdDeviation="30"/></filter><rect width="100%" height="100%" fill="#5c4239"/><g filter="url(#a)"><path fill="#deddd9" fill-opacity=".9" d="M-37.5 417L6-37.5l302 171.7-139.3 310.5z"/><path fill="#a89f8e" fill-opacity=".9" d="M308.8 449.3l-5.6-400.9-21-86-90.6 273.7z"/><path fill="#ddebe8" fill-opacity=".7" d="M500.6 295l-46.5 49 92.8 17 35.6-190.6z"/><path fill="#000002" fill-opacity=".5" d="M657.5 49.9l-32 372.5-140.6-280L588-37.6z"/><path fill="#e6e6d9" fill-opacity=".4" d="M550.3 348.8l46.5-239-55 61.7-45.3 178z"/><path fill="#f0a09f" fill-opacity=".6" d="M458.7 294.7l-44.8-71.4-33.7-60.6-32.2 80.5z"/><path fill="#00000f" fill-opacity=".7" d="M296.2 389.7l258-31.5 64.6-395.7 18.9 486.8z"/><path fill="#dfdddc" fill-opacity=".6" d="M248.7 228.9l-122.3-263L-.2-37.5-10.7 401z"/><path fill="#251302" fill-opacity=".9" d="M250.2-37.5H126.4L244.6 98.8l12.1 14.5z"/><path fill="#d6d1c5" fill-opacity=".9" d="M270-14l-25-23.5 10 81.3 25 324.6z"/><path fill="#2c201e" fill-opacity=".9" d="M313 441.5l3.8-260.8L418 336.4l190.9 46z"/><path fill="#1f1a14" fill-opacity=".5" d="M296.2.7l217.2-30.5-75.8 161-129.8 98.6z"/><path fill="#110b0c" d="M247.8 355.8l27.6-.3 7.5 93.8H164.2z"/><path fill="#e3fcda" fill-opacity=".4" d="M541.8-25.7l-29.3-11.8-24 174.8L530 58.6z"/><path fill="#8c8171" fill-opacity=".9" d="M165 449.3L271 317l-7.5-171.7-71.2 224z"/></g></svg>