<svg xmlns="http://www.w3.org/2000/svg" viewBox="0 0 620 414"><defs/><filter id="a"><feGaussianBlur stdDeviation="30"/></filter><rect width="100%" height="100%" fill="#4c4a38"/><g filter="url(#a)"><path fill="#d6d7cc" fill-opacity=".9" d="M381.7 449.3l-419.2-15.8 41.9-471 327.2 18.1z"/><path fill="#998e7e" d="M657.5 361.8l-45-133.2-466.2-28 278 248.7z"/><path fill="#9f7d55" fill-opacity=".8" d="M510.3 381L257.7 146.8 345-37.5l82.4 79z"/><path fill="#051217" fill-opacity=".7" d="M75 194L50.5 17.2 105 233.5 43 210z"/><path fill="#4b1800" fill-opacity=".5" d="M623.4 153.5l-66.1-191L350 333l35 56.7z"/><path fill="#d8f8ff" fill-opacity=".4" d="M618-37.5l39.5 426-221.8-84 150.4-75.9z"/><path fill="#f7fbfb" d="M172 48.2L-37.5 9.9l352.3-47.4-101.7 239.7z"/><path fill="#112023" fill-opacity=".6" d="M176.3 64.7L50 46.5l105.8-8.2 28.1 73.3z"/><path fill="#effcfe" fill-opacity=".7" d="M124 50.6l-57.6 19 21.3 99L296 179z"/><path fill="#5e6666" fill-opacity=".7" d="M158.1 248.7l11.4 43.4 159.1-2-60.5-60.7z"/><path fill="#ecf8fc" fill-opacity=".8" d="M59.6-13l-11 225L-7 222.5l.5-236z"/><path fill="#c5d2cf" fill-opacity=".6" d="M562.4 449.3L406 398.9l251.4-118-111.9-33.6z"/><path fill="#b4af9e" d="M274 100.8l16 161.5 86-6.3-.7-34.2z"/><path fill="#001d2b" fill-opacity=".6" d="M276 152.8L262 172l-4-89.2 18.3 48.5z"/><path fill="#ececdb" fill-opacity=".6" d="M23.5 285.3l175.6-130-209.3 294 313-53z"/></g></svg>