<svg xmlns="http://www.w3.org/2000/svg" viewBox="0 0 620 414"><defs/><filter id="prefix__a"><feGaussianBlur stdDeviation="30"/></filter><rect width="100%" height="100%" fill="#5d3b32"/><g filter="url(#prefix__a)"><path fill="#c8c2b7" fill-opacity=".7" d="M144.6 449.3L567 438.6l-5.1-476.1L170 88.2z"/><path fill="#afd1c5" fill-opacity=".6" d="M38.5 101.2l-19.4 348L-37.5 1.6 189.9-9.7z"/><path fill="#837063" d="M394.8 13.8L596-37.5H239.3l250 486.8z"/><path fill="#00030c" fill-opacity=".7" d="M147.3 17.4L36.8 121.1l-5 231.8 113 20.6z"/><path fill="#7c9ca7" fill-opacity=".6" d="M587.5 399.9l43.9 49.4L619-37.5l-30.2 70.7z"/><path fill="#f9e3cc" fill-opacity=".4" d="M128.8 246.5l53.6-97.8L411 248.5 227.7 384z"/><path fill="#d3e9ff" fill-opacity=".4" d="M550.3 449.3l17.1-281L557.8-19l-88-18.4z"/><path fill="#795544" fill-opacity=".6" d="M251 449.3l191.2-172.7 66 172.7-333.6-49.7z"/><path fill="#cfd8e2" fill-opacity=".6" d="M440.5-37.5l-49.9 3.8 109.5 483-23-240.5z"/><path fill="#011727" fill-opacity=".5" d="M488 300.8L446.1-37.5 465.2 22l45 352.4z"/><path fill="#a88066" fill-opacity=".9" d="M309.8 57.9l-146 10-44-100.6L397 276.1z"/><path fill="#e7faff" fill-opacity=".4" d="M270.8 336l-40-138.1 23.7-4.9L366 225.7z"/><path fill="#5a5f57" d="M-22.5 444.4l13-91.5 138.6 11.6-5.1 84.8z"/><path fill="#181014" fill-opacity=".7" d="M163.7 128.6L117 339.1 37.5 88.4l115.3-43.6z"/><path fill="#d39a6e" fill-opacity=".4" d="M345.6 142.4L140.2 303.7l32.2-214.6 47.3-32.4z"/></g></svg>