<svg xmlns="http://www.w3.org/2000/svg" viewBox="0 0 620 414"><defs/><filter id="prefix__a"><feGaussianBlur stdDeviation="30"/></filter><rect width="100%" height="100%" fill="#2c3148"/><g filter="url(#prefix__a)"><path fill="#d0bd9f" fill-opacity=".6" d="M557-29L405-11.5l-33.2 205.2 98.5 34.6z"/><path fill="#0b0500" fill-opacity=".7" d="M652.7 28L620 449.4 454.8 166.6l68-52.5z"/><path fill="#6c6c61" fill-opacity=".6" d="M366.4-37.5l21.1 360-33.4 79.5 222.5 47.3z"/><path fill="#8c7a5d" fill-opacity=".5" d="M331.6 302.3L252.6 98l34.2-72.2 57.8-35.3z"/><path fill="#271700" fill-opacity=".4" d="M-37.5 200.3l37 229.6 378-13.1L225.8-6.8z"/><path fill="#d4cbc3" fill-opacity=".7" d="M420.7 150.9l75.5-2 17.2-81.3L502.3-34z"/><path fill="#b3c6e9" fill-opacity=".7" d="M392.1 323.6l-.2-76.6 20.8 30.5L403 336z"/><path fill-opacity=".4" d="M390.9 352.4L342.7 59.8l108 57.7-120.4 61.7z"/><path fill="#493726" fill-opacity=".8" d="M514 82.8l3.6-51.3 110.1-68.3 28.9 129.3z"/><path fill="#ffe1cd" fill-opacity=".6" d="M340 227.7l-41.9 8.7 4.1-13.3 43.4-12.9z"/><path fill="#b6f8e6" fill-opacity=".3" d="M442.7 258l76.8-25-.7 21-64.7 33.7z"/><path fill="#e2b39f" fill-opacity=".5" d="M399.1 366.7l-9 24.4-22.7 8-2-55.7z"/><path fill="#4b5148" fill-opacity=".5" d="M180 114.6l2.1 169.2L37.3 9l135.9-36.1z"/><path fill="#676f6b" fill-opacity=".9" d="M342.5 60.3l-47 202 35-264.5 187.3-16.2z"/><path fill="#0a0c0d" fill-opacity=".6" d="M416.3 212.9l209.8 70.7-21.1-232-191.3 244.8z"/></g></svg>