<svg xmlns="http://www.w3.org/2000/svg" viewBox="0 0 620 414"><defs/><filter id="prefix__a"><feGaussianBlur stdDeviation="30"/></filter><rect width="100%" height="100%" fill="#2d4555"/><g filter="url(#prefix__a)"><path fill="#bda494" fill-opacity=".9" d="M336.6 227L56-37.6l601.6 4.3v203.7z"/><path fill="#5e2c0e" fill-opacity=".5" d="M657.5 362L514.2 82.9 394.5 62.5l-81.4 386.8z"/><path fill="#d2eefb" fill-opacity=".7" d="M-.7-37.5l85 53-40 63-81.8 28.5z"/><path fill="#fffef7" fill-opacity=".8" d="M494.8 72.2l-196-48.7 326.8-61 10.9 265.9z"/><path fill="#020b14" fill-opacity=".8" d="M333.3 141.2l-49.7 54.2-37.8-39.4L262 96z"/><path fill="#fff" fill-opacity=".4" d="M301.3 200.3l78.2-237.8-26 182.8 45.6 304z"/><path fill="#141b25" fill-opacity=".8" d="M343.7 259.6l71 2.2 204 138-144.5 49.5z"/><path fill="#904b2c" fill-opacity=".5" d="M337.4 75.8l8-60.3L238 30.3l8.2 107.5z"/><path fill="#00385c" fill-opacity=".6" d="M196.7 89.6L5 89.1l-37.6 323.1 334.3 19.4z"/><path fill="#92572d" fill-opacity=".4" d="M345.8 136.6l311.7 27.8-12.8 115.8-279-30.7z"/><path fill="#fffef4" fill-opacity=".6" d="M301.5 208.5l86 52.8-72.4-158.9 122.8-140z"/><path fill="#20b8f8" fill-opacity=".2" d="M-37.5 115.3L71.7 62.7l190.3 271L14.5 205.4z"/><path fill="#01233c" fill-opacity=".8" d="M196 199.6L74.5 86.9 71.2 8.2l168.6 154.3z"/><path fill="#b56c4b" fill-opacity=".6" d="M337.1 364l-13.3-93.2 61 34.4 22.6 144z"/><path fill="#f5efe7" fill-opacity=".9" d="M333 47.2l42.4-84.7 265.4 23.2-292 98.3z"/></g></svg>