<svg xmlns="http://www.w3.org/2000/svg" viewBox="0 0 620 414"><defs/><filter id="prefix__a"><feGaussianBlur stdDeviation="30"/></filter><rect width="100%" height="100%" fill="#533a27"/><g filter="url(#prefix__a)"><path fill="#dfccc6" fill-opacity=".5" d="M115-37.5l4.4 486.8L411 398.9l58.4-383.6z"/><path fill="#030804" fill-opacity=".8" d="M295.7 312.2l-8.5-68.3 90.4 71-72 101.9z"/><path fill="#d4e5ff" fill-opacity=".4" d="M173.2 449.3L37 132.3l43.8-36 105.6 62z"/><path fill="#02070c" fill-opacity=".8" d="M210.7 449.3l-27.4-138.8 49-11 .2 133z"/><path fill="#cfd2d5" fill-opacity=".6" d="M412.7 200.5L329.4 13.1l-28.6 232.5 106.6 99.8z"/><path fill="#000f22" fill-opacity=".7" d="M109 243.9l27.8 175.6L-1 449.3l-36.5-156.5z"/><path fill="#1e2733" fill-opacity=".9" d="M140.2 121.8l-.2-63-17.5-96.3-160 68.5z"/><path fill="#c3c3c3" fill-opacity=".8" d="M272 229.1l-47 137.3 28.3 77.3 50.9-25z"/><path fill="#5a2311" fill-opacity=".6" d="M237.6 106.3l85.5-70L314.4 2 203 61z"/><path fill="#997d5c" d="M460 74.8l-28.4 193.5-80.2-305.8 203.2 108z"/><path fill="#2b1a07" fill-opacity=".9" d="M657.5 321.1l-55.2 128.2-147.5-75.6 118.5-105.1z"/><path fill="#ccd6e1" fill-opacity=".7" d="M182.4 293.3l-64.7-126-6 54.8 31.2 227.2z"/><path fill="#457587" fill-opacity=".4" d="M48.4 55.2L18-28.3l-41 274.1 162.1 84z"/><path fill="#000310" fill-opacity=".4" d="M144.3 346.8l74.2-50.6 27.6 17 10.9 28.5z"/><path fill="#3f4c51" fill-opacity=".6" d="M337.6 245.8l48.7 46L280 426.5l98-61z"/></g></svg>