<svg xmlns="http://www.w3.org/2000/svg" viewBox="0 0 620 414"><defs/><filter id="a"><feGaussianBlur stdDeviation="30"/></filter><rect width="100%" height="100%" fill="#293959"/><g filter="url(#a)"><path fill="#a67f73" fill-opacity=".7" d="M448.3 94l15-131.5H-15.5l266.9 148.7z"/><path fill="#160900" fill-opacity=".8" d="M-37.5 221.6L6 440.8l651.4-22.3L534.8 27.9z"/><path fill="#f5e1b6" fill-opacity=".5" d="M657.5 217.5L561.4 87.7l6.3-61.3L642-2.4z"/><path fill="#e8f8fe" fill-opacity=".8" d="M118.4 62.2l37.3 1.5 21.8-101.2-63.2 48.4z"/><path fill="#554f52" fill-opacity=".6" d="M474.2 84.5L152.3-8.7l128.9 236.1 144.3 21.8z"/><path fill="#140e01" fill-opacity=".7" d="M119.2 208L114.8-7.3 3.8-37.5-8.6 167.8z"/><path fill="#000a0b" fill-opacity=".6" d="M220.6 1.5l37 447.8-112-173.2 27.6-286.8z"/><path fill="#ffa096" fill-opacity=".5" d="M343.4 125L304.7 11.4l231.5-49-165.4 87.7z"/><path fill="#1671ad" fill-opacity=".6" d="M129.8 59.3l18.7 167.1 22-256.4 65.4 65z"/><path fill="#edffef" fill-opacity=".2" d="M249.2 258.2L218-37.5h36l15.8 143.3z"/><path fill="#efefe2" fill-opacity=".6" d="M22.8 176.6l15.5 14.7-75.8 22v-25.6z"/><path fill="#5a494d" fill-opacity=".6" d="M521.4 240l20.9-216 19.6-61.5 26.4 258.1z"/><path fill="#050000" fill-opacity=".8" d="M395.3 446.1l33.4-320.9-96-8 324.8 321.9z"/><path fill="#90524e" fill-opacity=".7" d="M456.5 37l-16.7 184.4-17.2-102.7-63.7-86z"/><path fill="#130406" d="M509 291.1l28.4-265.4-24.7-32.5-45.3 56.2z"/></g></svg>