<svg xmlns="http://www.w3.org/2000/svg" viewBox="0 0 620 414"><defs/><filter id="prefix__a"><feGaussianBlur stdDeviation="30"/></filter><rect width="100%" height="100%" fill="#553c33"/><g filter="url(#prefix__a)"><path fill="#e5e4dc" fill-opacity=".7" d="M175.1-37.5l117 486.8h311l23.4-486.8z"/><path fill="#cfffff" fill-opacity=".4" d="M-11.6-21L621-31l35.6 115.3L13 202.5z"/><path fill="#273f50" fill-opacity=".8" d="M140.5 117.5l-178 327 292 4.8-26.1-387z"/><path fill="#7f7976" fill-opacity=".9" d="M632.4 203.4l-421 21.8L590 332.5 620.5 446z"/><path fill="#fff6f7" fill-opacity=".6" d="M657.5 76.8l-162-100.5L216.8 78.5l39.4 88.6z"/><path fill="#6b7f9b" fill-opacity=".6" d="M6-37.5l97 5.8 60 292.5L.7 324.5z"/><path fill="#7e766f" fill-opacity=".7" d="M274.9 165.9l227.9 283.4-90.4-51.9-206.8-233.7z"/><path fill="#0c1623" fill-opacity=".6" d="M237.6 272.5L131 154.3l-4.8-191.8L156 96.4z"/><path fill="#002035" fill-opacity=".7" d="M220.9 227.7l-14 79-243.2 98.5 344.4 44z"/><path fill="#776e68" fill-opacity=".8" d="M581.5 364.5l25-217.7-133 3.8 184-84.5z"/><path fill="#778597" fill-opacity=".8" d="M234.2 108.5l-53.8 35.6-43.8-133.7L231-33.2z"/><path fill="#191f22" fill-opacity=".5" d="M657.5 316.3l-69.7-107-3 44.8-114-22z"/><path fill="#c9b09b" fill-opacity=".9" d="M416.8 402.5l-178-191.8-9.2 25.2 68.3 182.4z"/><path fill="#c5a384" fill-opacity=".8" d="M344.9 268.6L426 264l231.5 112.6L529 449.3z"/><path fill="#0f0600" fill-opacity=".5" d="M245.8 136.1l-69.2 70.2 48-128.6-39.6-.4z"/></g></svg>