<svg xmlns="http://www.w3.org/2000/svg" viewBox="0 0 620 414"><defs/><filter id="prefix__a"><feGaussianBlur stdDeviation="30"/></filter><rect width="100%" height="100%" fill="#4a2926"/><g filter="url(#prefix__a)"><path fill="#b9babc" fill-opacity=".7" d="M302.5 214.8l355-204.1L-30-37.5l282 486.8z"/><path fill="#c1c5c7" fill-opacity=".7" d="M13.3-37.5l644.2 11.8-78.7 137.8-616.3-60z"/><path fill="#6d504b" d="M637.2 254.5L295 57.4l115 391.9L589 425z"/><path fill="#161214" fill-opacity=".9" d="M-26 131.3l37-70.5 216.5 22-48 63z"/><path fill="#8d8b90" fill-opacity=".8" d="M76.5 449.3l-76-.8L34.4 206l39.2 50z"/><path fill="#dcf7e6" fill-opacity=".4" d="M126.7 339.8L304.9 301l.5 123.3-64.2 25z"/><path fill="#341711" fill-opacity=".6" d="M325.5 99.5l-66.1 194.3 98 56.2 72-260.4z"/><path fill="#e1dbcf" fill-opacity=".6" d="M392.3 390.6l60.8 58.7-26.6-143-9-88.3z"/><path fill="#d9dad5" fill-opacity=".9" d="M195.4 135.9H313l-42.1-54.5-61 28z"/><path fill="#aaa2a4" fill-opacity=".7" d="M221.8 76.8l272-52.3-5 311.9L447.5 100z"/><path fill="#664749" fill-opacity=".7" d="M16.5 128.4L257 204.6l-17.7 40.7L42 280.7z"/><path fill="#270a0a" fill-opacity=".5" d="M617 271.5l-112.5-201 25.4 378.8L548.6 287z"/><path fill="#c45880" fill-opacity=".9" d="M184.8 194.5L77.3 160l258.9-11.9 22.7 16.5z"/><path fill="#a7a5b3" fill-opacity=".8" d="M578.8.2l-61.2-37.7 71.2 288.9-11.4-74.4z"/><path fill="#977a88" fill-opacity=".8" d="M536.2 297l121.3-32.5-93.7 120.3L635 444z"/></g></svg>