<svg xmlns="http://www.w3.org/2000/svg" viewBox="0 0 620 414"><defs/><filter id="prefix__a"><feGaussianBlur stdDeviation="30"/></filter><rect width="100%" height="100%" fill="#2d425a"/><g filter="url(#prefix__a)"><path fill="#13120d" fill-opacity=".8" d="M-37.3 449.3h672.8l22-486.8H-2.7z"/><path fill="#908a87" fill-opacity=".6" d="M354 35.4L288.3 108l148 201.3 20.3 7.5z"/><path fill-opacity=".7" d="M618.8-37.5l-297 136.8 70.5 13 231.6 337z"/><path fill="#528db3" fill-opacity=".4" d="M350.2 248.5l117 71.7-99.3-159.9-114 203z"/><path fill="#232b32" d="M401.5 70.5l-47 161.3 33.7-53.5 54 7.2z"/><path fill="#ffac6f" fill-opacity=".4" d="M394.3 97.4l-18.7 66.8-64.6-14.8 40.7-12z"/><path fill="#020305" fill-opacity=".6" d="M119-3.6l209.2 105.3 36.5 42-58.6-176z"/><path fill="#f1ad85" fill-opacity=".6" d="M333.5 100l-5.8 36.6-30-16.2 4-25.7z"/><path fill="#020202" fill-opacity=".9" d="M442.5 242l-50-246.8 265 7L508.1 423z"/><path fill="#2d2d29" fill-opacity=".5" d="M118.4 375.6l142-202.2L36.8 15.3l-74.3 281.4z"/><path fill="#ff9558" fill-opacity=".4" d="M364.7 34.4l-25.6 12.8-2.7 36.8 32 3z"/><path fill="#182d3f" fill-opacity=".7" d="M342.5 312.7l36.3-85.8 54 68.3 9.2 84.6z"/><path fill="#74ccff" fill-opacity=".2" d="M340 200.8L290 319l105.8-142.2 45.6 111.4z"/><path fill="#1f3040" fill-opacity=".7" d="M378 304.2l-41.1 67 40.4-211.1-65.6 5.6z"/><path fill="#010202" fill-opacity=".8" d="M226.2-26l157 82.2 63.4 83 142-119.8z"/></g></svg>