<svg xmlns="http://www.w3.org/2000/svg" viewBox="0 0 620 929"><defs/><filter id="prefix__a"><feGaussianBlur stdDeviation="30"/></filter><rect width="100%" height="100%" fill="#2b314c"/><g filter="url(#prefix__a)"><path fill="#b69e86" fill-opacity=".8" d="M676.8 5L315-45.6-56.2 905l558 80.2z"/><path fill="#b89c74" fill-opacity=".9" d="M-56.2 49.4l319 935.8-167-882.1 83.8-159.3z"/><path fill="#4a3938" d="M497.2 602L349 144.4 477.6 94l199.2 447.8z"/><path fill="#dadbda" fill-opacity=".7" d="M208.3 985.2L233 441.6l103.4-33.3 21.4 518.5z"/><path fill="#e8e4e7" fill-opacity=".8" d="M408.6 978.7l166.2 6.5-120.5-247.4-12-349.9z"/><path fill="#faf6eb" fill-opacity=".7" d="M676.8 362.5v-294L584.6-56.1l-57 339.3z"/><path fill="#3f3c53" d="M585 968.2L441.3 724.7l35.2-57.3 200.3-110z"/><path fill="#341200" fill-opacity=".5" d="M354.5 69.3l-90.7 83.8L208.3 482 98.7-56.2z"/><path fill="#8f7358" fill-opacity=".8" d="M164 152.4l40 287.4L64.1 771.1l-106 2.2z"/><path fill="#dfc9bd" fill-opacity=".8" d="M446.7 411.5l-67.5-136 71.1 524.3-9-419.5z"/><path fill="#36241b" d="M474 85.6l-124.5 97.7 9 101.6 169.9-52z"/><path fill="#ffedf5" fill-opacity=".3" d="M619.5 555.2L597 64.2l79.8 566.9-286.7 9.8z"/><path fill="#b1af9f" d="M48.3 607.5L-56.2 602l46 362.6 50.5-254z"/><path fill="#481f04" fill-opacity=".5" d="M22.1 840.5L133.5 593-56.2 380.7 85.6 340z"/><path fill="#bd8d4e" fill-opacity=".8" d="M168 242L-56.2 121.6-19 324.8l157.2 40z"/></g></svg>