<svg xmlns="http://www.w3.org/2000/svg" viewBox="0 0 620 414"><defs/><filter id="prefix__a"><feGaussianBlur stdDeviation="30"/></filter><rect width="100%" height="100%" fill="#513732"/><g filter="url(#prefix__a)"><path fill="#ddd1c9" fill-opacity=".6" d="M137.8 441.8L64.2-37.6 439.8-15 511 449.3z"/><path fill="#e8feff" fill-opacity=".6" d="M97.4 444.4l497.4-34.9-233.5-109.2-194-12.3z"/><path fill="#130000" fill-opacity=".3" d="M413 59l244.5 159.2L634 399.6 77.7 191.1z"/><path fill="#12130e" fill-opacity=".8" d="M-37.5 154.8l205 128.6L88 441.8l-52.3 7.5z"/><path fill="#e7fffc" fill-opacity=".5" d="M479.5 64l19.6-101.5L230.3-2.2l96 92.8z"/><path fill="#828e8c" fill-opacity=".7" d="M611.5 430.1l-81.4 19.2-156.4-106.4L547.8 294z"/><path fill="#eac9b7" fill-opacity=".5" d="M147.3 265l-46.8-7.3L319 149.4l114 59.9z"/><path fill="#000402" fill-opacity=".4" d="M348 146.8l309.5 208.5V235.6L436.7 94.7z"/><path fill="#020e24" fill-opacity=".6" d="M261.3 178.7l-126.9 54.5-19.4-132 41.7 68z"/><path fill="#dfb59a" fill-opacity=".7" d="M98 22L76.9 210.2l28.3 50.4L141-37.5z"/><path fill="#0b150b" fill-opacity=".5" d="M33.4 427L94.2 73.9 93-31-37.5 210z"/><path fill="#e4e8e3" fill-opacity=".9" d="M226 5.3L159.6 76l-1.5-35 20.1-78.5z"/><path fill="#60423a" fill-opacity=".8" d="M563.8 101l-5 86.7-251-104.4L189 119.4z"/><path fill="#98786a" fill-opacity=".5" d="M560.7 95.2l44.3 9.7-39.5-142.4-73.4 8.2z"/><path fill="#986359" fill-opacity=".7" d="M494.5 315.3l-2.1-110.2-46.8 7.5-55.7 149z"/></g></svg>