<svg xmlns="http://www.w3.org/2000/svg" viewBox="0 0 620 414"><defs/><filter id="a"><feGaussianBlur stdDeviation="30"/></filter><rect width="100%" height="100%" fill="#644e2c"/><g filter="url(#a)"><path fill="#aba79d" fill-opacity=".7" d="M657.5 404.2L580.3-26.6-17.4-36.8 177 407.4z"/><path fill="#f8f9f6" fill-opacity=".8" d="M158.4 70.5l-65.6-108h258.9l2.6 153.5z"/><path fill="#3c2e1e" fill-opacity=".4" d="M106.8 179.5l144.1 106.3 304 84.5 102.6-124.5z"/><path fill="#f5f2e9" fill-opacity=".5" d="M372.2 99.5l-91.3 233 122.3-134.9-275-20.3z"/><path fill="#959285" fill-opacity=".9" d="M14 112.9l-45.7 67 228.6 68.6-8-62z"/><path fill="#dbeaf2" fill-opacity=".5" d="M266.6 385l-101 42 47-156.5 88.2 113.1z"/><path fill="#2c2313" fill-opacity=".8" d="M-37.5 448.3V353l196.9-34 17 109z"/><path fill="#22290e" fill-opacity=".4" d="M15.3 137.8L24.9-9l221 143.4L89.5 92.3z"/><path fill="#240e09" fill-opacity=".8" d="M180.7 327.4l48-92.2 31.4-52.8-59.8 17.4z"/><path fill="#362513" fill-opacity=".6" d="M403.2 429l65-90L509 449.4 312 343.9z"/><path fill="#f4f1e4" fill-opacity=".9" d="M318 164.2l-9.7-69 48.4 1.2 2.2 91z"/><path fill="#2b1701" fill-opacity=".5" d="M260.6 299.8L407 220.4l7.3 127.9-151.1-150.7z"/><path fill="#595f43" fill-opacity=".6" d="M226.2 81.9l74.1 18.4 22.8 45L161.3 133z"/><path fill="#fff0e4" fill-opacity=".2" d="M245.3 114l136.1 206.4-44.8 128.9-42.3-218z"/><path fill="#6f6856" fill-opacity=".9" d="M168.6 313L32.2 338.5-37.5 268l87.4-46.5z"/></g></svg>