<svg xmlns="http://www.w3.org/2000/svg" viewBox="0 0 620 414"><defs/><filter id="prefix__a"><feGaussianBlur stdDeviation="30"/></filter><rect width="100%" height="100%" fill="#253541"/><g filter="url(#prefix__a)"><path fill="#cfe7ed" fill-opacity=".7" d="M596.8 128.1L561 25.7-1.5-37.5l131 243.8z"/><path fill="#d2c6b8" fill-opacity=".8" d="M24.2 243.2L18 35.6l499 131.8L52.2 96.9z"/><path fill="#14110f" fill-opacity=".9" d="M657.5 449.3V180.4l-695 28.6L-16 449.3z"/><path fill="#3b7aa2" fill-opacity=".7" d="M618.3 162.5l-312.4-133L372-6l237.6-22.7z"/><path fill="#f5e1c9" fill-opacity=".7" d="M123 37l262.8 95.2-71.4 62.3-215.6-.5z"/><path fill="#120c07" fill-opacity=".8" d="M109.7 127.9l-44 79.2L51 95.7l34.6-12.4z"/><path fill="#886542" fill-opacity=".3" d="M137 189l440.4-70.3L169.5 303l-207-151.4z"/><path fill="#1e1e1f" fill-opacity=".9" d="M414.4 274l-2-120.2-32.4-3.9-203.7 135.2z"/><path fill="#d5bfa4" fill-opacity=".8" d="M23 203.2L20.3 162l31-129.3-6.5 177.8z"/><path fill="#1d2330" d="M21.6 192.5l-59.1 13.6L42 2.1l-56.4-36z"/><path fill="#78a4b8" fill-opacity=".5" d="M434.2 188.2l111.4-83-181.1-87L168-37.5z"/><path fill="#fff5de" fill-opacity=".5" d="M101.2 181l9.2-92.8 141.2 41.4-69.7 78z"/><path fill="#00060e" fill-opacity=".5" d="M614 449.3l5-265.5-85.7-50.4-85 50.4z"/><path fill="#bac2c5" fill-opacity=".6" d="M432.5 132.7l-77.7 28.4-328-121.4L46.4-5.6z"/><path fill="#896947" fill-opacity=".6" d="M85.5 195.7l184.8 36.8-156.5.5 121.4-47.7z"/></g></svg>