<svg xmlns="http://www.w3.org/2000/svg" viewBox="0 0 620 414"><defs/><filter id="a"><feGaussianBlur stdDeviation="30"/></filter><rect width="100%" height="100%" fill="#4f382e"/><g filter="url(#a)"><path fill="#dac9bb" fill-opacity=".5" d="M55.2 216.8L232.7 65.4l241.5-26.7-97.1 410.6z"/><path fill="#d5d7d2" d="M290.9 365.7L448 407.1l-254.5 29.6 28.8-56.2z"/><path fill="#fff5e3" fill-opacity=".5" d="M266 191.8l104 13 5.9-78.6L170-37.5z"/><path fill="#200a01" fill-opacity=".5" d="M134.7 36.3l193.5 229.1-365.7 4.6 265.2-52z"/><path fill="#18150b" d="M657.5-17.7l-192 5.3L478 449.3l179.4-18.7z"/><path fill="#000200" fill-opacity=".6" d="M80.4 329.9L15.7-20.3l-53.2 469.6 474-132.5z"/><path fill="#ffefff" fill-opacity=".4" d="M189.9 233.7L408.3 76.3 42 261l72-117.2z"/><path fill="#856f5c" fill-opacity=".8" d="M439.8 422.1l37.3-277L392-37.5l-43.4 418.7z"/><path fill="#d4fbf4" fill-opacity=".4" d="M68.8 278l-5.3-47.2 78.7 103-34 16.6z"/><path fill="#0f150e" fill-opacity=".6" d="M-37.5-3.6V159l249.4-24L185-2.4z"/><path fill="#46211a" fill-opacity=".6" d="M216 147l73.4 61.3L252 368l-21-48z"/><path fill="#dbffff" fill-opacity=".4" d="M245.3 128.6l64.2 77 98.8-243.1 10.2 124.4z"/><path fill="#170000" fill-opacity=".3" d="M416-37.5L232.4 38.3l-12 48.2 117.3-6.6z"/><path fill="#daaec5" fill-opacity=".6" d="M185.5 255.8l96.4 55.4 60.8-33-179 23z"/><path fill="#262816" fill-opacity=".9" d="M130 228.6l-32.6 1.7L78 271.7l82 37.3z"/></g></svg>