<svg xmlns="http://www.w3.org/2000/svg" viewBox="0 0 620 414"><defs/><filter id="prefix__a"><feGaussianBlur stdDeviation="30"/></filter><rect width="100%" height="100%" fill="#53422f"/><g filter="url(#prefix__a)"><path fill="#ded2b2" fill-opacity=".8" d="M613.2 348.5L4 288.5.5-37.6l540 35.3z"/><path fill="#615849" d="M351.2 150.4l43.6 238.8-150 9.2L282 152.1z"/><path fill="#2d261b" fill-opacity=".9" d="M-37.5 228.6L96.4 93.7l-67.1-6.5-66.8 87.4z"/><path fill="#fae8c1" fill-opacity=".3" d="M160.8 406.4l119.9-42.9-34-401-284.2 337.3z"/><path fill="#eee7ce" fill-opacity=".5" d="M293 216.8l261.6-42.2L353-37.5l-7.5 360z"/><path fill="#201e18" fill-opacity=".8" d="M657.5-9.7v290l-97.6-95-5.3-194z"/><path fill="#8b8471" d="M406 281l-65.7 73.3 229.3 2.2-92-47.5z"/><path fill="#0c0500" fill-opacity=".5" d="M259.4 317.5L110 297l268.3 5.1-57.6 61z"/><path fill="#130e01" fill-opacity=".7" d="M318.5 142.2l54 37.3L267 231.3l9.5-56.2z"/><path fill="#e5e3d2" fill-opacity=".6" d="M597.7 249.7l-229.3 14 11.1-119.4 224.5 73z"/><path fill="#ededf3" fill-opacity=".7" d="M352.4 285.8l-16.7-70.5-33.7 66.8 47 19z"/><path fill="#876d47" fill-opacity=".9" d="M-37.5 30v21.6l294.7-22-84.8-3z"/><path fill="#e8dcbe" fill-opacity=".6" d="M466.7 21L330.6 132 44 312.7l242.2-301z"/><path fill="#6a6563" d="M598.7 368.4l58.8-31.3L517.3 304l106-5.3z"/><path fill="#363028" d="M277.3 325.5l-9.7-37 4.6-30.8 62.7-43.4z"/></g></svg>