<svg xmlns="http://www.w3.org/2000/svg" viewBox="0 0 620 414"><defs/><filter id="a"><feGaussianBlur stdDeviation="30"/></filter><rect width="100%" height="100%" fill="#493f31"/><g filter="url(#a)"><path fill="#eaebf4" fill-opacity=".5" d="M504.7-28.3l47.5 477.6H360.6l-20-452.4z"/><path fill="#dee7eb" fill-opacity=".5" d="M180.7 80L-19 120.8l17.7 191.5L164.6 376z"/><path fill="#e7dbff" fill-opacity=".5" d="M293.8 202.5l-79 1.4 20.1 84 58.6 43.2z"/><path fill="#37302a" fill-opacity=".9" d="M55 233l61.7 27.1L141 397l-60.1 52.4z"/><path fill="#16100b" fill-opacity=".5" d="M481.7 449.3L466 235.2l18.9-272.7 16.4 145.3z"/><path fill="#a8bbc5" fill-opacity=".2" d="M-15.7-20.1l-21.8 155.5L556 167.6l57.4-205.1z"/><path fill="#b2b1af" d="M161.3 449.3l-18-62L79.3 96l74.8 13.4z"/><path fill="#f4f4d3" fill-opacity=".3" d="M50.6 191.6l-43.6-9-2.2 170.8 62.3 42z"/><path fill="#393125" d="M357.7 83.3l-93 26.9-102-4.6-4.6-25.2z"/><path fill="#1c1c22" fill-opacity=".7" d="M342.2 275.6L166.6 449.3l12.6-186.5 198.9 186.5z"/><path fill="#d1c0c4" fill-opacity=".5" d="M515.9-5.6L549.8 309 528.7-35.4 657.5-9z"/><path fill="#101200" fill-opacity=".3" d="M-37.5 62l99.7 28.6-7.7 83.3-90.8 22z"/><path fill="#abaeb0" fill-opacity=".7" d="M57.2 106l172.4 5.2-128.8 117.2-39.8 1.2z"/><path fill="#f5f1f5" fill-opacity=".5" d="M387.5 205.4l19.1-243 1.2 432.6-26.6 54.3z"/><path fill="#000811" fill-opacity=".4" d="M178.5 260.6l123.7-131.3 58 83.6-200.6-57z"/></g></svg>