<svg xmlns="http://www.w3.org/2000/svg" viewBox="0 0 620 414"><defs/><filter id="prefix__a"><feGaussianBlur stdDeviation="30"/></filter><rect width="100%" height="100%" fill="#3e2e24"/><g filter="url(#prefix__a)"><path fill="#cad8dc" fill-opacity=".6" d="M650.3 93.5L516.8 30.3l-401.5 71.4L169 327.2z"/><path fill="#766e62" fill-opacity=".5" d="M346.8 259.6l265.7 109.5 45-387.5L437-37.5z"/><path fill="#e9ffff" fill-opacity=".3" d="M388.5 43.6l-87.7-81.1L317.5 206l91.8 74.4z"/><path fill="#9c6e3a" fill-opacity=".3" d="M31.7 384.1L-37.5-34.4l296.4-3.1-99.3 465.4z"/><path fill="#2e3132" fill-opacity=".9" d="M272.5-3.4l50 324.5-3-115.7-19-107z"/><path fill="#343128" d="M421.9 268.8l-15-67.5L383-37.5l32.7 107z"/><path fill="#ecf7fd" fill-opacity=".4" d="M282.9 69.8l-83.1 78.9L296 286l2.6-98.8z"/><path fill="#1f160b" fill-opacity=".8" d="M534.8 449.3L562 16.5l17.5-54L567.9 174z"/><path fill="#eaf2f9" fill-opacity=".3" d="M554.1 79l-136 29 3.8 78.2L534 137.8z"/><path fill="#3c413e" fill-opacity=".9" d="M398.9-37.5l44 151 3.7 79.3 29.8-175.6z"/><path fill="#0a1c2d" fill-opacity=".5" d="M48.2-24.7L164 280l371 87-327.7 82.3z"/><path fill="#7bffe0" fill-opacity=".2" d="M245.6 93.2L94.9 129.8l4.9-109.7 188.9 29z"/><path fill="#df6100" fill-opacity=".3" d="M579 449.3L555 403l25.5-440.5 77 43z"/><path fill="#495d6d" fill-opacity=".5" d="M299.8 229.8l219.2 107 31-146.7-41.4-41.4z"/><path fill="#c9e1fb" fill-opacity=".5" d="M163.7 290.9l5.8-36.8-13.3-104-23.2 27.4z"/></g></svg>