<svg xmlns="http://www.w3.org/2000/svg" viewBox="0 0 620 414"><defs/><filter id="a"><feGaussianBlur stdDeviation="30"/></filter><rect width="100%" height="100%" fill="#624239"/><g filter="url(#a)"><path fill="#cac8c0" fill-opacity=".7" d="M572.8 374.7L14.3 417.5 40 29.5 517-6z"/><path fill="#7b5f52" d="M657.5 295l-495-53 214.6-74.2 67.6 281.5z"/><path fill="#4f3a2f" fill-opacity=".7" d="M233.7 80.4L350.4 3.6l-193.2 8 157.2 437.7z"/><path fill="#f7fff8" fill-opacity=".4" d="M396.2-37.5l243.9 337.3-182.1-38L279.2 91.1z"/><path fill="#feffff" fill-opacity=".5" d="M176.3 229.4l-.5 159.8-161.8 60 42-254.5z"/><path fill="#f5fbff" fill-opacity=".6" d="M65.9 2.4l98.3 31.3 8 129.3-116-132.5z"/><path fill="#656463" fill-opacity=".8" d="M520.7 264l106.6-2.7L655 102 512.5 55.5z"/><path fill="#77594e" fill-opacity=".7" d="M284.6 155.7l99.8 293.6L98 411.5l164.2-31.7z"/><path fill="#f0fcf6" fill-opacity=".6" d="M116.3 164.4L-32 187l117.7-70.8L-37.5 88z"/><path fill="#9a7a6e" fill-opacity=".9" d="M637 310.5l20.5 138.8H490.2l-20.4-151.9z"/><path fill="#f8f4f6" fill-opacity=".4" d="M420.2 397.4l-60.6-182.8-21.5 85 17.2 149.7z"/><path fill="#18160a" fill-opacity=".4" d="M134.7 139.5l-55 62.2 55.4 28.1 56.5-70.7z"/><path fill="#7d5b4a" fill-opacity=".8" d="M15.5 380.2l-36.6 22.6L196.7 355l-4.4-8z"/><path fill="#d5d2cb" fill-opacity=".9" d="M517 224L503.6-37.5h-175l171.1 320.9z"/><path fill="#d2cbc9" fill-opacity=".9" d="M200.8 381l-1.2-254-7-138.2-10 89z"/></g></svg>