<svg xmlns="http://www.w3.org/2000/svg" viewBox="0 0 620 414"><defs/><filter id="prefix__a"><feGaussianBlur stdDeviation="30"/></filter><rect width="100%" height="100%" fill="#323d62"/><g filter="url(#prefix__a)"><path fill="#ccc6b8" d="M33.4-13.6L407.6-28 269.8 416.6-37.5 411z"/><path fill="#dfb96e" fill-opacity=".7" d="M568.2 449.3L648 106.8l-80.4 181.4-144.4 92.3z"/><path fill="#736f59" fill-opacity=".9" d="M492.9-37.5l-88.7 387-120.4 9.2-9.9-139.8z"/><path fill="#433618" fill-opacity=".8" d="M565.5 353.1l79.4-373-98.5-5.5-194.3 293z"/><path fill="#fff" fill-opacity=".5" d="M142.9-37.5L86.7 279.7l337.6-2.9-69.3 59.8z"/><path fill="#9a8757" fill-opacity=".6" d="M207.6-34.9l392 54-7.5 110.7-261.3-4.3z"/><path fill="#5b2c03" fill-opacity=".3" d="M-37.5 344.9L78.7 449.3l34.2-101-66-175.4z"/><path fill="#efeee7" fill-opacity=".8" d="M283.6 419.7L269.8 65.4l-70-40.7-99.8 363z"/><path fill="#041611" fill-opacity=".5" d="M322.4 423.3l134.6 4.9L328 89.4 585.5 264z"/><path fill="#6b3500" fill-opacity=".8" d="M590 65l67.5 291.7-87.6 92.6 38.5-180z"/><path fill="#fee1b4" fill-opacity=".8" d="M547.1 449.3L608.4 280l-42-51.9 26.2-5.8z"/><path fill="#131c02" fill-opacity=".7" d="M283.6 305l4.4 144.3 163.7-97.9-16 97.9z"/><path fill="#817f76" fill-opacity=".7" d="M450.7 212l-.2-74.4-171.3 162.7-8.2-87z"/><path fill="#bcb8a2" fill-opacity=".5" d="M295.5 58.6l160.8-79L419 90.9l-135.4 124z"/><path fill="#ae9673" fill-opacity=".4" d="M1.2-15.3l-13 155.8 107.2 62.7 20.8-123.5z"/></g></svg>