<svg xmlns="http://www.w3.org/2000/svg" viewBox="0 0 620 414"><defs/><filter id="prefix__a"><feGaussianBlur stdDeviation="30"/></filter><rect width="100%" height="100%" fill="#6b4b37"/><g filter="url(#prefix__a)"><path fill="#c0cecd" fill-opacity=".4" d="M175.6-37.5h366l78 486.8H184.7z"/><path fill="#bccade" fill-opacity=".5" d="M107-37.5L-37.5 307.8 42 335.7 121.8 124z"/><path fill="#56452d" fill-opacity=".6" d="M217.7-37.5l-20.3 183.3L657.5 185 334 68.8z"/><path fill="#f1dad0" fill-opacity=".5" d="M438.1 127.6l-54.5 321.7 14.8-191.1-180-38z"/><path fill="#c5cad1" fill-opacity=".5" d="M475.4 334.2L657.5 429l-494.8 20.4 29.8-97.6z"/><path fill="#cbdbd1" fill-opacity=".3" d="M657.5 122.8L619-37.5 318.7-1.7l7 69z"/><path fill="#604e3b" fill-opacity=".7" d="M416.6 131.5l60.8 135.9L657.5 340l-1.9-236.8z"/><path fill="#776256" d="M113.6 349l-151.1 5.6 355-127.7 18.4 83.8z"/><path fill="#081318" fill-opacity=".7" d="M116.7 178.5l58.4-56 6.8-76.7-63.2-19.2z"/><path fill="#0e222b" fill-opacity=".5" d="M50.4 183l-34.9 14.4-24.7-235L49.2 5.9z"/><path fill="#908e94" fill-opacity=".7" d="M50.6 109L50-37.5l278 17.9-210 48z"/><path fill="#c6c4c2" fill-opacity=".8" d="M173.9 449.3l244.8-111-301.5 107.8 6-79.7z"/><path fill="#f5d7bb" fill-opacity=".5" d="M486 233l84.4 142.4-69.6-163.7-53.2 9.7z"/><path fill="#6d5347" d="M69.5 184.5l173.9 24.3-12.4-48.5L338 115z"/><path fill="#b1a59f" fill-opacity=".7" d="M217 274.4l33.4-114.6 268.4 74.4-379.3-41.9z"/></g></svg>