<svg xmlns="http://www.w3.org/2000/svg" viewBox="0 0 620 414"><defs/><filter id="a"><feGaussianBlur stdDeviation="30"/></filter><rect width="100%" height="100%" fill="#3a3530"/><g filter="url(#a)"><path fill="#e8ebe3" fill-opacity=".8" d="M617-37l40.5 358.9L7 449.3-37.5 3.6z"/><path fill="#605e5a" d="M136.4 449.3l334.2-110-12.4-118 199.3 133.3z"/><path fill="#726b50" fill-opacity=".6" d="M390.4 166.1L288.7 288 3 302l-25.4-132.7z"/><path fill="#ebf3f2" fill-opacity=".8" d="M119.6 165l241.5-38 65.1-151.8-435.4-4.4z"/><path fill="#d6d4d0" fill-opacity=".9" d="M-.5 428.4l320.4 8.7 97.9-78.7L-.5 283.1z"/><path fill="#383531" d="M593.4 413.9L479 384.4l-9-87 101.3-37.8z"/><path fill="#dfddda" fill-opacity=".8" d="M407.1-29.8l129.1-7.7-9 372.7-33.6-89.9z"/><path fill="#050804" fill-opacity=".6" d="M394.8 168.3l18.9-182.6-21.4-23.2 34 31.7z"/><path fill="#d8d3c6" fill-opacity=".5" d="M194 283.8L46.7 262.5l-84.2-60.3L275 255z"/><path fill="#666451" d="M353.6 214.8l72-129.3-118.5 176-219.7-62z"/><path fill="#d0d0cc" d="M645.7 17.2L657.5 340l-78-15.5-21.5-362z"/><path fill="#d2d0cd" fill-opacity=".4" d="M549.8 449.3l-150.4-89.9 11.1-165.9L68.1 393.1z"/><path fill="#371f04" fill-opacity=".4" d="M56.2 207.3l-38 16.2-55.7-80.6V67z"/><path fill="#3c381c" fill-opacity=".3" d="M128.1 251.9l-63-86-23.7-91.8 112.1 156.5z"/><path fill="#050502" fill-opacity=".7" d="M521.7 333.7l-37.3-103.9-16.7-8.4L520 365.7z"/></g></svg>