<svg xmlns="http://www.w3.org/2000/svg" viewBox="0 0 620 414"><defs/><filter id="prefix__a"><feGaussianBlur stdDeviation="30"/></filter><rect width="100%" height="100%" fill="#4f3630"/><g filter="url(#prefix__a)"><path fill="#dddad2" fill-opacity=".6" d="M-9.4-27.4l27.8 476.7L657.5 409 535-22.5z"/><path fill="#533c2f" fill-opacity=".8" d="M53.8 290.9L257.4 160 629.7-37.5 577 56.9z"/><path fill="#271000" fill-opacity=".7" d="M494 199.6l8.3-52.8 58.4-17.2 45 92z"/><path fill="#c6d5eb" fill-opacity=".7" d="M434 196.9l103.2 252.4 82.6-52.4 37.7-137.8z"/><path fill="#ccc7c2" fill-opacity=".7" d="M-18.9 182.6L-37.3-37.5 562.1-4.6l-374.9 203z"/><path fill="#7b5d51" fill-opacity=".9" d="M494.3 321.9L9.7 381.7 504.2 410l7.8 25.7z"/><path fill="#685f4f" d="M183.6 199.8l-221.1-14.5L106 247.5l10.9 84.3z"/><path fill="#c1b6a4" fill-opacity=".8" d="M183.8 249.2L567.4 62.5l78.3-34 4.3 31z"/><path fill="#603e2b" fill-opacity=".5" d="M371 299.6l68.3-38.3-10.6-115-66.4 37.3z"/><path fill="#766355" fill-opacity=".8" d="M-31.7 423.8l234.4-21L53 338l-41 25.3z"/><path fill="#dbdcd7" fill-opacity=".6" d="M72.4 346.6l-59.3-10.2-2-85.3L74 219.4z"/><path fill="#331b05" fill-opacity=".5" d="M217 47.5l-14-27.9L161-3l14.6 55.4z"/><path fill="#fffdff" fill-opacity=".2" d="M235.6 173.2l83.8 276h-96.6l-23.2-228z"/><path fill="#c7c9d2" d="M410.3 330.8l65.6-15.5 100.3-57.6-212 46z"/><path fill="#897668" d="M203.2 291.6l-32.5-7.3-54-61 82.6 13z"/></g></svg>