<svg xmlns="http://www.w3.org/2000/svg" viewBox="0 0 620 414"><defs/><filter id="prefix__a"><feGaussianBlur stdDeviation="30"/></filter><rect width="100%" height="100%" fill="#444443"/><g filter="url(#prefix__a)"><path fill="#040404" fill-opacity=".8" d="M627.8-37.5L332.8 155l-44.1 294.3 368.8-29.8z"/><path fill="#e2e2e2" fill-opacity=".8" d="M426.7 86l54.5-14.3-9.7-60.6-48.4-5.5z"/><path fill="#0a0a0a" fill-opacity=".9" d="M182.6 138.5l-164 53.6-56.1 257.2 270.2-14z"/><path fill="#fcfcff" fill-opacity=".2" d="M281.4 198.4L246.1 77 104.9 5.3l177.7 444z"/><path fill="#1b1b1b" d="M427-37.5l-10.7 145.3L324.5 339 283.4-8.5z"/><path fill="#cacacc" fill-opacity=".4" d="M81.9 165.4l43-139.5-88 89.4 40.1 71z"/><path fill="#fff" fill-opacity=".4" d="M228.4 223.8l42.4-40-46.3 213.4 59.6-38z"/><path fill="#141414" fill-opacity=".7" d="M162.5 149.4L304 330.6 157.2 197.9 279.5 96.4z"/><path fill="#fefeff" fill-opacity=".2" d="M467.4-37.5L466.2 224l28.1 75.3-2-67.8z"/><path fill="#060606" fill-opacity=".7" d="M641.3-37.5l-18 486.8-93.4-97.9-67-389z"/><path fill="#f7f7f7" fill-opacity=".2" d="M220.9 130.8l-30.3 110.9-60.8 34.6 69.5-.4z"/><path fill="#838383" d="M222 102.7L166 71l-54.3 50.8 91.6 18.4z"/><path fill="#f8f8f8" fill-opacity=".8" d="M474 78.5l-.8-50-32.9 6.9-27.1 29.3z"/><path fill="#222" fill-opacity=".7" d="M85.5 313.1L210 376l29.5-48.2-18.4-78.7z"/><path fill="#fdfdfd" fill-opacity=".4" d="M270.3 133.4l-36.1 1.7 37 105-38.7-12.2z"/></g></svg>