<svg xmlns="http://www.w3.org/2000/svg" viewBox="0 0 620 414"><defs/><filter id="a"><feGaussianBlur stdDeviation="30"/></filter><rect width="100%" height="100%" fill="#543529"/><g filter="url(#a)"><path fill="#8f7b71" d="M648.3 437.9l-40-410.3L83.2-37.5-37.5 407.6z"/><path fill="#c2bdbe" fill-opacity=".9" d="M175.3 227.4l-97.8 203-109.2-225.5 114.3-47.2z"/><path fill="#fffeff" fill-opacity=".4" d="M657.5 238.6l-140.4-87-166.9 164 307.3-18z"/><path fill="#281200" fill-opacity=".4" d="M262.5-6.3l243 165.9L141 207.8l-53.3-82.1z"/><path fill="#391c07" fill-opacity=".5" d="M481.5 297.6L266.9 449.3l-44.6-214.4 205 180.2z"/><path fill="#432919" fill-opacity=".8" d="M506.4 122.3l-5.8-159.8L591.4 136l-480.2 13z"/><path fill="#f6f9fc" fill-opacity=".5" d="M365.2 166.9l12.4 102L489 345 381.4 142z"/><path fill="#e8eef6" fill-opacity=".5" d="M621.7 332.5l-64 16.5-159.5 100.3h220.6z"/><path fill="#5a331f" fill-opacity=".8" d="M478.6 137L461 246.6l-43.3-2.6L391 112z"/><path fill="#180600" fill-opacity=".6" d="M45.8 10.2l16.7 132.4-14 46-52.1-51.5z"/><path fill="#1e190c" fill-opacity=".6" d="M418.5 70.5l-68 11.1 8.4-55.2 54.8-25z"/><path fill="#dbded3" fill-opacity=".9" d="M418.5 37.5l.2-49.6 65-25.4-33 71.2z"/><path fill="#f9c9b4" fill-opacity=".5" d="M262.8 38.8l40 113.8 15.7-62.3-11.4-38z"/><path fill="#230d03" fill-opacity=".7" d="M177.5 203.7l-82-39.7 41.3-97.6L86 12.6z"/><path fill="#2d170d" fill-opacity=".5" d="M142.2 313.1L171.7 430 84 436l28.9-93.2z"/></g></svg>