<svg xmlns="http://www.w3.org/2000/svg" viewBox="0 0 620 929"><defs/><filter id="a"><feGaussianBlur stdDeviation="30"/></filter><rect width="100%" height="100%" fill="#7e5046"/><g filter="url(#a)"><path fill="#ddeaed" fill-opacity=".7" d="M-56.2 11.6l521.4-67.8 211.6 979-622.4 62.4z"/><path fill="#434635" fill-opacity=".7" d="M168 696l-224.2 7 27.9 199 160.8-35.9z"/><path fill="#553b2e" fill-opacity=".7" d="M344 372.3l47.2-169.8-46.5-78.8-68.9-1.4z"/><path fill="#a3abaa" fill-opacity=".8" d="M676.8 9v215.3l-179.6-18.5L170.9-21z"/><path fill="#dad8d9" fill-opacity=".7" d="M-56.2 99.4v592l733-12.8V479z"/><path fill="#002c25" fill-opacity=".5" d="M676 413.7l-3.6-152-164-51.6L568 433.7z"/><path fill="#784437" fill-opacity=".4" d="M316.4 387.2l-127.7 250 170.2-201-26.1-355.6z"/><path fill="#ebeaed" fill-opacity=".6" d="M182.5 705.1L75.5 810l263-45.4L-56.1 199z"/><path fill="#0f1910" fill-opacity=".4" d="M231.9 800.9l-288.1 147 102-169.1L91 813.2z"/><path fill="#f6f8f8" fill-opacity=".9" d="M38.8 905l-95 68.6 278.7 11.6-94.8-108z"/><path fill="#030204" fill-opacity=".6" d="M352.7 141.5l24.7 70.4-58 1.1-25.8-90.3z"/><path fill="#f1f2f1" fill-opacity=".7" d="M-34.8 291l241.6 394.5-176.3-2.9-86.7 82.7z"/><path fill="#b4a9a1" fill-opacity=".7" d="M312.8 238l-5 28.4L555.1 292l-99-129.9z"/><path fill="#afb4b4" fill-opacity=".6" d="M676.8 908l-179.3 77.2 16.7-398.8L585.3 380z"/><path fill="#69271a" fill-opacity=".5" d="M168 315.7l-9.4 11.3 20.7 22.5 74.4-3.3z"/></g></svg>