<svg xmlns="http://www.w3.org/2000/svg" viewBox="0 0 620 414"><defs/><filter id="prefix__a"><feGaussianBlur stdDeviation="30"/></filter><rect width="100%" height="100%" fill="#5e3a35"/><g filter="url(#prefix__a)"><path fill="#e0e4e6" fill-opacity=".8" d="M-37.5 144.1l666.2 94L442-21.3-37.5-37.5z"/><path fill="#8f827a" d="M341.5 56L108 206.7 53.8 448.5l134.6-25.4z"/><path fill="#918a8d" fill-opacity=".8" d="M413.7 20.8l243.8 123.8-69.5 87.9-339.5 66.1z"/><path fill="#feffff" fill-opacity=".8" d="M-37.5-37.5v221.8l347-103.4 202-118.4z"/><path fill="#000e14" fill-opacity=".8" d="M353.1 268.8l294-5.5 10.4 186H370.8z"/><path fill="#463226" d="M288 295.2l-16.3-172.7-60.8-14.2-18.8 94z"/><path fill="#dbf3fb" fill-opacity=".3" d="M373 259.6l-62.5 185.5L164 179 29 449.3z"/><path fill="#1b0501" fill-opacity=".6" d="M413.9 128.6l18 158.4 2.6-258.7-56.2 11z"/><path fill="#fffffc" fill-opacity=".5" d="M271.3-8L400 269.8l54-307.3 14.8 199z"/><path fill="#677a8c" fill-opacity=".8" d="M657.5-37.5v68.3l-192 25.1-1.2-93.4z"/><path fill="#f7fcff" fill-opacity=".4" d="M92.8 275.1l50 38.5 47.6 81.6-132 54z"/><path fill="#201010" fill-opacity=".5" d="M539.8 133l-28.5 151.6 86-267.2L496 92.3z"/><path fill="#5b4e4c" d="M319.2 175.1l-99 153.3L332.7 99.8l-56-17.2z"/><path fill="#f5f6f5" fill-opacity=".8" d="M178 185.5l69-149.4L99 192 59.4-37.5z"/><path fill="#3e1700" fill-opacity=".4" d="M303.5 204.6l-99.6 10.2-53.3 76.3-15.5-130z"/></g></svg>