<svg xmlns="http://www.w3.org/2000/svg" viewBox="0 0 620 414"><defs/><filter id="a"><feGaussianBlur stdDeviation="30"/></filter><rect width="100%" height="100%" fill="#363b55"/><g filter="url(#a)"><path fill="#cea57a" fill-opacity=".7" d="M259.6 313.1l24.5-350.6 195.4 20 134.2 132.8z"/><path fill="#170c05" fill-opacity=".9" d="M244.4-37.5l8.4 452.6-287 34.2 61-461.4z"/><path fill="#714e38" d="M519.7 111.6L448.3 55l-207 391L510 428.4z"/><path fill="#e1e9e3" fill-opacity=".5" d="M282-37.5L307 154l97.2-48.4 53.3-143.1z"/><path fill="#beb6b2" fill-opacity=".9" d="M521 51.6l2.4 131.7 44.8-27.6 32.7-61.2z"/><path fill="#f2ede2" fill-opacity=".4" d="M396.5 265l-43.6 77-84.6 1 132.3 34.6z"/><path fill="#6f3c0f" fill-opacity=".4" d="M277.3-37.5L292.8 135l-4.1 314.2L182 198z"/><path fill="#3f1607" fill-opacity=".7" d="M534.3 56.7l-73.9 38.7 126.4-133 70.7 147.3z"/><path fill="#12120e" fill-opacity=".5" d="M420 129.3L649.8 407l-16-290.2L419.2 239z"/><path fill="#967855" d="M286.3 333L421.6 75.3l-22 180.4-171 13.9z"/><path fill="#441400" fill-opacity=".5" d="M420.7 112.1l6.8 337.2 87.4-340-203.7 12.5z"/><path fill="#a1865d" fill-opacity=".9" d="M509.8 225.7l-69.7 1 39.7 39.7 10.9 182.9z"/><path fill="#24242c" d="M514.2 307.6l-16-58.1L657.5 30.8l-139 417.5z"/><path fill="#e0bf98" fill-opacity=".6" d="M101 223.3l16-9.4 13.3 27.8-18 10.9z"/><path fill="#e6a88d" fill-opacity=".6" d="M462.8 59l-74 42.5 144-139-73.6 164z"/></g></svg>