<svg xmlns="http://www.w3.org/2000/svg" viewBox="0 0 620 414"><defs/><filter id="prefix__a"><feGaussianBlur stdDeviation="30"/></filter><rect width="100%" height="100%" fill="#5d4636"/><g filter="url(#prefix__a)"><path fill="#bcbbaf" fill-opacity=".8" d="M543 393l-564.6 29.1-16-445.4 330.9-14.2z"/><path fill="#877962" d="M359.9 161.5l-43.6 287.8L272.9-8.5 652.7-7z"/><path fill="#fcffff" fill-opacity=".2" d="M614.7-13.3l42.8 242-106.3 12.8-248.5 19.8z"/><path fill="#34352e" fill-opacity=".5" d="M401.8 449.3L216 329.9l9.7 119.4 94.5-214.6z"/><path fill="#c3c4bf" fill-opacity=".7" d="M3.1-37.5l-40.6 314 158.4 172.8L225.7-29.1z"/><path fill="#d6d3cf" fill-opacity=".9" d="M454.6 312.7l-62.7 40.7-53-29.6 56.6-164.4z"/><path fill="#7f705c" fill-opacity=".9" d="M491.2 336.4l50.3 35.1L495 210 379.8 449.3z"/><path fill="#eff4f5" fill-opacity=".8" d="M205.9 382.9l-37.3 66.4H161l-198.6-42.4z"/><path fill="#5d4326" fill-opacity=".5" d="M323.6 131l-64 65.7 311-60.1L496 49.2z"/><path fill="#00100f" fill-opacity=".3" d="M657.5 449.3L606.2 229l-179.5 57 22.6-47.8z"/><path fill="#9d937e" fill-opacity=".7" d="M248-16.2l72.9 463.5-143.4-175L498.2-37.6z"/><path fill="#cbc1b2" fill-opacity=".8" d="M366 230.6l21.3 218.7h55.4L316.3 194.5z"/><path fill="#c7ccbd" fill-opacity=".6" d="M545.9 168l111.6-35.3v15.5l-276.3 82.1z"/><path fill="#371701" fill-opacity=".7" d="M302.3 169.5l18.1-47.4 100 39.4-9.9-36.5z"/><path fill="#4f4c46" fill-opacity=".5" d="M364.3 292L228 433.4l179.7 16L307.1 267z"/></g></svg>