<svg xmlns="http://www.w3.org/2000/svg" viewBox="0 0 620 414"><defs/><filter id="prefix__a"><feGaussianBlur stdDeviation="30"/></filter><rect width="100%" height="100%" fill="#304155"/><g filter="url(#prefix__a)"><path fill="#9a907e" fill-opacity=".9" d="M567 449.3L498-34.4-37.6 4.1 8.7 380.2z"/><path fill="#151010" fill-opacity=".8" d="M469.8 141.7L355.3 62l-18.7 158.9 75.8 80.1z"/><path fill="#090909" d="M41.2 324.8l91.5-14.8 67.6 139.3-85.5-15.3z"/><path fill="#dec5a0" fill-opacity=".7" d="M585.1 190.8l38.3-228.3 34.1 460.8-80.9 26z"/><path fill="#080302" fill-opacity=".8" d="M281 203.4l-119-31 84-105.3 28 35.3z"/><path fill="#ffedcc" fill-opacity=".7" d="M238-37.5l106.6 486.8-8-368.9 177.8-4.6z"/><path fill="#1f231e" fill-opacity=".8" d="M112.6 255.3l2.7-173L43.8 74 57 269.3z"/><path fill="#ffeecf" fill-opacity=".6" d="M410.8 449.3l142.6-291.4-172-195.4 92 236.6z"/><path fill="#dcccb3" fill-opacity=".9" d="M180.2 120.1l160-157.6L148 42.9l-35.9 285z"/><path fill="#ddccaf" fill-opacity=".7" d="M49 353.8L18.5-37.5l-56.1 380 144.3 106.8z"/><path fill="#272b20" fill-opacity=".8" d="M486.8 50.4L409.5-8 586-16.7l-36.1 180.2z"/><path fill="#595a52" fill-opacity=".9" d="M572 107.5L469.8 412.7l86.3 36.6L612 333z"/><path fill="#e6dac4" fill-opacity=".5" d="M449.5 420.7l41.2-75.1-198.9-111-52.5 160.7z"/><path fill="#cfc4b3" fill-opacity=".9" d="M198.4 449.3L110.7 210l133-19.2-52.4 100z"/><path fill="#060409" fill-opacity=".5" d="M201.5 324.8l23.7 84 49.2-114.3 2-49z"/></g></svg>