<svg xmlns="http://www.w3.org/2000/svg" viewBox="0 0 620 929"><defs/><filter id="prefix__a"><feGaussianBlur stdDeviation="30"/></filter><rect width="100%" height="100%" fill="#4c3229"/><g filter="url(#prefix__a)"><path fill="#c6ced1" fill-opacity=".9" d="M-24.3 985.2l-32-1041.4 733 41.7-3.5 962.4z"/><path fill="#1d1d2a" fill-opacity=".8" d="M234.4 303.4l-82.3 219.2 9 107.4 387.6 254.7z"/><path fill="#272f40" d="M347 849.9l116-220.6-19.2-20-130.3-69z"/><path fill="#f7ffff" fill-opacity=".6" d="M414-56.2l33.8 807.4 229 234L632.2-56.2z"/><path fill="#ccd0d0" fill-opacity=".8" d="M377 715.3l-21.4-38.1-411.8-38.9 78.3 347z"/><path fill="#e3e9ef" fill-opacity=".9" d="M-56.2 930l214-71 519 1.8-2.5 124.4z"/><path fill="#191725" fill-opacity=".7" d="M273.6 691.3L394.1 524 181.4 422l-31.2 147z"/><path fill="#d6dbda" fill-opacity=".6" d="M281.6-56.2L312.1 581l-31.2-102.7 395.9 150.2z"/><path fill="#111a27" fill-opacity=".8" d="M456.9 846.3l-61-126.3 153.9 121.2-24.7 18.5z"/><path fill="#bdc3c6" fill-opacity=".9" d="M364.3 812.9l82 .7-61-75.1 2.3 2.5z"/><path fill="#7c6460" d="M207.6 386.8l88.5 122-21.4-214.9-50.4 21.8z"/><path fill="#161621" fill-opacity=".8" d="M145.2 522.6l39.1 126.6 242.1 47.5 35.6-61.6z"/><path fill="#c8cece" fill-opacity=".9" d="M37.7 293.6l-94 456.9 260.6-14.2L151 546.2z"/><path fill="#a78b79" fill-opacity=".6" d="M326.2 895.3l-64.6-326 60.3-28.2L240.6 724z"/><path fill="#e3eaed" fill-opacity=".9" d="M495.7 801.3l-67.9-98.7 249-369.5v555.6z"/></g></svg>