<svg xmlns="http://www.w3.org/2000/svg" viewBox="0 0 620 414"><defs/><filter id="prefix__a"><feGaussianBlur stdDeviation="30"/></filter><rect width="100%" height="100%" fill="#3a2d1e"/><g filter="url(#prefix__a)"><path fill="#999084" d="M57.6-37.5l600 97.3-304.2 389.5-391-13.6z"/><path fill="#6c635a" d="M657.5 146.8L516.1 249l-110 200.3-210.7-183.4z"/><path fill="#fff7d7" fill-opacity=".5" d="M321.6 154.8l195-124 47.7-68.3H89.9z"/><path fill="#ab9e89" d="M353.4-12.4L408 167.4l235.6 69.5 13.8-107.6z"/><path fill-opacity=".7" d="M568 449.3L443.1 232l135.1-25 79.2 174.4z"/><path fill="#c9d0e8" fill-opacity=".5" d="M-37.5 434.5l112.3 14.8 88.2-219-170.3-12.8z"/><path fill="#6f664a" d="M193.8 57.4l-113.2 7-118.1 114.8L34-24.5z"/><path fill="#391c01" fill-opacity=".5" d="M120.6 139l6.3 64.7-164.4 25.2 17.9-94.5z"/><path fill="#0c0a03" fill-opacity=".6" d="M560.4-24L615 74.6 524.1 70l-13.3-23z"/><path fill="#f8f8f5" fill-opacity=".7" d="M174.1 23.3l155.3-3.7L349 66.8 212.2 77z"/><path fill="#706557" fill-opacity=".9" d="M274.6 193.5L253.1 355l18.2 94.3 94-309.3z"/><path fill="#686446" fill-opacity=".7" d="M251.6 68.3l60.6 37-86.2-1.6-78 10.9z"/><path fill="#fbf8fc" fill-opacity=".3" d="M227 211l-264.6 41L280 234.2 194.2 76.8z"/><path fill="#deeaf8" fill-opacity=".3" d="M289.9 290.9l121.3 158.4-58-165-53.9 165z"/><path fill="#d6c6b6" fill-opacity=".5" d="M184.8 84.3l-26.9 48.9-138.8-7.3L2.4 71.4z"/></g></svg>