<svg xmlns="http://www.w3.org/2000/svg" viewBox="0 0 620 414"><defs/><filter id="a"><feGaussianBlur stdDeviation="30"/></filter><rect width="100%" height="100%" fill="#51392c"/><g filter="url(#a)"><path fill="#def3fa" fill-opacity=".5" d="M62.2-37.5l-99.7 385L571 449.3l-29.3-210.5z"/><path fill="#777a74" d="M514.9 80l142.6 47-13.8 322.2L474 132z"/><path fill="#b6bdb2" fill-opacity=".4" d="M-37.5-12.1l695 15.5-296 50.4L8.3 449.3z"/><path fill="#edf1f1" fill-opacity=".7" d="M65 449.3l80.8-486.8-7 327.4-97.9-19.6z"/><path fill="#57584f" fill-opacity=".6" d="M279.5 449.3L32.9 336.9l172.5 8.7L458-29.3z"/><path fill="#00000d" fill-opacity=".5" d="M82.6 413.9l44.3 35.4L138.3 310 82 234.2z"/><path fill="#755c41" fill-opacity=".5" d="M414.9 167.1L403.9.5 243.7 27.6l2.2 226.5z"/><path fill="#d5d9df" fill-opacity=".9" d="M302 449.3l49.7-203.7 19.3 73.8-32.4 129.9z"/><path fill="#faf9f6" d="M142.4 204.9l-87.7-11.4-4.3 35.1.5 32.2z"/><path fill="#0c181e" fill-opacity=".2" d="M11.1 256.5l13.1-254 98.6-40-3.6 185.2z"/><path fill="#b1b9b2" fill-opacity=".5" d="M132.7 419.5l15.5-457 104 30.2L175 449.3z"/><path fill="#abb6c4" d="M416 336.2l113-92.8 28.5 92.5-142.9 113.4z"/><path fill="#0a0401" fill-opacity=".8" d="M108.3 259.1l-11 17-32.2-10.7L75.6 242z"/><path fill="#fffffe" fill-opacity=".5" d="M31.5 449.3l22.3-138-.8-47.6 54.5 21.4z"/><path fill="#0b0800" fill-opacity=".4" d="M449.3 196.4l126.9-4.3-97.9-51.6-115.5 17.2z"/></g></svg>