<svg xmlns="http://www.w3.org/2000/svg" viewBox="0 0 620 414"><defs/><filter id="prefix__a"><feGaussianBlur stdDeviation="30"/></filter><rect width="100%" height="100%" fill="#62422c"/><g filter="url(#prefix__a)"><path fill="#c8d1d4" fill-opacity=".9" d="M299.1 287l19.6-257.7L425.3 441l-171.7 8.3z"/><path fill="#939391" fill-opacity=".6" d="M9.7 254.8L-6.1 21.6l641.8-15-17.4 155z"/><path fill="#09193a" d="M217 202.7l-23 242-135.6 4.6-96-159.4z"/><path fill="#020c17" fill-opacity=".7" d="M423.1 409l-26.6-239.2L652 263.3l-23 128.6z"/><path fill="#e6eef6" fill-opacity=".4" d="M478 126.7l20.7 99.7 61.2-8.2 59.9-128.8z"/><path fill="#003cb5" fill-opacity=".5" d="M126.7 449.3L3 349.5l-40.6-194.3 128.8 51.9z"/><path fill="#fff" fill-opacity=".3" d="M375 449.3L394 153l-98 25.6L188.7 62z"/><path fill="#604b34" fill-opacity=".9" d="M428.2-20.3l-312.4-8-4.4 136.3-57.9 87.4z"/><path fill="#eabcb0" fill-opacity=".8" d="M130.3 141.2l11.6 62.2 35.6-14.7L82 271.2z"/><path fill="#60432c" fill-opacity=".9" d="M657.5 114l-58.3-90.3-47.3 126.7-52-89.1z"/><path fill="#dffbf1" fill-opacity=".2" d="M39.7 106.6l-77.2-95.7 177-48.4-128.6 271z"/><path fill="#0a0600" fill-opacity=".7" d="M223.3 299.1l-23.5-71.2-72.7-13-15 234.4z"/><path fill="#2a221f" d="M140.5 195.4l32.7-12.8 74.6 84.3-93-127.6z"/><path fill="#c3d0d5" d="M449.7 181L436 208.7l-5.3-39.8 12.6-9.2z"/><path fill="#03090e" fill-opacity=".8" d="M657.5 103.7l-42.1 345.6-24-250.2-24.2 7.7z"/></g></svg>