<svg xmlns="http://www.w3.org/2000/svg" viewBox="0 0 620 414"><defs/><filter id="prefix__a"><feGaussianBlur stdDeviation="30"/></filter><rect width="100%" height="100%" fill="#4f3c2f"/><g filter="url(#prefix__a)"><path fill="#d6c3bc" fill-opacity=".7" d="M538.1 160.8l-422.8 42.4 118.2 246 316.8-38.5z"/><path fill="#786e60" fill-opacity=".8" d="M628.5 184.3L86.7 62 37.5 2.4l581.8-7z"/><path fill="#866a61" fill-opacity=".7" d="M115.3 175.8L8.7 338.8l226.7 95.4 106.8-257z"/><path fill="#f3f9f7" fill-opacity=".6" d="M440.3 446.8l217.2-121.5-86.7 124-86.7-252.6z"/><path fill="#e6eeeb" fill-opacity=".7" d="M573-35.8l21.8-1.7 39.7 145.8-55.4-3.2z"/><path fill="#2c2216" fill-opacity=".7" d="M314.8-37.5l-54.4 10.9L204.2 238l92.2-10.7z"/><path fill="#fefef8" fill-opacity=".3" d="M311.2 253.8L240 165.2l22.8 207.5L484 189z"/><path fill="#0d0304" fill-opacity=".8" d="M379 330.6l-23.7-49.4 51 12.3-11 25.5z"/><path fill="#fefffa" fill-opacity=".3" d="M237.8 267.6l-57.4-106.8-57.6 19.1-3.2 65.4z"/><path fill="#403023" fill-opacity=".8" d="M560.4 111.2l-72 70.2-23-105.6 98.7-27.4z"/><path fill="#f3ddd9" fill-opacity=".4" d="M117.5 406.9l76.5-53-101.5-30.6-7.2 4.1z"/><path fill="#dfc9b5" fill-opacity=".5" d="M306.9-8.2l90.8-22-99.8 161.7 44.6 24.7z"/><path fill="#533b2d" d="M379.3 243.4l1-104.1 72.6-73.4-50.6 128z"/><path fill="#6b1800" fill-opacity=".3" d="M281 340.8L453.8 407l-154.6 42.2-336.8-290.7z"/><path fill="#dfdbd7" fill-opacity=".8" d="M532.8 167.6l8.5 219-191.8-28 141.7-76z"/></g></svg>