<svg xmlns="http://www.w3.org/2000/svg" viewBox="0 0 620 414"><defs/><filter id="prefix__a"><feGaussianBlur stdDeviation="30"/></filter><rect width="100%" height="100%" fill="#402c23"/><g filter="url(#prefix__a)"><path fill="#dcd6d6" fill-opacity=".9" d="M121 449.3l50.2-115L417 132.6 657.5 406z"/><path fill="#665345" fill-opacity=".6" d="M143.1 305.9l187-65 186-246.5-451.7-32z"/><path fill="#c1a89e" fill-opacity=".9" d="M514.6 168l25 6.9-200-13.4 51.8 287.8z"/><path fill="#0d1400" fill-opacity=".4" d="M627.3 151.9L657.5 445l-61.7 4.2-61.8-267z"/><path fill="#e5eff6" fill-opacity=".6" d="M352.6 266.6l16.7 182.7H103.7l178.7-201z"/><path fill="#fbebe2" fill-opacity=".3" d="M384.1 50.9l41.7 71.6 63.4 326.8-147.5-238.1z"/><path fill="#854f3e" fill-opacity=".6" d="M386.8 335.4l-6.6 113.9 46.5-79.2-60-144.4z"/><path fill="#553b29" fill-opacity=".8" d="M543.7 259.6L479 252 657.5 59.3l-235.9-29z"/><path fill="#e5f5ff" fill-opacity=".4" d="M428.7 347.8L511 268l87.7 170.3-178-3.4z"/><path fill="#4f3c30" fill-opacity=".8" d="M412-25.2l-72.5 222.8.5 51.9L81.4 112.4z"/><path fill="#2a1a10" d="M-8 217.2l160 165.5-32.1 49.6L-37.5 410z"/><path fill="#3f1e03" fill-opacity=".4" d="M425 162L375.6 1.5l131 97.6-41.6 93z"/><path fill="#8c807d" fill-opacity=".6" d="M534.3 313l42.3 70.6 76.8-24.2L555 286z"/><path fill="#435055" fill-opacity=".9" d="M137.8 288.4l11.6 98.4 26.7-53 74.8-70.5z"/><path fill="#571302" fill-opacity=".4" d="M389 362.8l-4.2 42.1 43.1-7-55-69.3z"/></g></svg>