<svg xmlns="http://www.w3.org/2000/svg" viewBox="0 0 620 414"><defs/><filter id="prefix__a"><feGaussianBlur stdDeviation="30"/></filter><rect width="100%" height="100%" fill="#2b3e54"/><g filter="url(#prefix__a)"><path fill="#cdd4d1" fill-opacity=".7" d="M657.5-11.6L144-27 91.8 183.3l519.7 194.8z"/><path fill="#2c1810" fill-opacity=".7" d="M235.2 419l84-390 10.4 155.5 190.9 264.8z"/><path fill="#c3d2d6" fill-opacity=".7" d="M326 42.9l231.3 63.4-38.8 343L325 161z"/><path fill="#667b8d" fill-opacity=".7" d="M-37.3 150.9L172 415.4 251 253 132.6-37.5z"/><path fill="#9e7766" fill-opacity=".8" d="M328 298.4l12 51.6 275 99.3-186-90.6z"/><path fill="#040001" fill-opacity=".4" d="M264.5 449.3L200 373.7l197.4-175.3 21.6 51.8z"/><path fill="#bdd0df" fill-opacity=".6" d="M216.3 75.6l73.1 175.3-103.6 52.3L311.9 138z"/><path fill="#353632" d="M483.6 5.3l-190.8-16 27.1 244L321-15z"/><path fill="#1d1c12" fill-opacity=".7" d="M637.7 41.7l-105.6 5 24 19.4 101.4-.5z"/><path fill="#1e2a32" d="M192 181l22.3 42.8-14 62.5-16.5-16z"/><path fill="#647484" d="M533.8 325.5l-79.5 3.4L599 385.8l58.6-59.6z"/><path fill="#b88471" fill-opacity=".7" d="M370.5 196.7l20.9 5 6.3 48.7-135 12.9z"/><path fill="#03070c" fill-opacity=".8" d="M523.1 449.3l-187.7-95-99.8-81.8-22.7 115z"/><path fill="#16160d" fill-opacity=".6" d="M517-37.5l3.7 55-66.4 3.6 12.2-32.5z"/><path fill="#c4e4f4" fill-opacity=".7" d="M420.2 219l-95-50.7.3-128.3 207.3 247.2z"/></g></svg>