<svg xmlns="http://www.w3.org/2000/svg" viewBox="0 0 620 414"><defs/><filter id="prefix__a"><feGaussianBlur stdDeviation="30"/></filter><rect width="100%" height="100%" fill="#444343"/><g filter="url(#prefix__a)"><path fill="#b6b6b6" d="M653.4-4.4l-658 6.8-33 210.7 659-62z"/><path fill="#747474" fill-opacity=".7" d="M276.6 100.3l71.7 349 265.9-147-105.8-94.7z"/><path fill="#909191" fill-opacity=".7" d="M183.6 227.7L268 117.5l-305.6 92.2 279 165.4z"/><path fill="#040404" fill-opacity=".6" d="M66.4 70.5L60.8 107l47 14.8-6.8-51z"/><path fill="#020202" fill-opacity=".8" d="M579.8 320.9l56.4 2.9 21.3 125.5-231-6.1z"/><path fill="#fdfdfd" fill-opacity=".6" d="M226.7-37.5l295.2 120-212.6-15.2L228 80.2z"/><path fill-opacity=".5" d="M186.7 213.1l23.3 66.1 119.9-24.7-35.2-107.3z"/><path fill="#888" d="M477.1 67.6L578.3 303l-177.7-73 189.1-58.8z"/><path fill="#010101" fill-opacity=".8" d="M111.2 349.7L50.4 345 25.2 449.3l115-2.5z"/><path fill="#fff" fill-opacity=".4" d="M276.6 329.9l10.1-100.5-10.8-266-27 39z"/><path fill="#141414" d="M542.3 265.4L657 97.6l-18.7-11.4 19.1 203.5z"/><path fill="#fafafa" fill-opacity=".4" d="M381.4 79L306 161.8l125-27.4L602-6.3z"/><path fill="#e4e4e4" fill-opacity=".5" d="M438.8 80.9L542.5 68l50.4 121.5 64.6-166.8z"/><path fill="#3c3c3c" fill-opacity=".9" d="M506.9 286l4.8 84.8-114.5-96.4-39 65.9z"/><path fill-opacity=".7" d="M56.4 233.7l65.4-17-11.6 17.3-147.7 32.9z"/></g></svg>