<svg xmlns="http://www.w3.org/2000/svg" viewBox="0 0 620 414"><defs/><filter id="a"><feGaussianBlur stdDeviation="30"/></filter><rect width="100%" height="100%" fill="#614338"/><g filter="url(#a)"><path fill="#c9b5b3" fill-opacity=".5" d="M211.2-37.5L295.5 208 576.6 68.5 257 449.3z"/><path fill="#c2b1b3" fill-opacity=".8" d="M140.7 308l3.6 88 99.6 53.3 157.6-58.7z"/><path fill="#bae7ed" fill-opacity=".7" d="M490.7 313.1l-.3 136.2H592l28.8-88z"/><path fill="#150e06" fill-opacity=".7" d="M11.9-37.5l2.9 325L87.9 342 198 34.9z"/><path fill="#cacbde" fill-opacity=".7" d="M490.2 242.2l-121.6-104 96.9 1.5 48.2-72.6z"/><path fill="#2b1e14" fill-opacity=".8" d="M527 96.1l-25.2 195.3 146.5 69-61-349z"/><path fill="#001317" fill-opacity=".7" d="M350.7 80.6l25.9 133.7L303 213 288.2 75z"/><path fill="#eaeefe" fill-opacity=".4" d="M19.4 312.2L-35 344.6l-2.6 84.8L91 417.5z"/><path fill="#593c2b" fill-opacity=".7" d="M142.6 164L106.8-23.7l5.8 327.6L493.1 394z"/><path fill="#b39aa6" fill-opacity=".6" d="M366.7 48.7l123.7 165.9-56.6 48.7-62.3-51.4z"/><path fill="#deecf7" fill-opacity=".6" d="M283.8 256.7l40.7-13.5-78.4-104.4 13.8 97z"/><path fill="#42d9d2" fill-opacity=".1" d="M623.4 42.9L146.3 98l65.6-135.6 407.9 22.7z"/><path fill="#235b4a" fill-opacity=".6" d="M485.6 413L363 426.2l69-143.4 50.4-75.6z"/><path fill="#977060" d="M335.2 199.8L284 349l-65-14.5 239.4-68.3z"/><path fill="#42453f" d="M429.4 141.4l-78.7-179L514.4 83.2 448.5 143z"/></g></svg>