<svg xmlns="http://www.w3.org/2000/svg" viewBox="0 0 620 414"><defs/><filter id="a"><feGaussianBlur stdDeviation="30"/></filter><rect width="100%" height="100%" fill="#323c49"/><g filter="url(#a)"><path fill="#f3efee" fill-opacity=".8" d="M657.5 0l-695-3.4L2.9 387.7l336.4-117.2z"/><path fill="#d9d9d6" fill-opacity=".7" d="M657.5 52.3L518 449.3l139.5-178L410.3-35.6z"/><path fill="#e5d0c0" fill-opacity=".4" d="M447 233.5l-148-6.6-109 222.4h243.9z"/><path fill="#0e0305" fill-opacity=".4" d="M386.3 255.8L423-37.6l23 168 211.4 49.2z"/><path fill="#928d8d" fill-opacity=".8" d="M526 314.4l-41.6 134.9h122.5l46.5-135z"/><path fill="#090c15" fill-opacity=".8" d="M490.7 349l103.6-101-182.6 30.8-10 33.6z"/><path fill="#d9e0dc" fill-opacity=".8" d="M435.2 105.6l12.4-143.1 187.7 155.2-54 44.8z"/><path fill="#0c0604" fill-opacity=".5" d="M-37.5 429L145 449.2l127.8-166.4-3.8-1.7z"/><path fill="#ede1da" fill-opacity=".5" d="M430.1 225l-99.5 122 127.9-99.5L599.7 263z"/><path fill="#06080e" fill-opacity=".4" d="M586.3 132.2l45.8-169.7h-42.9l-2.6 117.7z"/><path fill="#dddbdc" fill-opacity=".8" d="M-37.5 212.4l427.4-85 16.7 85-67 82.8z"/><path fill="#644b38" fill-opacity=".4" d="M355.8 220.1L292.8-28l-3.4 126 49.7-70.5z"/><path fill="#715c59" d="M444.9 104.4l28.8 128.3-80.6-75.8-8-50.6z"/><path fill="#121724" fill-opacity=".8" d="M562.4 267.9l62-87.7-141.7-50.6-28.1 31.2z"/><path fill="#141922" fill-opacity=".9" d="M362.6 276.8l73.1-111.6-31.7 93.2-45 35.4z"/></g></svg>