<svg xmlns="http://www.w3.org/2000/svg" viewBox="0 0 620 414"><defs/><filter id="prefix__a"><feGaussianBlur stdDeviation="30"/></filter><rect width="100%" height="100%" fill="#7d5b3e"/><g filter="url(#prefix__a)"><path fill="#f1feff" fill-opacity=".6" d="M3.9-37.5l652.2 55 1.4 399.8-691.9 1z"/><path fill="#160e13" fill-opacity=".8" d="M438.6 362.8L310.7 188.9l-48.2 66.6-3.4 86.5z"/><path fill="#774d06" fill-opacity=".6" d="M200.3 94.5l-4.1 50.3 164 4.1-73-65.1z"/><path fill="#151d07" fill-opacity=".4" d="M166.1 277.5l11 66.6-78.3 28.6L56 265.2z"/><path fill="#f5fbff" fill-opacity=".6" d="M111.2 202L-.8 449.3l15-486.8h102z"/><path fill="#a58e7f" d="M375.6 66.1l-17.4 241.2 41.4 15 57.7-215.7z"/><path fill="#e4e5e9" fill-opacity=".7" d="M657.5 441.5l-257.4-5L581 75l76.4-112.6z"/><path fill="#0a0e13" fill-opacity=".8" d="M6 134l-43.5 101.2 46.2-30.3 6.8-26z"/><path fill="#ebeef4" fill-opacity=".7" d="M48.7 449.3L-37.5 262 104 369.8 608.4 388z"/><path fill="#baa578" fill-opacity=".8" d="M525.8 313l41-68.9-103.5-65.4 83-212.1z"/><path fill="#fffee8" fill-opacity=".5" d="M35.1 153l182.1 191.4 109-221.6-155 85z"/><path fill="#0c050a" fill-opacity=".5" d="M255.8 360.4L301.4 193l110.7 202.2 32.5-65.6z"/><path fill="#000606" fill-opacity=".6" d="M423.6 114.6l-59.6-16-2.4 2.6 35.8-25.9z"/><path fill="#d6d5ce" fill-opacity=".9" d="M93-37.5h517L361.7 88.6 151.9 71.4z"/><path fill="#051006" fill-opacity=".5" d="M91.8 304.7l49.4 29.5-7.5 28.1-53.3-18.9z"/></g></svg>