<svg xmlns="http://www.w3.org/2000/svg" viewBox="0 0 620 414"><defs/><filter id="prefix__a"><feGaussianBlur stdDeviation="30"/></filter><rect width="100%" height="100%" fill="#4e3c31"/><g filter="url(#prefix__a)"><path fill="#939a99" d="M-20.3 271L16.2-24.2l242 28.8 75.5 385.6z"/><path fill="#ecc59a" fill-opacity=".8" d="M657.5 378.3L466 162.3l-49.2 287 113.3-246.1z"/><path fill="#d3f2ff" fill-opacity=".8" d="M232.3-37.5l-227.5 7L42 121.3 286.5 86z"/><path fill="#6c7274" fill-opacity=".8" d="M367.6 318L365 449.3l-402.5-43.9L13.3 98.8z"/><path fill="#edb183" fill-opacity=".7" d="M466 91.3L491.9 61 384-37.5l2.2 96.6z"/><path fill="#a9825e" d="M220.4 305.6l304.4-18.9-217 55-20-311z"/><path fill="#000201" fill-opacity=".8" d="M652.2 71.7L531.6 133 431.1-37.5h206.3z"/><path fill="#b07c4b" fill-opacity=".8" d="M243.6 123.5L402.3 141 293.5 19.9l63.7 2.6z"/><path fill="#fff8c4" fill-opacity=".2" d="M657.5 203.7L576 302.3l-127.6-86L657.5 74z"/><path fill="#170600" fill-opacity=".6" d="M401 285.3L314.5 296l-34.7-84.3 81.6-88z"/><path fill="#ffefcb" fill-opacity=".3" d="M393.6 282.6L450 281l86.4-138.5-130.7 306.9z"/><path fill="#bef4fc" fill-opacity=".3" d="M345.8 303.2l15.5 93.5-33.1 52.6L291.4 299z"/><path fill="#403a33" fill-opacity=".8" d="M589.2 186.5l-197.3-.7 72.4 92.5-42.9-211z"/><path fill="#c9b58f" fill-opacity=".8" d="M304.4 24.7l30.3-2 102 6.4-164 17z"/><path fill="#00243e" fill-opacity=".6" d="M369.3 315.8L357 324l10.9 125.3 69.5-111.7z"/></g></svg>