<svg xmlns="http://www.w3.org/2000/svg" viewBox="0 0 620 414"><defs/><filter id="prefix__a"><feGaussianBlur stdDeviation="30"/></filter><rect width="100%" height="100%" fill="#3b495e"/><g filter="url(#prefix__a)"><path fill="#eec27e" fill-opacity=".7" d="M137 233.7l374.7-208L428 437l-231.5 12.2z"/><path fill="#0c0402" d="M457.7 417.8l164.7-.3 35.1-455H508.8z"/><path fill="#000819" fill-opacity=".9" d="M93.2-37.5L-15-35.1l-6.8 473.7 194.2-9z"/><path fill="#93611c" fill-opacity=".6" d="M120.6 215.8l2.2-252.6L489.5.5 202 385.8z"/><path fill="#f0efea" fill-opacity=".5" d="M458 314.8l40.2-172.2-191.6 210.8 13.3-185z"/><path fill="#020000" fill-opacity=".4" d="M189.6-29l-5.8 210.6 129.3-98-43.5 254z"/><path fill="#f0d39e" fill-opacity=".3" d="M297.6 32.5l177.6.7 26.6 75.8-91 336.6z"/><path fill="#0b0504" fill-opacity=".9" d="M468.9 280.5L657.5 228v203.7L413 430.4z"/><path fill="#f0dfc3" fill-opacity=".8" d="M169.8 428.7l193-7-193-71.7 24.7 81.8z"/><path fill="#0b0e12" fill-opacity=".8" d="M114.8 131.5L125.7-36-37.5 196.2 250.9-37.5z"/><path fill="#563300" fill-opacity=".4" d="M108 306.4l144.4 46L433 433l-186.5-50z"/><path fill="#bf9c60" fill-opacity=".5" d="M260.6 196.2l-140-51.6 29.6 137 75.8 77z"/><path fill="#d7dbe0" fill-opacity=".8" d="M357 220.4l45.3 32-84 90-44.4-44.3z"/><path fill="#442e12" fill-opacity=".8" d="M493.6 48.2L248-37.5l260.1 16.4-18 220.2z"/><path fill="#000512" fill-opacity=".6" d="M296.2 96l-98.8 76.4 51.8 8.3 84.3-50.9z"/></g></svg>