<svg xmlns="http://www.w3.org/2000/svg" viewBox="0 0 620 414"><defs/><filter id="prefix__a"><feGaussianBlur stdDeviation="30"/></filter><rect width="100%" height="100%" fill="#432c22"/><g filter="url(#prefix__a)"><path fill="#fbfef2" fill-opacity=".6" d="M366.4 342.2l-293 107L194.2 74.5l112 131.2z"/><path fill="#060000" fill-opacity=".7" d="M-5.3 449.3L-1-37.5l200.3 182.8-44 52.6z"/><path fill="#f7fcff" fill-opacity=".4" d="M176 383.4l92.1-196-105.6-26.1-59.8 187.4z"/><path fill="#020802" fill-opacity=".5" d="M657.5-37.5H524l-307.4 163 404 323.8z"/><path fill="#8b6a46" fill-opacity=".7" d="M376.8 310L87 449.3l3.7-95.2 252.6 95.2z"/><path fill="#cae4de" fill-opacity=".7" d="M324.3 27.4l-1-34.2 31.7.3 15 25.4z"/><path fill="#b1907d" fill-opacity=".6" d="M130 111l105 30.4-1.3-50.6-93.5-17z"/><path fill="#838274" fill-opacity=".6" d="M132.5 449.3l247-109.5L287 138.5 314 288z"/><path fill="#1d160e" d="M169.3-10.2L416 351.2 279.7-4.6 160.6-.2z"/><path fill="#0e0705" d="M124.5 298.1l13.5-83-22.5-252.6-153 77.7z"/><path fill="#b6a897" fill-opacity=".5" d="M231.3 84.8l-44.6-54.5-5.5 8.2 43.3 410.8z"/><path fill="#dafbd4" fill-opacity=".2" d="M418.7-1.5L411 157.7l-26.4-9.5-8-185.7z"/><path fill="#180d04" fill-opacity=".5" d="M296.2 127.9l-82.6 41.6 92.5-207L195 64.9z"/><path fill="#c5ccc8" fill-opacity=".5" d="M191.8 186l67.6 130.3 53-119.2-47.7-43.8z"/><path fill="#675342" d="M134-34.6l-11.5 77L174 170l-16 27.4z"/></g></svg>