<svg xmlns="http://www.w3.org/2000/svg" viewBox="0 0 620 414"><defs/><filter id="prefix__a"><feGaussianBlur stdDeviation="30"/></filter><rect width="100%" height="100%" fill="#5d3b2d"/><g filter="url(#prefix__a)"><path fill="#c3b29a" fill-opacity=".8" d="M599.7 449.3L584.4-37.5H178.2l-3.1 444.4z"/><path fill="#a49182" d="M-37.5 287l17-240 225.1 341.7-6.5-293z"/><path fill="#48280a" fill-opacity=".5" d="M522.4 109.5l42.1 269.8-189.8-241L426 33.4z"/><path fill="#fff5ee" fill-opacity=".6" d="M544.2 447.8l-229.4-31.2L344.6 315l167.6-30.8z"/><path fill="#fbffc1" fill-opacity=".5" d="M52.6 44.6L41.6 249-12-36.3l135.6-1.2z"/><path fill="#000d14" fill-opacity=".7" d="M91.3 226.7l135.4 204.6L-26 418.5l-11.6-167.6z"/><path fill="#101411" fill-opacity=".7" d="M177.8 35.8l95.4 23.3-149-96.6-74 244z"/><path fill="#ead5d1" fill-opacity=".7" d="M274.2 423.6l-69.3-6 5.8-211.3 9.4-4.3z"/><path fill="#f6ecdc" fill-opacity=".7" d="M327.4 155l4.6 123.5-32.7 14.5L286 138.3z"/><path fill="#d4e2e9" fill-opacity=".7" d="M54 186.7l45-2 147.3 264.6L107.5 240z"/><path fill="#5e1c08" fill-opacity=".3" d="M339.3 210l41.9 90.6 148.5-39-80.4-76.8z"/><path fill="#dec980" fill-opacity=".5" d="M271.3 87.7L657.5 4.6l-48 66.6-412.1-86.5z"/><path fill="#04040f" fill-opacity=".5" d="M163.7 290.1l-16 1.5 34.7-37.3 17 101.5z"/><path fill="#050d12" fill-opacity=".5" d="M76 16.5l-38.5 96.4L167 149.4l3.6-82.6z"/><path fill="#3a4f57" fill-opacity=".6" d="M578.6 159.4l23 267.3 56-339.5-89.4-20.6z"/></g></svg>