<svg xmlns="http://www.w3.org/2000/svg" viewBox="0 0 620 414"><defs/><filter id="prefix__a"><feGaussianBlur stdDeviation="30"/></filter><rect width="100%" height="100%" fill="#563068"/><g filter="url(#prefix__a)"><path fill="#86e6fe" fill-opacity=".6" d="M-15 104.9L7 233.5 289.4 26.9 276 215.5z"/><path fill="#00040c" fill-opacity=".8" d="M657.5 273.2L611.8 389l-387.3-85.5L523.1-20.1z"/><path fill="#2e1e43" d="M-28.3 224.3l213.6-32 101 68.5L-8.5 380z"/><path fill="#9cb0fe" fill-opacity=".3" d="M380.7 30.3l-55-67.8-1.9 213.8 23.5 156.5z"/><path fill="#003b74" fill-opacity=".7" d="M172.4 143.6l71.7-181.1-270 10.6-11.6 133.5z"/><path fill="#000510" fill-opacity=".7" d="M273.7 244.4l28-215.8 30.1 182.8 59.3 31.8z"/><path fill="#748a83" d="M585.9 137.8l24.7-117.5-37.8-8-8.5 130.3z"/><path fill="#517eb4" fill-opacity=".7" d="M226.2 175.8L191.6-37.5l-7.8 113.3-221.3 157z"/><path fill="#a8d5eb" fill-opacity=".7" d="M-25.7 138.8l66.4-25.5 33.9 11.2 14.8 106.3z"/><path fill="#01020a" fill-opacity=".9" d="M623-37.5l34.5 457L356 288l218.5-41.7z"/><path fill="#2c2054" fill-opacity=".9" d="M337.1 207.8l71.2 127.4 249.2 64.2L326 449.3z"/><path fill="#bdffff" fill-opacity=".4" d="M202.5 110l49.6 91.7 56.4-220.6 31.3 68z"/><path fill="#252c63" fill-opacity=".9" d="M411.5-37.5l77.7 36.3L461.6 102l-107 42.6z"/><path fill="#000825" fill-opacity=".6" d="M95.4 84.3l-133 47.2L-1.8.2l99 172.5z"/><path fill="#000206" fill-opacity=".8" d="M216.8 250L105 243.1 81 206l132 14.3z"/></g></svg>