<svg xmlns="http://www.w3.org/2000/svg" viewBox="0 0 620 414"><defs/><filter id="prefix__a"><feGaussianBlur stdDeviation="30"/></filter><rect width="100%" height="100%" fill="#313655"/><g filter="url(#prefix__a)"><path fill="#9e8b82" d="M396.2 262.8l-433.7-170 13-130.3 681 31.2z"/><path fill="#d2d2d4" fill-opacity=".9" d="M268.3 449.3l48-150.7 95.9-40.7 85.7 188z"/><path fill="#d5cfc2" fill-opacity=".8" d="M355.8-37.5L-37.5 1.7l56.9 447 15.5-323z"/><path fill-opacity=".4" d="M378 37.5l-75.8-17.4-263 311 200 107.3z"/><path fill="#cb8654" d="M649.3 380.2L587.5 103l-89.3-81.6 123-58.8z"/><path fill="#c49e78" fill-opacity=".9" d="M55.7 441.8l1.2-175.6-52.3-15.5-28.8 198.6z"/><path fill="#021d4d" fill-opacity=".9" d="M451.7 342.2l145.5 107L577.6 92 503 79.7z"/><path fill="#171515" fill-opacity=".8" d="M102.7 108.3L36 121.8l33 327.5 152.7-50.9z"/><path fill="#bc9f94" fill-opacity=".7" d="M305.9 227.4l20 91.3 135.7-41.9L422 132.2z"/><path fill="#a38b83" fill-opacity=".9" d="M103.7 205.9L288 118.4l-75-51.3-50.2-61.5z"/><path fill="#be5525" fill-opacity=".8" d="M622.2 449l-31.7-51 17.9-129.7 26.9-249z"/><path fill="#09193e" fill-opacity=".8" d="M195.7 407.4l-25-290.7 61 56 31 270.7z"/><path fill="#15192e" fill-opacity=".8" d="M435 179.5l-5.4-52.4 131.5 280.3-52.5 37.3z"/><path fill="#875e47" fill-opacity=".7" d="M268.6-33.2l-42.9 269.6 200-110.7-74-139.5z"/><path fill="#e8edf0" fill-opacity=".6" d="M441.3-19.9l48.2 45.3-13.1 136.9L532 3.3z"/></g></svg>