<svg xmlns="http://www.w3.org/2000/svg" viewBox="0 0 620 929"><defs/><filter id="prefix__a"><feGaussianBlur stdDeviation="30"/></filter><rect width="100%" height="100%" fill="#442d24"/><g filter="url(#prefix__a)"><path fill="#e3e2d5" fill-opacity=".7" d="M371.6 622.4l-33.4 362.8-372-46.4 56.3-995z"/><path fill="#503f31" d="M116.1 622.7l95.5 8.4L279 202l-171-83.8z"/><path fill="#fffff1" fill-opacity=".4" d="M30.1 980.2l251.1-661.6 67.5 14.5-160 616.2z"/><path fill="#dddcd3" d="M306.6 920L112.1 620.1 99.8-56.2-56.2 905z"/><path fill="#000100" fill-opacity=".7" d="M549.4-56.2L676.8 985.2 266 776l36.3 164z"/><path fill="#ffdacf" fill-opacity=".5" d="M254.4 161.5l-51.5 237.3-192.4-8 283-117.2z"/><path fill="#9c9187" fill-opacity=".8" d="M288.9 507l109.6 95.8 37.3 89.6L257 668.8z"/><path fill="#0c0801" fill-opacity=".9" d="M676.8-56.2H293.9l80.2 625.6L676.8 500z"/><path fill="#c8c7b9" d="M110.7-18.9l-11 357.5L56 62-48.6-56.2z"/><path fill="#2e2519" fill-opacity=".9" d="M111 362.2l2.6 267.8 93.2-8.4 21.5-80.5z"/><path fill="#1b1207" fill-opacity=".8" d="M118.7 385.8L111 10.5 208-29l25.3 220.6z"/><path fill="#0b0300" fill-opacity=".5" d="M300.1 487l-38.8 198.5 231.9-434.4 183.6 720.7z"/><path fill="#907e6a" fill-opacity=".9" d="M311 871.3l-46.5-229 140.8 343-96.5-10.6z"/><path fill="#f7ffff" fill-opacity=".3" d="M382.1 619l-63.5-74.3-33.4 170.6 97.6 54.4z"/><path fill="#caa88c" fill-opacity=".7" d="M228.6 397.4l85.3-78 19.2 105.5-30 106.7z"/></g></svg>