<svg xmlns="http://www.w3.org/2000/svg" viewBox="0 0 620 414"><defs/><filter id="a"><feGaussianBlur stdDeviation="30"/></filter><rect width="100%" height="100%" fill="#5d4b2f"/><g filter="url(#a)"><path fill="#aba4a8" fill-opacity=".5" d="M548 449.3L657.6-22-8.7 10.4l-13.8 390.7z"/><path fill="#3f1b06" fill-opacity=".9" d="M184.3 65.1l58.4 4.9 26.6 124.2-21 28.4z"/><path fill="#d7d6de" fill-opacity=".5" d="M258 254.8l-56.3 194.5-78-142-41.1-188.9z"/><path fill="#5a1a02" fill-opacity=".5" d="M455 272l-1.4 177.3L346.3 49.9l166 69.5z"/><path fill="#cecacc" fill-opacity=".5" d="M261.8 132.5L347.5 247l44.6-18.9-78 161.6z"/><path fill="#000205" fill-opacity=".9" d="M577.6 328l-1.4-41 70.2 136-97.8 26.2z"/><path fill="#b4d8ff" fill-opacity=".3" d="M657.5 238.3L447.3 440.5l39.3 8.8-44.8-238.1z"/><path fill="#080400" fill-opacity=".5" d="M445.9 81.4l-85 17.7L546 184l55 143.4z"/><path fill="#fafdd8" fill-opacity=".3" d="M149.2 3.4l182.1 169.5 40.7-20.3-70.5-77.3z"/><path fill="#524131" d="M6.8-11.6L107.3 139 95.4 80.2 83.1 23.7z"/><path fill="#020602" fill-opacity=".8" d="M636.7 102L609 2.2l-6.6 28.6L608 89z"/><path fill="#e8e2f8" fill-opacity=".4" d="M422.4 432.8l-8-149.2-42.9 69.3 3.6 48.9z"/><path fill="#4b0d00" fill-opacity=".4" d="M399.1 237.3l-106 202.8 46.7 4 68.3-163z"/><path fill="#e4f3ff" fill-opacity=".5" d="M91.8 449.3l49-215.3 17.8-2-38 217.3z"/><path fill="#112402" fill-opacity=".4" d="M113.8 358.2l6.8-64.4-108.5 72.9-25-128.1z"/></g></svg>