<svg xmlns="http://www.w3.org/2000/svg" viewBox="0 0 620 414"><defs/><filter id="a"><feGaussianBlur stdDeviation="30"/></filter><rect width="100%" height="100%" fill="#493e34"/><g filter="url(#a)"><path fill="#e3e7f3" fill-opacity=".6" d="M350.2 82.1l307.3-93.2-117.4 460.4-222.6-13.4z"/><path fill="#7c6760" d="M380.7 170.7l-172.4 44.6 38.7 145 243.4-146.2z"/><path fill="#040105" fill-opacity=".7" d="M183 183.8l79-17.7L516.1-37.5-37.5 1z"/><path fill="#e8f5ff" fill-opacity=".5" d="M409.5 47.5L356 129.8l130 57.4L622.3 37.8z"/><path fill="#6e726f" fill-opacity=".8" d="M588.5 343.4l.3 105.9L501 290 657.4 97z"/><path fill="#c1ccd7" fill-opacity=".5" d="M402 237.8l-26 25.5-94.5 186h376.1z"/><path fill="#000216" fill-opacity=".7" d="M218 113.1l120.8 37.3-4.1 62.5-100.5-37.3z"/><path fill="#624a42" d="M510.8 46.5l98-43.8-27-40.2-110 76.3z"/><path fill="#6a4b40" d="M314.1 368.1l98.6-165.9-169 144.6-18 102.5z"/><path fill="#ecfbfc" fill-opacity=".3" d="M140 134l-76-8-16.8 10.8 88.7 54.5z"/><path fill="#291e17" fill-opacity=".8" d="M68.5 360.1L349 449.3l-367.4-.5-8-486.3z"/><path fill="#696f76" fill-opacity=".6" d="M383.9 197.4l-86.5-79.5 126-86.4-78 97.3z"/><path fill="#955848" fill-opacity=".5" d="M483 242l-67 17-90.7-86.4L439 157.4z"/><path fill="#98cde5" fill-opacity=".3" d="M235.6 178.7l76.1 38.8.7 54-50.8 27.6z"/><path fill="#bcc5d0" fill-opacity=".7" d="M462.3 284.8l63-234.4L606-1.7l51.5-4.1z"/></g></svg>