<svg xmlns="http://www.w3.org/2000/svg" viewBox="0 0 620 414"><defs/><filter id="prefix__a"><feGaussianBlur stdDeviation="30"/></filter><rect width="100%" height="100%" fill="#543c2b"/><g filter="url(#prefix__a)"><path fill="#d4aa97" fill-opacity=".7" d="M452.9 446.4l-22-273.5-108-208.3-20.2 451.2z"/><path fill="#0c0c0b" fill-opacity=".7" d="M623.6-37.5l25.5 260.3L528 395.5 444.4 28.3z"/><path fill="#201814" fill-opacity=".6" d="M56.4 449.3l201-326L359 209.7 243.4 449.3z"/><path fill="#e8f2fc" fill-opacity=".6" d="M380.2 204.6l-42.1 226.5-50.1 4.1 37-163z"/><path fill="#955d41" fill-opacity=".8" d="M417.8-37.5L387 449.3l-40.2-165 135 114.8z"/><path fill="#dec3b3" fill-opacity=".9" d="M353.1 41.9l-42.4 43.4 24.7 111.4 21.8-4.9z"/><path fill="#d7c7ca" fill-opacity=".4" d="M386.5 449.3l271-73-84.7 73-178-74.6z"/><path fill="#633f2b" fill-opacity=".9" d="M321.4 101.2l5 112.2-13.7 112.3-48-195.6z"/><path fill="#a68b70" fill-opacity=".9" d="M297-37.5l72.8 19-2.9 39.3-54.7 19.4z"/><path fill="#e6e3ea" fill-opacity=".5" d="M429.9 388.2l-58.4 61 34.6-80.8-35-124.5z"/><path fill="#8e3721" fill-opacity=".5" d="M375 269.6L406.8 372l-45.6 25.2-12.5-82.8z"/><path fill="#493025" fill-opacity=".7" d="M288.4 101.5L63.2 449.3l87.2-486.8L338.1 52z"/><path fill="#814c36" fill-opacity=".6" d="M459 159.4l-37.4 258.4 151.7 31.5L481 318.7z"/><path fill="#be7f59" fill-opacity=".4" d="M395.3 272.5l16.7-310 52.5 147.7-130-27.6z"/><path fill="#121414" fill-opacity=".6" d="M113.3 391.9l199.4-24.7-43.4 82 6.8-225z"/></g></svg>