<svg xmlns="http://www.w3.org/2000/svg" viewBox="0 0 620 414"><defs/><filter id="prefix__a"><feGaussianBlur stdDeviation="30"/></filter><rect width="100%" height="100%" fill="#484141"/><g filter="url(#prefix__a)"><path fill="#f5d1b1" fill-opacity=".5" d="M386-37.5l41.7 116.2L93.5 449.3l-131-434.8z"/><path fill="#572601" fill-opacity=".8" d="M119.4 341.5l46.5-362.6 70-16.4-50.4 385.3z"/><path fill="#f0f8ff" fill-opacity=".4" d="M-37.5 241.2L180.2-37.5 104.9 278l91 171.3z"/><path fill="#d7d8c8" fill-opacity=".5" d="M228.1 292.3l141.5 50.9 120.8-169.3L365 424.6z"/><path fill="#f0af69" fill-opacity=".7" d="M567.4 403l33-9.7 57.1 25L623 7z"/><path fill="#ded4cb" fill-opacity=".4" d="M469.8 159.8l-197.6 1.5-90.8 74.1 92.3-273z"/><path fill="#040000" fill-opacity=".3" d="M423.6 282.1l-54.7-153.5-141.7 82.8-140 137.1z"/><path fill="#401a07" fill-opacity=".8" d="M424.3-37.5l157.4 358-207 102.1 92-196.4z"/><path fill="#876f5a" fill-opacity=".8" d="M586.8-37.5l-125.7 5 63.7 209.3 21 116.2z"/><path fill="#602d0a" fill-opacity=".9" d="M220.9 449.3l81.1-34L140.2 124l-16.7 95z"/><path fill="#0b1a22" fill-opacity=".9" d="M557.5 449.3L594.1 185 474.9 329.4l-3.1 119.9z"/><path fill="#f0f9fd" fill-opacity=".6" d="M61.8 64.4l32.4 181.4 27.6-56 14-86.6z"/><path fill="#060806" fill-opacity=".6" d="M354.6 172l87.6 52.7-72.6 139-16.5 5.6z"/><path fill="#ffbb8b" fill-opacity=".4" d="M438.6 222.3L389-12l90.5 235-123 195.4z"/><path fill="#763300" fill-opacity=".3" d="M56 161.5l-59.1-199-10.2 451.4 98 29.8z"/></g></svg>