<svg xmlns="http://www.w3.org/2000/svg" viewBox="0 0 620 414"><defs/><filter id="prefix__a"><feGaussianBlur stdDeviation="30"/></filter><rect width="100%" height="100%" fill="#283848"/><g filter="url(#prefix__a)"><path fill="#dbd1c2" fill-opacity=".7" d="M-37.5 4.4L422-6.6 521.7 389l-364 60.3z"/><path fill="#7e6a59" fill-opacity=".9" d="M119.6 193l-157.1-63.4L61 449.3 654.1 26.4z"/><path fill="#c8ecf7" fill-opacity=".6" d="M421.9-21.8L303.7 182.4l-335 14 9-234z"/><path fill="#8e806a" fill-opacity=".8" d="M657.5 174.6V64.4L394 38.8l48 165.4z"/><path fill="#7b5b4b" fill-opacity=".9" d="M328.6 447.6L163 197l57.1-50 134.2 184z"/><path fill="#050301" fill-opacity=".9" d="M617.3 328l-113-111.5 16.4 211.7 43.1 20.6z"/><path fill="#1b0a03" fill-opacity=".8" d="M419.7 135.1l-95.4 5.9 9.4-31.5 42.7-12.6z"/><path fill="#d0c9d0" fill-opacity=".6" d="M471.8 215.5L440 449.3l-93-154L234.4 205z"/><path fill="#49402e" d="M-37.5 302.7l22-107.7 179.7-3-97.8 99.4z"/><path fill="#382c1c" d="M607.6-37.5L405-6.5l2 57.8L654 49z"/><path fill="#351200" fill-opacity=".6" d="M101.7 424.6l82.8-137.4L198 392.6 93.7 375.4z"/><path fill="#c0d4d7" d="M293.8-37.5L412 79.2l-217.8 72.7 145.3 38z"/><path fill="#54443c" d="M560.4 177.5L447.1 203l78.7 33.9 131.7 74.6z"/><path fill="#34120d" fill-opacity=".5" d="M475.4 440l-13.3-159.3-10 90 70.3 16.6z"/><path fill="#e9c3a9" fill-opacity=".5" d="M130 296.7l40-102.2 7 107.8-45.3 66z"/></g></svg>