<svg xmlns="http://www.w3.org/2000/svg" viewBox="0 0 620 414"><defs/><filter id="prefix__a"><feGaussianBlur stdDeviation="30"/></filter><rect width="100%" height="100%" fill="#482f25"/><g filter="url(#prefix__a)"><path fill="#e4ebf6" fill-opacity=".5" d="M253.6 287.2L-37.5 9.7l445.8-47.2-26.1 486.8z"/><path fill="#bdb6b5" d="M110.2 224.8L-37.5 423.3l72.4-456-72.4 238z"/><path fill="#a3a6ab" fill-opacity=".7" d="M657.5 18.4l-644.7-56-50.3 197.7L60 106.3z"/><path fill="#f5f2fd" fill-opacity=".6" d="M406.6 418.3l199.6 31-313.9-39.5L345 279.2z"/><path fill="#fed4cb" fill-opacity=".2" d="M-37.5 252.1l238-186.5L83.3 440.3l-120.8 9z"/><path fill="#4c0400" fill-opacity=".3" d="M282 266.6l235.6 182.7 36-308.8-210.9-22.8z"/><path fill="#1c0e08" fill-opacity=".9" d="M101.2 100.5l48.7 16.2-187.4 64.7 90.8-76.8z"/><path fill="#ada7a8" d="M235.9 314.6l-32 2.2-11.4-20.4L248 264z"/><path fill="#14070d" fill-opacity=".8" d="M298.4 265.2l-6.8 15-32.2 169H38.3z"/><path fill="#786462" fill-opacity=".5" d="M624.4 265.7l-152.4-77L307.3 28.3 568.7-5z"/><path fill="#030101" d="M577.6 324.3l-17.4 125h97.3V225z"/><path fill="#3a120c" fill-opacity=".7" d="M187 379.3l6-235.7 52 12.1-130.4 85.5z"/><path fill="#110301" d="M420.7 449.3l-22.5-28.6 15.2-174.2 78.2 52.8z"/><path fill="#d8d8d4" fill-opacity=".7" d="M120.1 77.3l58.1 99.7 2.2-39.7L183-37.5z"/><path fill="#f8f3f7" fill-opacity=".5" d="M-34 449.3l103-69.5 26.2-3.4-6.6 57.6z"/></g></svg>