<svg xmlns="http://www.w3.org/2000/svg" viewBox="0 0 620 414"><defs/><filter id="prefix__a"><feGaussianBlur stdDeviation="30"/></filter><rect width="100%" height="100%" fill="#603630"/><g filter="url(#prefix__a)"><path fill="#0c191a" fill-opacity=".7" d="M23.5 367l-61-370 695-34.5-62.7 486.8z"/><path fill="#9e8870" fill-opacity=".5" d="M344.4 329.1l187 38.8-48.2-75.1-520.7-70.2z"/><path fill="#bb986b" fill-opacity=".5" d="M72.9 215L30 253l247.3 56.8-37.8-78z"/><path fill="#141416" fill-opacity=".7" d="M343.7 309.5l313.8 100.8-469 39 137-253.1z"/><path fill="#dbe8d8" fill-opacity=".5" d="M281.2 118.2l-66.9 38.3 45.3 13.3-13-63.7z"/><path fill="#cdc8b5" fill-opacity=".5" d="M511.3 311.5l-157.5-10-14.3-30.7 163 94.9z"/><path fill="#121112" fill-opacity=".9" d="M173 160.3l241.4 5.8-254.8 71.2L26.4 426z"/><path fill="#cefdec" fill-opacity=".6" d="M636.2 220.4L617 297.9 595.3 330l62.2 13z"/><path fill="#0b0a0c" fill-opacity=".8" d="M21.8 265.4l161-200.3L4.5 36.8l-42 390.7z"/><path fill="#929962" fill-opacity=".7" d="M-7.8 321.4L51.1 354l-62 81.6-26.6 13.6z"/><path fill="#0b0a0f" fill-opacity=".5" d="M637.4-34.6l-313.1 311 211 43.3 109.6-33z"/><path fill="#44463d" d="M553.6 335.7l47.3 11.6-64.7 56-44.3-46.3z"/><path fill="#61653b" fill-opacity=".8" d="M190.4 388.5l96.1 60.8-262.8-10 47.3-74z"/><path fill="#947e5c" fill-opacity=".8" d="M118.2 258l-80-4.2 89.2-44.5 19.4 13.8z"/><path fill="#fdeccc" fill-opacity=".5" d="M277 131.8L238.4 121l2.4-12.6 35.2 4.8z"/></g></svg>