<svg xmlns="http://www.w3.org/2000/svg" viewBox="0 0 620 414"><defs/><filter id="prefix__a"><feGaussianBlur stdDeviation="30"/></filter><rect width="100%" height="100%" fill="#696447"/><g filter="url(#prefix__a)"><path fill="#bb9a6f" fill-opacity=".8" d="M639.9-37.5l-30.3 486.8-647.1-43.9 55-400z"/><path fill="#e7e8f0" fill-opacity=".8" d="M411 72.9l-52.6 47.2-13.5 242 72.1-7z"/><path fill="#aa4b06" fill-opacity=".6" d="M657.5 425V284.3L402 253.8l81.4 160.6z"/><path fill="#c6c8be" fill-opacity=".8" d="M535.2 5.8l-455-43.3 224.7 162L356.3 27z"/><path fill="#ad7338" fill-opacity=".8" d="M378 449.3l-41.8-160.4-208-51.8-15.3 212.2z"/><path fill="#0a0508" fill-opacity=".8" d="M402.3 56.2l-40.7-21-22.3 23.4 55.2 27.9z"/><path fill="#fff5e5" fill-opacity=".4" d="M613 209l44.5 78.5L429 251.9l1-52.8z"/><path fill="#e5c794" fill-opacity=".8" d="M56.4 258l-80.9-1.8L95 449.2l21.6-55.9z"/><path fill="#e1972c" fill-opacity=".8" d="M43.8 350l35.4 99.3-91.8-123L359.2 169z"/><path fill="#764222" fill-opacity=".7" d="M506.9 138.5l-22.8-41.1-84 77.5 23.2 42.3z"/><path fill="#8b8154" fill-opacity=".9" d="M302.3 144.8L84 244.8l-121-14.7L16.1-37.5z"/><path fill="azure" fill-opacity=".5" d="M263.7 199.8L226 175.1l-37 21.3-49.7 61z"/><path fill="#c1752e" fill-opacity=".9" d="M421 352.9l-145.4 43.8 243 52.6 139-55z"/><path fill="#ddf2ff" fill-opacity=".5" d="M326.2 216.3l-14.3 157-1.9-57.5-18.6-64.2z"/><path fill="#409eaf" fill-opacity=".6" d="M259.1 438.4l-16.4-187.5 24 110.4 25.1 39z"/></g></svg>