<svg xmlns="http://www.w3.org/2000/svg" viewBox="0 0 620 929"><defs/><filter id="prefix__a"><feGaussianBlur stdDeviation="30"/></filter><rect width="100%" height="100%" fill="#5f5434"/><g filter="url(#prefix__a)"><path fill="#070709" fill-opacity=".9" d="M676.8 968.2l-733-42.1 275.4-797.3 234.4 181.5z"/><path fill="#908a7b" d="M266.4 322.6l37 149.5 42.4-38 15.6-348z"/><path fill="#817f79" fill-opacity=".6" d="M554.1 160.4L3.3-56.2 484 293.2l67.5 460.9z"/><path fill="#00010a" fill-opacity=".6" d="M676.8-56.2L548.7 985.2l128-378.4-231-663z"/><path fill="#0c0c0a" fill-opacity=".9" d="M551.6 710.9l-85-463-67.8-15-90 76.3z"/><path fill="#7b7669" fill-opacity=".9" d="M174.2 45L-10.5 315.4l96.1 146.2 95.5-193.4z"/><path fill="#030303" fill-opacity=".7" d="M661.5 971.5l-705.8 13.7-12-516.3 694.6 192.6z"/><path fill="#e3deca" fill-opacity=".7" d="M353 416.2l-8.3-54.4-61-58L304.9 468z"/><path fill="#9c9583" d="M303 199.2l5.8 143.4 20.7-55.6 128.1-113.5z"/><path fill="#b3ada1" fill-opacity=".3" d="M520 669.9l-11.2-84.2-19.3-366.2 109.6 244.6z"/><path fill="#040504" fill-opacity=".8" d="M146.6 469.2l158.2-207.6-33-139-78 21.8z"/><path fill="#6f6e6b" fill-opacity=".4" d="M98.3 657.6L117 469.2l31.5-451.4-174.9 172.4z"/><path fill="#73716c" fill-opacity=".3" d="M619.8 355.3l-78.4-230.5L162.6-55.5l96.1 197z"/><path fill="#020202" fill-opacity=".7" d="M297.6 333.5l-54.1-6.5 249 509.8-378.6-373.4z"/><path fill="#040404" fill-opacity=".8" d="M173.1 158.6l23.2 239.1 116.9-208-41.4-53.6z"/></g></svg>