<svg xmlns="http://www.w3.org/2000/svg" viewBox="0 0 620 414"><defs/><filter id="prefix__a"><feGaussianBlur stdDeviation="30"/></filter><rect width="100%" height="100%" fill="#59312e"/><g filter="url(#prefix__a)"><path fill="#91857c" fill-opacity=".7" d="M25.7 385l109-301.4 522.8 36.8-41.4 328.9z"/><path fill="#f5feff" fill-opacity=".4" d="M70.7 202l.7 86.4 157-7L424 168.6z"/><path fill="#5b413a" d="M79.7 449.3l287.7-76.8 238.8 10.9-383.9-99z"/><path fill="#b9fdee" fill-opacity=".3" d="M470.6 59.8l14.7 104.6-146.2-202L274.4 143z"/><path fill="#c2d0db" fill-opacity=".6" d="M655.8 412.2l-484.3 32 153-61.5 282 3.8z"/><path fill="#2c472f" fill-opacity=".7" d="M67.6-37.5L77.7 414l-79.4 35.2-35.8-368.7z"/><path fill="#2f1813" fill-opacity=".6" d="M224 141.7l33 114 39 131-59-29.7z"/><path fill="#e3e2df" fill-opacity=".7" d="M65 270l79.6-51.3 39.2-70.7-4.3 135.8z"/><path fill="#e2eaee" fill-opacity=".5" d="M191.3 61l10.2 174.2 5 50.1L227 136.6z"/><path fill="#305450" fill-opacity=".4" d="M457.3 65.9L657.5 325V-21.8l-567.9 36z"/><path fill="#755649" d="M445.4 58.6l-68 335.4 41.1-61 79 94.5z"/><path fill="#b9a89d" fill-opacity=".5" d="M403 183l134.7-35-202.3-49 59.4 290z"/><path fill="#181a12" fill-opacity=".6" d="M226 150.9l63-56.4-2-132L215-3z"/><path fill="#625443" fill-opacity=".7" d="M63 204.6l51.6-220.3 131.2-21.8-107 259.1z"/><path fill="#b4ada4" fill-opacity=".8" d="M444.4 28.6L493 147.3 657.5 127l-194.7 47z"/></g></svg>