<svg xmlns="http://www.w3.org/2000/svg" viewBox="0 0 620 414"><defs/><filter id="prefix__a"><feGaussianBlur stdDeviation="30"/></filter><rect width="100%" height="100%" fill="#5f3e38"/><g filter="url(#prefix__a)"><path fill="#f4f8f9" fill-opacity=".9" d="M425.5 449.3l201.3-4L619.3 2 469-37.5z"/><path fill="#c2d0c8" fill-opacity=".5" d="M55.2 449.3H247L424.3 4-32.2-37.5z"/><path fill="#484040" d="M321.4 138.8l-115 33.4 18.8 188.7 224.5 88.4z"/><path fill="#e2d9d5" fill-opacity=".5" d="M-37.5 437.4l364-3.9-219.7-200.3 148.5 11.2z"/><path fill="#b0a99d" fill-opacity=".5" d="M335 150.4l-372.5-106 454.3-82-15.3 354.9z"/><path fill="#635446" d="M-16.7 449.3l15-236.4 107.8-11.2L237.6 70.2z"/><path fill="#a8a29e" fill-opacity=".9" d="M34.1 199.8L8.2-5.8 188-12.1l12.4 149z"/><path fill="#eabc97" fill-opacity=".4" d="M204.4 217.5L337 433.8l6.5-63-79.2-94.5z"/><path fill="#835946" fill-opacity=".7" d="M296.7 387.5L160 324l-19.4-63-30.7 78z"/><path fill="#b7b5b3" fill-opacity=".8" d="M588.8 356.3l26.8 93 42-445.4-48.3-11.6z"/><path fill="#211b1e" fill-opacity=".7" d="M192.3 226.2l35.6-81.4 173.6 258L208 220.6z"/><path fill="#ffdfd2" fill-opacity=".3" d="M258 265.2l27.3-162.8-34 24.7-15.2-13.8z"/><path fill="#cecdd1" d="M175.3 370.3l-37.5 39.2 197.1 39.8-65.6-64.7z"/><path fill="#310f00" fill-opacity=".5" d="M228.4 80.2l33.2 18.4-52.6 21-16.7-7.2z"/><path fill="#ffe5d6" fill-opacity=".4" d="M150.2 290.9l40.4 30 27.9-47.5L190.8 149z"/></g></svg>