<svg xmlns="http://www.w3.org/2000/svg" viewBox="0 0 620 929"><defs/><filter id="prefix__a"><feGaussianBlur stdDeviation="30"/></filter><rect width="100%" height="100%" fill="#2b3d54"/><g filter="url(#prefix__a)"><path fill="#abc0c6" fill-opacity=".7" d="M606 985.2L353.8 355l-164-77 487-334.1z"/><path fill="#5a717f" d="M270.7 683l176 272.1 75.5 7.3-57.3-597z"/><path fill="#872a00" fill-opacity=".4" d="M580.3 667.7L158.6 493.5l22.8-337L315 128.7z"/><path fill="#77d2ff" fill-opacity=".4" d="M676.8 603.1l-147.7-25L350.9 73.7 609-15z"/><path fill="#101318" fill-opacity=".6" d="M-56.2 562.8L-33.4 863 270 954.4l12-566.8z"/><path fill="#d1a185" fill-opacity=".9" d="M325.1 253L257 381l-11-180.7 43.6-4z"/><path fill="#c49071" fill-opacity=".9" d="M466 399.2l-81 85.6-38.4-176 78.7-14.1z"/><path fill="#7f8a8f" d="M546.2 855.3l10.1 130 99.4-147.7L551 484.8z"/><path fill="#65add5" fill-opacity=".4" d="M269.6 712.7l3.7-147.7 73.6-4.3 101.6 283z"/><path fill="#121218" fill-opacity=".6" d="M-56.2 173.1L360 10.5l265.6-44.2-681.8-22.5z"/><path fill="#48728f" fill-opacity=".7" d="M177.8 287.4l-24.3-129.2-209.7 205 128.8 21.1z"/><path fill="#467596" fill-opacity=".6" d="M299.4 99.4L676.8-30.5 354.2 291l12 35.6z"/><path fill="#ffc8b1" fill-opacity=".6" d="M54 918.1l8.8-11.6L34 876.4l-78 108.8z"/><path fill="#422918" fill-opacity=".9" d="M400.6 471.4l30.2-43.6 2.1 196.7-192.3-205.4z"/><path fill="#5484a3" fill-opacity=".7" d="M280.5 800.2l62.4 95.4 181.8-2.9-240.6 92.5z"/></g></svg>