<svg xmlns="http://www.w3.org/2000/svg" viewBox="0 0 620 414"><defs/><filter id="a"><feGaussianBlur stdDeviation="30"/></filter><rect width="100%" height="100%" fill="#4f332d"/><g filter="url(#a)"><path fill="#e7e5da" fill-opacity=".8" d="M65.9 316.8l591.6-9.2-46-345.1-649 43z"/><path fill="#977a61" fill-opacity=".7" d="M645.7 445.6l-491.2-31.5L430 88.1l203.7 254.4z"/><path fill="#fff" fill-opacity=".5" d="M28.6 341.2L-4.6-27.6l317.5-10-118.2 375.7z"/><path fill="#babbbe" d="M640.1 261l-24.5 188.3-20-73.7-90.2 33.5z"/><path fill="#5a3730" fill-opacity=".8" d="M342.7 382.7l-23-106.8-93.7 5.5-76.8 117.7z"/><path fill="#725242" fill-opacity=".7" d="M-35.4 89.4l180.5 312.1-14-121.3-160 45.5z"/><path fill="#200400" fill-opacity=".6" d="M428.7 107.5l-10.2 89 52 21.2-6.2-99z"/><path fill="#605049" fill-opacity=".4" d="M290.9 3.9l48.6 208.7 55.3-177.2-66.2-73z"/><path fill="#d2bd99" d="M464.5 245L413 178.6l-218.2 29 4.4 70z"/><path fill="#5f3a2c" fill-opacity=".6" d="M482.7 322.1l-73-70.5 31 197.7L593.2 315z"/><path fill="#fbffff" fill-opacity=".7" d="M8.5 43.4l206.8-81L181.4 298 22.8 214z"/><path fill="#d5c18c" fill-opacity=".5" d="M474.4 147l-12.3 179 143.6-23-48-94.2z"/><path fill="#d3d6d9" fill-opacity=".7" d="M354 138.3L537.3 27l-50.6 113.6L327 30z"/><path fill="#c5a896" fill-opacity=".6" d="M224.8 291.8l-262.3 67.4 132-90.4 63.2 100.8z"/><path fill="#fce0b9" fill-opacity=".3" d="M313 352.1l141.8-43.3-139.2 140.5 37.8-79.2z"/></g></svg>