<svg xmlns="http://www.w3.org/2000/svg" viewBox="0 0 620 414"><defs/><filter id="a"><feGaussianBlur stdDeviation="30"/></filter><rect width="100%" height="100%" fill="#623a37"/><g filter="url(#a)"><path fill="#aeaea6" fill-opacity=".8" d="M-37.5.5L22 411.2l635.5 8.5v-436z"/><path fill="#e0dfdc" d="M557 270V-37.5l100.5 62.2-50 424.6z"/><path fill="#675a4c" fill-opacity=".8" d="M274.4 388.7l76.3-274.9L571 132.2-36.6 373z"/><path fill="#623e3b" d="M554.1 344.9L550.2 3.6l-37.5-31.5 8.5 353.2z"/><path fill="#cdcccb" d="M657.5 402L537 340.5 458.2 240 338 373z"/><path fill="#130403" fill-opacity=".5" d="M409.3 210l-271.5 19.4 207-36.1L373 116z"/><path fill="#b1afab" fill-opacity=".8" d="M-37.5 261.3l378.3-77.5 75.8-221.3H217.7z"/><path fill="#9a9187" d="M522 258.7L510.2-37.5l-66 33.1-20.9 268.1z"/><path fill="#ccb9a3" fill-opacity=".5" d="M469.1 201l-252.3 34.2-32.5 64.1L400.1 319z"/><path fill="#6d6856" fill-opacity=".4" d="M-21.8 445.6l283.1 3.7-81.6-192.6-208.3 15.8z"/><path fill="#000311" fill-opacity=".5" d="M348.5 173.2l83.3-7-9.4-54.6-64.2 14.3z"/><path fill="#210f02" fill-opacity=".4" d="M289.2 367l-114.3-8.6-1.5-55.7L281 316.5z"/><path fill="#f8fcff" fill-opacity=".5" d="M512.7 380L407.8 268.3l61.8-10.1 76.3 96.8z"/><path fill="#74533f" fill-opacity=".5" d="M522.6 247l-131.2 18.4 15.5-50.3 111.6 80.6z"/><path fill="#b6b2ae" fill-opacity=".7" d="M362.8 211.7L468.1 369l189.4 41.4-316 22.3z"/></g></svg>