<svg xmlns="http://www.w3.org/2000/svg" viewBox="0 0 620 414"><defs/><filter id="a"><feGaussianBlur stdDeviation="30"/></filter><rect width="100%" height="100%" fill="#514035"/><g filter="url(#a)"><path fill="#cbcece" fill-opacity=".6" d="M499.1 138.8L629.7-37.5 91.5-20.1l41.2 469.4z"/><path fill="#210708" fill-opacity=".5" d="M-37.5 248.5L256.2 125l182.4 54.7 12.4 37z"/><path fill="#f4ffff" fill-opacity=".4" d="M92.3 122.5l440-147-170.5 473.8 175.9-314.9z"/><path fill="#83807e" d="M323.8 291.8l-215.3-15.5-146 130.6 265 42.4z"/><path fill="#aab1a9" fill-opacity=".4" d="M327.4 220l271.3 12-201.8 178.5-9-288.2z"/><path fill="#dae4e8" fill-opacity=".9" d="M-37.5 231.8l53-16.7-4.1-154L7 7.6z"/><path fill="#c9cbc9" fill-opacity=".9" d="M263-37.5l-44 194-42.7 17.1L94 16z"/><path fill="#665640" fill-opacity=".5" d="M247.3-37.5L271 342.9l386.5-239.5L334.2 213z"/><path fill="#120610" fill-opacity=".7" d="M71 328.9l-54-24.2-4.2-284.1 84.6-58.1z"/><path fill="#f4fff7" fill-opacity=".5" d="M596 128.4l-9-166L423 4.7 657.6 72z"/><path fill="#091505" fill-opacity=".6" d="M311 449.3l82.8-3-5.6-73.8-45.7-164z"/><path fill="#1d1916" fill-opacity=".6" d="M486.3 129.8l28.8-64.7 73.2 16 2.9 31.5z"/><path fill="#0d1022" fill-opacity=".5" d="M236.6 204.9l-106.3 42.4-19.6 17.7 34.6-122.8z"/><path fill="#e8eced" fill-opacity=".8" d="M489.2 101.7l61.3-139.2-118 48.4 27.9 162z"/><path fill="#b6c1d7" fill-opacity=".8" d="M410.8 233l49.8-11 31.8 12.2-92.5 42.9z"/></g></svg>