<svg xmlns="http://www.w3.org/2000/svg" viewBox="0 0 620 414"><defs/><filter id="prefix__a"><feGaussianBlur stdDeviation="30"/></filter><rect width="100%" height="100%" fill="#4d372c"/><g filter="url(#prefix__a)"><path fill="#f6e8d9" fill-opacity=".8" d="M292.3 411.5l257 13.5-17.5-244.3L399.1 147z"/><path fill="#dffff6" fill-opacity=".6" d="M657.5 135.6L604-36.6l-51 99.3.9 83.3z"/><path fill="#d0aa8d" fill-opacity=".6" d="M274.2 96.6L586 449.3 546.6 197l-287-234.6z"/><path fill="#00080e" fill-opacity=".7" d="M245 302.5l-92.2-317L-37.5 5l18.9 442.7z"/><path fill="#f9ffff" fill-opacity=".3" d="M176 416.8l-95.6-46L391 449.3l137.6-299.9z"/><path fill="#f7dcd0" fill-opacity=".5" d="M184.8 89.1l4.8-17 25-12.3 31.2 215.8z"/><path fill="#180b08" fill-opacity=".6" d="M299.8 339.3l90.8-234.4-146.2 249 97.6 95.4z"/><path fill="#948166" fill-opacity=".8" d="M519.7 88L368 185.2l284.3-10-131.7 53z"/><path fill="#feffff" fill-opacity=".4" d="M413.4 335.2l-217-29.6 76.8-32.2 75.3 175.9z"/><path fill="#050500" fill-opacity=".6" d="M480.3 132.2L606.7-37.5 256-4.8l87.2-28.9z"/><path fill="#1e1a16" fill-opacity=".8" d="M373 235.4l-31.5 59.3-30-5.5-125-326.7z"/><path fill="#c9a68b" fill-opacity=".8" d="M327-17l22.2 174.4-51.3-27.8L248.7-35z"/><path fill="#895a3e" fill-opacity=".5" d="M580 439.8l8-97.1-45.3-199-51 305.6z"/><path fill="#dc9780" fill-opacity=".5" d="M150.4 356.5L296.2 433l111.2 16.3-164.5-85.8z"/><path fill="#131b31" d="M132.2 148.2l-18.6 203.5 116.7 6.3 36.8 11z"/></g></svg>