<svg xmlns="http://www.w3.org/2000/svg" viewBox="0 0 620 414"><defs/><filter id="prefix__a"><feGaussianBlur stdDeviation="30"/></filter><rect width="100%" height="100%" fill="#4f433a"/><g filter="url(#prefix__a)"><path fill="#f9fefb" fill-opacity=".9" d="M657.5 449.3V109l-628 197.9v142.4z"/><path fill="#978d7f" d="M-32.2 307.3L431.6-37.5h220.1L188.4 288.2z"/><path fill="#46532e" fill-opacity=".6" d="M546.9 157.4l-53 68.8L360 199.1l-7.5-185.8z"/><path fill="#fdffff" fill-opacity=".3" d="M-37.5 219.7l224.2 229.6L43 107.3 69-37.5z"/><path fill="#ecede9" fill-opacity=".5" d="M335 449.3L367.3 74l-53.5-38L263 53.8z"/><path fill="#27190e" fill-opacity=".6" d="M218 245.8l-87 57L288.2-37.6 24.7 36z"/><path fill="#c4c1ad" fill-opacity=".8" d="M560.2 120.4l-90.6 125.2 188-139.3-56.7-21.8z"/><path fill="#655743" fill-opacity=".7" d="M433 136.6L207.8 184 97.1 264.7l35.6 37z"/><path fill="#eeece3" fill-opacity=".7" d="M17.7 324.3l112.8-155 23 18.9-88.1 127.4z"/><path fill="#605242" fill-opacity=".9" d="M47.7 194.2L210.5-37.5 99.3 230l-133.2 49.6z"/><path fill="#fef5e2" fill-opacity=".6" d="M9.2 110.2l68.3 41.2-62 70L40.7 98.6z"/><path fill="#ebefec" fill-opacity=".4" d="M562.8-19.1L395.3 23.5l25.6 78.5 77.8-32.7z"/><path fill="#001008" fill-opacity=".7" d="M505.7 66.1l38.3-36 74.8 44.7L489 162z"/><path fill="#875236" d="M230.8 54.7L202.2 148l64.7 34.4.7-136.4z"/><path fill="#1e130e" d="M85.3 154.3l65.1-188.7-68.8-3.1-40.2 161.7z"/></g></svg>