<svg xmlns="http://www.w3.org/2000/svg" viewBox="0 0 620 414"><defs/><filter id="prefix__a"><feGaussianBlur stdDeviation="30"/></filter><rect width="100%" height="100%" fill="#626433"/><g filter="url(#prefix__a)"><path fill="#c9cfdd" fill-opacity=".7" d="M545.2-37.5l20 164.2-357.6 63L-37.5-30z"/><path fill="#03081c" fill-opacity=".9" d="M-37.5 380.2l292 61.3L97.4 232l-135-31.2z"/><path fill="#091023" fill-opacity=".8" d="M387.7 449.3h269.8l-4.8-238.8L356.5 327z"/><path fill="#7a8691" fill-opacity=".7" d="M503.5-37.5l81.1 55.4-63.4 342.7-46.8 88.7z"/><path fill="#5f6584" fill-opacity=".7" d="M378.5 328.4l-26.1 120.9L115.3 294 494.5 91z"/><path fill="#130208" fill-opacity=".7" d="M379.3 449.3l70.4-304.5-33.6-10.4 89.6 149z"/><path fill="#928478" d="M135.1 168.8l50.9-75-88.4-32.3-80 133.7z"/><path fill="#d8dddf" fill-opacity=".5" d="M404.2 266.4L391.4-17.2 64.9-2.2l374 221.9z"/><path fill="#1e172b" fill-opacity=".5" d="M359 234.7l-16.3-94.5-117.5 309-.7-293z"/><path fill="#899087" fill-opacity=".7" d="M415.1 144.1l166.4.7L634 32.7 450.7-3.1z"/><path fill="#000007" fill-opacity=".7" d="M602.3 242l-84.7-100.3 140 81.1L548 449.3z"/><path fill="#060316" fill-opacity=".8" d="M130.8 447l-3.4-221.5 40.4-65.9L90.1 201z"/><path fill="#d3d7e9" fill-opacity=".4" d="M205.1 269.3l67.8-3.6-85-64.4 61.6-238.8z"/><path fill="#b9b4b3" fill-opacity=".7" d="M413.4 310.2l-50.1-95.9L344 256l32.7 45.3z"/><path fill="#9d9f90" fill-opacity=".8" d="M336.2 85.3l-84.6-.3 23.8 57.4 47.7 114z"/></g></svg>