<svg xmlns="http://www.w3.org/2000/svg" viewBox="0 0 620 414"><defs/><filter id="prefix__a"><feGaussianBlur stdDeviation="30"/></filter><rect width="100%" height="100%" fill="#434542"/><g filter="url(#prefix__a)"><path fill="#d8d6cb" fill-opacity=".8" d="M512.5 429.9L388-28.3l-425.5-9.2 22.5 486z"/><path fill="#464a31" fill-opacity=".7" d="M80.6 217l53 132.7 108.8-166.1V-37.5z"/><path fill="#e6ede9" fill-opacity=".6" d="M482.2 214.6L458.5-37.5l151.3 189.1 47.7 100.5z"/><path fill="#fffffc" fill-opacity=".6" d="M213.6 423.1l19.1-196.9 181-43.3 114.8 266.4z"/><path fill="#222d0c" fill-opacity=".8" d="M352.9 71.4l-131.3 34.4 6.5 29.6 144.6-40.5z"/><path fill="#5a5642" fill-opacity=".8" d="M145.6 449.3l61.2-368 79-88.6-109.5-30z"/><path fill="#e5f1f7" fill-opacity=".5" d="M24.2 428.7l81.2-67.8L40.7-37.5l-78.2 467.4z"/><path fill="#5e1b00" fill-opacity=".3" d="M301 130.8l259 26.6-279.5 53-25-52.3z"/><path fill="#e5ded5" fill-opacity=".6" d="M-37.5 39.2l140.2 145.3 64.2-41.1 1.9-138.6z"/><path fill="#313826" fill-opacity=".6" d="M190.8 152.8L220.6 389l-2.9-153.6L54.3 198z"/><path fill="#5c6058" fill-opacity=".5" d="M647.1 262.8l-274.9 1.4-258.9 26.2 207.4.2z"/><path fill="#dad5d0" fill-opacity=".7" d="M185.5 154.8l14.8 74.8 38.3-87 63.7 128.2z"/><path fill="#ccd1ce" fill-opacity=".6" d="M194.7 145.8l34-68.3L238.2-23l-28 87.2z"/><path fill="#ede3da" fill-opacity=".8" d="M444 223L360 25.3l21.3-62.7L402.8 244z"/><path fill="#222216" fill-opacity=".6" d="M40.2 449.3l57.2-79.5 1.9 33-37.8 41.9z"/></g></svg>