<svg xmlns="http://www.w3.org/2000/svg" viewBox="0 0 620 414"><defs/><filter id="a"><feGaussianBlur stdDeviation="30"/></filter><rect width="100%" height="100%" fill="#503b2b"/><g filter="url(#a)"><path fill="#dfe7e6" fill-opacity=".6" d="M-13 449.3l423.8-3.2L292-37.5l-305.9 4.8z"/><path fill="#868279" fill-opacity=".7" d="M372.2 426l-188.1 23.3L376-11.4l80 39z"/><path fill="#e5eef1" fill-opacity=".5" d="M43.4 301.3l31.2 148L-37.5 372 9-37.5z"/><path fill="#7a6248" fill-opacity=".9" d="M657.5 449.3V305.2l-234.4 41.6-106 73z"/><path fill="#f4efea" fill-opacity=".6" d="M214.6 299.3l-11.6 84L158 228l105.9.2z"/><path fill="#8de3ff" fill-opacity=".2" d="M625.8-1.5l31.7 162.3-101.2-22L262.5-30z"/><path fill="#764e34" fill-opacity=".7" d="M217.7 166.4l41.7 55.2-95.2-1.2 29.3-71z"/><path fill="#00111b" fill-opacity=".5" d="M390.6 225.7L363.8 86.5 272 34.4l107.3-17z"/><path fill="#b3bdc1" fill-opacity=".7" d="M209.3 103.4l-76.8 223.8L19-29.1l330.1 5.9z"/><path fill="#302e2b" fill-opacity=".8" d="M485.1 62.5l-72 50.8 4.2 147.3 240.2.7z"/><path fill="#92846e" fill-opacity=".8" d="M60.8 380.2l393.8 69L89 312.3 25.4 106.6z"/><path fill="#a7a8a2" fill-opacity=".9" d="M328.2 98.3l14.7-135.8-4.8 94.2L324.8 237z"/><path fill="#ffeede" fill-opacity=".4" d="M349.5 316l76.7-78L355 344.5 221.6 353z"/><path fill="#b5e0ff" fill-opacity=".3" d="M387.3 43.4l1.2-81 44.8 105.9L394.8 217z"/><path fill="#8a9394" fill-opacity=".8" d="M360.9 238.8L350.4 98.6 263.7 1.7l-10.6 235.9z"/></g></svg>