<svg xmlns="http://www.w3.org/2000/svg" viewBox="0 0 620 414"><defs/><filter id="a"><feGaussianBlur stdDeviation="30"/></filter><rect width="100%" height="100%" fill="#443824"/><g filter="url(#a)"><path fill="#bfbdba" fill-opacity=".8" d="M581.3 408L156 449.4 5.6 267.9 368.4-33z"/><path fill="#595e56" fill-opacity=".8" d="M290.4 443L229 239.5l95.7-277-362.3 158.1z"/><path fill="#fff" fill-opacity=".5" d="M263.5 373.2l394-6.5v-30.8L270.3 199.6z"/><path fill="#9ea9ad" fill-opacity=".7" d="M561.4 83.3l22 181 33-301.8H487.5z"/><path fill="#5d4d49" fill-opacity=".8" d="M562.8 336.6l94.7-55L446 134l-38 95z"/><path fill="#d9d5d1" fill-opacity=".7" d="M405.2 449.3l-69.5-86.5-60.3-400.3h111.9z"/><path fill="#bdc9cb" fill-opacity=".4" d="M256.5 449.3L76.8 369.6-37.5 196.9l88.6-47z"/><path fill-opacity=".4" d="M555 29.8L419-37.5l70.7 196.4 167.8-157z"/><path fill="#fffdfd" fill-opacity=".5" d="M564 221.1l6-129.8 31 2.7-13.6 68.8z"/><path fill="#7c7f7f" fill-opacity=".7" d="M521.4 363.5L505 449.3l108.2-35.6 32.2-181z"/><path fill="#473831" d="M436.4 261L465 150.3l178 100.5-234.7-14.3z"/><path fill="#393638" fill-opacity=".5" d="M228.1 401.3l-58.3-78-207.3-317 195-26.2z"/><path fill="#6f726e" fill-opacity=".6" d="M84.3 321.1L-37.5 193.5l74.8-79.4 79.4 193z"/><path fill="#fdfbfd" fill-opacity=".4" d="M489.2 257.2l-35.6 157.2-88.1-26.4 34.4-136z"/><path fill="#7f8670" fill-opacity=".9" d="M189.1 150.2l-33.1-61 148-5.9-37 134.2z"/></g></svg>