<svg xmlns="http://www.w3.org/2000/svg" viewBox="0 0 620 414"><defs/><filter id="prefix__a"><feGaussianBlur stdDeviation="30"/></filter><rect width="100%" height="100%" fill="#654a40"/><g filter="url(#prefix__a)"><path fill="#e3eceb" fill-opacity=".7" d="M14-4.1L-37.5 384l518.7-59.6L597-37.5z"/><path fill="#8c9195" fill-opacity=".7" d="M633.6-33.4l-94 482.7H386.3l58.6-340z"/><path fill="#615034" fill-opacity=".4" d="M14.5 16.5l-52 64.1L151 99.1l506.4 14.2z"/><path fill="#4c2f1a" fill-opacity=".3" d="M193.8 436.2l108.7 13 .7-200.7-167.3 9.4z"/><path fill="#fdffff" fill-opacity=".3" d="M469.4 369.3l-223.1-51.8L-37.5 84l420.2 36.6z"/><path fill="#090600" fill-opacity=".4" d="M522.6 243.9L507.4 144l150.1 18.2-4.6 71.4z"/><path fill="#d9f1fe" fill-opacity=".5" d="M568.9 388.5l88.6 24.2-103.4 6-164.9-3.8z"/><path fill="#fefffb" fill-opacity=".4" d="M657.5 19.1L399.4 88-2 11.1l3.8-48.6z"/><path fill="#eef6fa" fill-opacity=".6" d="M162.8 363.5l-142 12.1-58.3-50.6L144 239.8z"/><path fill="#230a02" fill-opacity=".6" d="M283.1 236.4l18.2 28.6-8.5 44.8-15.5-52.1z"/><path fill="#331d0f" fill-opacity=".7" d="M152.3 271.3l17.2-20.2 13.8 14.6-19.3 47.7z"/><path fill="#564430" fill-opacity=".7" d="M242 251.6l-32.5-7.7 96.4 205.4-91.3-41.2z"/><path fill="#001113" fill-opacity=".5" d="M657.5 248.7L527 367.4l130.5 3.1-80.1-226z"/><path fill="#827463" fill-opacity=".9" d="M-14.8 6L91.1 45l259.3 37.3L-30 63.5z"/><path fill="#e5e5e5" fill-opacity=".7" d="M205.1 110l-46.2 1.2 45 230.8 21.6 2.4z"/></g></svg>