<svg xmlns="http://www.w3.org/2000/svg" viewBox="0 0 620 414"><defs/><filter id="prefix__a"><feGaussianBlur stdDeviation="30"/></filter><rect width="100%" height="100%" fill="#50362b"/><g filter="url(#prefix__a)"><path fill="#e9f1f5" fill-opacity=".8" d="M180 159.6l125.6 157.2 69.3 46-280.4 86.5z"/><path fill="#f6dcb3" fill-opacity=".7" d="M647.6 53.3L531.4-37.5l-4.6 486.8L639 421.2z"/><path fill="#aca384" fill-opacity=".6" d="M386.8 114.6L588-30.5l-611.7-7-11.9 340.7z"/><path fill="#fce6bd" fill-opacity=".7" d="M269.8-37.5L302 32 136.4 55l-174-44z"/><path fill="#1e1e1e" d="M127.6 146.5l-29-3.9-29.6 53 53 132.6z"/><path fill="#f4f8fb" fill-opacity=".5" d="M207.8 353.6l66.8 95.7L261.1 135l35.3 106.6z"/><path fill="#6b5d4b" d="M303.5-37.5l166.8 336.4-156.2-60.6-38.2-56.9z"/><path fill="#bae8ff" fill-opacity=".3" d="M73.9 398.6l-37-269L20 296.9l-57.6 41.2z"/><path fill="#210c00" fill-opacity=".3" d="M657.5 67.6L577-6.3 396.2 79l100.3 124.7z"/><path fill="#faf6e1" fill-opacity=".5" d="M543 218l4.8 231.3 109.7-178v-53.6z"/><path fill="#100b00" fill-opacity=".3" d="M116.5 116.3L77.3 24.5 206 78.2 271.7 201z"/><path fill="#ecca98" fill-opacity=".6" d="M383.6 77.5l2 25.7-27.4 46-8.5-84.3z"/><path fill="#a87641" fill-opacity=".5" d="M355 390.6l100.8-16.4 58.1 56.2 62.7-117.7z"/><path fill="#606670" fill-opacity=".5" d="M.5 401l253 4.7 112.7-70.8 59.3 114.4z"/><path fill="#e9eaec" fill-opacity=".5" d="M367.2 339.5l-67.4-17.4-116.2-145.5 51.6 250.6z"/></g></svg>