<svg xmlns="http://www.w3.org/2000/svg" viewBox="0 0 620 414"><defs/><filter id="a"><feGaussianBlur stdDeviation="30"/></filter><rect width="100%" height="100%" fill="#543c37"/><g filter="url(#a)"><path fill="#d1d1cd" fill-opacity=".9" d="M356-37.5l51.1 465.4-424.3 21.4L-37.5-.5z"/><path fill="#b4aaa4" d="M316 396.5L657.6 430 612.3-37.5 476.9 288.2z"/><path fill="#12070a" fill-opacity=".6" d="M292.6 181.9l64.6 66.1-165.1 169.3 13.3-150.9z"/><path fill="#967464" fill-opacity=".8" d="M413 78.2l-44.4 26.4-10 344.7h267.7z"/><path fill="#d7dbde" fill-opacity=".8" d="M530.1-28.6l127.4 11L495 241.6l162.5 125z"/><path fill="#e2e5e3" fill-opacity=".8" d="M97.1 326.2l318.3-353-413.5 2-39.4 171z"/><path fill="#ddd9d7" fill-opacity=".8" d="M287.7 319.2l7.8 83-87 47 19.6-118.1z"/><path fill="#f2ddcc" fill-opacity=".5" d="M458 34.9l-71.2 75.5 41.1 78.5-116.7 136.8z"/><path fill="#090002" fill-opacity=".5" d="M312 192.5l-66.7 128 64.7 5.7 33.4-93.5z"/><path fill="#6f5b43" fill-opacity=".4" d="M231.8 242.4L282 118l-14 237.3L82.3 226.7z"/><path fill="#010505" fill-opacity=".6" d="M561.4 121.3l-38.8-76.5-152.8-12.1 159.4-70.2z"/><path fill="#dcdcdc" fill-opacity=".9" d="M281.4-31l111.4 257.7-29 19.4L188.9 67.6z"/><path fill="#7a4e3d" fill-opacity=".6" d="M493.6 296l-164 60.7 119.9-198.3L516.8 29z"/><path fill="#8f8e7f" fill-opacity=".7" d="M127.9 393.6l-165.4 11.6L28.8 307l34.4 78.2z"/><path fill="#d0d1d3" fill-opacity=".8" d="M605 397.4l-85.3-186.2 94.7-231.3 43.1 433z"/></g></svg>