<svg xmlns="http://www.w3.org/2000/svg" viewBox="0 0 620 414"><defs/><filter id="prefix__a"><feGaussianBlur stdDeviation="30"/></filter><rect width="100%" height="100%" fill="#4e4337"/><g filter="url(#prefix__a)"><path fill="#e2dfd2" fill-opacity=".9" d="M618.3 449.3L657.5-3.4 187.2.2l40.2 268.4z"/><path fill="#af9e7a" fill-opacity=".6" d="M455 126.4l87.7 322.9L237 422l-85.4-302z"/><path fill="#000703" fill-opacity=".6" d="M-35.4-37.5l-2.1 445.8 158.4 41 108.7-151.9z"/><path fill="#2a2317" d="M194 168.3l68.5-6.5-1-24.5-94.4 11.2z"/><path fill="#feffff" fill-opacity=".5" d="M643 449.3L433.3 312.9l111.9-192.5L657.5 133z"/><path fill="#f0ebda" fill-opacity=".6" d="M356.3 375.6l-55.5-127.4 138.8-87.6-3.4 89.6z"/><path fill="#859c96" fill-opacity=".7" d="M216.8-37.5L46-23.2l110 83 47 93.3z"/><path fill="#201f17" fill-opacity=".5" d="M457.5 367.2l-45.3-61.8-29.8 16.7 6.8 61.3z"/><path fill="#f3fafd" fill-opacity=".7" d="M580.3 107.3L315 111.6l67.3-149.1L657.5 71.7z"/><path fill="#63533c" d="M267.1 302.3L252.4 378 384 449.3l-82.8-171z"/><path fill="#c7bda7" fill-opacity=".9" d="M463.8 224.5l-15 74.6-.8 150.2h116z"/><path fill="#bb9e74" fill-opacity=".7" d="M197.1 383.9l-24.4.2 68 65.2 46-269.1z"/><path fill="#2b2404" fill-opacity=".4" d="M384.6 124.7L255 132.2l-19.4 7 146.8 10z"/><path fill="#cdc1ab" fill-opacity=".9" d="M342.5 229.1l31.7 190.4 11.1-84-72.2 17.6z"/><path fill="#24322b" fill-opacity=".9" d="M104.4 42.1l-142-63.4L150 261.6l11.9-155.8z"/></g></svg>