<svg xmlns="http://www.w3.org/2000/svg" viewBox="0 0 620 414"><defs/><filter id="prefix__a"><feGaussianBlur stdDeviation="30"/></filter><rect width="100%" height="100%" fill="#655942"/><g filter="url(#prefix__a)"><path fill="#e2d6c7" fill-opacity=".6" d="M509.6 214.8L16.2 449.3l-53.7-457 566 95.1z"/><path fill="#aa7843" fill-opacity=".9" d="M520.2 260.1l-354.5-25.7-2.2 214.9 494-74.4z"/><path fill="#846c4f" fill-opacity=".7" d="M188.2 449.3L385.8-37.5 58.6-33.7l161.8 256.3z"/><path fill="#f4ffff" fill-opacity=".5" d="M499 104.1l-16.8 187.5-179.5-83.3 32.2-96z"/><path fill="#e0e5e1" fill-opacity=".7" d="M49.9 55.2l-87.4-28.8 17.4 339 182.8-126.8z"/><path fill="#e9ebe9" fill-opacity=".8" d="M657.5 35.8l-80.1 187.5 6.3 11.1 73.8 22.3z"/><path fill="#d1d2cf" fill-opacity=".8" d="M166.1 301.8L-37.5 420.2l195.9 29 31.5-77.2z"/><path fill="#985e24" fill-opacity=".7" d="M4.8 348.5l-42.3 69 208.5-137 97-75.5z"/><path fill="#fed77f" fill-opacity=".6" d="M657.5 350L512 275.9l-58.9 2.9 204.4 137.8z"/><path fill="#baaca8" d="M350 186l-85.5 2.4-1.7 105.1 65.1 12.9z"/><path fill="#93602a" d="M364.7 234.7l-60 108 197.6 71.7 155.2 3.6z"/><path fill="#a08f70" fill-opacity=".6" d="M292.6 29.3l124.7 104.4 127.1-72.4L411-37.5z"/><path fill="#7e796e" fill-opacity=".8" d="M584.2 217.5L478.8-11.6l85.7 314.3-157.1-55.4z"/><path fill="#843d08" fill-opacity=".6" d="M226.2 183.8L295 390l-125-82.6 49.4 142z"/><path fill="#2c1711" fill-opacity=".8" d="M266.4 179.7l10.9 11.4 38.5-20.6-27.8-18z"/></g></svg>