<svg xmlns="http://www.w3.org/2000/svg" viewBox="0 0 620 414"><defs/><filter id="a"><feGaussianBlur stdDeviation="30"/></filter><rect width="100%" height="100%" fill="#5e3a33"/><g filter="url(#a)"><path fill="#bdcdcc" fill-opacity=".7" d="M377.8 258.7l206.6-7.3 11.9-111-190.4-.4z"/><path fill="#b4b8ab" fill-opacity=".5" d="M601.6 336.6L116 449.3 98.6 343.7l107.5-30z"/><path fill="#b0bfcc" fill-opacity=".7" d="M257.4-20.8L149 84.2 90 81 74 11z"/><path fill="#09171c" fill-opacity=".6" d="M114.6 160.3L334.9-37.5l57.4 256-167.8 97.3z"/><path fill="#fcfaf6" fill-opacity=".5" d="M141.4 219l-19.6-26-44 26.7L112 251z"/><path fill="#9f8774" d="M514.9 449.3l47-96.4 95.6-71L543 311.5z"/><path fill="#111616" fill-opacity=".7" d="M652.7-14.8l4.8 79.7-109.2 50.6-123-153z"/><path fill="#c1bfc0" fill-opacity=".6" d="M502.8 280.2l-92-238.8 26.1-79 9.7 316.1z"/><path fill="#d7f7ff" fill-opacity=".4" d="M322.8 252.6l57.2-10.9-26.9 46.7-33.9-2.6z"/><path fill="#d2d7ae" fill-opacity=".7" d="M196.2 262.3l-29.8 20-42.9-3.5 35.9-28.1z"/><path fill="#85605c" d="M271.3 426l217-10.9-97.2-86-98.5 52.8z"/><path fill="#191923" fill-opacity=".7" d="M-37.5 254.3l86.4-78 29.6 81.1-37.3-247z"/><path fill="#00171e" fill-opacity=".5" d="M410.8 327.2l89-38.8-226.6-3.3-162.8 9.6z"/><path fill="#e5f0f2" fill-opacity=".7" d="M143.1 76.3L163.5 24l-30-2.7-56.2 6.3z"/><path fill="#e4fbff" fill-opacity=".3" d="M85 438.1L226 314l144.8 7-255.5 43z"/></g></svg>