<svg xmlns="http://www.w3.org/2000/svg" viewBox="0 0 620 414"><defs/><filter id="prefix__a"><feGaussianBlur stdDeviation="30"/></filter><rect width="100%" height="100%" fill="#49342a"/><g filter="url(#prefix__a)"><path fill="#e4feeb" fill-opacity=".6" d="M258.7-9.4l10.1 149.1 326 2-6.5-179.2z"/><path fill="#e8d7d4" fill-opacity=".4" d="M411.5 166.4L654 316.8 277.3 449.3l-26.4-67.4z"/><path fill="#b9d9c8" fill-opacity=".5" d="M23 136.1L-37.5 32 136-1.5 148 132z"/><path fill="#1f1710" d="M432 272.5l-45.2-47L138.5 66l90.6 161z"/><path fill="#ffebd5" fill-opacity=".3" d="M161.5 221.1l200.6 228.2-7.3-119.2 96.9-47z"/><path fill="#43392c" fill-opacity=".7" d="M418.5-37.5l-.2 218 39.4-59.2-7.2-135.6z"/><path fill="#000001" fill-opacity=".6" d="M244.6 232.3l30-147.8-47.2-122-96.1 24.2z"/><path fill="#cbe0bd" fill-opacity=".7" d="M409 77.3l4.9 46.5-142.6 40.4 1.2-63.7z"/><path fill="#e6f1f0" fill-opacity=".5" d="M437.4 224.8L352 172.2l136.4 18 2.4 18z"/><path fill="#4a443d" d="M518 265.2l29.3 20.1-.2-228.6-68.8 197.6z"/><path fill="#010002" fill-opacity=".8" d="M646.6 253.3l9.7-290.8h-49.1l-31 298.8z"/><path fill="#fbf7fa" fill-opacity=".5" d="M260.4 57.6L415 36.1l-1-73.6-154.5 8z"/><path fill="#634a40" fill-opacity=".8" d="M168.8 425.5L356 299.3l-6.3-6.7L152 260z"/><path fill="#65494c" fill-opacity=".8" d="M350 343.7l307.5-37.3v73.1l-257 69.8z"/><path fill="#061206" fill-opacity=".4" d="M-37.5 118.7L2.7 449.3l101-179.3L276 220.4z"/></g></svg>