<svg xmlns="http://www.w3.org/2000/svg" viewBox="0 0 620 414"><defs/><filter id="prefix__a"><feGaussianBlur stdDeviation="30"/></filter><rect width="100%" height="100%" fill="#3b4346"/><g filter="url(#prefix__a)"><path fill="#f5e3ca" fill-opacity=".6" d="M657.5 3.1l-664-40.6-31 278.5L619 449.3z"/><path fill="#80654d" d="M572.8 198.6L507 435.2l-95.6 7.3-58.1-281.7z"/><path fill="#363e3f" d="M89.4 242.4l83.5 206.9 153.6-172.5-3.2-3.6z"/><path fill="#dacbac" d="M270.8 449.3h-92.3l119-136.6 49 10.1z"/><path fill="#fbfeff" fill-opacity=".8" d="M524.3-37.5l133.2 16v383.8l-55.7 87z"/><path fill="#f1faff" fill-opacity=".8" d="M-18.9 152l142.4-62 212.4-74L6-37.4z"/><path fill="#937859" d="M122.8 94.7l-20.6 124.2 236.4-77.7L400 247.5z"/><path fill="#dce8ce" fill-opacity=".6" d="M121.8 184.5l-159.3 44.1 11.6 64.7L63 313.6z"/><path fill="#c7c3b8" fill-opacity=".9" d="M464.8 152.8L551-32.9 110.7 83.3l177 75z"/><path fill="#100a01" fill-opacity=".7" d="M415.4 238.8l83.3-20.1 7.7 54-103.6 15z"/><path fill="#fef7e2" fill-opacity=".5" d="M275.9 258.7L244.6-37.5l-19.9 217.7-133.6 61.3z"/><path fill="#0c1a1d" fill-opacity=".6" d="M82.3 176.6L-37.5 133l96.8 14-9.7 56.7z"/><path fill="#b3afa2" fill-opacity=".9" d="M352.1 366l15.5 78.2 26.2-80.7L376.6 189z"/><path fill="#342700" fill-opacity=".5" d="M188.7 188.2l32.2-5.3 3.4-70-6.8-71z"/><path fill="#e9eae6" d="M535.5 354.3l-11.6-4.1 15.5 99 100.2-17.9z"/></g></svg>