<svg xmlns="http://www.w3.org/2000/svg" viewBox="0 0 620 414"><defs/><filter id="prefix__a"><feGaussianBlur stdDeviation="30"/></filter><rect width="100%" height="100%" fill="#2f6036"/><g filter="url(#prefix__a)"><path fill="#ac97a2" fill-opacity=".7" d="M607.6 4.8L3.6-37.5l-28.3 194.7 682.2 200.5z"/><path fill="#aa9d9a" fill-opacity=".8" d="M18.2-37.5l-55.7 233 29 220.3L125 449.3z"/><path fill="#1e0914" fill-opacity=".5" d="M213.6 319l62.5-163.3 243 70-245.7 173.4z"/><path fill="#8e7980" fill-opacity=".7" d="M407.8 219.2l-14 160.8-262 26.6L652 449.3z"/><path fill="#e9d3df" fill-opacity=".5" d="M76.8-37.5L232.5 260l-84.8 123.3 94 19.4z"/><path fill="#c3c2d1" fill-opacity=".6" d="M581.7-7.3l-62.2 81.4 1.2 296.7 82.8-97.9z"/><path fill="#b7bcb5" fill-opacity=".7" d="M92.3-37.5L88.6 50l84.6 190.2L373-35.9z"/><path fill="#0d0115" fill-opacity=".8" d="M191.8 265L133 178.2 92 301.8l36.8 147.5z"/><path fill="#010701" fill-opacity=".3" d="M500.1 183l16-161.7-91-8.2 8.9 321.8z"/><path fill="#a29e9a" fill-opacity=".9" d="M359.6 160l-15.2 178.8 83-304.9-5.3 175.8z"/><path fill="#28292b" d="M643 288l-9.7 111.4-135.6-43.6-9.7 93.5z"/><path fill="#362d22" fill-opacity=".4" d="M322.1 158.4l73.6-196 11.4 206.4L51.8 316.1z"/><path fill="#64584b" fill-opacity=".8" d="M80.4 382.7L66.1-37.5l36.3 141 44.1 1.1z"/><path fill="#ebf9fe" fill-opacity=".3" d="M409.3 212.4l76 236.9-9.2-204.7-68.5 133z"/><path fill="#1b1216" fill-opacity=".6" d="M300.3 174.1L265 257.4l-25 103.7 180.2 30.3z"/></g></svg>