<svg xmlns="http://www.w3.org/2000/svg" viewBox="0 0 620 414"><defs/><filter id="a"><feGaussianBlur stdDeviation="30"/></filter><rect width="100%" height="100%" fill="#4d312c"/><g filter="url(#a)"><path fill="#aea6a4" fill-opacity=".7" d="M-37.5-3.1l667.4-24 27.6 101L12.1 348.8z"/><path fill="#63514c" fill-opacity=".8" d="M657.5 433L-6.3 397.2l176.6-278.3 418-18.9z"/><path fill="#e2dfe8" fill-opacity=".4" d="M-37.5 118l155-155.5L657.5 5l-69.7 69z"/><path fill="#d2d5e6" fill-opacity=".3" d="M150.9 319l164.4 12.8 13.8-68.8-179.4-75.3z"/><path fill="#b39f8a" fill-opacity=".8" d="M517.8 172.7l139.7 123.5-67.8 87-50.1-415z"/><path fill="#381f19" fill-opacity=".6" d="M569.1 366.7l-256.2-.3 48.7-236.1 117.2 105.1z"/><path fill="#b99490" fill-opacity=".7" d="M3.1 384.6L36.3 296l36.1 63.9-.5 52.3z"/><path fill="#000c1a" fill-opacity=".4" d="M59.8 428.7l229.1-47-132.4-111L136 143.2z"/><path fill="#77625c" d="M26.6 135.9L142.2 363-6.5 224l-31-117.2z"/><path fill="#a8c2b8" fill-opacity=".6" d="M420.7 238l-2.4 59.6-29.1-9 1.7-69z"/><path fill="#21161a" fill-opacity=".9" d="M105.8 441.3l40.7-143.7-45.8 42L50.1 303z"/><path fill="#1e2023" fill-opacity=".6" d="M126.2 185.8l116.5-1.3 16.7-18.1-120.6-33.2z"/><path fill="#5f211e" d="M322.6 253.3L271.7 219l94.5-16.7-27.4 149.5z"/><path fill="#fefff8" fill-opacity=".7" d="M315.6 20.8l31.7 19 32.7-22-22.5-50.1z"/><path fill="#070101" fill-opacity=".3" d="M552.7 51.8L350.2 157l192.8-3.4L363.5 219z"/></g></svg>