<svg xmlns="http://www.w3.org/2000/svg" viewBox="0 0 620 414"><defs/><filter id="a"><feGaussianBlur stdDeviation="30"/></filter><rect width="100%" height="100%" fill="#4b693c"/><g filter="url(#a)"><path fill="#d9d5c0" fill-opacity=".6" d="M316 187.7L272 411l321 34 38.5-232.5z"/><path fill="#c2d7e1" fill-opacity=".9" d="M266.2-23.3l-11.7 76.1-292 33.4v-109z"/><path fill="#cbdaab" fill-opacity=".5" d="M212.4 177.8L262 449.3l-299.5-139L19.9 182z"/><path fill="#050236" fill-opacity=".7" d="M259.4 392.6l48.4-103-25.2-136.5-68.7 38z"/><path fill="#162721" fill-opacity=".7" d="M138.5 27.6L111 25 85 161.1l129.8 12z"/><path fill="#d1f4b3" fill-opacity=".3" d="M241.5 449.3L450 181.6l85.7-206.5-94.4 31.7z"/><path fill="#0b1801" fill-opacity=".6" d="M564.5 111.9L619-37.5l38.5 204.4-174-5.6z"/><path fill="#f3e4eb" fill-opacity=".5" d="M418.3 238l13-35 116.8 10.6 109.4 71.7z"/><path fill="#d2e3eb" fill-opacity=".7" d="M3.6-37.5L104.4 81.4 70.2 101-25.2-3.6z"/><path fill="#90936c" fill-opacity=".7" d="M354.6 226.7L292.3 68l3.4 207.5 361.8 88z"/><path fill="#d2e5ed" fill-opacity=".9" d="M115-37.5l147.5 59-53 21.9-30.3 44.3z"/><path fill="#dccff5" fill-opacity=".3" d="M411 390.9l-60-194.2-96.5 235.8 261.6-19.3z"/><path fill="#7e915c" fill-opacity=".6" d="M657.5 311.2L614.2 394l-197 8.3 108-155.3z"/><path fill="#6d8f54" fill-opacity=".8" d="M207.3 426.7L-37.5 425V300.8l65.4-7.5z"/><path fill="#293e1b" fill-opacity=".9" d="M320.7 3.9l-58.2 85L380 100.3l-33.4 80.1z"/></g></svg>