<svg xmlns="http://www.w3.org/2000/svg" viewBox="0 0 620 414"><defs/><filter id="a"><feGaussianBlur stdDeviation="30"/></filter><rect width="100%" height="100%" fill="#5f4d31"/><g filter="url(#a)"><path fill="#918e92" fill-opacity=".6" d="M638.6 141.2l19 145.3-695.1 29.8L43-37.5z"/><path fill="#010004" fill-opacity=".9" d="M601.8 281.7L447.3 449.3h210.2V376z"/><path fill="#ddc6df" fill-opacity=".7" d="M311 449.3l22.5-125.7 32.4 16.2 16.8 92.7z"/><path fill="#0d0303" fill-opacity=".9" d="M202 312l-63.2 56-24.5 36.6 176.8 33z"/><path fill="#210100" fill-opacity=".6" d="M412.2-37.5l67.6 93.4-58 94.7-58.3-37z"/><path fill="#fff2f7" fill-opacity=".5" d="M286.5 178.5l-63.2 150.4-57.4-82.4 105.3-47.2z"/><path fill="#ebeefa" fill-opacity=".7" d="M408.3 172l-4.3 68.3 23.2 4L481 137.9z"/><path fill="#122804" fill-opacity=".8" d="M134.4 19.6l-86.2-9.4.5 49.1L113 77.5z"/><path fill="#8a8c84" fill-opacity=".8" d="M99.5-3.4L421 6.6l-30.3 15.2-109.2 98.6z"/><path fill="#9fa4c4" fill-opacity=".3" d="M448.5 260.8l-235.4 76.6 444.4-286L560.7 329z"/><path fill="#2f0000" fill-opacity=".6" d="M657.5 345.1L390 289.4l-34.1-38.7-11.7 82.5z"/><path fill="#655e58" fill-opacity=".9" d="M150.9 43.6L170.5 248 85 449-37.5 323.8z"/><path fill="#5b3816" fill-opacity=".4" d="M414.1 248.7L341 75.6 220 331.3l101.4-110.7z"/><path fill="#612f10" fill-opacity=".7" d="M261.6 102l-90.1 22L161 82.8l72.6 6.6z"/><path fill="#2a0000" fill-opacity=".3" d="M462.6 368.9L494.3 159l-43.1 52.3 137 192z"/></g></svg>