<svg xmlns="http://www.w3.org/2000/svg" viewBox="0 0 620 414"><defs/><filter id="prefix__a"><feGaussianBlur stdDeviation="30"/></filter><rect width="100%" height="100%" fill="#5b4135"/><g filter="url(#prefix__a)"><path fill="#c8d0cf" fill-opacity=".8" d="M67.3-1l22.8 298 554.8 36.7V-4z"/><path fill="#8f918c" fill-opacity=".5" d="M399.4 380.5L425 141.9-3-37.5l71 486.8z"/><path fill="#cfd4cf" d="M318.7-37.5l-50.1 307.3-112.4-23.3 10-215z"/><path fill="#f1ffff" fill-opacity=".4" d="M439 305.9l218.5 48.4L499.1-37.5l-79.4 53.2z"/><path fill="#472006" fill-opacity=".4" d="M473 361.6L305.6 209.2l-4.3-115.5L250.9 364z"/><path fill="#dbf4fd" fill-opacity=".5" d="M255.8 413.2l-128.4 36 3.4-88.3 42.6 20.8z"/><path fill="#5a331d" fill-opacity=".5" d="M348.5 266.4l72.4-179 2.2 102.2-82.6-79z"/><path fill="#f8f7f1" fill-opacity=".6" d="M304.4 362.8l-5.8 13.6 98.6 9.2-23-17z"/><path fill="#c3c7c4" fill-opacity=".7" d="M124.2 349.2l-15-21.8L434 252.1l-288.2 39.5z"/><path fill="#6a6d73" fill-opacity=".4" d="M182.4 67L82 11-24.9 178l137.8 157.4z"/><path fill="#9ba3a5" fill-opacity=".9" d="M391.4 85l161.8-9.2 104.3-17.7-182-9.4z"/><path fill="#0d0e05" fill-opacity=".6" d="M27.9 229.1l-65.4 58.4 122.8 65.1L10.8 421z"/><path fill="#e1e8e7" fill-opacity=".9" d="M327.4-4.1l-7 20.8 260.9 37.5-30.8-91.7z"/><path fill="#574234" fill-opacity=".5" d="M238 449.3l141.3-182.4 196.4-24.5L288.4 299z"/><path fill="#c2c8c5" d="M182.1 137.6l49-126.5L19.5.2l459.4 108z"/></g></svg>