<svg xmlns="http://www.w3.org/2000/svg" viewBox="0 0 620 414"><defs/><filter id="a"><feGaussianBlur stdDeviation="30"/></filter><rect width="100%" height="100%" fill="#4a342b"/><g filter="url(#a)"><path fill="#eff0f0" fill-opacity=".6" d="M642.3 8.7l-425-46.2-254.8 442.2 691.9 44z"/><path fill="#d9d9de" fill-opacity=".9" d="M657.5 41L405.7 17.1l19.1 223.5 172.4 81.7z"/><path fill="#7b6659" fill-opacity=".7" d="M445.9 106L-22.5 449.4 75-37.5l36.5 54.7z"/><path fill="#7a4832" fill-opacity=".5" d="M268.6 54.5l94.2-92 9.2 299.8L177.3 80.6z"/><path fill="#fcdef1" fill-opacity=".3" d="M70.2 76.8L6.5-37.5l170.3 87.4-57-8.2z"/><path fill="#958f89" fill-opacity=".9" d="M261.6 449.3l-28.1-224.8L192.3 79 36.8 421.4z"/><path fill="#392814" fill-opacity=".7" d="M1.5-37.5l-39 262.5L141 154l-50.2-28.5z"/><path fill="#091318" fill-opacity=".7" d="M336.6 382.7l29.8-.5-9.4-33.5-24.7 3.4z"/><path fill="#c6c0c2" fill-opacity=".9" d="M650.5 209.5L492 449.3l-7-230.6-178.4 230.6z"/><path fill="#fefffd" fill-opacity=".4" d="M317.3 95.4L309 51.8l298.2 123L490.4 7.6z"/><path fill="#020d10" fill-opacity=".7" d="M139.3 404.2l13-32-30.2 6.3-7.3 30z"/><path fill="#001924" fill-opacity=".6" d="M572 388.7l10.2 60.6L539 425l-10.4-40.6z"/><path fill="#062034" fill-opacity=".2" d="M534 311l-53.7-6.3L657.5 74.4 526.3 313.6z"/><path fill="#110900" fill-opacity=".3" d="M164 449.3l199-214.1 35.2-7.5-49.5 61z"/><path fill="#001118" fill-opacity=".5" d="M481 340.8l6.3 21.3-26 7.2-27-33.4z"/></g></svg>