<svg xmlns="http://www.w3.org/2000/svg" viewBox="0 0 620 929"><defs/><filter id="a"><feGaussianBlur stdDeviation="30"/></filter><rect width="100%" height="100%" fill="#604c38"/><g filter="url(#a)"><path fill="#cad0d5" fill-opacity=".9" d="M301.6 971.8l375.2-43.5V485.2L527.3 384.3z"/><path fill="#f6eec4" fill-opacity=".4" d="M307 441.3L136.4 242.4 102.7-25.8 619.5-41z"/><path fill="#cae4fb" fill-opacity=".4" d="M548.7 396L375.2 664.7l-93.6-4.3 15.6-280.6z"/><path fill="#18252c" fill-opacity=".8" d="M505.1 593.7l-108.5-63.2-38 336.8-314 6.9z"/><path fill="#191e22" d="M87.5 651L148 338l132.8 22.5-12 500z"/><path fill="#ffe6bb" fill-opacity=".6" d="M676.8-56.2L110.7-8l2.9 82.4 493.9-2.2z"/><path fill="#5c5533" fill-opacity=".7" d="M402.8 497.9L526.2 94.7l-323.3-5 298.6 297.9z"/><path fill="#deedfb" fill-opacity=".6" d="M290 235.9l50.8 374.5 86.7 41-130 8.7z"/><path fill="#000b13" fill-opacity=".5" d="M410.8 690.2l89.6-152.4-160.4 89-14.5-250.5z"/><path fill="#011014" fill-opacity=".4" d="M-28.7 766.4L9.1-50.4l74.7 632.1-20.7 156z"/><path fill="#6f6b4f" d="M270 75.1l34-32.3 53.3 59.9-117.2 245z"/><path fill="#14191e" d="M210.5 985.2l59.1-5.4L441 610.4 211.6 856z"/><path fill="#e5dcd3" fill-opacity=".4" d="M466.7 560l-112.9-55 310.7-180.3L606 985.2z"/><path fill="#151410" fill-opacity=".9" d="M389 396l-4-11-37.4-47.9 30.2 140.5z"/><path fill="#5d7659" d="M77 412.6l-37.8-234 108.9-44-50.8 393.8z"/></g></svg>