<svg xmlns="http://www.w3.org/2000/svg" viewBox="0 0 620 414"><defs/><filter id="prefix__a"><feGaussianBlur stdDeviation="30"/></filter><rect width="100%" height="100%" fill="#353e55"/><g filter="url(#prefix__a)"><path fill="#f9deb1" fill-opacity=".6" d="M346 393.3L657.6 10.2-7-37.5 3.9 449.3z"/><path fill="#3b0400" fill-opacity=".7" d="M405.4-37.5l-15.2 430 267.3 56.8-156.2-287z"/><path fill="#c8d0d1" d="M552 253l63.2 23.6L640.3 40 477 71z"/><path fill="#682b03" fill-opacity=".6" d="M209.5 302.7l-29-150.1L60 218l18.1 231.3z"/><path fill="#e5dfc6" d="M368.4 149.4l-406 5.6 7.8-192.5h447.6z"/><path fill="#d8bfab" fill-opacity=".7" d="M444.2 422.6l-307.6-42.8-11.6-60.1 261.3 21.8z"/><path fill="#4b1200" fill-opacity=".6" d="M126.2 416.8l-163.7-69.7 111.4 12.3 17.9-170.7z"/><path fill="#4c3303" fill-opacity=".4" d="M176 161.8l43-17 169.5 109-57.2-2z"/><path fill="#bd9549" fill-opacity=".5" d="M51.6 74.8L102.2 208l152.3 148.3L128 80.4z"/><path fill="#dfdfd4" fill-opacity=".7" d="M352.4 216.3L99.8-25 354-37.5 399.9 416z"/><path fill="#81604e" fill-opacity=".9" d="M427.2 163.5L397 230.3l-28.8-77.5 79.5-164z"/><path fill="#e2f0f8" fill-opacity=".4" d="M474.4-37.5l8 226.4 45.3-2 126.4 156z"/><path fill="#c7d4d7" fill-opacity=".9" d="M318.7 337.4l-68-80.4 131.2-5.4-53.7 29.8z"/><path fill="#360402" fill-opacity=".6" d="M611 281.7l-211.6-83.8-3 187.7 232 34.6z"/><path fill="#1e2018" fill-opacity=".7" d="M419.5 86.7l53.7 176 7.3-189-59.3-.6z"/></g></svg>