<svg xmlns="http://www.w3.org/2000/svg" viewBox="0 0 620 414"><defs/><filter id="prefix__a"><feGaussianBlur stdDeviation="30"/></filter><rect width="100%" height="100%" fill="#31404b"/><g filter="url(#prefix__a)"><path fill="#f7b286" fill-opacity=".6" d="M657.5 213.4L501.3-23.7H132l206.8 473z"/><path fill="#929fa2" fill-opacity=".9" d="M125.7 74.6l-163.2 39.2L7-37.5 438.4 24z"/><path fill="#6e340d" fill-opacity=".5" d="M-11.6 127.1l279-88.3L454 294.3 1 449.3z"/><path fill="#9de2ff" fill-opacity=".4" d="M468.6 202.5l33.5 142.9-54.5 103.9-162-57z"/><path fill="#d1aa7b" fill-opacity=".7" d="M47.2 230.3l-32.7-88.6-52 104.8 60.3 202.8z"/><path fill="#220c00" fill-opacity=".8" d="M205.4 74.1l-79-5.6L43 119l172 195.4z"/><path fill="#1a0800" fill-opacity=".8" d="M536-23.5l28.8 123 51.6 20.4-6.6-149.2z"/><path fill="#ffb482" fill-opacity=".4" d="M450.5 172.4l61.2-107-234-103 110 211.5z"/><path fill="#314449" d="M394 308l38.5-4.5 2.5-41-43-36.5z"/><path fill="#ffcea5" fill-opacity=".5" d="M517.8 154.8l-16.2 90 15.7 72.2 140.2-115z"/><path fill="#502a11" fill-opacity=".8" d="M315.3 345.1l-288-231.3 132.5 335.5 128.6-40z"/><path fill="#cc805d" fill-opacity=".5" d="M215.8 106.6l124 150.8-57.7 73-63.2-40.5z"/><path fill="#e9eae6" fill-opacity=".7" d="M457 328.6L421.6 235l54-19.8 6.1 81.1z"/><path fill="#5f7b83" fill-opacity=".7" d="M288.7-37.5L299.8 32l14.8 105.6-132-73.7z"/><path fill="#9a5f3e" fill-opacity=".9" d="M553.9-33.2l-80.2 198.9-78.2 66.8L504 211.9z"/></g></svg>