<svg xmlns="http://www.w3.org/2000/svg" viewBox="0 0 620 414"><defs/><filter id="prefix__a"><feGaussianBlur stdDeviation="30"/></filter><rect width="100%" height="100%" fill="#484535"/><g filter="url(#prefix__a)"><path fill="#cdccc7" fill-opacity=".7" d="M418.7 8.2l204.2 441-444-25.6L138 182.4z"/><path fill="#fff" fill-opacity=".3" d="M238 254l419.5-36.8-8.2-212.6L239 54.5z"/><path fill="#3e3726" fill-opacity=".7" d="M282.4 184.8l12.6 49.6-326.5 107.8 507.6-10.4z"/><path fill="#635e50" fill-opacity=".8" d="M398.6-32l259 416.4-493.6 20 352.6-47.9z"/><path fill="#18190b" fill-opacity=".9" d="M-37.5 51.6L7 449.3l143.4-330.9 165.4-.5z"/><path fill="#faffff" fill-opacity=".5" d="M158.1 335l499.4 13.7-308.3 21.8-268.3 10z"/><path fill="#f9fcfd" fill-opacity=".4" d="M153.5 114.6l-27 176.3L439.2 41.2l8.5 247.7z"/><path fill="#1f1706" fill-opacity=".5" d="M657.5 372.7l-299-3.8-396 26.1 100 26.2z"/><path fill="#3d3e39" fill-opacity=".8" d="M-37.5 184.3l213.8-2.4 222.8 9.2-16.7 4.3z"/><path fill="#2b2d27" fill-opacity=".9" d="M303.5 185.8l-9-151.4-2.7 150.9-3.8 80.6z"/><path fill="#fffff9" fill-opacity=".6" d="M611.5 379l-387.2 33.7L341 444.2l160-12.4z"/><path fill="#fefeff" fill-opacity=".7" d="M230 277.8l67.2-166.4-62.5 38.8 59.6 80.1z"/><path fill="#e5e6e3" fill-opacity=".9" d="M302.5 186.7l-1-130.3 118 3.9 26.9 127z"/><path fill="#585448" fill-opacity=".9" d="M431 292l-231.4-37.2-46.8 124.7L49 251z"/><path fill="#6a6a5c" fill-opacity=".9" d="M288.2 55.2l59.3-92.7 16 350.2-2-266.2z"/></g></svg>