<svg xmlns="http://www.w3.org/2000/svg" viewBox="0 0 620 414"><defs/><filter id="prefix__a"><feGaussianBlur stdDeviation="30"/></filter><rect width="100%" height="100%" fill="#28344b"/><g filter="url(#prefix__a)"><path fill="#9f896e" fill-opacity=".5" d="M-37.5 412L-4.6 49.4 574 84.8 374.7 449.3z"/><path fill="#bec7e9" fill-opacity=".7" d="M169.8 392.3l.5 29.3L7.5 449.3l-45-171z"/><path fill="#dfd9e1" fill-opacity=".7" d="M268.3 268.8l43.6-48-113-45 56.6 173z"/><path fill="#170300" fill-opacity=".6" d="M-37.5 202.7l109.4 158 65.7-12.2 24.7-125.7z"/><path fill="#e1ddf3" fill-opacity=".6" d="M357.5 174.9l28.3-77L445.6 83l-2.9 71.4z"/><path fill="#030001" fill-opacity=".4" d="M445.9 35.6l43 242.2-40.4 171.5 209-68.6z"/><path fill="#363135" d="M635.3 167.4l-332 20 8.2 54.5 116.7-24.7z"/><path fill="#4c513a" fill-opacity=".7" d="M181.4 78.2l476.1 16.5-628-132.2L44.8 120z"/><path fill="#d4daeb" fill-opacity=".7" d="M.2 100l-37.7-19.6L36.3 72l10.2 37z"/><path fill="#ab99a0" fill-opacity=".9" d="M29.8 134.4l29.8 39.7 44.3 27.2-118.2-6.1z"/><path fill="#304219" fill-opacity=".5" d="M240.7 311.2l-95.4 54.3 111 83.8 55.6-73.2z"/><path fill="#1c1c1b" fill-opacity=".5" d="M365.7-37.5l-55.5 154 17.2 48.2L440.1 30.3z"/><path fill="#4a4a46" d="M440-37.5L459.5 187l83.1-83.1 115-68.8z"/><path fill="#f3f2fa" fill-opacity=".5" d="M609.8 94.5l-16.4-13.1 64.1 2.9-32.2 62.7z"/><path fill="#343d1b" fill-opacity=".6" d="M450.5 449.3L376.4 327l55.7-39.3 119.1 161.6z"/></g></svg>