<svg xmlns="http://www.w3.org/2000/svg" viewBox="0 0 620 414"><defs/><filter id="prefix__a"><feGaussianBlur stdDeviation="30"/></filter><rect width="100%" height="100%" fill="#4c3628"/><g filter="url(#prefix__a)"><path fill="#e6ebdd" fill-opacity=".8" d="M62 302.7l286.3 146.6-27.4-385.8-208.3 9.9z"/><path fill="#c8c6b7" fill-opacity=".5" d="M466 276.3l-33.7 116-444-24L211-5.2z"/><path fill="#090200" fill-opacity=".8" d="M640.3-37.5l-22.2 486.8-155.5-209.5-151.9-149z"/><path fill="#000101" fill-opacity=".7" d="M-37.5 332.3l127.8-109 19.9-260.8L-37.5-.7z"/><path fill="#9a7a59" fill-opacity=".6" d="M486.3 320.2l-26.1-116.3-186.8 6.8L288 449.3z"/><path fill="#49687a" fill-opacity=".6" d="M-37.5 446.6l70.4-205.9 98.8 87.7 89.4 44z"/><path fill="#fffffc" fill-opacity=".2" d="M322.4 254.5l84-9L210.2 24-4 360.4z"/><path fill="#160b05" fill-opacity=".8" d="M657.5 449.3l-272.7-38.6 89.9-47.7L608.9 24.2z"/><path fill="#040506" fill-opacity=".5" d="M193 46.3l-60-83.8L63.7 95.2 142.4 85z"/><path fill="#2e2500" fill-opacity=".4" d="M275.1-37.5l382.4 67.3L288 83.6l-49.4 49.8z"/><path fill="#1c0400" fill-opacity=".3" d="M98.8 369l106 21-13.5-3.2L182 315z"/><path fill="#000e1e" fill-opacity=".2" d="M-37.5 218.7l189.6 155-60.8-80.9 3.4-127.6z"/><path fill="#d4ded6" fill-opacity=".7" d="M290.4 329.4l-175.6-246-17.7 30.2V282z"/><path fill="#dfebe7" fill-opacity=".5" d="M224.8 362.3l8.4-233.2 41.2 218-5.8 102.2z"/><path fill="#c39f75" fill-opacity=".4" d="M311.5 57.9L406.4 331l-158-94.7 56.3-93.5z"/></g></svg>