<svg xmlns="http://www.w3.org/2000/svg" viewBox="0 0 620 414"><defs/><filter id="prefix__a"><feGaussianBlur stdDeviation="30"/></filter><rect width="100%" height="100%" fill="#624538"/><g filter="url(#prefix__a)"><path fill="#e1eae0" fill-opacity=".6" d="M-37.5 405.4l23.2-443 671.8 48L249 449.3z"/><path fill="#7e7b72" fill-opacity=".9" d="M627.3 89.6L212.4 41.2l97.1 380.2 325.8 5.8z"/><path fill="#fffffc" fill-opacity=".5" d="M190.6 184.3l127 253.3L3 449.3l-5.5-341.5z"/><path fill="#282526" d="M398.9 221.8l87 185.6 71.9-109-128-96.9z"/><path fill="#9a9c99" d="M537 283.6L292 57.9l325.3-95.4 40.2 464.2z"/><path fill="#796448" fill-opacity=".7" d="M242.4 134l-51.8 124 239.5-75L158.6-37.4z"/><path fill="#dddcd5" fill-opacity=".7" d="M63.7 183l-12.6-36.7L4.4-37.5 231.5 92z"/><path fill="#484300" fill-opacity=".6" d="M136.8 192.5l-2.4-48.2 76.5-18.8-17 35.3z"/><path fill="#fff4ee" fill-opacity=".5" d="M592.1 313.6l46.3 68-176-113.3 41.8 49z"/><path fill="#efe7de" fill-opacity=".5" d="M247.8 223l54 57 14.7 62-354 107.3z"/><path fill="#584232" d="M224.3 46.7L254-1.9l-49.5-10.5 42.2 96z"/><path fill="#392e30" fill-opacity=".8" d="M549.3 383.9l63.7 65.4h17L588 349z"/><path fill="#64563d" fill-opacity=".7" d="M353.8 302.5l-101.7-75.6-8.7-61 132 18.4z"/><path fill="#f0f3f5" fill-opacity=".8" d="M576.9 449.3l-5.3-43-61.3-10.6 36.6 40.5z"/><path fill="#654f2c" fill-opacity=".4" d="M83.8 307.6L-18.9 449.3l6.3-27.4L109 256.7z"/></g></svg>