<svg xmlns="http://www.w3.org/2000/svg" viewBox="0 0 620 414"><defs/><filter id="prefix__a"><feGaussianBlur stdDeviation="30"/></filter><rect width="100%" height="100%" fill="#5d4537"/><g filter="url(#prefix__a)"><path fill="#c6bfbc" fill-opacity=".8" d="M587.3 59.3l48.2 390L419 410.7l121.6-154z"/><path fill="#bdc6b5" fill-opacity=".5" d="M505 .2L657.5 169 534 165.4l-218.2-113z"/><path fill="#8a9bb9" fill-opacity=".8" d="M176.3 314.6L124 187.5l57-67.4 17.6 126.4z"/><path fill="#000c0f" fill-opacity=".5" d="M449.5 449.3l-484.1-44.6 357.4-65 55-314.8z"/><path fill="#202d2e" fill-opacity=".7" d="M-37.5 405.7l306.8 43.6-123-190.6L48 27.7z"/><path fill="#f9ffff" fill-opacity=".5" d="M452 449.3l17.8-160.6 94.3 20-12.6 131.8z"/><path fill="#1c2427" fill-opacity=".8" d="M625.3-37.5l-94 59 48 88.5 72-1z"/><path fill="#761511" fill-opacity=".5" d="M414.1 343.2l-8.7-147L609 164l3.8 18.6z"/><path fill="#968373" d="M657.5 331.8l-41.9-119.4-35.8 81.4-9.7 147.7z"/><path fill="#b6938a" fill-opacity=".6" d="M413.2 183.8l-30.3-61.3 173.6 87-13.5-47.2z"/><path fill="#998a7f" d="M329.1 305.2l-121 43.3 46 13 57.6-33.3z"/><path fill="#584e3f" fill-opacity=".8" d="M439.6 168L395.5-35.3 377 59.3l96.6-96.8z"/><path fill="#0c2421" fill-opacity=".4" d="M224.5 180L132 14.4l209 73 33 69.4z"/><path fill="#d7dadf" fill-opacity=".9" d="M566 101.7l4.8 55.2 86.7 5.4-45.5-44.1z"/><path fill="#ffbdaf" fill-opacity=".4" d="M20.8 258.7L8 193.7l28 110.7-46 29.3z"/></g></svg>