<svg xmlns="http://www.w3.org/2000/svg" viewBox="0 0 620 414"><defs/><filter id="prefix__a"><feGaussianBlur stdDeviation="30"/></filter><rect width="100%" height="100%" fill="#3e342c"/><g filter="url(#prefix__a)"><path fill="#b8b5af" d="M29.5-37.5l628 54.5-89 299.5-606 27.2z"/><path fill="#392011" fill-opacity=".6" d="M409.5 347.5l39.8 48.5 11.3-350.7-71.4 232.5z"/><path fill="#84857f" fill-opacity=".8" d="M485.8-24.5l73.9 333.3 90.3-10.2 7.5-289.2z"/><path fill="#f5f7f8" fill-opacity=".6" d="M-37.5 418.3l184-336.7 293.6 27.6L31.5-8.2z"/><path fill="#73665a" d="M135.1 274.6l41.7-199-30.5 3.8-33.7 90.4z"/><path fill="#301200" fill-opacity=".5" d="M335.4 143.9l54.8-61.6-99.8 46-21.6 133.3z"/><path fill="#fdfffd" fill-opacity=".6" d="M146.3 151.9l38 143.8 78.2 27.6 14-155.7z"/><path fill="#f1f2ef" fill-opacity=".6" d="M301 149l150 60-21.1-57.1-74.6 190.8z"/><path fill="#819894" fill-opacity=".3" d="M617.6 449.3L45.3 404l233.2-39.8 304 7.6z"/><path fill="#6c5645" fill-opacity=".7" d="M158.9 117.5l91.3 50.3-184.6-52.5-23-20.1z"/><path fill="#755a4f" d="M89.4 361.1l58.3-108.7 75.8 121-81.3-161.2z"/><path fill="#eaeae9" fill-opacity=".8" d="M219.4 50.6L154 123.8l128.1 4 73.2-49z"/><path fill="#4e3c29" fill-opacity=".6" d="M261.6 144.3l91.3-2.9-110.2-17-.3-82.3z"/><path fill="#382316" fill-opacity=".8" d="M453.4 288.2l-67.6-38.5 28.1 134.9 52.8-15.5z"/><path fill="#96988c" fill-opacity=".9" d="M428 124.2L549.2-6.5 163-4.8l278.3 44.3z"/></g></svg>