<svg xmlns="http://www.w3.org/2000/svg" viewBox="0 0 620 414"><defs/><filter id="prefix__a"><feGaussianBlur stdDeviation="30"/></filter><rect width="100%" height="100%" fill="#48352c"/><g filter="url(#prefix__a)"><path fill="#e5ebe8" fill-opacity=".9" d="M110 155.2L34 344-37.6-37.5l344.8 64.1z"/><path fill="#e4f4f2" fill-opacity=".7" d="M625.3-37.5l-5 478.3-38.3-8L435-37.5z"/><path fill="#c0aca1" fill-opacity=".8" d="M297.6 335.7L422 74.4 298.4 93l-76-130.5z"/><path fill="#a6b5ba" fill-opacity=".9" d="M110.7 446.1L-37.5 72 37 372.5l-74.6 32.4z"/><path fill="#010708" fill-opacity=".8" d="M508.8 156.7l-399 22.5 228.5-28.8 173.2 298.9z"/><path fill="#a9adb3" d="M541.5 276l-38.7 173.3h108.7l46-292.1z"/><path fill="#05090a" fill-opacity=".9" d="M227.4 412.7L360.6 255 541 242l-33.4 187.6z"/><path fill="#d1dbd6" fill-opacity=".7" d="M117 8.7l480.7-46.2-251.9 69.7-12.3-26.9z"/><path fill="#002f4b" fill-opacity=".4" d="M95.2 405.4l-9-416 12.9-27 125.9 487z"/><path fill="#2a170f" fill-opacity=".7" d="M325.5 142L357 51 305.9-7.8 254 22.9z"/><path fill="#c9c6bf" fill-opacity=".8" d="M270 242.7l120.6-18-102-55.7-39.6 40z"/><path fill="#fcfdfc" fill-opacity=".5" d="M328.4 111.2l-211-148.7L131 136.4l100.8-43.6z"/><path fill="#d6ded5" fill-opacity=".7" d="M570.1-37.5l12.1 341.7L465.2 75l-37.7-92.3z"/><path fill="#c49784" d="M360.4 52.3l30.2 7.3 11.7 90.8-46.8 14.8z"/><path fill="#132939" fill-opacity=".5" d="M186.5 105.4l165.9 343.9L46.3 362l71-223.6z"/></g></svg>