<svg xmlns="http://www.w3.org/2000/svg" viewBox="0 0 620 414"><defs/><filter id="prefix__a"><feGaussianBlur stdDeviation="30"/></filter><rect width="100%" height="100%" fill="#5e453a"/><g filter="url(#prefix__a)"><path fill="#e2e1df" fill-opacity=".9" d="M623.1 417.3l-660.6 4.1L7-37.6l613.2 26.7z"/><path fill="#2d220b" fill-opacity=".6" d="M540 134l-124.6 16-3.7 150.8 107.8-26z"/><path fill="#653a25" fill-opacity=".6" d="M266.6 102.2l-26.8 165.2 54.2-9.7 13.8-139z"/><path fill="#fff" fill-opacity=".7" d="M279.7 154.3l-168 295-149.2-247.6 105-239.2z"/><path fill="#050504" fill-opacity=".6" d="M518.8 235l-26.4 70.9-25.7-52.8 53.3-69.5z"/><path fill="#160c04" fill-opacity=".5" d="M256.5 111.4l48.2 1.5 4.8 48.9-57.9-15.8z"/><path fill="#efeded" fill-opacity=".7" d="M501.3 449.3l-538.8-47.8 467.4-92.7 30.5-48.4z"/><path fill="#b2a198" fill-opacity=".7" d="M235.2 282.1l78.4 35.6 8.3-112.6-31.8-6.5z"/><path fill="#95988f" fill-opacity=".8" d="M532.3 103l-33.2 5.3 40 135.8 15.3-7.7z"/><path fill="#ebeceb" fill-opacity=".6" d="M330.1-37.5l163 211.1-65.2-32.9L-37.5 42z"/><path fill="#484f3e" fill-opacity=".8" d="M435 242.7L409.3 113l52 101.2-56.8 4.4z"/><path fill="#a9a29b" fill-opacity=".3" d="M431 449.3l-19.8-181.4 116 33.1-1.9 148.3z"/><path fill="#f8f8f6" fill-opacity=".7" d="M240.7 429.2l17.7-123.8-203.7-249-36.5 391.4z"/><path fill="#e8e6e5" fill-opacity=".9" d="M426.5 208.3l-18 1-82.5 240-14-486.8z"/><path fill="#a0a4a7" fill-opacity=".4" d="M377 22l269.4-59.5-29.3 335.9-31.5-269.1z"/></g></svg>