<svg xmlns="http://www.w3.org/2000/svg" viewBox="0 0 620 414"><defs/><filter id="prefix__a"><feGaussianBlur stdDeviation="30"/></filter><rect width="100%" height="100%" fill="#2b3d4b"/><g filter="url(#prefix__a)"><path fill="#b3b7ad" fill-opacity=".9" d="M-37.5 88L-7-37.6 657.5 1.9l-54.7 300.8z"/><path fill="#78674b" fill-opacity=".6" d="M612.3 449.3L113.8 278-37.5 109.2l695 20.6z"/><path fill="#f9c08c" fill-opacity=".7" d="M296 317.8l-174.7-32.3-4.3-106.3 59.3 90.8z"/><path fill="#c4e8ff" fill-opacity=".6" d="M641.3 125.7L347.8 83.6 7.8 0l648.8-37.5z"/><path fill="#140600" fill-opacity=".6" d="M241.2 159.1l13.3-65.4 64 235.4L57.6 133.7z"/><path fill="#fff3db" fill-opacity=".7" d="M648 191l-8.9 21.9-403.5-6 357-16.8z"/><path fill="#9fcdd0" fill-opacity=".5" d="M252.8 307.8l-14.5 141.5L195 391l9-58.8z"/><path fill="#b3d9ee" fill-opacity=".6" d="M124.2-37.5l49.2 167.8-199-7.3 5-104.8z"/><path fill="#2e0d00" fill-opacity=".5" d="M145 52.6L222.4 31l-29.8 81.6 70-10.6z"/><path fill="#fff6de" fill-opacity=".6" d="M298.6 196l340.8 3.6L302.7 217l-26.6-30z"/><path fill="#bbd2dd" fill-opacity=".8" d="M648.8 39.5L153.3-25.2 277.1 135l-5.4-20.8z"/><path fill="#4b3f00" fill-opacity=".4" d="M657.5 154.5l-81-32.7L274.8 142 261 167.4z"/><path fill="#ff8734" fill-opacity=".4" d="M243 103.4l-87.3-36.6 6.3 65.7 97.1 61z"/><path fill="#fec996" fill-opacity=".7" d="M147 287.5l48.7-65.7-3.4 66.6-79.2-75z"/><path fill="#0e0300" fill-opacity=".5" d="M218.2 57.2L168.8 264l-18-12.9 63.8-199.5z"/></g></svg>