<svg xmlns="http://www.w3.org/2000/svg" viewBox="0 0 620 414"><defs/><filter id="prefix__a"><feGaussianBlur stdDeviation="30"/></filter><rect width="100%" height="100%" fill="#472c22"/><g filter="url(#prefix__a)"><path fill="#ead6cd" fill-opacity=".6" d="M-37.5 448.8l695-41-348-422.6-262.8-9.7z"/><path fill="#edf6ff" fill-opacity=".6" d="M621 449.3l36.5-486.8h-56.4l-97.3 399.3z"/><path fill="#331b0d" fill-opacity=".4" d="M535.7-37.5L309 108.7 352.4 425 600 212z"/><path fill="#f2fffa" fill-opacity=".5" d="M360.9.5l-92.8 176L151.1 56l21.1-93.4z"/><path fill="#e5ecf1" fill-opacity=".7" d="M270.8 350.2l-82.1-64.9-101 154.5 255.7 9.5z"/><path fill="#d6c7bc" fill-opacity=".9" d="M380.7 193.3L361 37.3l51.8 154.8 244.8 221.6z"/><path fill="#875846" fill-opacity=".9" d="M141.7.5l-116.8 39-62.4 206.8 184.8-150z"/><path fill="#2b1b11" fill-opacity=".9" d="M423.3 196.9L369.1 55.5l161.8-72.2-40.5 266.2z"/><path fill="#652512" fill-opacity=".4" d="M133.4 262.3l-72.1-47-30.8 87 74.1 147z"/><path fill="#5f2617" fill-opacity=".3" d="M210.5 239.3l267.8 210-194.2-92L229 44z"/><path fill="#f0efed" fill-opacity=".7" d="M300.6 162.8l16.7 134.4-41.7-18 9.7-97.6z"/><path fill="#261400" fill-opacity=".5" d="M355.3 102l-71.5-10.2 79 113.8 18-62.7z"/><path fill="#b9b4b7" d="M120.4 319L45 344-4.4 171.6l-10.1 277.6z"/><path fill="#ffffeb" fill-opacity=".4" d="M553.2 5.6l104.3-41v178L532.8-.2z"/><path fill="#dce1e5" fill-opacity=".6" d="M536.7 313l120.8-125.5-11.1 257-193.5-186.8z"/></g></svg>