<svg xmlns="http://www.w3.org/2000/svg" viewBox="0 0 620 414"><defs/><filter id="prefix__a"><feGaussianBlur stdDeviation="30"/></filter><rect width="100%" height="100%" fill="#314d6a"/><g filter="url(#prefix__a)"><path fill="#332518" fill-opacity=".7" d="M657.5-37.5l-40.9 486.8L39 406-37.5-.2z"/><path fill="#d1a37f" fill-opacity=".5" d="M277 195.4l229.7 253.9-322.4-180.7 55.2-54.5z"/><path fill="#f3ca59" fill-opacity=".4" d="M121 236.9L-13.2 351.7 7 435l127-84.3z"/><path fill="#dddebe" fill-opacity=".6" d="M93 47.5l7.3 64.6L32.9 73l23.3-19z"/><path fill="#2b2824" d="M319.4 373.5l-75.8-138.6 11 95.2 216.7-49.4z"/><path fill="#121111" fill-opacity=".9" d="M-37.5 275.4l67-312.5 23.3 344.4 68 142z"/><path fill="#fcc5a1" fill-opacity=".5" d="M292.6 365l5.5 16.7 128.4-10.2-234.2 60.8z"/><path fill="#f1d7a9" fill-opacity=".4" d="M380.2 297.2l102.2 26.6-158.8-134.9 53.5-26.2z"/><path fill="#d1c4b8" fill-opacity=".5" d="M481.2 349.5l94 99.8-31.7-54 80.4 17.9z"/><path fill="#fbe6a1" fill-opacity=".7" d="M72.2 449.3L34.2 349l-52.4 100.3 173.7-36.1z"/><path fill="#ffedba" fill-opacity=".3" d="M202.2 249l198.9 56.9L226 194.2 266.2 359z"/><path fill="#121117" fill-opacity=".8" d="M-29.8 299.8l76-178L657.6-37.5 602.8 94.7z"/><path fill="#2ec3f5" fill-opacity=".5" d="M149.4 84.8l-35.6-34 140.3 14.6L179.7 22z"/><path fill="#19181c" d="M619 399.4l27.6-434.8-64.1 173-277.6-30.8z"/><path fill="#def8fc" fill-opacity=".6" d="M550 130.5l-8.2-27.8 29.3 18.6 8 13.6z"/></g></svg>