<svg xmlns="http://www.w3.org/2000/svg" viewBox="0 0 620 414"><defs/><filter id="a"><feGaussianBlur stdDeviation="30"/></filter><rect width="100%" height="100%" fill="#444244"/><g filter="url(#a)"><path fill="#e8e6e2" fill-opacity=".7" d="M401.3 366l-330.6 9.6L144.1 49l272.5 81.2z"/><path fill="#c7cbd2" d="M45.5-.2l-38 297.4-45-141.7 9.2-193z"/><path fill="#000203" fill-opacity=".6" d="M647.9 31.2l-29.4 418-191.5-314L-37.5-19.7z"/><path fill="#030201" fill-opacity=".9" d="M60.5 433l-63.2-9.9L58.1-12.6l43.4-25z"/><path fill="#7f7e7a" fill-opacity=".8" d="M379 373.2L73.6 413.4l3.7-108.7 331.5-.3z"/><path fill="#0a090a" fill-opacity=".7" d="M449.7 441.5L386 423l58.4-337.6 61-12z"/><path fill="#f8f7f5" fill-opacity=".3" d="M383.9 117.7L421.2 296 76.8 311.2l25-269.5z"/><path fill="#7b7e7b" fill-opacity=".8" d="M129.3 190.4L95.4 449.3l-1.7-346.6 46.5-50.9z"/><path fill="#5a392b" fill-opacity=".6" d="M243 145.8l-3 107.8 14-20.6 7.6-68.8z"/><path fill="#4b4e53" d="M506 158.1l-6.9-25.4-50 315.6 118.1-56z"/><path fill="#725447" fill-opacity=".6" d="M295.7 338.8l24-110.7 12.8 6.3 4.4 64z"/><path fill="#4d5058" fill-opacity=".7" d="M574 77L346.6-37.5l273.6 72.1 37.3 281.7z"/><path fill="#7a5b51" fill-opacity=".6" d="M176.3 147.3L172.4 290l-25.2-103 16.8-51.6z"/><path fill="#3d545f" d="M242.4-19.9l-74.6 30L149 40.3 184.6 56z"/><path fill="#0e0c0b" d="M608.4 149.2L400.8-25.4 243-17.2l-55 80z"/></g></svg>