<svg xmlns="http://www.w3.org/2000/svg" viewBox="0 0 620 414"><defs/><filter id="a"><feGaussianBlur stdDeviation="30"/></filter><rect width="100%" height="100%" fill="#406432"/><g filter="url(#a)"><path fill="#dbc3c6" fill-opacity=".8" d="M5.3-37.5l-33.6 486.3 184.3.5L344 5.8z"/><path fill="#f6caf9" fill-opacity=".3" d="M605.2 441.3L632.6-6.1 266.2 42l112.6 390z"/><path fill="#f2eff7" fill-opacity=".7" d="M606.7 379.3l-15.8 22.5-31.2-436.2L606 32.7z"/><path fill="#143302" fill-opacity=".6" d="M530.9 83.3l60.5 241.5L388.7 140 562.6-37.5z"/><path fill="#190716" fill-opacity=".9" d="M250 195.2l-55.5 254H354l-10.2-265.9z"/><path fill="#efe4ea" fill-opacity=".5" d="M356.5 273l-17 176.3 144.1-18.4L244-34.4z"/><path fill="#324f24" fill-opacity=".8" d="M311.2-10.9l133 362.8 98.8 72.4L338.3-25.4z"/><path fill="#57443a" fill-opacity=".9" d="M228.9 59.6L116 191.6l-17.4-10.2 25.9-64.7z"/><path fill="#deddce" fill-opacity=".7" d="M392.8 126.2l-1.4-102.5 77-7-9.5 65.6z"/><path fill="#d1c4c0" fill-opacity=".9" d="M214.6 393L6.8-5.2l-17.5 377.5 199.6 77z"/><path fill="#c9c9c6" d="M273.7 152.6l55-190.1-21.1 179 66.8 85.2z"/><path fill="#9aa088" d="M438.8 205.9l60.3-44.8-5.5 62.2-33.4 39z"/><path fill="#753c14" fill-opacity=".4" d="M210.5 56.7l40 17.4 21.2 30.8-55.2 140z"/><path fill="#d3cedd" fill-opacity=".4" d="M526.3 68l31.5 74.9 99.7 82-59.8-262.4z"/><path fill="#27421a" d="M573 173.9l-26-19.1 11.6 202.7 26.1-24.5z"/></g></svg>