<svg xmlns="http://www.w3.org/2000/svg" viewBox="0 0 620 414"><defs/><filter id="prefix__a"><feGaussianBlur stdDeviation="30"/></filter><rect width="100%" height="100%" fill="#754435"/><g filter="url(#prefix__a)"><path fill="#ccedd9" fill-opacity=".7" d="M413 14.5L72.3 121.3l-53.8 328-56.1-486.8z"/><path fill="#c2b19f" fill-opacity=".8" d="M198.8 418.5L241.7 6.8 172 105.6l-2.7 320.9z"/><path fill="#3e2b23" d="M387 374.4l245.8 74.9L385.6-37.5l-18.4 13.8z"/><path fill="#bfcab4" fill-opacity=".9" d="M378.5 235.4L327.7 65.6-37.5-7.3l404-30.2z"/><path fill="#917876" fill-opacity=".9" d="M657.5 183.3L513 259l-97.2-76 115.6-46z"/><path fill="#1d100c" fill-opacity=".9" d="M610 151.1l-77-47-59.5-141.6 184 49.9z"/><path fill="#ff7e5a" fill-opacity=".4" d="M435 380.7L24.7 444.2l26.4-220.7L93.2 287z"/><path fill="#27130a" fill-opacity=".5" d="M195.7 285.5l146.3-3.4-2.7-207.7-77.5-21.6z"/><path fill="#ecd7d9" fill-opacity=".8" d="M38.8 382.9l-76.3-34L38 110.5l19.4 81z"/><path fill="#00231a" fill-opacity=".3" d="M-31.5 48l181.9 14.5-76.5 213.1-22.6-134.2z"/><path fill="#05070a" fill-opacity=".9" d="M441.5-37.5l12.6 200.7 26.4-9.9-5-86.2z"/><path fill="#000008" fill-opacity=".8" d="M385.6 176.3l51-1.4-17.4-196.2-54.7 23.2z"/><path fill="#271a17" fill-opacity=".7" d="M648 233.7l9.5 215.6L423 366.4l158.8-146z"/><path fill="#d3cd82" fill-opacity=".5" d="M326.5 378.5l148 70.8-95.2-83.8-33.7-66.4z"/><path fill="#a09da1" fill-opacity=".7" d="M455.3 244.6l-5-139.5-13-133.7-17.3-9z"/></g></svg>