<svg xmlns="http://www.w3.org/2000/svg" viewBox="0 0 620 414"><defs/><filter id="prefix__a"><feGaussianBlur stdDeviation="30"/></filter><rect width="100%" height="100%" fill="#504434"/><g filter="url(#prefix__a)"><path fill="#c4af9d" fill-opacity=".9" d="M344.4-37.5l313.1 48L78.7 435.8l-80.4-119z"/><path fill="#f6f7f5" fill-opacity=".9" d="M211.4 158L609-37.6l48.6 275L348-37.4z"/><path fill="#2b0900" fill-opacity=".5" d="M604.5 449.3l-64.4-337-144.4-59-181.6 224.2z"/><path fill="#7a5136" d="M109.5-23.5l209.2-14-172.4 274.4-52.3-1.5z"/><path fill="#f5f2e9" fill-opacity=".8" d="M64 228.6l149.6 37.8L384.4 14.5 91 282.1z"/><path fill="#f6f5f3" fill-opacity=".7" d="M600.9 222.8l38-260.3L233.5 35l272.2 47.7z"/><path fill="#1f1307" fill-opacity=".7" d="M499 91.5l-68.4-10.4-29.3 368.2h245.3z"/><path fill="#a77757" fill-opacity=".5" d="M103.7 427.2l308.5-156.4-5.8-195-63.7 20.6z"/><path fill="#8b816f" fill-opacity=".8" d="M645.2 158.9l-29 202.7-54.3-201.3 16.7 34.2z"/><path fill="#e7cfa1" fill-opacity=".9" d="M33.4 352.1l35.9 97.2h106.5l-111.4-146z"/><path fill="#4f2105" fill-opacity=".5" d="M116.3 231.8L2.7 225.2l40.2-75.8 195.9-1.7z"/><path fill="#e8e0cf" d="M93 242.2l149.7 15L43 265.7l33.7-44.8z"/><path fill="#776b49" fill-opacity=".5" d="M208.3 420.7L101.5 260.6-27 297.2l155.5 56.6z"/><path fill="#ba7f4c" fill-opacity=".4" d="M112.4 115.8L311.2-23.5l-84.8 162.8L445 307z"/><path fill="#1e0000" fill-opacity=".3" d="M233.2 232.3l424.3 217-355-24.3-7.5-64.9z"/></g></svg>