<svg xmlns="http://www.w3.org/2000/svg" viewBox="0 0 620 414"><defs/><filter id="prefix__a"><feGaussianBlur stdDeviation="30"/></filter><rect width="100%" height="100%" fill="#74463a"/><g filter="url(#prefix__a)"><path fill="#d5dcd3" fill-opacity=".8" d="M485.3 338L1.3 438.7-22.6-37.5h405z"/><path fill="#878680" d="M615.4 449.3L404 226l-2-263.5 255.5 52.8z"/><path fill="#201109" fill-opacity=".8" d="M506.2 185.5l-25-83.8-48-22-.2 174.6z"/><path fill="#e3e7e8" fill-opacity=".9" d="M545.9 280.5l111.6 120-80.4 15-23.7-34.5z"/><path fill="#363a25" d="M262.3 359.2l10.6 21.8 65.4 13-36.3-59.8z"/><path fill="#dac0aa" fill-opacity=".9" d="M559.2 200L492 324l-66.4 55.3-88.4-74.1z"/><path fill="#47413c" d="M502.5 315.6l-102.4 96.8 147 36.9-.7-203.2z"/><path fill="#855340" fill-opacity=".7" d="M496 232.3l-185.3 26.6 84.3 51.6 13.6-144.1z"/><path fill="#dde4e4" fill-opacity=".6" d="M266.9 283.8L377.6 79.7 244-37.5 97.4 309z"/><path fill="#d5ebd4" fill-opacity=".4" d="M352.4 285L345 449.4l-362.3-94.5 343 41.7z"/><path fill="#832d12" fill-opacity=".5" d="M308.5 237.3l34.2-70 2.4-43.3 53.3 10.2z"/><path fill="#120e0b" fill-opacity=".6" d="M398.2 93.2L510 176.6l-81.8-97.2-79.2 77z"/><path fill="#9da8a5" fill-opacity=".7" d="M263.3-17.2L494.5-16l106.9 371.3L485 103.4z"/><path fill="#779293" fill-opacity=".5" d="M-37.5-37.5l15 262L12.4 283 94-35.1z"/><path fill="#5d5b50" fill-opacity=".9" d="M409.3 373.2l16.5 76H333l26.4-122z"/></g></svg>