<svg xmlns="http://www.w3.org/2000/svg" viewBox="0 0 620 414"><defs/><filter id="a"><feGaussianBlur stdDeviation="30"/></filter><rect width="100%" height="100%" fill="#584c3d"/><g filter="url(#a)"><path fill="#a8c0e5" fill-opacity=".5" d="M657.5 254L639-3 83-37.4l-107.8 247z"/><path fill="#00070f" fill-opacity=".4" d="M231.3 114.8L-37.5 435l393.3 6.3 41.1-438z"/><path fill="#edf2ff" fill-opacity=".5" d="M248.7 65.6L14.3 142l-46-87.9 336.9-89.8z"/><path fill="#080c15" fill-opacity=".7" d="M461.6-37.5l100.8 441.7-57.2-137.8-51.1-283.6z"/><path fill="#d6e7ff" fill-opacity=".5" d="M67.8 255l-73.6 54.8L89.4 32.9 148-37.5z"/><path fill="#0e121e" fill-opacity=".8" d="M131.3 37.5L18.9 448l98.8-312.6 40.2-173z"/><path fill="#181a23" fill-opacity=".8" d="M142.2 415.8l16-170.5 55.2-282.8 11.1 1.4z"/><path fill="#fdedd9" fill-opacity=".4" d="M259.6 246.3L208 168.8l15.3-206.3L177 259.4z"/><path fill="#010617" fill-opacity=".6" d="M68.8 51.1l-11.2 21L116-37.4-37.5 386z"/><path fill="#afb5bb" fill-opacity=".6" d="M448-37.5l57.7 330-193-120 101-25.3z"/><path fill="#030d00" fill-opacity=".6" d="M657.5 267.9L507 287.5l41 161.8h64.8z"/><path fill="#191814" fill-opacity=".7" d="M281.2 422.4L-37.5 299l427-14.3 131-2.7z"/><path fill="#bbdfff" fill-opacity=".4" d="M537.7 164.2l-6.6 117 85-10.4-26.4-102.2z"/><path fill="#f7fdff" fill-opacity=".3" d="M162.3-37.5L107.8 175 143 316.5l66.9-354z"/><path fill="#525251" d="M459.4 268.3L311 290l52-79.2 45.8 12.6z"/></g></svg>