<svg xmlns="http://www.w3.org/2000/svg" viewBox="0 0 620 414"><defs/><filter id="prefix__a"><feGaussianBlur stdDeviation="30"/></filter><rect width="100%" height="100%" fill="#405930"/><g filter="url(#prefix__a)"><path fill="#e1eaeb" fill-opacity=".8" d="M102-19.9l-1 245.4L239.8 287 530.4-37.5z"/><path fill="#ede3ee" fill-opacity=".5" d="M627.5 449.3l-2.2-211.7-174.1-7-40 218.7z"/><path fill="#9dba87" fill-opacity=".4" d="M363.3 223.8L523.9-28.1 51.3 350.7l351 98.6z"/><path fill="#00003f" fill-opacity=".6" d="M347.5 196.7L411 396.9l35.1-39.4-13-148.5z"/><path fill="#041c08" fill-opacity=".4" d="M138.3 50.9L136.6 13-37.5 175.3 48 232.5z"/><path fill="#ffe1e4" fill-opacity=".5" d="M502.5 285.5L479 173l-51.3 53.5 229.8 27z"/><path fill="#255625" fill-opacity=".6" d="M575 428.7l28-86.2-55.7-19-22 123.8z"/><path fill="#fffbfe" fill-opacity=".3" d="M82.3 115L228.1-37.5l99.3 239.7L87.7 214z"/><path fill="#002414" fill-opacity=".3" d="M301.5-18.6l46-9.7L314 99.3l-45.3 29.5z"/><path fill="#96a57c" fill-opacity=".6" d="M119.2 253.6l262 66.6-18.6-86.5-166.4-42.9z"/><path fill="#537643" fill-opacity=".7" d="M418.5 72.9L465-3.6l192.5-19V127z"/><path fill="#081202" fill-opacity=".6" d="M455.8 152l41.2 56.3 90.3 7 11.9-69.5z"/><path fill="#255002" fill-opacity=".5" d="M173.4 317.5l100.8-73.9 9 154.8-48 3.9z"/><path fill="#85ac7f" fill-opacity=".5" d="M-37.5 183.8l94-221.3 89.8 84.7L34 66.4z"/><path fill="#e7f0ff" fill-opacity=".4" d="M406.4 145L363.5-24.1l-115 237.6 47-1z"/></g></svg>