<svg xmlns="http://www.w3.org/2000/svg" viewBox="0 0 620 414"><defs/><filter id="prefix__a"><feGaussianBlur stdDeviation="30"/></filter><rect width="100%" height="100%" fill="#1d2438"/><g filter="url(#prefix__a)"><path fill="#978675" d="M636-17L-37.5-35.4l24 453.9 671-122.3z"/><path fill="#433639" d="M74.6 449.3l199.3-334 90.1 334 200.5-185z"/><path fill="#cab6a0" d="M.5 433.5l-38-405.4 141.2-65.6 26.1 398.8z"/><path fill="#493d2f" d="M601.6 116l52.8 149.4L423.8 171l18.4 255.3z"/><path fill="#181e2e" fill-opacity=".9" d="M158.4 126l25.9 323.3L348 337.9 228.4 223z"/><path fill="#ffffe0" fill-opacity=".3" d="M430.9 449.3l-118-141.5L302 185 435 79z"/><path fill="#f7d8a1" fill-opacity=".3" d="M657.5 3.6L539.4 249.7 125.2 51.3-8.5-37.5z"/><path fill="#876642" fill-opacity=".9" d="M379.8 422.6l154 5.1-13.1-85.5-179.2-13.6z"/><path fill="#bfaa90" fill-opacity=".7" d="M657.5 347v-48L514.2 180.4l-1.7 118.2z"/><path fill="#af454a" fill-opacity=".9" d="M188.4 411.7l91.8 3.7-299.8 33.9 171-102.5z"/><path fill="#101314" fill-opacity=".7" d="M657.5 117.2L552 147.5l19.9 92.8 50.1.4z"/><path fill="#22190a" fill-opacity=".7" d="M481.2 174.9l27-18.2 5 91.8 1.2 105.3z"/><path fill="#18232f" fill-opacity=".6" d="M297.2 420.7l9.7-274.9-96.7-46 19.6 48z"/><path fill="#1d1611" fill-opacity=".9" d="M509.3 327.7L426 183.8l38.3 223.6 4.6-73.2z"/><path fill="#fbeaad" fill-opacity=".7" d="M479.3 164.2l7.3-49.2-82.1 1.3-9.7 54z"/></g></svg>