<svg xmlns="http://www.w3.org/2000/svg" viewBox="0 0 620 414"><defs/><filter id="prefix__a"><feGaussianBlur stdDeviation="30"/></filter><rect width="100%" height="100%" fill="#502f2b"/><g filter="url(#prefix__a)"><path fill="#bcb6b0" fill-opacity=".9" d="M-5.6 449.3l-32-428.5 440.1 104 38.8 121z"/><path fill="#d1c8ab" fill-opacity=".5" d="M640.8 389l-157.2 42.8 59.1-368.3L642 52z"/><path fill="#898579" fill-opacity=".6" d="M199.6 449.3L164.9-37.5l234.7 138L466 434.2z"/><path fill="#f9fffe" fill-opacity=".4" d="M164.2 60l33 353.4-85.6 9-9.9-435.7z"/><path fill="#1b3b25" fill-opacity=".6" d="M603.5-14.5l-93.2 92.2-277 43.6L76.4 53.8z"/><path fill="#fff" fill-opacity=".4" d="M-1.7-10l-4.1 202 88.9-.2-1.2-216z"/><path fill="#fcfff8" fill-opacity=".5" d="M578.6 107l6.3 182.2-54.5-220.7 127.1-11.3z"/><path fill="#786054" d="M108.5 371L102 50.6 87-32.9v375.1z"/><path fill="#2d1411" fill-opacity=".5" d="M275.1 372.5l-36.5 76.8-2.7-51.6-16.5-326z"/><path fill="#b3b9b6" d="M232.7-37.5l14 85.5-10.3 4.8-127.2-81.1z"/><path fill="#f1fef6" fill-opacity=".4" d="M283.1 225.7l7.5-123.5 127.2 1.5-48.7 113z"/><path fill="#6a4939" fill-opacity=".7" d="M204.6 323L-7.5 404.6l-30-8 74-33z"/><path fill="#fdfffb" fill-opacity=".5" d="M84.3 218.5l-121.8-4.2v176.8l123.2-45.3z"/><path fill="#f3f6f8" fill-opacity=".7" d="M-37.5 420.2l28.8 29 257-120-43.7-3.7z"/><path fill="#7b6051" fill-opacity=".9" d="M-25 215l-12.4 138 .4-163.5 257.5 17.2z"/></g></svg>