<svg xmlns="http://www.w3.org/2000/svg" viewBox="0 0 620 414"><defs/><filter id="prefix__a"><feGaussianBlur stdDeviation="30"/></filter><rect width="100%" height="100%" fill="#474747"/><g filter="url(#prefix__a)"><path fill="#f6f6f6" fill-opacity=".8" d="M458.5 449.3l-496-486.8H619l38.5 455z"/><path fill="#202020" fill-opacity=".8" d="M318.5 44.3l-356 .3 319 40.9 21.7 363.8z"/><path fill="#787878" d="M327.4 149.2l-172.9 300L65.1 53.9 150 161z"/><path fill="#cacaca" d="M21 332.5l3.5-364.2-44.6 27.6-16 373.2z"/><path fill="#040404" fill-opacity=".7" d="M238 449.3l71.5-38.8 2.2-146.8-100.3-117.2z"/><path fill="#f8f8f8" fill-opacity=".7" d="M613 368.6l44.5-391.8-251.8 34.6-49.4 437.9z"/><path fill="#fefefe" fill-opacity=".5" d="M116.5 326l134 123.3L76.2 75.8 189 77z"/><path fill="#020202" fill-opacity=".8" d="M26 124.5l-4 324.8 91.6-11.4L130 224z"/><path fill="#151515" d="M40.7 41.2l284.6 12.3-207.6 20.6-99-6.5z"/><path fill="#e7e7e7" fill-opacity=".7" d="M211 73.1l78.4 7-9.2 167.2-68.8-178z"/><path fill="#d0d0d0" fill-opacity=".9" d="M314.6 318l-2-344.9L430 379.3 310 338z"/><path fill="#131313" fill-opacity=".9" d="M158.4 264.2l33-104.4-33.5 19.4-7.3 52.3z"/><path fill="#c5c5c5" fill-opacity=".9" d="M333.5 449.3l-25-68.6h120L369 321z"/><path fill="#b3b3b3" fill-opacity=".7" d="M134 197.9l24 68.5 84 144.4-119.2 38.5z"/><path fill="#a6a6a6" d="M163.5 283.1l7-52L477.1 23.4 277.3 159.6z"/></g></svg>