<svg xmlns="http://www.w3.org/2000/svg" viewBox="0 0 620 414"><defs/><filter id="prefix__a"><feGaussianBlur stdDeviation="30"/></filter><rect width="100%" height="100%" fill="#543b31"/><g filter="url(#prefix__a)"><path fill="#f4fefa" fill-opacity=".4" d="M632.8-37.5l24.7 466.9-695-20.1L7 11.1z"/><path fill="#281307" fill-opacity=".7" d="M165 350l-27.4-235.2 142.9 32.4-19 180.7z"/><path fill="#bcbebc" fill-opacity=".8" d="M657.5 205.9V-37.5L61.5-4.1l461.6 141.9z"/><path fill="#4d3326" fill-opacity=".6" d="M-37.5 39l24-76.5 311 121-16 31z"/><path fill="#dce3e9" fill-opacity=".3" d="M266 335l112-138.1 279.5 234.7-683.2 17.7z"/><path fill="#f4f4e6" fill-opacity=".3" d="M-3.6 251.6L140.2 239l-3.6-159-174.1-38.6z"/><path fill="#3f0e01" fill-opacity=".2" d="M145.3 390.4l-182.8 46L-20 252l348.3-29z"/><path fill="#662601" fill-opacity=".3" d="M386.8 294l270.7-97.6V298l-282.4 33.9z"/><path fill="#dce4f5" fill-opacity=".3" d="M255.3 228.6l33.4-116 9.4-64.4 141 66.1z"/><path fill="#020906" fill-opacity=".6" d="M184.3 177.8l26-9.7L239 340.8l-54.2-20.4z"/><path fill="#8b7c5e" fill-opacity=".7" d="M519.3 74.6l-65.4 177.3-125.3-120.4 3.2 74.1z"/><path fill="#cfcfcf" fill-opacity=".7" d="M342.5 228.6l4.6 136.9 80.1-169.6 21 109z"/><path fill="#7c6357" fill-opacity=".8" d="M176 182.6l49.5-71L129 173l59 205.4z"/><path fill="#2a170f" fill-opacity=".5" d="M-5.3 422.1l127.6-46.5 73.6-22.7-89.6 45z"/><path fill="#b7bcbd" d="M557 437.6l-133.7-92.2L633.8 358l-17.2 83.5z"/></g></svg>