<svg xmlns="http://www.w3.org/2000/svg" viewBox="0 0 620 414"><defs/><filter id="prefix__a"><feGaussianBlur stdDeviation="30"/></filter><rect width="100%" height="100%" fill="#68513e"/><g filter="url(#prefix__a)"><path fill="#b0b8b4" fill-opacity=".7" d="M49.9 401l607.6-13.7L530.1-37.5-37.5 4.8z"/><path fill="#363635" d="M463.5 405.2l105.2 5-77.3-307.5-64.7 17.4z"/><path fill="#31312f" d="M143.6 264.5l-27.8 142.1 87.4-3.8 1.4-138.3z"/><path fill="#42464a" d="M368.1 268.1l9.5 94.2-89.6 49.9 5.3-139.5z"/><path fill="#16130e" fill-opacity=".8" d="M223 182.9l-3.8-80-45.3 13.3-15.8 67.9z"/><path fill="#fffef2" fill-opacity=".4" d="M544.4-37.5l-349 486.8 48-486.8 64.2 252.3z"/><path fill="#d2cfc4" fill-opacity=".8" d="M438.8 238.8l27.9 210.5L311 191.6l248.7 40z"/><path fill="#cac8ba" fill-opacity=".7" d="M544 108.3l113.5-13.8v-65l-695 83.4z"/><path fill="#201b13" fill-opacity=".7" d="M348.5 103.7l-41.9.2-13.6 79.2 74.4-1.5z"/><path fill="#070400" fill-opacity=".7" d="M34.9 194.7l23-74.8 34.1 4.3-5.3 67.4z"/><path fill="#1e2020" d="M30.3 405l25.4-125.8-27.8-15-65.4 133.2z"/><path fill="#fffef0" fill-opacity=".4" d="M28.3 420.4l87-61.7 75.3-368.9-61.5.8z"/><path fill="#c7c4b5" fill-opacity=".7" d="M657.5 427.5l-97-69.5L509 123.3l140.2 85.5z"/><path fill="#c0beb4" fill-opacity=".7" d="M35.1 192l317.3-11.3-390 110.4 78-328.6z"/><path fill="#000609" fill-opacity=".7" d="M657.5 114.8v47.7L586 187.7l-16.5-77.5z"/></g></svg>