<svg xmlns="http://www.w3.org/2000/svg" viewBox="0 0 620 414"><defs/><filter id="prefix__a"><feGaussianBlur stdDeviation="30"/></filter><rect width="100%" height="100%" fill="#402523"/><g filter="url(#prefix__a)"><path fill="#8d8f85" fill-opacity=".7" d="M63.2 444.4l561.9-194.2 32.4-287.7-679.8 26.1z"/><path fill="#eeece5" fill-opacity=".6" d="M181.2 35.4L72.9 65.9 89.4 186 269 289.7z"/><path fill="#3f2924" d="M264.7-28.8l-86.7 44L285.8 330l54.7 119.4z"/><path fill-opacity=".5" d="M205.4 197.9L190 397.4l-57.4-155.7 12.9-76.3z"/><path fill="#585145" fill-opacity=".8" d="M648.3 164l9.2 213.8-246 71.5L193.7 339z"/><path fill="#c5cbc9" fill-opacity=".8" d="M90.3 180.4l9.2-99 67.4 311L135 425z"/><path fill="#f1f3ec" fill-opacity=".5" d="M239 319.2L163 17.9l70.2 177.5 31.8 97z"/><path fill="#33291e" d="M297.6 290.1l36.9 128.4-95-61.3 23.3-60.8z"/><path fill="#b1bfc9" fill-opacity=".3" d="M293.5 1l-7 81.8 59.8 363.6 27.9 1.2z"/><path fill="#ded9d5" fill-opacity=".7" d="M172.4 234.4L94 103.4l23 85.5 90.6 35.4z"/><path fill="#00040e" fill-opacity=".6" d="M176 343l21.4-40.5-39.7-94.2-30 8.7z"/><path fill="#eaebe3" fill-opacity=".5" d="M237.6 219.2L188.9 62.7 87.7 95l2.4 11.4z"/><path fill="#85f5ff" fill-opacity=".1" d="M2.7 96L29-37.6l58.6 301.2-120 57z"/><path fill="#9c9a8a" fill-opacity=".9" d="M102.4 169.3l-50-206.8h273.3L66.6 46z"/><path fill="#bcc2c0" fill-opacity=".6" d="M145.6 407.8l-42.2-145 65.6 64 6.6 69z"/></g></svg>