<svg xmlns="http://www.w3.org/2000/svg" viewBox="0 0 620 414"><defs/><filter id="a"><feGaussianBlur stdDeviation="30"/></filter><rect width="100%" height="100%" fill="#2f513b"/><g filter="url(#a)"><path fill="#b3baaa" fill-opacity=".6" d="M623.6 289.7l-223.3-239 112 255.2-110.8 143.4z"/><path fill="#0f0d00" fill-opacity=".6" d="M358 449.3l184-155.8-529.4-331-50.1 461.8z"/><path fill="#ffa68c" fill-opacity=".4" d="M452 41.4L436 118 320.3 231.5 470 200.8z"/><path fill="#d9e0f3" fill-opacity=".8" d="M600.6 60.3l-2.2-96.1 46.3 32.7L619 86.5z"/><path fill="#f6ddcb" fill-opacity=".5" d="M657.5 189.9L368.6 449.3l100.5-37.6 188.4-211.9z"/><path fill="#273024" fill-opacity=".5" d="M390 235.9l-22.6 64.4 98.8-301L-17.4-7z"/><path fill="#d0d6e6" fill-opacity=".5" d="M327.2-9l10.4 61.8 29.6-18.4-8.5-28.6z"/><path fill="#4f6e55" fill-opacity=".8" d="M440 449.3l208.3-80L622.2 140l-22.5 135.4z"/><path fill="#38694d" fill-opacity=".5" d="M521.7 142l-85 139.4 91.8 42 49.8-113.2z"/><path fill="#212f19" fill-opacity=".6" d="M657.5 203L302.2-37.5h278L611 100.8z"/><path fill="#fcedfd" fill-opacity=".5" d="M612.5 246l17.7 17.7 27.3-112-48.9 48.8z"/><path fill="#ffdfe3" fill-opacity=".4" d="M430.4 75.6l37.5 42.1-47.7 74.8 39.7-135.1z"/><path fill="#203327" d="M73.6 301.8l127-162L408.2 164 83.8-37.5z"/><path fill="#934a2e" fill-opacity=".3" d="M398.2 237.8l-88.2-7.2 64.7-142 75-8.7z"/><path fill="#d7d7d5" fill-opacity=".8" d="M531.6 350.4l-11.1-32.2L406.6 441l-14.5 8.3z"/></g></svg>