<svg xmlns="http://www.w3.org/2000/svg" viewBox="0 0 299 449"><defs/><path fill="#705038" d="M0 0h299v449H0z"/><g fill-opacity=".5" transform="translate(.9 .9) scale(1.7539)"><circle r="1" fill="#c1c7c5" transform="matrix(-44.85842 -163.97476 97.9782 -26.8038 76.3 152.4)"/><circle r="1" fill="#4c270d" transform="matrix(28.51765 -3.2996 9.60175 82.98549 36.8 92.4)"/><circle r="1" transform="matrix(49.14237 83.61317 -27.70048 16.28054 161.5 30.7)"/><circle r="1" fill="#c4c8c3" transform="matrix(30.75723 -11.98583 57.33821 147.13744 141.2 136.3)"/><circle r="1" fill="#6a3116" transform="rotate(-13.4 571.5 -224.7) scale(26.52418 34.98996)"/><circle r="1" transform="matrix(-27.7958 -65.50381 24.2657 -10.29688 152.4 24.9)"/><ellipse cx="94" cy="204" fill="#b6b1a2" rx="68" ry="40"/><circle r="1" fill="#b17356" transform="rotate(126.1 21.6 51.2) scale(25.29904 23.68894)"/><circle r="1" fill="#7a5f44" transform="matrix(-64.48959 4.2878 -1.97478 -29.70122 5.5 153)"/><path fill="#ced7ce" d="M181.7 108l-11.5 11-29.9-31 11.5-11z"/><path fill="#b58e58" d="M142 12h26v10h-26z"/><path fill="#565d6d" d="M59.2 26.1L17 54.6-13.2 10 29-18.6z"/><ellipse cx="75" cy="7" fill="#90aed3" rx="40" ry="14"/><path fill="#b4ac97" d="M24 120L8 61l-12 56z"/><path fill="#d6ab8f" d="M50 35l10 50 52 30z"/><path fill="#562c1d" d="M46.9 28.3l43.9.1-47.3-11.3L-5 38.8z"/><path fill="#b9b1c2" d="M57.3 28.9l17.9 4-14.7 14L26 32z"/><path fill="#c59681" d="M133.5 134.5l-64.3 16-24.8 1.3 26.3-17z"/><path fill="#4c2c16" d="M22.8 78.1V54.5L44.6 44l27.9 89z"/><path fill="#6c3f2d" d="M65.9 55.3l16.4 35.8L75.8 40l-2-17.2z"/><path fill="#738592" d="M147.8 60l-5-10.2L95.9 3.1l54 70z"/><path fill="#8f7a67" d="M152 238L82 137l-2 46z"/><circle r="1" fill="#573720" transform="matrix(-5.13572 -13.30588 28.95867 -11.17728 64.4 119.3)"/><path fill="#98aec2" d="M25.3 12.6L12.7 31.5 7.1 11.3l9.5-15.4z"/><circle cx="31" cy="255" r="48" fill="#99978b"/><path d="M186 14.7l-40.2 15.1 3.2 44 37 37.2z"/><path fill="#532b1a" d="M41.3 147.5l63 25.6 9.7 4.8-37.3-24.1z"/><path fill="#c3b9a9" d="M104 143h38v46h-38z"/><circle r="1" fill="#9eb0c7" transform="matrix(-13.4841 6.0517 -14.41513 -32.11905 101 31.2)"/><path fill="#2f1f13" d="M38.1 21.9L14.3 50.4 14 37.7l11.4-20.4z"/><path fill="#765c4c" d="M99 72.6l19.1-9-17.3.7-12.6-11z"/><circle r="1" fill="#a49e9f" transform="matrix(-10.82129 11.60441 -2.87796 -2.68374 25.9 44)"/><path fill="#d3cac0" d="M80 187l-14-21-10 53z"/><path fill="#9d8f7d" d="M24.8 169.7l18.7 41.7 20.9-18.6-11.5-33.7z"/><ellipse cx="1" cy="5" fill="#35392b" rx="6" ry="27"/><circle r="1" fill="#654537" transform="rotate(74.6 7.6 72.3) scale(5.40586 14.46775)"/><path fill="#7e7d86" d="M94 20L54 8l55 34z"/><ellipse cx="136" cy="109" fill="#beb6a3" rx="38" ry="28"/><path d="M122 18l9-34 29 91z"/><path fill="#b6cbe3" d="M57 28h13v15H57z"/><path fill="#717574" d="M-2.1 71.3l-20-34.6L2 22.7l20 34.6z"/><circle r="1" fill="#d3c9c0" transform="rotate(-41.8 256.9 .8) scale(15.19835 3.52937)"/><path fill="#521e0c" d="M48 34l-4-6 16-10z"/><path fill="#606059" d="M18 229L3 250l16 3z"/><path d="M120 0h51v11h-51z"/><path fill="#cbcac3" d="M103.7 154.3l51.3 39.6-3.3 33.7-9.4-21.7z"/><circle r="1" fill="#7e7969" transform="rotate(-139.6 106.2 100.9) scale(38.40038 3.40972)"/><path fill="#9fa9a1" d="M165 212l-41 33 62 14z"/><path fill="#d1a28c" d="M67.6 139.4l17.9 8.2 5.5 4.1-14.2-21.8z"/><ellipse cx="99" cy="113" fill="#bf997f" rx="8" ry="33"/><path fill="#996953" d="M96.7 141.6l15.8 14.3-65.2-3.5 98-19.4z"/><path fill="#c9dbf0" d="M83 37l3-11 20 26z"/><path fill="#8a5d4a" d="M63 27.2L49.9 56 34.3 34.9l27.8 5z"/><path fill="#cea891" d="M102.8 94.3l-21 11.6-14.6-26.2 21-11.6z"/><path fill="#0c0400" d="M67 115l-6 6-9-21z"/><circle r="1" fill="#505d64" transform="matrix(-13.68829 -27.69614 2.80927 -1.38843 123.8 29.7)"/><path fill="#293035" d="M42 247h5v9h-5z"/><path fill="#b8b3a6" d="M61 277.2l-13-5 25-65.4 13 5z"/><path fill="#79674e" d="M1 197l22-90 9 60z"/><path fill="#62635c" d="M74 242l10-13-2 24z"/><ellipse cx="42" cy="114" fill="#684d31" rx="15" ry="45"/><path fill="#acb7bf" d="M70.5 34.9l71.8 22.6 7.1 7.2-3.5 1z"/><path fill="#798089" d="M33.5 1.4L-11 48.5l35.1-29.7 41.2-3.1z"/><path fill="#662d1c" d="M99 116l-37 10 22-17z"/><path fill="#190000" d="M62 153h14v5H62z"/><path fill="#7f4e43" d="M70 35.3L66.9 26 82 20.7l3.3 9.4z"/><path fill="#515358" d="M60.8 5.7l9.3-2.1.7-2.6-27.2-17z"/><ellipse cx="114" cy="157" fill="#c5b7a6" rx="23" ry="4"/><circle r="1" fill="#826d54" transform="matrix(11.86432 28.5022 -4.10299 1.7079 10.9 79.7)"/><path fill="#736f68" d="M52 240l17-30-17 17z"/><path fill="#b7b0a3" d="M-19.3 265.1l86.8-103.4 3.8 3.2-86.8 103.4z"/><path fill="#c4dcf5" d="M40.8-11L55.2 8l-4 3L36.8-8z"/><path fill="#573e36" d="M93.2 55h5l.6 16h-5z"/><path fill="#cebcce" d="M41.7 28.1L30 35.3l22.4.2-10.3-4.4z"/><path fill="#3f2b19" d="M40.7 59l-36.5.6 25.2 6 14.2 8.6z"/><path fill="#afc2dc" d="M67 34h20v5H67z"/><circle r="1" fill="#7b7d73" transform="matrix(1.42875 -3.20759 13.95212 6.21468 170 201)"/><circle cx="139" cy="221" r="3" fill="#2d424f"/><path fill="#807c71" d="M8.8 271l1.7-56.5 3-13.6-29.5 35.2z"/><path fill="#ada190" d="M-16 87.4l20.5 27.3 27.1 3.6-42.2-38.2z"/><path d="M132 23l54 99V24z"/><circle r="1" fill="#80563f" transform="matrix(6.31353 -2.49313 8.87868 22.4841 55.2 83)"/><path fill="#cbbfb0" d="M62 168l16 31 30 7z"/><path fill="#8d8477" d="M123.6 163.6l-23.7 43.5 16.2-37.8 27.7.7z"/><path fill="#67331e" d="M91.8 121.8l-17 4.5 13.7 11.6-32.3-13.8z"/><path fill="#b7b4a8" d="M149.3 241.1l-24.6-17.8-7.4-25.7-8.3 32.3z"/><path fill="#bc937a" d="M75 62l19-8 3 38z"/><path fill="#b3b3aa" d="M96 227l32 29-45-19z"/><path fill="#c7cede" d="M100 45h10v16h-10z"/><path fill="#877d70" d="M84.3 185.6l4 2.8-12.6 18-4-2.8z"/><path fill="#66331e" d="M76.8 75.9L64.4 45.3l2.8-1.2 12.4 30.6z"/><path fill="#bfcddc" d="M53 30.5l1.6 3.1.7 7.6L64 25.4z"/><path fill="#74643e" d="M104.7-9.8l12 24.1 7.3-28.5 10-1.7z"/><path fill="#845c45" d="M85 164.9l-11-15.8 1.9-7.8 33.1 37.3z"/><path fill="#553f25" d="M161 24l25-18-44 15z"/><path fill="#b4aa99" d="M-1.7 211l46.6-46.7 2.8 2.8-46.6 46.6z"/><path fill="#b3b6ac" d="M157.1 80.3L144.6 71l26.5 107 14.9-62z"/><circle cx="88" cy="171" r="4" fill="#e3d6c8"/><path fill="#ccc5b8" d="M83 216l-6 12-16-36z"/><path d="M119 14l12 23 22-53z"/></g></svg>