<svg xmlns="http://www.w3.org/2000/svg" viewBox="0 0 299 449"><defs/><path fill="#2f4055" d="M0 0h299v449H0z"/><g fill-opacity=".5" transform="translate(.9 .9) scale(1.7539)"><circle r="1" fill="#fffce8" transform="matrix(86.92387 -144.09535 85.06823 51.31643 163.7 136.3)"/><circle r="1" fill="#2d0000" transform="matrix(43.40704 15.18912 -9.71906 27.77487 104.4 38)"/><circle r="1" fill="#9ebcc3" transform="rotate(177 21.4 30.8) scale(20.40356 139.56572)"/><circle r="1" fill="#faffff" transform="matrix(28.2972 152.678 -15.8997 2.94683 158.4 48.6)"/><circle cx="170" cy="211" r="80" fill="#d9dcf3"/><circle cx="29" cy="196" r="51" fill="#56391b"/><path fill="#490500" d="M57 89l72 3-12 44z"/><path fill="#f8ffff" d="M55.4 45l5.5-25.7 40-35.3L55.5-1.2z"/><path fill="#5b2a09" d="M127 30h23v52h-23z"/><ellipse cx="34" cy="83" fill="#c5fdff" rx="5" ry="44"/><ellipse cx="14" cy="91" fill="#180c00" rx="11" ry="76"/><path fill="#6b6a72" d="M186 186l-68 35-65-25z"/><path fill="#0f0000" d="M39.8 227.7l30.8-34.1 9.6 8.7-30.8 34.1z"/><path fill="#b4c0d0" d="M21.8 208.9l15.7 39.3 6.8-90.6 12.9 49.1z"/><ellipse cx="80" cy="52" fill="#310900" rx="18" ry="39"/><circle r="1" fill="#ee9e75" transform="matrix(-4.61486 -18.3691 26.73489 -6.7166 106.6 79.6)"/><path fill="#f2ffff" d="M136 80h35v26h-35z"/><path fill="#f7e4d2" d="M55 114l51 4-42 37z"/><path fill="#001e0b" d="M47.8 159.4l36.5 1.1-22.7 18.7-2.5 11.6z"/><circle r="1" fill="#8ac9f9" transform="matrix(-3.98858 -46.64717 6.75346 -.57746 27 31.9)"/><path fill="#f8ffff" d="M121-9l50 76-22-71z"/><circle r="1" fill="#f4ebe9" transform="matrix(-46.43072 -5.3867 2.4893 -21.45663 140.6 241.9)"/><path fill="#ffdfd3" d="M41 208l48-22-14-8z"/><path fill="#482a0c" d="M146 76l-39 24-21 55z"/><path fill="#09375f" d="M54 16L42 85 29-16z"/><path fill="#494455" d="M145 133h6v58h-6z"/><circle r="1" fill="#cdebff" transform="rotate(-85.8 144.5 13.5) scale(30.24526 8.70545)"/><path fill="#c9eeff" d="M53 261l16-41-35 46z"/><circle r="1" fill="#9a8354" transform="matrix(-4.34596 21.55355 -16.63533 -3.35427 42.6 145)"/><ellipse cx="97" cy="28" fill="#241600" rx="26" ry="36"/><path fill="#5b3d28" d="M126-16l30 104-60-53z"/><circle r="1" transform="matrix(16.21361 95.37538 -4.80166 .81627 11.8 41)"/><circle r="1" fill="#ffeedf" transform="matrix(-7.9238 -4.2637 5.78248 -10.74635 113 86.4)"/><ellipse cy="114" fill="#614524" rx="14" ry="72"/><circle r="1" fill="#fcffff" transform="matrix(4.20952 .27065 -2.32144 36.10611 159 152.7)"/><path fill="#ebffff" d="M186 94l-43-32 15-33z"/><path fill="#6a3424" d="M72 251.6l-87.4-41.1 14.9 53.9 97.3-34.7z"/><ellipse cx="1" cy="187" rx="3" ry="48"/><path fill="#e9ffff" d="M135.2 175.5l.9-57.6 6.3 81.5-15.2 6.2z"/><path fill="#4b4834" d="M74.9 123.8l28.7 19.7 28.8-41-29.1 56.7z"/><ellipse cx="44" cy="49" fill="#b6e7ff" rx="2" ry="28"/><path fill="#4c8473" d="M69 181l35 1-33-42z"/><circle r="1" fill="#7e5f4a" transform="matrix(14.58272 4.73445 -7.56158 23.29065 77.4 91.8)"/><path fill="#fff" d="M173 226l-36-9 49-26z"/><path fill="#f0f9f6" d="M80 114.8l21.1 6.4-2.1 15-26.2-21.5z"/><path fill="#484009" d="M87.1 200.6l-6.5 19.9-15-17.3-12.7-15.7z"/><path fill="#a1d4ff" d="M53 31h4v71h-4z"/><path fill="#030602" d="M44 204l-15-35-17 41z"/><circle r="1" fill="#0d0300" transform="matrix(-6.79374 -8.98805 19.54963 -14.77685 77.5 44.4)"/><path fill="#f7ede4" d="M86.8 185.1l-4.1 39 4.9 6.8 4.5-23.9z"/><path fill="#deffff" d="M36 94h5v32h-5z"/><path fill="#040f18" d="M24.6 66.6l8.7 56.5-12 32.9L7.8 61.4z"/><path fill="#2a1000" d="M128 244l-6-8 3-10z"/><path fill="#bdccc9" d="M61.2 205.4l.9-9-27.9-28.3L45.1 205z"/><path fill="#71a9cd" d="M186 76L148 7l22-22z"/><path fill="#e6ffff" d="M138.2 80.1L186 95.4l-19.6 26.1L135.3 81z"/><path fill="#302b2b" d="M42.7 170l7.2-50.2-1.2 26.3-8.6-102.3z"/><path fill="#e6fdd6" d="M88 157H56l-2-14z"/><circle r="1" fill="#b7e3ff" transform="rotate(39.7 30.4 88) scale(7.67476 19.58384)"/><ellipse cx="42" cy="17" fill="#9accf1" rx="2" ry="31"/><path fill="#e0c6c4" d="M34.3 152.2l-10.5-13.4 4-3 10.4 13.4z"/><path fill="#4d2814" d="M110.6 88.1l-14.3.4 20.6 46.1L87.6 108z"/><path fill="#787a8f" d="M123 147l10-35v67z"/><path fill="#c0c5df" d="M68 215l-13 22 41-12z"/><path fill="#022955" d="M48 23h4v71h-4z"/><path fill="#b65845" d="M98.2 245.3l-24 3.9 4.4 21.8 32.1-5.3z"/><path fill="#42351d" d="M67.8 169.7l55.3-53.1 3.7-46.1 3.4 27.4z"/><ellipse cx="35" cy="1" fill="#000516" rx="4" ry="26"/><path fill="#3d2418" d="M44.1 216.6l-6.8 46.9 17.1-25.1L76 194.3z"/><path fill="#bed5ee" d="M120 127.2l18.1 84.3-50-60.3 10.8 30.6z"/><path fill="#ffc3aa" d="M86 94h10v9H86z"/><path fill="#b0e1ff" d="M56 22h6v23h-6z"/><path fill="#905d5b" d="M81.9 240.8l-21 9.2 15.9-18.2 36.8-16.3z"/><path fill="#684a37" d="M114 12h13v61h-13z"/><path fill="#4a6766" d="M89.2 142.9l-11.5 15.4 18.5 57.5-6-46.2z"/><path fill="#a6dcff" d="M45 69h3v41h-3z"/><ellipse cx="9" cy="153" fill="#645542" rx="7" ry="52"/><path fill="#080000" d="M54-16l62 4 12 25z"/><path fill="#ffded5" d="M80.7 242.1l34.2 14.8 8.4-27.5 23.4-19.2z"/><path fill="#d0ad98" d="M162.2 224.7l-11.4-17.5-6.9 2.7-5.1 31.6z"/><path fill="#efcdc2" d="M112.4 133.9l-67-19.1 42.9 31.4-38.2-41z"/><path fill="#cec5c6" d="M61 60h5v23h-5z"/><circle r="1" fill="#170f09" transform="matrix(6.70916 3.1428 -18.68526 39.88876 76.3 25.3)"/><ellipse cx="33" cy="57" fill="#aed7fe" rx="4" ry="32"/><path fill="#ffd9c7" d="M120 95.7l-23.6-11 7.6-16.4 23.6 11z"/><path fill="#fffaec" d="M94 147h8v6h-8z"/><path fill="#001027" d="M34.6 5.2l2-.1 6.8 77.7-2 .1z"/><path fill="#78636c" d="M24.9 227.1l18.8 23.4 5.2-53L25.8 220z"/><path fill="#808296" d="M146 192l14-79-21 41z"/><path fill="#abf3fe" d="M71 171h16v5H71z"/><circle r="1" fill="#000309" transform="matrix(4.53381 47.65527 -5.591 .53191 10.4 13.8)"/><path fill="#163854" d="M48.4 76.3L42.3-.1l5.6-12.4 1.9 58.6z"/><path fill="#866450" d="M59.6 123.1l27.6 4.9-.8 4.9-27.6-4.9z"/><path fill="#292518" d="M52.3 184.7l5-23.8 11.4-6.3-7 39.7z"/><path fill="#fff6fa" d="M89 201l-2-17-13-3z"/><path fill="#0d2c3f" d="M170 8h1v43h-1z"/><path fill="#4c291d" d="M135.2 77l5.2-16 12.4 4-5.2 16z"/><path fill="#ecf2ff" d="M139.4 90.2l1.8.8-22.6 58.8-1.8-.8z"/><path fill="#625240" d="M77 84l-17 1-11 37z"/><path fill="#d8f8ff" d="M155.3 87l-5.5-76.2L174 59.6l-24.6 75.6z"/></g></svg>