<svg xmlns="http://www.w3.org/2000/svg" viewBox="0 0 300 199"><defs/><path fill="#444" d="M0 0h300v199H0z"/><g fill-opacity=".5" transform="translate(.6 .6) scale(1.17188)"><circle cx="254" cy="40" r="103" fill="#fcfcfc"/><path d="M-16 179L2-16l269 188z"/><path d="M193 48l50 19-19 97z"/><ellipse cx="110" cy="38" fill="#a9a9a9" rx="25" ry="62"/><circle r="1" fill="#fff" transform="matrix(72.45097 -5.16616 1.7703 24.827 224.8 14.9)"/><circle cx="90" cy="169" r="77"/><path fill="#fff" d="M271 24l-5 137-39-12z"/><ellipse cx="144" cy="39" rx="12" ry="42"/><path d="M117.7 73.3l-5.1-27.9-71.7-15.8L-16 63.5z"/><path fill="#e3e3e3" d="M155 0h22v89h-22z"/><path d="M177 70V46l53 26zm-193 78l203 37 59-77z"/><ellipse cx="192" cy="102" fill="#c1c1c1" rx="25" ry="18"/><ellipse cx="229" cy="42" rx="37" ry="4"/><path fill="#e4e4e4" d="M111.3-1.4l21.5.6 2.4 29.1-4.8 41.5z"/><path d="M241 119l-48-54 23-12z"/><path fill="#ddd" d="M217 49l54 91-12-96z"/><path fill="#fafafa" d="M203 90l-33 7 21-41z"/><path fill="#878787" d="M87 69h26v40H87z"/><circle r="1" transform="matrix(-4.5841 -36.0169 159.58542 -20.31149 56.7 153.6)"/><path fill="#d1d1d1" d="M241 109.5l4.9 1.5-17 55.5-4.8-1.5z"/><path fill="#4d4d4d" d="M172.2 96.4l-4.5-48.7-16.2 69.4-58.9-55.9z"/><path fill="#010101" d="M59.4 4L17.6 53.6l-33-27.6 41.8-49.8z"/><path fill="#929292" d="M231.7 125.3l.3 12.5-16.8 14.1-.1-12.6z"/><path d="M135 1h18v89h-18z"/><path fill="#ddd" d="M128 31h5v54h-5z"/><path fill="#ededed" d="M194 57l-4-10 22 4z"/><path fill="#f3f3f3" d="M253 39l18-53-93 53z"/><path fill="#eee" d="M153 50h10v38h-10z"/><path fill="#c3c3c3" d="M213.4 95.2l6.1-1.2-12.3 43.4 1.6-31.9z"/><path d="M115 66.9v27l-9.5 4.7 26 4.8zm51.3 38.9l18.3-7.1-30-1-36.5 56.6z"/><path fill="#989898" d="M137 109.9l6.3-3.4-4.9-22.2-5.1 24.3z"/><path fill="#090909" d="M177 44h11v17h-11z"/><path d="M199 113h7v57h-7zM45.3 95.2l29-44.4 18.4 12-29 44.4z"/><path fill="#b4b4b4" d="M108.8 54.2L91 49.4l26.9-6.3-21.4-14z"/><path d="M117.7 43.6l-5.9 25.7-71.7-11.6L60 93.9z"/><path fill="#030303" d="M180 175.5l12.3-63.6-16.6-14.8 61.1 87.9z"/><ellipse cx="153" fill="#fefefe" rx="23" ry="2"/><circle r="1" fill="#4d4d4d" transform="matrix(1.50598 3.46541 -10.2087 4.43643 250 69.2)"/><circle r="1" fill="#464646" transform="matrix(-4.23209 -17.32005 29.08188 -7.10605 73.7 20.5)"/><path d="M199 97h7v6h-7z"/><path fill="#030303" d="M233.2 66l-11.5 29.8-14.9-5.7 11.5-29.9z"/><path fill="#f4f4f4" d="M249 152l15-76-23 1z"/><path fill="#6d6d6d" d="M242.2 104.9l3.8 6.1-16.8 21.9 5.2-71.3z"/><ellipse cx="118" cy="61" fill="#e4e4e4" rx="3" ry="14"/><path fill="#d2d2d2" d="M7 51l-7.6-2.1L.9 43l7.7 2z"/><ellipse cx="231" cy="43" fill="#121212" rx="41" ry="3"/><circle r="1" fill="#5f5f5f" transform="matrix(3.0396 -11.1853 3.82914 1.04057 242.4 144.4)"/><path fill="#f1f1f1" d="M179.9 45.9L157 22.8l2.2 19.8 60.7-7.8z"/><path fill="#010101" d="M196 47h3v14h-3z"/><ellipse cx="36" cy="98" fill="#343434" rx="15" ry="33"/><path d="M-18.1 43.4l43.8 10.1-7.6 33.1-43.8-10.1z"/><path fill="#212121" d="M183.5 71.6l1.3-27.4-11.6 29.6L211 54.7z"/><path fill="#cfcfcf" d="M108 69l5.4 2.7L106 87l-5.4-2.7z"/><circle r="1" fill="#a8a8a8" transform="matrix(8.86875 -3.62367 8.5251 20.86476 116.5 19.6)"/><path fill="#ececec" d="M168.6 76.1l33.6 20-.3-14.5-34.4-15z"/><path fill="#bdbdbd" d="M182.5 102.4L195 51.3l-24.3 55.5 19.3 19.5z"/><path fill="#181818" d="M123 48l5 27.5-3 .5-5-27.5z"/><path fill="#fff" d="M200 105l-2 17-7-24z"/><circle r="1" fill="#dbdbdb" transform="matrix(3.88011 -1.0067 .51454 1.98318 141.6 81.2)"/><circle cx="239" cy="161" r="10"/><path fill="#090909" d="M61.1 48.9l-8 136.1L81.5 36.2l30.2 8.7z"/><path fill="#c1c1c1" d="M207.4 126.5l4.1-.5 6.2-17.4-11.8 10.3z"/><path fill="#959595" d="M94 90L82 80l20-19z"/><path fill="#d8d8d8" d="M208 46l13 14 35-14z"/><circle r="1" fill="#a1a1a1" transform="rotate(133.4 103.3 50.2) scale(39.62078 3.77348)"/><path fill="#020202" d="M219.9 86.8l-2.7 18.7 17.6-9-26.6-39z"/><path fill="#fff" d="M228 147h2v19h-2z"/><path d="M221.2 84.3l-29.8-16.5 3.4-6.1 29.8 16.5z"/><path fill="#dbdbdb" d="M176.4 38.5L224.5-16l-80.4 4.6 35.4 56.9z"/><path d="M107 44h9v25h-9z"/><ellipse cx="246" cy="40" fill="#262626" rx="23" ry="2"/><path fill="#050505" d="M69 117l18 16 19-36z"/><path fill="#020202" d="M156.5 106l13.2-27 1.8 1-13.2 27z"/><circle r="1" fill="#bababa" transform="rotate(-67.7 77.5 -56.1) scale(4.43626 10.91157)"/><circle r="1" fill="#2a2a2a" transform="matrix(-14.31304 17.67514 -11.38307 -9.21783 50.9 17.7)"/><circle cx="85" cy="30" r="9" fill="#7c7c7c"/><path fill="#1f1f1f" d="M103.5 79.7l-2.1-17.4-1.3 30.9-30.4 18.5z"/><path fill="#050505" d="M137 7h19v43h-19z"/><path fill="#cfcfcf" d="M153 19l7 15 25-50z"/><ellipse cx="8" cy="151" fill="#030303" rx="50" ry="38"/><path d="M194.7 47.8l-.2-1 14.8-2.6.2 1z"/><path fill="#040404" d="M125.6 86.4l43.4 24.4-32-19.5L42.2 185z"/><path fill="#dcdcdc" d="M185.4 103.9l20.6-20-29-10.1-6.8 16.7z"/><path fill="#050505" d="M149 91h18v79h-18z"/><path fill="#4c4c4c" d="M237.7 115.8l-6.5-3.2-12.4 25 28.3-21.1z"/><path fill="#eaeaea" d="M177 59V35l-10 36z"/><path fill="#bcbcbc" d="M126 77h5v12h-5z"/><path fill="#090909" d="M212.2 154.8l-1 .2-11.4-53.8 1-.2z"/><path fill="#8f8f8f" d="M132.5 104.2l10.1.9-7.5 6.3-3.7-2.3z"/><path fill="#737373" d="M166 54.8l9.3-18.9 2.7 1.3-9.3 18.9z"/><path fill="#4f4f4f" d="M179.4 98.9l-48-9.7 21.3 1.3 33.1 17z"/><path fill="#9b9b9b" d="M184.4 78l-6-9.4 8.9 3.2 6.9 32.3z"/><path fill="#f4f4f4" d="M190.9 62.5l-6.7-2.2 1-2.8 6.6 2.2z"/><path fill="#e0e0e0" d="M216.7 107.3L205.5 95l6.2 5.2 6-9.4z"/><path fill="#adadad" d="M246 158.7l25-30.6-44.3 3.5 44.3 27.6z"/><circle r="1" fill="#161616" transform="rotate(67.1 41 197.5) scale(14.71517 3.04629)"/><path fill="#454545" d="M65.5-16l62.6 68.1L52.8-6.8l18.3 26.4z"/></g></svg>