<svg xmlns="http://www.w3.org/2000/svg" viewBox="0 0 300 199"><defs/><path fill="#32374b" d="M0 0h300v199H0z"/><g fill-opacity=".5" transform="translate(.6 .6) scale(1.17188)"><circle r="1" fill="#ffecc9" transform="rotate(-97 143 -50.5) scale(131.62532 119.45279)"/><ellipse cx="40" cy="107" fill="#180000" rx="56" ry="79"/><circle r="1" fill="#e6e3ef" transform="matrix(-67.48282 94.57943 -50.89912 -36.31674 232.4 141)"/><circle r="1" fill="#5e3320" transform="rotate(139.4 73.4 50.6) scale(40.05945 50.39813)"/><circle r="1" fill="#cab691" transform="matrix(-73.52558 30.95524 -7.90487 -18.77582 44.5 8.4)"/><circle r="1" fill="#f19e7d" transform="matrix(-8.36715 47.23184 -23.97739 -4.24761 104.4 92.6)"/><circle r="1" fill="#100" transform="matrix(111.44452 153.39023 -39.17158 28.45982 22.6 120)"/><circle r="1" fill="#4e2409" transform="matrix(-3.26967 -7.9461 34.9723 -14.39044 240.6 37.3)"/><path d="M148 6l-28 45 12-67z"/><path fill="#f7d6d7" d="M134.3 105.4l-30.2-7 9.6-41.8 30.2 7z"/><circle r="1" fill="#3b0500" transform="matrix(-20.95145 -13.5541 21.5364 -33.2902 70.2 50.1)"/><circle r="1" fill="#acaaa6" transform="matrix(-30.98733 7.22431 -3.27478 -14.04654 180.7 36)"/><path fill="#7b3a24" d="M230 42l-97 46 27 26z"/><path fill="#4c3120" d="M241 21h7v59h-7z"/><circle r="1" fill="#69666f" transform="matrix(-4.14122 -51.3389 6.6715 -.53815 203.2 151.2)"/><path fill="#9c622d" d="M88 0h17v100H88z"/><path fill="#ddf1f9" d="M239.6 107.7l17 73.1-32.2 7.5-17-73.1z"/><circle r="1" fill="#d2cdcf" transform="matrix(-18.35036 3.89314 -5.3021 -24.99158 236.7 0)"/><path fill="#f4cbbd" d="M116.8 151.1l6.4-4.6-3.5-96.2-15.2-24z"/><circle cx="36" cy="79" r="44" fill="#190000"/><path fill="#530200" d="M103.6 107l4-.6 4.8 34.7-4 .5z"/><path fill="#a8aeaf" d="M39.7 28.4L32.2 9.8l50-20.2 7.6 18.6z"/><circle r="1" fill="#180000" transform="matrix(75.8725 45.65379 -22.54006 37.45956 58.4 169)"/><ellipse cx="115" fill="#b88c81" rx="13" ry="36"/><path fill="#2c0b00" d="M141.8-16l-22.6 56.7 8.6 43.2.6-22.8z"/><circle r="1" fill="#d07b67" transform="matrix(27.2 -2.77769 .7864 7.70062 190.3 111)"/><path fill="#631600" d="M122 110h8v24h-8z"/><ellipse cx="6" cy="21" fill="#73614c" rx="21" ry="25"/><path fill="#ffc2b8" d="M139.7 146.9l-3.6-45.8-10.5-28 3.1 49.5z"/><circle r="1" fill="#f7c0ad" transform="matrix(-13.69817 -8.72062 17.4693 -27.44043 216.2 77.8)"/><path fill="#b4c4d1" d="M194.4 130.5L204 185l-50.3-24.7-4.1-48z"/><path fill="#3b0800" d="M97.9 185l6.6-20.7-7.9-49.8-4.7-15.7z"/><path fill="#fff" d="M134.9 78.8l-5.2-14.1 9.4-3.5 5.2 14.1z"/><path fill="#1c0500" d="M-16 53.1l57.8 131.7 64-200.8-22.5 30.4z"/><ellipse cx="81" cy="98" fill="#773614" rx="5" ry="31"/><circle r="1" fill="#300700" transform="matrix(25.0215 -12.14979 .73981 1.52358 175.5 85.2)"/><path fill="#805646" d="M140.4 172.4l-31.5-33.6 6.2 17.2-7.1 16.3z"/><path fill="#530d00" d="M151 94l1 14 21 11z"/><path fill="#573a2a" d="M210 35.9l30.7 5.1 8.3-28.8L267.1 36z"/><ellipse cx="108" cy="62" fill="#d1af99" rx="10" ry="33"/><path fill="#f8c4ae" d="M94 131l-6 .8-4-28.7 6-.9z"/><path fill="#8a5f46" d="M200 0h7v71h-7z"/><path fill="#d4ebf6" d="M171.2 92.6L185 83l1.7 2.5L173 95z"/><path fill="#774d26" d="M91-2l-7 77 29-63z"/><path fill="#64402e" d="M251 57l-12 27 3-29z"/><path fill="#ebf0f5" d="M183 123h9v47h-9z"/><ellipse cx="255" cy="98" fill="#d3e3ec" rx="23" ry="17"/><path fill="#b3bdc9" d="M181 86l-14 13-9-3z"/><path fill="#f7b49b" d="M188 94.3l4.4 7.8-24.5 13.6-4.3-7.8z"/><path fill="#bcaeab" d="M189 0h11v40h-11z"/><path fill="#847577" d="M134 82l31-9-26 48z"/><path fill="#f6d0cf" d="M125.1 69.5l-5 85.4 10-.4-19.1-31.8z"/><path fill="#6f6f76" d="M123 132l12 53 12-51z"/><path fill="#a1a9b2" d="M144 119h37v51h-37z"/><path fill="#c7bfb9" d="M156.8-33.6l35 71.9-2.6 1.3-35-71.9z"/><path fill="#433939" d="M238.9 68.4l25 18.4 7.1-11.4-21.9 5.9z"/><path fill="#664733" d="M138.8-16l4.3 28.8L181.9 28l-19.5-44z"/><path fill="#8b7060" d="M130.3 60.8L84.5 75l-4.6-1.5 10-11.6z"/><path fill="#634c32" d="M127 48l15-41 4 62z"/><path fill="#522815" d="M124 102h3v42h-3z"/><path fill="#c4cecf" d="M171 47l-11-16 18 6z"/><path fill="#ef876f" d="M97 138.2l3.8-3.2 14.2 16.8-3.8 3.2z"/><path fill="#965535" d="M159.2 104.6l20.9-13.9 34.5-32.4L182 98.9z"/><path fill="#190000" d="M117.8-16l16.4 35.4 8.4-11.2-7.3-24.2z"/><path fill="#726152" d="M259 57l-55-14 28-14z"/><path fill="#5d473c" d="M140 83l16-1 5-48z"/><circle r="1" fill="#8ba1af" transform="rotate(-101.6 193.8 -22.8) scale(55.29484 3.54557)"/><ellipse cx="137" cy="130" fill="#fff" rx="3" ry="5"/><path fill="#d5aaa1" d="M232 69l-21 48 35-38z"/><path fill="#e8e4e0" d="M207 6l4 16-7-8z"/><circle r="1" fill="#e8fdff" transform="matrix(-4.23004 3.06485 -3.58833 -4.95253 252.1 71)"/><path fill="#c28c74" d="M105 103.3L91.2 38.1l26.7 57.5-19.1 32.7z"/><path fill="#461311" d="M212 19l4 8-1 7z"/><path fill="#be9f96" d="M115.8 14.2l-.9 22.6 14.2-21.6L93.2-16z"/><circle r="1" fill="#695b4c" transform="matrix(4.1214 29.01782 -18.68175 2.65337 0 18.5)"/><path fill="#471403" d="M155.4 91.5l15.5.2 35.3-27.5-38.5 20.5z"/><path fill="#66493a" d="M185.5-7.6l-26.1 53L175.1 4l-6.3-12.2z"/><path fill="#63200b" d="M111 147.4l-4.2-46.7-1.3 34.5 14.5 19.5z"/><path fill="#6f3c23" d="M78.3 133.6l3.5-55.3 18.1-17.5L90 87z"/><path fill="#6e7b87" d="M201 163l18 22-17-65z"/><circle r="1" fill="#170100" transform="matrix(-36.0456 -50.25055 24.1674 -17.3357 66.7 156.8)"/><path fill="#eacdbb" d="M122.4 57.5l-17.2 5.2-5.6-18.2 17.2-5.2z"/><path fill="#ced8dd" d="M162-16l85 28-20-28z"/><circle r="1" fill="#9e8e83" transform="matrix(-2.09504 1.20749 -10.86495 -18.85106 162 0)"/><circle r="1" fill="#ceb7a7" transform="matrix(-9.11012 10.97428 -4.63312 -3.8461 254.4 45.2)"/><path fill="#b67553" d="M212.4 57.8l1.6 4.7-28.4 9.7-1.6-4.7z"/><circle r="1" fill="#e4d0cc" transform="rotate(-40.4 214.7 -260.6) scale(28.64064 7.13516)"/><path fill="#b7908e" d="M167.2 70.3l3.7 3.3-18 20.1-3.8-3.3z"/><path fill="#be8575" d="M175 119l18-2V86z"/><path fill="#6b4634" d="M187.5 20.4L183 2.5l.8 31.6 4.3-14.2z"/><path fill="#80584c" d="M187.7-9.8l14.6 24.2L220.6-16 169.8 4.6z"/><circle r="1" fill="#e9bab3" transform="matrix(1.8077 -.29903 4.19023 25.33112 101.7 120)"/><path fill="#c9c1be" d="M219-16l8 20-10 32z"/><path fill="#7b270d" d="M165 103l-3.6 4.8L147 97l3.6-4.8z"/><circle r="1" fill="#7f412c" transform="matrix(15.69006 17.73439 -1.8868 1.6693 90.2 133.7)"/><path fill="#ac7b5d" d="M119.7 8.9L86.3 50.7 85 54.9l16 2z"/><path fill="#78594c" d="M224.1 17.8l7.5 3.9-8.4 5.2L234.4-16z"/><path fill="#c0c5cd" d="M152 108l7 30 4-21z"/><ellipse cx="150" cy="38" fill="#978e82" rx="5" ry="14"/><path fill="#837b74" d="M47.3 22l4.3-32.3-25.3 4.1-7.2 47.9z"/></g></svg>