<svg xmlns="http://www.w3.org/2000/svg" viewBox="0 0 300 199"><defs/><path fill="#624a3c" d="M0 0h300v199H0z"/><g fill-opacity=".5" transform="translate(.6 .6) scale(1.17188)"><circle r="1" fill="#e3ffff" transform="matrix(24.62373 -53.9014 107.25668 48.99798 60 54.8)"/><path d="M54.7-13l12.5 143.5-27.9 2.4L26.8-10.5z"/><ellipse cx="12" cy="158" fill="#ccd7cb" rx="88" ry="26"/><circle r="1" fill="#f9ffff" transform="matrix(28.38994 -4.98182 12.41177 70.73108 89.2 53.1)"/><circle r="1" transform="rotate(-174.9 115.6 10) scale(44.04443 77.52615)"/><circle r="1" fill="#030000" transform="rotate(-177.5 69.8 11.9) scale(29.18839 30.17003)"/><ellipse cx="130" cy="110" fill="#d8e7ff" rx="21" ry="52"/><path fill="#fff" d="M27.7 98.4L-17 103-27.7 1.6 17-3z"/><ellipse cx="45" cy="124" fill="#443820" rx="36" ry="37"/><circle r="1" fill="#fff" transform="matrix(-8.98043 18.04095 -12.01489 -5.98078 84.7 151)"/><path fill="#d3e3d3" d="M157-16.7l9.5-3 24.6 80.4-9.6 3z"/><circle r="1" fill="#1a130b" transform="rotate(-69.3 220 -71.9) scale(22.83586 69.89485)"/><ellipse cx="156" cy="79" fill="#d1ebff" rx="18" ry="26"/><circle r="1" fill="#020000" transform="rotate(173.8 19.8 22.9) scale(10.53807 53.13927)"/><circle r="1" fill="#d9e5e3" transform="matrix(-9.85462 -4.84907 18.63263 -37.86651 12.6 157.1)"/><path fill="#1e0300" d="M55 162l37-42-36-19z"/><circle cx="86" cy="10" r="29" fill="#e8f8fa"/><ellipse cx="102" cy="21" fill="#869097" rx="11" ry="55"/><path fill="#d58954" d="M124 48l-20 70 41-61z"/><ellipse cx="228" cy="74" fill="#0a0000" rx="37" ry="25"/><path fill="#9ac1eb" d="M90 99l63 58-13 27z"/><circle cx="172" cy="141" r="35" fill="#38373f"/><circle r="1" transform="matrix(4.53657 33.11778 -16.84025 2.30683 146.7 16.7)"/><path fill="#f1ffff" d="M56-16l59 149-50-43z"/><circle r="1" fill="#89a4ab" transform="matrix(-2.44235 4.93977 -29.00076 -14.33873 227.6 135.7)"/><circle r="1" fill="#fff" transform="rotate(78.1 -3.3 7.7) scale(36.58419 14.1548)"/><path fill="#000600" d="M-11.6 153.5l-4.4 9 47.5-65.9L-16 107z"/><circle r="1" fill="#837a67" transform="matrix(-15.73173 29.0285 -13.04152 -7.06773 34.6 121.2)"/><path fill="#e6ede8" d="M-16 128l76 49-76-14z"/><ellipse cx="22" cy="46" fill="#110e00" rx="26" ry="2"/><path fill="#311401" d="M109.8 124.8l-4.9-1.3-51.3-10.3 48.2 24z"/><path fill="#fff" d="M88 131l-11 1 8 27z"/><path fill="#30546a" d="M27 40h6v52h-6z"/><path fill="#89411d" d="M149 58l-40-24 4-50z"/><path fill="#3d2708" d="M37 138h30v21H37z"/><path fill="#241e18" d="M180 70l-18 61 49-33z"/><circle r="1" fill="#f9ffff" transform="matrix(-14.70835 24.13736 -4.13966 -2.52254 128 93)"/><ellipse cx="145" cy="144" fill="#5d6c89" rx="14" ry="25"/><circle r="1" transform="matrix(-5.62714 3.73472 -17.69097 -26.65516 155.6 28.2)"/><path fill="#371410" d="M97 150h24v20H97z"/><path fill="#d4ebff" d="M112 140l47-76-2 44z"/><path fill="#585658" d="M168.4 72.4l19.2-45.6 2.9 31.7-39.9 44.6z"/><path fill="#fff" d="M60 5h31v38H60z"/><path fill="#000600" d="M27 153.2l-8.5-2.8 2.5-7.6 8.5 2.8z"/><path fill="#effdff" d="M79 85h29v32H79z"/><ellipse cx="247" cy="110" fill="#585f58" rx="52" ry="13"/><path fill="#473243" d="M108 97h4v25h-4z"/><circle cy="80" r="23" fill="#c4d5e0"/><path fill="#2d3835" d="M38.5-11.7l65.3 22.5-.3.9-65.3-22.5z"/><circle r="1" fill="#67828d" transform="rotate(174.3 25 11.8) scale(2.841 62.29612)"/><path fill="#a8b9d6" d="M161.5 47l-4-1.8-48.5 92.2 62.1-78.6z"/><path fill="#becfbc" d="M44 94l39-7-6 11z"/><path fill="#a97660" d="M86.7 145.5L99.3 164l6.8-19.5-4.1-14.4z"/><circle r="1" fill="#b3b8a7" transform="matrix(2.43292 46.46649 -4.61852 .24182 175.5 7.6)"/><path fill="#180000" d="M78 96l-19 19-6-11z"/><ellipse cx="228" cy="169" fill="#331a02" rx="75" ry="18"/><path fill="#4c5445" d="M45 44h56v2H45z"/><path fill="#fdfdf6" d="M81-16H45l73 31z"/><path fill="#bbcecd" d="M17 122h11v22H17z"/><path fill="#180000" d="M268 64l-79-20 17 63z"/><ellipse cx="97" cy="62" fill="#6b8994" rx="3" ry="26"/><circle r="1" fill="#021b00" transform="rotate(-84.9 81.4 58.6) scale(6.45474 2.66422)"/><path fill="#e5f6ff" d="M115 90l3-40-39 61z"/><circle r="1" fill="#44321f" transform="rotate(174.7 114.7 18.4) scale(51.42323 25.98355)"/><path fill="#835b46" d="M50.6 114.2l9.4 4.7-36.4 15.3 34.3 16.9z"/><path fill="#1a2e38" d="M28.7 38.9l-1.9-10.4 9.6 97.9L19.5-16z"/><path fill="#f8ffff" d="M0 0h18v44H0z"/><path fill="#f4ffff" d="M70 148l24-16-18 27z"/><path fill="#18130d" d="M57.2 94.7l-21.1-7.9-2.8-54.9.8-47.9z"/><path fill="#b98360" d="M106.4 23.8l2-39.8 13.1 30.9-14.1 11.7z"/><ellipse cx="190" cy="84" fill="#635443" rx="5" ry="32"/><path fill="#040100" d="M61.4 62.2l-1 .1-7.8-74.5 1-.1z"/><circle r="1" fill="#8a5950" transform="matrix(4.94241 -15.5485 2.4549 .78034 122.6 61.3)"/><path fill="#2f1f0b" d="M79 138L66 95l-19 5z"/><path fill="#402c16" d="M33.5 165.6l8-47.7-14.2-10.4 19.3 40.2z"/><path fill="#ffd5b0" d="M115 90l23-16-8-23z"/><ellipse cx="179" cy="139" fill="#40342d" rx="28" ry="43"/><path fill="#d7cdc3" d="M111.2 145l-31.9-8-1.9-6.4 9.7.2z"/><circle r="1" fill="#e2f8ff" transform="matrix(2.43853 1.673 -5.9418 8.6606 168.3 93.4)"/><path fill="#99b4bd" d="M27 15.8h1l9 72.4h-1z"/><path fill="#dfecf5" d="M70.9 105.1l44.4-20.5-3.6 10.6-9.9 19.5z"/><ellipse cx="32" cy="147" fill="#999c88" rx="6" ry="9"/><circle r="1" fill="#4b230f" transform="matrix(8.87984 18.91131 -6.89262 3.23644 136.8 34)"/><path fill="#9aafca" d="M146.3 92.9l-14.8 31.7-11.8-5.5 14.8-31.7z"/><circle r="1" fill="#311d0b" transform="matrix(-14.53331 .94954 -2.84897 -43.60513 199.3 8.3)"/><path d="M159-11h-47l57 61z"/><path fill="#bdddec" d="M67 45h30v20H67z"/><path fill="#daf8ff" d="M-16 49.2l37.9-1.4 6.6 43.3-15.6-32.7z"/><path fill="#3f2618" d="M43.4 111.7l27.1 44.8-17.4 10.3L86.3 122z"/><circle r="1" fill="#def2fe" transform="matrix(-3.46818 -1.0471 8.86747 -29.37047 121.7 113)"/><path fill="#171724" d="M115.7 155.5l4.2 24.7 16.7 4.8-25.3-47.2z"/><path fill="#344a45" d="M58.2 87.5L-16 112l79.7-31.3-61.9 19.5z"/><path fill="#effdff" d="M165 70h-18l-4 42z"/><path fill="#9dbea2" d="M19.3 117.5l12-17.2 3.4 2.2-12 17.2z"/><path fill="#72778f" d="M126 137l40-36-26 50z"/><path fill="#c4c6b9" d="M168.8 14.7L182 60.3 170.6-16l-8.4 21.5z"/><path fill="#977a55" d="M25.2 166.5L18.5 185l40.7-32.7 8.6 30.2z"/><circle r="1" fill="#6d4429" transform="matrix(5.79671 .30189 -.45348 8.70747 142.7 54.1)"/><path fill="#e5f7ff" d="M29.3 95.9l-9-5.6-36.1 18L-10 88z"/><path fill="#f4ffff" d="M92.6 39.1l-11.5 5.7L55-3.1l36.2 11z"/></g></svg>