<svg xmlns="http://www.w3.org/2000/svg" viewBox="0 0 299 449"><defs/><path fill="#5b382d" d="M0 0h299v449H0z"/><g fill-opacity=".5" transform="translate(.9 .9) scale(1.7539)"><circle cx="146" cy="68" r="163" fill="#c9ddd9"/><circle r="1" transform="rotate(-132.4 109.7 24.3) scale(63.7542 51.65146)"/><circle r="1" fill="#fff" transform="rotate(58.6 -106.6 193.8) scale(58.21658 30.53088)"/><circle r="1" transform="matrix(12.21544 102.20176 -14.6446 1.75036 62 172.1)"/><ellipse cx="11" cy="99" fill="#f1e0c8" rx="27" ry="69"/><circle r="1" fill="#fff" transform="matrix(20.75895 27.4369 -12.25042 9.26876 87.9 131.5)"/><path d="M104.4 259.5l110.2-83 21 28-110.2 83z"/><circle r="1" transform="rotate(-116.8 124.6 30.5) scale(54.5846 14.62148)"/><path fill="#e2edf3" d="M92 151h27v88H92z"/><path fill="#ffecb6" d="M176-16L60 87l52-4z"/><circle r="1" fill="#1e0000" transform="matrix(-74.86051 -46.72419 18.45774 -29.5726 34 227.8)"/><path fill="#000004" d="M37 88h46v14H37z"/><path fill="#e8decc" d="M66.1 185.9l-32.7-69.8 13.3 69 17.7-11.3z"/><circle r="1" fill="#adb8c0" transform="matrix(55.31803 2.92477 -2.16535 40.95462 32.3 9.9)"/><circle r="1" fill="#000005" transform="matrix(-6.87165 1.33368 -10.54302 -54.32181 63 168.3)"/><path fill="#070000" d="M163.8 151.9l-20 18-39.6-43.8 20-18z"/><path fill="#f1ceb0" d="M-16 48.4l95.4 39.8 29.3 44.8-1.3-64.5z"/><path fill="#eff9fe" d="M161.5 191.9l2.5 23.9-26.6 9.3-6.9-61.5z"/><circle r="1" fill="#5f483e" transform="rotate(150.1 70.6 54.8) scale(58.09054 21.60028)"/><path fill="#af937b" d="M158 88h9v69h-9z"/><path fill="#541900" d="M92 65L37 53l40-11z"/><path fill="#bfc7cc" d="M81 229l35-9-51-103z"/><path fill="#9f7933" d="M11 144h34v34H11z"/><circle r="1" fill="#000008" transform="matrix(14.32865 -28.2433 7.55385 3.83228 49 205)"/><circle r="1" fill="#000a29" transform="matrix(8.71974 -2.26636 7.24185 27.86278 49.5 104.7)"/><circle r="1" fill="#dbd0d0" transform="matrix(17.72226 25.36526 -17.96952 12.55498 19.4 115.5)"/><path fill="#120000" d="M165 156h6v100h-6z"/><path fill="#c4bfb8" d="M133 25l53-15-83 75z"/><path fill="#f4b898" d="M76 51l-34 9 45 35z"/><path fill="#e2e6e7" d="M98.1 243.8l-27-112-6-36.6 38.9 31.9z"/><path fill="#c9d0d9" d="M47.1 152.5l13.3 19.3-18.9 27.3.1-27.1z"/><circle r="1" fill="#270000" transform="rotate(144 44.3 152.8) scale(63.46863 30.74454)"/><circle r="1" fill="#170000" transform="matrix(-34.33694 -38.67463 6.02597 -5.35011 151 168.5)"/><path fill="#4c1712" d="M56.1 271L14.2 168.3l24.4.2L-16 270.9z"/><path fill="#06162d" d="M45 87h21v60H45z"/><path fill="#0e0000" d="M97 243l41-5-30 33z"/><path fill="#170500" d="M157 127l-47-25-2 30z"/><path fill="#5d4027" d="M123.4 111.6L186 121l-77.3-42.9-.9 19.3z"/><path fill="#d3c19a" d="M124.3 140l.4-24h3l-.4 24z"/><path fill="#6f7276" d="M71 175.4l12-1.4 6 48.6-12 1.4z"/><path fill="#9ea5ab" d="M112 199h21v39h-21z"/><path d="M47 84l5-15 13 31z"/><path fill="#6d5f5b" d="M107 83l79-69-12 56z"/><path fill="#8f4c30" d="M61 45l9 22-10 5z"/><ellipse cx="65" cy="183" fill="#001" rx="4" ry="52"/><path fill="#d8dcdc" d="M63.6 94.6l82.4 82 22.4 26.3-16.4 22.8z"/><path fill="#1d0800" d="M90.7 72.5l-9.4-25.7-.7.9L65.4 44z"/><ellipse cy="155" fill="#ba9a5b" rx="48" ry="13"/><path fill="#bba97b" d="M95 89l32-63-44 18z"/><path fill="#ffffab" d="M132.4 27.5L170.9-16 158.1 9.1l-32.8 32.5z"/><path fill="#a4a298" d="M26 20l19 38-61-11z"/><path fill="#000112" d="M87 100L72 85l9 20z"/><circle r="1" fill="#f8f5bf" transform="matrix(2.88392 2.75918 -17.7283 18.52978 117.1 51.1)"/><path fill="#8d9397" d="M132.5 37.8L177.9-16 149 46.6 117.3 56z"/><path fill="#253f2d" d="M39.3 77.6l-2.6 3.1-10-8.3 2.6-3.1z"/><path fill="#e3e6e6" d="M98 198h16v39H98z"/><path fill="#ebd8bb" d="M48.8 76.9l1-12.4-15.5-20.6L37.1 77z"/><path fill="#dbdadf" d="M95 92l-11 31 2-56z"/><circle r="1" fill="#040608" transform="matrix(-31.91002 -10.55323 3.10426 -9.38643 62.6 228.3)"/><path fill="#5d4d3e" d="M145 143h10v16h-10z"/><path fill="#0f0c01" d="M43.4 50.7l15.4-4.2 1.8 6.8-15.4 4.2z"/><path fill="#2d2522" d="M108 82h48v13h-48z"/><path fill="#000008" d="M45.2 140.2l4-13.6 26 71.7-20.7-38.2z"/><path fill="#bab7b2" d="M55 39h9v11h-9z"/><path fill="#a5a6a9" d="M141 202h8v26h-8z"/><path d="M164.1 132.3L159 108l1-.2 5 24.2z"/><path fill="#f9d1af" d="M73 60.1l10 8.4-18 21.4-10-8.4z"/><path fill="#000615" d="M70 161l-37 49 12 18z"/><path fill="#8a6846" d="M107.6 104.8l.9-10 25.9 2.4-.9 10z"/><circle r="1" fill="#707072" transform="matrix(2.75797 20.67003 -2.01284 .26857 76.7 171.8)"/><ellipse cx="140" cy="135" rx="8" ry="23"/><circle r="1" fill="#9a8b6d" transform="matrix(25.16782 -27.46586 6.86994 6.29514 120.4 27)"/><ellipse cx="155" cy="127" fill="#060000" rx="2" ry="19"/><path fill="#e5e8e8" d="M96 120L64 99l30 80z"/><path fill="#cfeafc" d="M75 83l18-9-12 17z"/><path fill="#10161e" d="M35.2 95.9l31.4 2.5 22.2 4.4-45.6-25.5z"/><path fill="#2b0000" d="M192.3 196.3l-30.6 55.1-14-7.7 30.6-55.1z"/><path fill="#8e969c" d="M76 46l51-39-50-23z"/><path d="M-24 182.5l55.8-4 .2 3-55.8 4z"/><path fill="#e8e0ac" d="M111.3 64.4l-21 4.6-9.6-39.5 5.6 30.4z"/><path fill="#4e1612" d="M-16 250l101 21 22-33z"/><path fill="#162233" d="M71 168l-32-66 20-18z"/><path fill="#d4c5b7" d="M175.3 24.2l-62.2 52.2L186 4.8l-41.1 30.6z"/><path fill="#2f2f1b" d="M5 167h35v5H5z"/><path fill="#d4c9c2" d="M0 113h44v30H0z"/><path fill="#2a1200" d="M75 64h12l-7-20z"/><path fill="#8e7b56" d="M25 179.4l-41-11.8 26.2 7.4 5.8-35.9z"/><circle r="1" fill="#c9cbcb" transform="rotate(122.2 1 122) scale(12.48972 29.09075)"/><path fill="#270702" d="M109.8 244.2l-6-15L107 271l79-51.6z"/><path fill="#5c1a17" d="M2.4 221.7l-7.5-12 40.7-25.4 7.5 12z"/><path fill="#170100" d="M173 172l5 36-66-75z"/><circle r="1" fill="#d1b267" transform="matrix(2.76626 2.44572 -15.19747 17.18924 144.4 11.5)"/><path fill="#927f74" d="M159 133h4v34h-4z"/><path fill="#9495a2" d="M25 192.2l20.3-27.9-2.7 32.2-10.5-17.1z"/><path fill="#caaa77" d="M19 141.9l-2.9 17.4 21.3-3.2 11.4-11.2z"/><ellipse cx="139" cy="204" fill="#f8fdfd" rx="3" ry="31"/><path fill="#707180" d="M131 237l4-9-26 11z"/><path fill="#ffffc9" d="M137.7 25.8L139 27l-38.8 43.1L99 69z"/><path fill="#70625b" d="M101 85l85-67-14 48z"/><path fill="#edb991" d="M66.5 62.5l9.6-11.1.4 25.7-13-31.5z"/></g></svg>