<svg xmlns="http://www.w3.org/2000/svg" viewBox="0 0 299 449"><defs/><path fill="#58612d" d="M0 0h299v449H0z"/><g fill-opacity=".5" transform="translate(.9 .9) scale(1.7539)"><path fill="#ffebd1" d="M26.7-46.6l126.5 11-20 228.2-126.4-11z"/><circle r="1" transform="matrix(6.86878 41.0253 -167.66623 28.07198 94.3 229.9)"/><circle r="1" fill="#fff" transform="matrix(.15468 -16.23285 113.75375 1.08391 140.2 17.2)"/><circle r="1" fill="#ffdc90" transform="matrix(-2.91188 -23.52117 89.75593 -11.11164 57.9 169.6)"/><circle r="1" transform="matrix(-2.55116 -35.85702 167.97555 -11.95115 122.6 222.8)"/><ellipse cx="37" cy="36" fill="#0b0000" rx="112" ry="6"/><ellipse cx="153" cy="172" rx="13" ry="109"/><ellipse cx="91" cy="79" fill="#0f280d" rx="32" ry="12"/><ellipse cx="10" cy="89" fill="#b97b35" rx="20" ry="79"/><circle r="1" fill="#854319" transform="matrix(17.02667 -15.91945 17.79377 19.03135 148.1 56.1)"/><path fill="#ffecc0" d="M121 80h19v97h-19z"/><path fill="#fff" d="M56.3 87L40 103.3 23.7 87 40 70.7z"/><ellipse cx="53" cy="51" fill="#fff0c2" rx="54" ry="9"/><circle r="1" fill="#fffffc" transform="rotate(-61.3 135 22.5) scale(13.0183 19.19633)"/><path fill="#7f622f" d="M111 129l-88-21 98-46z"/><ellipse cx="121" cy="18" fill="#fff" rx="87" ry="6"/><ellipse cx="41" cy="224" rx="170" ry="28"/><circle r="1" transform="matrix(-85.15454 18.99474 -2.52732 -11.3301 2.5 0)"/><path fill="#fff" d="M70 92h13v14H70z"/><circle r="1" transform="rotate(172.9 14.8 19.7) scale(38.49975 5.36241)"/><circle cx="96" cy="70" r="8" fill="#fff"/><ellipse cx="112" cy="5" fill="#aa8c87" rx="84" ry="8"/><path fill="#724c0c" d="M21.4 89.8l5.2-14.4-29.3 40.2L37 153.9z"/><path fill="#4e1b04" d="M131 43l36 150 12-117z"/><path fill="#99d4f7" d="M145.7 76.3l10 19.7-38.1-53.4L134 55.8z"/><circle r="1" transform="rotate(165.5 57.7 111) scale(125.23594 24.01943)"/><circle r="1" fill="#efba6b" transform="matrix(1.32545 7.6275 -40.52224 7.04165 5.8 28)"/><circle r="1" fill="#ba9f59" transform="matrix(-56.56804 9.06073 -2.50442 -15.6356 0 68.2)"/><ellipse cx="71" cy="108" fill="#fff" rx="3" ry="13"/><path fill="#2a2319" d="M125.3 57.5L86 39.7l71.9 15.5-42.3-14.9z"/><path fill="#d7c184" d="M96.5 123.1l18.1-22.8 30.3 78.4L-16 198.5z"/><ellipse cx="121" cy="28" fill="#f4dab9" rx="49" ry="6"/><ellipse cx="149" cy="133" fill="#100000" rx="11" ry="48"/><path fill="#000e00" d="M69 86l48 3-6-14z"/><path fill="#ffffe4" d="M116.3 55.9l20.5 74.3 5-35.5-12.4-25.9z"/><path fill="#050000" d="M62 88h5v29h-5z"/><path fill="#0f0400" d="M75 105h9v18h-9z"/><circle r="1" fill="#ad6b1e" transform="matrix(2.90986 -12.3045 50.04574 11.83521 170 49.4)"/><circle r="1" fill="#e1e6e0" transform="matrix(-5.71224 -7.93301 16.28482 -11.72604 73 55)"/><path fill="azure" d="M44.7 102.6L25 87.2l12.3-15.8L57 86.8z"/><path fill="#846c2d" d="M115.5 122.8l24.7 44.6-17.7-22.4-17.9-21.5z"/><ellipse cx="9" cy="140" fill="#a87f3e" rx="34" ry="16"/><path fill="#f6ffff" d="M25.2 12.4l2-7.7 43.6 10.9-2 7.7z"/><path fill="#0c0200" d="M-14 42l5.8 9.2L72 32.8 6.5 34.1z"/><path fill="#000001" d="M159.2 111.4l-27.4-50-2.9-2.1 8.7 24z"/><path fill="#c1c398" d="M66.3 97.2l57.9 7.3L61.5 86l25.1-23.5z"/><path fill="#dbc387" d="M68.5 194l-84.5-3.1L145.8 167l-59.5 24.4z"/><path d="M-13 191l199 63-190 9z"/><path fill="#442900" d="M19.6 98.1L-6 131.3l14.5-7.5 16-3.4z"/><ellipse cx="144" cy="18" fill="#fbffff" rx="94" ry="4"/><path fill="#320000" d="M-15.6 15.3l42-31.3v33.8l-16-8.2z"/><path fill="#bc7768" d="M114 0h38v14h-38z"/><circle r="1" fill="#92bee1" transform="rotate(-82.3 67.8 -33) scale(1 21.35341)"/><path fill="#2a5a48" d="M71.3 87.5L45.1 53l39.1 36.8L89 66.3z"/><path fill="#102425" d="M135.6 60.7l-10.7-16.8 14.2 11.7 19.5 40.3z"/><circle r="1" fill="#602c00" transform="matrix(-14.34017 1.99214 -6.1346 -44.1591 166.3 129.7)"/><circle r="1" fill="#cdb36f" transform="matrix(-50.30085 25.62956 -6.65986 -13.07072 19.7 169.7)"/><path fill="#493c09" d="M120 90l-23 4 19-35z"/><path d="M184.5 271l-105.6-.5 69.3-107.2 37.8 31.4z"/><path fill="#ddcd97" d="M84 180h54l-65-64z"/><path fill="#f3e3db" d="M42.6 110l-13.8 6.2L61.2 146l6.4-15.6z"/><path fill="#8e652a" d="M8 98l44 3 25 25z"/><path fill="#e3be9c" d="M82 52h30v18H82z"/><circle r="1" fill="#e9d0a0" transform="matrix(-2.09224 2.04887 -13.91749 -14.21207 73 92)"/><path fill="#beccbd" d="M100.9 10.2l11.5 4.1-85-6.3 112.5-24z"/><path d="M151.4 100l-.8.5-28-48.5.8-.5z"/><path fill="#fff" d="M117.3 46.2l1.2-1.5 14.2 11-1.2 1.6z"/><ellipse cx="146" cy="81" fill="#edffff" rx="2" ry="5"/><path fill="#d4bca5" d="M15.9 130.8l-3 4-4.1 4.8L-16 138z"/><path fill="#a38241" d="M5.2 106.4l49.3-54-8.4 9.8-54.5 18.7z"/><path fill="#fff" d="M129.8 54l.9-.4 17.5 30.3-.9.5z"/><path fill="#fffee8" d="M128 63l-17-11 25 34z"/><path fill="#78956e" d="M73 55h11v18H73z"/><path fill="#3b4845" d="M154.2 11.3l11-24.6 4.6 2-11 24.6z"/><ellipse cx="90" cy="117" fill="#664e0d" rx="14" ry="7"/><path fill="#221c11" d="M121.1 43.5L59.6 29.8l43.6 5.9 21.5 7.2z"/><path fill="#fff" d="M67 110l9 12-3-28z"/><path fill="#eee5cb" d="M65 62l19-1 5-24z"/><path fill="#ede1c8" d="M109 117l-14 17-15-2z"/><path fill="#917332" d="M64.3 147.2l10.4-4.2-4.1-24.4-1.5-1.2z"/><path fill="#bf9464" d="M94.4 54.6l-30.6 8.5L100.7 44l3.9 22.8z"/><path fill="#c28945" d="M168 44h3v45h-3z"/><path fill="#4b2703" d="M6.6 139l13.7-2.9 1 4.9-13.6 2.9z"/><path fill="#b67c34" d="M-16 22.8l48.2-.4-5.4-10.7-3.6-2.3z"/><path fill="#ecdfba" d="M128.2 62.2l-3.8 73.5 19.9 37.1L141 157z"/><path fill="#5a4011" d="M9.6 156.2L39 141.3l4.4 3.2-12.9 4.3z"/><path fill="#e6ecf7" d="M55.7 77.1l2.8 9.3-39.9-.7 25.8 15.9z"/><path fill="#d9b47e" d="M86 27.2l73.2 5.5-46.8 2.9h-9.6z"/><ellipse cx="124" cy="17" fill="#efffff" rx="90" ry="5"/><path fill="#876f3e" d="M35.9 61.3l31.9 24.4.5 56.9-1.7-50z"/><path fill="#bda367" d="M125.6 72.9l-21.4 26.9L87.3 87l28 38.8z"/><path fill="#fef5ed" d="M68.1 97.7v14l12.3-11.4-1-9.7z"/><path fill="#e8bf6f" d="M-6 35l47-7-32-5z"/><path fill="#dae6ce" d="M91 81l-1-10 22-11z"/><path fill="#001600" d="M72.7 69.6l1 2.8-12.4 4-1-2.8z"/><circle r="1" fill="#fbe9ab" transform="rotate(162.6 1.8 26.2) scale(15.90757 2.74646)"/><path d="M94.3 41L122 52.1l-.4.9L94 41.8z"/><path fill="#8f6c32" d="M14.4 116.2l-19.3-15.6 44.1-.4-25.2-20z"/><path fill="#d0ffff" d="M131.4 53.8l-.5 1-26.3-14.6.5-1z"/><path fill="#030000" d="M66.5-6.8L-11 12.6l-1.4-5.8L65-12.6z"/></g></svg>