<svg xmlns="http://www.w3.org/2000/svg" viewBox="0 0 300 199"><defs/><path fill="#3e2f26" d="M0 0h300v199H0z"/><g fill-opacity=".5" transform="translate(.6 .6) scale(1.17188)"><circle r="1" fill="#fff" transform="matrix(-9.59944 -105.86226 253.95804 -23.02856 146.4 34.4)"/><circle r="1" transform="matrix(-39.67154 -9.50696 25.73565 -107.3922 149.8 121.2)"/><circle r="1" fill="#fff" transform="matrix(-139.99502 178.39002 -48.2193 -37.84102 30.7 66)"/><circle r="1" fill="#fff" transform="rotate(-95.4 146.9 -75.2) scale(109.89977 35.29588)"/><ellipse cx="63" cy="118" fill="#232f3b" rx="26" ry="36"/><circle r="1" fill="#fff" transform="matrix(-34.06642 64.65869 -34.26986 -18.0556 31.5 51.6)"/><circle r="1" transform="rotate(-31.7 210 -149.3) scale(9.99812 63.24918)"/><path fill="#fff" d="M134 107l3-59-52-64zm22-88h17v33h-17z"/><path d="M141 50h48v39h-48z"/><path fill="#7d9fae" d="M210.5 112.8l38 20.2-15 28.2-38-20.2z"/><path fill="#95b4bf" d="M0 124h46v46H0z"/><circle r="1" fill="#ecffff" transform="matrix(-41.70082 .76556 -1.03026 -56.11953 243.4 62.2)"/><circle r="1" transform="matrix(7.53774 .85455 -4.21455 37.17539 117.5 110.3)"/><path fill="#fff" d="M124.7 67.4l-32 6.8L123 .2l16.5 111.1z"/><path fill="#abc1ca" d="M124.2 160l-12 7.3-4.8-16.4 26.2-14.5z"/><path fill="#260900" d="M152 36l-23.8-2 1.7-20 24 2z"/><circle r="1" transform="matrix(-34.21233 -8.08745 4.60474 -19.47944 79.4 159.7)"/><circle r="1" fill="#441300" transform="matrix(12.8856 -1.25864 1.31893 13.50284 87 49)"/><path fill="#070000" d="M225.5 125.6l-1.4 11-49.6-6.2 1.4-11z"/><path fill="#f6db8b" d="M144 123h20v22h-20z"/><path fill="#d7efff" d="M90 80h15v41H90z"/><path fill="#1d0e00" d="M172.1 86.7l.3-66.5 26.2-21.6-17.9 170.3z"/><circle r="1" fill="#f9ffff" transform="rotate(-147.9 28.9 14) scale(27.91827 106.84453)"/><path d="M176 167l77 4-28-15z"/><path fill="#c8e4f5" d="M208.8 149.2l62.2 28.1-10-21-61.1-25.8z"/><path d="M107 72h20v62h-20z"/><path fill="#0b0000" d="M146 67l19 48-24 12z"/><circle r="1" fill="#b0b6bb" transform="rotate(133.4 8.4 76) scale(12.63566 24.04575)"/><path fill="#e3ece9" d="M173.8 86.9l-1.6 23-10-.8 1.6-23z"/><path fill="#fff" d="M100 3h10v70h-10z"/><ellipse cx="196" cy="65" fill="#b5995e" rx="8" ry="57"/><path fill="#dcefe8" d="M218-16l-56 40 17-40z"/><path d="M35.7 112.1l17.1-14.8-5.9 63.5 66.5 24.2z"/><circle r="1" fill="#94a1a5" transform="matrix(-21.19035 -32.44947 14.55811 -9.50683 25 157.1)"/><path d="M156.5 151.7l13.8-22 49.2 30.6-13.8 22z"/><path fill="#e9f8f6" d="M157 26h15v25h-15z"/><path d="M156 51h34v34h-34z"/><path fill="#e3f7fd" d="M0 0h126v35H0z"/><circle r="1" fill="#fff" transform="rotate(-80.6 52.3 6.3) scale(19.62642 45.46843)"/><path d="M85 35h13v7H85z"/><path fill="#443d3b" d="M67.5 84.3L80 102.4l-3.9 22.7-18.5-30.4z"/><path fill="#2c3d45" d="M202.1 125l57.7 16.9 11.2 6.3-4.5 6.8z"/><path fill="#e3f3fc" d="M207-16l-9 119 73-14z"/><path fill="#a97d30" d="M134 32h6v79h-6z"/><path fill="#000001" d="M99.6 72.4l23.5 12.1-20.2 70.8 25.9-16.6z"/><path fill="#fff" d="M51 113l12-9-5 16z"/><path fill="#2a2517" d="M134.7 21.9L148 18l13.2 46.1L148 68z"/><path fill="#506a73" d="M151.3 92l.3-2.6-4.7-50 11.8 32.9z"/><path fill="#b5d0d7" d="M205.8 93l65.2 45.3-57.7-21.6-10.6 18z"/><path fill="#b0c0cc" d="M91.7 104.1L57.3 74.9l50.4 14.8.7 49z"/><path fill="#cad8ce" d="M158 23L102-3l45 7z"/><path fill="#e3d0a3" d="M150.2 123.2l23-2.4.6 6-23 2.4z"/><path fill="#342410" d="M153 80.5l-15.2 46 64.7-10.6-39.9-13.4z"/><path fill="#796c4b" d="M164.9 6.8l.9 31.5L144-16l-.1 17.4z"/><path fill="#a78f65" d="M190 53h12v73h-12z"/><circle r="1" transform="rotate(128.6 -2.3 101.5) scale(25.99006 27.9661)"/><path fill="#fff" d="M127 93l2-16 8 31z"/><path d="M164 161l-32-35-1 56z"/><path fill="#fdffff" d="M83.6 57.9L6.1 125.4l31-4.9L7.6 46.3z"/><path fill="#834e3a" d="M83 49h17v19H83z"/><path fill="#535356" d="M33.8 114l23.5-26 8.9 8-23.5 26z"/><path fill="#f8ffff" d="M116.2 11.4L53.5 27.1l46.2 10 36.4 45.1z"/><circle r="1" fill="#758083" transform="matrix(6.72167 6.48835 -10.26225 10.63128 120.6 153.5)"/><path fill="#0e1412" d="M206 123h15v11h-15z"/><path fill="#000519" d="M88 80l5-8 11 2z"/><path fill="#d2ac62" d="M129 25h6v28h-6z"/><path fill="#feffff" d="M129.2 64.5L88.7 74.8l7.1-6.1 32.1-45.4z"/><path fill="#c3dce7" d="M-16 61l24 79 4-156z"/><path fill="#c8d3d6" d="M47 131l-10-12 5 40z"/><path fill="#503c23" d="M197.7 37.1l-.1-32.7-22 9.8-1.4 37.5z"/><path fill="#7c7f86" d="M78 105h16v32H78z"/><path fill="#afbcbc" d="M125 130h8v6h-8z"/><ellipse cx="126" cy="115" rx="9" ry="15"/><circle cx="229" r="30" fill="#bcd8e5"/><path fill="#aa9b6c" d="M145.7 125.7l10.3.1 5.9 24.1-20-9z"/><path fill="#0e0b0e" d="M198 185l-1-44 74 42z"/><circle cx="166" cy="169" r="7" fill="#787479"/><circle r="1" fill="#c2d3d8" transform="matrix(-.23848 -8.03514 111.57298 -3.3114 62 .1)"/><circle cx="209" cy="140" r="7" fill="#d3d8de"/><ellipse cx="1" cy="169" fill="#8c9497" rx="47" ry="23"/><path fill="#e6f0f8" d="M99 78h5v22h-5z"/><path fill="#000008" d="M95.2 150l-81.4 35 86.4-16.4 36.1-53.3z"/><path fill="#d8f4ff" d="M252.6 148.2l1.8 21-7 .6-1.8-21z"/><ellipse cx="238" cy="149" fill="#718591" rx="9" ry="12"/><path fill="#faffff" d="M271 7l-22 100-5-82z"/><path d="M124 70h4v12h-4z"/><ellipse cx="139" cy="101" fill="#886938" rx="5" ry="24"/><path fill="#4e4438" d="M189.7 159.8l18.1-22.6-27.4-32.1 13.1 28.8z"/><circle r="1" fill="#a5bec9" transform="rotate(17.9 -272.5 825) scale(25.26916 11.19377)"/><ellipse cx="145" cy="70" rx="4" ry="19"/><circle r="1" fill="#2f231c" transform="matrix(-10.6849 -.8288 .48828 -6.29493 85 44.9)"/><path fill="#fff" d="M95 28L34 60 5 11z"/><path fill="#c8d1cf" d="M197 124h13l6-23z"/><circle r="1" fill="#edecdb" transform="matrix(-12.93858 8.2714 -4.28012 -6.6952 209.7 95.8)"/><path fill="#cbad7a" d="M133 6.5L129.5 58l5.2 47.9 3.4-4z"/><path fill="#eef6fa" d="M168 87h4v16h-4z"/><path fill="#8f614d" d="M114 68h11v8h-11z"/><ellipse cx="54" cy="151" rx="10" ry="17"/><path fill="#3d2d1a" d="M155 20l-24-7 23 50z"/></g></svg>