<svg xmlns="http://www.w3.org/2000/svg" viewBox="0 0 300 199"><defs/><path fill="#4e413c" d="M0 0h300v199H0z"/><g fill-opacity=".5" transform="translate(.6 .6) scale(1.17188)"><circle r="1" fill="#fff" transform="matrix(57.3226 -11.55826 21.56096 106.93044 57.4 96.4)"/><ellipse cx="224" cy="137" rx="65" ry="150"/><circle r="1" fill="#faf9fc" transform="matrix(11.35322 -37.60368 51.32902 15.49715 62.2 95.8)"/><circle r="1" fill="#e9d7d0" transform="rotate(8.3 -275.8 1062.1) scale(11.52789 52.98578)"/><ellipse cx="67" cy="25" fill="#9f8e7e" rx="119" ry="28"/><circle r="1" transform="matrix(-9.45302 -2.65648 5.00808 -17.82112 21.9 140)"/><ellipse cx="64" cy="168" fill="#f6fcff" rx="44" ry="16"/><circle cx="244" cy="105" r="73" fill="#010002"/><path fill="#524528" d="M-16-16h57l-57 118z"/><ellipse cx="147" cy="105" fill="#aebbbd" rx="9" ry="50"/><circle r="1" fill="#e2c3bb" transform="rotate(-170.8 23.6 20.5) scale(22.19509 41.32724)"/><circle r="1" fill="#2d1a1a" transform="matrix(12.29659 44.64248 -5.86976 1.6168 67.7 8.1)"/><path fill="#00000c" d="M128.9 48.4l11.6 32-25.4 9.2-11.6-32z"/><ellipse cx="132" cy="159" rx="11" ry="47"/><path fill="#000d22" d="M159 54l-19-19-31 30z"/><path fill="#a8b2b7" d="M-19 185.6L-5.8 79.4l24.8 3L6 188.6z"/><circle r="1" fill="#e0e8ef" transform="matrix(9.2278 38.19521 -9.51234 2.29814 93.7 64)"/><circle r="1" fill="#0d2c4a" transform="matrix(9.53312 -38.58728 21.60048 5.33647 174 90)"/><path fill="#cfb5ac" d="M118.2 108.8L62.9 141l-10 27 74.5-33.7z"/><path fill="#96614e" d="M62.8 159.5l13.4-1.8-25.4-29.2-23.1 11.1z"/><path fill="#fff" d="M141 60h11v29h-11z"/><path fill="#789a83" d="M122 89h42v21h-42z"/><circle r="1" fill="#c27e5e" transform="matrix(11.38027 2.43972 -4.63131 21.60314 65.4 60.7)"/><path fill="#00082b" d="M150 136h32v34h-32z"/><circle r="1" fill="#82938f" transform="rotate(63.1 46.1 87.3) scale(44.80197 27.24808)"/><path fill="#153738" d="M117 101h42v18h-42z"/><path fill="#7b7f76" d="M183-16l-22 51 24 18z"/><ellipse cx="155" cy="128" fill="#ffb8b5" rx="6" ry="8"/><path fill="#e1ecf0" d="M113.4 50.7L70.1 84.9l-52.3 17.6 58.7 24.6z"/><path fill="#2f2520" d="M16 179l-8-48 23 2z"/><path d="M141 5.2v-10l20-.4v10z"/><circle r="1" fill="#c5d9e1" transform="matrix(-6.18462 -1.02063 10.19203 -61.75973 24.7 67)"/><path fill="#000e1d" d="M119 105l-12-42 31-26z"/><circle r="1" fill="#ecfaff" transform="matrix(8.58834 -11.74978 10.44569 7.63513 88.3 162.8)"/><path fill="#f2dbd3" d="M162 50l-24-1v-5l24 1z"/><path fill="#fff" d="M142.7 145l3-.6 3.6 20.7-3 .5z"/><circle r="1" fill="#856f65" transform="rotate(93.1 -.3 38.3) scale(26.95391 3.59468)"/><path fill="#567f98" d="M127 125l-23 24 16 9z"/><path fill="#00000c" d="M111.2 167.9l65.7 17.1-35.7-24-1.2-23.8z"/><path fill="#c7c3ad" d="M147 80l13 16-44 3z"/><path fill="#d7e6f5" d="M154.6 78.6l2.9-21L137 62l7.4 33.9z"/><ellipse cx="147" cy="28" fill="#9f4c36" rx="10" ry="21"/><ellipse cx="166" cy="54" fill="#061524" rx="56" ry="4"/><path fill="#44434b" d="M81.6 56.6l-12.9-8.1 10.9-29L68.5-16z"/><ellipse cx="211" cy="45" fill="#515145" rx="3" ry="37"/><ellipse cx="199" cy="38" rx="16" ry="9"/><path fill="#041527" d="M117.3 49l19.8 13.9 3 19.5-22.7 13.5z"/><path fill="#cbd9e2" d="M29 145l-14 38 44-28z"/><circle r="1" fill="#a2675f" transform="rotate(64.6 -29.3 177) scale(16.1073 5.79206)"/><path fill="#d3d1d9" d="M96.8 139.3l-6.4-21 24.8-7.6 6.4 21z"/><path fill="#8c958f" d="M148.5 98.4l21.7 9.3-20.8.8 5.1-40.2z"/><circle cx="220" cy="153" r="40" fill="#200300"/><path fill="#051830" d="M154.3 85.4l12.7 22 .6-76.4-8.7 37.1z"/><path fill="#ef9980" d="M146 20h24v8h-24z"/><path fill="#332e23" d="M271 39L186-9l-2 38z"/><path fill="#1a0b00" d="M163 0h8v18h-8z"/><path d="M217 38h25v70h-25z"/><path fill="#a6aeb3" d="M124.7 185l-42.3-16.1 20.2 7.1-15.9-55.8z"/><path fill="#ddd6d6" d="M81.3 99L68.4 68.6 100.7 55l12.9 30.4z"/><path fill="#00030c" d="M125 114h10v56h-10z"/><path fill="#afbdc2" d="M-1.7 129.6l11-2.2L31 27.6l-11.5-.2z"/><path fill="#959c99" d="M106.3 69.3L67-16l47 68.1 5.7-20.7z"/><path fill="#051b31" d="M152 139l54-40-55 80z"/><path fill="#daa48c" d="M80.1 23.2l-30.7 3.2 36 46.8-36.7-4.7z"/><path fill="#2b3d3e" d="M156.1 96.8l-8.7 10.3 13.9-39.4-12.1 22.2z"/><path fill="#443833" d="M51-2l24-4-4 25z"/><path fill="#e5d9e2" d="M43 27h7v29h-7z"/><circle r="1" fill="#bf7d65" transform="rotate(55.5 -112.3 142) scale(7.03227 9.60008)"/><circle cy="155" r="4" fill="#fff4ff"/><path fill="#ffc1a5" d="M163 17l-2-11-16 3z"/><path fill="#a2b2b8" d="M30 119h23v15H30z"/><ellipse cx="166" cy="114" fill="#040e1e" rx="20" ry="6"/><path fill="#f1c5aa" d="M59.4 132.5l.6 17.4 50.8-25.9-30.5 24.5z"/><path fill="#f0c0ab" d="M37 3h21v16H37z"/><path fill="#6d6f68" d="M165 27h19v20h-19z"/><path fill="#542a24" d="M139 6h5v31h-5z"/><path fill="#e8f1f5" d="M60 86h29v30H60z"/><path fill="#271003" d="M23 121h6v19h-6z"/><path fill="#d6dee1" d="M34 23l-5 90-14-48z"/><path fill="#121a23" d="M10 185l14-31-14 2z"/><path fill="#646c6c" d="M43.8 133.5l-23.3 23.3-4.3-4.3 23.3-23.3z"/><path fill="#0c1e34" d="M194 63l-30 41-2-64z"/><path fill="#ffe5ea" d="M161 106h6v3h-6z"/><path fill="#8c9594" d="M20 32L33 7l-9 45z"/><path fill="#7d8c78" d="M136.1 92.1l-13.9-3.5 2.4 18.9 6 4.1z"/><ellipse cx="113" cy="5" fill="#797b70" rx="25" ry="46"/><path fill="#fbc0a0" d="M56 14h9v30h-9z"/><path fill="#00030e" d="M114 160h31v10h-31z"/><path fill="#0c1421" d="M149.7 151.1l11.1-20 3.8 53.9-18.8-29.9z"/><path fill="#364c23" d="M133 132h11v10h-11z"/><path fill="#daf3ff" d="M162 54.3l-2 .3-2-12.9 2-.3z"/><path fill="#080100" d="M203 34.2l-18.9 12.5 7.6 14.1 27.7 92.2z"/><path fill="#12243a" d="M201.7 114l-39.9 35.4 28.8-50.1 4.3-35z"/><path fill="#b6785a" d="M4.4 146.8l6.1-16.6-17.3 2.8-9.2 20.8z"/><path fill="#d8f2ff" d="M159.8 61.6l-1.5 3.7-12-4.9 1.4-3.7z"/><path fill="#182c18" d="M122 105.4l-6 1-2-11.8 6-1z"/><path fill="#d7e3df" d="M145 87l-14 13 11-3z"/><circle r="1" fill="#c2d3e2" transform="rotate(154.8 56 97) scale(1 8.83565)"/><path fill="#b2b9c1" d="M75.6 4.1v-16.7L83 8l6.7 13.4z"/><path fill="#d2d3d9" d="M152.8 90l-8.5.6-8.1-32.6 2.3-.7z"/></g></svg>