<svg xmlns="http://www.w3.org/2000/svg" viewBox="0 0 300 199"><defs/><path fill="#3b271f" d="M0 0h300v199H0z"/><g fill-opacity=".5" transform="translate(.6 .6) scale(1.17188)"><circle r="1" fill="#fff" transform="matrix(-106.18592 -36.35557 24.14227 -70.51381 48.3 47.6)"/><ellipse cx="60" cy="119" rx="32" ry="52"/><circle r="1" fill="#fff" transform="matrix(107.19851 -140.20984 38.40503 29.36286 19.3 36)"/><ellipse cx="239" cy="63" fill="#94969f" rx="34" ry="203"/><circle r="1" fill="#eef7f8" transform="matrix(29.13704 -13.71085 31.02984 65.94176 105.7 59.4)"/><circle r="1" transform="matrix(-8.44487 -27.44165 29.89496 -9.19985 59.5 98.6)"/><ellipse cx="111" cy="56" rx="6" ry="65"/><path fill="#fff" d="M0 4h31v121H0z"/><circle r="1" transform="matrix(15.35807 81.71233 -26.07905 4.90163 165 40.6)"/><circle r="1" fill="#998d80" transform="matrix(-17.27981 -11.0153 33.05393 -51.85207 123.8 135.6)"/><circle cx="61" cy="55" r="10"/><path fill="#fff" d="M117 0h17v104h-17z"/><ellipse cx="89" cy="42" fill="#fff" rx="18" ry="40"/><circle r="1" fill="#a49fa3" transform="matrix(5.55129 109.77853 -12.19563 .61671 223 131.6)"/><path fill="#2d2220" d="M268.6 170l-23.7 3.3L221.4 6 245 2.7z"/><path fill="#fff" d="M93 119.7L80.4-14.4l29.7 125.6 51.2 13.6z"/><path d="M32 76h55v94H32z"/><ellipse cx="177" cy="150" rx="18" ry="252"/><path fill="#fff" d="M0 5h105v40H0z"/><path fill="#2a0b00" d="M116.1 104.1l1.6-18.9-14.5 28.4 90.8-.3z"/><path fill="#fff" d="M0 4h29v120H0z"/><ellipse cx="31" cy="10" fill="#182c38" rx="2" ry="79"/><circle r="1" fill="#c1d3de" transform="matrix(-11.49754 11.70886 -4.5546 -4.4724 105.2 151.9)"/><ellipse cx="155" cy="66" fill="#824019" rx="13" ry="22"/><path fill="#828b94" d="M202.7 82.5L192 58.2l7.7 105.3.8-88.3z"/><path d="M68.8 48.1L77.6 185 52.4 50.9l6.8-5.8z"/><path fill="#fff" d="M54.1 74.1L37 76.7 35.8 2.2l12.4 11.7zM38 121l7-1-6-14z"/><path fill="#fcffff" d="M103 86L67 70l39-75z"/><ellipse cx="110" cy="42" fill="#1a1612" rx="4" ry="65"/><path fill="#29363f" d="M0 123h39v47H0z"/><path fill="#504845" d="M114 123h38v47h-38z"/><path fill="#edeaea" d="M114.2 54.4l29.4 7.9-13.9 40.7 29.4-8.4z"/><path fill="#0b0b0b" d="M29.4 113.3L72.9 167l64.9-45.8-111.1 22.5z"/><path fill="#fff" d="M83.3 113.7l1.4 7.9-4 .7-1.4-7.9z"/><path fill="#fbffff" d="M116 7h15v66h-15z"/><ellipse cx="212" cy="78" fill="#ceced0" rx="2" ry="66"/><path d="M173.8-16l-44.3 42L186 66.9l10.9-65.1zM91.9 106.2l-.3 26.7-48.7-57.6L46.3 178z"/><path fill="#fffff8" d="M93 115h52v7H93z"/><ellipse cx="175" cy="146" fill="#030000" rx="23" ry="22"/><circle r="1" fill="#100000" transform="matrix(-5.89546 -1.81368 3.84806 -12.50832 112.7 168.3)"/><path fill="#fff" d="M39 6h63v40H39z"/><circle r="1" fill="#697470" transform="rotate(1.7 44 2940.3) scale(51.88883 3.63192)"/><path d="M33 79h49v33H33z"/><path fill="#8b7c79" d="M253 185l-8-88 26 66z"/><circle r="1" fill="#646063" transform="matrix(5.87236 .5152 -5.66075 64.5226 223.8 22.2)"/><path d="M30 121l1-26 28-8z"/><ellipse cx="145" cy="108" fill="#3e1e06" rx="38" ry="4"/><path fill="#fdffff" d="M138.4 33.3l-3 26.2-8.1-47-10.1 21.6z"/><ellipse cx="204" cy="31" fill="#3a3d45" rx="6" ry="255"/><path fill="#652b08" d="M146 140l21-14-7-49z"/><path fill="#625d60" d="M183.8 185l-11.5-16.7-56.6 16.7 15.6-49.9z"/><path fill="#fff" d="M94.8 123.7L92.3 104l13-1.6 2.4 19.8z"/><path fill="#fbfdfe" d="M0 24h31v53H0z"/><path fill="#938274" d="M255.2 49.8l-18-44.5 17.6-7.1 18 44.5z"/><path fill="#380c00" d="M145 33h9v35h-9z"/><path fill="#576970" d="M48.1-2.4L12 1.9l.6-14 20 20.3z"/><path fill="#815a3d" d="M163 84l-2-43-18 50z"/><path d="M98 122l-43 60-26-59z"/><path fill="#292420" d="M110 19h6v90h-6z"/><path fill="#fff" d="M-4.1 98.8l31-1.6 1.2 24-31 1.6z"/><circle cx="59" cy="53" r="8"/><ellipse cx="32" cy="50" fill="#50606c" rx="2" ry="41"/><path fill="#9faab0" d="M94.6 185l-9.5-17.1 3.2-5.5 27.6-25z"/><path fill="#463e3c" d="M-16 123l43 1 16 35z"/><path fill="#302727" d="M239-6l-11 46 31 64z"/><path fill="#fff" d="M39.2 79.5l16.7-11.4-5.2-11.8-11.8-27.9z"/><path fill="#798382" d="M115.7-6.5l6.8 1.7-6.2 25.3-6.8-1.7z"/><path fill="#9f775b" d="M157.5 94.2l-4.5 19.6-9.5 26.8-.5-44.8z"/><ellipse cx="196" cy="88" fill="#959699" rx="2" ry="32"/><path fill="#0a0000" d="M165 0h29v168h-29z"/><path fill="#8c807f" d="M231 85l13 92-26-1z"/><path fill="#b5b0b2" d="M225 24h3v43h-3z"/><path d="M91 116l-3-30-37-14z"/><ellipse cx="130" cy="95" fill="#f8fcfd" rx="13" ry="9"/><path fill="#71503f" d="M139.6 61.9l6.8 20.1 12.3 9.2-19.8-51.9z"/><path fill="#f8f9f9" d="M71 16h36v57H71z"/><path fill="#fff" d="M40 114h4v9h-4zm97.1-64.2l5.6-6.6-12.3 14.7 12.8 25.3z"/><ellipse cx="106" cy="46" fill="#818589" rx="1" ry="53"/><path fill="#413734" d="M122.8 124.9L83 166.2l8.6-39 8.2-4.8z"/><path fill="#8e8c8f" d="M139.9 83.3l-1 .4-14.8-35 1-.4z"/><path fill="#565454" d="M131.8 30.2l-1.3 4.4 7.4-6.1-1.6-44.5z"/><path fill="#e9f1f9" d="M82 116h3v8h-3z"/><circle r="1" fill="#2f2728" transform="matrix(-6.42946 -64.44295 3.76543 -.37568 244.3 159.1)"/><path fill="#3e4146" d="M193.4 36h6l-.8 42h-6z"/><path fill="#746867" d="M217.6 169l2.1-81.1 18.7 89.2L208 185z"/><circle cx="96" cy="79" r="11" fill="#c6dbe4"/><path fill="#f8fcfd" d="M-4.3 123.5l30-3.8 7-33.3-48.7-5.6z"/><path fill="#874c3a" d="M65 57h6v13h-6z"/><path fill="#463c3a" d="M251.7 12.4L239.8-1.7l-15.6 21.2-10.6-24.3z"/><path fill="#dcecef" d="M112.7 11.8l19.4 15.4.9-27.9-.4 4.1z"/><circle r="1" fill="#a19da1" transform="matrix(8.52804 70.48348 -1.5191 .1838 234.6 121.2)"/><path fill="#010000" d="M128-15l69-1-9 100z"/><path fill="#0d0000" d="M194 114l-48 28 54 42z"/><path fill="#c8c8c6" d="M101 148l16-12-10 24z"/><path fill="#aba3a1" d="M144 78.3l17 20-29.4-25.8-.1 21.1z"/><path d="M40.1 125.7l34.6-51.3L85.6 185H43.1z"/><path fill="#3e1d0d" d="M177 162l4 23-37-43z"/></g></svg>