<svg xmlns="http://www.w3.org/2000/svg" viewBox="0 0 300 199"><defs/><path fill="#5b4c3a" d="M0 0h300v199H0z"/><g fill-opacity=".5" transform="translate(.6 .6) scale(1.17188)"><ellipse cx="108" cy="38" fill="#fff" rx="52" ry="230"/><circle r="1" fill="#fff" transform="matrix(3.83112 -81.55933 27.93087 1.312 240.3 41)"/><circle r="1" transform="matrix(41.71233 -21.86518 29.87614 56.99487 208.2 162.8)"/><circle r="1" fill="#d8ffff" transform="matrix(48.43804 .99528 -2.81455 136.97732 108 58.2)"/><circle r="1" transform="rotate(90.6 -43.8 60) scale(183.66465 23.44268)"/><circle r="1" fill="#dbfeff" transform="matrix(-30.11723 8.34856 -14.36733 -51.82981 247.6 68.6)"/><path fill="#b6cfd8" d="M52 0h167v27H52z"/><path d="M194 28l48 148-86 9z"/><ellipse cx="10" cy="61" rx="19" ry="255"/><path fill="#e6ffff" d="M166 91l14-9-8 32z"/><path fill="#3d6072" d="M159 179l-3-54-34 48z"/><ellipse cx="77" cy="138" fill="#e2f1ff" rx="13" ry="255"/><circle r="1" fill="#c3d4d9" transform="matrix(7.53084 1.48697 -6.16 31.19768 229.6 97)"/><circle r="1" fill="#000003" transform="matrix(-5.97931 31.20109 -72.04889 -13.8073 229.9 161.4)"/><path fill="#515349" d="M185 4l-30 12 5 66z"/><path fill="#a7989b" d="M172 38l10.8 59.8-20.7-48.7-2.1-16.2z"/><ellipse cx="58" cy="124" fill="#786e52" rx="5" ry="63"/><path fill="#d9eeff" d="M140 68h19v61h-19z"/><ellipse cx="133" cy="51" fill="#819ea6" rx="5" ry="90"/><path fill="#141013" d="M206 125l-32-89 40-15z"/><path fill="#00040f" d="M158 60h10v33h-10z"/><ellipse cx="241" cy="67" fill="#eaf5ff" rx="14" ry="28"/><path fill="#7b6f55" d="M55-11l11 173-30-83z"/><path fill="#ebf8ff" d="M69.2 179.3L65.6-16l-8.1 5.3 4.8 119.2z"/><path fill="#86a1a9" d="M271 5l-95 27 39-48z"/><circle r="1" fill="#000315" transform="rotate(101.4 41 144) scale(62.86381 23.20067)"/><path fill="#818e8e" d="M230 96h13v35h-13z"/><ellipse cx="140" cy="10" fill="#ecf6ff" rx="6" ry="63"/><path fill="#001e48" d="M177 123l-22 30 8-57z"/><path fill="#6d542e" d="M202 38h12v40h-12z"/><path fill="#354044" d="M144.5 137.9l7.3 27.8-11.5 19.3 1.8-39.7z"/><path fill="#000001" d="M271 143.1L223 185l34.4-59.4-30.6-4.8z"/><path fill="#95acba" d="M105.3 185L99.5-16l7.3 39.8 6.5 161.2z"/><path fill="#c2d7e6" d="M215.6 34.8L212 22.3l66.4-19 3.6 12.4z"/><path fill="#0d1824" d="M181.1 82.8L163.9 85 153.7 4.5 165.3 68z"/><ellipse cx="118" cy="127" fill="#dfedfb" rx="4" ry="124"/><path fill="#020000" d="M-15.9 187.3L-19-.7l35-.6 3.2 188z"/><path fill="#c4dae6" d="M271 118.3l-58.2-43 10.4 46.9 3.8-30.1z"/><path fill="#8c7978" d="M194.8 49.7l-17 28.6 7.1-.6 4.6-10.7z"/><path fill="#d2e1e1" d="M157 8h6v16h-6z"/><circle cx="174" cy="88" r="5" fill="#cbedff"/><path fill="#697d84" d="M214.4 4.9l15.9 11L271 3.5 253.1-16z"/><path fill="#8da2a8" d="M137.4 98.2l-8.5 86.8 28.2-58.2-2.6 52.2z"/><path fill="#332b21" d="M176 23l-19 14 12-24z"/><path fill="#a1b5c4" d="M263.4 18.7l3.4 17.7-46.2 9-3.4-17.8z"/><path fill="#8c8065" d="M50 7h8v74h-8z"/><path fill="#e2ecf5" d="M152.8 41.7L145 142.8l-3.9-65.9 4.8-72.5z"/><path fill="#a2a7a2" d="M169.5 47.3l4.6-11.1-10.5-.2 4.4 31.8z"/><path fill="#d8f1ff" d="M176.6 88.8l-3.3 15.6-5.9-1.2 3.3-15.6z"/><ellipse cx="232" cy="166" rx="75" ry="28"/><path fill="#a6b0ac" d="M237.5 15.6L186.3 11l50.1-27-65.2 49.6z"/><path fill="#001731" d="M173 72l-11 32 1-36z"/><circle r="1" fill="#9698a5" transform="rotate(-167.6 125.7 52) scale(14.8056 1)"/><path fill="#5e727b" d="M159.3 76.7l.3 22.5-17.5 77.2 24.1-86z"/><path fill="#7d97af" d="M271 105l-34 7 27 17z"/><path fill="#93acaf" d="M123.3 39.5l-5.5-51.7 13-1.3 5.4 51.7z"/><ellipse cx="37" cy="100" fill="#453724" rx="4" ry="142"/><path fill="#1e130d" d="M172 32h22v17h-22z"/><ellipse cx="248" cy="66" fill="#f4fbff" rx="5" ry="29"/><path fill="#543527" d="M184.1 73.2l-12.9-2.3 2.8-8.7 37.8-20.5z"/><path fill="#c6d9e1" d="M113.3 163.8l-4.6-65.9 24-1.7 4.6 65.9z"/><ellipse cx="92" cy="39" fill="#bdd1db" rx="9" ry="123"/><path fill="#000b18" d="M188 171l-13-72 23-43z"/><path fill="#a4634f" d="M170 48h10v20h-10z"/><path fill="#90a7b4" d="M152 116h6v21h-6z"/><path fill="#402d10" d="M157 24h3v36h-3z"/><ellipse cx="241" cy="71" fill="#acbfcc" rx="2" ry="49"/><ellipse cx="164" cy="25" fill="#3e4642" rx="2" ry="29"/><path fill="#98a3b7" d="M187.6 71.6l-3.5 8.3-3.7-1.5 3.5-8.3z"/><circle cx="232" cy="99" r="5" fill="#bc9b59"/><ellipse cx="61" cy="16" fill="#ecf8ff" rx="3" ry="44"/><path fill="#d8e6ed" d="M67 96h26v74H67z"/><ellipse cx="133" cy="65" fill="#8ea7a9" rx="4" ry="51"/><path fill="#bbabaa" d="M173 74h13v4h-13z"/><path fill="#fff" d="M218.7 93h-1l-2.4-46h1z"/><path fill="#93a6ac" d="M98.5-15l-1.3 28.7 8.1-18.9 1.9 73.1z"/><path fill="#d2e0e7" d="M145.5 8.3l-5 135.2 19.3-46.8-5.9-64.1z"/><path fill="#8e8d60" d="M167.4 20.2l-.3-8.7-6.3.5 49.1-14.5z"/><path fill="#b0c1d3" d="M271 123.8L261.1-16l-8.4 85-4.8 42.3z"/><path fill="#545e62" d="M141.3 141.5l18.7 11.1-4.2 29.4-12.8-.2z"/><circle r="1" fill="#1c1207" transform="rotate(56.3 -130.7 103.8) scale(25.42894 8.67888)"/><path fill="#e8f3fa" d="M114 0h4v57h-4z"/><path fill="#1c1e1e" d="M220 121.2l.2-1 29.8 8.6-.2 1z"/><ellipse cx="26" cy="56" fill="#2a1b0d" rx="6" ry="92"/><circle r="1" fill="#685d48" transform="matrix(6.42033 44.55401 -11.0471 1.59191 53.5 147.2)"/><path fill="#a2b9cd" d="M229 59l-10 33V34z"/><path fill="#91a29f" d="M161.8 59.4l1.4-13 1 .2-1.4 13z"/><path fill="#3d3c37" d="M239.5 101.3l-11.6 12.5 8.5 49.5-7.6-53.8z"/><path d="M162 63h6v17h-6z"/><path fill="#000917" d="M176.7 80.1l4.8-3.3 35.8 19.3 3.5 35.5z"/><path fill="#b0c7cd" d="M133.4 94l-10 .7L116.7-4l10-.7z"/><path fill="#0c2e4f" d="M161 83h6v44h-6z"/><path fill="#becabf" d="M167.3 33.6l5-.2.4 11-5 .2z"/><path fill="#453828" d="M191 36h22v23h-22z"/><path fill="#09131e" d="M182.7 164.9l-31.9-18.5 2.7 1.8 30.5-44.7z"/><path fill="#a5b8be" d="M223 118l-4-13 36 4z"/><path fill="#787b71" d="M204.4 8L179 31.8l-13.5 7 17.3-22.7z"/><path fill="#f5fdff" d="M231 43h4v53h-4z"/><path fill="#182533" d="M259.3 147.2l-5-26-2 4.3-10.4-6.7z"/><path fill="#f6d8c9" d="M167 55v-5h8z"/></g></svg>