<svg xmlns="http://www.w3.org/2000/svg" viewBox="0 0 300 199"><defs/><path fill="#3c3c3c" d="M0 0h300v199H0z"/><g fill-opacity=".5" transform="translate(.6 .6) scale(1.17188)"><circle r="1" fill="#fff" transform="matrix(-30.95046 -105.16063 49.11765 -14.45611 73.3 30.9)"/><circle r="1" transform="matrix(-16.06106 -134.30808 77.49572 -9.26722 202.7 87)"/><circle r="1" fill="#f7f7f7" transform="matrix(-33.68405 -21.51335 34.36837 -53.81151 80.8 29.1)"/><circle r="1" transform="matrix(221.12439 97.0561 -14.64202 33.35913 38.5 144.6)"/><path fill="#8c8c8c" d="M44 86h84v60H44z"/><circle r="1" transform="matrix(-62.80187 -22.62174 39.61583 -109.98041 203.4 99)"/><path d="M11.3-44.6L26.6 174l-38 2.7L-26.5-42z"/><path fill="#171717" d="M95 66h12v69H95z"/><ellipse cx="23" cy="72" fill="#f0f0f0" rx="4" ry="34"/><path fill="#fff" d="M47.4 114.7l-1.6-12.9 36.8-4.5 1.6 12.9z"/><circle r="1" fill="#737373" transform="matrix(.03854 -7.3605 38.03163 .19913 86.5 35.3)"/><circle r="1" fill="#fff" transform="matrix(-19.3682 -10.01827 9.89437 -19.12866 69.6 68.8)"/><circle r="1" fill="#ababab" transform="matrix(4.86962 6.36645 -9.80713 7.50134 157.1 27.2)"/><path fill="#fbfbfb" d="M58.8-6.2L61 27.7l-35.9 2.5L23-3.7z"/><path d="M59 117h25v53H59z"/><path fill="#b3b3b3" d="M104 78h24v64h-24z"/><path d="M26 85.8L69.6 185 24.2 43l9.3 2.4z"/><path fill="#424242" d="M44.2 17.9l6.7 91.2-12.7-74.7 6.2 11.2z"/><path fill="#ededed" d="M109 40h14v46h-14z"/><path fill="#c6c6c6" d="M42 126l-6 7 28 6z"/><circle r="1" transform="matrix(4.92655 -16.98012 127.94022 37.1201 70.9 161.8)"/><circle r="1" transform="matrix(-45.67962 24.69581 -40.74538 -75.36637 189.8 114.8)"/><path fill="#ededed" d="M33 9h94v21H33z"/><circle r="1" transform="matrix(-10.33497 1.03157 -14.23867 -142.6531 7 43.3)"/><ellipse cx="84" fill="#929292" rx="50" ry="8"/><path fill="#939393" d="M94.9 150.5l-13.2-2.8 6.7-23.6 20 25.1z"/><path fill="#2e2e2e" d="M108 56L88 83l20 7z"/><ellipse cx="20" cy="46" fill="#b9b9b9" rx="3" ry="24"/><path d="M123 44h8v33h-8z"/><ellipse cx="224" cy="73" fill="#595959" rx="2" ry="72"/><circle r="1" transform="matrix(-40.89906 10.27313 -3.3212 -13.22228 166.8 1.4)"/><path fill="#fff" d="M114.9 62.3l-15-1.6 1.2-11 15 1.6z"/><ellipse cx="93" cy="31" fill="#3b3b3b" rx="55" ry="2"/><circle r="1" fill="#151515" transform="matrix(9.66783 24.00241 -3.2822 1.32203 35.5 81.1)"/><path fill="#f8f8f8" d="M99.1 68.9L61.6 86.6 52 98.2l-5.4-56.5z"/><ellipse cx="34" cy="19" fill="#d3d3d3" rx="12" ry="28"/><path d="M48 76.4l-5-34.7 1-.1 5 34.7z"/><path fill="#a7a7a7" d="M22.1 113.4l7.6-4.4-10.4-53.5L29.6 88z"/><circle r="1" transform="rotate(174.4 60 87.6) scale(44.45023 25.22196)"/><path d="M24.6 48.5l5.9 64.7-8.5 25.6 25.2-16.9z"/><path fill="#3f3f3f" d="M115 84h11v9h-11z"/><path fill="#fff" d="M128.8 91.3l.4 11-10 .4-.4-11z"/><ellipse cx="253" cy="67" rx="17" ry="146"/><path fill="#0f0f0f" d="M74 117.5l-6-9.5-1.1 67.6-5-63.9z"/><path fill="#d7d7d7" d="M80.6 104.4l-14.3 14.8 9.9 1.6 12.7-14.9z"/><path fill="#858585" d="M77.8 124.8l-25.4 15.5.8-22.4 17 21.6z"/><path fill="#909090" d="M164 15h4v20h-4z"/><path fill="#c1c1c1" d="M127 43l-20 3 19-17z"/><path fill="#7f7f7f" d="M95 44h3v42h-3z"/><circle r="1" fill="#828282" transform="matrix(-3.49381 -31.60602 3.62974 -.40124 21.2 31)"/><circle r="1" transform="matrix(-27.86325 3.02692 -7.54306 -69.43505 194.8 3.5)"/><path d="M26 45h5v12h-5z"/><path fill="#868686" d="M40 147h13v4H40z"/><path fill="#7a7a7a" d="M101 102h10v46h-10z"/><path fill="#434343" d="M95.7 150.6l-4.5-49.2 16.2-42.1-7.9 86.5z"/><path fill="#f2f2f2" d="M88.4 103.7l-42.6-1.5 13.9 17.5.2-12.6z"/><path fill="#d5d5d5" d="M128 116v18l-9-32z"/><path fill="#9b9b9b" d="M72 101l29-18-57 3z"/><path fill="#202020" d="M84.3 98.3L89 83.2l-4.5 3.2 1.8 29.9z"/><path fill="#f9f9f9" d="M93.2 47.9l-16.7.5 6.4 37.5L96 71.7z"/><circle r="1" fill="#afafaf" transform="rotate(-8.2 447.8 -255) scale(3.82423 41.19667)"/><path fill="#040404" d="M102.7 62l7.3 3-4.7 11-7.3-3z"/><ellipse cx="116" cy="59" fill="#888" rx="2" ry="27"/><ellipse cx="3" cy="65" rx="14" ry="112"/><ellipse cx="223" cy="169" fill="#777" rx="1" ry="58"/><path fill="#eaeaea" d="M106.1 60.9l19.4 25.6 1.9-5.5-34-39.6z"/><path fill="#aeaeae" d="M87 85h7v66h-7z"/><ellipse cx="48" cy="80" rx="1" ry="13"/><ellipse cx="224" cy="33" fill="#878787" rx="1" ry="49"/><path fill="#c9c9c9" d="M20 49h6v36h-6z"/><path fill="#c7c7c7" d="M24 32h45v10H24z"/><path fill="#121212" d="M150 12l-24 1 8 51z"/><path fill="#9f9f9f" d="M23-16h144L115 9z"/><path fill="#040404" d="M125 103h131v10H125z"/><path d="M225 8h3v157h-3z"/><path fill="#b4b4b4" d="M71 47h3v51h-3z"/><path fill="#cbcbcb" d="M46.6 96.6L28.3 56.8l8.4-1.9-11-28.1z"/><path fill="#1d1d1d" d="M52 99.2l-1 .2-5-30.6 1-.2z"/><circle cx="42" cy="132" r="5" fill="#a3a3a3"/><path fill="#070707" d="M76.7 144.9l-16.7-13-.3 18.6-59.8-20.9z"/><path fill="#d2d2d2" d="M54.2 129l2.6-50h1l-2.6 50z"/><path fill="#353535" d="M81.6 157.6l6-76.1-5.1 84.8-37.8 8.1z"/><ellipse cx="79" cy="31" fill="#1c1c1c" rx="28" ry="1"/><path fill="#767676" d="M170 13l-23 9v16z"/><path fill="#e5e5e5" d="M91 83l-1 12 5-13z"/><path fill="#fbfbfb" d="M70.5 112.8l4.6-13.2 10.4 3.6-4.6 13.2z"/><path fill="#242424" d="M88.1 83l-5.2 18.3-1-.3 5.2-18.3z"/><path fill="#030303" d="M222.1 137.3l-97.5-10.8 8.5 11.9L43 185z"/><path fill="#ececec" d="M36 7h47v21H36z"/><path fill="#090909" d="M70.8 127.4l-33.3-10L51.1 129l9-12.7z"/><ellipse cx="69" cy="116" fill="#282828" rx="2" ry="9"/><circle cx="125" cy="81" r="3" fill="#fff"/><path fill="#707070" d="M69 115h9v19h-9z"/><path fill="#f6f6f6" d="M119.2 40l5.6 39.7-2 .2-5.6-39.6z"/><path d="M24.8 41.3l2-.4 2.4 13.8-2 .4z"/><path fill="#a5a5a5" d="M51 86h33v15H51z"/><path fill="#6c6c6c" d="M98.9 72.5l35.8 43.2-34.4-31.6 15.9 8.8z"/><path fill="#d4d4d4" d="M98 9h27v22H98z"/><path fill="#767676" d="M45 124l4 13 15 1z"/><path fill="#797979" d="M113.8 109.5l-24.6.3 9.9-53.6L96 92.6z"/></g></svg>