<svg xmlns="http://www.w3.org/2000/svg" viewBox="0 0 300 199"><defs/><path fill="#633c40" d="M0 0h300v199H0z"/><g fill-opacity=".5" transform="translate(.6 .6) scale(1.17188)"><circle r="1" fill="#e9ddd3" transform="matrix(128.65454 -220.16587 70.0366 40.92608 125.3 98.8)"/><circle r="1" transform="rotate(101.4 89.2 125.5) scale(21.16871 44.86306)"/><circle r="1" transform="matrix(-25.9274 48.42512 -24.95937 -13.36355 17 90.8)"/><circle cx="126" cy="48" r="44" fill="#f6eed1"/><circle r="1" fill="#846699" transform="rotate(-13 680.2 -729.9) scale(79.41156 42.73709)"/><ellipse cx="28" cy="161" fill="#ecffff" rx="30" ry="29"/><circle r="1" transform="rotate(-172.5 106.1 -7) scale(15.33342 34.86195)"/><ellipse cy="45" fill="#ffffd8" rx="12" ry="26"/><ellipse cx="69" cy="96" fill="#d0865a" rx="24" ry="75"/><circle r="1" fill="#cbabd6" transform="matrix(-65.39035 -36.3958 7.614 -13.67965 222.5 106)"/><circle r="1" fill="#422c3d" transform="matrix(-6.07175 -53.56782 18.53798 -2.10123 173.2 148.3)"/><path fill="#ffffce" d="M226 38l4-54 41 63z"/><circle r="1" fill="#ffebd9" transform="matrix(22.26222 7.6655 -4.10336 11.91703 74.6 38.9)"/><circle r="1" fill="#773d1a" transform="matrix(11.62956 -29.3304 20.8968 8.28562 55.9 109)"/><path fill="#ffffe7" d="M88 10h106v19H88z"/><circle r="1" fill="#cca6b1" transform="rotate(131 35 80.6) scale(122.43038 13.39862)"/><ellipse cx="60" fill="#29555f" rx="113" ry="10"/><ellipse cx="212" cy="159" fill="#bdc0dc" rx="40" ry="5"/><path fill="#000c02" d="M11 13h28v109H11z"/><path fill="#2d261a" d="M142 64l92-28 37 47z"/><path fill="#100000" d="M82.6 70.1l22.1-11.2-25-1.9-15.9 9.6z"/><path fill="#dacae2" d="M110 126h131v6H110z"/><path fill="#010825" d="M110 165h146v5H110z"/><ellipse cx="206" cy="136" fill="#020821" rx="44" ry="4"/><path fill="#370004" d="M155 117h77v5h-77z"/><path fill="#b9c1cb" d="M39 0h62v5H39z"/><path fill="#d6caa1" d="M-3.9 105.8l17.3-75.9 6.9-19.3L-16 45.2z"/><circle cx="168" cy="29" r="28" fill="#d5c892"/><path fill="#cbe8ff" d="M73 185l-43-63-40 37z"/><path fill="#865439" d="M35.1 59l48.1 93.6-57.7-80.8-1-7.2z"/><circle r="1" fill="#26200b" transform="matrix(16.40445 8.53962 -3.35814 6.45093 71.2 17)"/><path fill="#150327" d="M168 104h47v5h-47z"/><path fill="#400f1a" d="M109 149h147v5H109z"/><path fill="#d8adc9" d="M189 139h43v7h-43z"/><path fill="#000b1d" d="M-11.2 21.6l-2.6-36.9 33-2.3 2.6 36.9z"/><path fill="#9f4833" d="M62.2 75.9L99 122l8.2-26.5-1.7 8.8z"/><circle r="1" fill="#142325" transform="matrix(32.1997 -1.73348 .15392 2.85914 146 2.3)"/><circle r="1" transform="matrix(27.40918 -28.86676 12.453 11.82421 7.4 118.8)"/><path fill="#f3ece4" d="M136.4 5.5L56.1 40.6l75.3-10.2 57-25.3z"/><circle r="1" fill="#ffcbb5" transform="matrix(-27.29499 -4.22549 .84057 -5.42975 77.9 74.4)"/><path fill="#f1c2ac" d="M99 116l-17 63-7-69z"/><path fill="#bc9dcf" d="M106 79h43v43h-43z"/><path fill="#ffffc2" d="M224 18l14-34 13 63z"/><path fill="#d3bfda" d="M134.5 162.3l-40.3 2.3 32.3-13.6 36.3 18.4z"/><path fill="#2d3d3c" d="M198 0h27v37h-27z"/><path fill="#3a273a" d="M178.5 139.5l-66.5-4.7 82.3 18.3-45.2 14.6z"/><circle cx="255" cy="84" r="21" fill="#0b190c"/><ellipse cx="182" cy="162" fill="#d4bfd7" rx="14" ry="4"/><ellipse cx="203" cy="126" fill="#c9d1e6" rx="31" ry="3"/><ellipse cx="152" cy="116" fill="#a07c95" rx="7" ry="72"/><path fill="#c1aacc" d="M210.2 98.7l-38.9 7.2.3-57.4-31 44.6z"/><ellipse cx="254" fill="#8d825f" rx="6" ry="53"/><path fill="#603046" d="M147.5 88.9l24.8 37.4-47.8-6.3 44.4 16.5z"/><path fill="#f9cbb5" d="M51 62l14-36 49 10z"/><path fill="#3b141c" d="M156.8 162.1l80.7-17.6-87.9 11.1 30.3 29.4z"/><path fill="#744d3a" d="M200 36l-33 31 40 6z"/><path fill="#cbb887" d="M202.8 11.7l-9.4-14.4-85.6 78.6 70-18.8z"/><circle r="1" fill="#c8accf" transform="matrix(-30.81405 -19.78227 4.23713 -6.6 222.4 96.2)"/><path fill="#e5bed7" d="M115 142l26-4 20 14z"/><path fill="#d9a389" d="M72 180l-47-63 67 42z"/><path fill="#e6dec4" d="M-16 68.4V31L9.3 20.7l7.5 2.6z"/><path fill="#e3d9ef" d="M112 129h41v6h-41z"/><path fill="#d19cb6" d="M206.2 113.5l-39.7 5-.7-6 39.7-5z"/><path fill="#111028" d="M202 162h39v8h-39z"/><path fill="#1c0f08" d="M72 55h15v12H72z"/><ellipse cx="232" cy="57" fill="#212121" rx="26" ry="17"/><path fill="#222116" d="M71.1 1.4L8 41.8l13.8 65.9L2 65.8z"/><circle r="1" fill="#52a1c8" transform="matrix(4.66256 3.78916 -6.54457 8.0531 108.2 87.4)"/><path fill="#ffd0bb" d="M89 58h6v14h-6z"/><ellipse cx="177" cy="94" fill="#91425d" rx="30" ry="3"/><path fill="#6d7b7c" d="M140 69.9l32.5 1.8-5.7-20.6-1-.1z"/><path fill="#1f0b0c" d="M95 55h5v12h-5z"/><path fill="#ecfaff" d="M89.6 119l-6.4.6-10.8-4.8 17-2.7z"/><path fill="#64554b" d="M29 5h86v6H29z"/><path fill="#ddcaa2" d="M105.7 80.4l-15.2 38.9 20.2-87.8 55.6 11.9z"/><path fill="#957f50" d="M-16 48l16 63 7-23z"/><circle r="1" fill="#8d5b83" transform="matrix(-4.33111 -4.74317 17.8701 -16.31764 103.5 151.7)"/><path fill="#000403" d="M16 45l25 61-44 41z"/><path fill="#decbde" d="M119 104l30-2 12 11z"/><path fill="#845877" d="M229 108l42 23-46-8z"/><path fill="#beaa85" d="M209.4 27l8.8-1.8 2.4 11.7-8.8 1.9z"/><circle r="1" fill="#d8bcdf" transform="rotate(-171.3 91.2 32) scale(28.1772 6.04122)"/><path fill="#2a271a" d="M46 82L13 11l42 33z"/><circle r="1" fill="#664666" transform="matrix(.12955 -2.07589 16.33115 1.01918 137.8 113.2)"/><path fill="#2c3c41" d="M101.7 8.7l32.7-18.3 83.2 8.9-73.9 5.1z"/><path fill="#8a543f" d="M62 145.2L46.7 98.3l48.1 4.5 2.1-26.1z"/><ellipse cx="190" cy="144" fill="#c192a8" rx="22" ry="3"/><path fill="#ced4dd" d="M236.9 39.4l-28-.8 29.4-5.2L271 54.7z"/><path fill="#dc9467" d="M51 54h12v44H51z"/><ellipse cx="101" cy="124" fill="#b47081" rx="21" ry="7"/><path fill="#54334a" d="M159.6 134.2l15.5-16.4-32.2-16.7 21-8.6z"/><path fill="#28203e" d="M164.5 148.2l-32-11.6 1-2.8 32 11.6z"/><path fill="#d18761" d="M34 81l-7-9 4-9z"/><path fill="#e1ebf8" d="M40 147l-11-29-16 34z"/><circle r="1" fill="#c5a1bd" transform="matrix(-24.48514 -4.90875 .57795 -2.88287 226.9 116.3)"/><path fill="#d4a8b6" d="M63.2 163.6l15.1-8.4 69.5-9.8-21.1-5.3z"/><path fill="#ffffc9" d="M229 6h19v18h-19z"/><path fill="#191228" d="M162 134h37v7h-37z"/><path fill="#2c233a" d="M271 171.1l-32.7 8.9 32.7-27-50.9-8.2z"/><path fill="#5c4232" d="M88 13v18L55-3z"/></g></svg>