<svg xmlns="http://www.w3.org/2000/svg" viewBox="0 0 300 199"><defs/><path fill="#5b3b35" d="M0 0h300v199H0z"/><g fill-opacity=".5" transform="translate(.6 .6) scale(1.17188)"><circle r="1" fill="#ffd3b5" transform="matrix(-36.51113 -13.43348 20.7634 -56.43326 66.3 88.4)"/><ellipse cx="209" cy="97" fill="#c9bc7e" rx="40" ry="70"/><path fill="#fffde4" d="M47 101l-63 81 117-72z"/><path d="M25.6 168.6l111-75 49.8 73.8-111 75zm-38.3-34.8l56.3-58.2 15 14.6-56.2 58.2z"/><ellipse cx="160" cy="51" rx="22" ry="56"/><path fill="#ffe4c3" d="M-24.9 73.9L71 53.5l3.9 18.6L-21 92.5z"/><circle r="1" fill="#010000" transform="matrix(58.53488 -13.78913 6.343 26.92605 45 13)"/><circle r="1" fill="#5f84a2" transform="rotate(-175.3 105 1.3) scale(36.28972 54.038)"/><path d="M209.9 71.6l-60.2 22.2 12.6-32.5 108.3-4.2zM102 65h23v105h-23zM31 75l35 12-82 62z"/><path d="M245 0h11v64h-11zM105 124l158 61-238-17z"/><circle r="1" fill="#cda462" transform="matrix(-21.91677 -8.89948 15.2833 -37.63822 191.4 112.6)"/><path fill="#ffd8c0" d="M33 113L8 185l92-108z"/><circle r="1" transform="matrix(-4.96982 1.84826 -13.59316 -36.55091 232 22.3)"/><circle r="1" transform="matrix(-21.6137 -42.41929 17.56929 -8.952 151.7 8)"/><ellipse cx="239" cy="12" fill="#f9ffff" rx="4" ry="17"/><path fill="#f1aa8f" d="M96.7 32.5l18.4 21.2-15.8 13.8-18.4-21.2z"/><ellipse cx="34" cy="75" fill="#f9b7a0" rx="45" ry="10"/><path fill="#ffbc9c" d="M92 130l16-40-52 40z"/><ellipse cx="239" cy="79" fill="#cfab6c" rx="45" ry="13"/><path fill="#422732" d="M95 68l60-48-6 165z"/><path fill="#bf9956" d="M213.1 120.9l-21 32.1 39.6 25.5 19.4-53.3z"/><path d="M237 172l18.7-61.2L273 116l-18.7 61.2z"/><circle cx="10" cy="32" r="34" fill="#24150c"/><path fill="#b4b6c6" d="M226 30.8l4.2 19.6-32.3 6.8-4.1-19.6z"/><path fill="#fcd9c9" d="M25.3 127l-13.6 14.4 12.8 10.2 68.3-75.2z"/><path fill="#190a09" d="M56 19h59v16H56z"/><circle r="1" fill="#8e5835" transform="rotate(-22.3 385.7 -90.3) scale(30.29287 7.09656)"/><path fill="#835d2a" d="M267 65l-3 47-82 13z"/><path fill="#4a1000" d="M97.8 68L87.1 84.4l-5.9-10.2L99 63.1z"/><path fill="#000207" d="M259.6.7l-32.4 61.9 34.9 4.9 8.9-23z"/><path d="M156 96l62-33-61 8zM55 88l-71 80 27-71z"/><path fill="#d29674" d="M68 33l-84 63 65-18z"/><path fill="#cfad79" d="M168 91l64-27-62 56z"/><path fill="#f5b19b" d="M69.1 33.5l33.2 1.9-52.9 16.4-3-6.5z"/><path fill="#301a1d" d="M95.8 64.4l-19.1-11 95.9 58.3-50.6 45z"/><circle r="1" fill="#727d70" transform="matrix(-2.96526 -21.36946 14.9432 -2.07354 12.6 163)"/><path fill="#790a00" d="M88 106l-14 6 19-21z"/><circle r="1" fill="#8e351a" transform="rotate(-165.2 45.8 16.6) scale(16.05775 2.13018)"/><path fill="#6e7686" d="M177 0h12v65h-12z"/><ellipse cx="98" cy="93" fill="#ffd9b6" rx="5" ry="16"/><path fill="#784928" d="M-16 113.9l12.8-16.5 41.7-24.1 8.1 10.6z"/><path fill="#ffe1f8" d="M74.4 75.8l-15.1 9.6-7.4-9.9 12.4-13.1z"/><path fill="#8a8e97" d="M242 50.7l-24.6-35.6-29.3 50.8 38.1-9.7z"/><circle r="1" transform="rotate(84.1 -54.6 127.7) scale(26.29658 45.47833)"/><path d="M224 0h9v25h-9z"/><circle r="1" fill="#4e3039" transform="matrix(-24.15492 -34.24906 16.02918 -11.30494 127.2 37.1)"/><path d="M175 85l-3-101-25 49z"/><path fill="#e6c4a1" d="M-16 79.8l59.7-8.5-1.2-17-15.7 7z"/><path fill="#090100" d="M105.8 90.2L91.4 63.5 111.8 80 88 181.6z"/><path fill="#3c3c42" d="M196.5-5.2L175 56l-2.3-19.1 37.1-2.8z"/><path fill="#ffe8e2" d="M96.4 55.2L72.6 48l7.9-5.3 7 5.5z"/><path d="M153.3 168l9.3-21.1 52.1 23.2-9.3 21z"/><path fill="#8b422f" d="M60 62l-22 1 11-9z"/><path fill="#fff2ff" d="M96.1 42.6l-4.9-3.7 4.4-5.4 7.2 8.9z"/><circle r="1" fill="#ce9670" transform="matrix(3.62523 3.74095 -21.3222 20.66265 41.2 146.3)"/><circle r="1" fill="#9c2514" transform="rotate(-33 179.4 -80.7) scale(6.45881 5.42433)"/><circle r="1" fill="#472f2d" transform="matrix(-17.68929 -6.90152 12.98232 -33.27498 34.2 4.2)"/><path fill="#b6c0c4" d="M245.5 26.9l2 2.3-13.7-44.9 1.7 40.7z"/><path d="M258.9 70.5l-13.1-52.6-9.3-33.9h21.6z"/><path fill="#f8ccbe" d="M17 148l85.8-67.3L51.9 100l-13.7 8.9z"/><circle r="1" fill="#040601" transform="matrix(5.68422 -23.14201 12.12391 2.97792 1.8 40.7)"/><path fill="#482d32" d="M154.6 75.7l-6.1-56-44.6 45.4 59.9 90.7z"/><path fill="#ac4d35" d="M50.2 54.9l11.4-3.4 12.7-9.6 1.7 14z"/><path fill="#f2ffff" d="M10 71l-26 6L1 65z"/><path fill="#7f5f33" d="M228 108l33-37-23 89z"/><path fill="#8c9197" d="M205.8-6l12-1.7 4.4 31.7-12 1.7z"/><path fill="#5c301e" d="M106.3 60.8L78.8 38 108 52.3l.6 70.8z"/><path d="M-1 126l44-45 14 15z"/><path fill="#dba789" d="M94 48h11v20H94z"/><path fill="#160a00" d="M152.4-24l16.5 29.7L135.6 24 119.1-5.7z"/><path d="M253 143.5L242.6 185h-14.7l37.8-76.8z"/><path fill="#e7c3af" d="M18.2 131.6l80.6-23.2L8.1 142l2.9-2z"/><path d="M105 102l-25 64 54 19zm54-82h7v95h-7z"/><path fill="#93a1ae" d="M185-16h-14l15 48z"/><path fill="#a88655" d="M173 144l98-80-104 45z"/><path fill="#76623d" d="M241.6 190.1l22-71.7 4.8 1.5-22 71.7z"/><path fill="#ffbb9e" d="M91 84l-19 30 7-39z"/><ellipse cx="92" cy="15" fill="#362026" rx="16" ry="21"/><path d="M3 115l-2 32 49-51z"/><path fill="#8c4933" d="M23 84.5l17.2-6.8 29.6 9.5 3.3 4.3z"/><path fill="#b69863" d="M239.2 152l-69.4-11.2 71.4 36.4-14.6 7.8z"/><path d="M250.6 58l-16-22.9L253.3 22l16 23z"/><path fill="#ffc6af" d="M88.5 123.8L61 118.7l35.5-14.3 7.9.8z"/><ellipse cx="96" cy="84" fill="#ffae8f" rx="4" ry="11"/><path fill="#e6aa6d" d="M77 26h4v14h-4z"/><circle r="1" fill="#2b1913" transform="matrix(.05435 -10.30697 13.95595 .07359 32.8 45.6)"/><path fill="#572a18" d="M91.1 60.7L95 74.1l-12.2-.3 7.3 11.1z"/><path fill="#0f0503" d="M113.1 130.6l-4.2 13.4-8-74.2 6.8-5.3z"/><circle r="1" fill="#d8a078" transform="matrix(-2.87925 1.40882 -4.26485 -8.7162 108.6 51.8)"/><path fill="#ccad7e" d="M201.2 76.1l26.2-8.3-8.1 30.7-38.1-10.6z"/><path fill="#2f3542" d="M208 57l36-4-32 15z"/><path fill="#58373c" d="M157 81L91 1l56 24z"/><path fill="#100706" d="M51.8 40.1l7.6-10.8-3.3-40.9L77 32.5z"/><path fill="#dfb69e" d="M13.1 165.8L10.8 154l27.5-2.7 40.1-60.2z"/></g></svg>