<svg xmlns="http://www.w3.org/2000/svg" viewBox="0 0 300 199"><defs/><path fill="#404040" d="M0 0h300v199H0z"/><g fill-opacity=".5" transform="translate(.6 .6) scale(1.17188)"><ellipse cx="171" cy="63" fill="#fff" rx="129" ry="76"/><path fill="#fff" d="M108 185l2-155 161-4z"/><path fill="#111" d="M76 39h29v97H76z"/><circle r="1" transform="matrix(6.1497 -.3297 3.42098 63.8113 168.1 75.1)"/><ellipse cx="228" cy="53" rx="7" ry="206"/><path fill="#c7c7c7" d="M145 164l-95 21-9-69z"/><circle r="1" transform="rotate(79.5 -55.4 49.7) scale(101.11401 31.33047)"/><circle r="1" fill="#1b1b1b" transform="matrix(-1.24608 -10.64976 77.9531 -9.12096 189.5 6.1)"/><ellipse cx="188" cy="142" fill="#343434" rx="59" ry="27"/><circle r="1" fill="#fff" transform="rotate(66.4 37 194.8) scale(35.32632 22.40055)"/><circle r="1" fill="#fff" transform="matrix(-16.98516 -2.3145 6.3088 -46.29764 255 80)"/><circle r="1" fill="#c1c1c1" transform="matrix(-20.84129 9.6742 -22.73487 -48.97808 47 13.6)"/><ellipse cx="48" cy="103" rx="31" ry="16"/><circle r="1" fill="#fff" transform="rotate(-15 358.8 -486.2) scale(22.37959 51.2215)"/><path fill="#ccc" d="M36.1 63.2l1.1-27-23.9 14.5 26.4 30.5z"/><path fill="#fff" d="M110 130l22-83 1 138z"/><circle r="1" transform="matrix(7.22555 -12.36504 29.34353 17.14698 233.4 136.3)"/><path fill="#fff" d="M233 18h23v43h-23z"/><ellipse cx="12" cy="108" rx="31" ry="49"/><path fill="#fff" d="M224.4 109.4l-43.9 3.9-6.9-78.7 43.9-3.9z"/><path fill="#686868" d="M130.7 163.7l2.8-39 79.8 5.6-2.8 39z"/><path d="M76.3 45l31.9 27.6-6.9-27.9-6.9-11.4z"/><path fill="#888" d="M120 72l-8 62-48-15z"/><circle r="1" transform="matrix(-3.08874 19.28363 -27.99648 -4.4843 3.8 30.2)"/><ellipse cx="68" fill="#393939" rx="44" ry="9"/><path fill="#fdfdfd" d="M270 88L230 0l11 128z"/><path fill="#171717" d="M235.1 66.4l-4.9-41.7-12.7-13.3 8.5 90.9z"/><path fill="#fff" d="M77.8 63.4l-32 2.2-1.6-23 32-2.2z"/><path fill="#7b7b7b" d="M98 109L40 85l23-34z"/><path fill="#fff" d="M119 39h41v87h-41z"/><path fill="#d4d4d4" d="M69 141l-14 44-11-72z"/><path fill="#020202" d="M72.2 90.4l-6 42.2-23.1-19.4 31-37.4z"/><ellipse cx="81" cy="153" fill="#3e3e3e" rx="11" ry="51"/><path fill="#161616" d="M173.1 49L161 25l1 32.7 9.9 78.2z"/><path fill="#ececec" d="M43 18l9 10L87 8z"/><path fill="#fff" d="M222 69l3 45-47 1z"/><path fill="#171717" d="M193 173l43-83 2 52z"/><circle r="1" fill="#6c6c6c" transform="matrix(1.23332 8.15495 -52.25311 7.90254 135.2 18.8)"/><path fill="#090909" d="M41.5 66.3l3.6-35.9-.4-4.2-6.8-9.6z"/><circle r="1" fill="#929292" transform="matrix(-.28124 8.05368 -15.39209 -.5375 219.7 168.9)"/><path fill="#fcfcfc" d="M164.3 126.5l-2.6-55.8-66.2-35.8 35.2 69z"/><ellipse cx="10" cy="153" rx="35" ry="96"/><path fill="#ebebeb" d="M204 123h52v2h-52z"/><path fill="#131313" d="M168 117h70v7h-70z"/><path fill="#363636" d="M158.6 27.7l63.8-12.4 1 5-63.8 12.4z"/><path fill="#2a2a2a" d="M52 64.2l64.7 25.1-15.6 9.6-33.4-36z"/><ellipse cx="22" fill="#b1b1b1" rx="21" ry="6"/><path fill="#090909" d="M211 126h45v36h-45z"/><path fill="#898989" d="M141.5 22.1L137.3 3 43.6 24.9l7.5 17.8z"/><circle r="1" fill="#393939" transform="matrix(-63.09468 8.75511 -1.62186 -11.6881 218.2 0)"/><circle r="1" fill="#fff" transform="matrix(.28089 1.23616 -49.99512 11.3603 89.3 10.3)"/><path fill="#727272" d="M133 125h78v24h-78z"/><ellipse cx="39" cy="169" fill="#878787" rx="2" ry="55"/><path fill="#f7f7f7" d="M223 23.7l.9 11-23 1.6-.8-11z"/><path fill="#fbfbfb" d="M68 68l11 7-28 3z"/><path fill="#a5a5a5" d="M35 71l4-32-25 16z"/><path fill="#ededed" d="M53 71h5v24h-5z"/><path fill="#292929" d="M97 185h18l-12-40z"/><path fill="#bbb" d="M134.9 37.9L167 23.8l4.6-5.8-89.8 19z"/><path fill="#d1d1d1" d="M105.9 135.9l-5.3 6.3 34.4 38.1-2.4-32z"/><circle r="1" fill="#535353" transform="matrix(1.34614 8.69555 -40.9507 6.3395 65.6 4.8)"/><path fill="#fff" d="M43.9 68.2l6.3 8.4-4.9-34.4 17.8 16.5z"/><path d="M134 151h35v5h-35zM5 1l29 30-50 23z"/><path fill="#efefef" d="M130.2 114.8l-2.3 49.4-22.9-56.7-.2-15.8z"/><path fill="#3d3d3d" d="M85.2 68.2l11.1 6.5 21.7 6.9-44.3-38.5z"/><path fill="#939393" d="M75.5 125.6l-19.2-.7 33.1-28.3-16.6-12.4z"/><path fill="#080808" d="M66 133h31l-36-13z"/><path fill="#d1d1d1" d="M214.1 15.1l-1-1 17.8-5.5L271 11z"/><path fill="#2b2b2b" d="M234 74l7 69-19 4z"/><path d="M229 14.5l5 40.7-3 .3-5-40.7z"/><path fill="#141414" d="M106 34h2v19h-2z"/><path fill="#2f2f2f" d="M69.2 61.8l1.3 7-17.7 3.4-1.3-7z"/><path fill="#fdfdfd" d="M120 52h42v73h-42z"/><path fill="#676767" d="M22 37L11 51l18 18z"/><path fill="#888" d="M181 94h35v2h-35z"/><path fill="#fff" d="M175 41h46v51h-46z"/><circle r="1" fill="#dfdfdf" transform="matrix(19.5168 -2.70288 3.8423 27.74426 252.8 43.6)"/><path fill="#7a7a7a" d="M187 65h25v2h-25z"/><path fill="#020202" d="M63.2 120.6l-4.3-48.4 11 34L-16 44.7z"/><path d="M76.2 43.5l9.2-5.9 16.3 8.3-5 9.7z"/><path fill="#f6f6f6" d="M169 124h72v1h-72z"/><path d="M133 126h75v1h-75z"/><circle r="1" transform="matrix(-.4074 -1.28202 16.79773 -5.33791 157.3 163)"/><path fill="#868686" d="M114 81l5 20-37-34z"/><path fill="#fff" d="M238 71h18v43h-18z"/><circle r="1" fill="#939393" transform="matrix(-116.04679 11.35466 -.09738 -.99525 242.3 62.4)"/><path fill="#999" d="M24 19l19 3L5-16z"/><path fill="#2b2b2b" d="M119.2 1.2L91.5 7 99-3.7l56.2-4.7z"/><path fill="#7c7c7c" d="M136.1 146.3l-2.9-11 42.8-1.5 17.5 23.3z"/><path fill="#797979" d="M179.5 41.8l48.7-8.6 3 62.9-5.9-59.6z"/><path fill="#646464" d="M241 91h15v2h-15z"/><path fill="#0d0d0d" d="M221 35h6v30h-6z"/><path fill="#4e4e4e" d="M169-16l30 30-56 9z"/><path fill="#848484" d="M45 78h35v11H45z"/><path fill="#8e8e8e" d="M44 185l19-42-18-17z"/><path fill="#fff" d="M160 34l-48 10 49 27z"/><ellipse cx="154" cy="157" fill="#8a8a8a" rx="11" ry="4"/><path fill="#333" d="M95 95l22-2-48-29z"/><path fill="#f0f0f0" d="M63 38h11v24H63z"/></g></svg>