<svg xmlns="http://www.w3.org/2000/svg" viewBox="0 0 299 449"><defs/><path fill="#413738" d="M0 0h299v449H0z"/><g fill-opacity=".5" transform="translate(.9 .9) scale(1.7539)"><circle r="1" fill="#fff" transform="matrix(44.02253 -136.04581 97.67836 31.60736 135.1 111.5)"/><circle r="1" fill="#fffff3" transform="matrix(37.1269 14.75015 -52.78959 132.87414 118.5 117.9)"/><circle r="1" fill="#503323" transform="matrix(-22.40059 -18.46562 37.16164 -45.08068 66.6 79.5)"/><circle r="1" fill="#ffffdf" transform="rotate(176.2 48.4 6.4) scale(36.04465 14.65365)"/><circle r="1" transform="matrix(24.34796 19.13255 -7.09558 9.02978 170 188.2)"/><circle r="1" fill="#ffffbd" transform="rotate(-67.2 1.3 -2) scale(25.23791 20.36657)"/><circle r="1" fill="#fff" transform="rotate(-38.8 405.7 -108.6) scale(17.23109 19.09755)"/><ellipse cx="58" cy="178" fill="#daccd4" rx="36" ry="51"/><circle r="1" transform="matrix(17.19275 -5.9756 52.975 152.41733 4 220.9)"/><circle r="1" fill="#c1b2ab" transform="matrix(-9.5917 1.36591 -4.98419 -34.99984 60.6 40.6)"/><path fill="#f1ddcd" d="M175-16l-50 243L101 8z"/><path fill="#ffff9e" d="M10 54L5.7 78.8-10 75.9l4.3-24.6z"/><circle r="1" fill="#7e6a69" transform="matrix(34.75633 85.37663 -15.53505 6.32423 45.3 211)"/><path fill="#2c292a" d="M29.3 53.5l45 24-19.6 37-45-24z"/><path fill="#f1eff8" d="M39 141h82v33H39z"/><path fill="#bf8b71" d="M113 91l-8-43-67 93z"/><circle r="1" fill="#1e1519" transform="matrix(2.58037 -12.42612 27.49987 5.71054 112.8 255)"/><path d="M162.6 194.1l23.4 33.3-7.1-64-28 13.7z"/><circle r="1" fill="#c8b19c" transform="rotate(-46 233.3 -137.5) scale(66.85961 26.07958)"/><path fill="#ffa376" d="M134 231l-4-50 33 7z"/><path fill="#645e4f" d="M92 18l5 65-37-69z"/><circle r="1" fill="#4b3827" transform="rotate(-152.4 21.5 15.5) scale(25.26634 28.01053)"/><path fill="#ef9972" d="M2.3 38.8L-14-16l65.1 36.9-23.9-26z"/><path fill="#fffaff" d="M70.7 70l-13.6 3.5-3.8-15.6 13.6-3.4z"/><path fill="#fff" d="M58 29l16 6-7 15z"/><circle r="1" fill="#eeb194" transform="matrix(-25.42706 -16.01227 7.79782 -12.38273 84.2 129.5)"/><path fill="#e9efff" d="M122.4 218.5l13.2-17.9-25.8-47.4 2.6 62.6z"/><path fill="#f1e4d2" d="M111 22h60v91h-60z"/><path fill="#fafcff" d="M74.9 150.4l-19-31.7-3.7 17.6 15.3 81.9z"/><path fill="#f4e7d6" d="M81.4-5.4L63.1 11.2l18 3.6 64.5 45.7z"/><circle r="1" fill="#eae3ea" transform="matrix(-20.89651 -23.42932 16.51396 -14.72873 113.8 127)"/><path d="M61 8l-23.8 2.9L35-8l23.9-2.9z"/><path fill="#24211c" d="M70 56h10v35H70z"/><circle r="1" transform="rotate(143.8 -35.2 122.8) scale(21.20568 29.65207)"/><path fill="#4a5669" d="M154 183l-31-11 1-10z"/><path fill="#57331e" d="M98 231l27-1v-11z"/><circle r="1" fill="#fff" transform="matrix(13.6155 .54093 -.44199 11.12517 156.3 222.3)"/><path fill="#e3e9fa" d="M73.4 250.1L63.1 203l35.2 12.1 3.1 13.5z"/><path fill="#bdbec6" d="M40 98h5v94h-5z"/><ellipse cx="146" cy="255" rx="26" ry="6"/><path fill="#8d818f" d="M144.9 234.6l41.1 13.8v2l-92.1-4.2z"/><path fill="#b69472" d="M153 174l33-8-52-56z"/><path fill="#b4a7ad" d="M24 160l15-47 33 117z"/><circle r="1" fill="#4d3e39" transform="rotate(171.9 3.1 100.5) scale(11.41082 33.65864)"/><path fill="#edeaed" d="M93.4 61.8l31.1-12.9 23.3 141.2-34.4-115.2z"/><path fill="#dfa07c" d="M5.4 37.5L17.2-16l-29.6 31.9 37.8 15.9z"/><path fill="#67523e" d="M113.8 50l-22.5 4.7-3.1-14.6 22.5-4.8z"/><path fill="#e98b65" d="M133 201l53 20-37-39z"/><path d="M176 199l-1-30-29 7z"/><path fill="#260a00" d="M47 34l-63 24V35z"/><path fill="#281b1a" d="M47 128l-1-48 18-7z"/><circle r="1" fill="#e0cdb6" transform="matrix(62.31035 68.92234 -25.4582 23.0159 133.1 7)"/><circle r="1" fill="#4b494a" transform="matrix(15.62891 -76.13813 9.66244 1.98341 34.8 81.9)"/><ellipse cx="1" cy="132" rx="2" ry="56"/><path fill="#5c605a" d="M92.3 107.4l-10 1-4.6-43.8 10-1z"/><path fill="#4a4542" d="M39 47h39v7H39z"/><circle r="1" fill="#e7e0de" transform="matrix(-9.22564 -31.8719 1.80906 -.52365 97.1 99.2)"/><path fill="#b6b1ba" d="M91 186l-17 21 77 32z"/><path d="M67 6H35l33-22z"/><circle r="1" fill="#212629" transform="matrix(-2.87659 19.48023 -8.91701 -1.31675 49.9 255)"/><path fill="#823c17" d="M32.6 13.5l-47.4 30.7L24 3.3 25.1-10z"/><path fill="#cf9474" d="M98 50h14v42H98z"/><path fill="#271b1b" d="M25.5 5.1l-8.9 64.3 7.3 50.9 11.4-86.9z"/><path fill="#7e8175" d="M55 7l30 21-52-16z"/><path fill="#ffe8ea" d="M62 33.2l-3.4 12.6L73 44.4l7.1-2.5z"/><path fill="#22110b" d="M81 264l23 7 2-41z"/><path fill="#f4c39f" d="M35.6 6.5L.3-16-16 39.8l49.3-50.6z"/><path fill="#aa5e40" d="M76 87l-16 2-3 38z"/><ellipse cx="11" cy="96" fill="#5e4d4b" rx="7" ry="45"/><path fill="#8e7d81" d="M96.1 244.3l31.2-6.5-18.6 26.3-5.9-53.5z"/><path fill="#ebb16c" d="M-11.7 95.4L5.5 73.8l5-25-17.4 16.5z"/><path fill="#413e33" d="M74 35h23v9H74z"/><path fill="#ffc69e" d="M158 186h3v13h-3z"/><circle r="1" fill="#ecf5fd" transform="matrix(-17.85879 6.56955 -1.90535 -5.17953 148.6 226)"/><circle r="1" fill="#c7b095" transform="matrix(19.05803 23.61888 -10.67174 8.61101 158.5 132.5)"/><path fill="#f5f4f7" d="M126 66l-29 49 12 12z"/><path fill="#d09167" d="M150.5 190.6l-21.9 19.9-4 21.3 9.7-2.9z"/><path fill="#a2abb0" d="M45.6 92.5l-4.4 26.2 2.8-30 3.1-12.9z"/><path fill="#deb0ab" d="M123 181h29v9h-29z"/><circle r="1" fill="#cfa68f" transform="rotate(90.2 -24.8 100.4) scale(19.36995 7.62706)"/><path fill="#ffe2e6" d="M68 64l-7.3 3L56 56l7.3-3z"/><path fill="#e7e7e6" d="M69.5 13.6l-5-6.8 16.1-4.9 7.6 10.7z"/><path d="M152.4 186.1l20.7-17.3 2.5 3-20.7 17.4z"/><path fill="#83858c" d="M23.1 144.5l.7 13.7 18.9-24.9.9-26z"/><path fill="#4c3c31" d="M55.3 47.8L61 28.5 3 33.9l63.1 14z"/><path d="M6.2 208.6l44.1 83-18.5 9.8-44.1-83z"/><path fill="#fdffff" d="M115 170l-56-28 33 5z"/><path fill="#aeb0c2" d="M120 130l3 43 19-5z"/><path fill="#cdc6bf" d="M97 64l-.7.6L63 30.1l.7-.7z"/><path fill="#b59e9e" d="M57.2 227.4l4.4-38.1L26 146.6l6.7 47.8z"/><path fill="#6e6b74" d="M71 260.6l41.4-29.3-54.2 27.4 3-51.5z"/><path fill="#dfe2ed" d="M134.5 207.8l-23.7 7.7-17.3-53.3 23.7-7.7z"/><path fill="#c1c2cf" d="M75 221l10-68 29 37z"/><path fill="#090000" d="M-16 195l17-73 5 73z"/><path fill="#eecbb9" d="M110.8 145.2l-7.1 14.2-23.3-36.7 10.8-21.1z"/><path fill="#e7eaf3" d="M62.1 202.1l-3.9-28.8L73.7 193l4.9 60.6z"/><path fill="#b89281" d="M108.7 60.7l.9 38.7L25 140l72.5-39.8z"/><path fill="#bac3ce" d="M154.5 243l5-17.4 26 7.5-5 17.3z"/><path d="M-16 77l15 71 5-69z"/><circle r="1" fill="#c5bbc3" transform="matrix(14.64361 -1.0916 .33924 4.55088 135 234)"/></g></svg>