<svg xmlns="http://www.w3.org/2000/svg" viewBox="0 0 299 449"><defs/><path fill="#2e3848" d="M0 0h299v449H0z"/><g fill-opacity=".5" transform="translate(.9 .9) scale(1.7539)"><ellipse cx="28" cy="119" fill="#ffecc2" rx="85" ry="145"/><ellipse cx="15" cy="111" fill="#fff" rx="38" ry="62"/><circle r="1" fill="#2a140b" transform="rotate(-69.1 88.2 -33) scale(41.17263 37.10445)"/><circle r="1" transform="matrix(10.74798 111.05012 -10.73636 1.03912 69.3 152.5)"/><ellipse cx="149" cy="127" rx="34" ry="170"/><path fill="#fff" d="M99 111l-23 86 37 24z"/><ellipse cx="34" cy="227" fill="#fbdba8" rx="28" ry="105"/><circle r="1" transform="matrix(16.36362 24.72273 -11.99815 7.9414 86.4 230)"/><circle r="1" fill="#5a4738" transform="matrix(27.3396 4.96994 -7.58741 41.73827 0 27.2)"/><circle r="1" fill="#746c63" transform="matrix(15.6044 -2.72824 16.79686 96.07097 96 14.8)"/><circle r="1" fill="#000010" transform="rotate(59.1 -93.5 135) scale(34.47895 8.56804)"/><path fill="#fff" d="M53.8 142.2l5.5-2.5 9 20.1-5.6 2.5z"/><path fill="#2d1e11" d="M13 201l-15-71-14 110z"/><ellipse cx="146" cy="45" rx="29" ry="93"/><path fill="#fefdff" d="M97 113l-6 56-13-64z"/><path fill="#edf2ea" d="M42 35L5 152l52-50z"/><path fill="#fff8d3" d="M29.8 215.5l25.9-52.7L.6 221.5l-5 35.9z"/><circle r="1" fill="#f0f8fe" transform="rotate(-68.6 176.2 23.9) scale(33.93119 7.32468)"/><path fill="#383f48" d="M108 93h11v159h-11z"/><path d="M57 171l23 92 29-14z"/><path fill="#bab5b1" d="M114.3-7.5L59.9 38 47.7 23.5 102.1-22z"/><ellipse cx="151" cy="215" fill="#2e3949" rx="12" ry="150"/><circle r="1" fill="#807768" transform="rotate(31.3 -406 166.5) scale(7.83087 59.96104)"/><path d="M51 112h22v27H51z"/><circle r="1" transform="matrix(-8.28932 142.82339 -9.2043 -.5342 131.6 161.5)"/><path fill="#0f0701" d="M56 161l14 37 19-41z"/><path fill="#f0d19f" d="M62 195l-42 66 55 10z"/><path fill="#e8edef" d="M86 169h23v37H86z"/><path fill="#3d2e27" d="M44.6 44.4l13.7-4.3 35.2-29L63 90.3z"/><path d="M85 74l14 30-1-24z"/><path fill="#b47621" d="M31 119h9v18h-9z"/><circle r="1" fill="#f7e2b5" transform="rotate(135.8 -3 83.7) scale(7.215 21.43681)"/><path fill="#abb3b9" d="M38 55l-42-7 41 55z"/><path fill="#978877" d="M49 161L7 217l-23-13z"/><path fill="#c2b4b4" d="M76.4 144.8l22.4 26.5 7.9-21.4-35.5-38.7z"/><path fill="#46393b" d="M123.1 142.4L105 108.7l17.4-4.4L96.2 147z"/><path fill="#f1efe6" d="M64.5 105.4L1 95.9l9.5 75.1 17.9-51.8z"/><path d="M78 219h28v37H78z"/><path fill="#ad7861" d="M79.6 64.3l19.5 56.3-38.8-33.1 19.1 58.3z"/><path fill="#534233" d="M-8.3-14.7L.5 3.8l-11 39.7 37.9 12.2z"/><path fill="#b8ab99" d="M13.1 30.8l10.8-16 18.8 9.3-1 10.9z"/><ellipse cx="65" cy="255" fill="#8e7556" rx="9" ry="20"/><path fill="#0c0000" d="M-16 212l19-52 2 24z"/><path fill="#000610" d="M76.6 145.2L56 84.5l4.1 8.8-8.6 43.5z"/><path fill="#fddfb6" d="M51.5 183.4l8.5-.6-14.2-55-5.7 71z"/><path fill="#eff7f8" d="M50 60l1 77-16-27z"/><path fill="#a5a8a9" d="M105.8 220.8l-15.1-8.4 3.8-42.3 17.3 64.3z"/><ellipse cx="133" cy="23" rx="12" ry="170"/><path fill="#f7e6d1" d="M10.2 239.1l21.1-30.9-47.3 18.9L1.2 266z"/><path fill="#332317" d="M58 158l-4-14-1 15z"/><path fill="#d7d7d7" d="M92.1 161.3l12-55.3-31.5 20.6 7.5-29.7z"/><path fill="#805c53" d="M79.2 127.1l6.3 16.8-17.6 8.8 31.8-73z"/><path fill="#f6e9bf" d="M69.6 166.8l-15.2-17.3 5.6-7.8 9.2 16.9z"/><path fill="#f6e4c7" d="M16.8 166.2l35-16.7-37.2 34.7L4 193.6z"/><path fill="#818687" d="M80 212l-7-15 41 23z"/><path fill="#2c130a" d="M69.6 100.2l6-.4.8 12-6 .4z"/><ellipse cx="96" cy="23" fill="#090b03" rx="19" ry="3"/><circle r="1" fill="#f6fbfb" transform="rotate(-110.2 110.7 67.8) scale(15.87242 4.94462)"/><ellipse cx="118" cy="27" fill="#252a30" rx="5" ry="87"/><circle r="1" fill="#5c4e46" transform="rotate(45.5 -24.8 131.7) scale(18.73324 40.79518)"/><path fill="#00000d" d="M78.8 151.6l10.1 8.2-3.7 4.6-10.1-8.2z"/><path fill="#da8b77" d="M60 93l8 3-1 16z"/><path fill="#eff3f1" d="M108 218l-12-38 11 15z"/><path fill="#39291f" d="M68.9 33.8l-15 9.2-7 .2 13 62.2z"/><ellipse cx="110" cy="250" fill="#425873" rx="4" ry="50"/><path fill="#cdd4d6" d="M32.1 74.7L-12.5 41l27.4 11.6-26.2 59z"/><path fill="#6b5d44" d="M39 226h2v30h-2z"/><circle r="1" fill="#dc9470" transform="rotate(-116.6 75.2 21.4) scale(15.39759 2.78911)"/><path fill="#766858" d="M47 40L7 46l40-20z"/><path fill="#ebf4f4" d="M80.1 138.5l14.7.5-17.3-27.4 11.1 3.4z"/><ellipse cx="63" cy="152" fill="#fff5ca" rx="3" ry="9"/><path fill="#000b15" d="M76 144l-21-34-2 28z"/><path fill="#3c230f" d="M79 170l-22-11 8 50z"/><circle r="1" fill="#acb1b4" transform="matrix(-52.0793 83.60203 -2.4005 -1.49538 47.8 41)"/><ellipse cx="112" cy="154" fill="#42494e" rx="6" ry="36"/><path fill="#eed4a7" d="M48.4 271l-7.8-38.7 21.5-38.1 5.7 27.5z"/><path fill="#fbf1db" d="M6 151l31-12-32 31z"/><path fill="#9b7c57" d="M38 175h2v35h-2z"/><path fill="#7e514f" d="M96 146l-23-14 8 12z"/><path fill="#d1d5d7" d="M94.2 103.9l9 90.3-19-45.3 20.4-13.2z"/><circle cx="88" cy="233" r="18" fill="#050000"/><path fill="#83776b" d="M91-16H28L9 29z"/><path fill="#576069" d="M-13.5 56.1l17.7 1.4L7.1 74l-21.4-15.7z"/><path fill="#323b46" d="M86.8 119.2l-13.5 17.4 6.3 39.3-8.7-23.1z"/><ellipse cx="170" cy="22" fill="#000009" rx="8" ry="169"/><path fill="#190500" d="M72 99l6-9-14-5z"/><path fill="#9d9a91" d="M-16 271l40-28 20-47z"/><path fill="#86827a" d="M71 16l40 1-5-33z"/><circle r="1" fill="#263244" transform="matrix(.50474 -63.53013 14.99043 .1191 151.5 243)"/><path fill="#0c0c06" d="M59.1 128.5l15.5 35.2-6.2-3.3-8-35.1z"/><ellipse cy="147" fill="#17242c" rx="2" ry="13"/><path fill="#fff" d="M22.7 119.9l-12.2-19.5 6.8-4.3 12.2 19.5z"/><circle r="1" fill="#131820" transform="matrix(-7.55901 -79.96598 7.57647 -.71619 157.2 94.5)"/><path fill="#fff" d="M12.8 96.6l-1 .2-6.6-37.4 1-.2z"/><path fill="#b4ada4" d="M41.4 147l-30.3 26.1-7.9-5 51.9-34.8z"/><path fill="#100000" d="M81 78l15 2 6 20z"/><path fill="#a48a68" d="M42 197.3l-5.3 37.8 26.4-45-2.3-14.3z"/><path fill="#766b63" d="M113.7 69.3L75.2 83.4l.3-30.2 37.4 49.9z"/><circle r="1" fill="#b0b0ac" transform="rotate(-9.6 360 -244) scale(3.92232 31.49363)"/><circle r="1" fill="#181e26" transform="matrix(3.47536 .01676 -.46082 95.53728 119 216)"/></g></svg>