<svg xmlns="http://www.w3.org/2000/svg" viewBox="0 0 300 199"><defs/><path fill="#42302a" d="M0 0h300v199H0z"/><g fill-opacity=".5" transform="translate(.6 .6) scale(1.17188)"><circle cx="203" cy="134" r="140" fill="#fefffe"/><ellipse cx="60" cy="64" fill="#d9d3d8" rx="39" ry="49"/><ellipse cx="124" cy="30" rx="32" ry="43"/><ellipse cx="223" cy="88" rx="21" ry="31"/><path fill="#ffd9ab" d="M33.5 142.8l10.7-40.1-60.2 13.4L4.8 185z"/><circle r="1" fill="#d8d9d9" transform="matrix(107.91923 85.93604 -19.33887 24.28592 163.4 138.4)"/><ellipse cx="236" cy="8" fill="#fff" rx="47" ry="13"/><circle r="1" transform="matrix(-13.53242 6.86539 -22.32323 -44.00149 110.9 33.9)"/><circle r="1" transform="matrix(28.64655 29.80548 -7.69281 7.3937 228.7 89.4)"/><path fill="#00102c" d="M38.5 103.9l37.4 50.5L49.5 50.5l-17.6 9z"/><circle r="1" fill="#f8ffff" transform="rotate(-176.3 84.5 37.3) scale(12.38989 45.41494)"/><path fill="#451a00" d="M193.7 103.3l-4.8-70.2-13 73-6.8 40.4z"/><path fill="#f8e9e8" d="M86.9 14.5L92.8 48l-19.7 3.5L67.2 18z"/><ellipse cx="234" cy="53" rx="6" ry="20"/><circle r="1" transform="rotate(93.6 -4.3 15.6) scale(26.01397 31.83035)"/><circle r="1" transform="matrix(5.93196 -12.06137 6.15184 3.02556 210.8 113.5)"/><ellipse cx="159" cy="3" fill="#8e796d" rx="32" ry="48"/><circle r="1" fill="#c1c0c4" transform="rotate(-96.7 112.2 25.7) scale(93.19885 29.20401)"/><path fill="#ffffe9" d="M207.7 35.8l19 .4-.4 22-19-.4z"/><path fill="#fffee5" d="M202 184l-37-4 36-95z"/><circle cx="234" cy="135" r="24" fill="#d3d5d3"/><path fill="#fffcec" d="M197 92h26v8h-26z"/><path fill="#a1989e" d="M45.9-13.2l52.9 124.1-39.6 3.8L44.6.6z"/><path fill="#000911" d="M69 155l-3-42-55 47z"/><path fill="#fff6d8" d="M194 58l-8-35 33-39z"/><path fill="#fbefff" d="M9.3 81l-9-13.9L-16 56.6v35.3z"/><circle r="1" fill="#f3bdaf" transform="matrix(5.21162 -.98475 6.86752 36.34534 14.3 153.5)"/><path fill="#e3af94" d="M85.1 92.9l-39.8 16.5-26.3-59 18.8 71z"/><path fill="#575e67" d="M148.4 149.8l-23.8 14.8-9-14.4 23.8-14.8z"/><path fill="#d6a95e" d="M240 36h16v64h-16z"/><circle r="1" transform="rotate(-12.3 160.1 -510.2) scale(16.54781 41.82375)"/><path fill="#cbdbf7" d="M69 160h138v10H69z"/><circle r="1" transform="rotate(-91.3 161 -49.4) scale(8.98967 11.2023)"/><path d="M49.8-16l8 34.2 15.7-5.1 57.9 8.8zM49 102v83l-24-9z"/><path fill="#efb080" d="M62.1 28.3L24 69.3l-8-7.6 38.2-41z"/><path fill="#6c320f" d="M168 27l14-8 10 41z"/><path fill="#eea788" d="M9 123h28v25H9z"/><path fill="#e6f4ff" d="M169.1 134.1L182.2 68l-2.3-24.4-34.2 107.1z"/><path fill="#000004" d="M241 110.4l-19.9 1-2.2-41.8 20-1z"/><path fill="#cdebff" d="M221.8 132.1l1.6-15.9 34.8 3.7-1.6 15.9z"/><path fill="#b3763b" d="M166 133l18 9 9-41z"/><path fill="#4e5a76" d="M50 140h18v30H50z"/><path fill="#ffffea" d="M261.1-19.2l4.7 26.6-67 11.8-4.6-26.6z"/><circle r="1" fill="#45423e" transform="matrix(10.198 9.4381 -15.1598 16.38039 255 100.5)"/><ellipse cx="197" cy="85" fill="#ffdec1" rx="3" ry="82"/><path fill="#bcafa3" d="M112 123l39 7 19-116z"/><path fill="#1f3c5c" d="M213 28l-7-11-7 40z"/><ellipse cx="57" cy="65" fill="#4a79b9" rx="8" ry="26"/><circle r="1" fill="#91aed4" transform="rotate(178.8 121.4 12.2) scale(29.16248 9.5308)"/><path fill="#d8f8ff" d="M159.9 150l14.7-12 19.5 24-14.7 12z"/><path fill="#924c27" d="M38.4 117L23.6 72.1l-3.7 36.3-1.5 18.4z"/><circle r="1" fill="#585b5c" transform="matrix(6.33896 2.5354 -11.19877 27.99892 139 61.5)"/><path fill="#ffffb8" d="M209.2 66.5l-4.7-15.6 5.3-15.1 15.4 5.8z"/><circle r="1" fill="#814400" transform="matrix(-4.70215 -8.35045 6.2853 -3.53926 233.5 41.3)"/><path fill="#3d0000" d="M-3 93l10 39-23-8z"/><circle r="1" fill="#b5a595" transform="matrix(13.80804 -16.3885 23.4261 19.73753 225.8 153)"/><path fill="#f8d9b3" d="M271 58l-31-35-16 4z"/><path fill="#1f293d" d="M32.4 66.5L52.1 39l-2.5 93-12.2-42.8z"/><circle r="1" fill="#dbe2eb" transform="matrix(-7.159 1.48963 -6.57865 -31.61625 107.7 112.8)"/><path fill="#050608" d="M199.9 46.8L214.1 83l12.6 4.3-21 4.6z"/><ellipse cx="34" cy="91" fill="#ffd8b0" rx="3" ry="14"/><path fill="#553e2d" d="M197.1 72.7L180 98.6l4.3-59.1 8.1 14.2z"/><path fill="#040200" d="M67.2 114.7l2.2 24.3-39.1 10.5 19.9-34.8z"/><path fill="#bf8162" d="M81.6 22l-9 16.4-40.1 2.1 21.8-24.3z"/><path fill="#456289" d="M35.6 9.2l8.3 21.2 17.7-41.9L35.2-16z"/><circle cx="216" cy="46" r="12" fill="#ffffc3"/><path fill="#311e10" d="M46.9 15.5l-61.5 30.9 44.7 55.8-44 11.3z"/><path d="M203 101h5v27h-5z"/><path fill="#f5caaa" d="M201.8 73l.5 64.1-4.2 23.5-16.8-17.1z"/><circle r="1" fill="#553f27" transform="matrix(3.13056 1.06418 -11.2036 32.95827 180.4 106.8)"/><circle r="1" fill="#626260" transform="matrix(-11.78405 -8.7696 16.71288 -22.45774 149.3 10.2)"/><path fill="#bcb9bf" d="M101.2 140l30.8 29.9L61.2 185l10.6-45.2z"/><path fill="#000001" d="M124 5l-15.7 25.9 22.9 56.3.7-12.9z"/><path fill="#d0d7da" d="M89 69l2-42-20 17z"/><path fill="#58251f" d="M38.2 86.1L34.3 101l27.2-6.3 5.2 10.2z"/><path fill="#bcabaa" d="M50 43L48-3l14 33z"/><path fill="#e09b79" d="M17.4 113.4l18.5 32-33.5-23.1L5 105.5z"/><path fill="#201106" d="M16.8 152.4l11.7 21 12.5-28-19 4.7z"/><path fill="#b6a89f" d="M173.1 26.6L213.5-16l-55.1 35.5-27.5 161.6z"/><path fill="#65747b" d="M89 40.1l-5.4-29.3 26.9 68.5-10.8-16.2z"/><path fill="#cbb295" d="M207 126.6l28.6-17.4-22.3 31.6-25.1 32.9z"/><path fill="#aa7f43" d="M240 106l3-35 28 13z"/><path fill="#cbd0d1" d="M115.2 67.6l-25.5 12 39.4 9.9-8.4-19.9z"/><path fill="#99653e" d="M12.1 55.1l7.3 20.1 13.9-41.3 38.9-14.2z"/><circle r="1" fill="#9e9fad" transform="matrix(-18.38276 -.7062 .19696 -5.12713 63.3 107.8)"/><path fill="#c4d0e2" d="M24 173.9l-7.9 1.8-4-17.6 7.8-1.8z"/><path fill="#d8cabd" d="M221 93l-2 10-28-17z"/><path fill="#c4bcb1" d="M71 126l-7-77 43 9z"/><path fill="#f2bc9a" d="M42.6 122.5L30.2 63.4l-6.9 2.7 4.2 15.5z"/><path fill="#032d62" d="M238 115l33-33-18 35z"/><circle r="1" fill="#a79484" transform="rotate(-19.5 350.6 -205.8) scale(4.85335 35.6475)"/><path fill="#f7d9ed" d="M4.1 70.9L-16 54.1v23.1l17.7 7.6z"/><path fill="#110200" d="M239 54l-9-4 8-15z"/><path fill="#8c553a" d="M165.9 40.3l16.6.9 10.2-32-1.5-3.2z"/><path fill="#c8bbae" d="M198.9 42.6l-27.6 12.2-55.3 63.9 47.1-77.3z"/><path fill="#5d7698" d="M228 16l-26 5 7 16z"/><path fill="#4d5258" d="M136 152l-18-13 10 19z"/><path fill="#7a3f31" d="M67.3 35.8l-.2-4.4-13.5 8.1 20.7-.1z"/><path fill="#ddcec3" d="M61 16h20v4H61z"/></g></svg>