<svg xmlns="http://www.w3.org/2000/svg" viewBox="0 0 300 199"><defs/><path fill="#4a3729" d="M0 0h300v199H0z"/><g fill-opacity=".5" transform="translate(.6 .6) scale(1.17188)"><circle cx="34" cy="63" r="135" fill="#b6c6cb"/><circle r="1" fill="#fff" transform="matrix(-.84222 -37.11152 102.5036 -2.32626 221.3 21.7)"/><path fill="#fff" d="M-3.1-18L64.6-5 53 54.1l-67.7-13.2z"/><circle r="1" fill="#060000" transform="matrix(-20.1285 -.54472 4.2763 -158.01787 101.8 73.1)"/><path fill="#fff" d="M48.3 100.9l9.3 44-47.9 10.2-9.3-44z"/><ellipse cx="162" cy="83" fill="#190800" rx="26" ry="42"/><circle r="1" fill="#fff" transform="matrix(13.43536 -6.88733 14.2982 27.89199 133.6 124)"/><circle r="1" fill="#1d1107" transform="matrix(-.36957 -14.11337 126.80182 -3.32042 73.8 86.7)"/><circle r="1" fill="#fff" transform="rotate(87.6 112.6 131.6) scale(35.37409 22.31831)"/><circle r="1" fill="#180000" transform="matrix(9.09045 .94675 -5.9793 57.412 168.5 18.6)"/><path fill="#96a7ac" d="M174.1 150.8l-5.2-26.5 109-21.1 5.2 26.5z"/><circle r="1" fill="#fff" transform="matrix(20.45253 1.78936 -4.22576 48.30062 141 17.9)"/><circle r="1" fill="#fff" transform="matrix(37.23631 37.10656 -17.09322 17.153 21 17)"/><ellipse cx="63" cy="121" rx="8" ry="31"/><circle r="1" fill="#959183" transform="rotate(-32.8 230.5 -366.4) scale(29.72794 22.99358)"/><circle r="1" transform="matrix(-125.98313 23.01602 -3.40414 -18.63328 177.4 167.4)"/><path fill="#e8f8ff" d="M121 123h32v31h-32z"/><circle r="1" fill="#0f1916" transform="matrix(-.36853 -11.10912 55.34087 -1.83585 73 169)"/><path fill="#fff" d="M68.8 28.8l17.4 6.8-5.9 26.9.3 15.3z"/><path fill="#f1f8f2" d="M162 51l-29-67-18 80z"/><path fill="#faffff" d="M7 107h28v48H7z"/><path fill="#231209" d="M80 108h39v45H80z"/><ellipse cx="105" cy="3" fill="#d7bc9b" rx="7" ry="26"/><path fill="#fff" d="M82 124l-12 2 8-34z"/><path fill="#352617" d="M81 62h127v37H81z"/><path fill="#fff" d="M81 15l1-31L59-6z"/><ellipse cx="31" cy="16" fill="#fff" rx="24" ry="33"/><circle r="1" fill="#bec8c9" transform="matrix(-4.74515 -1.16917 6.96036 -28.2491 51 62.4)"/><path fill="#b5c3cd" d="M227 125.8l-20.6 17 29.7-3.9 30.7-9z"/><ellipse cx="166" cy="82" fill="#322717" rx="8" ry="146"/><circle r="1" fill="#0d0e11" transform="matrix(-2.70834 -7.60589 23.93999 -8.52465 18.3 96.9)"/><path fill="#001b27" d="M40 127h5v24h-5z"/><path fill="#faffff" d="M278 39h-46V-1h46z"/><path fill="#100a01" d="M52.3 18.6l44.1 10.2 23.3 2-6.2 21z"/><ellipse cx="67" cy="131" fill="#1c1b1c" rx="17" ry="9"/><circle r="1" fill="#827e69" transform="matrix(14.26103 1.13535 -2.55775 32.12759 201.7 29.7)"/><path fill="#5c5345" d="M226.1 49l-22.2 65.8-44.8 43 81.5-37z"/><path fill="#ecfcff" d="M52.6 122.2l.7-21.2-69.3 14.7 45.7 7.6z"/><ellipse cx="102" fill="#c5b290" rx="18" ry="7"/><path fill="#c2ccd1" d="M119 131h32v25h-32z"/><path fill="#0b0e0b" d="M64 5h7v24h-7z"/><path fill="#564f4e" d="M55 69l39 46-21-61z"/><path fill="#8a530b" d="M117 4h6v43h-6z"/><ellipse cx="5" cy="121" fill="#2e3e40" rx="2" ry="74"/><path d="M115 104L82 80l54-10z"/><path fill="#645d55" d="M128.1 88l27.4-1.6-4.6-41.9-5.4 7.6z"/><circle r="1" fill="#f8ffff" transform="rotate(-135.9 88.5 29.5) scale(12.41463 9.06437)"/><path fill="#c7b4a9" d="M105.4 126l.2 14h-9l-.2-14z"/><path fill="#858b8e" d="M52 21.7l-.7 3.8 36.1 74.6-18-79z"/><circle r="1" fill="#928a7b" transform="matrix(48.04345 9.18119 -1.58325 8.28484 210 56)"/><circle r="1" fill="#62584f" transform="matrix(32.84773 20.52554 -7.99022 12.78702 10.4 68)"/><path fill="#566b70" d="M51.9 141.1l-23.2 10.1-44.7 21.1 75.8-9.3z"/><path fill="#2e261f" d="M94 170l10-37-61 42z"/><path fill="#5b3811" d="M83 9l-1 36 32-54z"/><ellipse cx="165" cy="109" fill="#292b23" rx="24" ry="15"/><path fill="#838171" d="M211 120l-15-21 75 18z"/><path fill="#fffff7" d="M68.4 36l12.5-3.4L85.6 50l-12.5 3.4z"/><path fill="#e9f7ff" d="M8 159l6-50 10 43z"/><circle r="1" fill="#20140e" transform="matrix(6.59161 1.80292 -6.36891 23.28523 87 118.4)"/><ellipse cx="67" cy="81" fill="#423b38" rx="9" ry="29"/><path fill="#e4ded3" d="M77 138l-22 25 23-14z"/><circle cx="132" cy="83" r="5" fill="#b7c8d0"/><circle r="1" fill="#241b13" transform="rotate(-79 182.5 -93.6) scale(6.13638 59.88817)"/><path fill="#9b9f9a" d="M77.8 25L50.2 86.5 16.1 44.9l41.7 7.9z"/><path fill="#a5a08e" d="M175 0h22v57h-22z"/><path fill="#d1a95a" d="M88 70h11v9H88z"/><path fill="#0e0700" d="M91 19l-4 38 18 16z"/><path fill="#000004" d="M138 63h9v34h-9z"/><path fill="#ffffe9" d="M77 98h5v20h-5z"/><path fill="#62462a" d="M147 56l1 34 116-1z"/><circle r="1" fill="#1b0202" transform="matrix(82.00347 -19.56425 5.32955 22.33879 254.5 157.8)"/><path fill="#faffff" d="M82 17l-9-3 5-30z"/><path fill="#99988d" d="M141 155l-42 5 9-11z"/><circle r="1" fill="#fbffff" transform="matrix(2.1427 -9.83145 27.44272 5.98095 25.6 38.6)"/><path fill="#fff" d="M100 16h3v12h-3z"/><path fill="#eff7f9" d="M122 44h17v19h-17z"/><ellipse cx="4" cy="7" fill="#95abb1" rx="3" ry="31"/><ellipse cx="161" cy="139" fill="#171415" rx="8" ry="52"/><path fill="#b6c5d1" d="M242 50l-22-66-5 56z"/><path fill="#fff" d="M73 112h5v14h-5z"/><path d="M102 30h14v21h-14z"/><path fill="#998e7c" d="M216 99l-11-45 14 7z"/><path fill="#050806" d="M206 116l-25-10-3 16z"/><path fill="#2d1a0d" d="M168 0h6v93h-6z"/><path fill="#8d7a5f" d="M168 99h39v3h-39z"/><path fill="#bbcfd7" d="M-10.6 136.6l-5.4-27.9 29.7 1.3-29.7 45.3z"/><circle r="1" fill="#054e51" transform="matrix(49.53658 -8.91304 .4501 2.50153 163 153.4)"/><path fill="#e6f2f7" d="M39.5 29.3l29-54.8 8 4.2-29 54.8z"/><path fill="#74532d" d="M157 27h8v28h-8z"/><path fill="#ae7d43" d="M84.5 61.7l-3-5.4 3.8-45.1 2 20.9z"/><path fill="#201a11" d="M117 154l-16-51 19 7z"/><path fill="#2a2720" d="M214 114h13v10h-13z"/><path fill="#2f4a54" d="M-3 156l8 28 1-56z"/><path fill="#73604d" d="M99.9 59.1L121 72.3l.9-14.8-21.8-9.1z"/><path fill="#fff" d="M142 105h3v5h-3z"/><path fill="#e7f1f6" d="M115-16h46l-6 72z"/><path fill="#5a4e46" d="M169 130h40v18h-40z"/><path fill="#b4a590" d="M67-16l43 36-25-36z"/><ellipse cx="209" fill="#7a7668" rx="7" ry="59"/><path fill="#fff" d="M8 0h29v44H8z"/></g></svg>