<svg xmlns="http://www.w3.org/2000/svg" viewBox="0 0 300 199"><defs/><path fill="#554536" d="M0 0h300v199H0z"/><g fill-opacity=".5" transform="translate(.6 .6) scale(1.17188)"><circle cx="79" cy="145" r="85" fill="#c2d0de"/><circle r="1" fill="#fff" transform="rotate(-100.5 11.8 13.1) scale(60.70835 40.25817)"/><path fill="#ffe5ff" d="M279.2 224.6L175.8 172l39-76.6L318.2 148z"/><path fill="#fff" d="M-5.5 63.4l-4.9-69.8 42-3 4.8 69.8z"/><ellipse cx="226" cy="4" fill="#dfffff" rx="85" ry="6"/><ellipse cx="34" cy="167" fill="#320000" rx="47" ry="25"/><ellipse cx="177" cy="119" fill="#c0a1a6" rx="87" ry="24"/><circle r="1" fill="#253315" transform="matrix(-2.73748 11.76363 -38.57272 -8.97615 42.8 87.2)"/><path fill="#c6d7e5" d="M139 77.2l-65.7-8.4 7 20.3 22.3 86.7z"/><circle r="1" fill="#250b00" transform="matrix(-48.17136 -45.42391 20.70196 -21.9541 136.4 47.3)"/><circle r="1" fill="#904941" transform="matrix(-16.54916 -10.74715 31.07531 -47.85178 182.3 138)"/><circle cx="15" cy="116" r="33" fill="#a2b6b8"/><path fill="#fce9dc" d="M78 25h8v60h-8z"/><path fill="#919da4" d="M121 47h15v114h-15z"/><path fill="#100e00" d="M48.4 53.5L71 36.6 35.9 81l55.7-23.7z"/><circle r="1" fill="#4d2200" transform="rotate(-165.4 118.6 22.4) scale(102.54618 24.65628)"/><ellipse cx="1" cy="20" fill="#fff" rx="29" ry="40"/><circle r="1" fill="#e0c8e1" transform="matrix(-20.08755 -15.75065 22.49262 -28.6859 247.8 153)"/><path fill="#20190d" d="M61.3 128l15-54.7-29.6 19.6 51.1 28.4z"/><circle r="1" fill="#a4b5cf" transform="matrix(-4.48772 12.67293 -50.06722 -17.72973 93 146)"/><path fill="#c2dfdb" d="M179 95l-11 26-26-22z"/><path d="M89.8 12.3l23.5-4.6 11 56-23.6 4.6z"/><path fill="#250900" d="M142 99l31-9-49-89z"/><circle r="1" fill="#1d1905" transform="matrix(-11.86178 -.08281 .34565 -49.50973 64 24.6)"/><circle r="1" fill="#401500" transform="rotate(-179 22.4 75.6) scale(18.69536 12.37835)"/><ellipse cx="39" cy="7" fill="#8ca786" rx="7" ry="78"/><ellipse cx="207" cy="36" fill="#744b1c" rx="53" ry="28"/><path fill="#fff" d="M75 100h18v9H75z"/><circle r="1" fill="#787157" transform="matrix(43.80379 -1.52275 .33119 9.527 134.7 0)"/><ellipse cx="16" cy="109" fill="#c6d9db" rx="48" ry="6"/><circle r="1" fill="#6b715a" transform="matrix(25.77495 -5.47864 3.41163 16.05047 22.3 82)"/><path fill="#eaeded" d="M85 75l-39 3 38-15z"/><path d="M47 121l7-16 1 19z"/><path fill="#c9e1f9" d="M82 170l25 9-31-44z"/><circle r="1" fill="#737c86" transform="matrix(-13.21634 6.44604 -9.96241 -20.42598 8.3 138)"/><path fill="#381800" d="M169 8l-5 58L96 8z"/><path fill="#ddebf4" d="M78.7 116.9l41.5-46.4-6.7-6.1-18.9 26.2z"/><path fill="#28301d" d="M35 83l58 10-60 11z"/><path fill="#1e1c0f" d="M58 101.5l18-18.7 8 7.7-18 18.7z"/><circle r="1" fill="#edffff" transform="rotate(-64.8 32.7 20.8) scale(55.78671 16.65913)"/><circle r="1" fill="#824f49" transform="matrix(12.04574 4.81795 -24.76297 61.91184 171 160.1)"/><path fill="#4f2e21" d="M75 108l14 6 7 21z"/><path fill="#e3dee7" d="M34.8 139.5l19.9-39.8 9.9 14-21.5-7.6z"/><path fill="#e9ffff" d="M81 65h6v42h-6z"/><circle r="1" fill="#b3d1d9" transform="rotate(-178.3 109.3 .5) scale(27.94163 5.36031)"/><path fill="#b3764b" d="M89.1 98.4l-6-54.7 25.1 27.5L90 96.4z"/><circle r="1" fill="#2d1400" transform="rotate(110.5 84 123.5) scale(8.91696 32.26659)"/><path fill="#565a43" d="M57.5 74l-16 .9-3-57 16-.8z"/><path fill="#8c8f8b" d="M136.9 68.3L121 30l1.1 41.8 28 90.4z"/><path fill="#9ba59d" d="M56 68L42 83l22 5z"/><circle r="1" fill="#aeacb1" transform="rotate(-115.2 118 26.7) scale(20.49307 10.52298)"/><path fill="#7c8896" d="M95.8 96.2l44.6-20.3-50.2 43 20.2 5.5z"/><path fill="#d4edfd" d="M109 147.5l-5.6 2-16.4-45 5.6-2z"/><circle r="1" fill="#361f12" transform="rotate(-22.8 430.6 29.4) scale(59.29023 5.41316)"/><ellipse cx="67" cy="34" fill="#786543" rx="2" ry="52"/><path fill="#311c0d" d="M125.2 48.7l-22.8 29.5-20.1-93.3 10.3 71.4z"/><path fill="#f3f3fe" d="M38.1 133.9l-2.1 9.9 10.5-21.3-.3-11.1z"/><circle r="1" fill="#bcdcd2" transform="matrix(8.91636 60.58838 -5.39315 .79367 29.1 12.8)"/><circle r="1" fill="#ad7758" transform="matrix(-13.47851 8.45266 -3.75799 -5.99244 52 169)"/><path fill="#18040d" d="M61 115h9v10h-9z"/><path fill="#e5d7cb" d="M88.7 82.6l15.4 5.3 15-7.9-30.9-10z"/><ellipse cx="145" cy="71" fill="#2a1200" rx="7" ry="30"/><path fill="#d1a387" d="M79.2 57.2l-4.5-13.5L83 20.5l6 13.4z"/><path fill="#9a6e5f" d="M220.8 108.3l43.6-.9-53.9-13.9-35.9 2.5z"/><path fill="#0a0700" d="M58 0h7v70h-7z"/><path fill="#869f94" d="M10.4 92.1L42 46l-52.1 27-5.9-24z"/><path fill="#8a6b4d" d="M85.8 91.1L53.3 70l-4.3-.2 20.1 1.8z"/><circle r="1" fill="#a0a1a2" transform="matrix(8.97787 9.7571 -68.26928 62.81703 114.6 161.3)"/><circle cx="92" cy="51" r="10" fill="#79462c"/><circle r="1" fill="#3b5055" transform="matrix(-10.2055 -.02184 .0727 -33.97557 0 167)"/><circle r="1" fill="#8090a2" transform="matrix(5.00341 -8.71122 3.19708 1.83629 79.6 123.8)"/><path fill="#051a0f" d="M57 82l-11 7 28 19z"/><path fill="#2e2d18" d="M67 42l19-52 4 24z"/><path fill="#110e0b" d="M70 58h17v4H70z"/><path fill="#c0d6e8" d="M109 152l12-51-33 48z"/><path fill="#6f503f" d="M74.6 141.4l-4.1 1L51.4 185h36.5z"/><circle r="1" fill="#bd8b9e" transform="matrix(13.90754 3.44443 -16.27292 65.705 210 165.2)"/><path fill="#ebfaff" d="M65 73l10-9 10 5z"/><path fill="#4a2b0c" d="M268.9 86l-40.6-60.5 5.5 11.3-55.6 58.1z"/><path fill="#706b50" d="M49.2 99.6l-17.1 2.3L7.3 58.5l40.2 25.7z"/><path fill="#cfdcdf" d="M57 104.6l-73 15.9 66.6-17.6 6.3-4.8z"/><path d="M114 29l-8 24 17 18z"/><path fill="#bb826f" d="M18 146.6l13.4-8.4.4 9L14.5 158z"/><path fill="#8c5f54" d="M167.9 185l-16.7-51.3 21-6.8 16.6 51.4z"/><path fill="#d7f0fd" d="M70 101l23-1-10 11z"/><path fill="#000f00" d="M76 89h7v6h-7z"/><path fill="#75767b" d="M121 124h6v46h-6z"/><path fill="#555954" d="M121.7 70l-3.3-34.5 8.5 2.1 8.4 20.4z"/><path fill="#755533" d="M180 9h47v32h-47z"/><path fill="#495164" d="M102 112l7 11-14-8z"/><circle r="1" fill="#5f3e1d" transform="matrix(30.46023 9.05915 -3.85825 12.97286 189 62.6)"/><path fill="#444439" d="M10.2 97.8l-1.8-.5-24.4 1.6V42.2z"/><path fill="#9fb3a4" d="M21 113.3l-37-16.9v2.4l56.3-.3z"/><path fill="#151005" d="M43 60h4v16h-4z"/><path fill="#1f0e03" d="M114 7.8l30.7 3.2 6-2.5-64 45.5z"/><path fill="#a7c6ca" d="M9.7 80L3.8 61.8l30-15-41.1 32.3z"/><path fill="#edfcff" d="M46 134h10v4H46z"/><circle r="1" fill="#fbffff" transform="rotate(-96.5 6.8 7.6) scale(41.55496 14.76896)"/><path fill="#785e63" d="M108 27h5v8h-5z"/><path fill="#fff" d="M54 74l-1 8 6-8z"/></g></svg>