<svg xmlns="http://www.w3.org/2000/svg" viewBox="0 0 300 199"><defs/><path fill="#303c5c" d="M0 0h300v199H0z"/><g fill-opacity=".5" transform="translate(.6 .6) scale(1.17188)"><circle r="1" fill="#ffffd5" transform="matrix(-109.50639 3.23517 -7.53023 -254.8888 30.8 86.5)"/><circle r="1" fill="#fff" transform="matrix(13.04784 -43.21653 28.00979 8.45665 230.9 163.5)"/><circle r="1" fill="#ffd292" transform="rotate(98.8 70.7 70.7) scale(17.61446 100.73707)"/><circle cx="33" cy="128" r="58" fill="#fff7f6"/><circle r="1" fill="#440400" transform="matrix(3.49154 23.93361 -57.91531 8.44893 146.9 120.8)"/><path fill="#ffffb7" d="M263 178l-193 7 47-42z"/><circle r="1" fill="#aa784f" transform="matrix(4.77493 -71.1816 30.83044 2.06813 255 60.4)"/><path fill="#a94e00" d="M118 59l2 50-62-50z"/><path d="M128 28h33v28h-33z"/><ellipse cx="167" cy="47" fill="#d3d0bb" rx="8" ry="45"/><path fill="#271100" d="M172.3 109.7l5.5-78.8 49.9 3.4-5.5 78.8z"/><circle r="1" fill="#f0fdff" transform="matrix(29.22356 2.87088 -2.55424 26.00035 236.4 157.5)"/><path fill="#99b0be" d="M201 103h30v29h-30z"/><circle r="1" fill="#ecded7" transform="matrix(-41.1834 11.4521 -3.16704 -11.38913 138.6 15.7)"/><circle cx="163" cy="120" r="35" fill="#271300"/><circle r="1" fill="#d3b697" transform="rotate(-101.2 41.6 -6.3) scale(37.35203 75.76336)"/><circle cx="129" cy="85" r="16" fill="#ffe2df"/><circle r="1" fill="#ffdbb5" transform="matrix(-1.33564 12.49791 -48.49678 -5.18281 149.8 166.7)"/><path fill="#002700" d="M5.4 94l4.8 22.6-15.6 3.3-4.8-22.5z"/><circle r="1" fill="#56391c" transform="rotate(139.8 100.4 36.7) scale(26.17491 22.19569)"/><path d="M231 58l20-27 1 36z"/><path fill="#955426" d="M177.2 91.8l-32 2.3-2.4-36 32-2.2z"/><path fill="#d8ffff" d="M34 46l-21 70-5-57z"/><path fill="#7d5b1d" d="M116.6 82.3L70 91.9 56.4 81.5l29.5-25.8z"/><path fill="#b97623" d="M101 148.2L79.6 126 117 89.8l21.6 22.3z"/><path fill="#982611" d="M49.3 126.1l11.5 1.8-4-15.5-12.6 4.6z"/><circle r="1" fill="#b0949b" transform="matrix(8.58295 -4.05714 13.65088 28.87866 239 84)"/><circle r="1" fill="#f3ffff" transform="matrix(-11.04407 -3.40823 10.95405 -35.4956 16.2 157.4)"/><circle r="1" fill="#130700" transform="matrix(9.54673 -9.48032 15.50619 15.61482 188 144.8)"/><path fill="#ffe6e3" d="M76 88l-35 83 62-77z"/><path fill="#0b0000" d="M139.9 75.4l-10.7-42.7 40.3-9.9-10.1 11.8z"/><circle cx="211" cy="83" r="19"/><ellipse cx="169" cy="43" fill="#93d2fe" rx="8" ry="15"/><path fill="#dbbabc" d="M187.9 104l1-5 33.2 7-1 5z"/><circle r="1" fill="#4e2800" transform="matrix(-8.88695 27.07288 -17.82727 -5.85198 142 122)"/><path fill="#2b0000" d="M32 144h5v14h-5z"/><path fill="#e3c4b4" d="M81 31h43v30H81z"/><path fill="#ffcb80" d="M221 14l12 15-48 7z"/><path fill="#58582c" d="M60 96h15v9H60z"/><ellipse cx="187" cy="29" fill="#694a28" rx="7" ry="66"/><ellipse cx="4" cy="69" fill="#004b04" rx="4" ry="8"/><path fill="#cf9148" d="M80.4 152.6L94.9 185l19-43.2-9.7-.3z"/><path fill="#5c6979" d="M193 125l75-58 3 60z"/><path fill="#ffffac" d="M251 64l7 15-2-36z"/><path fill="#e5e7fc" d="M149.2 89l-17.3 1.7-12.2-22.3 6.4-10.6z"/><path fill="#d57f47" d="M155.7 151.7l76 21.8-1.4 4.8-76-21.8z"/><path fill="#c3815b" d="M60 185l13-44-17 5z"/><circle cx="52" cy="2" r="56" fill="#b89e85"/><circle r="1" fill="#ffe6ef" transform="rotate(84 -52 89.8) scale(53.6749 6.87247)"/><path fill="#9b8371" d="M33.3 94.4l-8 25.8-8.6-2.6 8-25.8z"/><ellipse cx="150" cy="9" fill="#d2cac2" rx="28" ry="17"/><path fill="#0c110f" d="M166.7 23.4l16.8-.3-12.6 138.3 13.7-123.8z"/><path fill="#4b596a" d="M-.1 151.7l5.4-16.2-21.3-4 30.7 5.8z"/><path fill="#624f37" d="M167.3-20l13.4-22.2 120 72.1-13.4 22.3z"/><path fill="#fff" d="M92 134l-21 14 25-3z"/><path fill="#d0f1f1" d="M9 62l55 26-49 19z"/><path fill="#e0b47d" d="M67.4 133.6l34.7-36.2 26.1 3.3-46.9 22.9z"/><path fill="#4a7f5e" d="M29.7 69.6l26-2.2.6 7-26 2.2z"/><path fill="#a1eec1" d="M76 62l-25 2 32 18z"/><path fill="#0b0b08" d="M202 159l-11-65-58 52z"/><path fill="#b2a6ae" d="M221 110l20-42 2 26z"/><path fill="#000f20" d="M204 144l11-5-1-10z"/><path fill="#e6f3f3" d="M54.5 77.9l-10.5-6L46 51 33.5 69.5z"/><path fill="#ad7659" d="M129.8 63.9l4.7-8.9 39.7 21.1-4.7 8.9z"/><path fill="#edd0b1" d="M49 176l176 3-77-29z"/><ellipse cx="218" cy="113" fill="#14222a" rx="29" ry="3"/><path fill="#2d0200" d="M252.6 74.2L249 63.8l2.2-27.8-22.8 18.4z"/><circle r="1" fill="#190200" transform="rotate(111 51.2 67.5) scale(16.44906 3.10852)"/><ellipse cx="208" cy="50" fill="#b69f5f" rx="7" ry="5"/><circle r="1" fill="#040300" transform="matrix(-1.28017 -29.62023 6.9383 -.29987 200 63.4)"/><path fill="#fc9a88" d="M224.3 58.6l14.4 4.2-3 10.6-14.4-4.2z"/><path fill="#f79c8d" d="M49.6 103.7L47.4 133l-31.9-20.9 63.4 13.5z"/><path fill="#a96930" d="M73.7 86.3l38.6 8.9L126.6 58l-25.3 3.7z"/><path fill="#e3faff" d="M32.5 140.7l-43.7-15.3 36-6.8-40.5 66.4z"/><path fill="#000043" d="M141 74h14v8h-14z"/><ellipse cx="17" cy="77" fill="#3b8248" rx="5" ry="3"/><path d="M129 30l11 26 20-31z"/><circle r="1" fill="#598ab0" transform="matrix(3.60784 6.29965 -8.55277 4.89822 167.2 30.7)"/><circle cx="60" cy="68" r="6" fill="#ffffeb"/><path fill="#573f14" d="M81.5 62.5v1l-39-2v-1z"/><path fill="#a38160" d="M227 62.7l1.6-57.9 17.1 30.6-9.1 11.5z"/><path fill="#090802" d="M173 53h10v63h-10z"/><path fill="#719dbd" d="M197 119h31v9h-31z"/><path fill="#cfddf5" d="M224 128l-23 33 60 15z"/><path fill="#dd9d66" d="M109.9 141.5l-25.6 6.4 84.2 9.3-44-12.5z"/><ellipse cx="244" cy="123" fill="#324054" rx="20" ry="4"/><path fill="#72431b" d="M106 121l62-17-19-18z"/><path fill="#ebfaff" d="M69 91h32v6H69z"/><path fill="#a47038" d="M103 86h29l-29 15z"/><path fill="#793f36" d="M48 120h18v6H48z"/><path fill="#6c8369" d="M30.3 108.5h-5l.4-19h5z"/><path fill="#c9c4c6" d="M215.6 144.6l1-18 51.8 2.8-1 18z"/><path fill="#def7ff" d="M0 160h54v10H0z"/><path fill="#9d7342" d="M184.2 13.6L166.6-16l16.9 50.8 25.9-2.1z"/><path fill="#7f5922" d="M53.1 74.8l61.8-12-36.4-2.2 5.3 14z"/><path fill="#2a1b10" d="M150.1 85.4l17.1 4.6-44.3 55.1 69.8 15.9z"/><ellipse cx="184" cy="59" fill="#896b48" rx="2" ry="41"/><path fill="#56483f" d="M271-2l-84 22-15-36z"/><path fill="#9c7843" d="M88.7 180.1l-2.8-23.5-3.7-5.3 21-1.7z"/><ellipse cx="33" cy="151" fill="#724f46" rx="6" ry="5"/></g></svg>