<svg xmlns="http://www.w3.org/2000/svg" viewBox="0 0 300 199"><defs/><path fill="#564329" d="M0 0h300v199H0z"/><g fill-opacity=".5" transform="translate(.6 .6) scale(1.17188)"><circle r="1" fill="#fff" transform="matrix(-49.6654 5.22004 -17.60825 -167.53128 123 86.6)"/><circle r="1" fill="#faf5fe" transform="rotate(75.6 -15.2 143.5) scale(57.82827 42.26017)"/><ellipse cx="243" cy="108" rx="33" ry="111"/><circle r="1" fill="#878983" transform="matrix(-24.29217 -99.6505 37.00693 -9.02132 169.5 16.4)"/><circle r="1" fill="#897b63" transform="matrix(-32.75507 -12.46703 31.27568 -82.17173 72.7 31.6)"/><circle r="1" fill="#060301" transform="rotate(135.7 -23.5 82.4) scale(35.12947 127.44981)"/><circle r="1" transform="rotate(33.5 -128.4 449.8) scale(28.73792 163.69461)"/><path fill="#645a4d" d="M138.9-15.3l2.6 116.1-12.7-65.4L28.4 5.7z"/><path fill="#a7877a" d="M184 156l-112 6 6-39z"/><circle r="1" fill="#f5ffff" transform="matrix(-15.35427 36.70557 -12.69434 -5.31016 142.5 109.2)"/><circle r="1" fill="#797264" transform="matrix(-20.94282 7.4948 -35.44648 -99.04851 171.2 36.7)"/><path fill="#948367" d="M49 24h34v87H49z"/><path fill="#d7d9e1" d="M71 162L96 43l36 4z"/><path fill="#342616" d="M175.6 108.1l-6.4-3.6 2.1 36.8 18 43.7z"/><ellipse cy="101" rx="7" ry="112"/><path fill="#6c8aa3" d="M175.7 151.6l4.4 31.7-21.8 3-4.4-31.6z"/><path fill="#040000" d="M213 52h43v118h-43z"/><circle r="1" fill="#877c65" transform="rotate(70.3 97.2 143.5) scale(13.43946 67.45871)"/><circle r="1" fill="#e8f5fc" transform="rotate(-169.1 63.2 51.2) scale(35.75746 16.00259)"/><circle r="1" fill="#d4aea4" transform="rotate(84 27.5 93.5) scale(29.05617 17.76916)"/><path fill="#29251f" d="M83.8 135.6l5.2 45.2-30-57 2 61.2z"/><path fill="#e1e4e9" d="M109.9 160.3l29.8-55.3 7.9-63.8 19.8 60.9z"/><path fill="#dcf0fe" d="M89 159h63v11H89z"/><circle r="1" fill="#85785f" transform="rotate(13.7 -140 326.4) scale(25.3042 67.34773)"/><circle r="1" fill="#2f2b2b" transform="matrix(9.89243 -21.70696 24.69984 11.25637 237.6 29.3)"/><circle r="1" fill="#39373f" transform="matrix(-4.3054 -10.97743 5.9417 -2.33036 133.4 32.6)"/><path fill="#524128" d="M10 109h70v15H10z"/><path fill="#b88064" d="M125.2 94.7l8.7-56.6 4.3 51.6 2.4-5.4z"/><path fill="#8aa2b2" d="M71.5 182.2l3-42.9 6 .5-3 42.9z"/><path fill="#c58466" d="M124 162l-41-7 6-30z"/><path fill="#7c7361" d="M219 4l-84-5 38 112z"/><ellipse cx="189" cy="135" fill="#544733" rx="17" ry="22"/><circle r="1" fill="#c5c4cb" transform="rotate(-101.7 144 2.2) scale(28.43857 3.25378)"/><path fill="#53514b" d="M237 62h6v35h-6z"/><path fill="#5a4b3c" d="M9 32h21v105H9z"/><path fill="#cddadd" d="M97.5 53.2l11.5 8.7-34.3 85.9 8.2-53.4z"/><path fill="#0a0001" d="M212 49h25v121h-25z"/><path fill="#aa9e9e" d="M105 26h8v61h-8z"/><path fill="#1c0002" d="M178 159h78v11h-78z"/><path fill="#69696d" d="M162 181l-5-29 12-5z"/><path fill="#251d26" d="M137 51h3v23h-3z"/><path fill="#94856c" d="M61 49h21v59H61z"/><path fill="#f0cfc5" d="M105 29h20v10h-20z"/><path fill="#030000" d="M12.7 140.4l8.2 20.3-23.3-7.9 10.9-30z"/><path fill="#77736d" d="M168 62h44v48h-44z"/><path fill="#66453d" d="M112 156h30v2h-30z"/><circle r="1" fill="#4f3b1e" transform="matrix(4.89758 -3.00994 7.40725 12.0526 177 120.6)"/><path d="M70.8 162.6l.4 12-24 .8-.4-12z"/><path fill="#0b111c" d="M87 154l-5 28-3-30z"/><path fill="#352a1e" d="M212 13h25v36h-25z"/><path fill="#d8beb1" d="M101.6 156.7l11.1 1.8 16-25.3 43.3 17.1z"/><circle r="1" fill="#6c5a44" transform="matrix(24.95053 -42.07892 17.07153 10.1225 57.5 13.2)"/><path fill="#745e51" d="M110.1 148.3l-2-8.8 7.8-1.8 2 8.8z"/><path fill="#ebbea0" d="M113.1 144.4l1.3 15.3-27.7-17.1 14.8-1.1z"/><path fill="#93927f" d="M262-16l-46 27-4-27z"/><path fill="#231703" d="M25 131h50v6H25z"/><path fill="#78613d" d="M26.3 148.5l68.8-9.2-64.3 5.5-14.7 3.8z"/><path fill="#1b0605" d="M271 174.5L196 185l8-44.7 67 20z"/><circle r="1" fill="#343d46" transform="matrix(4.35062 8.887 -21.24021 10.39811 253.2 0)"/><path fill="#a2b0b9" d="M153.8 53.1l-15.3-32.7 4.7 62.4 6.8-6.7z"/><circle cx="230" cy="21" r="2" fill="#fcf3ef"/><path fill="#d1dee8" d="M148 135.7l-30.9 8.2-3.1-11.6 30.9-8.2z"/><circle r="1" fill="#45361f" transform="matrix(-1.07524 -7.10546 25.4168 -3.84622 19.9 163.6)"/><path fill="#f2c5ad" d="M122 33h8v45h-8z"/><circle r="1" fill="#eededd" transform="matrix(9.38454 -1.61735 4.70118 27.2782 158.4 107.1)"/><path fill="#bfccd7" d="M91 161l35-2-56 26z"/><ellipse cx="112" cy="44" fill="#bd8e7e" rx="5" ry="17"/><circle r="1" fill="#d5ced1" transform="matrix(-7.39096 -1.17061 4.4379 -28.01982 116.2 84.1)"/><path fill="#f1f9fd" d="M152 97l-14 29-38-11z"/><path fill="#3e4b58" d="M111 21h20v6h-20z"/><path fill="#131311" d="M214 38l-1-24 14-2z"/><path fill="#513e24" d="M70.9 113.6l-69.1-8.9 71.9 35.1 8.3-37.6z"/><path fill="#696359" d="M212 119.1L211.8-16l-19.9 74.5 19.9 89.1z"/><path fill="#533b27" d="M218 36h26v13h-26z"/><ellipse cx="16" fill="#463b31" rx="15" ry="52"/><circle r="1" fill="#c79067" transform="matrix(4.46238 4.19009 -4.40538 4.69166 136.6 151.5)"/><ellipse cx="11" cy="45" fill="#666152" rx="2" ry="43"/><circle r="1" fill="#827c69" transform="rotate(137.6 42.4 26.4) scale(29.70627 20.54291)"/><ellipse cx="170" cy="168" fill="#a8b1b9" rx="5" ry="32"/><path fill="#aa6953" d="M84 156h13l-15-22z"/><path fill="#010102" d="M242 55h14v67h-14z"/><path fill="#e9f1f7" d="M148.9 156.8l14.2 27.4-51 .8 17.9-23.3z"/><circle r="1" fill="#e1e8eb" transform="matrix(2.66453 .36256 -4.5695 33.58223 100.7 81)"/><path fill="#59482e" d="M175 142l-6-27 45 25z"/><path fill="#694b48" d="M133 37h4v31h-4z"/><path fill="#2e2312" d="M71 162l4-24-25 19z"/><ellipse cx="176" cy="77" fill="#827b6f" rx="13" ry="31"/><path fill="#382a14" d="M68.9 157.6l-55.8-32.3 16-7.8 5.9-4.8z"/><path fill="#695239" d="M25 36h12v76H25z"/><path fill="#a1b1b9" d="M93 62l15-39 1 21z"/><path fill="#262422" d="M239 132l9-10 23 15z"/><path fill="#5b3e39" d="M90 127.7l10.7 12-.7.6-10.7-12z"/><path fill="#c2d2d7" d="M79 122h36v8H79z"/><path fill="#010000" d="M241 133l-37 25-2-14z"/><circle r="1" fill="#8c7b61" transform="matrix(-5.27978 -11.74537 17.42539 -7.83306 66.3 97)"/><path fill="#5d5458" d="M106.5 42.1L108 41l3.4 4.9L110 47z"/><path fill="#8b948d" d="M95.6 55.6l14.1-36.2 32.2 2-31.9-10z"/><path fill="#dba78d" d="M136.7 49.5l-7.8 20.7-4.1 10.8 3.1-35.1z"/><ellipse cx="8" cy="71" fill="#3c3831" rx="3" ry="36"/><circle r="1" fill="#eee9de" transform="matrix(4.46018 -.12916 .11397 3.93565 120.2 152)"/></g></svg>