<svg xmlns="http://www.w3.org/2000/svg" viewBox="0 0 300 199"><defs/><path fill="#434444" d="M0 0h300v199H0z"/><g fill-opacity=".5" transform="translate(.6 .6) scale(1.17188)"><circle r="1" fill="#fff" transform="matrix(4.20509 146.23908 -190.32468 5.47277 147.4 74.7)"/><circle r="1" fill="#fff" transform="matrix(73.9446 -32.19884 101.80548 233.79616 180.8 49.3)"/><circle r="1" fill="#fff" transform="rotate(-12.8 232.5 -68) scale(22.10793 109.40046)"/><ellipse cx="110" cy="80" rx="26" ry="15"/><path fill="#454444" d="M55 123L37-16l54 99z"/><circle r="1" transform="matrix(-70.62644 8.16533 -.33358 -2.88531 183.7 16.5)"/><path d="M-5-4L13 96l-29-20z"/><path fill="#f8f7f7" d="M81 28h146v45H81z"/><path fill="#fcfbfb" d="M86 92h18v70H86z"/><path d="M258.3 138.2l-134.6-23.9 67.7 15.2L271 148z"/><circle r="1" fill="#ecebeb" transform="rotate(-125.4 111.2 38.2) scale(39.32293 22.43649)"/><ellipse cx="111" cy="122" fill="#030202" rx="6" ry="14"/><path fill="#1b1b1b" d="M87.5 67.4l6.3 28.3 18.2-9-16-27.5z"/><circle r="1" fill="#fff" transform="matrix(.49292 10.6288 -57.70291 2.676 135 7)"/><circle r="1" fill="#fff" transform="rotate(162 8.4 7.1) scale(21.22031 21.95463)"/><circle r="1" fill="#e1e0e0" transform="matrix(-14.82903 -56.57237 19.90195 -5.2168 36.4 127.5)"/><ellipse cx="221" cy="81" fill="#f8f7f7" rx="84" ry="18"/><path fill="#1a1919" d="M52.2 34l-.5-3 92.1-13 .5 3z"/><circle r="1" fill="#1a1a1a" transform="matrix(3.22266 -.4544 8.95761 63.52938 48.2 56.4)"/><path d="M70.3 28.7l-78.4 9.6-.2-1 78.4-9.6z"/><ellipse cx="220" cy="29" fill="#fff" rx="75" ry="13"/><ellipse cx="65" cy="43" fill="#8b8a8a" rx="14" ry="59"/><path fill="#9a9999" d="M274.6 130.7L162.7 109l2.7-13.7L277.3 117z"/><ellipse cx="245" cy="51" fill="#aaa9a9" rx="34" ry="13"/><path fill="#090808" d="M254 9.3l-37.3 7.3-.7-4 37.3-7.2z"/><path fill="#fff" d="M193 12.8L191.6 3 261-6.8l1.4 9.9z"/><path fill="#4d4d4d" d="M80 55.5l-6 .7-6-57.7 6-.7z"/><path fill="#fff" d="M139 16L76-8l3 32zM44.5 50.4l-28.7 4-2.3-16.8 28.7-4z"/><circle r="1" fill="#939393" transform="matrix(-29.35527 -9.00133 2.04125 -6.65696 113.6 68.2)"/><path fill="#706f6f" d="M28.5 165.1l-32.7 2.5 15.1-58.5-22.9 17.5z"/><path d="M112 95l-9-4 21-17zm40.1-77.5l-24.9 4.6 47.9-3.1 6-3.1z"/><path fill="#f4f3f3" d="M201 126l-70-42-16 23z"/><path fill="#f9f9f9" d="M79 29h76v20H79z"/><circle r="1" fill="#1c1b1b" transform="rotate(12.1 -477 678.8) scale(230.67758 1)"/><path fill="#e5e5e5" d="M120.8 90.1l7.1 27.7-20.6 12.7 9.4 3.9z"/><path fill="#eee" d="M74.2 118.3l2.9-10.9 23.2 3.9 2.9 26.8z"/><path fill="#aaa" d="M60.5 43.9l11-1.4 6 49.6-11 1.4z"/><path fill="#838282" d="M82.3 129.9l8.2 13.8-34.8 40.1 6.6-50.1z"/><path fill="#f9f8f8" d="M203 127l68 14v-18z"/><path fill="#979696" d="M12.1 71.1L5.8 61l16-10 6.5 10z"/><path fill="#707070" d="M164 94h13v13h-13z"/><path fill="#ececec" d="M51 99l6 45L3 89z"/><path fill="#302f2f" d="M78 88h6v17h-6z"/><path fill="#f5f4f4" d="M35.6-16l5.1 45.8-56.7-3.3h8.9z"/><ellipse cx="206" cy="13" rx="14" ry="2"/><path fill="#ededed" d="M216 13h40v27h-40z"/><path fill="#191919" d="M97.6 71.6l19.9 54.1-12.1-1.1 8.5-38.1z"/><path fill="#222121" d="M128 71h9v8h-9z"/><path fill="#1f1e1e" d="M172.9 20L271 6.5l-33.8.5-98.5 14.6z"/><path fill="#bcbbbb" d="M81 141h26v29H81z"/><path fill="#ebeaea" d="M142.8 115.8L265 140.5l-54.8-18.6-9.6-12.8z"/><path fill="#fefefe" d="M85 35l7 28-9 7z"/><ellipse cx="255" cy="165" fill="#b4b3b3" rx="43" ry="14"/><path fill="#e8e8e8" d="M134 119l78.5 15.3L208 157l-78.6-15.2z"/><path fill="#272727" d="M83 103l-31 1 2 8z"/><path fill="#f7f7f7" d="M93 106L82 85l24 12z"/><path fill="#c4c4c4" d="M48 117.3l23.6-10-47.1 48.6 42.7 4.6z"/><path fill="#9c9c9c" d="M233.6 119.3l-1.2-10.5 6-53.3-11.2 67.4z"/><path fill="#e9e8e8" d="M32.6 93.9l17.6-7.5-5.7-32.8-21.3 17.1z"/><path fill="#050505" d="M46 23L38 5l5-12z"/><path fill="#787878" d="M148.7 107.7l-7.9-6.2 2.5-3.2 7.9 6.2z"/><path d="M142.2 118l.3-1 165.3 35-.3 1z"/><path fill="#d6d6d6" d="M116 70.3l13.3 10.5-13-38.5-6.9 10.8z"/><path fill="#3d3c3c" d="M4.4 53.7L-16 102.2l27.8-16.6-3.7-14.9z"/><ellipse cx="119" cy="136" fill="#636363" rx="10" ry="2"/><path fill="#e1e1e1" d="M125.4 88.5l5.8 21.1 10.3-65.8 89.8 7.6z"/><circle r="1" fill="#363636" transform="rotate(-6.9 34 -563.6) scale(1 104.59866)"/><path fill="#8c8c8c" d="M57.8-13.1l4.3 40.8-14 1.4L44-11.7z"/><path fill="#cdcdcd" d="M77.8 50.2l-1 .2-6.6-54.6 1-.2z"/><path fill="#070707" d="M7 158l-23 10 9-11z"/><path fill="#242424" d="M123 91l-8.4-11.2L121 75l8.4 11.2z"/><path fill="#dbdada" d="M182.9 128.4l73.3 15.1L155 176.8l-41.5-64.1z"/><path fill="#f3f3f3" d="M115-16L235 5 89 23z"/><path fill="#838383" d="M116.9 138.2l-14-18.3-1.4 1.8 7.8 29.4z"/><path fill="#202020" d="M96.1 67l-9.2 24.6 23-8.7-25.3-2.8z"/><path fill="#dedede" d="M82 43h3v41h-3z"/><path fill="#9f9f9f" d="M50 31h19v17H50z"/><path fill="#ececec" d="M116 109l45 8-43-26z"/><path fill="#ddd" d="M85.3 125.6l20-6 7.3-17.8 38.5-26.9z"/><path fill="#ededed" d="M164.8 20.4l92.5-7.9L97.6 63.6 112.2 28z"/><circle cx="93" cy="59" r="2"/><circle r="1" transform="matrix(1.85456 2.6984 -8.65393 5.94768 99.7 84)"/><circle r="1" fill="#080808" transform="rotate(-6.7 229.4 -1523.4) scale(40.44492 1)"/><path fill="#646363" d="M125.7 88l13.2-4.4-23.6-4.6-10.2-22.1z"/><path fill="#8d8d8d" d="M237 64.5l-1-.2 13-66.8 1 .2z"/><path fill="#3b3b3b" d="M94 92l7-27-11 8z"/><path fill="#434343" d="M81.7 74.6l.8-4.1-6.4-41.9 5.5 57.2z"/><path fill="#8e8e8e" d="M80.3 86.1l4.7 17.5-30.5-53.5 16.3 62.1z"/><path fill="#909090" d="M116.4 68l-18.8 2.6 18 9-11.2 7.4z"/><path fill="#999" d="M43 29h2v46h-2z"/><path fill="#e2e2e2" d="M229.5 91.9l-2.3 12.8L144.5 90l2.3-12.8z"/><path fill="#c6c6c6" d="M230.7 120l-58.1-5.7 18.9-14.8 55.5 42.7z"/><circle r="1" fill="#8e8d8d" transform="matrix(-2.88966 -1.11503 2.66134 -6.89703 116.9 94)"/><path fill="#858585" d="M87.6 158.3L50.9 167l15.5-10.7-8.2-39.3z"/><path fill="#d7d7d7" d="M137.8 149.6l-14.1 9-.6-27.3-15.5-1.5z"/><path fill="#f4f4f4" d="M5 39h34v13H5z"/><path fill="#edecec" d="M271 110V94l-53 6z"/><path fill="#ededed" d="M138.9 61.1l-1.1 36.6 13.7-12 52.1-5.6z"/></g></svg>