<svg xmlns="http://www.w3.org/2000/svg" viewBox="0 0 300 199"><defs/><path fill="#4c2b25" d="M0 0h300v199H0z"/><g fill-opacity=".5" transform="translate(.6 .6) scale(1.17188)"><path fill="#a0aeb2" d="M266 148L204-16l-56 201z"/><path fill="#f5ffff" d="M151.4 78.8L22.2-16 20.9 2l42.5 22.2z"/><path fill="#f9ffff" d="M170.6 39.5l-19 1-2.2-44 19-1z"/><circle r="1" fill="#000006" transform="matrix(-27.44874 -.8135 5.27051 -177.83354 126 154.4)"/><path fill="#fff" d="M185 43l28-41 42-18z"/><circle r="1" fill="#58676d" transform="matrix(-18.47073 -75.76999 35.6321 -8.68617 52.2 111)"/><path fill="#e2ffff" d="M111 28L92-11l38 40z"/><path d="M207.4 81.9L271-16l-60.9 42.1L193 69.6z"/><path fill="#d0beb3" d="M170 77h67v25h-67z"/><path fill="#c8dfe5" d="M54 43l-2.2 6.7L-12 29l2.1-6.7z"/><ellipse cx="3" cy="121" fill="#000003" rx="12" ry="73"/><circle r="1" fill="#4a3b37" transform="rotate(-110.3 157.7 -8.6) scale(59.89004 15.1336)"/><path fill="#00080e" d="M57 88L-6-16l68 41z"/><path fill="#a5b8c3" d="M223.5 58.2l45.2-27.4-57.9 22.6L269.7 170z"/><path fill="#bba293" d="M72 105l13-29H26z"/><path fill="#e6eef1" d="M169.5 58.3l49.9-56.4L248.2-16l-67.7 73.3z"/><circle r="1" fill="#000507" transform="matrix(-29.47975 -41.6114 25.53843 -18.0928 124.6 125.4)"/><path fill="#daf0fd" d="M99 43L12-6 64 7z"/><path fill="#f8ffff" d="M150-16h18l-16 64z"/><path fill="#122f3f" d="M161 66l6-82h56z"/><path fill="#032335" d="M104 45L25.7-12 38-29l78.5 57z"/><circle r="1" fill="#8a8d92" transform="rotate(105.1 -15.9 56.4) scale(49.77842 5.24689)"/><circle r="1" fill="#979ba6" transform="matrix(13.98692 -10.9669 21.34305 27.2204 192.4 152.7)"/><path fill="#140000" d="M156.7 109.8l56.6 23.8 7.4-6.2-91.8-33.6z"/><circle r="1" fill="#dfd7d2" transform="matrix(48.39486 15.25884 -.5417 1.71806 39 41.4)"/><path fill="#2b1916" d="M24 181L57 36l4 84z"/><path fill="#010000" d="M203 46h14v33h-14z"/><path fill="#000307" d="M271 85l-18 15-36-59z"/><circle r="1" transform="matrix(5.75603 -10.43121 7.55973 4.17152 24 73.1)"/><path fill="#90a3aa" d="M220.7 71.9l-3.1-9.5L261.3 48l3.1 9.5z"/><path d="M54 47L-8 31l20 17zm73-12.2L113.6-5.3 154.1-16l-7.3 57.7z"/><path fill="#c6d6ab" d="M144 79l10-9 19 2z"/><circle r="1" fill="#8998a5" transform="matrix(-.52158 -29.88102 12.93316 -.22575 239.3 114.1)"/><path fill="#dccec7" d="M195 107.9l-15.9 2L175 76l15.9-2z"/><path fill="#89878b" d="M153.3 33.8l48.6-4.2 14.7 11.2-50.8-.5z"/><path fill="#000108" d="M223.7 21.2L257-20l23.3 18.8L247 40z"/><path fill="#b8c5c7" d="M2.2 49.3l38.9 2.9 6.1 6L-13.4 40z"/><path fill="#401601" d="M210.1 56.1l-7.6-26.3-9.9 45-31.1-5z"/><path fill="#feffff" d="M153.7 46.4l-4.4 17.5-1-.3 4.4-17.5z"/><path fill="#4a5656" d="M104 83L89 57l56-2z"/><path fill="#c8c3c3" d="M233 80.5L200.3 100l3-14.4 25.8-19z"/><path fill="#c1cbe0" d="M102 15l-1-31 20 48z"/><path fill="#324353" d="M206 131l18 54 47-33z"/><circle r="1" fill="#000c17" transform="rotate(24.6 -25.2 5.5) scale(58.79764 13.18008)"/><path fill="#d5d0d3" d="M226 47.7l-4.6 21 3.7 3.6-11.2-22.4z"/><path fill="#788a98" d="M47 37l54.1-1.1-1 7.8-49.3-.3z"/><path d="M72.4 71.8l3.4-19.7 11.8 2L84.2 74z"/><path fill="#fff" d="M61.5 23.8L-2.7-16l74 36 1.9 7.9z"/><ellipse cx="23" cy="57" fill="#e2eef5" rx="12" ry="2"/><path fill="#65646d" d="M34 185l75-73-58 14z"/><path fill="#00010b" d="M32 185l-48-9.7 6.6-173L17 148.7z"/><path fill="#1d130e" d="M19.5 128.9l80.9-35.2-22.1-30.1 10.9 52.2z"/><path fill="#f4fdff" d="M219 18.6l25.1-28.2-6.4-6.4-45.5 53.1z"/><path fill="#f3faff" d="M118.7 57.8L86.7 37l.6-.9 32 20.7z"/><path fill="#a29d9b" d="M45.6 78.7l-8.5-7.9 20.5 44.4-5.8-31.6z"/><path fill="#7b8a8f" d="M119.2 18.2l-.3 9.8 24.5 37-4.4-12.9z"/><path fill="#fff" d="M-3.1 11.5l1.4 20.3L22 38-2.2 24.2z"/><path fill="#000303" d="M157 169l-65-17 53-99z"/><path fill="#8d4b25" d="M211 87h13v39h-13z"/><path fill="#aab9c2" d="M231-4l-3 56h-1l3-56z"/><circle r="1" fill="#bcbebe" transform="matrix(2.19235 -3.89079 8.89749 5.01348 64.6 93.4)"/><path fill="#0a0000" d="M44.4 54.5l9.7 38.3 4.8-46.5-49-2.4z"/><path fill="#4e5865" d="M103.7 34.4l-12 6.6 21.9-15.8-25-41.2z"/><path d="M224 52l34-11-20 15z"/><path fill="#866f65" d="M148.8 113.6l-6.2 6.9 12.2-28.1 8.4-.7z"/><circle r="1" fill="#373a48" transform="matrix(11.51796 35.21722 -16.66096 5.44905 28.4 145.3)"/><path fill="#091610" d="M155 92.1l-53.5-23.7 68 11.5 6.2 9.1z"/><path fill="#221d21" d="M224.7 12.6l.6.8-46 40-.6-.8z"/><path fill="#150000" d="M217.8 74l-3.3-28-15.7 44.9 9.4-11.4z"/><path fill="#d9e4ec" d="M120 49v8l6 2z"/><path d="M137 13.6l-19.6 7.6L111 4.4l19.6-7.6z"/><path fill="#ae9584" d="M174.8 108.2l27 12.1 3.2-22.1-39 5.7z"/><path fill="#030c0b" d="M265.4 50.4l-9.6 55.9-24.4-44.6 20.4-6.2z"/><path fill="#e4b198" d="M192.9 44.8l3.3 10.5-9.8 4.5-.5-24.3z"/><circle r="1" fill="#807d7c" transform="matrix(-17.38137 2.0111 -.35912 -3.10378 252.2 62.3)"/><path fill="#555d67" d="M247.8 127.8L218.9 185l52.1-47.2L244.1 86z"/><path fill="#00090f" d="M198.9 30.8l56.3-23-28.7 42 41.3-21.7z"/><path fill="#b0aead" d="M36 57l9-3-1 26z"/><path fill="#000309" d="M39.3 4.2L31.1 35 9.6-8.6l34.5 30.7z"/><path fill="#66777d" d="M156 26h13l-19 38z"/><path fill="#2d2d32" d="M90.3 124.9L75.7 185l35.3-50.2-15.9-68.7z"/><path fill="#f2ffff" d="M235 48.3l-.4-.9L267 31.7l.4.9z"/><path fill="#a5a388" d="M72 80l16-9 12 2z"/><path fill="#00141c" d="M110.2 56.5l-16.8-14L69.6 46l.5 4.6z"/><ellipse cx="154" fill="#fcffff" rx="4" ry="30"/><path fill="#824428" d="M206.7 83.2l-31-25.3 29 1.1-12-23.2z"/><path fill="#1f1716" d="M220 123l-14 2 17 49z"/><path fill="#a67d69" d="M67.2 41.7l9.1 22.6-10.9-3.9-4.8-9.2z"/><path fill="#b5bcc5" d="M94 54h5v8h-5z"/><path fill="#290f03" d="M46.5 79.6L48 39l21.1 31.9 25.8-.8z"/><path fill="#06141e" d="M70.5 43.2l18.9-1.7L4.7 27.8 70.8 29z"/><ellipse cx="142" cy="24" rx="8" ry="33"/><path fill="#dddedc" d="M47.7 48.9l-27-14.7 23.2 7.9 6.2 1.7z"/><circle r="1" fill="#00090e" transform="matrix(2.58758 -3.0246 34.81816 29.78736 102 31.4)"/><path fill="#877b75" d="M82.2 89.3l-29.7 27.4 5.9-21.3 22.4 9.9z"/><path fill="#abb2b9" d="M228.5 58.7l11.8 60.9-8.8 1.7-11.8-60.9z"/><path fill="#000d11" d="M182.9 47l-44.4 19.4 30.7-3.1-4.1-25.3z"/><path fill="#1b0a04" d="M169 69h25v5h-25z"/><path fill="#67646a" d="M229 28l-20 4 4 15z"/></g></svg>