<svg xmlns="http://www.w3.org/2000/svg" viewBox="0 0 32 21"><defs/><path fill="#633c40" d="M0 0h32v21H0z"/><circle r="1" fill="#ede2d8" fill-opacity=".5" transform="rotate(-51.4 17.2 -16) scale(30.46309 8.56517)"/><circle r="1" fill="#b79cae" fill-opacity=".5" transform="rotate(119.1 10.5 18.2) scale(4.1326 30.10002)"/><circle r="1" fill="#1c240f" fill-opacity=".5" transform="matrix(1.69549 10.48322 -1.71954 .2781 26.9 1)"/><circle r="1" fill="#f8f8cb" fill-opacity=".5" transform="matrix(.30454 3.30675 -6.19752 .57077 17.1 4.8)"/><circle r="1" fill="#101000" fill-opacity=".5" transform="matrix(-1.8457 7.68179 -2.6774 -.6433 4.2 9.4)"/><circle r="1" fill="#e9f5ff" fill-opacity=".5" transform="matrix(5.1209 1.32964 -.64768 2.49442 5.3 20.5)"/><circle r="1" fill="#0e0807" fill-opacity=".5" transform="matrix(-8.4211 -1.8377 .3474 -1.59196 31.2 9.1)"/><circle r="1" fill="#6c5380" fill-opacity=".5" transform="rotate(-146.6 16.5 5.7) scale(10.59456 5.18743)"/><circle r="1" fill="#c5e2c9" fill-opacity=".5" transform="rotate(-93.3 3 2.6) scale(2.70524 1.64909)"/><circle r="1" fill="#6c2d09" fill-opacity=".5" transform="matrix(2.39572 .58742 -.5557 2.26633 7 14.6)"/><circle r="1" fill="#e4ecbb" fill-opacity=".5" transform="matrix(-1.02554 -2.64234 1.57511 -.61133 30.4 3.2)"/><circle r="1" fill="#d2b2b6" fill-opacity=".5" transform="matrix(25.72512 10.42754 -.37566 .92676 31.5 14.4)"/><circle r="1" fill="#45372b" fill-opacity=".5" transform="matrix(5.8231 -1.259 .32354 1.49643 26.7 7.6)"/><circle r="1" fill="#dfc4a8" fill-opacity=".5" transform="matrix(6.15735 -2.64628 1.6055 3.73565 13 6.4)"/><circle r="1" fill="#0b1012" fill-opacity=".5" transform="matrix(2.00703 2.46086 -5.05124 4.1197 .5 14.7)"/><circle r="1" fill="#8c5439" fill-opacity=".5" transform="matrix(2.08507 -.11911 .06622 1.15916 11.4 8)"/><circle r="1" fill="#3a5046" fill-opacity=".5" transform="rotate(1.7 -8.3 622.5) scale(5.03564 1)"/><circle r="1" fill="#e1dbc9" fill-opacity=".5" transform="rotate(-103.3 10 -5.1) scale(1.35827 8.79062)"/><circle r="1" fill="#c4afb9" fill-opacity=".5" transform="rotate(159.6 6 2) scale(1.35297 24.32855)"/><circle r="1" fill="#d1e9fe" fill-opacity=".5" transform="rotate(-158.5 3.5 10) scale(2.18884 3.99812)"/><circle r="1" fill="#e0a8ba" fill-opacity=".5" transform="matrix(-.70923 -.70498 8.81218 -8.8653 10.8 18.7)"/><circle r="1" fill="#8c4b31" fill-opacity=".5" transform="matrix(.2828 -2.038 3.9249 .54462 8.4 12.5)"/><circle r="1" fill="#282d3a" fill-opacity=".5" transform="matrix(10.60467 -7.076 .78523 1.17681 31.5 20.2)"/><circle r="1" fill="#634467" fill-opacity=".5" transform="matrix(1.27257 -.30476 1.80649 7.54338 22.2 19.2)"/><circle r="1" fill="#bbcbc2" fill-opacity=".5" transform="rotate(-48.4 6 2) scale(2.55365 1)"/><circle r="1" fill="#0c313c" fill-opacity=".5" transform="matrix(1.00025 -1.82191 4.40532 2.41857 .5 .5)"/><circle r="1" fill="#ad899f" fill-opacity=".5" transform="matrix(-2.0943 1.23732 -1.75666 -2.97336 27.8 13)"/><circle r="1" fill="#1c1b1c" fill-opacity=".5" transform="matrix(-4.36188 -3.8863 1.47732 -1.6581 31.9 9.7)"/><circle r="1" fill="#705d7c" fill-opacity=".5" transform="rotate(83.7 -.4 22.6) scale(1 9.32396)"/><circle r="1" fill="#1a1f07" fill-opacity=".5" transform="matrix(-1.3236 2.97285 -.91355 -.40674 28 .5)"/><circle r="1" fill="#dda183" fill-opacity=".5" transform="matrix(-1.68642 -.58068 2.58342 -7.50278 9.4 20.6)"/><circle r="1" fill="#637474" fill-opacity=".5" transform="rotate(-.6 53.2 -1086.5) scale(7.59468 1)"/><circle r="1" fill="#eaefde" fill-opacity=".5" transform="rotate(74.5 5.9 12.5) scale(1.34729 4.73274)"/><circle r="1" fill="#040000" fill-opacity=".5" transform="matrix(-1.43765 .85432 -1.32688 -2.23288 3.6 12.6)"/><circle r="1" fill="#e3debe" fill-opacity=".5" transform="matrix(1.09438 -1.35115 3.02755 2.4522 32.4 4.3)"/><circle r="1" fill="#c9cdbd" fill-opacity=".5" transform="matrix(.99792 .06453 -.19431 3.0048 .5 6)"/><circle r="1" fill="#b0a883" fill-opacity=".5" transform="rotate(179.4 10.5 2.7) scale(8.07065 1)"/><circle r="1" fill="#a077a6" fill-opacity=".5" transform="matrix(2.6843 -3.22179 2.04044 1.70003 17 17.3)"/><circle r="1" fill="#925948" fill-opacity=".5" transform="rotate(144.5 4 6) scale(1.20158 1)"/><circle r="1" fill="#e7bda6" fill-opacity=".5" transform="rotate(-170 5.6 2.3) scale(3.83043 1.87436)"/><circle r="1" fill="#593b58" fill-opacity=".5" transform="matrix(-.54462 6.57924 -.9966 -.0825 20.7 19.9)"/><circle r="1" fill="#e9cbbd" fill-opacity=".5" transform="matrix(-2.61948 -.56332 .21025 -.97765 14.5 9.9)"/><circle r="1" fill="#160f03" fill-opacity=".5" transform="rotate(89.2 -2.6 5.8) scale(4.8641 1)"/><circle r="1" fill="#d5c29e" fill-opacity=".5" transform="matrix(2.28677 .20489 -.2049 2.28694 22.6 4.3)"/><circle r="1" fill="#564e40" fill-opacity=".5" transform="matrix(-.28515 9.60763 -.99956 -.02967 26.3 .5)"/><circle r="1" fill="#d4bbca" fill-opacity=".5" transform="rotate(60 -14.3 16.1) scale(5.92466 1)"/><circle r="1" fill="#967794" fill-opacity=".5" transform="matrix(.00524 -.99999 7.01127 .03671 31.6 16)"/><circle r="1" fill="#e6f4f0" fill-opacity=".5" transform="matrix(.25478 .967 -2.60322 .6859 15 3.1)"/><circle r="1" fill="#5d786d" fill-opacity=".5" transform="rotate(-115.2 3.8 5.5)"/><circle r="1" fill="#8f778b" fill-opacity=".5" transform="rotate(88 1.4 22.7) scale(1 2.38228)"/></svg>