<svg xmlns="http://www.w3.org/2000/svg" viewBox="0 0 32 21"><defs/><path fill="#434444" d="M0 0h32v21H0z"/><circle r="1" fill="#fff" fill-opacity=".5" transform="matrix(21.05198 -2.53849 3.92095 32.51691 20.4 9.8)"/><circle r="1" fill="#fff" fill-opacity=".5" transform="matrix(-9.86749 4.169 -12.83798 -30.38581 24 7.4)"/><circle r="1" fill="#fff" fill-opacity=".5" transform="matrix(1.6968 -.28924 5.23528 30.71179 4 8.8)"/><circle r="1" fill="#2d2c2c" fill-opacity=".5" transform="matrix(-.08426 1.72274 -3.60814 -.17647 13.7 10.4)"/><circle r="1" fill="#6f6e6e" fill-opacity=".5" transform="matrix(-1.82408 .26898 -3.3326 -22.60003 7.3 .5)"/><circle r="1" fill="#f1f0f0" fill-opacity=".5" transform="matrix(.87627 -3.19524 11.43896 3.13705 22.1 8)"/><circle r="1" fill="#cccbcb" fill-opacity=".5" transform="matrix(4.84704 3.79165 -1.34066 1.71382 13.6 17.7)"/><circle r="1" fill="#e1e0e0" fill-opacity=".5" transform="matrix(-2.0526 .20126 -2.98514 -30.44478 3.3 1.6)"/><circle r="1" fill="#adacac" fill-opacity=".5" transform="rotate(171.3 12 2.1) scale(12.21758 1)"/><circle r="1" fill="#f9f9f9" fill-opacity=".5" transform="matrix(-.0802 -.99678 7.87772 -.63383 17.6 1.5)"/><circle r="1" fill="#f8f8f8" fill-opacity=".5" transform="rotate(176.7 10.2 2.7) scale(10.57061 1)"/><circle r="1" fill="#3f3e3e" fill-opacity=".5" transform="matrix(-2.37468 1.44383 -.65158 -1.07165 15 10.6)"/><circle r="1" fill="#0d0c0c" fill-opacity=".5" transform="rotate(-86.4 5.4 4.6) scale(2.04879 1)"/><circle r="1" fill="#b4b3b3" fill-opacity=".5" transform="rotate(14.9 -47.7 129) scale(12.61056 2.27668)"/><circle r="1" fill="#e6e5e5" fill-opacity=".5" transform="matrix(.35877 -8.67895 .99915 .0413 12.2 20.5)"/><circle r="1" fill="#717171" fill-opacity=".5" transform="matrix(2.32313 -.05358 .29871 12.95217 8 2)"/><circle r="1" fill="#fefefe" fill-opacity=".5" transform="matrix(1.7059 -2.36721 4.3477 3.1331 .5 .5)"/><circle r="1" fill="#dfdede" fill-opacity=".5" transform="matrix(-4.13177 -5.1732 2.70043 -2.1568 20.5 19.3)"/><circle r="1" fill="#fbfbfb" fill-opacity=".5" transform="rotate(172.8 15.6 2.9) scale(21.14403 1)"/><circle r="1" fill="#807f7f" fill-opacity=".5" transform="matrix(-.99075 .13572 -.7187 -5.24661 14.7 19.6)"/><circle r="1" fill="#9d9d9d" fill-opacity=".5" transform="rotate(76 15.4 20.4) scale(1 11.54592)"/><circle r="1" fill="#f9f9f9" fill-opacity=".5" transform="matrix(-.12193 .99809 -1.37911 -.16847 25 .5)"/><circle r="1" fill="#e1e1e1" fill-opacity=".5" transform="matrix(-1.6941 8.03905 -.9785 -.2062 12.6 2)"/><circle r="1" fill="#959494" fill-opacity=".5" transform="matrix(-12.1046 -6.75948 1.50776 -2.70003 .5 20.5)"/><circle r="1" fill="#6c6c6c" fill-opacity=".5" transform="rotate(-4.8 9.3 -79.6) scale(1 14.68161)"/><circle r="1" fill="#bbb" fill-opacity=".5" transform="rotate(11.1 -69.4 124.4) scale(8.44299 1)"/><circle r="1" fill="#313131" fill-opacity=".5" transform="rotate(175.7 7 5.6) scale(2.66774 1)"/><circle r="1" fill="#8f8f8f" fill-opacity=".5" transform="matrix(-.77057 -8.90243 1.49605 -.1295 8.6 3.5)"/><circle r="1" fill="#f2f2f2" fill-opacity=".5" transform="matrix(-.08302 -.99655 13.57315 -1.13081 23.1 .5)"/><circle r="1" fill="#acabab" fill-opacity=".5" transform="rotate(-114.1 18 -6.8) scale(1 3.16623)"/><circle r="1" fill="#8b8a8a" fill-opacity=".5" transform="rotate(-94 16.4 -14) scale(1 3.30803)"/><circle r="1" fill="#dedede" fill-opacity=".5" transform="matrix(-1.42794 -2.74305 1.78766 -.9306 3.9 15.4)"/><circle r="1" fill="#f7f7f7" fill-opacity=".5" transform="matrix(-8.17409 -.07133 .00873 -.99996 23 .5)"/><circle r="1" fill="#f4f3f3" fill-opacity=".5" transform="matrix(-.39058 -.92057 4.95118 -2.1007 22.3 9.8)"/><circle r="1" fill="#eaeaea" fill-opacity=".5" transform="matrix(.5143 -2.33918 6.6695 1.46639 26 10.5)"/><circle r="1" fill="#e3e3e3" fill-opacity=".5" transform="rotate(-13.1 23.4 -14.7) scale(1 13.39818)"/><circle r="1" fill="#b3b3b3" fill-opacity=".5" transform="rotate(43.8 -3.3 22.6) scale(3.21185 1)"/><circle r="1" fill="#d4d4d4" fill-opacity=".5" transform="rotate(91.5 -2.6 15) scale(6.08092 1)"/><circle r="1" fill="#343434" fill-opacity=".5" transform="matrix(-.46929 .88305 -1.7201 -.91413 13.9 11.2)"/><circle r="1" fill="#757575" fill-opacity=".5" transform="matrix(-1.29233 .21394 -2.68343 -16.20931 .5 18.6)"/><circle r="1" fill="#b5b5b5" fill-opacity=".5" transform="rotate(148 3.4 12) scale(3.54679 1.62942)"/><circle r="1" fill="#595959" fill-opacity=".5" transform="rotate(-24.5 42 -26)"/><circle r="1" fill="#e9e9e9" fill-opacity=".5" transform="matrix(-4.04835 .6283 -.15336 -.98817 14.6 6.4)"/><circle r="1" fill="#e2e2e2" fill-opacity=".5" transform="matrix(5.92647 .39364 -.10053 1.51356 22.4 18.8)"/><circle r="1" fill="#acabab" fill-opacity=".5" transform="rotate(117.8 9.8 18.4) scale(1.1064 2.89082)"/><circle r="1" fill="#c6c5c5" fill-opacity=".5" transform="matrix(-.45889 -1.66569 14.84259 -4.08903 31.5 20.5)"/><circle r="1" fill="#d1d0d0" fill-opacity=".5" transform="matrix(.25207 -.9677 8.02629 2.0907 24.1 14.4)"/><circle r="1" fill="#f1f1f1" fill-opacity=".5" transform="rotate(-6.9 46.2 -257.6) scale(21.05176 1)"/><circle r="1" fill="#b7b7b7" fill-opacity=".5" transform="matrix(4.8736 -.60804 .1238 .9923 14.7 3.7)"/><circle r="1" fill="#605f5f" fill-opacity=".5" transform="matrix(-1.49813 .66688 -.40667 -.91358 9.1 13.4)"/></svg>