<svg xmlns="http://www.w3.org/2000/svg" viewBox="0 0 32 48"><defs/><path fill="#58612d" d="M0 0h32v48H0z"/><circle r="1" fill="#ffd6c0" fill-opacity=".5" transform="matrix(-19.59778 -3.10398 4.84947 -30.61834 11.6 7.1)"/><circle r="1" fill-opacity=".5" transform="matrix(-.7671 -7.03937 30.81756 -3.35825 18.4 42.9)"/><circle r="1" fill="#ffe4ab" fill-opacity=".5" transform="matrix(-.12838 -6.02935 8.60838 -.1833 18.7 30)"/><circle r="1" fill="#170000" fill-opacity=".5" transform="matrix(-3.11988 .44958 -4.4215 -30.68304 31.4 37)"/><circle r="1" fill="#f2edf2" fill-opacity=".5" transform="rotate(-4 37.3 -452.7) scale(25.61238 4.91718)"/><circle r="1" fill-opacity=".5" transform="matrix(-30.9698 1.3679 -.33064 -7.48582 22.7 43.6)"/><circle r="1" fill="#795110" fill-opacity=".5" transform="matrix(-4.86652 .29765 -1.39605 -22.82516 .8 7.4)"/><circle r="1" fill="#512818" fill-opacity=".5" transform="matrix(25.12102 1.40448 -.05582 .99844 21.6 8.2)"/><circle r="1" fill="#001c00" fill-opacity=".5" transform="rotate(99.4 1.5 15.2) scale(1 5.13683)"/><circle r="1" fill="#fffddf" fill-opacity=".5" transform="matrix(-.44054 -11.29109 .99924 -.03899 25.4 23)"/><circle r="1" fill-opacity=".5" transform="matrix(-2.04592 -8.64944 30.63104 -7.2454 23.2 44.2)"/><circle r="1" fill="#ddd8b5" fill-opacity=".5" transform="matrix(.0181 -1.83428 12.15721 .11998 10.7 10.5)"/><circle r="1" fill="#e6ca89" fill-opacity=".5" transform="matrix(-.12904 -4.10622 26.54876 -.83433 .7 33.3)"/><circle r="1" fill="#170006" fill-opacity=".5" transform="matrix(.41523 1.6654 -6.29637 1.56986 .6 1.7)"/><circle r="1" fill="#f5ffff" fill-opacity=".5" transform="rotate(-88.7 18 -13.8) scale(1.35154 22.91432)"/><circle r="1" fill="#fff" fill-opacity=".5" transform="matrix(.82706 -1.68862 2.27453 1.11403 10 24.3)"/><circle r="1" fill="#eee1e4" fill-opacity=".5" transform="matrix(-3.54875 .78668 -.4426 -1.99658 8 16.8)"/><circle r="1" fill="#272223" fill-opacity=".5" transform="matrix(.10188 .9948 -8.06802 .82628 10.1 7)"/><circle r="1" fill="#6c5d24" fill-opacity=".5" transform="matrix(4.62356 -6.5078 1.42924 1.01542 17.8 20.6)"/><circle r="1" fill="#7d4418" fill-opacity=".5" transform="rotate(-148.7 17.5 2) scale(7.30076 5.82603)"/><circle r="1" fill="#9e8a79" fill-opacity=".5" transform="matrix(16.3305 .03538 -.00464 2.1422 23.7 .5)"/><circle r="1" fill="#1f2000" fill-opacity=".5" transform="matrix(-1.79874 1.4618 -.90547 -1.11418 21.4 15.8)"/><circle r="1" fill="#0d0005" fill-opacity=".5" transform="matrix(-1.43374 24.13258 -.99824 -.0593 27.7 36.9)"/><circle r="1" fill="#000001" fill-opacity=".5" transform="matrix(-.4278 8.74704 -30.58132 -1.49568 17 45.8)"/><circle r="1" fill="#6c531b" fill-opacity=".5" transform="matrix(-.36975 -.92913 9.97463 -3.96939 3.1 22.5)"/><circle r="1" fill="#2a0a1a" fill-opacity=".5" transform="matrix(.2605 .96547 -5.80559 1.56647 .5 8.7)"/><circle r="1" fill="#956730" fill-opacity=".5" transform="matrix(-.00416 -2.26679 12.10229 -.02223 31.5 9.2)"/><circle r="1" fill="#f1e9c0" fill-opacity=".5" transform="rotate(-158 14.6 8) scale(1.59622 3.9843)"/><circle r="1" fill="#d8c3bf" fill-opacity=".5" transform="matrix(1.63297 -.94322 1.71889 2.97586 17.7 11)"/><circle r="1" fill="#decd81" fill-opacity=".5" transform="matrix(-11.72879 1.46905 -.12428 -.99225 1.4 6.2)"/><circle r="1" fill="#65715c" fill-opacity=".5" transform="matrix(-.90357 -.42843 2.49801 -5.2684 13.1 17.2)"/><circle r="1" fill="#f8f8fa" fill-opacity=".5" transform="matrix(-.21408 1.5428 -5.65894 -.78524 15 4.3)"/><circle r="1" fill="#f0e7c9" fill-opacity=".5" transform="matrix(3.76675 .3477 -.14757 1.59865 13 10.5)"/><circle r="1" fill="#d6c28c" fill-opacity=".5" transform="matrix(5.93134 -4.1841 3.50346 4.96647 14 30.4)"/><circle r="1" fill="#1d0300" fill-opacity=".5" transform="matrix(.32028 .94732 -29.36698 9.92876 5.3 .5)"/><circle r="1" fill="#fdf2cc" fill-opacity=".5" transform="matrix(-1.09758 -8.68825 .99211 -.12533 25 21.5)"/><circle r="1" fill="#ffecdd" fill-opacity=".5" transform="matrix(-3.1197 -2.28682 .5912 -.80652 9 24.4)"/><circle r="1" fill="#441801" fill-opacity=".5" transform="matrix(-.91805 -6.50685 3.34445 -.47187 31 21.3)"/><circle r="1" fill="#fff" fill-opacity=".5" transform="matrix(-1.07414 .8752 -1.13312 -1.39068 7.8 17.8)"/><circle r="1" fill="#bea643" fill-opacity=".5" transform="rotate(25.8 -29.8 12.8) scale(1.92537 4.02622)"/><circle r="1" fill="#b0995f" fill-opacity=".5" transform="matrix(-4.27345 -6.84626 .8483 -.52951 21.2 23.7)"/><circle r="1" fill="#dac7a2" fill-opacity=".5" transform="matrix(-1.4071 2.67761 -2.70918 -1.42368 23.3 32)"/><circle r="1" fill="#6e460d" fill-opacity=".5" transform="matrix(-2.6406 1.8013 -1.23385 -1.80875 2 22)"/><circle r="1" fill="#d2bd8e" fill-opacity=".5" transform="rotate(-156.3 11.2 8) scale(6.06634 1)"/><circle r="1" fill="#a57d41" fill-opacity=".5" transform="rotate(-94.3 13.6 13.2) scale(2.1651 7.05777)"/><circle r="1" fill="#344a2e" fill-opacity=".5" transform="matrix(-.45844 1.06963 -3.83642 -1.6443 16.3 15.6)"/><circle r="1" fill="#7d4d11" fill-opacity=".5" transform="matrix(-.99813 -.06105 .88448 -14.46118 32 18.6)"/><circle r="1" fill="#69613f" fill-opacity=".5" transform="rotate(25.8 -13.6 70.8) scale(12.32475 1.82629)"/><circle r="1" fill="#160609" fill-opacity=".5" transform="matrix(4.89885 30.24643 -.98714 .15988 32.5 46.4)"/><circle r="1" fill="#edf0df" fill-opacity=".5" transform="matrix(-.0624 -.99805 16.23227 -1.01503 27.3 4.8)"/></svg>