<svg xmlns="http://www.w3.org/2000/svg" viewBox="0 0 32 21"><defs/><path fill="#5b3b35" d="M0 0h32v21H0z"/><circle r="1" fill="#ffd3bf" fill-opacity=".5" transform="matrix(2.23774 -6.97553 4.1365 1.32698 8.7 11.9)"/><circle r="1" fill="#bcb37c" fill-opacity=".5" transform="rotate(3 -244 513) scale(4.41591 9.61674)"/><circle r="1" fill-opacity=".5" transform="matrix(-8.70804 2.30076 -1.52493 -5.77164 14.2 21.4)"/><circle r="1" fill="#fff4e3" fill-opacity=".5" transform="rotate(-133.8 6.1 7.3) scale(1 6.94775)"/><circle r="1" fill="#fed4b5" fill-opacity=".5" transform="matrix(-.38104 -1.20218 4.10426 -1.3009 2.2 9.6)"/><circle r="1" fill="#0b0000" fill-opacity=".5" transform="rotate(57.6 -10.7 10.6) scale(1 6.4709)"/><circle r="1" fill="#140c13" fill-opacity=".5" transform="rotate(10.6 -48 103.7) scale(3.81606 16.92843)"/><circle r="1" fill="#0f0202" fill-opacity=".5" transform="rotate(-112.4 1.7 1.6) scale(3.78378 16.58834)"/><circle r="1" fill="#587992" fill-opacity=".5" transform="matrix(-4.0766 -1.4059 2.83326 -8.2154 27.5 .5)"/><circle r="1" fill="#dab5a6" fill-opacity=".5" transform="matrix(-11.61203 7.86194 -.56064 -.82806 2.5 20.4)"/><circle r="1" fill="#2e2121" fill-opacity=".5" transform="rotate(76.2 6 19.9) scale(1 10.43709)"/><circle r="1" fill="#ca9d5e" fill-opacity=".5" transform="matrix(-1.14131 -2.08151 5.9543 -3.26479 26.7 12.4)"/><circle r="1" fill-opacity=".5" transform="rotate(101.3 3 20.3) scale(1.72934 4.20666)"/><circle r="1" fill-opacity=".5" transform="matrix(2.54472 -2.29652 .73085 .80984 3.7 13.2)"/><circle r="1" fill="#daa494" fill-opacity=".5" transform="matrix(-6.6666 2.1348 -.50413 -1.5743 8.3 8.3)"/><circle r="1" fill="#eda999" fill-opacity=".5" transform="rotate(152.1 3.4 7.3) scale(2.55735 4.76818)"/><circle r="1" fill-opacity=".5" transform="matrix(1.72834 6.02744 -1.48944 .42709 20.9 4.3)"/><circle r="1" fill="#020000" fill-opacity=".5" transform="rotate(-100.2 13.7 5.5) scale(1.98649 6.1648)"/><circle r="1" fill="#0f0c03" fill-opacity=".5" transform="matrix(.7464 .6655 -6.70833 7.52393 .5 18)"/><circle r="1" fill="#b39257" fill-opacity=".5" transform="matrix(-4.778 -1.04227 .80298 -3.68102 26.5 16.3)"/><circle r="1" fill="#000a0d" fill-opacity=".5" transform="rotate(91.3 12.8 18.4) scale(2.32582 1.75332)"/><circle r="1" fill="#d3cabc" fill-opacity=".5" transform="matrix(1.06867 .46467 -.73731 1.6957 3.5 18.3)"/><circle r="1" fill="#a3b4c8" fill-opacity=".5" transform="rotate(169 13 4.1) scale(2.19107 1)"/><circle r="1" fill="#4e2728" fill-opacity=".5" transform="matrix(7.23202 -.64544 .0889 .99604 17.4 9.1)"/><circle r="1" fill="#c6978f" fill-opacity=".5" transform="matrix(-.02455 .9997 -3.1677 -.07778 10.7 5.6)"/><circle r="1" fill="#bda17c" fill-opacity=".5" transform="matrix(3.65563 -1.6814 .6469 1.40646 25.2 11.7)"/><circle r="1" fill="#dfb6a7" fill-opacity=".5" transform="rotate(149 2.6 8.6) scale(4.65169 2.44677)"/><circle r="1" fill="#4e3138" fill-opacity=".5" transform="matrix(1.94384 -.20226 .9368 9.00344 17.2 11.4)"/><circle r="1" fill="#0f0503" fill-opacity=".5" transform="rotate(51.7 1.5 27) scale(2.71913 1.70687)"/><circle r="1" fill="#916e3b" fill-opacity=".5" transform="rotate(72.5 5.6 27.4) scale(1 10.60611)"/><circle r="1" fill="#e8caaf" fill-opacity=".5" transform="rotate(-78.3 6.6 4.8) scale(1 2.84035)"/><circle r="1" fill="#0f0100" fill-opacity=".5" transform="matrix(.97994 .19927 -2.03797 10.02183 12.9 20.5)"/><circle r="1" fill="#f3e4d7" fill-opacity=".5" transform="rotate(-39.5 24.7 -.7) scale(3.09483 1)"/><circle r="1" fill="#0a0400" fill-opacity=".5" transform="matrix(.1311 -.99137 4.17313 .55186 21.8 20.7)"/><circle r="1" fill="#2c240d" fill-opacity=".5" transform="matrix(-.96717 -.28465 1.40458 -4.77234 31.4 20.5)"/><circle r="1" fill="#8c97a2" fill-opacity=".5" transform="rotate(-91.7 16.8 -10.2) scale(1 3.13999)"/><circle r="1" fill="#192124" fill-opacity=".5" transform="matrix(.8499 -.52696 16.33563 26.34667 31.5 .5)"/><circle r="1" fill="#af9450" fill-opacity=".5" transform="rotate(65.3 -.4 31) scale(3.99362 2.15041)"/><circle r="1" fill="#0d0000" fill-opacity=".5" transform="rotate(144 -2.4 8.2) scale(8.90444 1)"/><circle r="1" fill="#0f0201" fill-opacity=".5" transform="matrix(.99944 -.0336 .45657 13.57955 20.5 1.7)"/><circle r="1" fill="#3a3838" fill-opacity=".5" transform="rotate(158.4 14 3) scale(1 3.10288)"/><circle r="1" fill="#271418" fill-opacity=".5" transform="rotate(-42.9 6 -12.6) scale(3.19423 4.26948)"/><circle r="1" fill="#080800" fill-opacity=".5" transform="matrix(-.9958 -3.03346 1.1006 -.3613 1 3)"/><circle r="1" fill="#8d949e" fill-opacity=".5" transform="matrix(-.9908 .1354 -.75368 -5.51518 27.2 .5)"/><circle r="1" fill="#563438" fill-opacity=".5" transform="rotate(-115.4 10.9 -2) scale(4.27553 2.61287)"/><circle r="1" fill="#c49186" fill-opacity=".5" transform="rotate(117.6 1.9 5.8) scale(1.15454 1.60271)"/><circle r="1" fill="#6a707b" fill-opacity=".5" transform="rotate(-98.1 13.3 -8.8) scale(5.10885 1.09779)"/><circle r="1" fill="#000004" fill-opacity=".5" transform="rotate(-12.6 22 -146.1) scale(1.06502 31.00006)"/><circle r="1" fill="#3a1605" fill-opacity=".5" transform="matrix(-.18753 -2.34814 5.227 -.41745 .5 6.1)"/><circle r="1" fill="#aa946c" fill-opacity=".5" transform="rotate(21.9 -35.7 75) scale(4.25774 1)"/></svg>