<svg xmlns="http://www.w3.org/2000/svg" viewBox="0 0 32 48"><defs/><path fill="#2f4055" d="M0 0h32v48H0z"/><circle r="1" fill="#fff9e6" fill-opacity=".5" transform="rotate(-61 36 -11.8) scale(30.51263 16.21467)"/><circle r="1" fill="#8d9a9a" fill-opacity=".5" transform="matrix(4.17474 -.38627 2.85607 30.86815 9.3 13.7)"/><circle r="1" fill="#e1e4f9" fill-opacity=".5" transform="matrix(8.42336 2.34622 -8.318 29.8632 30.4 31.5)"/><circle r="1" fill="#62260b" fill-opacity=".5" transform="matrix(7.21026 -.66666 1.53394 16.5903 20 8.4)"/><circle r="1" fill="#5d4326" fill-opacity=".5" transform="matrix(1.22724 -8.95907 11.62008 1.59175 4.6 37.1)"/><circle r="1" fill="#eaffff" fill-opacity=".5" transform="matrix(-9.02484 -27.94144 3.68197 -1.18924 31.5 8.7)"/><circle r="1" fill="#f9d4c7" fill-opacity=".5" transform="matrix(7.22234 2.44463 -.52391 1.54784 23 16.9)"/><circle r="1" fill="#8fb9d5" fill-opacity=".5" transform="rotate(-5 71.7 -66) scale(1 31)"/><circle r="1" fill="#211400" fill-opacity=".5" transform="matrix(3.21388 22.58192 -3.1542 .4489 1 7.5)"/><circle r="1" fill="#1b0700" fill-opacity=".5" transform="rotate(-132.3 10.5 .6) scale(5.25223 5.30277)"/><circle r="1" fill="#f8ffff" fill-opacity=".5" transform="rotate(27.4 5.5 27.1) scale(1 4.4111)"/><circle r="1" fill="#4c3528" fill-opacity=".5" transform="matrix(-3.59203 -7.26398 2.58388 -1.27773 24.4 8)"/><circle r="1" fill="#6b5e63" fill-opacity=".5" transform="matrix(.38261 2.38796 -26.70906 4.27944 5.8 41.7)"/><circle r="1" fill="#e1d2d2" fill-opacity=".5" transform="matrix(-.63317 3.8044 -17.10218 -2.84633 29.7 45.7)"/><circle r="1" fill="#d5bbab" fill-opacity=".5" transform="matrix(5.10507 1.21335 -.66154 2.78337 13.8 23.9)"/><circle r="1" fill="#391d10" fill-opacity=".5" transform="matrix(-8.34116 9.45823 -.85675 -.75557 6.9 46.8)"/><circle r="1" fill="#a8aeb8" fill-opacity=".5" transform="matrix(23.5809 -15.73423 .63676 .95432 28.7 26)"/><circle r="1" fill="#4e3623" fill-opacity=".5" transform="matrix(-3.48775 .38774 -2.93805 -26.42814 .5 28)"/><circle r="1" fill="#928b96" fill-opacity=".5" transform="matrix(-.98657 .16333 -2.3114 -13.96206 27 26.2)"/><circle r="1" fill="#c5d5d9" fill-opacity=".5" transform="matrix(1.1113 3.20924 -.94495 .32722 9.4 35.8)"/><circle r="1" fill="#e2ecf2" fill-opacity=".5" transform="matrix(-1.65099 .36552 -6.701 -30.26709 31.5 18.9)"/><circle r="1" fill="#f9c1a1" fill-opacity=".5" transform="rotate(-145.5 12.7 4.4) scale(3.35168 2.45317)"/><circle r="1" fill="#1c4121" fill-opacity=".5" transform="rotate(83 -13 21.8) scale(1 6.76518)"/><circle r="1" fill="#6b524b" fill-opacity=".5" transform="matrix(3.73945 -10.9481 1.0497 .35854 24.7 17)"/><circle r="1" fill="#958c9a" fill-opacity=".5" transform="rotate(61.8 -24.8 38.4) scale(1 19.63244)"/><circle r="1" fill="#341304" fill-opacity=".5" transform="rotate(173.2 10 11.1) scale(3.15469 1.49466)"/><circle r="1" fill="#94c0e6" fill-opacity=".5" transform="rotate(83.4 -5.2 11.5) scale(9.85236 1)"/><circle r="1" fill="#a4c2d9" fill-opacity=".5" transform="matrix(2.9093 .98474 -.8941 2.6415 12 .5)"/><circle r="1" fill="#d7e1eb" fill-opacity=".5" transform="matrix(4.82574 5.46507 -22.83678 20.16521 31.5 47)"/><circle r="1" fill="#000412" fill-opacity=".5" transform="matrix(1.85677 16.02546 -.99335 .1151 3.4 11.5)"/><circle r="1" fill="#140c0c" fill-opacity=".5" transform="matrix(7.67407 -11.69466 2.60449 1.70907 20 .5)"/><circle r="1" fill="#485a49" fill-opacity=".5" transform="rotate(-45.2 42.7 -6.2) scale(9.74766 1)"/><circle r="1" fill="#886b54" fill-opacity=".5" transform="matrix(2.3921 .852 -.98762 2.77288 8 26.4)"/><circle r="1" fill-opacity=".5" transform="matrix(.99978 -.02093 .1329 6.34757 .5 38.2)"/><circle r="1" fill="#709dad" fill-opacity=".5" transform="matrix(.99747 .0711 -.75258 10.55713 10.8 11.8)"/><circle r="1" fill="#a76458" fill-opacity=".5" transform="matrix(-3.22647 -2.42333 1.2519 -1.6668 16.6 47.5)"/><circle r="1" fill="#e9f9ff" fill-opacity=".5" transform="rotate(9.2 -100.6 210.4) scale(1 16.78511)"/><circle r="1" fill="#64443d" fill-opacity=".5" transform="matrix(.52883 2.68308 -2.26715 .44685 13.9 19)"/><circle r="1" fill="#d5d1dd" fill-opacity=".5" transform="matrix(-8.13824 -13.43782 .85536 -.51803 22.8 47.5)"/><circle r="1" fill="#604030" fill-opacity=".5" transform="matrix(-1.24607 1.00545 -3.8849 -4.81462 25.1 11.1)"/><circle r="1" fill="#d1e8ff" fill-opacity=".5" transform="rotate(149.3 7.2 20) scale(1 5.21704)"/><circle r="1" fill="#28588b" fill-opacity=".5" transform="rotate(-101.9 3.9 -2.7) scale(15.14644 1.33315)"/><circle r="1" fill="#d7d3be" fill-opacity=".5" transform="rotate(64.7 -13 24.3) scale(2.3023 5.03701)"/><circle r="1" fill="#848fa0" fill-opacity=".5" transform="matrix(.99995 -.01026 .09746 9.49913 28.4 29.5)"/><circle r="1" fill="#482c20" fill-opacity=".5" transform="rotate(156.3 10.8 7) scale(5.59152 1.44049)"/><circle r="1" fill="#e9e6e9" fill-opacity=".5" transform="matrix(.83001 -.55775 5.32166 7.91947 25.4 .5)"/><circle r="1" fill="#e6b099" fill-opacity=".5" transform="matrix(.7533 1.14918 -4.47333 2.9323 21.3 16.2)"/><circle r="1" fill="#85b7cb" fill-opacity=".5" transform="matrix(2.6723 8.0258 -2.15605 .71789 32.3 4.3)"/><circle r="1" fill="#61423c" fill-opacity=".5" transform="matrix(6.1631 -4.20224 2.03148 2.9794 4.6 46.7)"/><circle r="1" fill="#575141" fill-opacity=".5" transform="rotate(175.1 0 5.3) scale(1 29.62303)"/></svg>