<svg xmlns="http://www.w3.org/2000/svg" viewBox="0 0 32 21"><defs/><path fill="#444" d="M0 0h32v21H0z"/><circle r="1" fill="#f5f5f5" fill-opacity=".5" transform="rotate(119.8 14.5 11.2) scale(13.465 11.23676)"/><circle r="1" fill-opacity=".5" transform="matrix(26.23527 17.49675 -5.5332 8.2967 11.7 17.5)"/><circle r="1" fill="#424242" fill-opacity=".5" transform="rotate(165.5 13.5 10) scale(2.20297 11.50635)"/><circle r="1" fill="#fff" fill-opacity=".5" transform="matrix(-.40968 -5.2055 6.74506 -.53085 26.4 .4)"/><circle r="1" fill="#919191" fill-opacity=".5" transform="matrix(-.28117 10.0659 -3.24027 -.0905 14.1 4.3)"/><circle r="1" fill-opacity=".5" transform="rotate(91.3 -3 16.4) scale(6.78121 14.486)"/><circle r="1" fill="#eaeaea" fill-opacity=".5" transform="rotate(-167.9 16.6 6.2) scale(1.76222 4.38682)"/><circle r="1" fill="#0e0e0e" fill-opacity=".5" transform="rotate(134.5 11.2 10.4) scale(1 5.16855)"/><circle r="1" fill="#979797" fill-opacity=".5" transform="matrix(3.06255 11.1948 -.96456 .26387 15 3)"/><circle r="1" fill="#0c0c0c" fill-opacity=".5" transform="matrix(-10.19641 -2.32139 .77294 -3.39504 4.2 6.2)"/><circle r="1" fill="#020202" fill-opacity=".5" transform="matrix(.8109 24.6968 -.99946 .03282 18.8 17.4)"/><circle r="1" fill="#dadada" fill-opacity=".5" transform="matrix(1.09466 -2.47024 .91425 .40514 23.5 12.5)"/><circle r="1" fill="#bfbfbf" fill-opacity=".5" transform="matrix(1.73975 -.31338 .69788 3.87431 15.6 1.8)"/><circle r="1" fill="#010101" fill-opacity=".5" transform="rotate(-104 12.8 6.4) scale(2.7137 21.03853)"/><circle r="1" fill-opacity=".5" transform="rotate(143.7 12.2 9.3) scale(1.17783 2.48893)"/><circle r="1" fill="#d8d8d8" fill-opacity=".5" transform="matrix(-2.40261 .4453 -5.6739 -30.61358 31.5 3.3)"/><circle r="1" fill="#070707" fill-opacity=".5" transform="matrix(-4.5052 12.29962 -6.57394 -2.40796 .5 .5)"/><circle r="1" fill="#d0d0d0" fill-opacity=".5" transform="rotate(-173.4 10.7 -.2) scale(1 10.35714)"/><circle r="1" fill="#cdcdcd" fill-opacity=".5" transform="matrix(3.41588 .8885 -.3181 1.22293 23 11)"/><circle r="1" fill="#e5e5e5" fill-opacity=".5" transform="rotate(-13.4 25.3 -133) scale(11.30661 1.8407)"/><circle r="1" fill="#050505" fill-opacity=".5" transform="matrix(28.1034 5.65335 -.6236 3.09996 18.3 20.5)"/><circle r="1" fill="#282828" fill-opacity=".5" transform="matrix(1.01399 -.0356 .12075 3.43999 29.3 12.8)"/><circle r="1" fill="#d2d2d2" fill-opacity=".5" transform="rotate(131.7 12.2 15) scale(3.99459 1)"/><circle r="1" fill="#121212" fill-opacity=".5" transform="matrix(-.99912 -.04188 .44554 -10.63024 19 .4)"/><circle r="1" fill="#595959" fill-opacity=".5" transform="rotate(-61.9 19.9 -9.3) scale(2.10646 1)"/><circle r="1" fill="#9c9c9c" fill-opacity=".5" transform="matrix(-.04117 -2.08417 2.77901 -.0549 25.1 13.6)"/><circle r="1" fill="#030303" fill-opacity=".5" transform="matrix(-1.63249 .42523 -1.7454 -6.70073 9 11.9)"/><circle r="1" fill="#848484" fill-opacity=".5" transform="matrix(.11147 .99377 -6.00097 .67312 30 6.3)"/><circle r="1" fill="#777" fill-opacity=".5" transform="matrix(.67672 2.42375 -1.20274 .33581 13.1 11.5)"/><circle r="1" fill="#e1e1e1" fill-opacity=".5" transform="matrix(.98943 .14503 -.96495 6.5829 22.2 2.3)"/><circle r="1" fill="#050505" fill-opacity=".5" transform="rotate(133.3 2.5 11) scale(6.80133 1.5965)"/><circle r="1" fill="#393939" fill-opacity=".5" transform="matrix(-2.25044 3.11589 -2.26072 -1.6328 8.3 1.8)"/><circle r="1" fill="#dedede" fill-opacity=".5" transform="rotate(-25.6 38.6 -47.1) scale(1 1.96817)"/><circle r="1" fill="#a2a2a2" fill-opacity=".5" transform="matrix(3.57983 -5.34748 .83098 .5563 17 .6)"/><circle r="1" fill="#323232" fill-opacity=".5" transform="matrix(1.97146 .32153 -.46974 2.88018 4.5 13.2)"/><circle r="1" fill="#181818" fill-opacity=".5" transform="matrix(1.0347 -.52948 1.69464 3.31162 28.2 10.8)"/><circle r="1" fill="#494949" fill-opacity=".5" transform="rotate(-6.3 197.6 -254.5)"/><circle r="1" fill="#3d3d3d" fill-opacity=".5" transform="matrix(-2.3503 -1.53831 .6523 -.99663 11.7 12.4)"/><circle r="1" fill="#040404" fill-opacity=".5" transform="matrix(-1.54188 3.83555 -.92784 -.37299 9.5 11.2)"/><circle r="1" fill="#d1d1d1" fill-opacity=".5" transform="matrix(-1.11711 -.47189 .7797 -1.84583 31.4 12.8)"/><circle r="1" fill="#444" fill-opacity=".5" transform="matrix(-3.89325 1.26152 -.46914 -1.44784 9.1 3.2)"/><circle r="1" fill="#0e0e0e" fill-opacity=".5" transform="matrix(.0119 6.81485 -6.70625 .0117 .5 2.9)"/><circle r="1" fill="#444" fill-opacity=".5" transform="rotate(54.6 -6 3.7)"/><circle r="1" fill="#0c0c0c" fill-opacity=".5" transform="rotate(-1.1 1112.9 -1630.9)"/><circle r="1" fill="#bfbfbf" fill-opacity=".5" transform="matrix(-3.69408 -1.83283 .61472 -1.23896 32.4 8.7)"/><circle r="1" fill="#7d7d7d" fill-opacity=".5" transform="rotate(146.2 14 9.3) scale(2.6782 1.19215)"/><circle r="1" fill="#b7b7b7" fill-opacity=".5" transform="matrix(.36033 -1.11304 2.79272 .9041 31.5 18)"/><circle r="1" fill="#c6c6c6" fill-opacity=".5" transform="rotate(95.2 12.3 18.2) scale(1 3.70713)"/><circle r="1" fill="#f0f0f0" fill-opacity=".5" transform="matrix(-.09868 -2.1377 .99894 -.04611 32 13.9)"/><circle r="1" fill="#bfbfbf" fill-opacity=".5" transform="matrix(-4.5254 5.92644 -.79478 -.6069 27.7 .5)"/></svg>