<svg xmlns="http://www.w3.org/2000/svg" viewBox="0 0 32 21"><defs/><path fill="#303c5c" d="M0 0h32v21H0z"/><circle r="1" fill="#ffffc8" fill-opacity=".5" transform="matrix(-10.82705 -3.74562 10.13509 -29.29642 10.5 5)"/><circle r="1" fill="#fffddb" fill-opacity=".5" transform="rotate(-104.9 20.2 1.1) scale(2.59557 31.00004)"/><circle r="1" fill="#fff3f4" fill-opacity=".5" transform="matrix(-8.94 -6.2646 5.34646 -7.62975 1.3 16.5)"/><circle r="1" fill="#794b26" fill-opacity=".5" transform="rotate(59.2 2 25.9) scale(7.84924 12.78273)"/><circle r="1" fill="#1d0e0d" fill-opacity=".5" transform="rotate(138.7 8.2 11.9) scale(4.60004 5.26474)"/><circle r="1" fill="#c1c2d2" fill-opacity=".5" transform="rotate(-79.1 27 -9.8) scale(10.21364 4.79495)"/><circle r="1" fill="#c6a486" fill-opacity=".5" transform="rotate(4 -18.6 194.4) scale(19.81403 2.49825)"/><circle r="1" fill="#000007" fill-opacity=".5" transform="matrix(1.43473 2.53471 -1.25257 .709 18.6 6.7)"/><circle r="1" fill="#fed8bd" fill-opacity=".5" transform="rotate(-74.1 23 -1.9) scale(1.13441 23.43189)"/><circle r="1" fill="#d4ac8f" fill-opacity=".5" transform="matrix(-4.1707 -4.9881 4.2447 -3.54912 12 8.6)"/><circle r="1" fill="#2d2e2c" fill-opacity=".5" transform="matrix(3.12895 .04368 -.13427 9.61913 24.7 11.3)"/><circle r="1" fill="#e3ecff" fill-opacity=".5" transform="matrix(.57163 4.66717 -2.76059 .33812 29.5 21.3)"/><circle r="1" fill="#5a3f13" fill-opacity=".5" transform="matrix(-.09828 1.28132 -2.39917 -.18402 12 9.8)"/><circle r="1" fill-opacity=".5" transform="matrix(-1.58751 -.31755 .44278 -2.21359 18.9 6)"/><circle r="1" fill="#2d0700" fill-opacity=".5" transform="matrix(3.90709 -1.76236 .9693 2.14889 20.3 15.7)"/><circle r="1" fill="#d0b2a2" fill-opacity=".5" transform="matrix(7.6848 11.52288 -1.8013 1.20132 10.7 .8)"/><circle r="1" fill="#070000" fill-opacity=".5" transform="matrix(-1.79597 .43117 -.9053 -3.77088 26.5 9.5)"/><circle r="1" fill="#c4bbae" fill-opacity=".5" transform="rotate(-169.6 11 .4) scale(7.35013 1)"/><circle r="1" fill="#798981" fill-opacity=".5" transform="matrix(.0427 -16.2863 1 .00262 .5 .5)"/><circle r="1" fill="#5c738d" fill-opacity=".5" transform="matrix(-.73963 -.67301 2.17362 -2.38877 27.5 14.8)"/><circle r="1" fill="#6e461f" fill-opacity=".5" transform="matrix(.05617 -.99842 9.57708 .53883 31.8 1.6)"/><circle r="1" fill="#e5e7fb" fill-opacity=".5" transform="matrix(3.574 2.26446 -1.88382 2.97323 3.2 19.6)"/><circle r="1" fill="#4f5861" fill-opacity=".5" transform="rotate(16.4 -36.9 115.3) scale(7.15953 1.14194)"/><circle r="1" fill="#f2caa1" fill-opacity=".5" transform="rotate(176.6 8 10.8) scale(4.43236 2.01091)"/><circle r="1" fill="#c9b39f" fill-opacity=".5" transform="matrix(22.99837 -3.75651 .86294 5.28314 .5 2.6)"/><circle r="1" fill="#93999b" fill-opacity=".5" transform="matrix(-1.0205 11.49325 -.99608 -.08844 22 .5)"/><circle r="1" fill="#ffe0c3" fill-opacity=".5" transform="matrix(2.05082 -2.70186 .79653 .6046 10.7 14.4)"/><circle r="1" fill="#ab8174" fill-opacity=".5" transform="matrix(-.57111 .82087 -2.89364 -2.01323 31.5 10.3)"/><circle r="1" fill="#140b05" fill-opacity=".5" transform="matrix(-1.26262 1.24234 -2.48007 -2.52055 23 17.6)"/><circle r="1" fill="#cbf7fb" fill-opacity=".5" transform="rotate(-88.4 6.2 5.5) scale(1 7.60412)"/><circle r="1" fill="#8e5427" fill-opacity=".5" transform="matrix(-1.2392 -.9338 2.02622 -2.68889 14.9 16)"/><circle r="1" fill="#dcd3ce" fill-opacity=".5" transform="rotate(-80.5 10 -10.1) scale(1.78023 3.04497)"/><circle r="1" fill="#324a3c" fill-opacity=".5" transform="matrix(-.30574 1.25518 -.9716 -.23666 .5 13.8)"/><circle r="1" fill="#fdd1bb" fill-opacity=".5" transform="rotate(169 8 6.6)"/><circle r="1" fill="#b6c3d8" fill-opacity=".5" transform="rotate(-150.8 18 5.3) scale(6.0509 1.20001)"/><circle r="1" fill="#7c6542" fill-opacity=".5" transform="rotate(-100.2 10.2 .2) scale(1 3.6228)"/><circle r="1" fill="#795e52" fill-opacity=".5" transform="matrix(-.58513 5.36828 -.99411 -.10836 32 11.3)"/><circle r="1" fill="#b69d84" fill-opacity=".5" transform="rotate(-172.7 .6 .7) scale(11.99472 4.74476)"/><circle r="1" fill="#212124" fill-opacity=".5" transform="rotate(-28.1 19.6 -34.6) scale(1.8815 1.83323)"/><circle r="1" fill="#d0c6bf" fill-opacity=".5" transform="matrix(-.46178 -1.23122 3.85824 -1.44708 18.6 2.4)"/><circle r="1" fill="#eacfb2" fill-opacity=".5" transform="matrix(9.37471 1.63615 -.17193 .9851 23.1 21.4)"/><circle r="1" fill="#376b67" fill-opacity=".5" transform="rotate(-149.1 1.5 4.6)"/><circle r="1" fill="#574f33" fill-opacity=".5" transform="matrix(1.55155 -3.16 1.1214 .5506 24.5 1.8)"/><circle r="1" fill="#a592a6" fill-opacity=".5" transform="rotate(-144 5.6 9)"/><circle r="1" fill="#ffe4d2" fill-opacity=".5" transform="rotate(103.5 4.4 11.8)"/><circle r="1" fill="#ab915d" fill-opacity=".5" transform="rotate(22 -46.8 40.8) scale(1 1.93521)"/><circle r="1" fill-opacity=".5" transform="matrix(-1.59053 .19603 -.15263 -1.23844 18.5 6.3)"/><circle r="1" fill="#ccaa8e" fill-opacity=".5" transform="rotate(-82.9 16.1 -14.7)"/><circle r="1" fill="#5c2e0e" fill-opacity=".5" transform="rotate(-48.1 26.5 -12) scale(3.18503 2.28654)"/><circle r="1" fill="#70575e" fill-opacity=".5" transform="rotate(107.9 6.5 12.2) scale(1 2.7017)"/></svg>