<svg xmlns="http://www.w3.org/2000/svg" viewBox="0 0 32 48"><defs/><path fill="#413738" d="M0 0h32v48H0z"/><circle r="1" fill="#fff" fill-opacity=".5" transform="matrix(-18.84718 -14.15086 18.61302 -24.79022 31.6 19.1)"/><circle r="1" fill="#fff9ed" fill-opacity=".5" transform="matrix(-7.60345 -3.67565 13.49216 -27.90987 25.5 19.8)"/><circle r="1" fill="#694b39" fill-opacity=".5" transform="rotate(-167.8 3.5 6) scale(14.88315 11.68401)"/><circle r="1" fill="#fbe5c6" fill-opacity=".5" transform="matrix(14.16464 2.54862 -.87123 4.84207 26.8 4)"/><circle r="1" fill="#050000" fill-opacity=".5" transform="matrix(-1.59974 .57168 -1.03006 -2.88244 31.5 35.2)"/><circle r="1" fill="#ecdcdd" fill-opacity=".5" transform="rotate(-142.8 17.8 14.6) scale(21.36434 3.60254)"/><circle r="1" fill="#ffc998" fill-opacity=".5" transform="matrix(-21.25101 15.4965 -2.15713 -2.95816 .4 1.3)"/><circle r="1" fill="#3f3739" fill-opacity=".5" transform="matrix(-14.62828 10.21642 -3.114 -4.45876 .5 24.3)"/><circle r="1" fill-opacity=".5" transform="rotate(-20.4 114.3 19.2) scale(3.88281 31.00001)"/><circle r="1" fill="#e9d3ce" fill-opacity=".5" transform="matrix(-5.08556 -4.886 16.1752 -16.83583 22.3 22.6)"/><circle r="1" fill="#7b6970" fill-opacity=".5" transform="rotate(67.2 -27.5 29.1) scale(20.85579 2.8577)"/><circle r="1" fill="#210000" fill-opacity=".5" transform="matrix(-.49337 1.48313 -4.19794 -1.39647 31.6 34.6)"/><circle r="1" fill="#b2bab5" fill-opacity=".5" transform="rotate(-91.8 9 -3.2) scale(4.17715 1.82047)"/><circle r="1" fill="#bd9681" fill-opacity=".5" transform="matrix(-1.87866 12.13538 -2.347 -.36333 27.5 31.4)"/><circle r="1" fill="#debe95" fill-opacity=".5" transform="matrix(-.6747 -1.39258 1.54685 -.74945 1.7 12)"/><circle r="1" fill="#f7ebe1" fill-opacity=".5" transform="matrix(-.41331 30.99724 -2.21658 -.02956 23.8 .5)"/><circle r="1" fill="#c2b6af" fill-opacity=".5" transform="matrix(1.12878 .27013 -1.87491 7.8345 13.9 6.9)"/><circle r="1" fill="#6c655d" fill-opacity=".5" transform="matrix(-.63903 1.44888 -5.9794 -2.63723 15.2 6.1)"/><circle r="1" fill="#fffffe" fill-opacity=".5" transform="rotate(-3.8 658.1 -427) scale(2.53885 1.80799)"/><circle r="1" fill="#363437" fill-opacity=".5" transform="matrix(-4.65231 10.75086 -3.30689 -1.43102 5.6 14.5)"/><circle r="1" fill="#e5e3f2" fill-opacity=".5" transform="matrix(-2.26992 -16.35841 .9905 -.13744 14 39.3)"/><circle r="1" fill="#1e1a1d" fill-opacity=".5" transform="matrix(-.0326 .99947 -30.98352 -1.01084 9.3 47.5)"/><circle r="1" fill="#ffc6a1" fill-opacity=".5" transform="matrix(3.90193 -4.17504 2.53192 2.3663 .5 .5)"/><circle r="1" fill="#bd927f" fill-opacity=".5" transform="matrix(1.7069 1.01348 -2.37344 3.99732 19.3 16.8)"/><circle r="1" fill-opacity=".5" transform="matrix(4.7263 -1.44497 1.96211 6.41778 1.4 47.5)"/><circle r="1" fill="#644d46" fill-opacity=".5" transform="rotate(107.7 3.8 12) scale(5.6426 2.5206)"/><circle r="1" fill="#decfbb" fill-opacity=".5" transform="matrix(17.2225 2.60355 -.4009 2.65191 29.7 4.8)"/><circle r="1" fill="#f3ebdb" fill-opacity=".5" transform="matrix(.6179 2.02106 -11.48886 3.5125 27.5 19.6)"/><circle r="1" fill="#321c24" fill-opacity=".5" transform="matrix(-.23365 .97232 -6.51968 -1.56667 31.5 34.5)"/><circle r="1" fill="#e0eaf6" fill-opacity=".5" transform="matrix(8.7225 .26295 -.05263 1.74572 15 30.3)"/><circle r="1" fill="#8b828e" fill-opacity=".5" transform="matrix(-.99337 .11494 -1.65115 -14.27047 12.3 47.3)"/><circle r="1" fill="#dba997" fill-opacity=".5" transform="rotate(50.6 -17.6 28.4) scale(4.86886 2.53592)"/><circle r="1" fill="#b19fa6" fill-opacity=".5" transform="rotate(-1.6 1160.6 -297.5) scale(1 12.14175)"/><circle r="1" fill="#d4865f" fill-opacity=".5" transform="matrix(-5.33667 -2.8137 .46639 -.88458 31.4 39.6)"/><circle r="1" fill="#f3e0cc" fill-opacity=".5" transform="rotate(82.1 8 22.4) scale(2.62572 10.71955)"/><circle r="1" fill="#b59b84" fill-opacity=".5" transform="rotate(105.8 5.3 25.5) scale(5.94479 3.29899)"/><circle r="1" fill="#ffc" fill-opacity=".5" transform="rotate(-29.9 26.5 6)"/><circle r="1" fill="#d0c5b7" fill-opacity=".5" transform="matrix(-.745 -1.53571 1.1554 -.5605 12.7 12.7)"/><circle r="1" fill="#330900" fill-opacity=".5" transform="rotate(-109.8 4.4 3.3) scale(1 3.71396)"/><circle r="1" fill="#34302b" fill-opacity=".5" transform="matrix(-5.39851 -2.51737 .56888 -1.21996 8.9 14.2)"/><circle r="1" fill="#4e3c34" fill-opacity=".5" transform="rotate(8.2 -131.7 81) scale(1 5.59277)"/><circle r="1" fill-opacity=".5" transform="matrix(2.24756 .0406 -.01806 .99984 9.9 .5)"/><circle r="1" fill="#856f7c" fill-opacity=".5" transform="matrix(2.35797 -1.6982 1.2966 1.80036 21.3 44.4)"/><circle r="1" fill="#cfd5e3" fill-opacity=".5" transform="rotate(21.4 -81.6 69) scale(2.24557 14.43671)"/><circle r="1" fill="#e6e3e2" fill-opacity=".5" transform="rotate(-113.1 20.1 4.1) scale(6.66011 1.63143)"/><circle r="1" fill="#4d4444" fill-opacity=".5" transform="matrix(.91982 -1.11156 7.70443 6.37542 6.3 42)"/><circle r="1" fill="#946a59" fill-opacity=".5" transform="rotate(-169.3 8.8 8.3) scale(1.31767 4.70407)"/><circle r="1" fill="#4b1d0f" fill-opacity=".5" transform="rotate(53.4 -20.8 49.7) scale(4.8082 1)"/><circle r="1" fill-opacity=".5" transform="matrix(-.46528 -.88516 2.38629 -1.25434 10.2 .9)"/><circle r="1" fill="#fef0e9" fill-opacity=".5" transform="rotate(-27 22.8 -23.2)"/></svg>